M48
;DRILL file {KiCad 4.0.4-stable} date 04/20/17 14:33:50
;FORMAT={-:-/ absolute / inch / decimal}
FMAT,2
INCH,TZ
T1C0.012
T2C0.016
T3C0.032
T4C0.039
T5C0.040
T6C0.051
T7C0.055
T8C0.063
%
G90
G05
M72
T1
X6.3157Y-2.2705
X6.3157Y-2.3492
X6.3945Y-2.2705
X6.3945Y-2.3492
X6.4732Y-2.2705
X6.4732Y-2.3492
X6.552Y-2.2705
X6.552Y-2.3492
X7.4114Y-2.5933
X7.5161Y-2.5933
X7.6319Y-2.5921
X7.7181Y-2.5949
X7.7697Y-3.1799
X7.7697Y-3.2587
X7.8126Y-2.5941
X7.8484Y-3.1799
X7.8484Y-3.2587
T2
X7.9264Y-3.2728
T3
X7.6606Y-2.865
X7.6606Y-2.965
X7.6858Y-3.5091
X7.6858Y-3.6091
X7.9606Y-2.865
X7.9606Y-2.965
X7.9858Y-3.5091
X7.9858Y-3.6091
X8.3122Y-2.9134
X8.3122Y-3.0134
X8.3122Y-3.1134
X8.4122Y-2.9134
X8.4122Y-3.0134
X8.4122Y-3.1134
T4
X7.0106Y-2.2783
X7.0106Y-2.3776
X7.0106Y-2.4776
X7.1106Y-2.2783
X7.1106Y-2.3776
X7.1106Y-2.4776
X7.2106Y-2.2783
X7.2106Y-2.3776
X7.2106Y-2.4776
X7.3106Y-2.2783
X7.3106Y-2.3776
X7.3106Y-2.4776
X7.4106Y-2.2783
X7.4106Y-2.3776
X7.4106Y-2.4776
X7.5106Y-2.2783
X7.5106Y-2.3776
X7.5106Y-2.4776
X7.6106Y-2.2783
X7.6106Y-2.3776
X7.6106Y-2.4776
X7.6421Y-3.8083
X7.7106Y-2.2783
X7.7106Y-2.3776
X7.7106Y-2.4776
X7.7421Y-3.8083
X7.8106Y-2.2783
X7.8106Y-2.3776
X7.8106Y-2.4776
X7.9106Y-2.2783
X7.9106Y-2.3776
X7.9106Y-2.4776
X8.0106Y-2.2783
X8.0106Y-2.3776
X8.0106Y-2.4776
X8.1106Y-2.2783
X8.1106Y-2.3776
X8.1106Y-2.4776
T5
X6.5522Y-2.1134
X6.6522Y-2.1134
X6.7522Y-2.1134
X6.8522Y-2.1134
X6.9122Y-4.0134
X6.9522Y-2.1134
X7.0122Y-4.0134
X7.0522Y-2.1134
X7.1122Y-4.0134
X7.1522Y-2.1134
X7.2122Y-4.0134
X7.2522Y-2.1134
X7.3122Y-4.0134
X7.3522Y-2.1134
X7.4122Y-4.0134
X7.4522Y-2.1134
X7.5122Y-4.0134
X7.6122Y-2.1134
X7.6122Y-4.0134
X7.7122Y-2.1134
X7.8122Y-2.1134
X7.8122Y-4.0134
X7.9122Y-2.1134
X7.9122Y-4.0134
X8.0122Y-2.1134
X8.0122Y-4.0134
X8.1122Y-2.1134
X8.1122Y-4.0134
X8.2122Y-2.1134
X8.2122Y-4.0134
X8.3122Y-2.1134
X8.3122Y-4.0134
X8.4122Y-4.0134
X8.5122Y-2.1134
X8.5122Y-4.0134
X8.6122Y-2.1134
X8.7122Y-2.1134
X8.7122Y-4.0134
X8.8122Y-2.1134
X8.8122Y-4.0134
X8.9122Y-2.1134
X8.9122Y-4.0134
X9.0122Y-2.1134
X9.0122Y-4.0134
X9.1122Y-2.1134
X9.1122Y-4.0134
X9.2122Y-2.1134
X9.2122Y-4.0134
X9.3122Y-4.0134
X9.4122Y-4.0134
X9.5122Y-2.1134
X9.5122Y-2.2134
X9.5122Y-2.3134
X9.5122Y-2.4134
X9.5122Y-2.5134
X9.5122Y-2.6134
X9.5122Y-2.7134
X9.5122Y-2.8134
X9.5122Y-2.9134
X9.5122Y-3.0134
X9.5122Y-3.1134
X9.5122Y-3.2134
X9.5122Y-3.3134
X9.5122Y-3.4134
X9.5122Y-3.5134
X9.5122Y-3.6134
X9.5122Y-3.7134
X9.5122Y-3.8134
X9.6122Y-2.1134
X9.6122Y-2.2134
X9.6122Y-2.3134
X9.6122Y-2.4134
X9.6122Y-2.5134
X9.6122Y-2.6134
X9.6122Y-2.7134
X9.6122Y-2.8134
X9.6122Y-2.9134
X9.6122Y-3.0134
X9.6122Y-3.1134
X9.6122Y-3.2134
X9.6122Y-3.3134
X9.6122Y-3.4134
X9.6122Y-3.5134
X9.6122Y-3.6134
X9.6122Y-3.7134
X9.6122Y-3.8134
T6
X6.0665Y-3.5327
X6.0665Y-3.7327
X6.0665Y-3.9327
X6.0681Y-2.789
X6.0681Y-2.989
X6.0681Y-3.189
X6.0701Y-2.2248
X6.0701Y-2.4248
T7
X7.4559Y-2.7236
X7.4559Y-3.1236
X7.4559Y-3.4138
X7.4559Y-3.8138
T8
X6.6583Y-3.3417
X6.6583Y-3.8142
X6.6591Y-2.6752
X6.6591Y-3.1476
X7.1386Y-3.3417
X7.1386Y-3.8142
X7.1394Y-2.6752
X7.1394Y-3.1476
X7.2173Y-3.578
X7.2181Y-2.9114
T0
M30
