G04 #@! TF.FileFunction,Drawing*
%FSLAX46Y46*%
G04 Gerber Fmt 4.6, Leading zero omitted, Abs format (unit mm)*
G04 Created by KiCad (PCBNEW 4.0.4-stable) date 04/20/17 14:33:44*
%MOMM*%
%LPD*%
G01*
G04 APERTURE LIST*
%ADD10C,0.100000*%
%ADD11C,0.300000*%
%ADD12C,0.150000*%
G04 APERTURE END LIST*
D10*
D11*
X190545727Y-46020406D02*
X190831442Y-46020288D01*
X190974269Y-45948801D01*
X191045667Y-45877342D01*
X191188437Y-45662998D01*
X191259746Y-45377253D01*
X191259509Y-44805825D01*
X191188022Y-44662998D01*
X191116564Y-44591599D01*
X190973677Y-44520229D01*
X190687963Y-44520347D01*
X190545135Y-44591835D01*
X190473736Y-44663294D01*
X190402366Y-44806181D01*
X190402514Y-45163324D01*
X190474003Y-45306151D01*
X190545460Y-45377549D01*
X190688348Y-45448919D01*
X190974062Y-45448801D01*
X191116889Y-45377313D01*
X191188289Y-45305855D01*
X191259657Y-45162968D01*
X192545105Y-44519577D02*
X192259391Y-44519696D01*
X192116563Y-44591184D01*
X192045164Y-44662643D01*
X191902396Y-44876987D01*
X191831085Y-45162731D01*
X191831322Y-45734159D01*
X191902810Y-45876987D01*
X191974268Y-45948386D01*
X192117156Y-46019755D01*
X192402870Y-46019637D01*
X192545697Y-45948149D01*
X192617096Y-45876691D01*
X192688465Y-45733804D01*
X192688317Y-45376661D01*
X192616830Y-45233834D01*
X192545371Y-45162435D01*
X192402485Y-45091066D01*
X192116771Y-45091184D01*
X191973942Y-45162672D01*
X191902544Y-45234130D01*
X191831174Y-45377016D01*
X193331381Y-45876395D02*
X193402839Y-45947794D01*
X193331440Y-46019252D01*
X193259982Y-45947853D01*
X193331381Y-45876395D01*
X193331440Y-46019252D01*
X194759391Y-44518660D02*
X194045105Y-44518956D01*
X193973972Y-45233271D01*
X194045371Y-45161814D01*
X194188199Y-45090326D01*
X194545342Y-45090178D01*
X194688228Y-45161547D01*
X194759687Y-45232946D01*
X194831174Y-45375773D01*
X194831322Y-45732916D01*
X194759953Y-45875803D01*
X194688554Y-45947261D01*
X194545726Y-46018748D01*
X194188583Y-46018896D01*
X194045697Y-45947528D01*
X193974238Y-45876128D01*
X195402306Y-44661251D02*
X195473705Y-44589793D01*
X195616533Y-44518304D01*
X195973676Y-44518156D01*
X196116562Y-44589526D01*
X196188021Y-44660926D01*
X196259508Y-44803753D01*
X196259567Y-44946610D01*
X196188228Y-45160926D01*
X195331440Y-46018423D01*
X196260011Y-46018038D01*
X198045725Y-46017298D02*
X198045311Y-45017298D01*
X198045370Y-45160156D02*
X198116768Y-45088697D01*
X198259597Y-45017209D01*
X198473882Y-45017120D01*
X198616768Y-45088490D01*
X198688256Y-45231317D01*
X198688582Y-46017031D01*
X198688256Y-45231317D02*
X198759626Y-45088431D01*
X198902454Y-45016943D01*
X199116739Y-45016854D01*
X199259626Y-45088224D01*
X199331113Y-45231051D01*
X199331439Y-46016765D01*
X200045725Y-46016469D02*
X200045310Y-45016469D01*
X200045370Y-45159327D02*
X200116768Y-45087868D01*
X200259596Y-45016380D01*
X200473881Y-45016291D01*
X200616768Y-45087661D01*
X200688256Y-45230488D01*
X200688582Y-46016202D01*
X200688256Y-45230488D02*
X200759626Y-45087602D01*
X200902453Y-45016114D01*
X201116738Y-45016025D01*
X201259626Y-45087395D01*
X201331113Y-45230222D01*
X201331439Y-46015936D01*
X147648147Y-46709615D02*
X244158147Y-46669615D01*
X147650000Y-51180000D02*
X147647028Y-44009615D01*
X244160000Y-51140000D02*
X244157028Y-43969615D01*
X244158147Y-46669615D02*
X243031886Y-47256503D01*
X244158147Y-46669615D02*
X243031400Y-46083661D01*
X147648147Y-46709615D02*
X148774894Y-47295569D01*
X147648147Y-46709615D02*
X148774408Y-46122727D01*
X192363573Y-121198571D02*
X191506430Y-121198571D01*
X191935002Y-121198571D02*
X191935002Y-119698571D01*
X191792145Y-119912857D01*
X191649287Y-120055714D01*
X191506430Y-120127143D01*
X193292144Y-119698571D02*
X193435001Y-119698571D01*
X193577858Y-119770000D01*
X193649287Y-119841429D01*
X193720716Y-119984286D01*
X193792144Y-120270000D01*
X193792144Y-120627143D01*
X193720716Y-120912857D01*
X193649287Y-121055714D01*
X193577858Y-121127143D01*
X193435001Y-121198571D01*
X193292144Y-121198571D01*
X193149287Y-121127143D01*
X193077858Y-121055714D01*
X193006430Y-120912857D01*
X192935001Y-120627143D01*
X192935001Y-120270000D01*
X193006430Y-119984286D01*
X193077858Y-119841429D01*
X193149287Y-119770000D01*
X193292144Y-119698571D01*
X195220715Y-121198571D02*
X194363572Y-121198571D01*
X194792144Y-121198571D02*
X194792144Y-119698571D01*
X194649287Y-119912857D01*
X194506429Y-120055714D01*
X194363572Y-120127143D01*
X195863572Y-121055714D02*
X195935000Y-121127143D01*
X195863572Y-121198571D01*
X195792143Y-121127143D01*
X195863572Y-121055714D01*
X195863572Y-121198571D01*
X197220715Y-119698571D02*
X196935001Y-119698571D01*
X196792144Y-119770000D01*
X196720715Y-119841429D01*
X196577858Y-120055714D01*
X196506429Y-120341429D01*
X196506429Y-120912857D01*
X196577858Y-121055714D01*
X196649286Y-121127143D01*
X196792144Y-121198571D01*
X197077858Y-121198571D01*
X197220715Y-121127143D01*
X197292144Y-121055714D01*
X197363572Y-120912857D01*
X197363572Y-120555714D01*
X197292144Y-120412857D01*
X197220715Y-120341429D01*
X197077858Y-120270000D01*
X196792144Y-120270000D01*
X196649286Y-120341429D01*
X196577858Y-120412857D01*
X196506429Y-120555714D01*
X198292143Y-119698571D02*
X198435000Y-119698571D01*
X198577857Y-119770000D01*
X198649286Y-119841429D01*
X198720715Y-119984286D01*
X198792143Y-120270000D01*
X198792143Y-120627143D01*
X198720715Y-120912857D01*
X198649286Y-121055714D01*
X198577857Y-121127143D01*
X198435000Y-121198571D01*
X198292143Y-121198571D01*
X198149286Y-121127143D01*
X198077857Y-121055714D01*
X198006429Y-120912857D01*
X197935000Y-120627143D01*
X197935000Y-120270000D01*
X198006429Y-119984286D01*
X198077857Y-119841429D01*
X198149286Y-119770000D01*
X198292143Y-119698571D01*
X199720714Y-119698571D02*
X199863571Y-119698571D01*
X200006428Y-119770000D01*
X200077857Y-119841429D01*
X200149286Y-119984286D01*
X200220714Y-120270000D01*
X200220714Y-120627143D01*
X200149286Y-120912857D01*
X200077857Y-121055714D01*
X200006428Y-121127143D01*
X199863571Y-121198571D01*
X199720714Y-121198571D01*
X199577857Y-121127143D01*
X199506428Y-121055714D01*
X199435000Y-120912857D01*
X199363571Y-120627143D01*
X199363571Y-120270000D01*
X199435000Y-119984286D01*
X199506428Y-119841429D01*
X199577857Y-119770000D01*
X199720714Y-119698571D01*
X202006428Y-121198571D02*
X202006428Y-120198571D01*
X202006428Y-120341429D02*
X202077856Y-120270000D01*
X202220714Y-120198571D01*
X202434999Y-120198571D01*
X202577856Y-120270000D01*
X202649285Y-120412857D01*
X202649285Y-121198571D01*
X202649285Y-120412857D02*
X202720714Y-120270000D01*
X202863571Y-120198571D01*
X203077856Y-120198571D01*
X203220714Y-120270000D01*
X203292142Y-120412857D01*
X203292142Y-121198571D01*
X204006428Y-121198571D02*
X204006428Y-120198571D01*
X204006428Y-120341429D02*
X204077856Y-120270000D01*
X204220714Y-120198571D01*
X204434999Y-120198571D01*
X204577856Y-120270000D01*
X204649285Y-120412857D01*
X204649285Y-121198571D01*
X204649285Y-120412857D02*
X204720714Y-120270000D01*
X204863571Y-120198571D01*
X205077856Y-120198571D01*
X205220714Y-120270000D01*
X205292142Y-120412857D01*
X205292142Y-121198571D01*
X147670000Y-119170000D02*
X249200000Y-119170000D01*
X147670000Y-104470000D02*
X147670000Y-121870000D01*
X249200000Y-104470000D02*
X249200000Y-121870000D01*
X249200000Y-119170000D02*
X248073496Y-119756421D01*
X249200000Y-119170000D02*
X248073496Y-118583579D01*
X147670000Y-119170000D02*
X148796504Y-119756421D01*
X147670000Y-119170000D02*
X148796504Y-118583579D01*
X258886951Y-60363328D02*
X258878834Y-61220433D01*
X258882892Y-60791880D02*
X257382960Y-60777674D01*
X257595883Y-60922554D01*
X257737381Y-61066759D01*
X257807454Y-61210286D01*
X257535282Y-59779073D02*
X257464533Y-59706970D01*
X257394460Y-59563443D01*
X257397842Y-59206316D01*
X257470621Y-59064142D01*
X257542723Y-58993393D01*
X257686250Y-58923321D01*
X257829101Y-58924674D01*
X258042701Y-58998128D01*
X258891687Y-59863351D01*
X258900481Y-58934821D01*
X258763719Y-58290640D02*
X258835821Y-58219892D01*
X258906569Y-58291993D01*
X258834468Y-58362743D01*
X258763719Y-58290640D01*
X258906569Y-58291993D01*
X257412048Y-57706384D02*
X257421519Y-56706429D01*
X258915364Y-57363463D01*
X257429637Y-55849325D02*
X257430990Y-55706474D01*
X257503769Y-55564300D01*
X257575871Y-55493551D01*
X257719398Y-55423478D01*
X258005776Y-55354759D01*
X258362903Y-55358142D01*
X258647927Y-55432272D01*
X258790102Y-55505051D01*
X258860851Y-55577153D01*
X258930923Y-55720681D01*
X258929570Y-55863531D01*
X258856792Y-56005705D01*
X258784690Y-56076455D01*
X258641163Y-56146526D01*
X258354785Y-56215246D01*
X257997658Y-56211864D01*
X257712633Y-56137732D01*
X257570459Y-56064954D01*
X257499710Y-55992852D01*
X257429637Y-55849325D01*
X257443167Y-54420818D02*
X257444520Y-54277967D01*
X257517298Y-54135793D01*
X257589401Y-54065044D01*
X257732928Y-53994971D01*
X258019305Y-53926252D01*
X258376432Y-53929635D01*
X258661457Y-54003766D01*
X258803631Y-54076544D01*
X258874381Y-54148647D01*
X258944452Y-54292174D01*
X258943099Y-54435024D01*
X258870322Y-54577198D01*
X258798219Y-54647948D01*
X258654692Y-54718019D01*
X258368315Y-54786739D01*
X258011188Y-54783357D01*
X257726163Y-54709225D01*
X257583989Y-54636447D01*
X257513240Y-54564345D01*
X257443167Y-54420818D01*
X258964747Y-52149413D02*
X257964792Y-52139942D01*
X258107643Y-52141295D02*
X258036894Y-52069194D01*
X257966821Y-51925666D01*
X257968851Y-51711390D01*
X258041629Y-51569216D01*
X258185156Y-51499143D01*
X258970835Y-51506585D01*
X258185156Y-51499143D02*
X258042982Y-51426364D01*
X257972910Y-51282837D01*
X257974939Y-51068562D01*
X258047718Y-50926387D01*
X258191245Y-50856315D01*
X258976924Y-50863756D01*
X258983688Y-50149502D02*
X257983733Y-50140032D01*
X258126585Y-50141385D02*
X258055836Y-50069283D01*
X257985763Y-49925755D01*
X257987792Y-49711480D01*
X258060571Y-49569306D01*
X258204098Y-49499233D01*
X258989777Y-49506674D01*
X258204098Y-49499233D02*
X258061924Y-49426454D01*
X257991851Y-49282927D01*
X257993881Y-49068652D01*
X258066659Y-48926477D01*
X258210186Y-48856405D01*
X258995865Y-48863846D01*
X256849208Y-63926030D02*
X256969208Y-51256030D01*
X246710000Y-63830000D02*
X259549087Y-63951601D01*
X246830000Y-51160000D02*
X259669087Y-51281601D01*
X256969208Y-51256030D02*
X257544934Y-52388037D01*
X256969208Y-51256030D02*
X256372145Y-52376929D01*
X256849208Y-63926030D02*
X257446271Y-62805131D01*
X256849208Y-63926030D02*
X256273482Y-62794023D01*
X257459079Y-91702220D02*
X257459812Y-90773649D01*
X258030846Y-91274100D01*
X258031016Y-91059814D01*
X258102557Y-90917013D01*
X258174042Y-90845641D01*
X258316955Y-90774326D01*
X258674098Y-90774607D01*
X258816898Y-90846148D01*
X258888271Y-90917633D01*
X258959586Y-91060547D01*
X258959248Y-91489119D01*
X258887707Y-91631919D01*
X258816222Y-91703291D01*
X258103346Y-89917014D02*
X258031805Y-90059815D01*
X257960319Y-90131187D01*
X257817406Y-90202503D01*
X257745978Y-90202447D01*
X257603177Y-90130905D01*
X257531805Y-90059421D01*
X257460488Y-89916506D01*
X257460714Y-89630793D01*
X257532256Y-89487992D01*
X257603741Y-89416619D01*
X257746654Y-89345304D01*
X257818082Y-89345360D01*
X257960883Y-89416901D01*
X258032255Y-89488386D01*
X258103572Y-89631300D01*
X258103346Y-89917014D01*
X258174662Y-90059928D01*
X258246034Y-90131412D01*
X258388835Y-90202954D01*
X258674549Y-90203179D01*
X258817462Y-90131863D01*
X258888947Y-90060492D01*
X258960488Y-89917690D01*
X258960713Y-89631976D01*
X258889398Y-89489063D01*
X258818026Y-89417577D01*
X258675225Y-89346037D01*
X258389511Y-89345811D01*
X258246598Y-89417127D01*
X258175112Y-89488499D01*
X258103572Y-89631300D01*
X258818589Y-88703293D02*
X258890075Y-88631921D01*
X258961446Y-88703405D01*
X258889962Y-88774778D01*
X258818589Y-88703293D01*
X258961446Y-88703405D01*
X258962630Y-87203406D02*
X258961953Y-88060549D01*
X258962292Y-87631977D02*
X257462292Y-87630793D01*
X257676465Y-87773819D01*
X257819209Y-87916790D01*
X257890526Y-88059703D01*
X257463363Y-86273652D02*
X257463476Y-86130795D01*
X257535017Y-85987994D01*
X257606503Y-85916621D01*
X257749416Y-85845305D01*
X258035186Y-85774103D01*
X258392329Y-85774384D01*
X258677987Y-85846038D01*
X258820787Y-85917580D01*
X258892160Y-85989065D01*
X258963475Y-86131978D01*
X258963362Y-86274835D01*
X258891822Y-86417636D01*
X258820336Y-86489008D01*
X258677423Y-86560324D01*
X258391653Y-86631527D01*
X258034510Y-86631245D01*
X257748852Y-86559591D01*
X257606052Y-86488050D01*
X257534679Y-86416565D01*
X257463363Y-86273652D01*
X257464490Y-84845081D02*
X257464603Y-84702224D01*
X257536145Y-84559423D01*
X257607630Y-84488051D01*
X257750543Y-84416735D01*
X258036313Y-84345532D01*
X258393456Y-84345814D01*
X258679114Y-84417467D01*
X258821915Y-84489009D01*
X258893287Y-84560494D01*
X258964602Y-84703408D01*
X258964490Y-84846265D01*
X258892949Y-84989065D01*
X258821464Y-85060438D01*
X258678550Y-85131753D01*
X258392780Y-85202957D01*
X258035637Y-85202675D01*
X257749980Y-85131020D01*
X257607179Y-85059480D01*
X257535806Y-84987994D01*
X257464490Y-84845081D01*
X258966293Y-82560551D02*
X257966294Y-82559762D01*
X258109152Y-82559875D02*
X258037779Y-82488391D01*
X257966463Y-82345476D01*
X257966632Y-82131191D01*
X258038173Y-81988391D01*
X258181087Y-81917075D01*
X258966800Y-81917695D01*
X258181087Y-81917075D02*
X258038286Y-81845533D01*
X257966970Y-81702620D01*
X257967139Y-81488335D01*
X258038681Y-81345533D01*
X258181594Y-81274218D01*
X258967308Y-81274838D01*
X258967871Y-80560552D02*
X257967872Y-80559763D01*
X258110730Y-80559876D02*
X258039357Y-80488391D01*
X257968041Y-80345477D01*
X257968210Y-80131192D01*
X258039752Y-79988391D01*
X258182665Y-79917075D01*
X258968379Y-79917695D01*
X258182665Y-79917075D02*
X258039864Y-79845533D01*
X257968548Y-79702620D01*
X257968717Y-79488335D01*
X258040259Y-79345534D01*
X258183172Y-79274218D01*
X258968886Y-79274838D01*
X256920469Y-104426092D02*
X256950469Y-66406092D01*
X249200000Y-104420000D02*
X259620468Y-104428222D01*
X249230000Y-66400000D02*
X259650468Y-66408222D01*
X256950469Y-66406092D02*
X257536001Y-67533058D01*
X256950469Y-66406092D02*
X256363160Y-67532133D01*
X256920469Y-104426092D02*
X257507778Y-103300051D01*
X256920469Y-104426092D02*
X256334937Y-103299126D01*
X255424318Y-92420235D02*
X255434092Y-93348755D01*
X254857432Y-92854797D01*
X254859687Y-93069072D01*
X254789766Y-93212673D01*
X254719094Y-93284849D01*
X254576997Y-93357777D01*
X254219873Y-93361536D01*
X254076272Y-93291616D01*
X254004095Y-93220943D01*
X253931168Y-93078845D01*
X253926657Y-92650297D01*
X253996577Y-92506696D01*
X254067250Y-92434520D01*
X254083791Y-94005861D02*
X254013118Y-94078037D01*
X253940942Y-94007365D01*
X254011614Y-93935188D01*
X254083791Y-94005861D01*
X253940942Y-94007365D01*
X254807810Y-94926864D02*
X254877731Y-94783262D01*
X254948405Y-94711086D01*
X255090502Y-94638157D01*
X255161926Y-94637405D01*
X255305527Y-94707327D01*
X255377704Y-94777999D01*
X255450632Y-94920097D01*
X255453640Y-95205795D01*
X255383718Y-95349396D01*
X255313045Y-95421573D01*
X255170948Y-95494501D01*
X255099524Y-95495253D01*
X254955923Y-95425332D01*
X254883746Y-95354659D01*
X254810817Y-95212562D01*
X254807810Y-94926864D01*
X254734882Y-94784765D01*
X254662705Y-94714093D01*
X254519105Y-94644172D01*
X254233406Y-94647179D01*
X254091309Y-94720108D01*
X254020636Y-94792284D01*
X253950716Y-94935886D01*
X253953723Y-95221584D01*
X254026651Y-95363681D01*
X254098828Y-95434354D01*
X254242428Y-95504275D01*
X254528127Y-95501267D01*
X254670224Y-95428340D01*
X254740897Y-95356163D01*
X254810817Y-95212562D01*
X253971767Y-96935774D02*
X253962745Y-96078678D01*
X253967256Y-96507227D02*
X255467173Y-96491438D01*
X255251395Y-96350844D01*
X255107042Y-96209498D01*
X255034114Y-96067401D01*
X255481458Y-97848505D02*
X255482961Y-97991354D01*
X255413040Y-98134955D01*
X255342367Y-98207132D01*
X255200270Y-98280060D01*
X254915323Y-98354492D01*
X254558200Y-98358251D01*
X254271750Y-98289834D01*
X254128149Y-98219913D01*
X254055972Y-98149240D01*
X253983045Y-98007142D01*
X253981541Y-97864293D01*
X254051461Y-97720692D01*
X254122134Y-97648516D01*
X254264232Y-97575588D01*
X254549178Y-97501155D01*
X254906301Y-97497396D01*
X255192751Y-97565814D01*
X255336352Y-97635734D01*
X255408529Y-97706408D01*
X255481458Y-97848505D01*
X254005600Y-100149881D02*
X255005544Y-100139355D01*
X254862694Y-100140859D02*
X254934871Y-100211531D01*
X255007800Y-100353629D01*
X255010055Y-100567902D01*
X254940134Y-100711503D01*
X254798037Y-100784432D01*
X254012366Y-100792702D01*
X254798037Y-100784432D02*
X254941638Y-100854353D01*
X255014566Y-100996451D01*
X255016822Y-101210724D01*
X254946901Y-101354326D01*
X254804803Y-101427253D01*
X254019133Y-101435524D01*
X254026651Y-102149770D02*
X255026596Y-102139244D01*
X254883746Y-102140748D02*
X254955923Y-102211420D01*
X255028851Y-102353518D01*
X255031107Y-102567791D01*
X254961185Y-102711392D01*
X254819088Y-102784321D01*
X254033418Y-102792591D01*
X254819088Y-102784321D02*
X254962689Y-102854242D01*
X255035618Y-102996340D01*
X255037873Y-103210613D01*
X254967952Y-103354215D01*
X254825855Y-103427143D01*
X254040184Y-103435413D01*
X253331653Y-104457035D02*
X253291653Y-100657035D01*
X249250000Y-104500000D02*
X256031503Y-104428616D01*
X249210000Y-100700000D02*
X255991503Y-100628616D01*
X253291653Y-100657035D02*
X253889899Y-101777304D01*
X253291653Y-100657035D02*
X252717122Y-101789649D01*
X253331653Y-104457035D02*
X253906184Y-103324421D01*
X253331653Y-104457035D02*
X252733407Y-103336766D01*
X249839521Y-106368691D02*
X249825698Y-105511660D01*
X249832610Y-105940176D02*
X251332415Y-105915985D01*
X251115853Y-105776603D01*
X250970710Y-105636067D01*
X250896987Y-105494381D01*
X249992727Y-107009161D02*
X249922459Y-107081731D01*
X249849889Y-107011464D01*
X249920155Y-106938893D01*
X249992727Y-107009161D01*
X249849889Y-107011464D01*
X251217221Y-107632351D02*
X251289793Y-107702619D01*
X251363517Y-107844306D01*
X251369276Y-108201402D01*
X251300160Y-108345392D01*
X251229893Y-108417964D01*
X251088206Y-108491687D01*
X250945368Y-108493991D01*
X250729958Y-108426028D01*
X249859104Y-107582819D01*
X249874079Y-108511269D01*
X251381947Y-108987014D02*
X251398074Y-109986884D01*
X249887902Y-109368301D01*
X251411897Y-110843914D02*
X251414201Y-110986753D01*
X251345085Y-111130743D01*
X251274818Y-111203315D01*
X251133131Y-111277038D01*
X250848606Y-111353065D01*
X250491510Y-111358824D01*
X250204681Y-111292013D01*
X250060690Y-111222898D01*
X249988119Y-111152630D01*
X249914396Y-111010943D01*
X249912092Y-110868105D01*
X249981207Y-110724115D01*
X250051475Y-110651543D01*
X250193162Y-110577820D01*
X250477686Y-110501793D01*
X250834783Y-110496033D01*
X251121612Y-110562845D01*
X251265602Y-110631960D01*
X251338174Y-110702228D01*
X251411897Y-110843914D01*
X249948954Y-113153522D02*
X250948824Y-113137395D01*
X250805984Y-113139699D02*
X250878556Y-113209965D01*
X250952280Y-113351653D01*
X250955735Y-113565910D01*
X250886620Y-113709900D01*
X250744933Y-113783624D01*
X249959321Y-113796295D01*
X250744933Y-113783624D02*
X250888923Y-113852740D01*
X250962647Y-113994426D01*
X250966103Y-114208683D01*
X250896987Y-114352675D01*
X250755300Y-114426397D01*
X249969689Y-114439068D01*
X249981208Y-115153262D02*
X250981078Y-115137135D01*
X250838238Y-115139438D02*
X250910810Y-115209705D01*
X250984534Y-115351393D01*
X250987989Y-115565650D01*
X250918873Y-115709640D01*
X250777187Y-115783364D01*
X249991575Y-115796035D01*
X250777187Y-115783364D02*
X250921177Y-115852480D01*
X250994901Y-115994166D01*
X250998357Y-116208423D01*
X250929241Y-116352415D01*
X250787554Y-116426137D01*
X250001942Y-116438808D01*
X249253055Y-104409467D02*
X249233055Y-103169467D01*
X246740000Y-104450000D02*
X251952704Y-104365924D01*
X246720000Y-103210000D02*
X251932704Y-103125924D01*
X249233055Y-103169467D02*
X249837567Y-104286367D01*
X249233055Y-103169467D02*
X248664878Y-104305281D01*
X249253055Y-104409467D02*
X249821232Y-103273653D01*
X249253055Y-104409467D02*
X248648543Y-103292567D01*
X269459458Y-84492047D02*
X269459036Y-85206333D01*
X270173279Y-85278185D01*
X270101894Y-85206713D01*
X270030549Y-85063814D01*
X270030760Y-84706671D01*
X270102274Y-84563856D01*
X270173744Y-84492470D01*
X270316643Y-84421126D01*
X270673786Y-84421337D01*
X270816601Y-84492850D01*
X270887988Y-84564321D01*
X270959331Y-84707220D01*
X270959120Y-85064363D01*
X270887608Y-85207178D01*
X270816136Y-85278565D01*
X269460050Y-83492048D02*
X269460134Y-83349191D01*
X269531648Y-83206377D01*
X269603119Y-83134990D01*
X269746018Y-83063645D01*
X270031774Y-82992386D01*
X270388917Y-82992598D01*
X270674589Y-83064195D01*
X270817404Y-83135708D01*
X270888790Y-83207179D01*
X270960134Y-83350079D01*
X270960049Y-83492936D01*
X270888537Y-83635750D01*
X270817066Y-83707137D01*
X270674167Y-83778481D01*
X270388410Y-83849741D01*
X270031267Y-83849529D01*
X269745596Y-83777931D01*
X269602781Y-83706419D01*
X269531394Y-83634948D01*
X269460050Y-83492048D01*
X270817868Y-82349994D02*
X270889340Y-82278609D01*
X270960725Y-82350079D01*
X270889255Y-82421466D01*
X270817868Y-82349994D01*
X270960725Y-82350079D01*
X270104133Y-81421000D02*
X270032619Y-81563816D01*
X269961148Y-81635201D01*
X269818249Y-81706546D01*
X269746821Y-81706504D01*
X269604006Y-81634990D01*
X269532619Y-81563520D01*
X269461275Y-81420620D01*
X269461444Y-81134906D01*
X269532957Y-80992091D01*
X269604429Y-80920704D01*
X269747328Y-80849361D01*
X269818756Y-80849403D01*
X269961571Y-80920916D01*
X270032957Y-80992387D01*
X270104302Y-81135286D01*
X270104133Y-81421000D01*
X270175476Y-81563900D01*
X270246863Y-81635370D01*
X270389678Y-81706884D01*
X270675392Y-81707053D01*
X270818291Y-81635708D01*
X270889762Y-81564323D01*
X270961275Y-81421507D01*
X270961444Y-81135793D01*
X270890100Y-80992894D01*
X270818713Y-80921423D01*
X270675899Y-80849910D01*
X270390185Y-80849741D01*
X270247286Y-80921085D01*
X270175814Y-80992471D01*
X270104302Y-81135286D01*
X269462162Y-79920621D02*
X269462247Y-79777764D01*
X269533760Y-79634949D01*
X269605231Y-79563563D01*
X269748131Y-79492218D01*
X270033887Y-79420959D01*
X270391030Y-79421170D01*
X270676701Y-79492767D01*
X270819516Y-79564281D01*
X270890903Y-79635752D01*
X270962246Y-79778651D01*
X270962162Y-79921508D01*
X270890649Y-80064323D01*
X270819178Y-80135710D01*
X270676279Y-80207053D01*
X270390523Y-80278313D01*
X270033380Y-80278102D01*
X269747708Y-80206504D01*
X269604893Y-80134991D01*
X269533507Y-80063520D01*
X269462162Y-79920621D01*
X269463007Y-78492050D02*
X269463092Y-78349193D01*
X269534605Y-78206379D01*
X269606076Y-78134992D01*
X269748976Y-78063647D01*
X270034732Y-77992388D01*
X270391875Y-77992600D01*
X270677546Y-78064197D01*
X270820361Y-78135710D01*
X270891748Y-78207181D01*
X270963091Y-78350080D01*
X270963007Y-78492937D01*
X270891494Y-78635752D01*
X270820023Y-78707139D01*
X270677124Y-78778482D01*
X270391368Y-78849742D01*
X270034225Y-78849531D01*
X269748553Y-78777933D01*
X269605738Y-78706421D01*
X269534352Y-78634949D01*
X269463007Y-78492050D01*
X270964359Y-76207224D02*
X269964359Y-76206632D01*
X270107217Y-76206717D02*
X270035830Y-76135247D01*
X269964486Y-75992346D01*
X269964612Y-75778061D01*
X270036126Y-75635247D01*
X270179025Y-75563902D01*
X270964739Y-75564367D01*
X270179025Y-75563902D02*
X270036210Y-75492389D01*
X269964866Y-75349490D01*
X269964993Y-75135205D01*
X270036506Y-74992389D01*
X270179405Y-74921045D01*
X270965119Y-74921510D01*
X270965542Y-74207224D02*
X269965542Y-74206633D01*
X270108400Y-74206717D02*
X270037013Y-74135247D01*
X269965669Y-73992347D01*
X269965795Y-73778062D01*
X270037309Y-73635247D01*
X270180208Y-73563903D01*
X270965922Y-73564367D01*
X270180208Y-73563903D02*
X270037393Y-73492389D01*
X269966049Y-73349490D01*
X269966176Y-73135205D01*
X270037689Y-72992389D01*
X270180588Y-72921046D01*
X270966302Y-72921510D01*
X268919098Y-104423166D02*
X268949098Y-53703166D01*
X246660000Y-104410000D02*
X271619098Y-104424763D01*
X246690000Y-53690000D02*
X271649098Y-53704763D01*
X268949098Y-53703166D02*
X269534852Y-54830016D01*
X268949098Y-53703166D02*
X268362011Y-54829323D01*
X268919098Y-104423166D02*
X269506185Y-103297009D01*
X268919098Y-104423166D02*
X268333344Y-103296316D01*
X139988571Y-82534284D02*
X139988571Y-83248570D01*
X140702857Y-83319999D01*
X140631429Y-83248570D01*
X140560000Y-83105713D01*
X140560000Y-82748570D01*
X140631429Y-82605713D01*
X140702857Y-82534284D01*
X140845714Y-82462856D01*
X141202857Y-82462856D01*
X141345714Y-82534284D01*
X141417143Y-82605713D01*
X141488571Y-82748570D01*
X141488571Y-83105713D01*
X141417143Y-83248570D01*
X141345714Y-83319999D01*
X139988571Y-81962856D02*
X139988571Y-81034285D01*
X140560000Y-81534285D01*
X140560000Y-81319999D01*
X140631429Y-81177142D01*
X140702857Y-81105713D01*
X140845714Y-81034285D01*
X141202857Y-81034285D01*
X141345714Y-81105713D01*
X141417143Y-81177142D01*
X141488571Y-81319999D01*
X141488571Y-81748571D01*
X141417143Y-81891428D01*
X141345714Y-81962856D01*
X141345714Y-80391428D02*
X141417143Y-80320000D01*
X141488571Y-80391428D01*
X141417143Y-80462857D01*
X141345714Y-80391428D01*
X141488571Y-80391428D01*
X139988571Y-79819999D02*
X139988571Y-78891428D01*
X140560000Y-79391428D01*
X140560000Y-79177142D01*
X140631429Y-79034285D01*
X140702857Y-78962856D01*
X140845714Y-78891428D01*
X141202857Y-78891428D01*
X141345714Y-78962856D01*
X141417143Y-79034285D01*
X141488571Y-79177142D01*
X141488571Y-79605714D01*
X141417143Y-79748571D01*
X141345714Y-79819999D01*
X140488571Y-77605714D02*
X141488571Y-77605714D01*
X139917143Y-77962857D02*
X140988571Y-78320000D01*
X140988571Y-77391428D01*
X141488571Y-75677143D02*
X140488571Y-75677143D01*
X140631429Y-75677143D02*
X140560000Y-75605715D01*
X140488571Y-75462857D01*
X140488571Y-75248572D01*
X140560000Y-75105715D01*
X140702857Y-75034286D01*
X141488571Y-75034286D01*
X140702857Y-75034286D02*
X140560000Y-74962857D01*
X140488571Y-74820000D01*
X140488571Y-74605715D01*
X140560000Y-74462857D01*
X140702857Y-74391429D01*
X141488571Y-74391429D01*
X141488571Y-73677143D02*
X140488571Y-73677143D01*
X140631429Y-73677143D02*
X140560000Y-73605715D01*
X140488571Y-73462857D01*
X140488571Y-73248572D01*
X140560000Y-73105715D01*
X140702857Y-73034286D01*
X141488571Y-73034286D01*
X140702857Y-73034286D02*
X140560000Y-72962857D01*
X140488571Y-72820000D01*
X140488571Y-72605715D01*
X140560000Y-72462857D01*
X140702857Y-72391429D01*
X141488571Y-72391429D01*
X142160000Y-104470000D02*
X142160000Y-51170000D01*
X147670000Y-104470000D02*
X139460000Y-104470000D01*
X147670000Y-51170000D02*
X139460000Y-51170000D01*
X142160000Y-51170000D02*
X142746421Y-52296504D01*
X142160000Y-51170000D02*
X141573579Y-52296504D01*
X142160000Y-104470000D02*
X142746421Y-103343496D01*
X142160000Y-104470000D02*
X141573579Y-103343496D01*
X191108572Y-111358571D02*
X191394287Y-111358571D01*
X191537144Y-111287143D01*
X191608572Y-111215714D01*
X191751430Y-111001429D01*
X191822858Y-110715714D01*
X191822858Y-110144286D01*
X191751430Y-110001429D01*
X191680001Y-109930000D01*
X191537144Y-109858571D01*
X191251430Y-109858571D01*
X191108572Y-109930000D01*
X191037144Y-110001429D01*
X190965715Y-110144286D01*
X190965715Y-110501429D01*
X191037144Y-110644286D01*
X191108572Y-110715714D01*
X191251430Y-110787143D01*
X191537144Y-110787143D01*
X191680001Y-110715714D01*
X191751430Y-110644286D01*
X191822858Y-110501429D01*
X192537143Y-111358571D02*
X192822858Y-111358571D01*
X192965715Y-111287143D01*
X193037143Y-111215714D01*
X193180001Y-111001429D01*
X193251429Y-110715714D01*
X193251429Y-110144286D01*
X193180001Y-110001429D01*
X193108572Y-109930000D01*
X192965715Y-109858571D01*
X192680001Y-109858571D01*
X192537143Y-109930000D01*
X192465715Y-110001429D01*
X192394286Y-110144286D01*
X192394286Y-110501429D01*
X192465715Y-110644286D01*
X192537143Y-110715714D01*
X192680001Y-110787143D01*
X192965715Y-110787143D01*
X193108572Y-110715714D01*
X193180001Y-110644286D01*
X193251429Y-110501429D01*
X193894286Y-111215714D02*
X193965714Y-111287143D01*
X193894286Y-111358571D01*
X193822857Y-111287143D01*
X193894286Y-111215714D01*
X193894286Y-111358571D01*
X194894286Y-109858571D02*
X195037143Y-109858571D01*
X195180000Y-109930000D01*
X195251429Y-110001429D01*
X195322858Y-110144286D01*
X195394286Y-110430000D01*
X195394286Y-110787143D01*
X195322858Y-111072857D01*
X195251429Y-111215714D01*
X195180000Y-111287143D01*
X195037143Y-111358571D01*
X194894286Y-111358571D01*
X194751429Y-111287143D01*
X194680000Y-111215714D01*
X194608572Y-111072857D01*
X194537143Y-110787143D01*
X194537143Y-110430000D01*
X194608572Y-110144286D01*
X194680000Y-110001429D01*
X194751429Y-109930000D01*
X194894286Y-109858571D01*
X196680000Y-109858571D02*
X196394286Y-109858571D01*
X196251429Y-109930000D01*
X196180000Y-110001429D01*
X196037143Y-110215714D01*
X195965714Y-110501429D01*
X195965714Y-111072857D01*
X196037143Y-111215714D01*
X196108571Y-111287143D01*
X196251429Y-111358571D01*
X196537143Y-111358571D01*
X196680000Y-111287143D01*
X196751429Y-111215714D01*
X196822857Y-111072857D01*
X196822857Y-110715714D01*
X196751429Y-110572857D01*
X196680000Y-110501429D01*
X196537143Y-110430000D01*
X196251429Y-110430000D01*
X196108571Y-110501429D01*
X196037143Y-110572857D01*
X195965714Y-110715714D01*
X197751428Y-109858571D02*
X197894285Y-109858571D01*
X198037142Y-109930000D01*
X198108571Y-110001429D01*
X198180000Y-110144286D01*
X198251428Y-110430000D01*
X198251428Y-110787143D01*
X198180000Y-111072857D01*
X198108571Y-111215714D01*
X198037142Y-111287143D01*
X197894285Y-111358571D01*
X197751428Y-111358571D01*
X197608571Y-111287143D01*
X197537142Y-111215714D01*
X197465714Y-111072857D01*
X197394285Y-110787143D01*
X197394285Y-110430000D01*
X197465714Y-110144286D01*
X197537142Y-110001429D01*
X197608571Y-109930000D01*
X197751428Y-109858571D01*
X200037142Y-111358571D02*
X200037142Y-110358571D01*
X200037142Y-110501429D02*
X200108570Y-110430000D01*
X200251428Y-110358571D01*
X200465713Y-110358571D01*
X200608570Y-110430000D01*
X200679999Y-110572857D01*
X200679999Y-111358571D01*
X200679999Y-110572857D02*
X200751428Y-110430000D01*
X200894285Y-110358571D01*
X201108570Y-110358571D01*
X201251428Y-110430000D01*
X201322856Y-110572857D01*
X201322856Y-111358571D01*
X202037142Y-111358571D02*
X202037142Y-110358571D01*
X202037142Y-110501429D02*
X202108570Y-110430000D01*
X202251428Y-110358571D01*
X202465713Y-110358571D01*
X202608570Y-110430000D01*
X202679999Y-110572857D01*
X202679999Y-111358571D01*
X202679999Y-110572857D02*
X202751428Y-110430000D01*
X202894285Y-110358571D01*
X203108570Y-110358571D01*
X203251428Y-110430000D01*
X203322856Y-110572857D01*
X203322856Y-111358571D01*
X147670000Y-109330000D02*
X246690000Y-109330000D01*
X147670000Y-104470000D02*
X147670000Y-112030000D01*
X246690000Y-104470000D02*
X246690000Y-112030000D01*
X246690000Y-109330000D02*
X245563496Y-109916421D01*
X246690000Y-109330000D02*
X245563496Y-108743579D01*
X147670000Y-109330000D02*
X148796504Y-109916421D01*
X147670000Y-109330000D02*
X148796504Y-108743579D01*
D12*
X111270477Y-59772381D02*
X110794286Y-59772381D01*
X110746667Y-60248571D01*
X110794286Y-60200952D01*
X110889524Y-60153333D01*
X111127620Y-60153333D01*
X111222858Y-60200952D01*
X111270477Y-60248571D01*
X111318096Y-60343810D01*
X111318096Y-60581905D01*
X111270477Y-60677143D01*
X111222858Y-60724762D01*
X111127620Y-60772381D01*
X110889524Y-60772381D01*
X110794286Y-60724762D01*
X110746667Y-60677143D01*
X111651429Y-59772381D02*
X112270477Y-59772381D01*
X111937143Y-60153333D01*
X112080001Y-60153333D01*
X112175239Y-60200952D01*
X112222858Y-60248571D01*
X112270477Y-60343810D01*
X112270477Y-60581905D01*
X112222858Y-60677143D01*
X112175239Y-60724762D01*
X112080001Y-60772381D01*
X111794286Y-60772381D01*
X111699048Y-60724762D01*
X111651429Y-60677143D01*
X112699048Y-60677143D02*
X112746667Y-60724762D01*
X112699048Y-60772381D01*
X112651429Y-60724762D01*
X112699048Y-60677143D01*
X112699048Y-60772381D01*
X113080000Y-59772381D02*
X113699048Y-59772381D01*
X113365714Y-60153333D01*
X113508572Y-60153333D01*
X113603810Y-60200952D01*
X113651429Y-60248571D01*
X113699048Y-60343810D01*
X113699048Y-60581905D01*
X113651429Y-60677143D01*
X113603810Y-60724762D01*
X113508572Y-60772381D01*
X113222857Y-60772381D01*
X113127619Y-60724762D01*
X113080000Y-60677143D01*
X114556191Y-60105714D02*
X114556191Y-60772381D01*
X114318095Y-59724762D02*
X114080000Y-60439048D01*
X114699048Y-60439048D01*
X115746667Y-59772381D02*
X116413334Y-60772381D01*
X116413334Y-59772381D02*
X115746667Y-60772381D01*
X118080001Y-60772381D02*
X117508572Y-60772381D01*
X117794286Y-60772381D02*
X117794286Y-59772381D01*
X117699048Y-59915238D01*
X117603810Y-60010476D01*
X117508572Y-60058095D01*
X118699048Y-59772381D02*
X118794287Y-59772381D01*
X118889525Y-59820000D01*
X118937144Y-59867619D01*
X118984763Y-59962857D01*
X119032382Y-60153333D01*
X119032382Y-60391429D01*
X118984763Y-60581905D01*
X118937144Y-60677143D01*
X118889525Y-60724762D01*
X118794287Y-60772381D01*
X118699048Y-60772381D01*
X118603810Y-60724762D01*
X118556191Y-60677143D01*
X118508572Y-60581905D01*
X118460953Y-60391429D01*
X118460953Y-60153333D01*
X118508572Y-59962857D01*
X118556191Y-59867619D01*
X118603810Y-59820000D01*
X118699048Y-59772381D01*
X119984763Y-60772381D02*
X119413334Y-60772381D01*
X119699048Y-60772381D02*
X119699048Y-59772381D01*
X119603810Y-59915238D01*
X119508572Y-60010476D01*
X119413334Y-60058095D01*
X120413334Y-60677143D02*
X120460953Y-60724762D01*
X120413334Y-60772381D01*
X120365715Y-60724762D01*
X120413334Y-60677143D01*
X120413334Y-60772381D01*
X121318096Y-59772381D02*
X121127619Y-59772381D01*
X121032381Y-59820000D01*
X120984762Y-59867619D01*
X120889524Y-60010476D01*
X120841905Y-60200952D01*
X120841905Y-60581905D01*
X120889524Y-60677143D01*
X120937143Y-60724762D01*
X121032381Y-60772381D01*
X121222858Y-60772381D01*
X121318096Y-60724762D01*
X121365715Y-60677143D01*
X121413334Y-60581905D01*
X121413334Y-60343810D01*
X121365715Y-60248571D01*
X121318096Y-60200952D01*
X121222858Y-60153333D01*
X121032381Y-60153333D01*
X120937143Y-60200952D01*
X120889524Y-60248571D01*
X120841905Y-60343810D01*
D10*
X91810000Y-56220000D02*
X91810000Y-99220000D01*
X91810000Y-97220000D02*
X121810000Y-97220000D01*
X121810000Y-56220000D02*
X121810000Y-99220000D01*
X91810000Y-59220000D02*
X121810000Y-59220000D01*
X91810000Y-56220000D02*
X121810000Y-56220000D01*
X91810000Y-61220000D02*
X121810000Y-61220000D01*
X91810000Y-63220000D02*
X121810000Y-63220000D01*
X91810000Y-65220000D02*
X121810000Y-65220000D01*
X91810000Y-69220000D02*
X121810000Y-69220000D01*
X91810000Y-67220000D02*
X121810000Y-67220000D01*
X91810000Y-71220000D02*
X121810000Y-71220000D01*
X91810000Y-73220000D02*
X121810000Y-73220000D01*
X91810000Y-75220000D02*
X121810000Y-75220000D01*
X91810000Y-77220000D02*
X121810000Y-77220000D01*
X91810000Y-79220000D02*
X121810000Y-79220000D01*
X91810000Y-81220000D02*
X121810000Y-81220000D01*
X91810000Y-83220000D02*
X121810000Y-83220000D01*
X91810000Y-85220000D02*
X121810000Y-85220000D01*
X91810000Y-87220000D02*
X121810000Y-87220000D01*
X91810000Y-89220000D02*
X121810000Y-89220000D01*
X91810000Y-91220000D02*
X121810000Y-91220000D01*
X91810000Y-93220000D02*
X121810000Y-93220000D01*
X91810000Y-95220000D02*
X121810000Y-95220000D01*
X109810000Y-99220000D02*
X109810000Y-59220000D01*
X91810000Y-99220000D02*
X121810000Y-99220000D01*
D12*
X92238571Y-60672381D02*
X92238571Y-59672381D01*
X92619524Y-59672381D01*
X92714762Y-59720000D01*
X92762381Y-59767619D01*
X92810000Y-59862857D01*
X92810000Y-60005714D01*
X92762381Y-60100952D01*
X92714762Y-60148571D01*
X92619524Y-60196190D01*
X92238571Y-60196190D01*
X93810000Y-60577143D02*
X93762381Y-60624762D01*
X93619524Y-60672381D01*
X93524286Y-60672381D01*
X93381428Y-60624762D01*
X93286190Y-60529524D01*
X93238571Y-60434286D01*
X93190952Y-60243810D01*
X93190952Y-60100952D01*
X93238571Y-59910476D01*
X93286190Y-59815238D01*
X93381428Y-59720000D01*
X93524286Y-59672381D01*
X93619524Y-59672381D01*
X93762381Y-59720000D01*
X93810000Y-59767619D01*
X94571905Y-60148571D02*
X94714762Y-60196190D01*
X94762381Y-60243810D01*
X94810000Y-60339048D01*
X94810000Y-60481905D01*
X94762381Y-60577143D01*
X94714762Y-60624762D01*
X94619524Y-60672381D01*
X94238571Y-60672381D01*
X94238571Y-59672381D01*
X94571905Y-59672381D01*
X94667143Y-59720000D01*
X94714762Y-59767619D01*
X94762381Y-59862857D01*
X94762381Y-59958095D01*
X94714762Y-60053333D01*
X94667143Y-60100952D01*
X94571905Y-60148571D01*
X94238571Y-60148571D01*
X95952857Y-60624762D02*
X96095714Y-60672381D01*
X96333810Y-60672381D01*
X96429048Y-60624762D01*
X96476667Y-60577143D01*
X96524286Y-60481905D01*
X96524286Y-60386667D01*
X96476667Y-60291429D01*
X96429048Y-60243810D01*
X96333810Y-60196190D01*
X96143333Y-60148571D01*
X96048095Y-60100952D01*
X96000476Y-60053333D01*
X95952857Y-59958095D01*
X95952857Y-59862857D01*
X96000476Y-59767619D01*
X96048095Y-59720000D01*
X96143333Y-59672381D01*
X96381429Y-59672381D01*
X96524286Y-59720000D01*
X96952857Y-60672381D02*
X96952857Y-60005714D01*
X96952857Y-59672381D02*
X96905238Y-59720000D01*
X96952857Y-59767619D01*
X97000476Y-59720000D01*
X96952857Y-59672381D01*
X96952857Y-59767619D01*
X97333809Y-60005714D02*
X97857619Y-60005714D01*
X97333809Y-60672381D01*
X97857619Y-60672381D01*
X98619524Y-60624762D02*
X98524286Y-60672381D01*
X98333809Y-60672381D01*
X98238571Y-60624762D01*
X98190952Y-60529524D01*
X98190952Y-60148571D01*
X98238571Y-60053333D01*
X98333809Y-60005714D01*
X98524286Y-60005714D01*
X98619524Y-60053333D01*
X98667143Y-60148571D01*
X98667143Y-60243810D01*
X98190952Y-60339048D01*
X100143334Y-61053333D02*
X100095714Y-61005714D01*
X100000476Y-60862857D01*
X99952857Y-60767619D01*
X99905238Y-60624762D01*
X99857619Y-60386667D01*
X99857619Y-60196190D01*
X99905238Y-59958095D01*
X99952857Y-59815238D01*
X100000476Y-59720000D01*
X100095714Y-59577143D01*
X100143334Y-59529524D01*
X100524286Y-60672381D02*
X100524286Y-60005714D01*
X100524286Y-60100952D02*
X100571905Y-60053333D01*
X100667143Y-60005714D01*
X100810001Y-60005714D01*
X100905239Y-60053333D01*
X100952858Y-60148571D01*
X100952858Y-60672381D01*
X100952858Y-60148571D02*
X101000477Y-60053333D01*
X101095715Y-60005714D01*
X101238572Y-60005714D01*
X101333810Y-60053333D01*
X101381429Y-60148571D01*
X101381429Y-60672381D01*
X101857619Y-60672381D02*
X101857619Y-60005714D01*
X101857619Y-60100952D02*
X101905238Y-60053333D01*
X102000476Y-60005714D01*
X102143334Y-60005714D01*
X102238572Y-60053333D01*
X102286191Y-60148571D01*
X102286191Y-60672381D01*
X102286191Y-60148571D02*
X102333810Y-60053333D01*
X102429048Y-60005714D01*
X102571905Y-60005714D01*
X102667143Y-60053333D01*
X102714762Y-60148571D01*
X102714762Y-60672381D01*
X103095714Y-61053333D02*
X103143333Y-61005714D01*
X103238571Y-60862857D01*
X103286190Y-60767619D01*
X103333809Y-60624762D01*
X103381428Y-60386667D01*
X103381428Y-60196190D01*
X103333809Y-59958095D01*
X103286190Y-59815238D01*
X103238571Y-59720000D01*
X103143333Y-59577143D01*
X103095714Y-59529524D01*
X92924287Y-58134286D02*
X92524287Y-58134286D01*
X92524287Y-58762857D02*
X92524287Y-57562857D01*
X93095716Y-57562857D01*
X94067144Y-58762857D02*
X94067144Y-58134286D01*
X94010001Y-58020000D01*
X93895715Y-57962857D01*
X93667144Y-57962857D01*
X93552858Y-58020000D01*
X94067144Y-58705714D02*
X93952858Y-58762857D01*
X93667144Y-58762857D01*
X93552858Y-58705714D01*
X93495715Y-58591429D01*
X93495715Y-58477143D01*
X93552858Y-58362857D01*
X93667144Y-58305714D01*
X93952858Y-58305714D01*
X94067144Y-58248571D01*
X94638572Y-58762857D02*
X94638572Y-57562857D01*
X94638572Y-58020000D02*
X94752858Y-57962857D01*
X94981429Y-57962857D01*
X95095715Y-58020000D01*
X95152858Y-58077143D01*
X95210001Y-58191429D01*
X95210001Y-58534286D01*
X95152858Y-58648571D01*
X95095715Y-58705714D01*
X94981429Y-58762857D01*
X94752858Y-58762857D01*
X94638572Y-58705714D01*
X95724286Y-58762857D02*
X95724286Y-57962857D01*
X95724286Y-58191429D02*
X95781429Y-58077143D01*
X95838572Y-58020000D01*
X95952858Y-57962857D01*
X96067143Y-57962857D01*
X96467143Y-58762857D02*
X96467143Y-57962857D01*
X96467143Y-57562857D02*
X96410000Y-57620000D01*
X96467143Y-57677143D01*
X96524286Y-57620000D01*
X96467143Y-57562857D01*
X96467143Y-57677143D01*
X97552858Y-58705714D02*
X97438572Y-58762857D01*
X97210001Y-58762857D01*
X97095715Y-58705714D01*
X97038572Y-58648571D01*
X96981429Y-58534286D01*
X96981429Y-58191429D01*
X97038572Y-58077143D01*
X97095715Y-58020000D01*
X97210001Y-57962857D01*
X97438572Y-57962857D01*
X97552858Y-58020000D01*
X98581429Y-58762857D02*
X98581429Y-58134286D01*
X98524286Y-58020000D01*
X98410000Y-57962857D01*
X98181429Y-57962857D01*
X98067143Y-58020000D01*
X98581429Y-58705714D02*
X98467143Y-58762857D01*
X98181429Y-58762857D01*
X98067143Y-58705714D01*
X98010000Y-58591429D01*
X98010000Y-58477143D01*
X98067143Y-58362857D01*
X98181429Y-58305714D01*
X98467143Y-58305714D01*
X98581429Y-58248571D01*
X98981429Y-57962857D02*
X99438572Y-57962857D01*
X99152857Y-57562857D02*
X99152857Y-58591429D01*
X99210000Y-58705714D01*
X99324286Y-58762857D01*
X99438572Y-58762857D01*
X99838571Y-58762857D02*
X99838571Y-57962857D01*
X99838571Y-57562857D02*
X99781428Y-57620000D01*
X99838571Y-57677143D01*
X99895714Y-57620000D01*
X99838571Y-57562857D01*
X99838571Y-57677143D01*
X100581429Y-58762857D02*
X100467143Y-58705714D01*
X100410000Y-58648571D01*
X100352857Y-58534286D01*
X100352857Y-58191429D01*
X100410000Y-58077143D01*
X100467143Y-58020000D01*
X100581429Y-57962857D01*
X100752857Y-57962857D01*
X100867143Y-58020000D01*
X100924286Y-58077143D01*
X100981429Y-58191429D01*
X100981429Y-58534286D01*
X100924286Y-58648571D01*
X100867143Y-58705714D01*
X100752857Y-58762857D01*
X100581429Y-58762857D01*
X101495714Y-57962857D02*
X101495714Y-58762857D01*
X101495714Y-58077143D02*
X101552857Y-58020000D01*
X101667143Y-57962857D01*
X101838571Y-57962857D01*
X101952857Y-58020000D01*
X102010000Y-58134286D01*
X102010000Y-58762857D01*
X103495714Y-58762857D02*
X103495714Y-57562857D01*
X103781429Y-57562857D01*
X103952857Y-57620000D01*
X104067143Y-57734286D01*
X104124286Y-57848571D01*
X104181429Y-58077143D01*
X104181429Y-58248571D01*
X104124286Y-58477143D01*
X104067143Y-58591429D01*
X103952857Y-58705714D01*
X103781429Y-58762857D01*
X103495714Y-58762857D01*
X105152857Y-58705714D02*
X105038571Y-58762857D01*
X104810000Y-58762857D01*
X104695714Y-58705714D01*
X104638571Y-58591429D01*
X104638571Y-58134286D01*
X104695714Y-58020000D01*
X104810000Y-57962857D01*
X105038571Y-57962857D01*
X105152857Y-58020000D01*
X105210000Y-58134286D01*
X105210000Y-58248571D01*
X104638571Y-58362857D01*
X105552857Y-57962857D02*
X106010000Y-57962857D01*
X105724285Y-57562857D02*
X105724285Y-58591429D01*
X105781428Y-58705714D01*
X105895714Y-58762857D01*
X106010000Y-58762857D01*
X106924285Y-58762857D02*
X106924285Y-58134286D01*
X106867142Y-58020000D01*
X106752856Y-57962857D01*
X106524285Y-57962857D01*
X106409999Y-58020000D01*
X106924285Y-58705714D02*
X106809999Y-58762857D01*
X106524285Y-58762857D01*
X106409999Y-58705714D01*
X106352856Y-58591429D01*
X106352856Y-58477143D01*
X106409999Y-58362857D01*
X106524285Y-58305714D01*
X106809999Y-58305714D01*
X106924285Y-58248571D01*
X107495713Y-58762857D02*
X107495713Y-57962857D01*
X107495713Y-57562857D02*
X107438570Y-57620000D01*
X107495713Y-57677143D01*
X107552856Y-57620000D01*
X107495713Y-57562857D01*
X107495713Y-57677143D01*
X108238571Y-58762857D02*
X108124285Y-58705714D01*
X108067142Y-58591429D01*
X108067142Y-57562857D01*
X108638570Y-58705714D02*
X108752856Y-58762857D01*
X108981428Y-58762857D01*
X109095713Y-58705714D01*
X109152856Y-58591429D01*
X109152856Y-58534286D01*
X109095713Y-58420000D01*
X108981428Y-58362857D01*
X108809999Y-58362857D01*
X108695713Y-58305714D01*
X108638570Y-58191429D01*
X108638570Y-58134286D01*
X108695713Y-58020000D01*
X108809999Y-57962857D01*
X108981428Y-57962857D01*
X109095713Y-58020000D01*
X92490951Y-62672381D02*
X92490951Y-61672381D01*
X93062380Y-62672381D01*
X93062380Y-61672381D01*
X93681427Y-62672381D02*
X93586189Y-62624762D01*
X93538570Y-62577143D01*
X93490951Y-62481905D01*
X93490951Y-62196190D01*
X93538570Y-62100952D01*
X93586189Y-62053333D01*
X93681427Y-62005714D01*
X93824285Y-62005714D01*
X93919523Y-62053333D01*
X93967142Y-62100952D01*
X94014761Y-62196190D01*
X94014761Y-62481905D01*
X93967142Y-62577143D01*
X93919523Y-62624762D01*
X93824285Y-62672381D01*
X93681427Y-62672381D01*
X95348094Y-62672381D02*
X95252856Y-62624762D01*
X95205237Y-62577143D01*
X95157618Y-62481905D01*
X95157618Y-62196190D01*
X95205237Y-62100952D01*
X95252856Y-62053333D01*
X95348094Y-62005714D01*
X95490952Y-62005714D01*
X95586190Y-62053333D01*
X95633809Y-62100952D01*
X95681428Y-62196190D01*
X95681428Y-62481905D01*
X95633809Y-62577143D01*
X95586190Y-62624762D01*
X95490952Y-62672381D01*
X95348094Y-62672381D01*
X95967142Y-62005714D02*
X96348094Y-62005714D01*
X96109999Y-62672381D02*
X96109999Y-61815238D01*
X96157618Y-61720000D01*
X96252856Y-61672381D01*
X96348094Y-61672381D01*
X97919524Y-62672381D02*
X97443333Y-62672381D01*
X97443333Y-61672381D01*
X98681429Y-62672381D02*
X98681429Y-62148571D01*
X98633810Y-62053333D01*
X98538572Y-62005714D01*
X98348095Y-62005714D01*
X98252857Y-62053333D01*
X98681429Y-62624762D02*
X98586191Y-62672381D01*
X98348095Y-62672381D01*
X98252857Y-62624762D01*
X98205238Y-62529524D01*
X98205238Y-62434286D01*
X98252857Y-62339048D01*
X98348095Y-62291429D01*
X98586191Y-62291429D01*
X98681429Y-62243810D01*
X99062381Y-62005714D02*
X99300476Y-62672381D01*
X99538572Y-62005714D02*
X99300476Y-62672381D01*
X99205238Y-62910476D01*
X99157619Y-62958095D01*
X99062381Y-63005714D01*
X100300477Y-62624762D02*
X100205239Y-62672381D01*
X100014762Y-62672381D01*
X99919524Y-62624762D01*
X99871905Y-62529524D01*
X99871905Y-62148571D01*
X99919524Y-62053333D01*
X100014762Y-62005714D01*
X100205239Y-62005714D01*
X100300477Y-62053333D01*
X100348096Y-62148571D01*
X100348096Y-62243810D01*
X99871905Y-62339048D01*
X100776667Y-62672381D02*
X100776667Y-62005714D01*
X100776667Y-62196190D02*
X100824286Y-62100952D01*
X100871905Y-62053333D01*
X100967143Y-62005714D01*
X101062382Y-62005714D01*
X101348096Y-62624762D02*
X101443334Y-62672381D01*
X101633810Y-62672381D01*
X101729049Y-62624762D01*
X101776668Y-62529524D01*
X101776668Y-62481905D01*
X101729049Y-62386667D01*
X101633810Y-62339048D01*
X101490953Y-62339048D01*
X101395715Y-62291429D01*
X101348096Y-62196190D01*
X101348096Y-62148571D01*
X101395715Y-62053333D01*
X101490953Y-62005714D01*
X101633810Y-62005714D01*
X101729049Y-62053333D01*
X92500476Y-64672381D02*
X92500476Y-63672381D01*
X92833810Y-64386667D01*
X93167143Y-63672381D01*
X93167143Y-64672381D01*
X93643333Y-64672381D02*
X93643333Y-64005714D01*
X93643333Y-63672381D02*
X93595714Y-63720000D01*
X93643333Y-63767619D01*
X93690952Y-63720000D01*
X93643333Y-63672381D01*
X93643333Y-63767619D01*
X94119523Y-64005714D02*
X94119523Y-64672381D01*
X94119523Y-64100952D02*
X94167142Y-64053333D01*
X94262380Y-64005714D01*
X94405238Y-64005714D01*
X94500476Y-64053333D01*
X94548095Y-64148571D01*
X94548095Y-64672381D01*
X96262381Y-64672381D02*
X95786190Y-64672381D01*
X95786190Y-63672381D01*
X96595714Y-64672381D02*
X96595714Y-64005714D01*
X96595714Y-63672381D02*
X96548095Y-63720000D01*
X96595714Y-63767619D01*
X96643333Y-63720000D01*
X96595714Y-63672381D01*
X96595714Y-63767619D01*
X97071904Y-64005714D02*
X97071904Y-64672381D01*
X97071904Y-64100952D02*
X97119523Y-64053333D01*
X97214761Y-64005714D01*
X97357619Y-64005714D01*
X97452857Y-64053333D01*
X97500476Y-64148571D01*
X97500476Y-64672381D01*
X98357619Y-64624762D02*
X98262381Y-64672381D01*
X98071904Y-64672381D01*
X97976666Y-64624762D01*
X97929047Y-64529524D01*
X97929047Y-64148571D01*
X97976666Y-64053333D01*
X98071904Y-64005714D01*
X98262381Y-64005714D01*
X98357619Y-64053333D01*
X98405238Y-64148571D01*
X98405238Y-64243810D01*
X97929047Y-64339048D01*
X99500476Y-63672381D02*
X99738571Y-64672381D01*
X99929048Y-63958095D01*
X100119524Y-64672381D01*
X100357619Y-63672381D01*
X100738571Y-64672381D02*
X100738571Y-64005714D01*
X100738571Y-63672381D02*
X100690952Y-63720000D01*
X100738571Y-63767619D01*
X100786190Y-63720000D01*
X100738571Y-63672381D01*
X100738571Y-63767619D01*
X101643333Y-64672381D02*
X101643333Y-63672381D01*
X101643333Y-64624762D02*
X101548095Y-64672381D01*
X101357618Y-64672381D01*
X101262380Y-64624762D01*
X101214761Y-64577143D01*
X101167142Y-64481905D01*
X101167142Y-64196190D01*
X101214761Y-64100952D01*
X101262380Y-64053333D01*
X101357618Y-64005714D01*
X101548095Y-64005714D01*
X101643333Y-64053333D01*
X101976666Y-64005714D02*
X102357618Y-64005714D01*
X102119523Y-63672381D02*
X102119523Y-64529524D01*
X102167142Y-64624762D01*
X102262380Y-64672381D01*
X102357618Y-64672381D01*
X102690952Y-64672381D02*
X102690952Y-63672381D01*
X103119524Y-64672381D02*
X103119524Y-64148571D01*
X103071905Y-64053333D01*
X102976667Y-64005714D01*
X102833809Y-64005714D01*
X102738571Y-64053333D01*
X102690952Y-64100952D01*
X92552857Y-66672381D02*
X92552857Y-65672381D01*
X92886191Y-66386667D01*
X93219524Y-65672381D01*
X93219524Y-66672381D01*
X93695714Y-66672381D02*
X93695714Y-66005714D01*
X93695714Y-65672381D02*
X93648095Y-65720000D01*
X93695714Y-65767619D01*
X93743333Y-65720000D01*
X93695714Y-65672381D01*
X93695714Y-65767619D01*
X94171904Y-66005714D02*
X94171904Y-66672381D01*
X94171904Y-66100952D02*
X94219523Y-66053333D01*
X94314761Y-66005714D01*
X94457619Y-66005714D01*
X94552857Y-66053333D01*
X94600476Y-66148571D01*
X94600476Y-66672381D01*
X95790952Y-66624762D02*
X95933809Y-66672381D01*
X96171905Y-66672381D01*
X96267143Y-66624762D01*
X96314762Y-66577143D01*
X96362381Y-66481905D01*
X96362381Y-66386667D01*
X96314762Y-66291429D01*
X96267143Y-66243810D01*
X96171905Y-66196190D01*
X95981428Y-66148571D01*
X95886190Y-66100952D01*
X95838571Y-66053333D01*
X95790952Y-65958095D01*
X95790952Y-65862857D01*
X95838571Y-65767619D01*
X95886190Y-65720000D01*
X95981428Y-65672381D01*
X96219524Y-65672381D01*
X96362381Y-65720000D01*
X96790952Y-66005714D02*
X96790952Y-67005714D01*
X96790952Y-66053333D02*
X96886190Y-66005714D01*
X97076667Y-66005714D01*
X97171905Y-66053333D01*
X97219524Y-66100952D01*
X97267143Y-66196190D01*
X97267143Y-66481905D01*
X97219524Y-66577143D01*
X97171905Y-66624762D01*
X97076667Y-66672381D01*
X96886190Y-66672381D01*
X96790952Y-66624762D01*
X98124286Y-66672381D02*
X98124286Y-66148571D01*
X98076667Y-66053333D01*
X97981429Y-66005714D01*
X97790952Y-66005714D01*
X97695714Y-66053333D01*
X98124286Y-66624762D02*
X98029048Y-66672381D01*
X97790952Y-66672381D01*
X97695714Y-66624762D01*
X97648095Y-66529524D01*
X97648095Y-66434286D01*
X97695714Y-66339048D01*
X97790952Y-66291429D01*
X98029048Y-66291429D01*
X98124286Y-66243810D01*
X99029048Y-66624762D02*
X98933810Y-66672381D01*
X98743333Y-66672381D01*
X98648095Y-66624762D01*
X98600476Y-66577143D01*
X98552857Y-66481905D01*
X98552857Y-66196190D01*
X98600476Y-66100952D01*
X98648095Y-66053333D01*
X98743333Y-66005714D01*
X98933810Y-66005714D01*
X99029048Y-66053333D01*
X99457619Y-66672381D02*
X99457619Y-66005714D01*
X99457619Y-65672381D02*
X99410000Y-65720000D01*
X99457619Y-65767619D01*
X99505238Y-65720000D01*
X99457619Y-65672381D01*
X99457619Y-65767619D01*
X99933809Y-66005714D02*
X99933809Y-66672381D01*
X99933809Y-66100952D02*
X99981428Y-66053333D01*
X100076666Y-66005714D01*
X100219524Y-66005714D01*
X100314762Y-66053333D01*
X100362381Y-66148571D01*
X100362381Y-66672381D01*
X101267143Y-66005714D02*
X101267143Y-66815238D01*
X101219524Y-66910476D01*
X101171905Y-66958095D01*
X101076666Y-67005714D01*
X100933809Y-67005714D01*
X100838571Y-66958095D01*
X101267143Y-66624762D02*
X101171905Y-66672381D01*
X100981428Y-66672381D01*
X100886190Y-66624762D01*
X100838571Y-66577143D01*
X100790952Y-66481905D01*
X100790952Y-66196190D01*
X100838571Y-66100952D01*
X100886190Y-66053333D01*
X100981428Y-66005714D01*
X101171905Y-66005714D01*
X101267143Y-66053333D01*
X92433808Y-68424762D02*
X92576665Y-68472381D01*
X92814761Y-68472381D01*
X92909999Y-68424762D01*
X92957618Y-68377143D01*
X93005237Y-68281905D01*
X93005237Y-68186667D01*
X92957618Y-68091429D01*
X92909999Y-68043810D01*
X92814761Y-67996190D01*
X92624284Y-67948571D01*
X92529046Y-67900952D01*
X92481427Y-67853333D01*
X92433808Y-67758095D01*
X92433808Y-67662857D01*
X92481427Y-67567619D01*
X92529046Y-67520000D01*
X92624284Y-67472381D01*
X92862380Y-67472381D01*
X93005237Y-67520000D01*
X93576665Y-68472381D02*
X93481427Y-68424762D01*
X93433808Y-68329524D01*
X93433808Y-67472381D01*
X94100475Y-68472381D02*
X94005237Y-68424762D01*
X93957618Y-68377143D01*
X93909999Y-68281905D01*
X93909999Y-67996190D01*
X93957618Y-67900952D01*
X94005237Y-67853333D01*
X94100475Y-67805714D01*
X94243333Y-67805714D01*
X94338571Y-67853333D01*
X94386190Y-67900952D01*
X94433809Y-67996190D01*
X94433809Y-68281905D01*
X94386190Y-68377143D01*
X94338571Y-68424762D01*
X94243333Y-68472381D01*
X94100475Y-68472381D01*
X94719523Y-67805714D02*
X95100475Y-67805714D01*
X94862380Y-67472381D02*
X94862380Y-68329524D01*
X94909999Y-68424762D01*
X95005237Y-68472381D01*
X95100475Y-68472381D01*
X96195714Y-68472381D02*
X96195714Y-67472381D01*
X96576667Y-67472381D01*
X96671905Y-67520000D01*
X96719524Y-67567619D01*
X96767143Y-67662857D01*
X96767143Y-67805714D01*
X96719524Y-67900952D01*
X96671905Y-67948571D01*
X96576667Y-67996190D01*
X96195714Y-67996190D01*
X97195714Y-68472381D02*
X97195714Y-67805714D01*
X97195714Y-67996190D02*
X97243333Y-67900952D01*
X97290952Y-67853333D01*
X97386190Y-67805714D01*
X97481429Y-67805714D01*
X98195715Y-68424762D02*
X98100477Y-68472381D01*
X97910000Y-68472381D01*
X97814762Y-68424762D01*
X97767143Y-68329524D01*
X97767143Y-67948571D01*
X97814762Y-67853333D01*
X97910000Y-67805714D01*
X98100477Y-67805714D01*
X98195715Y-67853333D01*
X98243334Y-67948571D01*
X98243334Y-68043810D01*
X97767143Y-68139048D01*
X98624286Y-68424762D02*
X98719524Y-68472381D01*
X98910000Y-68472381D01*
X99005239Y-68424762D01*
X99052858Y-68329524D01*
X99052858Y-68281905D01*
X99005239Y-68186667D01*
X98910000Y-68139048D01*
X98767143Y-68139048D01*
X98671905Y-68091429D01*
X98624286Y-67996190D01*
X98624286Y-67948571D01*
X98671905Y-67853333D01*
X98767143Y-67805714D01*
X98910000Y-67805714D01*
X99005239Y-67853333D01*
X99862382Y-68424762D02*
X99767144Y-68472381D01*
X99576667Y-68472381D01*
X99481429Y-68424762D01*
X99433810Y-68329524D01*
X99433810Y-67948571D01*
X99481429Y-67853333D01*
X99576667Y-67805714D01*
X99767144Y-67805714D01*
X99862382Y-67853333D01*
X99910001Y-67948571D01*
X99910001Y-68043810D01*
X99433810Y-68139048D01*
X100338572Y-67805714D02*
X100338572Y-68472381D01*
X100338572Y-67900952D02*
X100386191Y-67853333D01*
X100481429Y-67805714D01*
X100624287Y-67805714D01*
X100719525Y-67853333D01*
X100767144Y-67948571D01*
X100767144Y-68472381D01*
X101100477Y-67805714D02*
X101481429Y-67805714D01*
X101243334Y-67472381D02*
X101243334Y-68329524D01*
X101290953Y-68424762D01*
X101386191Y-68472381D01*
X101481429Y-68472381D01*
X92362380Y-70624762D02*
X92505237Y-70672381D01*
X92743333Y-70672381D01*
X92838571Y-70624762D01*
X92886190Y-70577143D01*
X92933809Y-70481905D01*
X92933809Y-70386667D01*
X92886190Y-70291429D01*
X92838571Y-70243810D01*
X92743333Y-70196190D01*
X92552856Y-70148571D01*
X92457618Y-70100952D01*
X92409999Y-70053333D01*
X92362380Y-69958095D01*
X92362380Y-69862857D01*
X92409999Y-69767619D01*
X92457618Y-69720000D01*
X92552856Y-69672381D01*
X92790952Y-69672381D01*
X92933809Y-69720000D01*
X93362380Y-70672381D02*
X93362380Y-69672381D01*
X93695714Y-70386667D01*
X94029047Y-69672381D01*
X94029047Y-70672381D01*
X94505237Y-70672381D02*
X94505237Y-69672381D01*
X94743332Y-69672381D01*
X94886190Y-69720000D01*
X94981428Y-69815238D01*
X95029047Y-69910476D01*
X95076666Y-70100952D01*
X95076666Y-70243810D01*
X95029047Y-70434286D01*
X94981428Y-70529524D01*
X94886190Y-70624762D01*
X94743332Y-70672381D01*
X94505237Y-70672381D01*
X96267142Y-70672381D02*
X96267142Y-69672381D01*
X96648095Y-69672381D01*
X96743333Y-69720000D01*
X96790952Y-69767619D01*
X96838571Y-69862857D01*
X96838571Y-70005714D01*
X96790952Y-70100952D01*
X96743333Y-70148571D01*
X96648095Y-70196190D01*
X96267142Y-70196190D01*
X97267142Y-70672381D02*
X97267142Y-70005714D01*
X97267142Y-70196190D02*
X97314761Y-70100952D01*
X97362380Y-70053333D01*
X97457618Y-70005714D01*
X97552857Y-70005714D01*
X98267143Y-70624762D02*
X98171905Y-70672381D01*
X97981428Y-70672381D01*
X97886190Y-70624762D01*
X97838571Y-70529524D01*
X97838571Y-70148571D01*
X97886190Y-70053333D01*
X97981428Y-70005714D01*
X98171905Y-70005714D01*
X98267143Y-70053333D01*
X98314762Y-70148571D01*
X98314762Y-70243810D01*
X97838571Y-70339048D01*
X98695714Y-70624762D02*
X98790952Y-70672381D01*
X98981428Y-70672381D01*
X99076667Y-70624762D01*
X99124286Y-70529524D01*
X99124286Y-70481905D01*
X99076667Y-70386667D01*
X98981428Y-70339048D01*
X98838571Y-70339048D01*
X98743333Y-70291429D01*
X98695714Y-70196190D01*
X98695714Y-70148571D01*
X98743333Y-70053333D01*
X98838571Y-70005714D01*
X98981428Y-70005714D01*
X99076667Y-70053333D01*
X99933810Y-70624762D02*
X99838572Y-70672381D01*
X99648095Y-70672381D01*
X99552857Y-70624762D01*
X99505238Y-70529524D01*
X99505238Y-70148571D01*
X99552857Y-70053333D01*
X99648095Y-70005714D01*
X99838572Y-70005714D01*
X99933810Y-70053333D01*
X99981429Y-70148571D01*
X99981429Y-70243810D01*
X99505238Y-70339048D01*
X100410000Y-70005714D02*
X100410000Y-70672381D01*
X100410000Y-70100952D02*
X100457619Y-70053333D01*
X100552857Y-70005714D01*
X100695715Y-70005714D01*
X100790953Y-70053333D01*
X100838572Y-70148571D01*
X100838572Y-70672381D01*
X101171905Y-70005714D02*
X101552857Y-70005714D01*
X101314762Y-69672381D02*
X101314762Y-70529524D01*
X101362381Y-70624762D01*
X101457619Y-70672381D01*
X101552857Y-70672381D01*
X92367142Y-72672381D02*
X92367142Y-71672381D01*
X92700476Y-72386667D01*
X93033809Y-71672381D01*
X93033809Y-72672381D01*
X93938571Y-72672381D02*
X93938571Y-72148571D01*
X93890952Y-72053333D01*
X93795714Y-72005714D01*
X93605237Y-72005714D01*
X93509999Y-72053333D01*
X93938571Y-72624762D02*
X93843333Y-72672381D01*
X93605237Y-72672381D01*
X93509999Y-72624762D01*
X93462380Y-72529524D01*
X93462380Y-72434286D01*
X93509999Y-72339048D01*
X93605237Y-72291429D01*
X93843333Y-72291429D01*
X93938571Y-72243810D01*
X94367142Y-72624762D02*
X94462380Y-72672381D01*
X94652856Y-72672381D01*
X94748095Y-72624762D01*
X94795714Y-72529524D01*
X94795714Y-72481905D01*
X94748095Y-72386667D01*
X94652856Y-72339048D01*
X94509999Y-72339048D01*
X94414761Y-72291429D01*
X94367142Y-72196190D01*
X94367142Y-72148571D01*
X94414761Y-72053333D01*
X94509999Y-72005714D01*
X94652856Y-72005714D01*
X94748095Y-72053333D01*
X95224285Y-72672381D02*
X95224285Y-71672381D01*
X95319523Y-72291429D02*
X95605238Y-72672381D01*
X95605238Y-72005714D02*
X95224285Y-72386667D01*
X97367143Y-72577143D02*
X97319524Y-72624762D01*
X97176667Y-72672381D01*
X97081429Y-72672381D01*
X96938571Y-72624762D01*
X96843333Y-72529524D01*
X96795714Y-72434286D01*
X96748095Y-72243810D01*
X96748095Y-72100952D01*
X96795714Y-71910476D01*
X96843333Y-71815238D01*
X96938571Y-71720000D01*
X97081429Y-71672381D01*
X97176667Y-71672381D01*
X97319524Y-71720000D01*
X97367143Y-71767619D01*
X97938571Y-72672381D02*
X97843333Y-72624762D01*
X97795714Y-72577143D01*
X97748095Y-72481905D01*
X97748095Y-72196190D01*
X97795714Y-72100952D01*
X97843333Y-72053333D01*
X97938571Y-72005714D01*
X98081429Y-72005714D01*
X98176667Y-72053333D01*
X98224286Y-72100952D01*
X98271905Y-72196190D01*
X98271905Y-72481905D01*
X98224286Y-72577143D01*
X98176667Y-72624762D01*
X98081429Y-72672381D01*
X97938571Y-72672381D01*
X98605238Y-72005714D02*
X98843333Y-72672381D01*
X99081429Y-72005714D01*
X99843334Y-72624762D02*
X99748096Y-72672381D01*
X99557619Y-72672381D01*
X99462381Y-72624762D01*
X99414762Y-72529524D01*
X99414762Y-72148571D01*
X99462381Y-72053333D01*
X99557619Y-72005714D01*
X99748096Y-72005714D01*
X99843334Y-72053333D01*
X99890953Y-72148571D01*
X99890953Y-72243810D01*
X99414762Y-72339048D01*
X100319524Y-72672381D02*
X100319524Y-72005714D01*
X100319524Y-72196190D02*
X100367143Y-72100952D01*
X100414762Y-72053333D01*
X100510000Y-72005714D01*
X100605239Y-72005714D01*
X100938572Y-72672381D02*
X100938572Y-72005714D01*
X100938572Y-71672381D02*
X100890953Y-71720000D01*
X100938572Y-71767619D01*
X100986191Y-71720000D01*
X100938572Y-71672381D01*
X100938572Y-71767619D01*
X101414762Y-72005714D02*
X101414762Y-72672381D01*
X101414762Y-72100952D02*
X101462381Y-72053333D01*
X101557619Y-72005714D01*
X101700477Y-72005714D01*
X101795715Y-72053333D01*
X101843334Y-72148571D01*
X101843334Y-72672381D01*
X102748096Y-72005714D02*
X102748096Y-72815238D01*
X102700477Y-72910476D01*
X102652858Y-72958095D01*
X102557619Y-73005714D01*
X102414762Y-73005714D01*
X102319524Y-72958095D01*
X102748096Y-72624762D02*
X102652858Y-72672381D01*
X102462381Y-72672381D01*
X102367143Y-72624762D01*
X102319524Y-72577143D01*
X102271905Y-72481905D01*
X102271905Y-72196190D01*
X102319524Y-72100952D01*
X102367143Y-72053333D01*
X102462381Y-72005714D01*
X102652858Y-72005714D01*
X102748096Y-72053333D01*
X103843334Y-71672381D02*
X104176667Y-72672381D01*
X104510001Y-71672381D01*
X104843334Y-72672381D02*
X104843334Y-71672381D01*
X105271905Y-72386667D02*
X105748096Y-72386667D01*
X105176667Y-72672381D02*
X105510000Y-71672381D01*
X105843334Y-72672381D01*
X106129048Y-72624762D02*
X106271905Y-72672381D01*
X106510001Y-72672381D01*
X106605239Y-72624762D01*
X106652858Y-72577143D01*
X106700477Y-72481905D01*
X106700477Y-72386667D01*
X106652858Y-72291429D01*
X106605239Y-72243810D01*
X106510001Y-72196190D01*
X106319524Y-72148571D01*
X106224286Y-72100952D01*
X106176667Y-72053333D01*
X106129048Y-71958095D01*
X106129048Y-71862857D01*
X106176667Y-71767619D01*
X106224286Y-71720000D01*
X106319524Y-71672381D01*
X106557620Y-71672381D01*
X106700477Y-71720000D01*
X92290951Y-73672381D02*
X92290951Y-74481905D01*
X92338570Y-74577143D01*
X92386189Y-74624762D01*
X92481427Y-74672381D01*
X92671904Y-74672381D01*
X92767142Y-74624762D01*
X92814761Y-74577143D01*
X92862380Y-74481905D01*
X92862380Y-73672381D01*
X93338570Y-74005714D02*
X93338570Y-74672381D01*
X93338570Y-74100952D02*
X93386189Y-74053333D01*
X93481427Y-74005714D01*
X93624285Y-74005714D01*
X93719523Y-74053333D01*
X93767142Y-74148571D01*
X93767142Y-74672381D01*
X94100475Y-74005714D02*
X94481427Y-74005714D01*
X94243332Y-73672381D02*
X94243332Y-74529524D01*
X94290951Y-74624762D01*
X94386189Y-74672381D01*
X94481427Y-74672381D01*
X95195714Y-74624762D02*
X95100476Y-74672381D01*
X94909999Y-74672381D01*
X94814761Y-74624762D01*
X94767142Y-74529524D01*
X94767142Y-74148571D01*
X94814761Y-74053333D01*
X94909999Y-74005714D01*
X95100476Y-74005714D01*
X95195714Y-74053333D01*
X95243333Y-74148571D01*
X95243333Y-74243810D01*
X94767142Y-74339048D01*
X95671904Y-74672381D02*
X95671904Y-74005714D01*
X95671904Y-74196190D02*
X95719523Y-74100952D01*
X95767142Y-74053333D01*
X95862380Y-74005714D01*
X95957619Y-74005714D01*
X96290952Y-74672381D02*
X96290952Y-74005714D01*
X96290952Y-74100952D02*
X96338571Y-74053333D01*
X96433809Y-74005714D01*
X96576667Y-74005714D01*
X96671905Y-74053333D01*
X96719524Y-74148571D01*
X96719524Y-74672381D01*
X96719524Y-74148571D02*
X96767143Y-74053333D01*
X96862381Y-74005714D01*
X97005238Y-74005714D01*
X97100476Y-74053333D01*
X97148095Y-74148571D01*
X97148095Y-74672381D01*
X97624285Y-74672381D02*
X97624285Y-74005714D01*
X97624285Y-73672381D02*
X97576666Y-73720000D01*
X97624285Y-73767619D01*
X97671904Y-73720000D01*
X97624285Y-73672381D01*
X97624285Y-73767619D01*
X98100475Y-74005714D02*
X98100475Y-74672381D01*
X98100475Y-74100952D02*
X98148094Y-74053333D01*
X98243332Y-74005714D01*
X98386190Y-74005714D01*
X98481428Y-74053333D01*
X98529047Y-74148571D01*
X98529047Y-74672381D01*
X99433809Y-74672381D02*
X99433809Y-74148571D01*
X99386190Y-74053333D01*
X99290952Y-74005714D01*
X99100475Y-74005714D01*
X99005237Y-74053333D01*
X99433809Y-74624762D02*
X99338571Y-74672381D01*
X99100475Y-74672381D01*
X99005237Y-74624762D01*
X98957618Y-74529524D01*
X98957618Y-74434286D01*
X99005237Y-74339048D01*
X99100475Y-74291429D01*
X99338571Y-74291429D01*
X99433809Y-74243810D01*
X99767142Y-74005714D02*
X100148094Y-74005714D01*
X99909999Y-73672381D02*
X99909999Y-74529524D01*
X99957618Y-74624762D01*
X100052856Y-74672381D01*
X100148094Y-74672381D01*
X100862381Y-74624762D02*
X100767143Y-74672381D01*
X100576666Y-74672381D01*
X100481428Y-74624762D01*
X100433809Y-74529524D01*
X100433809Y-74148571D01*
X100481428Y-74053333D01*
X100576666Y-74005714D01*
X100767143Y-74005714D01*
X100862381Y-74053333D01*
X100910000Y-74148571D01*
X100910000Y-74243810D01*
X100433809Y-74339048D01*
X101767143Y-74672381D02*
X101767143Y-73672381D01*
X101767143Y-74624762D02*
X101671905Y-74672381D01*
X101481428Y-74672381D01*
X101386190Y-74624762D01*
X101338571Y-74577143D01*
X101290952Y-74481905D01*
X101290952Y-74196190D01*
X101338571Y-74100952D01*
X101386190Y-74053333D01*
X101481428Y-74005714D01*
X101671905Y-74005714D01*
X101767143Y-74053333D01*
X102862381Y-73672381D02*
X103433810Y-73672381D01*
X103148095Y-74672381D02*
X103148095Y-73672381D01*
X103767143Y-74672381D02*
X103767143Y-74005714D01*
X103767143Y-74196190D02*
X103814762Y-74100952D01*
X103862381Y-74053333D01*
X103957619Y-74005714D01*
X104052858Y-74005714D01*
X104814763Y-74672381D02*
X104814763Y-74148571D01*
X104767144Y-74053333D01*
X104671906Y-74005714D01*
X104481429Y-74005714D01*
X104386191Y-74053333D01*
X104814763Y-74624762D02*
X104719525Y-74672381D01*
X104481429Y-74672381D01*
X104386191Y-74624762D01*
X104338572Y-74529524D01*
X104338572Y-74434286D01*
X104386191Y-74339048D01*
X104481429Y-74291429D01*
X104719525Y-74291429D01*
X104814763Y-74243810D01*
X105719525Y-74624762D02*
X105624287Y-74672381D01*
X105433810Y-74672381D01*
X105338572Y-74624762D01*
X105290953Y-74577143D01*
X105243334Y-74481905D01*
X105243334Y-74196190D01*
X105290953Y-74100952D01*
X105338572Y-74053333D01*
X105433810Y-74005714D01*
X105624287Y-74005714D01*
X105719525Y-74053333D01*
X106529049Y-74624762D02*
X106433811Y-74672381D01*
X106243334Y-74672381D01*
X106148096Y-74624762D01*
X106100477Y-74529524D01*
X106100477Y-74148571D01*
X106148096Y-74053333D01*
X106243334Y-74005714D01*
X106433811Y-74005714D01*
X106529049Y-74053333D01*
X106576668Y-74148571D01*
X106576668Y-74243810D01*
X106100477Y-74339048D01*
X92243332Y-76672381D02*
X92243332Y-75672381D01*
X92576666Y-76386667D01*
X92909999Y-75672381D01*
X92909999Y-76672381D01*
X93814761Y-76672381D02*
X93814761Y-76148571D01*
X93767142Y-76053333D01*
X93671904Y-76005714D01*
X93481427Y-76005714D01*
X93386189Y-76053333D01*
X93814761Y-76624762D02*
X93719523Y-76672381D01*
X93481427Y-76672381D01*
X93386189Y-76624762D01*
X93338570Y-76529524D01*
X93338570Y-76434286D01*
X93386189Y-76339048D01*
X93481427Y-76291429D01*
X93719523Y-76291429D01*
X93814761Y-76243810D01*
X94243332Y-76624762D02*
X94338570Y-76672381D01*
X94529046Y-76672381D01*
X94624285Y-76624762D01*
X94671904Y-76529524D01*
X94671904Y-76481905D01*
X94624285Y-76386667D01*
X94529046Y-76339048D01*
X94386189Y-76339048D01*
X94290951Y-76291429D01*
X94243332Y-76196190D01*
X94243332Y-76148571D01*
X94290951Y-76053333D01*
X94386189Y-76005714D01*
X94529046Y-76005714D01*
X94624285Y-76053333D01*
X95100475Y-76672381D02*
X95100475Y-75672381D01*
X95195713Y-76291429D02*
X95481428Y-76672381D01*
X95481428Y-76005714D02*
X95100475Y-76386667D01*
X97243333Y-76577143D02*
X97195714Y-76624762D01*
X97052857Y-76672381D01*
X96957619Y-76672381D01*
X96814761Y-76624762D01*
X96719523Y-76529524D01*
X96671904Y-76434286D01*
X96624285Y-76243810D01*
X96624285Y-76100952D01*
X96671904Y-75910476D01*
X96719523Y-75815238D01*
X96814761Y-75720000D01*
X96957619Y-75672381D01*
X97052857Y-75672381D01*
X97195714Y-75720000D01*
X97243333Y-75767619D01*
X97814761Y-76672381D02*
X97719523Y-76624762D01*
X97671904Y-76529524D01*
X97671904Y-75672381D01*
X98576667Y-76624762D02*
X98481429Y-76672381D01*
X98290952Y-76672381D01*
X98195714Y-76624762D01*
X98148095Y-76529524D01*
X98148095Y-76148571D01*
X98195714Y-76053333D01*
X98290952Y-76005714D01*
X98481429Y-76005714D01*
X98576667Y-76053333D01*
X98624286Y-76148571D01*
X98624286Y-76243810D01*
X98148095Y-76339048D01*
X99481429Y-76672381D02*
X99481429Y-76148571D01*
X99433810Y-76053333D01*
X99338572Y-76005714D01*
X99148095Y-76005714D01*
X99052857Y-76053333D01*
X99481429Y-76624762D02*
X99386191Y-76672381D01*
X99148095Y-76672381D01*
X99052857Y-76624762D01*
X99005238Y-76529524D01*
X99005238Y-76434286D01*
X99052857Y-76339048D01*
X99148095Y-76291429D01*
X99386191Y-76291429D01*
X99481429Y-76243810D01*
X99957619Y-76672381D02*
X99957619Y-76005714D01*
X99957619Y-76196190D02*
X100005238Y-76100952D01*
X100052857Y-76053333D01*
X100148095Y-76005714D01*
X100243334Y-76005714D01*
X100957620Y-76624762D02*
X100862382Y-76672381D01*
X100671905Y-76672381D01*
X100576667Y-76624762D01*
X100529048Y-76529524D01*
X100529048Y-76148571D01*
X100576667Y-76053333D01*
X100671905Y-76005714D01*
X100862382Y-76005714D01*
X100957620Y-76053333D01*
X101005239Y-76148571D01*
X101005239Y-76243810D01*
X100529048Y-76339048D01*
X101433810Y-76005714D02*
X101433810Y-76672381D01*
X101433810Y-76100952D02*
X101481429Y-76053333D01*
X101576667Y-76005714D01*
X101719525Y-76005714D01*
X101814763Y-76053333D01*
X101862382Y-76148571D01*
X101862382Y-76672381D01*
X102767144Y-76624762D02*
X102671906Y-76672381D01*
X102481429Y-76672381D01*
X102386191Y-76624762D01*
X102338572Y-76577143D01*
X102290953Y-76481905D01*
X102290953Y-76196190D01*
X102338572Y-76100952D01*
X102386191Y-76053333D01*
X102481429Y-76005714D01*
X102671906Y-76005714D01*
X102767144Y-76053333D01*
X103576668Y-76624762D02*
X103481430Y-76672381D01*
X103290953Y-76672381D01*
X103195715Y-76624762D01*
X103148096Y-76529524D01*
X103148096Y-76148571D01*
X103195715Y-76053333D01*
X103290953Y-76005714D01*
X103481430Y-76005714D01*
X103576668Y-76053333D01*
X103624287Y-76148571D01*
X103624287Y-76243810D01*
X103148096Y-76339048D01*
X92729047Y-78672381D02*
X92252856Y-78672381D01*
X92252856Y-77672381D01*
X93443333Y-78624762D02*
X93348095Y-78672381D01*
X93157618Y-78672381D01*
X93062380Y-78624762D01*
X93014761Y-78529524D01*
X93014761Y-78148571D01*
X93062380Y-78053333D01*
X93157618Y-78005714D01*
X93348095Y-78005714D01*
X93443333Y-78053333D01*
X93490952Y-78148571D01*
X93490952Y-78243810D01*
X93014761Y-78339048D01*
X94348095Y-78005714D02*
X94348095Y-78815238D01*
X94300476Y-78910476D01*
X94252857Y-78958095D01*
X94157618Y-79005714D01*
X94014761Y-79005714D01*
X93919523Y-78958095D01*
X94348095Y-78624762D02*
X94252857Y-78672381D01*
X94062380Y-78672381D01*
X93967142Y-78624762D01*
X93919523Y-78577143D01*
X93871904Y-78481905D01*
X93871904Y-78196190D01*
X93919523Y-78100952D01*
X93967142Y-78053333D01*
X94062380Y-78005714D01*
X94252857Y-78005714D01*
X94348095Y-78053333D01*
X95205238Y-78624762D02*
X95110000Y-78672381D01*
X94919523Y-78672381D01*
X94824285Y-78624762D01*
X94776666Y-78529524D01*
X94776666Y-78148571D01*
X94824285Y-78053333D01*
X94919523Y-78005714D01*
X95110000Y-78005714D01*
X95205238Y-78053333D01*
X95252857Y-78148571D01*
X95252857Y-78243810D01*
X94776666Y-78339048D01*
X95681428Y-78005714D02*
X95681428Y-78672381D01*
X95681428Y-78100952D02*
X95729047Y-78053333D01*
X95824285Y-78005714D01*
X95967143Y-78005714D01*
X96062381Y-78053333D01*
X96110000Y-78148571D01*
X96110000Y-78672381D01*
X97014762Y-78672381D02*
X97014762Y-77672381D01*
X97014762Y-78624762D02*
X96919524Y-78672381D01*
X96729047Y-78672381D01*
X96633809Y-78624762D01*
X96586190Y-78577143D01*
X96538571Y-78481905D01*
X96538571Y-78196190D01*
X96586190Y-78100952D01*
X96633809Y-78053333D01*
X96729047Y-78005714D01*
X96919524Y-78005714D01*
X97014762Y-78053333D01*
X98395714Y-78672381D02*
X98300476Y-78624762D01*
X98252857Y-78577143D01*
X98205238Y-78481905D01*
X98205238Y-78196190D01*
X98252857Y-78100952D01*
X98300476Y-78053333D01*
X98395714Y-78005714D01*
X98538572Y-78005714D01*
X98633810Y-78053333D01*
X98681429Y-78100952D01*
X98729048Y-78196190D01*
X98729048Y-78481905D01*
X98681429Y-78577143D01*
X98633810Y-78624762D01*
X98538572Y-78672381D01*
X98395714Y-78672381D01*
X99157619Y-78005714D02*
X99157619Y-78672381D01*
X99157619Y-78100952D02*
X99205238Y-78053333D01*
X99300476Y-78005714D01*
X99443334Y-78005714D01*
X99538572Y-78053333D01*
X99586191Y-78148571D01*
X99586191Y-78672381D01*
X100824286Y-78672381D02*
X100824286Y-77672381D01*
X101205239Y-77672381D01*
X101300477Y-77720000D01*
X101348096Y-77767619D01*
X101395715Y-77862857D01*
X101395715Y-78005714D01*
X101348096Y-78100952D01*
X101300477Y-78148571D01*
X101205239Y-78196190D01*
X100824286Y-78196190D01*
X102252858Y-78672381D02*
X102252858Y-78148571D01*
X102205239Y-78053333D01*
X102110001Y-78005714D01*
X101919524Y-78005714D01*
X101824286Y-78053333D01*
X102252858Y-78624762D02*
X102157620Y-78672381D01*
X101919524Y-78672381D01*
X101824286Y-78624762D01*
X101776667Y-78529524D01*
X101776667Y-78434286D01*
X101824286Y-78339048D01*
X101919524Y-78291429D01*
X102157620Y-78291429D01*
X102252858Y-78243810D01*
X103157620Y-78672381D02*
X103157620Y-77672381D01*
X103157620Y-78624762D02*
X103062382Y-78672381D01*
X102871905Y-78672381D01*
X102776667Y-78624762D01*
X102729048Y-78577143D01*
X102681429Y-78481905D01*
X102681429Y-78196190D01*
X102729048Y-78100952D01*
X102776667Y-78053333D01*
X102871905Y-78005714D01*
X103062382Y-78005714D01*
X103157620Y-78053333D01*
X103586191Y-78624762D02*
X103681429Y-78672381D01*
X103871905Y-78672381D01*
X103967144Y-78624762D01*
X104014763Y-78529524D01*
X104014763Y-78481905D01*
X103967144Y-78386667D01*
X103871905Y-78339048D01*
X103729048Y-78339048D01*
X103633810Y-78291429D01*
X103586191Y-78196190D01*
X103586191Y-78148571D01*
X103633810Y-78053333D01*
X103729048Y-78005714D01*
X103871905Y-78005714D01*
X103967144Y-78053333D01*
X92538571Y-80148571D02*
X92681428Y-80196190D01*
X92729047Y-80243810D01*
X92776666Y-80339048D01*
X92776666Y-80481905D01*
X92729047Y-80577143D01*
X92681428Y-80624762D01*
X92586190Y-80672381D01*
X92205237Y-80672381D01*
X92205237Y-79672381D01*
X92538571Y-79672381D01*
X92633809Y-79720000D01*
X92681428Y-79767619D01*
X92729047Y-79862857D01*
X92729047Y-79958095D01*
X92681428Y-80053333D01*
X92633809Y-80100952D01*
X92538571Y-80148571D01*
X92205237Y-80148571D01*
X93348094Y-80672381D02*
X93252856Y-80624762D01*
X93205237Y-80577143D01*
X93157618Y-80481905D01*
X93157618Y-80196190D01*
X93205237Y-80100952D01*
X93252856Y-80053333D01*
X93348094Y-80005714D01*
X93490952Y-80005714D01*
X93586190Y-80053333D01*
X93633809Y-80100952D01*
X93681428Y-80196190D01*
X93681428Y-80481905D01*
X93633809Y-80577143D01*
X93586190Y-80624762D01*
X93490952Y-80672381D01*
X93348094Y-80672381D01*
X94538571Y-80672381D02*
X94538571Y-80148571D01*
X94490952Y-80053333D01*
X94395714Y-80005714D01*
X94205237Y-80005714D01*
X94109999Y-80053333D01*
X94538571Y-80624762D02*
X94443333Y-80672381D01*
X94205237Y-80672381D01*
X94109999Y-80624762D01*
X94062380Y-80529524D01*
X94062380Y-80434286D01*
X94109999Y-80339048D01*
X94205237Y-80291429D01*
X94443333Y-80291429D01*
X94538571Y-80243810D01*
X95014761Y-80672381D02*
X95014761Y-80005714D01*
X95014761Y-80196190D02*
X95062380Y-80100952D01*
X95109999Y-80053333D01*
X95205237Y-80005714D01*
X95300476Y-80005714D01*
X96062381Y-80672381D02*
X96062381Y-79672381D01*
X96062381Y-80624762D02*
X95967143Y-80672381D01*
X95776666Y-80672381D01*
X95681428Y-80624762D01*
X95633809Y-80577143D01*
X95586190Y-80481905D01*
X95586190Y-80196190D01*
X95633809Y-80100952D01*
X95681428Y-80053333D01*
X95776666Y-80005714D01*
X95967143Y-80005714D01*
X96062381Y-80053333D01*
X97157619Y-79672381D02*
X97729048Y-79672381D01*
X97443333Y-80672381D02*
X97443333Y-79672381D01*
X98062381Y-80672381D02*
X98062381Y-79672381D01*
X98490953Y-80672381D02*
X98490953Y-80148571D01*
X98443334Y-80053333D01*
X98348096Y-80005714D01*
X98205238Y-80005714D01*
X98110000Y-80053333D01*
X98062381Y-80100952D01*
X98967143Y-80672381D02*
X98967143Y-80005714D01*
X98967143Y-79672381D02*
X98919524Y-79720000D01*
X98967143Y-79767619D01*
X99014762Y-79720000D01*
X98967143Y-79672381D01*
X98967143Y-79767619D01*
X99871905Y-80624762D02*
X99776667Y-80672381D01*
X99586190Y-80672381D01*
X99490952Y-80624762D01*
X99443333Y-80577143D01*
X99395714Y-80481905D01*
X99395714Y-80196190D01*
X99443333Y-80100952D01*
X99490952Y-80053333D01*
X99586190Y-80005714D01*
X99776667Y-80005714D01*
X99871905Y-80053333D01*
X100300476Y-80672381D02*
X100300476Y-79672381D01*
X100395714Y-80291429D02*
X100681429Y-80672381D01*
X100681429Y-80005714D02*
X100300476Y-80386667D01*
X101110000Y-80005714D02*
X101110000Y-80672381D01*
X101110000Y-80100952D02*
X101157619Y-80053333D01*
X101252857Y-80005714D01*
X101395715Y-80005714D01*
X101490953Y-80053333D01*
X101538572Y-80148571D01*
X101538572Y-80672381D01*
X102395715Y-80624762D02*
X102300477Y-80672381D01*
X102110000Y-80672381D01*
X102014762Y-80624762D01*
X101967143Y-80529524D01*
X101967143Y-80148571D01*
X102014762Y-80053333D01*
X102110000Y-80005714D01*
X102300477Y-80005714D01*
X102395715Y-80053333D01*
X102443334Y-80148571D01*
X102443334Y-80243810D01*
X101967143Y-80339048D01*
X102824286Y-80624762D02*
X102919524Y-80672381D01*
X103110000Y-80672381D01*
X103205239Y-80624762D01*
X103252858Y-80529524D01*
X103252858Y-80481905D01*
X103205239Y-80386667D01*
X103110000Y-80339048D01*
X102967143Y-80339048D01*
X102871905Y-80291429D01*
X102824286Y-80196190D01*
X102824286Y-80148571D01*
X102871905Y-80053333D01*
X102967143Y-80005714D01*
X103110000Y-80005714D01*
X103205239Y-80053333D01*
X103633810Y-80624762D02*
X103729048Y-80672381D01*
X103919524Y-80672381D01*
X104014763Y-80624762D01*
X104062382Y-80529524D01*
X104062382Y-80481905D01*
X104014763Y-80386667D01*
X103919524Y-80339048D01*
X103776667Y-80339048D01*
X103681429Y-80291429D01*
X103633810Y-80196190D01*
X103633810Y-80148571D01*
X103681429Y-80053333D01*
X103776667Y-80005714D01*
X103919524Y-80005714D01*
X104014763Y-80053333D01*
X92248095Y-82872381D02*
X92248095Y-81872381D01*
X92581429Y-82586667D01*
X92914762Y-81872381D01*
X92914762Y-82872381D01*
X93819524Y-82872381D02*
X93819524Y-82348571D01*
X93771905Y-82253333D01*
X93676667Y-82205714D01*
X93486190Y-82205714D01*
X93390952Y-82253333D01*
X93819524Y-82824762D02*
X93724286Y-82872381D01*
X93486190Y-82872381D01*
X93390952Y-82824762D01*
X93343333Y-82729524D01*
X93343333Y-82634286D01*
X93390952Y-82539048D01*
X93486190Y-82491429D01*
X93724286Y-82491429D01*
X93819524Y-82443810D01*
X94152857Y-82205714D02*
X94533809Y-82205714D01*
X94295714Y-81872381D02*
X94295714Y-82729524D01*
X94343333Y-82824762D01*
X94438571Y-82872381D01*
X94533809Y-82872381D01*
X95248096Y-82824762D02*
X95152858Y-82872381D01*
X94962381Y-82872381D01*
X94867143Y-82824762D01*
X94819524Y-82729524D01*
X94819524Y-82348571D01*
X94867143Y-82253333D01*
X94962381Y-82205714D01*
X95152858Y-82205714D01*
X95248096Y-82253333D01*
X95295715Y-82348571D01*
X95295715Y-82443810D01*
X94819524Y-82539048D01*
X95724286Y-82872381D02*
X95724286Y-82205714D01*
X95724286Y-82396190D02*
X95771905Y-82300952D01*
X95819524Y-82253333D01*
X95914762Y-82205714D01*
X96010001Y-82205714D01*
X96343334Y-82872381D02*
X96343334Y-82205714D01*
X96343334Y-81872381D02*
X96295715Y-81920000D01*
X96343334Y-81967619D01*
X96390953Y-81920000D01*
X96343334Y-81872381D01*
X96343334Y-81967619D01*
X97248096Y-82872381D02*
X97248096Y-82348571D01*
X97200477Y-82253333D01*
X97105239Y-82205714D01*
X96914762Y-82205714D01*
X96819524Y-82253333D01*
X97248096Y-82824762D02*
X97152858Y-82872381D01*
X96914762Y-82872381D01*
X96819524Y-82824762D01*
X96771905Y-82729524D01*
X96771905Y-82634286D01*
X96819524Y-82539048D01*
X96914762Y-82491429D01*
X97152858Y-82491429D01*
X97248096Y-82443810D01*
X97867143Y-82872381D02*
X97771905Y-82824762D01*
X97724286Y-82729524D01*
X97724286Y-81872381D01*
X92767142Y-84772381D02*
X92290951Y-84772381D01*
X92290951Y-83772381D01*
X93481428Y-84724762D02*
X93386190Y-84772381D01*
X93195713Y-84772381D01*
X93100475Y-84724762D01*
X93052856Y-84629524D01*
X93052856Y-84248571D01*
X93100475Y-84153333D01*
X93195713Y-84105714D01*
X93386190Y-84105714D01*
X93481428Y-84153333D01*
X93529047Y-84248571D01*
X93529047Y-84343810D01*
X93052856Y-84439048D01*
X94386190Y-84105714D02*
X94386190Y-84915238D01*
X94338571Y-85010476D01*
X94290952Y-85058095D01*
X94195713Y-85105714D01*
X94052856Y-85105714D01*
X93957618Y-85058095D01*
X94386190Y-84724762D02*
X94290952Y-84772381D01*
X94100475Y-84772381D01*
X94005237Y-84724762D01*
X93957618Y-84677143D01*
X93909999Y-84581905D01*
X93909999Y-84296190D01*
X93957618Y-84200952D01*
X94005237Y-84153333D01*
X94100475Y-84105714D01*
X94290952Y-84105714D01*
X94386190Y-84153333D01*
X95243333Y-84724762D02*
X95148095Y-84772381D01*
X94957618Y-84772381D01*
X94862380Y-84724762D01*
X94814761Y-84629524D01*
X94814761Y-84248571D01*
X94862380Y-84153333D01*
X94957618Y-84105714D01*
X95148095Y-84105714D01*
X95243333Y-84153333D01*
X95290952Y-84248571D01*
X95290952Y-84343810D01*
X94814761Y-84439048D01*
X95719523Y-84105714D02*
X95719523Y-84772381D01*
X95719523Y-84200952D02*
X95767142Y-84153333D01*
X95862380Y-84105714D01*
X96005238Y-84105714D01*
X96100476Y-84153333D01*
X96148095Y-84248571D01*
X96148095Y-84772381D01*
X97052857Y-84772381D02*
X97052857Y-83772381D01*
X97052857Y-84724762D02*
X96957619Y-84772381D01*
X96767142Y-84772381D01*
X96671904Y-84724762D01*
X96624285Y-84677143D01*
X96576666Y-84581905D01*
X96576666Y-84296190D01*
X96624285Y-84200952D01*
X96671904Y-84153333D01*
X96767142Y-84105714D01*
X96957619Y-84105714D01*
X97052857Y-84153333D01*
X98433809Y-84772381D02*
X98338571Y-84724762D01*
X98290952Y-84677143D01*
X98243333Y-84581905D01*
X98243333Y-84296190D01*
X98290952Y-84200952D01*
X98338571Y-84153333D01*
X98433809Y-84105714D01*
X98576667Y-84105714D01*
X98671905Y-84153333D01*
X98719524Y-84200952D01*
X98767143Y-84296190D01*
X98767143Y-84581905D01*
X98719524Y-84677143D01*
X98671905Y-84724762D01*
X98576667Y-84772381D01*
X98433809Y-84772381D01*
X99195714Y-84105714D02*
X99195714Y-84772381D01*
X99195714Y-84200952D02*
X99243333Y-84153333D01*
X99338571Y-84105714D01*
X99481429Y-84105714D01*
X99576667Y-84153333D01*
X99624286Y-84248571D01*
X99624286Y-84772381D01*
X101195715Y-84248571D02*
X101338572Y-84296190D01*
X101386191Y-84343810D01*
X101433810Y-84439048D01*
X101433810Y-84581905D01*
X101386191Y-84677143D01*
X101338572Y-84724762D01*
X101243334Y-84772381D01*
X100862381Y-84772381D01*
X100862381Y-83772381D01*
X101195715Y-83772381D01*
X101290953Y-83820000D01*
X101338572Y-83867619D01*
X101386191Y-83962857D01*
X101386191Y-84058095D01*
X101338572Y-84153333D01*
X101290953Y-84200952D01*
X101195715Y-84248571D01*
X100862381Y-84248571D01*
X102005238Y-84772381D02*
X101910000Y-84724762D01*
X101862381Y-84677143D01*
X101814762Y-84581905D01*
X101814762Y-84296190D01*
X101862381Y-84200952D01*
X101910000Y-84153333D01*
X102005238Y-84105714D01*
X102148096Y-84105714D01*
X102243334Y-84153333D01*
X102290953Y-84200952D01*
X102338572Y-84296190D01*
X102338572Y-84581905D01*
X102290953Y-84677143D01*
X102243334Y-84724762D01*
X102148096Y-84772381D01*
X102005238Y-84772381D01*
X102624286Y-84105714D02*
X103005238Y-84105714D01*
X102767143Y-83772381D02*
X102767143Y-84629524D01*
X102814762Y-84724762D01*
X102910000Y-84772381D01*
X103005238Y-84772381D01*
X103338572Y-84772381D02*
X103338572Y-83772381D01*
X103767144Y-84772381D02*
X103767144Y-84248571D01*
X103719525Y-84153333D01*
X103624287Y-84105714D01*
X103481429Y-84105714D01*
X103386191Y-84153333D01*
X103338572Y-84200952D01*
X104957620Y-84724762D02*
X105100477Y-84772381D01*
X105338573Y-84772381D01*
X105433811Y-84724762D01*
X105481430Y-84677143D01*
X105529049Y-84581905D01*
X105529049Y-84486667D01*
X105481430Y-84391429D01*
X105433811Y-84343810D01*
X105338573Y-84296190D01*
X105148096Y-84248571D01*
X105052858Y-84200952D01*
X105005239Y-84153333D01*
X104957620Y-84058095D01*
X104957620Y-83962857D01*
X105005239Y-83867619D01*
X105052858Y-83820000D01*
X105148096Y-83772381D01*
X105386192Y-83772381D01*
X105529049Y-83820000D01*
X105957620Y-84772381D02*
X105957620Y-84105714D01*
X105957620Y-83772381D02*
X105910001Y-83820000D01*
X105957620Y-83867619D01*
X106005239Y-83820000D01*
X105957620Y-83772381D01*
X105957620Y-83867619D01*
X106862382Y-84772381D02*
X106862382Y-83772381D01*
X106862382Y-84724762D02*
X106767144Y-84772381D01*
X106576667Y-84772381D01*
X106481429Y-84724762D01*
X106433810Y-84677143D01*
X106386191Y-84581905D01*
X106386191Y-84296190D01*
X106433810Y-84200952D01*
X106481429Y-84153333D01*
X106576667Y-84105714D01*
X106767144Y-84105714D01*
X106862382Y-84153333D01*
X107719525Y-84724762D02*
X107624287Y-84772381D01*
X107433810Y-84772381D01*
X107338572Y-84724762D01*
X107290953Y-84629524D01*
X107290953Y-84248571D01*
X107338572Y-84153333D01*
X107433810Y-84105714D01*
X107624287Y-84105714D01*
X107719525Y-84153333D01*
X107767144Y-84248571D01*
X107767144Y-84343810D01*
X107290953Y-84439048D01*
X108148096Y-84724762D02*
X108243334Y-84772381D01*
X108433810Y-84772381D01*
X108529049Y-84724762D01*
X108576668Y-84629524D01*
X108576668Y-84581905D01*
X108529049Y-84486667D01*
X108433810Y-84439048D01*
X108290953Y-84439048D01*
X108195715Y-84391429D01*
X108148096Y-84296190D01*
X108148096Y-84248571D01*
X108195715Y-84153333D01*
X108290953Y-84105714D01*
X108433810Y-84105714D01*
X108529049Y-84153333D01*
X92276666Y-86772381D02*
X92276666Y-85772381D01*
X92610000Y-86486667D01*
X92943333Y-85772381D01*
X92943333Y-86772381D01*
X93848095Y-86772381D02*
X93848095Y-86248571D01*
X93800476Y-86153333D01*
X93705238Y-86105714D01*
X93514761Y-86105714D01*
X93419523Y-86153333D01*
X93848095Y-86724762D02*
X93752857Y-86772381D01*
X93514761Y-86772381D01*
X93419523Y-86724762D01*
X93371904Y-86629524D01*
X93371904Y-86534286D01*
X93419523Y-86439048D01*
X93514761Y-86391429D01*
X93752857Y-86391429D01*
X93848095Y-86343810D01*
X94276666Y-86724762D02*
X94371904Y-86772381D01*
X94562380Y-86772381D01*
X94657619Y-86724762D01*
X94705238Y-86629524D01*
X94705238Y-86581905D01*
X94657619Y-86486667D01*
X94562380Y-86439048D01*
X94419523Y-86439048D01*
X94324285Y-86391429D01*
X94276666Y-86296190D01*
X94276666Y-86248571D01*
X94324285Y-86153333D01*
X94419523Y-86105714D01*
X94562380Y-86105714D01*
X94657619Y-86153333D01*
X95133809Y-86772381D02*
X95133809Y-85772381D01*
X95229047Y-86391429D02*
X95514762Y-86772381D01*
X95514762Y-86105714D02*
X95133809Y-86486667D01*
X96848095Y-86772381D02*
X96752857Y-86724762D01*
X96705238Y-86677143D01*
X96657619Y-86581905D01*
X96657619Y-86296190D01*
X96705238Y-86200952D01*
X96752857Y-86153333D01*
X96848095Y-86105714D01*
X96990953Y-86105714D01*
X97086191Y-86153333D01*
X97133810Y-86200952D01*
X97181429Y-86296190D01*
X97181429Y-86581905D01*
X97133810Y-86677143D01*
X97086191Y-86724762D01*
X96990953Y-86772381D01*
X96848095Y-86772381D01*
X97610000Y-86105714D02*
X97610000Y-86772381D01*
X97610000Y-86200952D02*
X97657619Y-86153333D01*
X97752857Y-86105714D01*
X97895715Y-86105714D01*
X97990953Y-86153333D01*
X98038572Y-86248571D01*
X98038572Y-86772381D01*
X99610001Y-86248571D02*
X99752858Y-86296190D01*
X99800477Y-86343810D01*
X99848096Y-86439048D01*
X99848096Y-86581905D01*
X99800477Y-86677143D01*
X99752858Y-86724762D01*
X99657620Y-86772381D01*
X99276667Y-86772381D01*
X99276667Y-85772381D01*
X99610001Y-85772381D01*
X99705239Y-85820000D01*
X99752858Y-85867619D01*
X99800477Y-85962857D01*
X99800477Y-86058095D01*
X99752858Y-86153333D01*
X99705239Y-86200952D01*
X99610001Y-86248571D01*
X99276667Y-86248571D01*
X100419524Y-86772381D02*
X100324286Y-86724762D01*
X100276667Y-86677143D01*
X100229048Y-86581905D01*
X100229048Y-86296190D01*
X100276667Y-86200952D01*
X100324286Y-86153333D01*
X100419524Y-86105714D01*
X100562382Y-86105714D01*
X100657620Y-86153333D01*
X100705239Y-86200952D01*
X100752858Y-86296190D01*
X100752858Y-86581905D01*
X100705239Y-86677143D01*
X100657620Y-86724762D01*
X100562382Y-86772381D01*
X100419524Y-86772381D01*
X101038572Y-86105714D02*
X101419524Y-86105714D01*
X101181429Y-85772381D02*
X101181429Y-86629524D01*
X101229048Y-86724762D01*
X101324286Y-86772381D01*
X101419524Y-86772381D01*
X101752858Y-86772381D02*
X101752858Y-85772381D01*
X102181430Y-86772381D02*
X102181430Y-86248571D01*
X102133811Y-86153333D01*
X102038573Y-86105714D01*
X101895715Y-86105714D01*
X101800477Y-86153333D01*
X101752858Y-86200952D01*
X103371906Y-86724762D02*
X103514763Y-86772381D01*
X103752859Y-86772381D01*
X103848097Y-86724762D01*
X103895716Y-86677143D01*
X103943335Y-86581905D01*
X103943335Y-86486667D01*
X103895716Y-86391429D01*
X103848097Y-86343810D01*
X103752859Y-86296190D01*
X103562382Y-86248571D01*
X103467144Y-86200952D01*
X103419525Y-86153333D01*
X103371906Y-86058095D01*
X103371906Y-85962857D01*
X103419525Y-85867619D01*
X103467144Y-85820000D01*
X103562382Y-85772381D01*
X103800478Y-85772381D01*
X103943335Y-85820000D01*
X104371906Y-86772381D02*
X104371906Y-86105714D01*
X104371906Y-85772381D02*
X104324287Y-85820000D01*
X104371906Y-85867619D01*
X104419525Y-85820000D01*
X104371906Y-85772381D01*
X104371906Y-85867619D01*
X105276668Y-86772381D02*
X105276668Y-85772381D01*
X105276668Y-86724762D02*
X105181430Y-86772381D01*
X104990953Y-86772381D01*
X104895715Y-86724762D01*
X104848096Y-86677143D01*
X104800477Y-86581905D01*
X104800477Y-86296190D01*
X104848096Y-86200952D01*
X104895715Y-86153333D01*
X104990953Y-86105714D01*
X105181430Y-86105714D01*
X105276668Y-86153333D01*
X106133811Y-86724762D02*
X106038573Y-86772381D01*
X105848096Y-86772381D01*
X105752858Y-86724762D01*
X105705239Y-86629524D01*
X105705239Y-86248571D01*
X105752858Y-86153333D01*
X105848096Y-86105714D01*
X106038573Y-86105714D01*
X106133811Y-86153333D01*
X106181430Y-86248571D01*
X106181430Y-86343810D01*
X105705239Y-86439048D01*
X106562382Y-86724762D02*
X106657620Y-86772381D01*
X106848096Y-86772381D01*
X106943335Y-86724762D01*
X106990954Y-86629524D01*
X106990954Y-86581905D01*
X106943335Y-86486667D01*
X106848096Y-86439048D01*
X106705239Y-86439048D01*
X106610001Y-86391429D01*
X106562382Y-86296190D01*
X106562382Y-86248571D01*
X106610001Y-86153333D01*
X106705239Y-86105714D01*
X106848096Y-86105714D01*
X106943335Y-86153333D01*
X92276666Y-88672381D02*
X92276666Y-87672381D01*
X92752856Y-88672381D02*
X92752856Y-88005714D01*
X92752856Y-88100952D02*
X92800475Y-88053333D01*
X92895713Y-88005714D01*
X93038571Y-88005714D01*
X93133809Y-88053333D01*
X93181428Y-88148571D01*
X93181428Y-88672381D01*
X93181428Y-88148571D02*
X93229047Y-88053333D01*
X93324285Y-88005714D01*
X93467142Y-88005714D01*
X93562380Y-88053333D01*
X93609999Y-88148571D01*
X93609999Y-88672381D01*
X94086189Y-88005714D02*
X94086189Y-89005714D01*
X94086189Y-88053333D02*
X94181427Y-88005714D01*
X94371904Y-88005714D01*
X94467142Y-88053333D01*
X94514761Y-88100952D01*
X94562380Y-88196190D01*
X94562380Y-88481905D01*
X94514761Y-88577143D01*
X94467142Y-88624762D01*
X94371904Y-88672381D01*
X94181427Y-88672381D01*
X94086189Y-88624762D01*
X95371904Y-88624762D02*
X95276666Y-88672381D01*
X95086189Y-88672381D01*
X94990951Y-88624762D01*
X94943332Y-88529524D01*
X94943332Y-88148571D01*
X94990951Y-88053333D01*
X95086189Y-88005714D01*
X95276666Y-88005714D01*
X95371904Y-88053333D01*
X95419523Y-88148571D01*
X95419523Y-88243810D01*
X94943332Y-88339048D01*
X96276666Y-88672381D02*
X96276666Y-87672381D01*
X96276666Y-88624762D02*
X96181428Y-88672381D01*
X95990951Y-88672381D01*
X95895713Y-88624762D01*
X95848094Y-88577143D01*
X95800475Y-88481905D01*
X95800475Y-88196190D01*
X95848094Y-88100952D01*
X95895713Y-88053333D01*
X95990951Y-88005714D01*
X96181428Y-88005714D01*
X96276666Y-88053333D01*
X97133809Y-88624762D02*
X97038571Y-88672381D01*
X96848094Y-88672381D01*
X96752856Y-88624762D01*
X96705237Y-88529524D01*
X96705237Y-88148571D01*
X96752856Y-88053333D01*
X96848094Y-88005714D01*
X97038571Y-88005714D01*
X97133809Y-88053333D01*
X97181428Y-88148571D01*
X97181428Y-88243810D01*
X96705237Y-88339048D01*
X97609999Y-88005714D02*
X97609999Y-88672381D01*
X97609999Y-88100952D02*
X97657618Y-88053333D01*
X97752856Y-88005714D01*
X97895714Y-88005714D01*
X97990952Y-88053333D01*
X98038571Y-88148571D01*
X98038571Y-88672381D01*
X98943333Y-88624762D02*
X98848095Y-88672381D01*
X98657618Y-88672381D01*
X98562380Y-88624762D01*
X98514761Y-88577143D01*
X98467142Y-88481905D01*
X98467142Y-88196190D01*
X98514761Y-88100952D01*
X98562380Y-88053333D01*
X98657618Y-88005714D01*
X98848095Y-88005714D01*
X98943333Y-88053333D01*
X99752857Y-88624762D02*
X99657619Y-88672381D01*
X99467142Y-88672381D01*
X99371904Y-88624762D01*
X99324285Y-88529524D01*
X99324285Y-88148571D01*
X99371904Y-88053333D01*
X99467142Y-88005714D01*
X99657619Y-88005714D01*
X99752857Y-88053333D01*
X99800476Y-88148571D01*
X99800476Y-88243810D01*
X99324285Y-88339048D01*
X101562381Y-88577143D02*
X101514762Y-88624762D01*
X101371905Y-88672381D01*
X101276667Y-88672381D01*
X101133809Y-88624762D01*
X101038571Y-88529524D01*
X100990952Y-88434286D01*
X100943333Y-88243810D01*
X100943333Y-88100952D01*
X100990952Y-87910476D01*
X101038571Y-87815238D01*
X101133809Y-87720000D01*
X101276667Y-87672381D01*
X101371905Y-87672381D01*
X101514762Y-87720000D01*
X101562381Y-87767619D01*
X102133809Y-88672381D02*
X102038571Y-88624762D01*
X101990952Y-88577143D01*
X101943333Y-88481905D01*
X101943333Y-88196190D01*
X101990952Y-88100952D01*
X102038571Y-88053333D01*
X102133809Y-88005714D01*
X102276667Y-88005714D01*
X102371905Y-88053333D01*
X102419524Y-88100952D01*
X102467143Y-88196190D01*
X102467143Y-88481905D01*
X102419524Y-88577143D01*
X102371905Y-88624762D01*
X102276667Y-88672381D01*
X102133809Y-88672381D01*
X102895714Y-88005714D02*
X102895714Y-88672381D01*
X102895714Y-88100952D02*
X102943333Y-88053333D01*
X103038571Y-88005714D01*
X103181429Y-88005714D01*
X103276667Y-88053333D01*
X103324286Y-88148571D01*
X103324286Y-88672381D01*
X103657619Y-88005714D02*
X104038571Y-88005714D01*
X103800476Y-87672381D02*
X103800476Y-88529524D01*
X103848095Y-88624762D01*
X103943333Y-88672381D01*
X104038571Y-88672381D01*
X104371905Y-88672381D02*
X104371905Y-88005714D01*
X104371905Y-88196190D02*
X104419524Y-88100952D01*
X104467143Y-88053333D01*
X104562381Y-88005714D01*
X104657620Y-88005714D01*
X105133810Y-88672381D02*
X105038572Y-88624762D01*
X104990953Y-88577143D01*
X104943334Y-88481905D01*
X104943334Y-88196190D01*
X104990953Y-88100952D01*
X105038572Y-88053333D01*
X105133810Y-88005714D01*
X105276668Y-88005714D01*
X105371906Y-88053333D01*
X105419525Y-88100952D01*
X105467144Y-88196190D01*
X105467144Y-88481905D01*
X105419525Y-88577143D01*
X105371906Y-88624762D01*
X105276668Y-88672381D01*
X105133810Y-88672381D01*
X106038572Y-88672381D02*
X105943334Y-88624762D01*
X105895715Y-88529524D01*
X105895715Y-87672381D01*
X92848095Y-90477143D02*
X92800476Y-90524762D01*
X92657619Y-90572381D01*
X92562381Y-90572381D01*
X92419523Y-90524762D01*
X92324285Y-90429524D01*
X92276666Y-90334286D01*
X92229047Y-90143810D01*
X92229047Y-90000952D01*
X92276666Y-89810476D01*
X92324285Y-89715238D01*
X92419523Y-89620000D01*
X92562381Y-89572381D01*
X92657619Y-89572381D01*
X92800476Y-89620000D01*
X92848095Y-89667619D01*
X93419523Y-90572381D02*
X93324285Y-90524762D01*
X93276666Y-90477143D01*
X93229047Y-90381905D01*
X93229047Y-90096190D01*
X93276666Y-90000952D01*
X93324285Y-89953333D01*
X93419523Y-89905714D01*
X93562381Y-89905714D01*
X93657619Y-89953333D01*
X93705238Y-90000952D01*
X93752857Y-90096190D01*
X93752857Y-90381905D01*
X93705238Y-90477143D01*
X93657619Y-90524762D01*
X93562381Y-90572381D01*
X93419523Y-90572381D01*
X94181428Y-89905714D02*
X94181428Y-90905714D01*
X94181428Y-89953333D02*
X94276666Y-89905714D01*
X94467143Y-89905714D01*
X94562381Y-89953333D01*
X94610000Y-90000952D01*
X94657619Y-90096190D01*
X94657619Y-90381905D01*
X94610000Y-90477143D01*
X94562381Y-90524762D01*
X94467143Y-90572381D01*
X94276666Y-90572381D01*
X94181428Y-90524762D01*
X95086190Y-89905714D02*
X95086190Y-90905714D01*
X95086190Y-89953333D02*
X95181428Y-89905714D01*
X95371905Y-89905714D01*
X95467143Y-89953333D01*
X95514762Y-90000952D01*
X95562381Y-90096190D01*
X95562381Y-90381905D01*
X95514762Y-90477143D01*
X95467143Y-90524762D01*
X95371905Y-90572381D01*
X95181428Y-90572381D01*
X95086190Y-90524762D01*
X96371905Y-90524762D02*
X96276667Y-90572381D01*
X96086190Y-90572381D01*
X95990952Y-90524762D01*
X95943333Y-90429524D01*
X95943333Y-90048571D01*
X95990952Y-89953333D01*
X96086190Y-89905714D01*
X96276667Y-89905714D01*
X96371905Y-89953333D01*
X96419524Y-90048571D01*
X96419524Y-90143810D01*
X95943333Y-90239048D01*
X96848095Y-90572381D02*
X96848095Y-89905714D01*
X96848095Y-90096190D02*
X96895714Y-90000952D01*
X96943333Y-89953333D01*
X97038571Y-89905714D01*
X97133810Y-89905714D01*
X98086191Y-89572381D02*
X98657620Y-89572381D01*
X98371905Y-90572381D02*
X98371905Y-89572381D01*
X98990953Y-90572381D02*
X98990953Y-89572381D01*
X99419525Y-90572381D02*
X99419525Y-90048571D01*
X99371906Y-89953333D01*
X99276668Y-89905714D01*
X99133810Y-89905714D01*
X99038572Y-89953333D01*
X98990953Y-90000952D01*
X99895715Y-90572381D02*
X99895715Y-89905714D01*
X99895715Y-89572381D02*
X99848096Y-89620000D01*
X99895715Y-89667619D01*
X99943334Y-89620000D01*
X99895715Y-89572381D01*
X99895715Y-89667619D01*
X100800477Y-90524762D02*
X100705239Y-90572381D01*
X100514762Y-90572381D01*
X100419524Y-90524762D01*
X100371905Y-90477143D01*
X100324286Y-90381905D01*
X100324286Y-90096190D01*
X100371905Y-90000952D01*
X100419524Y-89953333D01*
X100514762Y-89905714D01*
X100705239Y-89905714D01*
X100800477Y-89953333D01*
X101229048Y-90572381D02*
X101229048Y-89572381D01*
X101324286Y-90191429D02*
X101610001Y-90572381D01*
X101610001Y-89905714D02*
X101229048Y-90286667D01*
X102038572Y-89905714D02*
X102038572Y-90572381D01*
X102038572Y-90000952D02*
X102086191Y-89953333D01*
X102181429Y-89905714D01*
X102324287Y-89905714D01*
X102419525Y-89953333D01*
X102467144Y-90048571D01*
X102467144Y-90572381D01*
X103324287Y-90524762D02*
X103229049Y-90572381D01*
X103038572Y-90572381D01*
X102943334Y-90524762D01*
X102895715Y-90429524D01*
X102895715Y-90048571D01*
X102943334Y-89953333D01*
X103038572Y-89905714D01*
X103229049Y-89905714D01*
X103324287Y-89953333D01*
X103371906Y-90048571D01*
X103371906Y-90143810D01*
X102895715Y-90239048D01*
X103752858Y-90524762D02*
X103848096Y-90572381D01*
X104038572Y-90572381D01*
X104133811Y-90524762D01*
X104181430Y-90429524D01*
X104181430Y-90381905D01*
X104133811Y-90286667D01*
X104038572Y-90239048D01*
X103895715Y-90239048D01*
X103800477Y-90191429D01*
X103752858Y-90096190D01*
X103752858Y-90048571D01*
X103800477Y-89953333D01*
X103895715Y-89905714D01*
X104038572Y-89905714D01*
X104133811Y-89953333D01*
X104562382Y-90524762D02*
X104657620Y-90572381D01*
X104848096Y-90572381D01*
X104943335Y-90524762D01*
X104990954Y-90429524D01*
X104990954Y-90381905D01*
X104943335Y-90286667D01*
X104848096Y-90239048D01*
X104705239Y-90239048D01*
X104610001Y-90191429D01*
X104562382Y-90096190D01*
X104562382Y-90048571D01*
X104610001Y-89953333D01*
X104705239Y-89905714D01*
X104848096Y-89905714D01*
X104943335Y-89953333D01*
X92667144Y-92248571D02*
X92333810Y-92248571D01*
X92333810Y-92772381D02*
X92333810Y-91772381D01*
X92810001Y-91772381D01*
X93190953Y-92772381D02*
X93190953Y-92105714D01*
X93190953Y-91772381D02*
X93143334Y-91820000D01*
X93190953Y-91867619D01*
X93238572Y-91820000D01*
X93190953Y-91772381D01*
X93190953Y-91867619D01*
X93667143Y-92105714D02*
X93667143Y-92772381D01*
X93667143Y-92200952D02*
X93714762Y-92153333D01*
X93810000Y-92105714D01*
X93952858Y-92105714D01*
X94048096Y-92153333D01*
X94095715Y-92248571D01*
X94095715Y-92772381D01*
X94571905Y-92772381D02*
X94571905Y-92105714D01*
X94571905Y-91772381D02*
X94524286Y-91820000D01*
X94571905Y-91867619D01*
X94619524Y-91820000D01*
X94571905Y-91772381D01*
X94571905Y-91867619D01*
X95000476Y-92724762D02*
X95095714Y-92772381D01*
X95286190Y-92772381D01*
X95381429Y-92724762D01*
X95429048Y-92629524D01*
X95429048Y-92581905D01*
X95381429Y-92486667D01*
X95286190Y-92439048D01*
X95143333Y-92439048D01*
X95048095Y-92391429D01*
X95000476Y-92296190D01*
X95000476Y-92248571D01*
X95048095Y-92153333D01*
X95143333Y-92105714D01*
X95286190Y-92105714D01*
X95381429Y-92153333D01*
X95857619Y-92772381D02*
X95857619Y-91772381D01*
X96286191Y-92772381D02*
X96286191Y-92248571D01*
X96238572Y-92153333D01*
X96143334Y-92105714D01*
X96000476Y-92105714D01*
X95905238Y-92153333D01*
X95857619Y-92200952D01*
X92600477Y-94148571D02*
X92743334Y-94196190D01*
X92790953Y-94243810D01*
X92838572Y-94339048D01*
X92838572Y-94481905D01*
X92790953Y-94577143D01*
X92743334Y-94624762D01*
X92648096Y-94672381D01*
X92267143Y-94672381D01*
X92267143Y-93672381D01*
X92600477Y-93672381D01*
X92695715Y-93720000D01*
X92743334Y-93767619D01*
X92790953Y-93862857D01*
X92790953Y-93958095D01*
X92743334Y-94053333D01*
X92695715Y-94100952D01*
X92600477Y-94148571D01*
X92267143Y-94148571D01*
X93600477Y-94148571D02*
X93743334Y-94196190D01*
X93790953Y-94243810D01*
X93838572Y-94339048D01*
X93838572Y-94481905D01*
X93790953Y-94577143D01*
X93743334Y-94624762D01*
X93648096Y-94672381D01*
X93267143Y-94672381D01*
X93267143Y-93672381D01*
X93600477Y-93672381D01*
X93695715Y-93720000D01*
X93743334Y-93767619D01*
X93790953Y-93862857D01*
X93790953Y-93958095D01*
X93743334Y-94053333D01*
X93695715Y-94100952D01*
X93600477Y-94148571D01*
X93267143Y-94148571D01*
X94124286Y-93672381D02*
X94695715Y-93672381D01*
X94410000Y-94672381D02*
X94410000Y-93672381D01*
X92671905Y-96248571D02*
X92338571Y-96248571D01*
X92338571Y-96772381D02*
X92338571Y-95772381D01*
X92814762Y-95772381D01*
X93529048Y-96248571D02*
X93671905Y-96296190D01*
X93719524Y-96343810D01*
X93767143Y-96439048D01*
X93767143Y-96581905D01*
X93719524Y-96677143D01*
X93671905Y-96724762D01*
X93576667Y-96772381D01*
X93195714Y-96772381D01*
X93195714Y-95772381D01*
X93529048Y-95772381D01*
X93624286Y-95820000D01*
X93671905Y-95867619D01*
X93719524Y-95962857D01*
X93719524Y-96058095D01*
X93671905Y-96153333D01*
X93624286Y-96200952D01*
X93529048Y-96248571D01*
X93195714Y-96248571D01*
X94052857Y-95772381D02*
X94624286Y-95772381D01*
X94338571Y-96772381D02*
X94338571Y-95772381D01*
X92148094Y-98424762D02*
X92290951Y-98472381D01*
X92529047Y-98472381D01*
X92624285Y-98424762D01*
X92671904Y-98377143D01*
X92719523Y-98281905D01*
X92719523Y-98186667D01*
X92671904Y-98091429D01*
X92624285Y-98043810D01*
X92529047Y-97996190D01*
X92338570Y-97948571D01*
X92243332Y-97900952D01*
X92195713Y-97853333D01*
X92148094Y-97758095D01*
X92148094Y-97662857D01*
X92195713Y-97567619D01*
X92243332Y-97520000D01*
X92338570Y-97472381D01*
X92576666Y-97472381D01*
X92719523Y-97520000D01*
X93290951Y-98472381D02*
X93195713Y-98424762D01*
X93148094Y-98377143D01*
X93100475Y-98281905D01*
X93100475Y-97996190D01*
X93148094Y-97900952D01*
X93195713Y-97853333D01*
X93290951Y-97805714D01*
X93433809Y-97805714D01*
X93529047Y-97853333D01*
X93576666Y-97900952D01*
X93624285Y-97996190D01*
X93624285Y-98281905D01*
X93576666Y-98377143D01*
X93529047Y-98424762D01*
X93433809Y-98472381D01*
X93290951Y-98472381D01*
X94195713Y-98472381D02*
X94100475Y-98424762D01*
X94052856Y-98329524D01*
X94052856Y-97472381D01*
X95005238Y-98472381D02*
X95005238Y-97472381D01*
X95005238Y-98424762D02*
X94910000Y-98472381D01*
X94719523Y-98472381D01*
X94624285Y-98424762D01*
X94576666Y-98377143D01*
X94529047Y-98281905D01*
X94529047Y-97996190D01*
X94576666Y-97900952D01*
X94624285Y-97853333D01*
X94719523Y-97805714D01*
X94910000Y-97805714D01*
X95005238Y-97853333D01*
X95862381Y-98424762D02*
X95767143Y-98472381D01*
X95576666Y-98472381D01*
X95481428Y-98424762D01*
X95433809Y-98329524D01*
X95433809Y-97948571D01*
X95481428Y-97853333D01*
X95576666Y-97805714D01*
X95767143Y-97805714D01*
X95862381Y-97853333D01*
X95910000Y-97948571D01*
X95910000Y-98043810D01*
X95433809Y-98139048D01*
X96338571Y-98472381D02*
X96338571Y-97805714D01*
X96338571Y-97996190D02*
X96386190Y-97900952D01*
X96433809Y-97853333D01*
X96529047Y-97805714D01*
X96624286Y-97805714D01*
X97719524Y-98472381D02*
X97719524Y-97472381D01*
X98052858Y-98186667D01*
X98386191Y-97472381D01*
X98386191Y-98472381D01*
X99290953Y-98472381D02*
X99290953Y-97948571D01*
X99243334Y-97853333D01*
X99148096Y-97805714D01*
X98957619Y-97805714D01*
X98862381Y-97853333D01*
X99290953Y-98424762D02*
X99195715Y-98472381D01*
X98957619Y-98472381D01*
X98862381Y-98424762D01*
X98814762Y-98329524D01*
X98814762Y-98234286D01*
X98862381Y-98139048D01*
X98957619Y-98091429D01*
X99195715Y-98091429D01*
X99290953Y-98043810D01*
X99719524Y-98424762D02*
X99814762Y-98472381D01*
X100005238Y-98472381D01*
X100100477Y-98424762D01*
X100148096Y-98329524D01*
X100148096Y-98281905D01*
X100100477Y-98186667D01*
X100005238Y-98139048D01*
X99862381Y-98139048D01*
X99767143Y-98091429D01*
X99719524Y-97996190D01*
X99719524Y-97948571D01*
X99767143Y-97853333D01*
X99862381Y-97805714D01*
X100005238Y-97805714D01*
X100100477Y-97853333D01*
X100576667Y-98472381D02*
X100576667Y-97472381D01*
X100671905Y-98091429D02*
X100957620Y-98472381D01*
X100957620Y-97805714D02*
X100576667Y-98186667D01*
X102719525Y-98377143D02*
X102671906Y-98424762D01*
X102529049Y-98472381D01*
X102433811Y-98472381D01*
X102290953Y-98424762D01*
X102195715Y-98329524D01*
X102148096Y-98234286D01*
X102100477Y-98043810D01*
X102100477Y-97900952D01*
X102148096Y-97710476D01*
X102195715Y-97615238D01*
X102290953Y-97520000D01*
X102433811Y-97472381D01*
X102529049Y-97472381D01*
X102671906Y-97520000D01*
X102719525Y-97567619D01*
X103290953Y-98472381D02*
X103195715Y-98424762D01*
X103148096Y-98377143D01*
X103100477Y-98281905D01*
X103100477Y-97996190D01*
X103148096Y-97900952D01*
X103195715Y-97853333D01*
X103290953Y-97805714D01*
X103433811Y-97805714D01*
X103529049Y-97853333D01*
X103576668Y-97900952D01*
X103624287Y-97996190D01*
X103624287Y-98281905D01*
X103576668Y-98377143D01*
X103529049Y-98424762D01*
X103433811Y-98472381D01*
X103290953Y-98472381D01*
X104195715Y-98472381D02*
X104100477Y-98424762D01*
X104052858Y-98329524D01*
X104052858Y-97472381D01*
X104719525Y-98472381D02*
X104624287Y-98424762D01*
X104576668Y-98377143D01*
X104529049Y-98281905D01*
X104529049Y-97996190D01*
X104576668Y-97900952D01*
X104624287Y-97853333D01*
X104719525Y-97805714D01*
X104862383Y-97805714D01*
X104957621Y-97853333D01*
X105005240Y-97900952D01*
X105052859Y-97996190D01*
X105052859Y-98281905D01*
X105005240Y-98377143D01*
X104957621Y-98424762D01*
X104862383Y-98472381D01*
X104719525Y-98472381D01*
X105481430Y-98472381D02*
X105481430Y-97805714D01*
X105481430Y-97996190D02*
X105529049Y-97900952D01*
X105576668Y-97853333D01*
X105671906Y-97805714D01*
X105767145Y-97805714D01*
X112322380Y-61677619D02*
X112369999Y-61630000D01*
X112465237Y-61582381D01*
X112703333Y-61582381D01*
X112798571Y-61630000D01*
X112846190Y-61677619D01*
X112893809Y-61772857D01*
X112893809Y-61868095D01*
X112846190Y-62010952D01*
X112274761Y-62582381D01*
X112893809Y-62582381D01*
X114560476Y-62582381D02*
X114084285Y-62582381D01*
X114084285Y-61582381D01*
X115322381Y-62582381D02*
X115322381Y-62058571D01*
X115274762Y-61963333D01*
X115179524Y-61915714D01*
X114989047Y-61915714D01*
X114893809Y-61963333D01*
X115322381Y-62534762D02*
X115227143Y-62582381D01*
X114989047Y-62582381D01*
X114893809Y-62534762D01*
X114846190Y-62439524D01*
X114846190Y-62344286D01*
X114893809Y-62249048D01*
X114989047Y-62201429D01*
X115227143Y-62201429D01*
X115322381Y-62153810D01*
X115703333Y-61915714D02*
X115941428Y-62582381D01*
X116179524Y-61915714D02*
X115941428Y-62582381D01*
X115846190Y-62820476D01*
X115798571Y-62868095D01*
X115703333Y-62915714D01*
X116941429Y-62534762D02*
X116846191Y-62582381D01*
X116655714Y-62582381D01*
X116560476Y-62534762D01*
X116512857Y-62439524D01*
X116512857Y-62058571D01*
X116560476Y-61963333D01*
X116655714Y-61915714D01*
X116846191Y-61915714D01*
X116941429Y-61963333D01*
X116989048Y-62058571D01*
X116989048Y-62153810D01*
X116512857Y-62249048D01*
X117417619Y-62582381D02*
X117417619Y-61915714D01*
X117417619Y-62106190D02*
X117465238Y-62010952D01*
X117512857Y-61963333D01*
X117608095Y-61915714D01*
X117703334Y-61915714D01*
X117989048Y-62534762D02*
X118084286Y-62582381D01*
X118274762Y-62582381D01*
X118370001Y-62534762D01*
X118417620Y-62439524D01*
X118417620Y-62391905D01*
X118370001Y-62296667D01*
X118274762Y-62249048D01*
X118131905Y-62249048D01*
X118036667Y-62201429D01*
X117989048Y-62106190D01*
X117989048Y-62058571D01*
X118036667Y-61963333D01*
X118131905Y-61915714D01*
X118274762Y-61915714D01*
X118370001Y-61963333D01*
X112762381Y-64100952D02*
X112667143Y-64053333D01*
X112619524Y-64005714D01*
X112571905Y-63910476D01*
X112571905Y-63862857D01*
X112619524Y-63767619D01*
X112667143Y-63720000D01*
X112762381Y-63672381D01*
X112952858Y-63672381D01*
X113048096Y-63720000D01*
X113095715Y-63767619D01*
X113143334Y-63862857D01*
X113143334Y-63910476D01*
X113095715Y-64005714D01*
X113048096Y-64053333D01*
X112952858Y-64100952D01*
X112762381Y-64100952D01*
X112667143Y-64148571D01*
X112619524Y-64196190D01*
X112571905Y-64291429D01*
X112571905Y-64481905D01*
X112619524Y-64577143D01*
X112667143Y-64624762D01*
X112762381Y-64672381D01*
X112952858Y-64672381D01*
X113048096Y-64624762D01*
X113095715Y-64577143D01*
X113143334Y-64481905D01*
X113143334Y-64291429D01*
X113095715Y-64196190D01*
X113048096Y-64148571D01*
X112952858Y-64100952D01*
X114333810Y-64672381D02*
X114333810Y-64005714D01*
X114333810Y-64100952D02*
X114381429Y-64053333D01*
X114476667Y-64005714D01*
X114619525Y-64005714D01*
X114714763Y-64053333D01*
X114762382Y-64148571D01*
X114762382Y-64672381D01*
X114762382Y-64148571D02*
X114810001Y-64053333D01*
X114905239Y-64005714D01*
X115048096Y-64005714D01*
X115143334Y-64053333D01*
X115190953Y-64148571D01*
X115190953Y-64672381D01*
X115667143Y-64672381D02*
X115667143Y-64005714D01*
X115667143Y-63672381D02*
X115619524Y-63720000D01*
X115667143Y-63767619D01*
X115714762Y-63720000D01*
X115667143Y-63672381D01*
X115667143Y-63767619D01*
X116286190Y-64672381D02*
X116190952Y-64624762D01*
X116143333Y-64529524D01*
X116143333Y-63672381D01*
X116619524Y-64624762D02*
X116714762Y-64672381D01*
X116905238Y-64672381D01*
X117000477Y-64624762D01*
X117048096Y-64529524D01*
X117048096Y-64481905D01*
X117000477Y-64386667D01*
X116905238Y-64339048D01*
X116762381Y-64339048D01*
X116667143Y-64291429D01*
X116619524Y-64196190D01*
X116619524Y-64148571D01*
X116667143Y-64053333D01*
X116762381Y-64005714D01*
X116905238Y-64005714D01*
X117000477Y-64053333D01*
X112762381Y-66100952D02*
X112667143Y-66053333D01*
X112619524Y-66005714D01*
X112571905Y-65910476D01*
X112571905Y-65862857D01*
X112619524Y-65767619D01*
X112667143Y-65720000D01*
X112762381Y-65672381D01*
X112952858Y-65672381D01*
X113048096Y-65720000D01*
X113095715Y-65767619D01*
X113143334Y-65862857D01*
X113143334Y-65910476D01*
X113095715Y-66005714D01*
X113048096Y-66053333D01*
X112952858Y-66100952D01*
X112762381Y-66100952D01*
X112667143Y-66148571D01*
X112619524Y-66196190D01*
X112571905Y-66291429D01*
X112571905Y-66481905D01*
X112619524Y-66577143D01*
X112667143Y-66624762D01*
X112762381Y-66672381D01*
X112952858Y-66672381D01*
X113048096Y-66624762D01*
X113095715Y-66577143D01*
X113143334Y-66481905D01*
X113143334Y-66291429D01*
X113095715Y-66196190D01*
X113048096Y-66148571D01*
X112952858Y-66100952D01*
X114333810Y-66672381D02*
X114333810Y-66005714D01*
X114333810Y-66100952D02*
X114381429Y-66053333D01*
X114476667Y-66005714D01*
X114619525Y-66005714D01*
X114714763Y-66053333D01*
X114762382Y-66148571D01*
X114762382Y-66672381D01*
X114762382Y-66148571D02*
X114810001Y-66053333D01*
X114905239Y-66005714D01*
X115048096Y-66005714D01*
X115143334Y-66053333D01*
X115190953Y-66148571D01*
X115190953Y-66672381D01*
X115667143Y-66672381D02*
X115667143Y-66005714D01*
X115667143Y-65672381D02*
X115619524Y-65720000D01*
X115667143Y-65767619D01*
X115714762Y-65720000D01*
X115667143Y-65672381D01*
X115667143Y-65767619D01*
X116286190Y-66672381D02*
X116190952Y-66624762D01*
X116143333Y-66529524D01*
X116143333Y-65672381D01*
X116619524Y-66624762D02*
X116714762Y-66672381D01*
X116905238Y-66672381D01*
X117000477Y-66624762D01*
X117048096Y-66529524D01*
X117048096Y-66481905D01*
X117000477Y-66386667D01*
X116905238Y-66339048D01*
X116762381Y-66339048D01*
X116667143Y-66291429D01*
X116619524Y-66196190D01*
X116619524Y-66148571D01*
X116667143Y-66053333D01*
X116762381Y-66005714D01*
X116905238Y-66005714D01*
X117000477Y-66053333D01*
X113071905Y-68672381D02*
X113071905Y-67672381D01*
X113643334Y-68672381D01*
X113643334Y-67672381D01*
X114262381Y-68672381D02*
X114167143Y-68624762D01*
X114119524Y-68577143D01*
X114071905Y-68481905D01*
X114071905Y-68196190D01*
X114119524Y-68100952D01*
X114167143Y-68053333D01*
X114262381Y-68005714D01*
X114405239Y-68005714D01*
X114500477Y-68053333D01*
X114548096Y-68100952D01*
X114595715Y-68196190D01*
X114595715Y-68481905D01*
X114548096Y-68577143D01*
X114500477Y-68624762D01*
X114405239Y-68672381D01*
X114262381Y-68672381D01*
X112976666Y-70196190D02*
X112976666Y-70672381D01*
X112643333Y-69672381D02*
X112976666Y-70196190D01*
X113310000Y-69672381D01*
X114024286Y-70624762D02*
X113929048Y-70672381D01*
X113738571Y-70672381D01*
X113643333Y-70624762D01*
X113595714Y-70529524D01*
X113595714Y-70148571D01*
X113643333Y-70053333D01*
X113738571Y-70005714D01*
X113929048Y-70005714D01*
X114024286Y-70053333D01*
X114071905Y-70148571D01*
X114071905Y-70243810D01*
X113595714Y-70339048D01*
X114452857Y-70624762D02*
X114548095Y-70672381D01*
X114738571Y-70672381D01*
X114833810Y-70624762D01*
X114881429Y-70529524D01*
X114881429Y-70481905D01*
X114833810Y-70386667D01*
X114738571Y-70339048D01*
X114595714Y-70339048D01*
X114500476Y-70291429D01*
X114452857Y-70196190D01*
X114452857Y-70148571D01*
X114500476Y-70053333D01*
X114595714Y-70005714D01*
X114738571Y-70005714D01*
X114833810Y-70053333D01*
X112976666Y-72196190D02*
X112976666Y-72672381D01*
X112643333Y-71672381D02*
X112976666Y-72196190D01*
X113310000Y-71672381D01*
X114024286Y-72624762D02*
X113929048Y-72672381D01*
X113738571Y-72672381D01*
X113643333Y-72624762D01*
X113595714Y-72529524D01*
X113595714Y-72148571D01*
X113643333Y-72053333D01*
X113738571Y-72005714D01*
X113929048Y-72005714D01*
X114024286Y-72053333D01*
X114071905Y-72148571D01*
X114071905Y-72243810D01*
X113595714Y-72339048D01*
X114452857Y-72624762D02*
X114548095Y-72672381D01*
X114738571Y-72672381D01*
X114833810Y-72624762D01*
X114881429Y-72529524D01*
X114881429Y-72481905D01*
X114833810Y-72386667D01*
X114738571Y-72339048D01*
X114595714Y-72339048D01*
X114500476Y-72291429D01*
X114452857Y-72196190D01*
X114452857Y-72148571D01*
X114500476Y-72053333D01*
X114595714Y-72005714D01*
X114738571Y-72005714D01*
X114833810Y-72053333D01*
X113071905Y-74672381D02*
X113071905Y-73672381D01*
X113643334Y-74672381D01*
X113643334Y-73672381D01*
X114262381Y-74672381D02*
X114167143Y-74624762D01*
X114119524Y-74577143D01*
X114071905Y-74481905D01*
X114071905Y-74196190D01*
X114119524Y-74100952D01*
X114167143Y-74053333D01*
X114262381Y-74005714D01*
X114405239Y-74005714D01*
X114500477Y-74053333D01*
X114548096Y-74100952D01*
X114595715Y-74196190D01*
X114595715Y-74481905D01*
X114548096Y-74577143D01*
X114500477Y-74624762D01*
X114405239Y-74672381D01*
X114262381Y-74672381D01*
X113048096Y-75672381D02*
X112857619Y-75672381D01*
X112762381Y-75720000D01*
X112714762Y-75767619D01*
X112619524Y-75910476D01*
X112571905Y-76100952D01*
X112571905Y-76481905D01*
X112619524Y-76577143D01*
X112667143Y-76624762D01*
X112762381Y-76672381D01*
X112952858Y-76672381D01*
X113048096Y-76624762D01*
X113095715Y-76577143D01*
X113143334Y-76481905D01*
X113143334Y-76243810D01*
X113095715Y-76148571D01*
X113048096Y-76100952D01*
X112952858Y-76053333D01*
X112762381Y-76053333D01*
X112667143Y-76100952D01*
X112619524Y-76148571D01*
X112571905Y-76243810D01*
X114333810Y-76672381D02*
X114333810Y-76005714D01*
X114333810Y-76100952D02*
X114381429Y-76053333D01*
X114476667Y-76005714D01*
X114619525Y-76005714D01*
X114714763Y-76053333D01*
X114762382Y-76148571D01*
X114762382Y-76672381D01*
X114762382Y-76148571D02*
X114810001Y-76053333D01*
X114905239Y-76005714D01*
X115048096Y-76005714D01*
X115143334Y-76053333D01*
X115190953Y-76148571D01*
X115190953Y-76672381D01*
X115667143Y-76672381D02*
X115667143Y-76005714D01*
X115667143Y-75672381D02*
X115619524Y-75720000D01*
X115667143Y-75767619D01*
X115714762Y-75720000D01*
X115667143Y-75672381D01*
X115667143Y-75767619D01*
X116286190Y-76672381D02*
X116190952Y-76624762D01*
X116143333Y-76529524D01*
X116143333Y-75672381D01*
X116619524Y-76624762D02*
X116714762Y-76672381D01*
X116905238Y-76672381D01*
X117000477Y-76624762D01*
X117048096Y-76529524D01*
X117048096Y-76481905D01*
X117000477Y-76386667D01*
X116905238Y-76339048D01*
X116762381Y-76339048D01*
X116667143Y-76291429D01*
X116619524Y-76196190D01*
X116619524Y-76148571D01*
X116667143Y-76053333D01*
X116762381Y-76005714D01*
X116905238Y-76005714D01*
X117000477Y-76053333D01*
X113071905Y-78672381D02*
X113071905Y-77672381D01*
X113643334Y-78672381D01*
X113643334Y-77672381D01*
X114262381Y-78672381D02*
X114167143Y-78624762D01*
X114119524Y-78577143D01*
X114071905Y-78481905D01*
X114071905Y-78196190D01*
X114119524Y-78100952D01*
X114167143Y-78053333D01*
X114262381Y-78005714D01*
X114405239Y-78005714D01*
X114500477Y-78053333D01*
X114548096Y-78100952D01*
X114595715Y-78196190D01*
X114595715Y-78481905D01*
X114548096Y-78577143D01*
X114500477Y-78624762D01*
X114405239Y-78672381D01*
X114262381Y-78672381D01*
X112667144Y-80672381D02*
X112095715Y-80672381D01*
X112381429Y-80672381D02*
X112381429Y-79672381D01*
X112286191Y-79815238D01*
X112190953Y-79910476D01*
X112095715Y-79958095D01*
X113095715Y-80577143D02*
X113143334Y-80624762D01*
X113095715Y-80672381D01*
X113048096Y-80624762D01*
X113095715Y-80577143D01*
X113095715Y-80672381D01*
X114000477Y-79672381D02*
X113810000Y-79672381D01*
X113714762Y-79720000D01*
X113667143Y-79767619D01*
X113571905Y-79910476D01*
X113524286Y-80100952D01*
X113524286Y-80481905D01*
X113571905Y-80577143D01*
X113619524Y-80624762D01*
X113714762Y-80672381D01*
X113905239Y-80672381D01*
X114000477Y-80624762D01*
X114048096Y-80577143D01*
X114095715Y-80481905D01*
X114095715Y-80243810D01*
X114048096Y-80148571D01*
X114000477Y-80100952D01*
X113905239Y-80053333D01*
X113714762Y-80053333D01*
X113619524Y-80100952D01*
X113571905Y-80148571D01*
X113524286Y-80243810D01*
X115286191Y-80672381D02*
X115286191Y-80005714D01*
X115286191Y-80100952D02*
X115333810Y-80053333D01*
X115429048Y-80005714D01*
X115571906Y-80005714D01*
X115667144Y-80053333D01*
X115714763Y-80148571D01*
X115714763Y-80672381D01*
X115714763Y-80148571D02*
X115762382Y-80053333D01*
X115857620Y-80005714D01*
X116000477Y-80005714D01*
X116095715Y-80053333D01*
X116143334Y-80148571D01*
X116143334Y-80672381D01*
X116619524Y-80672381D02*
X116619524Y-80005714D01*
X116619524Y-80100952D02*
X116667143Y-80053333D01*
X116762381Y-80005714D01*
X116905239Y-80005714D01*
X117000477Y-80053333D01*
X117048096Y-80148571D01*
X117048096Y-80672381D01*
X117048096Y-80148571D02*
X117095715Y-80053333D01*
X117190953Y-80005714D01*
X117333810Y-80005714D01*
X117429048Y-80053333D01*
X117476667Y-80148571D01*
X117476667Y-80672381D01*
X112976667Y-82148571D02*
X112643333Y-82148571D01*
X112643333Y-82672381D02*
X112643333Y-81672381D01*
X113119524Y-81672381D01*
X114071905Y-82672381D02*
X113738571Y-82196190D01*
X113500476Y-82672381D02*
X113500476Y-81672381D01*
X113881429Y-81672381D01*
X113976667Y-81720000D01*
X114024286Y-81767619D01*
X114071905Y-81862857D01*
X114071905Y-82005714D01*
X114024286Y-82100952D01*
X113976667Y-82148571D01*
X113881429Y-82196190D01*
X113500476Y-82196190D01*
X114929048Y-82005714D02*
X114929048Y-82672381D01*
X114690952Y-81624762D02*
X114452857Y-82339048D01*
X115071905Y-82339048D01*
X112446189Y-84682381D02*
X112446189Y-83682381D01*
X113017618Y-84682381D01*
X113017618Y-83682381D01*
X113636665Y-84682381D02*
X113541427Y-84634762D01*
X113493808Y-84587143D01*
X113446189Y-84491905D01*
X113446189Y-84206190D01*
X113493808Y-84110952D01*
X113541427Y-84063333D01*
X113636665Y-84015714D01*
X113779523Y-84015714D01*
X113874761Y-84063333D01*
X113922380Y-84110952D01*
X113969999Y-84206190D01*
X113969999Y-84491905D01*
X113922380Y-84587143D01*
X113874761Y-84634762D01*
X113779523Y-84682381D01*
X113636665Y-84682381D01*
X114684285Y-85063333D02*
X114636665Y-85015714D01*
X114541427Y-84872857D01*
X114493808Y-84777619D01*
X114446189Y-84634762D01*
X114398570Y-84396667D01*
X114398570Y-84206190D01*
X114446189Y-83968095D01*
X114493808Y-83825238D01*
X114541427Y-83730000D01*
X114636665Y-83587143D01*
X114684285Y-83539524D01*
X114922380Y-84015714D02*
X115303332Y-84015714D01*
X115065237Y-83682381D02*
X115065237Y-84539524D01*
X115112856Y-84634762D01*
X115208094Y-84682381D01*
X115303332Y-84682381D01*
X115779523Y-84682381D02*
X115684285Y-84634762D01*
X115636666Y-84587143D01*
X115589047Y-84491905D01*
X115589047Y-84206190D01*
X115636666Y-84110952D01*
X115684285Y-84063333D01*
X115779523Y-84015714D01*
X115922381Y-84015714D01*
X116017619Y-84063333D01*
X116065238Y-84110952D01*
X116112857Y-84206190D01*
X116112857Y-84491905D01*
X116065238Y-84587143D01*
X116017619Y-84634762D01*
X115922381Y-84682381D01*
X115779523Y-84682381D01*
X116541428Y-84015714D02*
X116541428Y-85015714D01*
X116541428Y-84063333D02*
X116636666Y-84015714D01*
X116827143Y-84015714D01*
X116922381Y-84063333D01*
X116970000Y-84110952D01*
X117017619Y-84206190D01*
X117017619Y-84491905D01*
X116970000Y-84587143D01*
X116922381Y-84634762D01*
X116827143Y-84682381D01*
X116636666Y-84682381D01*
X116541428Y-84634762D01*
X118350952Y-84682381D02*
X118255714Y-84634762D01*
X118208095Y-84587143D01*
X118160476Y-84491905D01*
X118160476Y-84206190D01*
X118208095Y-84110952D01*
X118255714Y-84063333D01*
X118350952Y-84015714D01*
X118493810Y-84015714D01*
X118589048Y-84063333D01*
X118636667Y-84110952D01*
X118684286Y-84206190D01*
X118684286Y-84491905D01*
X118636667Y-84587143D01*
X118589048Y-84634762D01*
X118493810Y-84682381D01*
X118350952Y-84682381D01*
X119112857Y-84015714D02*
X119112857Y-84682381D01*
X119112857Y-84110952D02*
X119160476Y-84063333D01*
X119255714Y-84015714D01*
X119398572Y-84015714D01*
X119493810Y-84063333D01*
X119541429Y-84158571D01*
X119541429Y-84682381D01*
X120160476Y-84682381D02*
X120065238Y-84634762D01*
X120017619Y-84539524D01*
X120017619Y-83682381D01*
X120446191Y-84015714D02*
X120684286Y-84682381D01*
X120922382Y-84015714D02*
X120684286Y-84682381D01*
X120589048Y-84920476D01*
X120541429Y-84968095D01*
X120446191Y-85015714D01*
X121208096Y-85063333D02*
X121255715Y-85015714D01*
X121350953Y-84872857D01*
X121398572Y-84777619D01*
X121446191Y-84634762D01*
X121493810Y-84396667D01*
X121493810Y-84206190D01*
X121446191Y-83968095D01*
X121398572Y-83825238D01*
X121350953Y-83730000D01*
X121255715Y-83587143D01*
X121208096Y-83539524D01*
X112976666Y-86196190D02*
X112976666Y-86672381D01*
X112643333Y-85672381D02*
X112976666Y-86196190D01*
X113310000Y-85672381D01*
X114024286Y-86624762D02*
X113929048Y-86672381D01*
X113738571Y-86672381D01*
X113643333Y-86624762D01*
X113595714Y-86529524D01*
X113595714Y-86148571D01*
X113643333Y-86053333D01*
X113738571Y-86005714D01*
X113929048Y-86005714D01*
X114024286Y-86053333D01*
X114071905Y-86148571D01*
X114071905Y-86243810D01*
X113595714Y-86339048D01*
X114452857Y-86624762D02*
X114548095Y-86672381D01*
X114738571Y-86672381D01*
X114833810Y-86624762D01*
X114881429Y-86529524D01*
X114881429Y-86481905D01*
X114833810Y-86386667D01*
X114738571Y-86339048D01*
X114595714Y-86339048D01*
X114500476Y-86291429D01*
X114452857Y-86196190D01*
X114452857Y-86148571D01*
X114500476Y-86053333D01*
X114595714Y-86005714D01*
X114738571Y-86005714D01*
X114833810Y-86053333D01*
X113071905Y-88672381D02*
X113071905Y-87672381D01*
X113643334Y-88672381D01*
X113643334Y-87672381D01*
X114262381Y-88672381D02*
X114167143Y-88624762D01*
X114119524Y-88577143D01*
X114071905Y-88481905D01*
X114071905Y-88196190D01*
X114119524Y-88100952D01*
X114167143Y-88053333D01*
X114262381Y-88005714D01*
X114405239Y-88005714D01*
X114500477Y-88053333D01*
X114548096Y-88100952D01*
X114595715Y-88196190D01*
X114595715Y-88481905D01*
X114548096Y-88577143D01*
X114500477Y-88624762D01*
X114405239Y-88672381D01*
X114262381Y-88672381D01*
X113536191Y-90602381D02*
X112964762Y-90602381D01*
X113250476Y-90602381D02*
X113250476Y-89602381D01*
X113155238Y-89745238D01*
X113060000Y-89840476D01*
X112964762Y-89888095D01*
X114917143Y-89602381D02*
X115107620Y-89602381D01*
X115202858Y-89650000D01*
X115298096Y-89745238D01*
X115345715Y-89935714D01*
X115345715Y-90269048D01*
X115298096Y-90459524D01*
X115202858Y-90554762D01*
X115107620Y-90602381D01*
X114917143Y-90602381D01*
X114821905Y-90554762D01*
X114726667Y-90459524D01*
X114679048Y-90269048D01*
X114679048Y-89935714D01*
X114726667Y-89745238D01*
X114821905Y-89650000D01*
X114917143Y-89602381D01*
X115679048Y-89935714D02*
X116202858Y-89935714D01*
X115679048Y-90602381D01*
X116202858Y-90602381D01*
X112619524Y-92672381D02*
X112619524Y-91672381D01*
X112619524Y-92148571D02*
X113190953Y-92148571D01*
X113190953Y-92672381D02*
X113190953Y-91672381D01*
X113619524Y-92386667D02*
X114095715Y-92386667D01*
X113524286Y-92672381D02*
X113857619Y-91672381D01*
X114190953Y-92672381D01*
X114476667Y-92624762D02*
X114619524Y-92672381D01*
X114857620Y-92672381D01*
X114952858Y-92624762D01*
X115000477Y-92577143D01*
X115048096Y-92481905D01*
X115048096Y-92386667D01*
X115000477Y-92291429D01*
X114952858Y-92243810D01*
X114857620Y-92196190D01*
X114667143Y-92148571D01*
X114571905Y-92100952D01*
X114524286Y-92053333D01*
X114476667Y-91958095D01*
X114476667Y-91862857D01*
X114524286Y-91767619D01*
X114571905Y-91720000D01*
X114667143Y-91672381D01*
X114905239Y-91672381D01*
X115048096Y-91720000D01*
X115952858Y-92672381D02*
X115476667Y-92672381D01*
X115476667Y-91672381D01*
X117381430Y-92148571D02*
X117048096Y-92148571D01*
X117048096Y-92672381D02*
X117048096Y-91672381D01*
X117524287Y-91672381D01*
X117905239Y-92672381D02*
X117905239Y-92005714D01*
X117905239Y-91672381D02*
X117857620Y-91720000D01*
X117905239Y-91767619D01*
X117952858Y-91720000D01*
X117905239Y-91672381D01*
X117905239Y-91767619D01*
X118381429Y-92005714D02*
X118381429Y-92672381D01*
X118381429Y-92100952D02*
X118429048Y-92053333D01*
X118524286Y-92005714D01*
X118667144Y-92005714D01*
X118762382Y-92053333D01*
X118810001Y-92148571D01*
X118810001Y-92672381D01*
X119286191Y-92672381D02*
X119286191Y-92005714D01*
X119286191Y-91672381D02*
X119238572Y-91720000D01*
X119286191Y-91767619D01*
X119333810Y-91720000D01*
X119286191Y-91672381D01*
X119286191Y-91767619D01*
X119714762Y-92624762D02*
X119810000Y-92672381D01*
X120000476Y-92672381D01*
X120095715Y-92624762D01*
X120143334Y-92529524D01*
X120143334Y-92481905D01*
X120095715Y-92386667D01*
X120000476Y-92339048D01*
X119857619Y-92339048D01*
X119762381Y-92291429D01*
X119714762Y-92196190D01*
X119714762Y-92148571D01*
X119762381Y-92053333D01*
X119857619Y-92005714D01*
X120000476Y-92005714D01*
X120095715Y-92053333D01*
X120571905Y-92672381D02*
X120571905Y-91672381D01*
X121000477Y-92672381D02*
X121000477Y-92148571D01*
X120952858Y-92053333D01*
X120857620Y-92005714D01*
X120714762Y-92005714D01*
X120619524Y-92053333D01*
X120571905Y-92100952D01*
X112976666Y-94196190D02*
X112976666Y-94672381D01*
X112643333Y-93672381D02*
X112976666Y-94196190D01*
X113310000Y-93672381D01*
X114024286Y-94624762D02*
X113929048Y-94672381D01*
X113738571Y-94672381D01*
X113643333Y-94624762D01*
X113595714Y-94529524D01*
X113595714Y-94148571D01*
X113643333Y-94053333D01*
X113738571Y-94005714D01*
X113929048Y-94005714D01*
X114024286Y-94053333D01*
X114071905Y-94148571D01*
X114071905Y-94243810D01*
X113595714Y-94339048D01*
X114452857Y-94624762D02*
X114548095Y-94672381D01*
X114738571Y-94672381D01*
X114833810Y-94624762D01*
X114881429Y-94529524D01*
X114881429Y-94481905D01*
X114833810Y-94386667D01*
X114738571Y-94339048D01*
X114595714Y-94339048D01*
X114500476Y-94291429D01*
X114452857Y-94196190D01*
X114452857Y-94148571D01*
X114500476Y-94053333D01*
X114595714Y-94005714D01*
X114738571Y-94005714D01*
X114833810Y-94053333D01*
X112976666Y-96196190D02*
X112976666Y-96672381D01*
X112643333Y-95672381D02*
X112976666Y-96196190D01*
X113310000Y-95672381D01*
X114024286Y-96624762D02*
X113929048Y-96672381D01*
X113738571Y-96672381D01*
X113643333Y-96624762D01*
X113595714Y-96529524D01*
X113595714Y-96148571D01*
X113643333Y-96053333D01*
X113738571Y-96005714D01*
X113929048Y-96005714D01*
X114024286Y-96053333D01*
X114071905Y-96148571D01*
X114071905Y-96243810D01*
X113595714Y-96339048D01*
X114452857Y-96624762D02*
X114548095Y-96672381D01*
X114738571Y-96672381D01*
X114833810Y-96624762D01*
X114881429Y-96529524D01*
X114881429Y-96481905D01*
X114833810Y-96386667D01*
X114738571Y-96339048D01*
X114595714Y-96339048D01*
X114500476Y-96291429D01*
X114452857Y-96196190D01*
X114452857Y-96148571D01*
X114500476Y-96053333D01*
X114595714Y-96005714D01*
X114738571Y-96005714D01*
X114833810Y-96053333D01*
X113038572Y-98228571D02*
X113181429Y-98276190D01*
X113229048Y-98323810D01*
X113276667Y-98419048D01*
X113276667Y-98561905D01*
X113229048Y-98657143D01*
X113181429Y-98704762D01*
X113086191Y-98752381D01*
X112705238Y-98752381D01*
X112705238Y-97752381D01*
X113038572Y-97752381D01*
X113133810Y-97800000D01*
X113181429Y-97847619D01*
X113229048Y-97942857D01*
X113229048Y-98038095D01*
X113181429Y-98133333D01*
X113133810Y-98180952D01*
X113038572Y-98228571D01*
X112705238Y-98228571D01*
X113848095Y-98752381D02*
X113752857Y-98704762D01*
X113705238Y-98609524D01*
X113705238Y-97752381D01*
X114657620Y-98085714D02*
X114657620Y-98752381D01*
X114229048Y-98085714D02*
X114229048Y-98609524D01*
X114276667Y-98704762D01*
X114371905Y-98752381D01*
X114514763Y-98752381D01*
X114610001Y-98704762D01*
X114657620Y-98657143D01*
X115514763Y-98704762D02*
X115419525Y-98752381D01*
X115229048Y-98752381D01*
X115133810Y-98704762D01*
X115086191Y-98609524D01*
X115086191Y-98228571D01*
X115133810Y-98133333D01*
X115229048Y-98085714D01*
X115419525Y-98085714D01*
X115514763Y-98133333D01*
X115562382Y-98228571D01*
X115562382Y-98323810D01*
X115086191Y-98419048D01*
M02*
