M48
;DRILL file {KiCad 4.0.4-stable} date 04/28/17 11:07:40
;FORMAT={-:-/ absolute / inch / decimal}
FMAT,2
INCH,TZ
T1C0.012
T2C0.016
T3C0.031
T4C0.032
T5C0.039
T6C0.040
T7C0.051
T8C0.067
%
G90
G05
M72
T1
X4.7717Y-3.8071
X4.7795Y-3.9961
X4.8071Y-3.7047
X4.8898Y-4.378
X5.3071Y-3.8858
X5.378Y-4.7047
X5.811Y-3.0748
X5.811Y-3.5787
X5.811Y-3.8819
X5.8898Y-4.3661
X5.9685Y-3.0748
X5.9685Y-3.8819
X5.9724Y-3.5787
X6.0709Y-4.3661
X6.126Y-3.0748
X6.126Y-3.5827
X6.126Y-3.8819
X6.2835Y-3.0748
X6.2835Y-3.5866
X6.2835Y-3.8819
X6.4409Y-3.0748
X6.4409Y-3.8819
X6.8622Y-3.6929
X6.9724Y-3.2717
X6.9736Y-3.8579
X7.3504Y-4.5236
X7.5079Y-4.5236
X7.6654Y-4.5236
X7.8228Y-4.5236
X7.9803Y-4.5236
T2
X4.7681Y-3.285
X4.9488Y-3.6811
X5.0591Y-3.9413
X5.1008Y-3.863
X5.3437Y-4.3071
X5.3768Y-3.252
X6.1811Y-4.2591
X6.2681Y-4.2925
X6.326Y-4.3173
X6.402Y-4.3465
X6.4508Y-3.7209
X6.6535Y-3.7622
X6.6693Y-3.9724
X6.6713Y-3.2008
X6.8858Y-4.1417
X7.0197Y-2.8701
X7.0906Y-2.8425
X7.0984Y-2.9528
X7.3386Y-4.3701
T3
X5.7677Y-3.2803
X5.7677Y-4.1465
X5.8465Y-3.2803
X5.8465Y-4.1465
X5.9252Y-3.2803
X5.9252Y-4.1465
X6.0039Y-3.2803
X6.0039Y-4.1465
X6.0827Y-3.2803
X6.0827Y-4.1465
X6.1614Y-3.2803
X6.1614Y-4.1465
X6.2402Y-3.2803
X6.2402Y-4.1465
X6.3189Y-3.2803
X6.3189Y-4.1465
X6.3976Y-3.2803
X6.3976Y-4.1465
X6.4764Y-3.2803
X6.4764Y-4.1465
T4
X6.9933Y-3.563
X6.9933Y-3.663
X6.9933Y-3.763
X7.0933Y-3.563
X7.0933Y-3.663
X7.0933Y-3.763
T5
X4.6843Y-4.2211
X4.6843Y-4.3211
X4.6843Y-4.4211
X4.6843Y-4.5211
X4.6854Y-3.3921
X4.7843Y-4.2711
X4.7843Y-4.3711
X4.7843Y-4.4711
X4.7843Y-4.5711
X4.7854Y-3.3921
X4.8854Y-3.3921
X5.0315Y-3.3941
X5.1315Y-3.3941
X5.2315Y-3.3941
X5.4984Y-4.3898
X5.4984Y-4.4898
X5.5047Y-2.9272
X5.5047Y-3.0272
X5.5984Y-4.3898
X5.5984Y-4.4898
X5.6047Y-2.9272
X5.6047Y-3.0272
X7.2028Y-4.1508
X7.2028Y-4.2508
X7.2035Y-3.0516
X7.2035Y-3.1516
X7.3028Y-4.1508
X7.3028Y-4.2508
X7.3035Y-3.0516
X7.3035Y-3.1516
X7.4028Y-4.1508
X7.4028Y-4.2508
X7.4035Y-3.0516
X7.4035Y-3.1516
X7.5028Y-4.1508
X7.5028Y-4.2508
X7.5035Y-3.0516
X7.5035Y-3.1516
X7.6028Y-4.1508
X7.6028Y-4.2508
X7.6035Y-3.0516
X7.6035Y-3.1516
X7.7028Y-4.1508
X7.7028Y-4.2508
X7.7035Y-3.0516
X7.7035Y-3.1516
X7.8028Y-4.1508
X7.8028Y-4.2508
X7.8035Y-3.0516
X7.8035Y-3.1516
X7.9028Y-4.1508
X7.9028Y-4.2508
X7.9035Y-3.0516
X7.9035Y-3.1516
T6
X5.2333Y-2.763
X5.3333Y-2.763
X5.4333Y-2.763
X5.5333Y-2.763
X5.5933Y-4.663
X5.6333Y-2.763
X5.6933Y-4.663
X5.7333Y-2.763
X5.7933Y-4.663
X5.8333Y-2.763
X5.8933Y-4.663
X5.9333Y-2.763
X5.9933Y-4.663
X6.0333Y-2.763
X6.0933Y-4.663
X6.1333Y-2.763
X6.1933Y-4.663
X6.2933Y-2.763
X6.2933Y-4.663
X6.3933Y-2.763
X6.4933Y-2.763
X6.4933Y-4.663
X6.5933Y-2.763
X6.5933Y-4.663
X6.6933Y-2.763
X6.6933Y-4.663
X6.7933Y-2.763
X6.7933Y-4.663
X6.8933Y-2.763
X6.8933Y-4.663
X6.9933Y-2.763
X6.9933Y-4.663
X7.0933Y-4.663
X7.1933Y-2.763
X7.1933Y-4.663
X7.2933Y-2.763
X7.3933Y-2.763
X7.3933Y-4.663
X7.4933Y-2.763
X7.4933Y-4.663
X7.5933Y-2.763
X7.5933Y-4.663
X7.6933Y-2.763
X7.6933Y-4.663
X7.7933Y-2.763
X7.7933Y-4.663
X7.8933Y-2.763
X7.8933Y-4.663
X7.9933Y-4.663
X8.0933Y-4.663
X8.1933Y-2.763
X8.1933Y-2.863
X8.1933Y-2.963
X8.1933Y-3.063
X8.1933Y-3.163
X8.1933Y-3.263
X8.1933Y-3.363
X8.1933Y-3.463
X8.1933Y-3.563
X8.1933Y-3.663
X8.1933Y-3.763
X8.1933Y-3.863
X8.1933Y-3.963
X8.1933Y-4.063
X8.1933Y-4.163
X8.1933Y-4.263
X8.1933Y-4.363
X8.1933Y-4.463
X8.2933Y-2.763
X8.2933Y-2.863
X8.2933Y-2.963
X8.2933Y-3.063
X8.2933Y-3.163
X8.2933Y-3.263
X8.2933Y-3.363
X8.2933Y-3.463
X8.2933Y-3.563
X8.2933Y-3.663
X8.2933Y-3.763
X8.2933Y-3.863
X8.2933Y-3.963
X8.2933Y-4.063
X8.2933Y-4.163
X8.2933Y-4.263
X8.2933Y-4.363
X8.2933Y-4.463
T7
X4.3417Y-2.8311
X4.3417Y-3.0311
X4.3453Y-3.326
X4.3453Y-3.526
X4.3453Y-3.726
T8
X4.3142Y-4.089
X4.3142Y-4.7031
T0
M30
