G04 #@! TF.FileFunction,Other,Fab,Bot*
%FSLAX46Y46*%
G04 Gerber Fmt 4.6, Leading zero omitted, Abs format (unit mm)*
G04 Created by KiCad (PCBNEW 4.0.4-stable) date 04/28/17 11:07:38*
%MOMM*%
%LPD*%
G01*
G04 APERTURE LIST*
%ADD10C,0.100000*%
%ADD11C,0.150000*%
%ADD12C,0.135000*%
G04 APERTURE END LIST*
D10*
X167430000Y-96450000D02*
X167430000Y-95210000D01*
X165430000Y-96450000D02*
X167430000Y-96450000D01*
X165430000Y-95210000D02*
X165430000Y-96450000D01*
X167430000Y-95210000D02*
X165430000Y-95210000D01*
D11*
X127735000Y-98420000D02*
X127735000Y-101320000D01*
X127735000Y-101320000D02*
X137635000Y-101320000D01*
X137635000Y-101320000D02*
X137635000Y-97420000D01*
X137635000Y-97420000D02*
X128735000Y-97420000D01*
X128735000Y-97420000D02*
X127735000Y-98420000D01*
D10*
X135550000Y-94960000D02*
X135550000Y-93720000D01*
X133550000Y-94960000D02*
X135550000Y-94960000D01*
X133550000Y-93720000D02*
X133550000Y-94960000D01*
X135550000Y-93720000D02*
X133550000Y-93720000D01*
X125150000Y-103700000D02*
X126390000Y-103700000D01*
X125150000Y-101700000D02*
X125150000Y-103700000D01*
X126390000Y-101700000D02*
X125150000Y-101700000D01*
X126390000Y-103700000D02*
X126390000Y-101700000D01*
X128030000Y-103480000D02*
X128030000Y-104720000D01*
X130030000Y-103480000D02*
X128030000Y-103480000D01*
X130030000Y-104720000D02*
X130030000Y-103480000D01*
X128030000Y-104720000D02*
X130030000Y-104720000D01*
X169820000Y-78870000D02*
X169820000Y-80110000D01*
X171820000Y-78870000D02*
X169820000Y-78870000D01*
X171820000Y-80110000D02*
X171820000Y-78870000D01*
X169820000Y-80110000D02*
X171820000Y-80110000D01*
X126390000Y-96950000D02*
X125150000Y-96950000D01*
X126390000Y-98950000D02*
X126390000Y-96950000D01*
X125150000Y-98950000D02*
X126390000Y-98950000D01*
X125150000Y-96950000D02*
X125150000Y-98950000D01*
X128780000Y-93700000D02*
X128780000Y-94940000D01*
X130780000Y-93700000D02*
X128780000Y-93700000D01*
X130780000Y-94940000D02*
X130780000Y-93700000D01*
X128780000Y-94940000D02*
X130780000Y-94940000D01*
D11*
X168072857Y-97032381D02*
X167977618Y-97032381D01*
X167882380Y-97080000D01*
X167834761Y-97127619D01*
X167787142Y-97222857D01*
X167739523Y-97413333D01*
X167739523Y-97651429D01*
X167787142Y-97841905D01*
X167834761Y-97937143D01*
X167882380Y-97984762D01*
X167977618Y-98032381D01*
X168072857Y-98032381D01*
X168168095Y-97984762D01*
X168215714Y-97937143D01*
X168263333Y-97841905D01*
X168310952Y-97651429D01*
X168310952Y-97413333D01*
X168263333Y-97222857D01*
X168215714Y-97127619D01*
X168168095Y-97080000D01*
X168072857Y-97032381D01*
X167310952Y-97937143D02*
X167263333Y-97984762D01*
X167310952Y-98032381D01*
X167358571Y-97984762D01*
X167310952Y-97937143D01*
X167310952Y-98032381D01*
X166310952Y-98032381D02*
X166882381Y-98032381D01*
X166596667Y-98032381D02*
X166596667Y-97032381D01*
X166691905Y-97175238D01*
X166787143Y-97270476D01*
X166882381Y-97318095D01*
X165453809Y-97365714D02*
X165453809Y-98032381D01*
X165882381Y-97365714D02*
X165882381Y-97889524D01*
X165834762Y-97984762D01*
X165739524Y-98032381D01*
X165596666Y-98032381D01*
X165501428Y-97984762D01*
X165453809Y-97937143D01*
X164644285Y-97508571D02*
X164977619Y-97508571D01*
X164977619Y-98032381D02*
X164977619Y-97032381D01*
X164501428Y-97032381D01*
X166596666Y-94437143D02*
X166644285Y-94484762D01*
X166787142Y-94532381D01*
X166882380Y-94532381D01*
X167025238Y-94484762D01*
X167120476Y-94389524D01*
X167168095Y-94294286D01*
X167215714Y-94103810D01*
X167215714Y-93960952D01*
X167168095Y-93770476D01*
X167120476Y-93675238D01*
X167025238Y-93580000D01*
X166882380Y-93532381D01*
X166787142Y-93532381D01*
X166644285Y-93580000D01*
X166596666Y-93627619D01*
X165644285Y-94532381D02*
X166215714Y-94532381D01*
X165930000Y-94532381D02*
X165930000Y-93532381D01*
X166025238Y-93675238D01*
X166120476Y-93770476D01*
X166215714Y-93818095D01*
X134876667Y-100252381D02*
X134876667Y-99252381D01*
X134543333Y-99966667D01*
X134210000Y-99252381D01*
X134210000Y-100252381D01*
X133781429Y-99966667D02*
X133305238Y-99966667D01*
X133876667Y-100252381D02*
X133543334Y-99252381D01*
X133210000Y-100252381D01*
X132971905Y-99252381D02*
X132305238Y-100252381D01*
X132305238Y-99252381D02*
X132971905Y-100252381D01*
X131971905Y-99347619D02*
X131924286Y-99300000D01*
X131829048Y-99252381D01*
X131590952Y-99252381D01*
X131495714Y-99300000D01*
X131448095Y-99347619D01*
X131400476Y-99442857D01*
X131400476Y-99538095D01*
X131448095Y-99680952D01*
X132019524Y-100252381D01*
X131400476Y-100252381D01*
X131067143Y-99252381D02*
X130448095Y-99252381D01*
X130781429Y-99633333D01*
X130638571Y-99633333D01*
X130543333Y-99680952D01*
X130495714Y-99728571D01*
X130448095Y-99823810D01*
X130448095Y-100061905D01*
X130495714Y-100157143D01*
X130543333Y-100204762D01*
X130638571Y-100252381D01*
X130924286Y-100252381D01*
X131019524Y-100204762D01*
X131067143Y-100157143D01*
X130067143Y-99347619D02*
X130019524Y-99300000D01*
X129924286Y-99252381D01*
X129686190Y-99252381D01*
X129590952Y-99300000D01*
X129543333Y-99347619D01*
X129495714Y-99442857D01*
X129495714Y-99538095D01*
X129543333Y-99680952D01*
X130114762Y-100252381D01*
X129495714Y-100252381D01*
D12*
X131867143Y-97694286D02*
X132595714Y-97694286D01*
X132681429Y-97737143D01*
X132724286Y-97780000D01*
X132767143Y-97865714D01*
X132767143Y-98037143D01*
X132724286Y-98122857D01*
X132681429Y-98165714D01*
X132595714Y-98208571D01*
X131867143Y-98208571D01*
X131867143Y-98551428D02*
X131867143Y-99108571D01*
X132210000Y-98808571D01*
X132210000Y-98937143D01*
X132252857Y-99022857D01*
X132295714Y-99065714D01*
X132381429Y-99108571D01*
X132595714Y-99108571D01*
X132681429Y-99065714D01*
X132724286Y-99022857D01*
X132767143Y-98937143D01*
X132767143Y-98680000D01*
X132724286Y-98594286D01*
X132681429Y-98551428D01*
D11*
X135145238Y-96542381D02*
X135716667Y-96542381D01*
X135430953Y-96542381D02*
X135430953Y-95542381D01*
X135526191Y-95685238D01*
X135621429Y-95780476D01*
X135716667Y-95828095D01*
X134288095Y-95875714D02*
X134288095Y-96542381D01*
X134716667Y-95875714D02*
X134716667Y-96399524D01*
X134669048Y-96494762D01*
X134573810Y-96542381D01*
X134430952Y-96542381D01*
X134335714Y-96494762D01*
X134288095Y-96447143D01*
X133478571Y-96018571D02*
X133811905Y-96018571D01*
X133811905Y-96542381D02*
X133811905Y-95542381D01*
X133335714Y-95542381D01*
X135192857Y-92947143D02*
X135240476Y-92994762D01*
X135383333Y-93042381D01*
X135478571Y-93042381D01*
X135621429Y-92994762D01*
X135716667Y-92899524D01*
X135764286Y-92804286D01*
X135811905Y-92613810D01*
X135811905Y-92470952D01*
X135764286Y-92280476D01*
X135716667Y-92185238D01*
X135621429Y-92090000D01*
X135478571Y-92042381D01*
X135383333Y-92042381D01*
X135240476Y-92090000D01*
X135192857Y-92137619D01*
X134240476Y-93042381D02*
X134811905Y-93042381D01*
X134526191Y-93042381D02*
X134526191Y-92042381D01*
X134621429Y-92185238D01*
X134716667Y-92280476D01*
X134811905Y-92328095D01*
X133621429Y-92042381D02*
X133526190Y-92042381D01*
X133430952Y-92090000D01*
X133383333Y-92137619D01*
X133335714Y-92232857D01*
X133288095Y-92423333D01*
X133288095Y-92661429D01*
X133335714Y-92851905D01*
X133383333Y-92947143D01*
X133430952Y-92994762D01*
X133526190Y-93042381D01*
X133621429Y-93042381D01*
X133716667Y-92994762D01*
X133764286Y-92947143D01*
X133811905Y-92851905D01*
X133859524Y-92661429D01*
X133859524Y-92423333D01*
X133811905Y-92232857D01*
X133764286Y-92137619D01*
X133716667Y-92090000D01*
X133621429Y-92042381D01*
X126222381Y-98494762D02*
X126222381Y-97923333D01*
X126222381Y-98209047D02*
X125222381Y-98209047D01*
X125365238Y-98113809D01*
X125460476Y-98018571D01*
X125508095Y-97923333D01*
X125555714Y-99351905D02*
X126222381Y-99351905D01*
X125555714Y-98923333D02*
X126079524Y-98923333D01*
X126174762Y-98970952D01*
X126222381Y-99066190D01*
X126222381Y-99209048D01*
X126174762Y-99304286D01*
X126127143Y-99351905D01*
X125698571Y-100161429D02*
X125698571Y-99828095D01*
X126222381Y-99828095D02*
X125222381Y-99828095D01*
X125222381Y-100304286D01*
X126037143Y-102443334D02*
X126084762Y-102395715D01*
X126132381Y-102252858D01*
X126132381Y-102157620D01*
X126084762Y-102014762D01*
X125989524Y-101919524D01*
X125894286Y-101871905D01*
X125703810Y-101824286D01*
X125560952Y-101824286D01*
X125370476Y-101871905D01*
X125275238Y-101919524D01*
X125180000Y-102014762D01*
X125132381Y-102157620D01*
X125132381Y-102252858D01*
X125180000Y-102395715D01*
X125227619Y-102443334D01*
X126132381Y-102919524D02*
X126132381Y-103110000D01*
X126084762Y-103205239D01*
X126037143Y-103252858D01*
X125894286Y-103348096D01*
X125703810Y-103395715D01*
X125322857Y-103395715D01*
X125227619Y-103348096D01*
X125180000Y-103300477D01*
X125132381Y-103205239D01*
X125132381Y-103014762D01*
X125180000Y-102919524D01*
X125227619Y-102871905D01*
X125322857Y-102824286D01*
X125560952Y-102824286D01*
X125656190Y-102871905D01*
X125703810Y-102919524D01*
X125751429Y-103014762D01*
X125751429Y-103205239D01*
X125703810Y-103300477D01*
X125656190Y-103348096D01*
X125560952Y-103395715D01*
X129625238Y-102802381D02*
X130196667Y-102802381D01*
X129910953Y-102802381D02*
X129910953Y-101802381D01*
X130006191Y-101945238D01*
X130101429Y-102040476D01*
X130196667Y-102088095D01*
X128768095Y-102135714D02*
X128768095Y-102802381D01*
X129196667Y-102135714D02*
X129196667Y-102659524D01*
X129149048Y-102754762D01*
X129053810Y-102802381D01*
X128910952Y-102802381D01*
X128815714Y-102754762D01*
X128768095Y-102707143D01*
X127958571Y-102278571D02*
X128291905Y-102278571D01*
X128291905Y-102802381D02*
X128291905Y-101802381D01*
X127815714Y-101802381D01*
X129196666Y-106207143D02*
X129244285Y-106254762D01*
X129387142Y-106302381D01*
X129482380Y-106302381D01*
X129625238Y-106254762D01*
X129720476Y-106159524D01*
X129768095Y-106064286D01*
X129815714Y-105873810D01*
X129815714Y-105730952D01*
X129768095Y-105540476D01*
X129720476Y-105445238D01*
X129625238Y-105350000D01*
X129482380Y-105302381D01*
X129387142Y-105302381D01*
X129244285Y-105350000D01*
X129196666Y-105397619D01*
X128863333Y-105302381D02*
X128244285Y-105302381D01*
X128577619Y-105683333D01*
X128434761Y-105683333D01*
X128339523Y-105730952D01*
X128291904Y-105778571D01*
X128244285Y-105873810D01*
X128244285Y-106111905D01*
X128291904Y-106207143D01*
X128339523Y-106254762D01*
X128434761Y-106302381D01*
X128720476Y-106302381D01*
X128815714Y-106254762D01*
X128863333Y-106207143D01*
X172462857Y-77192381D02*
X172367618Y-77192381D01*
X172272380Y-77240000D01*
X172224761Y-77287619D01*
X172177142Y-77382857D01*
X172129523Y-77573333D01*
X172129523Y-77811429D01*
X172177142Y-78001905D01*
X172224761Y-78097143D01*
X172272380Y-78144762D01*
X172367618Y-78192381D01*
X172462857Y-78192381D01*
X172558095Y-78144762D01*
X172605714Y-78097143D01*
X172653333Y-78001905D01*
X172700952Y-77811429D01*
X172700952Y-77573333D01*
X172653333Y-77382857D01*
X172605714Y-77287619D01*
X172558095Y-77240000D01*
X172462857Y-77192381D01*
X171700952Y-78097143D02*
X171653333Y-78144762D01*
X171700952Y-78192381D01*
X171748571Y-78144762D01*
X171700952Y-78097143D01*
X171700952Y-78192381D01*
X170700952Y-78192381D02*
X171272381Y-78192381D01*
X170986667Y-78192381D02*
X170986667Y-77192381D01*
X171081905Y-77335238D01*
X171177143Y-77430476D01*
X171272381Y-77478095D01*
X169843809Y-77525714D02*
X169843809Y-78192381D01*
X170272381Y-77525714D02*
X170272381Y-78049524D01*
X170224762Y-78144762D01*
X170129524Y-78192381D01*
X169986666Y-78192381D01*
X169891428Y-78144762D01*
X169843809Y-78097143D01*
X169034285Y-77668571D02*
X169367619Y-77668571D01*
X169367619Y-78192381D02*
X169367619Y-77192381D01*
X168891428Y-77192381D01*
X170986666Y-81597143D02*
X171034285Y-81644762D01*
X171177142Y-81692381D01*
X171272380Y-81692381D01*
X171415238Y-81644762D01*
X171510476Y-81549524D01*
X171558095Y-81454286D01*
X171605714Y-81263810D01*
X171605714Y-81120952D01*
X171558095Y-80930476D01*
X171510476Y-80835238D01*
X171415238Y-80740000D01*
X171272380Y-80692381D01*
X171177142Y-80692381D01*
X171034285Y-80740000D01*
X170986666Y-80787619D01*
X170081904Y-80692381D02*
X170558095Y-80692381D01*
X170605714Y-81168571D01*
X170558095Y-81120952D01*
X170462857Y-81073333D01*
X170224761Y-81073333D01*
X170129523Y-81120952D01*
X170081904Y-81168571D01*
X170034285Y-81263810D01*
X170034285Y-81501905D01*
X170081904Y-81597143D01*
X170129523Y-81644762D01*
X170224761Y-81692381D01*
X170462857Y-81692381D01*
X170558095Y-81644762D01*
X170605714Y-81597143D01*
X127972381Y-97354762D02*
X127972381Y-96783333D01*
X127972381Y-97069047D02*
X126972381Y-97069047D01*
X127115238Y-96973809D01*
X127210476Y-96878571D01*
X127258095Y-96783333D01*
X127305714Y-98211905D02*
X127972381Y-98211905D01*
X127305714Y-97783333D02*
X127829524Y-97783333D01*
X127924762Y-97830952D01*
X127972381Y-97926190D01*
X127972381Y-98069048D01*
X127924762Y-98164286D01*
X127877143Y-98211905D01*
X127448571Y-99021429D02*
X127448571Y-98688095D01*
X127972381Y-98688095D02*
X126972381Y-98688095D01*
X126972381Y-99164286D01*
X128957143Y-97763334D02*
X129004762Y-97715715D01*
X129052381Y-97572858D01*
X129052381Y-97477620D01*
X129004762Y-97334762D01*
X128909524Y-97239524D01*
X128814286Y-97191905D01*
X128623810Y-97144286D01*
X128480952Y-97144286D01*
X128290476Y-97191905D01*
X128195238Y-97239524D01*
X128100000Y-97334762D01*
X128052381Y-97477620D01*
X128052381Y-97572858D01*
X128100000Y-97715715D01*
X128147619Y-97763334D01*
X128052381Y-98096667D02*
X128052381Y-98763334D01*
X129052381Y-98334762D01*
X130455238Y-94722381D02*
X131026667Y-94722381D01*
X130740953Y-94722381D02*
X130740953Y-93722381D01*
X130836191Y-93865238D01*
X130931429Y-93960476D01*
X131026667Y-94008095D01*
X129598095Y-94055714D02*
X129598095Y-94722381D01*
X130026667Y-94055714D02*
X130026667Y-94579524D01*
X129979048Y-94674762D01*
X129883810Y-94722381D01*
X129740952Y-94722381D01*
X129645714Y-94674762D01*
X129598095Y-94627143D01*
X128788571Y-94198571D02*
X129121905Y-94198571D01*
X129121905Y-94722381D02*
X129121905Y-93722381D01*
X128645714Y-93722381D01*
X130106666Y-93057143D02*
X130154285Y-93104762D01*
X130297142Y-93152381D01*
X130392380Y-93152381D01*
X130535238Y-93104762D01*
X130630476Y-93009524D01*
X130678095Y-92914286D01*
X130725714Y-92723810D01*
X130725714Y-92580952D01*
X130678095Y-92390476D01*
X130630476Y-92295238D01*
X130535238Y-92200000D01*
X130392380Y-92152381D01*
X130297142Y-92152381D01*
X130154285Y-92200000D01*
X130106666Y-92247619D01*
X129535238Y-92580952D02*
X129630476Y-92533333D01*
X129678095Y-92485714D01*
X129725714Y-92390476D01*
X129725714Y-92342857D01*
X129678095Y-92247619D01*
X129630476Y-92200000D01*
X129535238Y-92152381D01*
X129344761Y-92152381D01*
X129249523Y-92200000D01*
X129201904Y-92247619D01*
X129154285Y-92342857D01*
X129154285Y-92390476D01*
X129201904Y-92485714D01*
X129249523Y-92533333D01*
X129344761Y-92580952D01*
X129535238Y-92580952D01*
X129630476Y-92628571D01*
X129678095Y-92676190D01*
X129725714Y-92771429D01*
X129725714Y-92961905D01*
X129678095Y-93057143D01*
X129630476Y-93104762D01*
X129535238Y-93152381D01*
X129344761Y-93152381D01*
X129249523Y-93104762D01*
X129201904Y-93057143D01*
X129154285Y-92961905D01*
X129154285Y-92771429D01*
X129201904Y-92676190D01*
X129249523Y-92628571D01*
X129344761Y-92580952D01*
M02*
