G04 #@! TF.FileFunction,Copper,L1,Top,Signal*
%FSLAX46Y46*%
G04 Gerber Fmt 4.6, Leading zero omitted, Abs format (unit mm)*
G04 Created by KiCad (PCBNEW 4.0.4-stable) date 04/28/17 11:07:38*
%MOMM*%
%LPD*%
G01*
G04 APERTURE LIST*
%ADD10C,0.100000*%
%ADD11C,0.600000*%
%ADD12R,1.500000X1.300000*%
%ADD13O,1.524000X2.540000*%
%ADD14C,1.524000*%
%ADD15R,1.250000X1.500000*%
%ADD16R,1.500000X1.250000*%
%ADD17R,1.200000X1.200000*%
%ADD18R,1.700000X1.700000*%
%ADD19O,1.700000X1.700000*%
%ADD20C,2.600000*%
%ADD21C,3.500000*%
%ADD22C,2.000000*%
%ADD23C,1.500000*%
%ADD24R,1.300000X1.500000*%
%ADD25R,0.250000X1.550000*%
%ADD26C,1.400000*%
%ADD27R,3.800000X2.000000*%
%ADD28R,1.500000X2.000000*%
%ADD29C,0.300000*%
%ADD30C,0.250000*%
%ADD31C,0.200000*%
%ADD32C,0.254000*%
G04 APERTURE END LIST*
D10*
D11*
X202700000Y-114900000D03*
X198700000Y-114900000D03*
X194700000Y-114900000D03*
X190700000Y-114900000D03*
X186700000Y-114900000D03*
X163600000Y-98600000D03*
X159600000Y-98600000D03*
X155600000Y-98600000D03*
X151600000Y-98600000D03*
X147600000Y-98600000D03*
X177130000Y-97990000D03*
X154200000Y-110900000D03*
X149600000Y-110900000D03*
X134800000Y-98700000D03*
X124200000Y-111200000D03*
X122100000Y-94100000D03*
X121200000Y-96700000D03*
X121400000Y-101500000D03*
X174300000Y-93800000D03*
X177100000Y-83100000D03*
X159600000Y-91100000D03*
X155600000Y-91000000D03*
X151700000Y-90900000D03*
X147600000Y-90900000D03*
X163600000Y-78100000D03*
X159600000Y-78100000D03*
X155600000Y-78100000D03*
X151600000Y-78100000D03*
X147600000Y-78100000D03*
D12*
X177650000Y-74800000D03*
X174950000Y-74800000D03*
D13*
X182710000Y-70180000D03*
X185250000Y-70180000D03*
X187790000Y-70180000D03*
X190330000Y-70180000D03*
X192870000Y-70180000D03*
X195410000Y-70180000D03*
X197950000Y-70180000D03*
X200490000Y-70180000D03*
X205570000Y-118440000D03*
X203030000Y-118440000D03*
X200490000Y-118440000D03*
X197950000Y-118440000D03*
X187790000Y-118440000D03*
X182710000Y-118440000D03*
X180170000Y-118440000D03*
X190330000Y-118440000D03*
X192870000Y-118440000D03*
X195410000Y-118440000D03*
X177630000Y-118440000D03*
X175090000Y-118440000D03*
X172550000Y-118440000D03*
X164930000Y-118440000D03*
X167470000Y-118440000D03*
X170010000Y-118440000D03*
X159850000Y-118440000D03*
X157310000Y-118440000D03*
X154770000Y-118440000D03*
X149690000Y-118440000D03*
X147150000Y-118440000D03*
X177630000Y-70180000D03*
X175090000Y-70180000D03*
X172550000Y-70180000D03*
X170010000Y-70180000D03*
X167470000Y-70180000D03*
X164930000Y-70180000D03*
X162390000Y-70180000D03*
X159850000Y-70180000D03*
X155786000Y-70180000D03*
X153246000Y-70180000D03*
X150706000Y-70180000D03*
X148166000Y-70180000D03*
X145626000Y-70180000D03*
X143086000Y-70180000D03*
X140546000Y-70180000D03*
X138006000Y-70180000D03*
X152230000Y-118440000D03*
D14*
X208110000Y-72720000D03*
X210650000Y-72720000D03*
X208110000Y-75260000D03*
X210650000Y-75260000D03*
X208110000Y-77800000D03*
X210650000Y-77800000D03*
X208110000Y-80340000D03*
X210650000Y-80340000D03*
X208110000Y-70180000D03*
X210650000Y-70180000D03*
X210650000Y-82880000D03*
X208110000Y-82880000D03*
X208110000Y-85420000D03*
X210650000Y-85420000D03*
X208110000Y-87960000D03*
X210650000Y-87960000D03*
X208110000Y-90500000D03*
X210650000Y-90500000D03*
X208110000Y-93040000D03*
X210650000Y-93040000D03*
X208110000Y-95580000D03*
X210650000Y-95580000D03*
X208110000Y-98120000D03*
X210650000Y-98120000D03*
X208110000Y-100660000D03*
X210650000Y-100660000D03*
X208110000Y-103200000D03*
X210650000Y-103200000D03*
X208110000Y-105740000D03*
X210650000Y-105740000D03*
X208110000Y-108280000D03*
X210650000Y-108280000D03*
X208110000Y-110820000D03*
X210650000Y-110820000D03*
X208110000Y-113360000D03*
X210650000Y-113360000D03*
X177630000Y-90500000D03*
X180170000Y-90500000D03*
X177630000Y-93040000D03*
X180170000Y-93040000D03*
X177630000Y-95580000D03*
X180170000Y-95580000D03*
D13*
X144610000Y-118440000D03*
X142070000Y-118440000D03*
X135466000Y-70180000D03*
X132926000Y-70180000D03*
D15*
X165320000Y-100730000D03*
X165320000Y-98230000D03*
D16*
X143560000Y-108390000D03*
X146060000Y-108390000D03*
X169700000Y-90540000D03*
X167200000Y-90540000D03*
D15*
X134720000Y-83050000D03*
X134720000Y-80550000D03*
D16*
X122040000Y-81600000D03*
X124540000Y-81600000D03*
X119940000Y-81590000D03*
X117440000Y-81590000D03*
D15*
X134740000Y-75920000D03*
X134740000Y-78420000D03*
D17*
X117610000Y-69790000D03*
X119810000Y-69790000D03*
X134020000Y-73920000D03*
X131820000Y-73920000D03*
D18*
X182950000Y-107970000D03*
D19*
X182950000Y-105430000D03*
X185490000Y-107970000D03*
X185490000Y-105430000D03*
X188030000Y-107970000D03*
X188030000Y-105430000D03*
X190570000Y-107970000D03*
X190570000Y-105430000D03*
X193110000Y-107970000D03*
X193110000Y-105430000D03*
X195650000Y-107970000D03*
X195650000Y-105430000D03*
X198190000Y-107970000D03*
X198190000Y-105430000D03*
X200730000Y-107970000D03*
X200730000Y-105430000D03*
D18*
X139660000Y-114040000D03*
D19*
X139660000Y-111500000D03*
X142200000Y-114040000D03*
X142200000Y-111500000D03*
D18*
X142360000Y-74350000D03*
D19*
X142360000Y-76890000D03*
X139820000Y-74350000D03*
X139820000Y-76890000D03*
D20*
X110370000Y-89560000D03*
X110370000Y-84480000D03*
X110370000Y-94640000D03*
D18*
X119010000Y-86160000D03*
D19*
X121550000Y-86160000D03*
X124090000Y-86160000D03*
D20*
X110280000Y-71910000D03*
X110280000Y-76990000D03*
D21*
X112630000Y-105910000D03*
X112630000Y-117410000D03*
D22*
X109580000Y-103860000D03*
X109580000Y-119460000D03*
D23*
X121520000Y-116105000D03*
X121520000Y-113565000D03*
X121520000Y-111025000D03*
X121520000Y-108485000D03*
X118980000Y-114835000D03*
X118980000Y-112295000D03*
X118980000Y-109755000D03*
X118980000Y-107215000D03*
D18*
X127800000Y-86210000D03*
D19*
X130340000Y-86210000D03*
X132880000Y-86210000D03*
D18*
X182970000Y-80050000D03*
D19*
X182970000Y-77510000D03*
X185510000Y-80050000D03*
X185510000Y-77510000D03*
X188050000Y-80050000D03*
X188050000Y-77510000D03*
X190590000Y-80050000D03*
X190590000Y-77510000D03*
X193130000Y-80050000D03*
X193130000Y-77510000D03*
X195670000Y-80050000D03*
X195670000Y-77510000D03*
X198210000Y-80050000D03*
X198210000Y-77510000D03*
X200750000Y-80050000D03*
X200750000Y-77510000D03*
D24*
X167220000Y-100920000D03*
X167220000Y-98220000D03*
D12*
X174520000Y-90560000D03*
X171820000Y-90560000D03*
X121810000Y-69820000D03*
X124510000Y-69820000D03*
X129830000Y-73920000D03*
X127130000Y-73920000D03*
X181980000Y-73970000D03*
X184680000Y-73970000D03*
D25*
X169035000Y-103590000D03*
X169685000Y-103590000D03*
X170335000Y-103590000D03*
X170985000Y-103590000D03*
X171635000Y-103590000D03*
X172285000Y-103590000D03*
X172935000Y-103590000D03*
X173585000Y-103590000D03*
X174235000Y-103590000D03*
X174885000Y-103590000D03*
X174885000Y-97990000D03*
X174235000Y-97990000D03*
X173585000Y-97990000D03*
X172935000Y-97990000D03*
X172285000Y-97990000D03*
X171635000Y-97990000D03*
X170985000Y-97990000D03*
X170335000Y-97990000D03*
X169685000Y-97990000D03*
X169035000Y-97990000D03*
D26*
X146500000Y-83320000D03*
X148500000Y-83320000D03*
X150500000Y-83320000D03*
X152500000Y-83320000D03*
X154500000Y-83320000D03*
X156500000Y-83320000D03*
X158500000Y-83320000D03*
X160500000Y-83320000D03*
X162500000Y-83320000D03*
X164500000Y-83320000D03*
X164500000Y-105320000D03*
X162500000Y-105320000D03*
X160500000Y-105320000D03*
X158500000Y-105320000D03*
X156500000Y-105320000D03*
X154500000Y-105320000D03*
X152500000Y-105320000D03*
X150500000Y-105320000D03*
X148500000Y-105320000D03*
X146500000Y-105320000D03*
D25*
X169065000Y-88660000D03*
X169715000Y-88660000D03*
X170365000Y-88660000D03*
X171015000Y-88660000D03*
X171665000Y-88660000D03*
X172315000Y-88660000D03*
X172965000Y-88660000D03*
X173615000Y-88660000D03*
X174265000Y-88660000D03*
X174915000Y-88660000D03*
X174915000Y-83060000D03*
X174265000Y-83060000D03*
X173615000Y-83060000D03*
X172965000Y-83060000D03*
X172315000Y-83060000D03*
X171665000Y-83060000D03*
X171015000Y-83060000D03*
X170365000Y-83060000D03*
X169715000Y-83060000D03*
X169065000Y-83060000D03*
D27*
X121530000Y-72980000D03*
D28*
X121530000Y-79280000D03*
X123830000Y-79280000D03*
X119230000Y-79280000D03*
D27*
X129630000Y-76520000D03*
D28*
X129630000Y-82820000D03*
X131930000Y-82820000D03*
X127330000Y-82820000D03*
D11*
X136600000Y-119500000D03*
X169000000Y-95560000D03*
X125700000Y-93500000D03*
X163850000Y-94510000D03*
X169450000Y-81300000D03*
X135730000Y-109400000D03*
X129560000Y-98120000D03*
X128500000Y-100110000D03*
X136570000Y-82600000D03*
X121110000Y-83440000D03*
X180100000Y-72199994D03*
X178300000Y-72900000D03*
X186400000Y-111000000D03*
X174900000Y-105199992D03*
X169400000Y-100900000D03*
X180300000Y-75000000D03*
X157000000Y-108180000D03*
X159210000Y-109030000D03*
X160680000Y-109660000D03*
X162610000Y-110400000D03*
D29*
X169685000Y-97990000D02*
X169685000Y-96185000D01*
X169685000Y-96185000D02*
X169060000Y-95560000D01*
X169060000Y-95560000D02*
X169000000Y-95560000D01*
X125700000Y-93500000D02*
X130340000Y-88860000D01*
X130340000Y-88860000D02*
X130340000Y-86210000D01*
X134939999Y-84959999D02*
X144490000Y-94510000D01*
X144490000Y-94510000D02*
X163850000Y-94510000D01*
X130340000Y-86210000D02*
X131590001Y-84959999D01*
X131590001Y-84959999D02*
X134939999Y-84959999D01*
X169715000Y-83060000D02*
X169715000Y-81565000D01*
X169715000Y-81565000D02*
X169450000Y-81300000D01*
D30*
X174885000Y-97990000D02*
X174885000Y-96965000D01*
X174885000Y-96965000D02*
X174900000Y-96950000D01*
X174885000Y-97990000D02*
X177130000Y-97990000D01*
X174915000Y-83060000D02*
X177060000Y-83060000D01*
X177060000Y-83060000D02*
X177100000Y-83100000D01*
X154770000Y-118440000D02*
X155782000Y-118440000D01*
X155782000Y-118440000D02*
X157310000Y-118440000D01*
X153632990Y-120085010D02*
X154770000Y-118948000D01*
X154770000Y-118948000D02*
X154770000Y-118440000D01*
X177130000Y-97990000D02*
X177180000Y-97940000D01*
X136640000Y-119540000D02*
X137185010Y-120085010D01*
X137185010Y-120085010D02*
X153632990Y-120085010D01*
X118980000Y-112295000D02*
X120250000Y-111025000D01*
X120250000Y-111025000D02*
X121520000Y-111025000D01*
D29*
X167220000Y-98220000D02*
X167220000Y-97910000D01*
X167220000Y-97910000D02*
X166400000Y-97090000D01*
X166400000Y-97090000D02*
X166400000Y-94820000D01*
X166400000Y-94820000D02*
X169700000Y-91520000D01*
X169700000Y-91520000D02*
X169700000Y-90540000D01*
X165320000Y-100730000D02*
X165320000Y-100480000D01*
X165320000Y-100480000D02*
X167220000Y-98580000D01*
X167220000Y-98580000D02*
X167220000Y-98220000D01*
X121520000Y-116105000D02*
X118005000Y-116105000D01*
X118005000Y-116105000D02*
X116500000Y-114600000D01*
X116500000Y-114600000D02*
X116500000Y-95150000D01*
X116500000Y-95150000D02*
X121550000Y-90100000D01*
X121550000Y-90100000D02*
X121550000Y-86160000D01*
X135730000Y-109400000D02*
X136740000Y-108390000D01*
X136740000Y-108390000D02*
X143560000Y-108390000D01*
X146500000Y-105320000D02*
X151090000Y-100730000D01*
X151090000Y-100730000D02*
X164395000Y-100730000D01*
X164395000Y-100730000D02*
X165320000Y-100730000D01*
X169700000Y-90540000D02*
X169700000Y-88675000D01*
X169700000Y-88675000D02*
X169715000Y-88660000D01*
X171820000Y-90560000D02*
X169720000Y-90560000D01*
X169720000Y-90560000D02*
X169700000Y-90540000D01*
X165320000Y-100730000D02*
X165320000Y-101780000D01*
X165320000Y-101780000D02*
X165750000Y-102210000D01*
X165750000Y-102210000D02*
X169380000Y-102210000D01*
X169380000Y-102210000D02*
X169685000Y-102515000D01*
X169685000Y-102515000D02*
X169685000Y-103590000D01*
X143685000Y-108390000D02*
X146500000Y-105575000D01*
X146500000Y-105575000D02*
X146500000Y-105320000D01*
X143560000Y-108390000D02*
X143685000Y-108390000D01*
D30*
X129260001Y-98419999D02*
X129560000Y-98120000D01*
X128500000Y-99180000D02*
X129260001Y-98419999D01*
X128500000Y-100110000D02*
X128500000Y-99180000D01*
D29*
X131930000Y-82820000D02*
X134490000Y-82820000D01*
X134490000Y-82820000D02*
X134720000Y-83050000D01*
X136570000Y-82600000D02*
X135170000Y-82600000D01*
X135170000Y-82600000D02*
X134720000Y-83050000D01*
X122040000Y-81600000D02*
X122165000Y-81600000D01*
X122165000Y-81600000D02*
X123830000Y-79935000D01*
X123830000Y-79935000D02*
X123830000Y-79280000D01*
X121110000Y-83440000D02*
X121110000Y-82530000D01*
X121110000Y-82530000D02*
X122040000Y-81600000D01*
X121530000Y-72980000D02*
X119900000Y-72980000D01*
X119900000Y-72980000D02*
X117610000Y-70690000D01*
X117610000Y-70690000D02*
X117610000Y-69790000D01*
X121530000Y-79280000D02*
X121530000Y-72980000D01*
X119940000Y-81590000D02*
X120065000Y-81590000D01*
X120065000Y-81590000D02*
X121530000Y-80125000D01*
X121530000Y-80125000D02*
X121530000Y-79280000D01*
X119010000Y-86160000D02*
X119010000Y-82520000D01*
X119010000Y-82520000D02*
X119940000Y-81590000D01*
X129630000Y-76520000D02*
X129910000Y-76240000D01*
X129910000Y-76240000D02*
X134420000Y-76240000D01*
X134420000Y-76240000D02*
X134740000Y-75920000D01*
X134020000Y-73920000D02*
X134920000Y-73920000D01*
X134920000Y-73920000D02*
X135140000Y-74140000D01*
X135140000Y-74140000D02*
X135140000Y-75520000D01*
X135140000Y-75520000D02*
X134740000Y-75920000D01*
X129630000Y-82820000D02*
X129630000Y-81520000D01*
X129630000Y-81520000D02*
X129630000Y-76520000D01*
X127800000Y-86210000D02*
X127800000Y-84900000D01*
X127800000Y-84900000D02*
X129630000Y-83070000D01*
X129630000Y-83070000D02*
X129630000Y-82820000D01*
D30*
X119810000Y-69790000D02*
X121780000Y-69790000D01*
X121780000Y-69790000D02*
X121810000Y-69820000D01*
X131820000Y-73920000D02*
X129830000Y-73920000D01*
X185250000Y-70180000D02*
X185250000Y-70688000D01*
X185250000Y-70688000D02*
X183738006Y-72199994D01*
X183738006Y-72199994D02*
X180524264Y-72199994D01*
X180524264Y-72199994D02*
X180100000Y-72199994D01*
X182950000Y-105430000D02*
X180009999Y-102489999D01*
X180009999Y-102489999D02*
X172579999Y-102489999D01*
X172579999Y-102489999D02*
X169035000Y-98945000D01*
X169035000Y-98945000D02*
X169035000Y-97990000D01*
X170335000Y-97990000D02*
X170335000Y-99155000D01*
X170335000Y-99155000D02*
X173219988Y-102039988D01*
X173219988Y-102039988D02*
X180599988Y-102039988D01*
X180599988Y-102039988D02*
X182750000Y-104190000D01*
X182750000Y-104190000D02*
X184250000Y-104190000D01*
X184250000Y-104190000D02*
X184640001Y-104580001D01*
X184640001Y-104580001D02*
X185490000Y-105430000D01*
X188030000Y-107970000D02*
X189205001Y-106794999D01*
X197625999Y-106794999D02*
X198754001Y-106794999D01*
X200160998Y-106800000D02*
X200165999Y-106794999D01*
X189205001Y-106794999D02*
X191134001Y-106794999D01*
X191134001Y-106794999D02*
X191139002Y-106800000D01*
X201299002Y-106800000D02*
X202630000Y-106800000D01*
X191139002Y-106800000D02*
X192540998Y-106800000D01*
X201294001Y-106794999D02*
X201299002Y-106800000D01*
X192540998Y-106800000D02*
X192545999Y-106794999D01*
X198759002Y-106800000D02*
X200160998Y-106800000D01*
X195080998Y-106800000D02*
X195085999Y-106794999D01*
X192545999Y-106794999D02*
X193674001Y-106794999D01*
X204110000Y-108280000D02*
X208110000Y-108280000D01*
X193674001Y-106794999D02*
X193679002Y-106800000D01*
X195085999Y-106794999D02*
X196214001Y-106794999D01*
X193679002Y-106800000D02*
X195080998Y-106800000D01*
X196214001Y-106794999D02*
X196219002Y-106800000D01*
X196219002Y-106800000D02*
X197620998Y-106800000D01*
X197620998Y-106800000D02*
X197625999Y-106794999D01*
X198754001Y-106794999D02*
X198759002Y-106800000D01*
X200165999Y-106794999D02*
X201294001Y-106794999D01*
X202630000Y-106800000D02*
X204110000Y-108280000D01*
X183120000Y-103610004D02*
X186210004Y-103610004D01*
X170985000Y-97990000D02*
X170985000Y-99030644D01*
X181099973Y-101589977D02*
X183120000Y-103610004D01*
X187180001Y-104580001D02*
X188030000Y-105430000D01*
X173544333Y-101589977D02*
X181099973Y-101589977D01*
X186210004Y-103610004D02*
X187180001Y-104580001D01*
X170985000Y-99030644D02*
X173544333Y-101589977D01*
X181286373Y-101139966D02*
X173730733Y-101139966D01*
X171635000Y-99015000D02*
X171635000Y-97990000D01*
X171635000Y-99044233D02*
X171635000Y-99015000D01*
X173730733Y-101139966D02*
X171635000Y-99044233D01*
X190570000Y-105430000D02*
X188299993Y-103159993D01*
X183306400Y-103159993D02*
X181286373Y-101139966D01*
X188299993Y-103159993D02*
X183306400Y-103159993D01*
X190389982Y-102709982D02*
X192260001Y-104580001D01*
X181472773Y-100689955D02*
X183492800Y-102709982D01*
X173917133Y-100689955D02*
X181472773Y-100689955D01*
X172285000Y-97990000D02*
X172285000Y-99057822D01*
X172285000Y-99057822D02*
X173917133Y-100689955D01*
X183492800Y-102709982D02*
X190389982Y-102709982D01*
X192260001Y-104580001D02*
X193110000Y-105430000D01*
X210650000Y-110820000D02*
X209270000Y-112200000D01*
X209270000Y-112200000D02*
X196700000Y-112200000D01*
X196700000Y-112200000D02*
X195600000Y-111100000D01*
X195600000Y-111100000D02*
X195600000Y-108020000D01*
X195600000Y-108020000D02*
X195650000Y-107970000D01*
X194800001Y-104580001D02*
X195650000Y-105430000D01*
X181659173Y-100239944D02*
X183679200Y-102259971D01*
X192479971Y-102259971D02*
X194800001Y-104580001D01*
X174103533Y-100239944D02*
X181659173Y-100239944D01*
X183679200Y-102259971D02*
X192479971Y-102259971D01*
X172935000Y-99071411D02*
X174103533Y-100239944D01*
X172935000Y-97990000D02*
X172935000Y-99071411D01*
X173585000Y-97990000D02*
X173585000Y-99085000D01*
X194569960Y-101809960D02*
X197340001Y-104580001D01*
X183865600Y-101809960D02*
X194569960Y-101809960D01*
X173585000Y-99085000D02*
X174289933Y-99789933D01*
X174289933Y-99789933D02*
X181845573Y-99789933D01*
X181845573Y-99789933D02*
X183865600Y-101809960D01*
X197340001Y-104580001D02*
X198190000Y-105430000D01*
X174235000Y-97990000D02*
X174235000Y-98905000D01*
X174235000Y-98905000D02*
X174669923Y-99339923D01*
X174669923Y-99339923D02*
X182031974Y-99339924D01*
X182031974Y-99339924D02*
X184052000Y-101359950D01*
X184052000Y-101359950D02*
X196659950Y-101359950D01*
X196659950Y-101359950D02*
X199880001Y-104580001D01*
X199880001Y-104580001D02*
X200730000Y-105430000D01*
X187790000Y-70180000D02*
X187790000Y-70688000D01*
X187790000Y-70688000D02*
X185578000Y-72900000D01*
X185578000Y-72900000D02*
X180425002Y-72900000D01*
X180425002Y-72900000D02*
X178300000Y-72900000D01*
D29*
X149690000Y-118440000D02*
X149690000Y-117932000D01*
X149690000Y-117932000D02*
X148428000Y-116670000D01*
X148428000Y-116670000D02*
X133090020Y-116670000D01*
X133090020Y-116670000D02*
X124100000Y-107679980D01*
X124100000Y-107679980D02*
X124100000Y-86170000D01*
X124100000Y-86170000D02*
X124090000Y-86160000D01*
X158862001Y-111299999D02*
X186100001Y-111299999D01*
X152230000Y-117932000D02*
X158862001Y-111299999D01*
X186100001Y-111299999D02*
X186400000Y-111000000D01*
X152230000Y-118440000D02*
X152230000Y-117932000D01*
X152230000Y-117932000D02*
X150098000Y-115800000D01*
X150098000Y-115800000D02*
X136970000Y-115800000D01*
X136970000Y-115800000D02*
X132880000Y-111710000D01*
X132880000Y-111710000D02*
X132880000Y-86210000D01*
D30*
X172550000Y-70180000D02*
X172550000Y-73550000D01*
X172550000Y-73550000D02*
X173800000Y-74800000D01*
X173800000Y-74800000D02*
X174950000Y-74800000D01*
X172550000Y-70688000D02*
X172550000Y-70180000D01*
X169065000Y-83060000D02*
X168390000Y-82385000D01*
X168390000Y-82385000D02*
X168390000Y-80730000D01*
X168390000Y-80730000D02*
X171610000Y-77510000D01*
X171610000Y-77510000D02*
X181767919Y-77510000D01*
X181767919Y-77510000D02*
X182970000Y-77510000D01*
X170365000Y-83060000D02*
X170365000Y-80155000D01*
X170365000Y-80155000D02*
X172340000Y-78180000D01*
X172340000Y-78180000D02*
X181480000Y-78180000D01*
X181480000Y-78180000D02*
X181985001Y-78685001D01*
X181985001Y-78685001D02*
X184334999Y-78685001D01*
X184334999Y-78685001D02*
X184660001Y-78359999D01*
X184660001Y-78359999D02*
X185510000Y-77510000D01*
X171015000Y-83060000D02*
X171015000Y-80335000D01*
X171015000Y-80335000D02*
X172620000Y-78730000D01*
X172620000Y-78730000D02*
X180510000Y-78730000D01*
X187200001Y-78359999D02*
X188050000Y-77510000D01*
X180510000Y-78730000D02*
X181370000Y-79590000D01*
X184290000Y-79420000D02*
X185024999Y-78685001D01*
X181370000Y-79590000D02*
X181370000Y-80735002D01*
X181370000Y-80735002D02*
X182154998Y-81520000D01*
X182154998Y-81520000D02*
X183680000Y-81520000D01*
X183680000Y-81520000D02*
X184290000Y-80910000D01*
X184290000Y-80910000D02*
X184290000Y-79420000D01*
X186874999Y-78685001D02*
X187200001Y-78359999D01*
X185024999Y-78685001D02*
X186874999Y-78685001D01*
D31*
X171665000Y-83060000D02*
X171665000Y-80286054D01*
X171665000Y-80286054D02*
X172781054Y-79170000D01*
X172781054Y-79170000D02*
X178820000Y-79170000D01*
X178820000Y-79170000D02*
X181630000Y-81980000D01*
X181630000Y-81980000D02*
X185282002Y-81980000D01*
X185282002Y-81980000D02*
X186660000Y-80602002D01*
X186660000Y-80602002D02*
X186660000Y-79501054D01*
X186660000Y-79501054D02*
X187261055Y-78899999D01*
X187261055Y-78899999D02*
X189200001Y-78899999D01*
X189200001Y-78899999D02*
X190590000Y-77510000D01*
X172315000Y-83060000D02*
X172315000Y-82085000D01*
X173230000Y-79610000D02*
X178694302Y-79610000D01*
X172315000Y-82085000D02*
X172320000Y-82080000D01*
X172320000Y-82080000D02*
X172320000Y-80520000D01*
X189410000Y-80450000D02*
X189410000Y-79527998D01*
X172320000Y-80520000D02*
X173230000Y-79610000D01*
X178694302Y-79610000D02*
X181624302Y-82540000D01*
X190107998Y-78830000D02*
X191810000Y-78830000D01*
X191810000Y-78830000D02*
X193130000Y-77510000D01*
X181624302Y-82540000D02*
X187320000Y-82540000D01*
X187320000Y-82540000D02*
X189410000Y-80450000D01*
X189410000Y-79527998D02*
X190107998Y-78830000D01*
X172965000Y-83060000D02*
X172965000Y-80635000D01*
X191740001Y-79737997D02*
X192577999Y-78899999D01*
X172965000Y-80635000D02*
X173589990Y-80010010D01*
X173589990Y-80010010D02*
X178528614Y-80010010D01*
X189500000Y-83030000D02*
X191740001Y-80789999D01*
X178528614Y-80010010D02*
X181548604Y-83030000D01*
X181548604Y-83030000D02*
X189500000Y-83030000D01*
X191740001Y-80789999D02*
X191740001Y-79737997D01*
X194280001Y-78899999D02*
X194820001Y-78359999D01*
X192577999Y-78899999D02*
X194280001Y-78899999D01*
X194820001Y-78359999D02*
X195670000Y-77510000D01*
X194519999Y-79530001D02*
X195389999Y-78660001D01*
X195389999Y-78660001D02*
X197059999Y-78660001D01*
X197059999Y-78660001D02*
X197360001Y-78359999D01*
X197360001Y-78359999D02*
X198210000Y-77510000D01*
X191559990Y-83430010D02*
X194519999Y-80470001D01*
X194519999Y-80470001D02*
X194519999Y-79530001D01*
X178350000Y-80480000D02*
X181300010Y-83430010D01*
X181300010Y-83430010D02*
X191559990Y-83430010D01*
X174210000Y-80480000D02*
X178350000Y-80480000D01*
X173615000Y-81075000D02*
X174210000Y-80480000D01*
X173615000Y-83060000D02*
X173615000Y-81075000D01*
X174265000Y-83060000D02*
X174265000Y-82085000D01*
X174260000Y-81400000D02*
X174510000Y-81150000D01*
X174265000Y-82085000D02*
X174260000Y-82080000D01*
X174260000Y-82080000D02*
X174260000Y-81400000D01*
X174510000Y-81150000D02*
X178350000Y-81150000D01*
X197869999Y-78660001D02*
X199599999Y-78660001D01*
X199599999Y-78660001D02*
X199900001Y-78359999D01*
X178350000Y-81150000D02*
X181110000Y-83910000D01*
X196820001Y-81079999D02*
X196820001Y-79709999D01*
X181110000Y-83910000D02*
X193990000Y-83910000D01*
X193990000Y-83910000D02*
X196820001Y-81079999D01*
X196820001Y-79709999D02*
X197869999Y-78660001D01*
X199900001Y-78359999D02*
X200750000Y-77510000D01*
D30*
X174885000Y-105184992D02*
X174900000Y-105199992D01*
X174885000Y-103590000D02*
X174885000Y-105184992D01*
X169380000Y-100920000D02*
X169400000Y-100900000D01*
X167220000Y-100920000D02*
X169380000Y-100920000D01*
X174915000Y-90165000D02*
X174915000Y-88660000D01*
X174520000Y-90560000D02*
X174915000Y-90165000D01*
X184680000Y-73970000D02*
X195630000Y-73970000D01*
X195630000Y-73970000D02*
X197950000Y-71650000D01*
X197950000Y-71650000D02*
X197950000Y-70180000D01*
X181980000Y-73970000D02*
X181130000Y-73970000D01*
X181130000Y-73970000D02*
X180300000Y-74800000D01*
X180300000Y-74800000D02*
X180300000Y-75000000D01*
X177650000Y-74800000D02*
X177850000Y-75000000D01*
X177850000Y-75000000D02*
X180300000Y-75000000D01*
X148500000Y-105320000D02*
X151050000Y-102770000D01*
X151050000Y-102770000D02*
X167140000Y-102770000D01*
X167140000Y-102770000D02*
X167960000Y-103590000D01*
X167960000Y-103590000D02*
X169035000Y-103590000D01*
X170335000Y-103590000D02*
X170335000Y-104615000D01*
X169880000Y-105070000D02*
X168250000Y-105070000D01*
X170335000Y-104615000D02*
X169880000Y-105070000D01*
X168250000Y-105070000D02*
X166400000Y-103220000D01*
X166400000Y-103220000D02*
X152600000Y-103220000D01*
X152600000Y-103220000D02*
X150500000Y-105320000D01*
X170985000Y-103590000D02*
X170985000Y-104615000D01*
X167880010Y-105520010D02*
X166230000Y-103870000D01*
X170985000Y-104615000D02*
X170079990Y-105520010D01*
X170079990Y-105520010D02*
X167880010Y-105520010D01*
X166230000Y-103870000D02*
X153920000Y-103870000D01*
X153920000Y-103870000D02*
X153920000Y-103900000D01*
X153920000Y-103900000D02*
X152500000Y-105320000D01*
X168760000Y-107490000D02*
X156670000Y-107490000D01*
X156670000Y-107490000D02*
X154500000Y-105320000D01*
X171635000Y-103590000D02*
X171635000Y-104615000D01*
X171635000Y-104615000D02*
X168760000Y-107490000D01*
X157424264Y-108180000D02*
X157000000Y-108180000D01*
X168720000Y-108180000D02*
X157424264Y-108180000D01*
X172285000Y-104615000D02*
X168720000Y-108180000D01*
X172285000Y-103590000D02*
X172285000Y-104615000D01*
X159634264Y-109030000D02*
X159210000Y-109030000D01*
X168520000Y-109030000D02*
X159634264Y-109030000D01*
X172935000Y-104615000D02*
X168520000Y-109030000D01*
X172935000Y-103590000D02*
X172935000Y-104615000D01*
X168540000Y-109660000D02*
X160680000Y-109660000D01*
X173585000Y-103590000D02*
X173585000Y-104615000D01*
X173585000Y-104615000D02*
X168540000Y-109660000D01*
X173585000Y-103590000D02*
X173590000Y-103595000D01*
X162610000Y-110400000D02*
X168450000Y-110400000D01*
X168450000Y-110400000D02*
X174235000Y-104615000D01*
X174235000Y-104615000D02*
X174235000Y-103590000D01*
D31*
X169065000Y-88660000D02*
X169065000Y-87785000D01*
X169065000Y-87785000D02*
X168700000Y-87420000D01*
X168700000Y-87420000D02*
X148520000Y-87420000D01*
X148520000Y-87420000D02*
X146500000Y-85400000D01*
X146500000Y-85400000D02*
X146500000Y-83320000D01*
X170365000Y-88660000D02*
X170365000Y-87585000D01*
X170365000Y-87585000D02*
X169700000Y-86920000D01*
X169700000Y-86920000D02*
X150220000Y-86920000D01*
X150220000Y-86920000D02*
X148500000Y-85200000D01*
X148500000Y-85200000D02*
X148500000Y-83320000D01*
X171015000Y-88660000D02*
X171015000Y-87685000D01*
X171015000Y-87685000D02*
X171010000Y-87680000D01*
X171010000Y-87680000D02*
X171010000Y-86620000D01*
X150500000Y-85600000D02*
X150500000Y-83320000D01*
X171010000Y-86620000D02*
X170880010Y-86490010D01*
X170880010Y-86490010D02*
X151390010Y-86490010D01*
X151390010Y-86490010D02*
X150500000Y-85600000D01*
X152500000Y-83320000D02*
X152500000Y-84900000D01*
X165360000Y-86090000D02*
X171310000Y-86090000D01*
X152500000Y-84900000D02*
X153680010Y-86080010D01*
X153680010Y-86080010D02*
X165350010Y-86080010D01*
X165350010Y-86080010D02*
X165360000Y-86090000D01*
X171310000Y-86090000D02*
X171660000Y-86440000D01*
X171660000Y-86440000D02*
X171660000Y-87680000D01*
X171660000Y-87680000D02*
X171665000Y-87685000D01*
X171665000Y-87685000D02*
X171665000Y-88660000D01*
X172315000Y-88660000D02*
X172315000Y-86395000D01*
X172315000Y-86395000D02*
X171600000Y-85680000D01*
X154500000Y-84900000D02*
X154500000Y-83320000D01*
X171600000Y-85680000D02*
X155280000Y-85680000D01*
X155280000Y-85680000D02*
X154500000Y-84900000D01*
D30*
X156500000Y-83320000D02*
X156500000Y-84309949D01*
X156500000Y-84309949D02*
X156509949Y-84309949D01*
X156509949Y-84309949D02*
X157454990Y-85254990D01*
X157454990Y-85254990D02*
X172288580Y-85254990D01*
X172288580Y-85254990D02*
X172965000Y-85931410D01*
X172965000Y-85931410D02*
X172965000Y-88660000D01*
X158500000Y-83320000D02*
X158500000Y-84309949D01*
X158500000Y-84309949D02*
X158940062Y-84750011D01*
X158940062Y-84750011D02*
X172420011Y-84750011D01*
X172420011Y-84750011D02*
X173615000Y-85945000D01*
X173615000Y-85945000D02*
X173615000Y-88660000D01*
X174265000Y-88660000D02*
X174265000Y-85775000D01*
X174265000Y-85775000D02*
X172700001Y-84210001D01*
X172700001Y-84210001D02*
X167810001Y-84210001D01*
X167810001Y-84210001D02*
X165500000Y-81900000D01*
X165500000Y-81900000D02*
X161600000Y-81900000D01*
X161600000Y-81900000D02*
X160500000Y-83000000D01*
X160500000Y-83000000D02*
X160500000Y-83320000D01*
D32*
G36*
X127486955Y-68919411D02*
X127147887Y-69735978D01*
X127147115Y-70620143D01*
X127484758Y-71437300D01*
X128109411Y-72063045D01*
X128925978Y-72402113D01*
X129810143Y-72402885D01*
X130627300Y-72065242D01*
X131253045Y-71440589D01*
X131535818Y-70759596D01*
X131635340Y-71259930D01*
X131938172Y-71713149D01*
X132391391Y-72015981D01*
X132926000Y-72122321D01*
X133460609Y-72015981D01*
X133913828Y-71713149D01*
X134196000Y-71290850D01*
X134478172Y-71713149D01*
X134931391Y-72015981D01*
X135466000Y-72122321D01*
X136000609Y-72015981D01*
X136453828Y-71713149D01*
X136736000Y-71290850D01*
X137018172Y-71713149D01*
X137471391Y-72015981D01*
X138006000Y-72122321D01*
X138540609Y-72015981D01*
X138993828Y-71713149D01*
X139285330Y-71276887D01*
X139303941Y-71339941D01*
X139647974Y-71765630D01*
X140128723Y-72027260D01*
X140202930Y-72042220D01*
X140419000Y-71919720D01*
X140419000Y-70307000D01*
X140399000Y-70307000D01*
X140399000Y-70053000D01*
X140419000Y-70053000D01*
X140419000Y-70033000D01*
X140673000Y-70033000D01*
X140673000Y-70053000D01*
X140693000Y-70053000D01*
X140693000Y-70307000D01*
X140673000Y-70307000D01*
X140673000Y-71919720D01*
X140889070Y-72042220D01*
X140963277Y-72027260D01*
X141444026Y-71765630D01*
X141788059Y-71339941D01*
X141806670Y-71276887D01*
X142098172Y-71713149D01*
X142551391Y-72015981D01*
X143086000Y-72122321D01*
X143620609Y-72015981D01*
X144073828Y-71713149D01*
X144356000Y-71290850D01*
X144638172Y-71713149D01*
X145091391Y-72015981D01*
X145626000Y-72122321D01*
X146160609Y-72015981D01*
X146613828Y-71713149D01*
X146896000Y-71290850D01*
X147178172Y-71713149D01*
X147631391Y-72015981D01*
X148166000Y-72122321D01*
X148700609Y-72015981D01*
X149153828Y-71713149D01*
X149436000Y-71290850D01*
X149718172Y-71713149D01*
X150171391Y-72015981D01*
X150706000Y-72122321D01*
X151240609Y-72015981D01*
X151693828Y-71713149D01*
X151976000Y-71290850D01*
X152258172Y-71713149D01*
X152711391Y-72015981D01*
X153246000Y-72122321D01*
X153780609Y-72015981D01*
X154233828Y-71713149D01*
X154516000Y-71290850D01*
X154798172Y-71713149D01*
X155251391Y-72015981D01*
X155786000Y-72122321D01*
X156320609Y-72015981D01*
X156773828Y-71713149D01*
X157076660Y-71259930D01*
X157183000Y-70725321D01*
X157183000Y-69634679D01*
X157076660Y-69100070D01*
X156773828Y-68646851D01*
X156320609Y-68344019D01*
X156275267Y-68335000D01*
X159360733Y-68335000D01*
X159315391Y-68344019D01*
X158862172Y-68646851D01*
X158559340Y-69100070D01*
X158453000Y-69634679D01*
X158453000Y-70725321D01*
X158559340Y-71259930D01*
X158862172Y-71713149D01*
X159315391Y-72015981D01*
X159850000Y-72122321D01*
X160384609Y-72015981D01*
X160837828Y-71713149D01*
X161120000Y-71290850D01*
X161402172Y-71713149D01*
X161855391Y-72015981D01*
X162390000Y-72122321D01*
X162924609Y-72015981D01*
X163377828Y-71713149D01*
X163660000Y-71290850D01*
X163942172Y-71713149D01*
X164395391Y-72015981D01*
X164930000Y-72122321D01*
X165464609Y-72015981D01*
X165917828Y-71713149D01*
X166200000Y-71290850D01*
X166482172Y-71713149D01*
X166935391Y-72015981D01*
X167470000Y-72122321D01*
X168004609Y-72015981D01*
X168457828Y-71713149D01*
X168740000Y-71290850D01*
X169022172Y-71713149D01*
X169475391Y-72015981D01*
X170010000Y-72122321D01*
X170544609Y-72015981D01*
X170997828Y-71713149D01*
X171280000Y-71290850D01*
X171562172Y-71713149D01*
X171790000Y-71865379D01*
X171790000Y-73550000D01*
X171847852Y-73840839D01*
X172012599Y-74087401D01*
X173262599Y-75337401D01*
X173509161Y-75502148D01*
X173564441Y-75513144D01*
X173596838Y-75685317D01*
X173735910Y-75901441D01*
X173948110Y-76046431D01*
X174200000Y-76097440D01*
X175700000Y-76097440D01*
X175935317Y-76053162D01*
X176151441Y-75914090D01*
X176296431Y-75701890D01*
X176299081Y-75688803D01*
X176435910Y-75901441D01*
X176648110Y-76046431D01*
X176900000Y-76097440D01*
X178400000Y-76097440D01*
X178635317Y-76053162D01*
X178851441Y-75914090D01*
X178956726Y-75760000D01*
X179737537Y-75760000D01*
X179769673Y-75792192D01*
X180113201Y-75934838D01*
X180485167Y-75935162D01*
X180828943Y-75793117D01*
X181092192Y-75530327D01*
X181203575Y-75262089D01*
X181230000Y-75267440D01*
X182730000Y-75267440D01*
X182965317Y-75223162D01*
X183181441Y-75084090D01*
X183326431Y-74871890D01*
X183329081Y-74858803D01*
X183465910Y-75071441D01*
X183678110Y-75216431D01*
X183930000Y-75267440D01*
X185430000Y-75267440D01*
X185665317Y-75223162D01*
X185881441Y-75084090D01*
X186026431Y-74871890D01*
X186055164Y-74730000D01*
X195630000Y-74730000D01*
X195920839Y-74672148D01*
X196167401Y-74507401D01*
X198487401Y-72187401D01*
X198652148Y-71940840D01*
X198660591Y-71898393D01*
X198937828Y-71713149D01*
X199220000Y-71290850D01*
X199502172Y-71713149D01*
X199955391Y-72015981D01*
X200490000Y-72122321D01*
X201024609Y-72015981D01*
X201477828Y-71713149D01*
X201780660Y-71259930D01*
X201887000Y-70725321D01*
X201887000Y-69634679D01*
X201780660Y-69100070D01*
X201477828Y-68646851D01*
X201024609Y-68344019D01*
X200979267Y-68335000D01*
X203002388Y-68335000D01*
X202416955Y-68919411D01*
X202077887Y-69735978D01*
X202077115Y-70620143D01*
X202414758Y-71437300D01*
X203039411Y-72063045D01*
X203855978Y-72402113D01*
X204740143Y-72402885D01*
X205557300Y-72065242D01*
X206183045Y-71440589D01*
X206522113Y-70624022D01*
X206522885Y-69739857D01*
X206185242Y-68922700D01*
X205598568Y-68335000D01*
X210376264Y-68335000D01*
X210824416Y-68783152D01*
X210373339Y-68782758D01*
X209859697Y-68994990D01*
X209466371Y-69387630D01*
X209380051Y-69595512D01*
X209295010Y-69389697D01*
X208902370Y-68996371D01*
X208389100Y-68783243D01*
X207833339Y-68782758D01*
X207319697Y-68994990D01*
X206926371Y-69387630D01*
X206713243Y-69900900D01*
X206712758Y-70456661D01*
X206924990Y-70970303D01*
X207317630Y-71363629D01*
X207525512Y-71449949D01*
X207319697Y-71534990D01*
X206926371Y-71927630D01*
X206713243Y-72440900D01*
X206712758Y-72996661D01*
X206924990Y-73510303D01*
X207317630Y-73903629D01*
X207525512Y-73989949D01*
X207319697Y-74074990D01*
X206926371Y-74467630D01*
X206713243Y-74980900D01*
X206712758Y-75536661D01*
X206924990Y-76050303D01*
X207317630Y-76443629D01*
X207525512Y-76529949D01*
X207319697Y-76614990D01*
X206926371Y-77007630D01*
X206713243Y-77520900D01*
X206712758Y-78076661D01*
X206924990Y-78590303D01*
X207317630Y-78983629D01*
X207525512Y-79069949D01*
X207319697Y-79154990D01*
X206926371Y-79547630D01*
X206713243Y-80060900D01*
X206712758Y-80616661D01*
X206924990Y-81130303D01*
X207317630Y-81523629D01*
X207525512Y-81609949D01*
X207319697Y-81694990D01*
X206926371Y-82087630D01*
X206713243Y-82600900D01*
X206712758Y-83156661D01*
X206924990Y-83670303D01*
X207317630Y-84063629D01*
X207525512Y-84149949D01*
X207319697Y-84234990D01*
X206926371Y-84627630D01*
X206713243Y-85140900D01*
X206712758Y-85696661D01*
X206924990Y-86210303D01*
X207317630Y-86603629D01*
X207525512Y-86689949D01*
X207319697Y-86774990D01*
X206926371Y-87167630D01*
X206713243Y-87680900D01*
X206712758Y-88236661D01*
X206924990Y-88750303D01*
X207317630Y-89143629D01*
X207525512Y-89229949D01*
X207319697Y-89314990D01*
X206926371Y-89707630D01*
X206713243Y-90220900D01*
X206712758Y-90776661D01*
X206924990Y-91290303D01*
X207317630Y-91683629D01*
X207525512Y-91769949D01*
X207319697Y-91854990D01*
X206926371Y-92247630D01*
X206713243Y-92760900D01*
X206712758Y-93316661D01*
X206924990Y-93830303D01*
X207317630Y-94223629D01*
X207525512Y-94309949D01*
X207319697Y-94394990D01*
X206926371Y-94787630D01*
X206713243Y-95300900D01*
X206712758Y-95856661D01*
X206924990Y-96370303D01*
X207317630Y-96763629D01*
X207525512Y-96849949D01*
X207319697Y-96934990D01*
X206926371Y-97327630D01*
X206713243Y-97840900D01*
X206712758Y-98396661D01*
X206924990Y-98910303D01*
X207317630Y-99303629D01*
X207525512Y-99389949D01*
X207319697Y-99474990D01*
X206926371Y-99867630D01*
X206713243Y-100380900D01*
X206712758Y-100936661D01*
X206924990Y-101450303D01*
X207317630Y-101843629D01*
X207525512Y-101929949D01*
X207319697Y-102014990D01*
X206926371Y-102407630D01*
X206713243Y-102920900D01*
X206712758Y-103476661D01*
X206924990Y-103990303D01*
X207317630Y-104383629D01*
X207525512Y-104469949D01*
X207319697Y-104554990D01*
X206926371Y-104947630D01*
X206713243Y-105460900D01*
X206712758Y-106016661D01*
X206924990Y-106530303D01*
X207317630Y-106923629D01*
X207525512Y-107009949D01*
X207319697Y-107094990D01*
X206926371Y-107487630D01*
X206912930Y-107520000D01*
X204424802Y-107520000D01*
X203167401Y-106262599D01*
X202920839Y-106097852D01*
X202630000Y-106040000D01*
X202093527Y-106040000D01*
X202101961Y-106027378D01*
X202215000Y-105459093D01*
X202215000Y-105400907D01*
X202101961Y-104832622D01*
X201780054Y-104350853D01*
X201298285Y-104028946D01*
X200730000Y-103915907D01*
X200363592Y-103988790D01*
X197197351Y-100822549D01*
X196950789Y-100657802D01*
X196659950Y-100599950D01*
X184366802Y-100599950D01*
X182569375Y-98802523D01*
X182322813Y-98637776D01*
X182031974Y-98579924D01*
X175645000Y-98579923D01*
X175645000Y-98275750D01*
X175486250Y-98117000D01*
X175007440Y-98117000D01*
X175007440Y-97863000D01*
X175486250Y-97863000D01*
X175645000Y-97704250D01*
X175645000Y-97088691D01*
X175548327Y-96855302D01*
X175369699Y-96676673D01*
X175136310Y-96580000D01*
X175106250Y-96580000D01*
X174947500Y-96738750D01*
X174947500Y-96955344D01*
X174824090Y-96763559D01*
X174822500Y-96762473D01*
X174822500Y-96738750D01*
X174663750Y-96580000D01*
X174633690Y-96580000D01*
X174563993Y-96608870D01*
X174360000Y-96567560D01*
X174110000Y-96567560D01*
X173902658Y-96606574D01*
X173710000Y-96567560D01*
X173460000Y-96567560D01*
X173252658Y-96606574D01*
X173060000Y-96567560D01*
X172810000Y-96567560D01*
X172602658Y-96606574D01*
X172410000Y-96567560D01*
X172160000Y-96567560D01*
X171952658Y-96606574D01*
X171760000Y-96567560D01*
X171510000Y-96567560D01*
X171302658Y-96606574D01*
X171110000Y-96567560D01*
X170860000Y-96567560D01*
X170652658Y-96606574D01*
X170470000Y-96569585D01*
X170470000Y-96185000D01*
X170410245Y-95884594D01*
X170240079Y-95629921D01*
X170240076Y-95629919D01*
X169900076Y-95289919D01*
X169793117Y-95031057D01*
X169530327Y-94767808D01*
X169186799Y-94625162D01*
X168814833Y-94624838D01*
X168471057Y-94766883D01*
X168207808Y-95029673D01*
X168065162Y-95373201D01*
X168064838Y-95745167D01*
X168206883Y-96088943D01*
X168469673Y-96352192D01*
X168813201Y-96494838D01*
X168884743Y-96494900D01*
X168900000Y-96510157D01*
X168900000Y-96569442D01*
X168674683Y-96611838D01*
X168458559Y-96750910D01*
X168313569Y-96963110D01*
X168306199Y-96999502D01*
X168121890Y-96873569D01*
X167870000Y-96822560D01*
X167242718Y-96822560D01*
X167185000Y-96764842D01*
X167185000Y-95145158D01*
X170255079Y-92075079D01*
X170425245Y-91820406D01*
X170426830Y-91812440D01*
X170450000Y-91812440D01*
X170685317Y-91768162D01*
X170724861Y-91742716D01*
X170818110Y-91806431D01*
X171070000Y-91857440D01*
X172570000Y-91857440D01*
X172805317Y-91813162D01*
X173021441Y-91674090D01*
X173166431Y-91461890D01*
X173169081Y-91448803D01*
X173305910Y-91661441D01*
X173518110Y-91806431D01*
X173770000Y-91857440D01*
X175270000Y-91857440D01*
X175505317Y-91813162D01*
X175721441Y-91674090D01*
X175866431Y-91461890D01*
X175917440Y-91210000D01*
X175917440Y-90776661D01*
X176232758Y-90776661D01*
X176444990Y-91290303D01*
X176837630Y-91683629D01*
X177045512Y-91769949D01*
X176839697Y-91854990D01*
X176446371Y-92247630D01*
X176233243Y-92760900D01*
X176232758Y-93316661D01*
X176444990Y-93830303D01*
X176837630Y-94223629D01*
X177045512Y-94309949D01*
X176839697Y-94394990D01*
X176446371Y-94787630D01*
X176233243Y-95300900D01*
X176232758Y-95856661D01*
X176444990Y-96370303D01*
X176837630Y-96763629D01*
X177350900Y-96976757D01*
X177906661Y-96977242D01*
X178420303Y-96765010D01*
X178813629Y-96372370D01*
X178899949Y-96164488D01*
X178984990Y-96370303D01*
X179377630Y-96763629D01*
X179890900Y-96976757D01*
X180446661Y-96977242D01*
X180960303Y-96765010D01*
X181353629Y-96372370D01*
X181566757Y-95859100D01*
X181567242Y-95303339D01*
X181355010Y-94789697D01*
X180962370Y-94396371D01*
X180754488Y-94310051D01*
X180960303Y-94225010D01*
X181353629Y-93832370D01*
X181566757Y-93319100D01*
X181567242Y-92763339D01*
X181355010Y-92249697D01*
X180962370Y-91856371D01*
X180754488Y-91770051D01*
X180960303Y-91685010D01*
X181353629Y-91292370D01*
X181566757Y-90779100D01*
X181567242Y-90223339D01*
X181355010Y-89709697D01*
X180962370Y-89316371D01*
X180449100Y-89103243D01*
X179893339Y-89102758D01*
X179379697Y-89314990D01*
X178986371Y-89707630D01*
X178900051Y-89915512D01*
X178815010Y-89709697D01*
X178422370Y-89316371D01*
X177909100Y-89103243D01*
X177353339Y-89102758D01*
X176839697Y-89314990D01*
X176446371Y-89707630D01*
X176233243Y-90220900D01*
X176232758Y-90776661D01*
X175917440Y-90776661D01*
X175917440Y-89910000D01*
X175873162Y-89674683D01*
X175734090Y-89458559D01*
X175687440Y-89426684D01*
X175687440Y-87885000D01*
X175643162Y-87649683D01*
X175504090Y-87433559D01*
X175291890Y-87288569D01*
X175040000Y-87237560D01*
X175025000Y-87237560D01*
X175025000Y-85775000D01*
X174967148Y-85484161D01*
X174802401Y-85237599D01*
X174023688Y-84458886D01*
X174140000Y-84482440D01*
X174390000Y-84482440D01*
X174598850Y-84443142D01*
X174663690Y-84470000D01*
X174693750Y-84470000D01*
X174852500Y-84311250D01*
X174852500Y-84282905D01*
X174977500Y-84099961D01*
X174977500Y-84311250D01*
X175136250Y-84470000D01*
X175166310Y-84470000D01*
X175399699Y-84373327D01*
X175578327Y-84194698D01*
X175675000Y-83961309D01*
X175675000Y-83345750D01*
X175516250Y-83187000D01*
X175037440Y-83187000D01*
X175037440Y-82933000D01*
X175516250Y-82933000D01*
X175675000Y-82774250D01*
X175675000Y-82158691D01*
X175578327Y-81925302D01*
X175538025Y-81885000D01*
X178045554Y-81885000D01*
X179392225Y-83231671D01*
X178658700Y-83534758D01*
X178032955Y-84159411D01*
X177693887Y-84975978D01*
X177693115Y-85860143D01*
X178030758Y-86677300D01*
X178655411Y-87303045D01*
X179471978Y-87642113D01*
X180356143Y-87642885D01*
X181173300Y-87305242D01*
X181799045Y-86680589D01*
X182138113Y-85864022D01*
X182138885Y-84979857D01*
X182000525Y-84645000D01*
X193990000Y-84645000D01*
X194271272Y-84589051D01*
X194509723Y-84429723D01*
X197339725Y-81599722D01*
X197499052Y-81361271D01*
X197500025Y-81356380D01*
X197641715Y-81451054D01*
X198210000Y-81564093D01*
X198778285Y-81451054D01*
X199260054Y-81129147D01*
X199480000Y-80799974D01*
X199699946Y-81129147D01*
X200181715Y-81451054D01*
X200750000Y-81564093D01*
X201318285Y-81451054D01*
X201800054Y-81129147D01*
X202121961Y-80647378D01*
X202235000Y-80079093D01*
X202235000Y-80020907D01*
X202121961Y-79452622D01*
X201800054Y-78970853D01*
X201514422Y-78780000D01*
X201800054Y-78589147D01*
X202121961Y-78107378D01*
X202235000Y-77539093D01*
X202235000Y-77480907D01*
X202121961Y-76912622D01*
X201800054Y-76430853D01*
X201318285Y-76108946D01*
X200750000Y-75995907D01*
X200181715Y-76108946D01*
X199699946Y-76430853D01*
X199480000Y-76760026D01*
X199260054Y-76430853D01*
X198778285Y-76108946D01*
X198210000Y-75995907D01*
X197641715Y-76108946D01*
X197159946Y-76430853D01*
X196940000Y-76760026D01*
X196720054Y-76430853D01*
X196238285Y-76108946D01*
X195670000Y-75995907D01*
X195101715Y-76108946D01*
X194619946Y-76430853D01*
X194400000Y-76760026D01*
X194180054Y-76430853D01*
X193698285Y-76108946D01*
X193130000Y-75995907D01*
X192561715Y-76108946D01*
X192079946Y-76430853D01*
X191860000Y-76760026D01*
X191640054Y-76430853D01*
X191158285Y-76108946D01*
X190590000Y-75995907D01*
X190021715Y-76108946D01*
X189539946Y-76430853D01*
X189320000Y-76760026D01*
X189100054Y-76430853D01*
X188618285Y-76108946D01*
X188050000Y-75995907D01*
X187481715Y-76108946D01*
X186999946Y-76430853D01*
X186780000Y-76760026D01*
X186560054Y-76430853D01*
X186078285Y-76108946D01*
X185510000Y-75995907D01*
X184941715Y-76108946D01*
X184459946Y-76430853D01*
X184240000Y-76760026D01*
X184020054Y-76430853D01*
X183538285Y-76108946D01*
X182970000Y-75995907D01*
X182401715Y-76108946D01*
X181919946Y-76430853D01*
X181706699Y-76750000D01*
X171610000Y-76750000D01*
X171319161Y-76807852D01*
X171072599Y-76972599D01*
X167852599Y-80192599D01*
X167687852Y-80439161D01*
X167630000Y-80730000D01*
X167630000Y-82385000D01*
X167687852Y-82675839D01*
X167852599Y-82922401D01*
X168292560Y-83362362D01*
X168292560Y-83450001D01*
X168124803Y-83450001D01*
X166037401Y-81362599D01*
X165790839Y-81197852D01*
X165500000Y-81140000D01*
X161600000Y-81140000D01*
X161309161Y-81197852D01*
X161062599Y-81362599D01*
X160440251Y-81984947D01*
X160235617Y-81984769D01*
X159744771Y-82187582D01*
X159499902Y-82432024D01*
X159257204Y-82188902D01*
X158766713Y-81985232D01*
X158235617Y-81984769D01*
X157744771Y-82187582D01*
X157499902Y-82432024D01*
X157257204Y-82188902D01*
X156766713Y-81985232D01*
X156235617Y-81984769D01*
X155744771Y-82187582D01*
X155499902Y-82432024D01*
X155257204Y-82188902D01*
X154766713Y-81985232D01*
X154235617Y-81984769D01*
X153744771Y-82187582D01*
X153499902Y-82432024D01*
X153257204Y-82188902D01*
X152766713Y-81985232D01*
X152235617Y-81984769D01*
X151744771Y-82187582D01*
X151499902Y-82432024D01*
X151257204Y-82188902D01*
X150766713Y-81985232D01*
X150235617Y-81984769D01*
X149744771Y-82187582D01*
X149499902Y-82432024D01*
X149257204Y-82188902D01*
X148766713Y-81985232D01*
X148235617Y-81984769D01*
X147744771Y-82187582D01*
X147499902Y-82432024D01*
X147257204Y-82188902D01*
X146766713Y-81985232D01*
X146235617Y-81984769D01*
X145744771Y-82187582D01*
X145368902Y-82562796D01*
X145165232Y-83053287D01*
X145164769Y-83584383D01*
X145367582Y-84075229D01*
X145742796Y-84451098D01*
X145765000Y-84460318D01*
X145765000Y-85400000D01*
X145816088Y-85656836D01*
X145820949Y-85681272D01*
X145980277Y-85919723D01*
X148000276Y-87939723D01*
X148238727Y-88099051D01*
X148268238Y-88104921D01*
X148520000Y-88155000D01*
X168292560Y-88155000D01*
X168292560Y-89369574D01*
X168076309Y-89280000D01*
X167485750Y-89280000D01*
X167327000Y-89438750D01*
X167327000Y-90413000D01*
X167347000Y-90413000D01*
X167347000Y-90667000D01*
X167327000Y-90667000D01*
X167327000Y-91641250D01*
X167485750Y-91800000D01*
X168076309Y-91800000D01*
X168309698Y-91703327D01*
X168450936Y-91562090D01*
X168485910Y-91616441D01*
X168490360Y-91619482D01*
X165844921Y-94264921D01*
X165674755Y-94519593D01*
X165674755Y-94519594D01*
X165615000Y-94820000D01*
X165615000Y-96845000D01*
X165605750Y-96845000D01*
X165447000Y-97003750D01*
X165447000Y-98103000D01*
X165467000Y-98103000D01*
X165467000Y-98357000D01*
X165447000Y-98357000D01*
X165447000Y-98377000D01*
X165193000Y-98377000D01*
X165193000Y-98357000D01*
X164218750Y-98357000D01*
X164060000Y-98515750D01*
X164060000Y-99106309D01*
X164156673Y-99339698D01*
X164297910Y-99480936D01*
X164243559Y-99515910D01*
X164098569Y-99728110D01*
X164054648Y-99945000D01*
X151090000Y-99945000D01*
X150789593Y-100004755D01*
X150534921Y-100174921D01*
X146724647Y-103985195D01*
X146235617Y-103984769D01*
X145744771Y-104187582D01*
X145368902Y-104562796D01*
X145165232Y-105053287D01*
X145164769Y-105584383D01*
X145227833Y-105737009D01*
X143847282Y-107117560D01*
X142810000Y-107117560D01*
X142574683Y-107161838D01*
X142358559Y-107300910D01*
X142213569Y-107513110D01*
X142194961Y-107605000D01*
X136740000Y-107605000D01*
X136439594Y-107664755D01*
X136184921Y-107834921D01*
X135554995Y-108464847D01*
X135544833Y-108464838D01*
X135201057Y-108606883D01*
X134937808Y-108869673D01*
X134795162Y-109213201D01*
X134794838Y-109585167D01*
X134936883Y-109928943D01*
X135199673Y-110192192D01*
X135543201Y-110334838D01*
X135915167Y-110335162D01*
X136258943Y-110193117D01*
X136522192Y-109930327D01*
X136664838Y-109586799D01*
X136664848Y-109575310D01*
X137065158Y-109175000D01*
X142192666Y-109175000D01*
X142206838Y-109250317D01*
X142345910Y-109466441D01*
X142558110Y-109611431D01*
X142810000Y-109662440D01*
X144310000Y-109662440D01*
X144545317Y-109618162D01*
X144761441Y-109479090D01*
X144807969Y-109410994D01*
X144950302Y-109553327D01*
X145183691Y-109650000D01*
X145774250Y-109650000D01*
X145933000Y-109491250D01*
X145933000Y-108517000D01*
X146187000Y-108517000D01*
X146187000Y-109491250D01*
X146345750Y-109650000D01*
X146936309Y-109650000D01*
X147169698Y-109553327D01*
X147348327Y-109374699D01*
X147445000Y-109141310D01*
X147445000Y-108675750D01*
X147286250Y-108517000D01*
X146187000Y-108517000D01*
X145933000Y-108517000D01*
X145913000Y-108517000D01*
X145913000Y-108263000D01*
X145933000Y-108263000D01*
X145933000Y-107288750D01*
X146187000Y-107288750D01*
X146187000Y-108263000D01*
X147286250Y-108263000D01*
X147445000Y-108104250D01*
X147445000Y-107638690D01*
X147348327Y-107405301D01*
X147169698Y-107226673D01*
X146936309Y-107130000D01*
X146345750Y-107130000D01*
X146187000Y-107288750D01*
X145933000Y-107288750D01*
X145914704Y-107270454D01*
X146530131Y-106655027D01*
X146764383Y-106655231D01*
X147255229Y-106452418D01*
X147500098Y-106207976D01*
X147742796Y-106451098D01*
X148233287Y-106654768D01*
X148764383Y-106655231D01*
X149255229Y-106452418D01*
X149500098Y-106207976D01*
X149742796Y-106451098D01*
X150233287Y-106654768D01*
X150764383Y-106655231D01*
X151255229Y-106452418D01*
X151500098Y-106207976D01*
X151742796Y-106451098D01*
X152233287Y-106654768D01*
X152764383Y-106655231D01*
X153255229Y-106452418D01*
X153500098Y-106207976D01*
X153742796Y-106451098D01*
X154233287Y-106654768D01*
X154760426Y-106655228D01*
X156074914Y-107969716D01*
X156065162Y-107993201D01*
X156064838Y-108365167D01*
X156206883Y-108708943D01*
X156469673Y-108972192D01*
X156813201Y-109114838D01*
X157185167Y-109115162D01*
X157528943Y-108973117D01*
X157562118Y-108940000D01*
X158275078Y-108940000D01*
X158274838Y-109215167D01*
X158416883Y-109558943D01*
X158679673Y-109822192D01*
X159023201Y-109964838D01*
X159395167Y-109965162D01*
X159738943Y-109823117D01*
X159744862Y-109817208D01*
X159744838Y-109845167D01*
X159886883Y-110188943D01*
X160149673Y-110452192D01*
X160300928Y-110514999D01*
X158862001Y-110514999D01*
X158561595Y-110574754D01*
X158306922Y-110744920D01*
X152500381Y-116551461D01*
X152230000Y-116497679D01*
X151959619Y-116551461D01*
X150653079Y-115244921D01*
X150398407Y-115074755D01*
X150098000Y-115015000D01*
X143319643Y-115015000D01*
X143571961Y-114637378D01*
X143685000Y-114069093D01*
X143685000Y-114010907D01*
X143571961Y-113442622D01*
X143250054Y-112960853D01*
X142964422Y-112770000D01*
X143250054Y-112579147D01*
X143571961Y-112097378D01*
X143685000Y-111529093D01*
X143685000Y-111470907D01*
X143571961Y-110902622D01*
X143250054Y-110420853D01*
X142768285Y-110098946D01*
X142200000Y-109985907D01*
X141631715Y-110098946D01*
X141149946Y-110420853D01*
X140930000Y-110750026D01*
X140710054Y-110420853D01*
X140228285Y-110098946D01*
X139660000Y-109985907D01*
X139091715Y-110098946D01*
X138609946Y-110420853D01*
X138288039Y-110902622D01*
X138175000Y-111470907D01*
X138175000Y-111529093D01*
X138288039Y-112097378D01*
X138609946Y-112579147D01*
X138611179Y-112579971D01*
X138574683Y-112586838D01*
X138358559Y-112725910D01*
X138213569Y-112938110D01*
X138162560Y-113190000D01*
X138162560Y-114890000D01*
X138186080Y-115015000D01*
X137295157Y-115015000D01*
X133665000Y-111384842D01*
X133665000Y-97353691D01*
X164060000Y-97353691D01*
X164060000Y-97944250D01*
X164218750Y-98103000D01*
X165193000Y-98103000D01*
X165193000Y-97003750D01*
X165034250Y-96845000D01*
X164568690Y-96845000D01*
X164335301Y-96941673D01*
X164156673Y-97120302D01*
X164060000Y-97353691D01*
X133665000Y-97353691D01*
X133665000Y-87466250D01*
X133930054Y-87289147D01*
X134251961Y-86807378D01*
X134365000Y-86239093D01*
X134365000Y-86180907D01*
X134278292Y-85744999D01*
X134614841Y-85744999D01*
X143934921Y-95065079D01*
X144189594Y-95235245D01*
X144490000Y-95295000D01*
X163312494Y-95295000D01*
X163319673Y-95302192D01*
X163663201Y-95444838D01*
X164035167Y-95445162D01*
X164378943Y-95303117D01*
X164642192Y-95040327D01*
X164784838Y-94696799D01*
X164785162Y-94324833D01*
X164643117Y-93981057D01*
X164380327Y-93717808D01*
X164036799Y-93575162D01*
X163664833Y-93574838D01*
X163321057Y-93716883D01*
X163312926Y-93725000D01*
X144815158Y-93725000D01*
X141915908Y-90825750D01*
X165815000Y-90825750D01*
X165815000Y-91291310D01*
X165911673Y-91524699D01*
X166090302Y-91703327D01*
X166323691Y-91800000D01*
X166914250Y-91800000D01*
X167073000Y-91641250D01*
X167073000Y-90667000D01*
X165973750Y-90667000D01*
X165815000Y-90825750D01*
X141915908Y-90825750D01*
X140878848Y-89788690D01*
X165815000Y-89788690D01*
X165815000Y-90254250D01*
X165973750Y-90413000D01*
X167073000Y-90413000D01*
X167073000Y-89438750D01*
X166914250Y-89280000D01*
X166323691Y-89280000D01*
X166090302Y-89376673D01*
X165911673Y-89555301D01*
X165815000Y-89788690D01*
X140878848Y-89788690D01*
X135507097Y-84416939D01*
X135580317Y-84403162D01*
X135796441Y-84264090D01*
X135941431Y-84051890D01*
X135992440Y-83800000D01*
X135992440Y-83385000D01*
X136032494Y-83385000D01*
X136039673Y-83392192D01*
X136383201Y-83534838D01*
X136755167Y-83535162D01*
X137098943Y-83393117D01*
X137362192Y-83130327D01*
X137504838Y-82786799D01*
X137505162Y-82414833D01*
X137363117Y-82071057D01*
X137100327Y-81807808D01*
X136756799Y-81665162D01*
X136384833Y-81664838D01*
X136041057Y-81806883D01*
X136032926Y-81815000D01*
X135759975Y-81815000D01*
X135740994Y-81802031D01*
X135883327Y-81659698D01*
X135980000Y-81426309D01*
X135980000Y-80835750D01*
X135821250Y-80677000D01*
X134847000Y-80677000D01*
X134847000Y-80697000D01*
X134593000Y-80697000D01*
X134593000Y-80677000D01*
X134573000Y-80677000D01*
X134573000Y-80423000D01*
X134593000Y-80423000D01*
X134593000Y-79666250D01*
X134613000Y-79646250D01*
X134613000Y-79323750D01*
X134847000Y-79323750D01*
X134847000Y-80423000D01*
X135821250Y-80423000D01*
X135980000Y-80264250D01*
X135980000Y-79673691D01*
X135911842Y-79509142D01*
X136000000Y-79296309D01*
X136000000Y-78705750D01*
X135841250Y-78547000D01*
X134867000Y-78547000D01*
X134867000Y-79303750D01*
X134847000Y-79323750D01*
X134613000Y-79323750D01*
X134613000Y-78547000D01*
X134593000Y-78547000D01*
X134593000Y-78293000D01*
X134613000Y-78293000D01*
X134613000Y-78273000D01*
X134867000Y-78273000D01*
X134867000Y-78293000D01*
X135841250Y-78293000D01*
X136000000Y-78134250D01*
X136000000Y-77543691D01*
X135903327Y-77310302D01*
X135762090Y-77169064D01*
X135816441Y-77134090D01*
X135961431Y-76921890D01*
X136012440Y-76670000D01*
X136012440Y-75170000D01*
X135968162Y-74934683D01*
X135925000Y-74867607D01*
X135925000Y-74320907D01*
X138335000Y-74320907D01*
X138335000Y-74379093D01*
X138448039Y-74947378D01*
X138769946Y-75429147D01*
X139055578Y-75620000D01*
X138769946Y-75810853D01*
X138448039Y-76292622D01*
X138335000Y-76860907D01*
X138335000Y-76919093D01*
X138448039Y-77487378D01*
X138769946Y-77969147D01*
X139251715Y-78291054D01*
X139820000Y-78404093D01*
X140388285Y-78291054D01*
X140870054Y-77969147D01*
X141090000Y-77639974D01*
X141309946Y-77969147D01*
X141791715Y-78291054D01*
X142360000Y-78404093D01*
X142928285Y-78291054D01*
X143410054Y-77969147D01*
X143731961Y-77487378D01*
X143845000Y-76919093D01*
X143845000Y-76860907D01*
X143731961Y-76292622D01*
X143410054Y-75810853D01*
X143408821Y-75810029D01*
X143445317Y-75803162D01*
X143661441Y-75664090D01*
X143806431Y-75451890D01*
X143857440Y-75200000D01*
X143857440Y-73500000D01*
X143813162Y-73264683D01*
X143674090Y-73048559D01*
X143461890Y-72903569D01*
X143210000Y-72852560D01*
X141510000Y-72852560D01*
X141274683Y-72896838D01*
X141058559Y-73035910D01*
X140913569Y-73248110D01*
X140899914Y-73315541D01*
X140870054Y-73270853D01*
X140388285Y-72948946D01*
X139820000Y-72835907D01*
X139251715Y-72948946D01*
X138769946Y-73270853D01*
X138448039Y-73752622D01*
X138335000Y-74320907D01*
X135925000Y-74320907D01*
X135925000Y-74140000D01*
X135920377Y-74116757D01*
X135865245Y-73839593D01*
X135695079Y-73584921D01*
X135475079Y-73364921D01*
X135247248Y-73212690D01*
X135223162Y-73084683D01*
X135084090Y-72868559D01*
X134871890Y-72723569D01*
X134620000Y-72672560D01*
X133420000Y-72672560D01*
X133184683Y-72716838D01*
X132968559Y-72855910D01*
X132920866Y-72925711D01*
X132884090Y-72868559D01*
X132671890Y-72723569D01*
X132420000Y-72672560D01*
X131220000Y-72672560D01*
X130984683Y-72716838D01*
X130938608Y-72746486D01*
X130831890Y-72673569D01*
X130580000Y-72622560D01*
X129080000Y-72622560D01*
X128844683Y-72666838D01*
X128628559Y-72805910D01*
X128483569Y-73018110D01*
X128476809Y-73051490D01*
X128418327Y-72910301D01*
X128239698Y-72731673D01*
X128006309Y-72635000D01*
X127415750Y-72635000D01*
X127257000Y-72793750D01*
X127257000Y-73793000D01*
X127277000Y-73793000D01*
X127277000Y-74047000D01*
X127257000Y-74047000D01*
X127257000Y-75046250D01*
X127273729Y-75062979D01*
X127133569Y-75268110D01*
X127082560Y-75520000D01*
X127082560Y-77520000D01*
X127126838Y-77755317D01*
X127265910Y-77971441D01*
X127478110Y-78116431D01*
X127730000Y-78167440D01*
X128845000Y-78167440D01*
X128845000Y-81179146D01*
X128644683Y-81216838D01*
X128480508Y-81322482D01*
X128439699Y-81281673D01*
X128206310Y-81185000D01*
X127615750Y-81185000D01*
X127457000Y-81343750D01*
X127457000Y-82693000D01*
X127477000Y-82693000D01*
X127477000Y-82947000D01*
X127457000Y-82947000D01*
X127457000Y-82967000D01*
X127203000Y-82967000D01*
X127203000Y-82947000D01*
X126103750Y-82947000D01*
X125945000Y-83105750D01*
X125945000Y-83251270D01*
X124885619Y-82860000D01*
X125416309Y-82860000D01*
X125649698Y-82763327D01*
X125828327Y-82584699D01*
X125925000Y-82351310D01*
X125925000Y-81885750D01*
X125766250Y-81727000D01*
X124667000Y-81727000D01*
X124667000Y-81747000D01*
X124413000Y-81747000D01*
X124413000Y-81727000D01*
X124393000Y-81727000D01*
X124393000Y-81693691D01*
X125945000Y-81693691D01*
X125945000Y-82534250D01*
X126103750Y-82693000D01*
X127203000Y-82693000D01*
X127203000Y-81343750D01*
X127044250Y-81185000D01*
X126453690Y-81185000D01*
X126220301Y-81281673D01*
X126041673Y-81460302D01*
X125945000Y-81693691D01*
X124393000Y-81693691D01*
X124393000Y-81473000D01*
X124413000Y-81473000D01*
X124413000Y-81453000D01*
X124667000Y-81453000D01*
X124667000Y-81473000D01*
X125766250Y-81473000D01*
X125925000Y-81314250D01*
X125925000Y-80848690D01*
X125828327Y-80615301D01*
X125649698Y-80436673D01*
X125625080Y-80426476D01*
X125555961Y-74205750D01*
X125745000Y-74205750D01*
X125745000Y-74696310D01*
X125841673Y-74929699D01*
X126020302Y-75108327D01*
X126253691Y-75205000D01*
X126844250Y-75205000D01*
X127003000Y-75046250D01*
X127003000Y-74047000D01*
X125903750Y-74047000D01*
X125745000Y-74205750D01*
X125555961Y-74205750D01*
X125544160Y-73143690D01*
X125745000Y-73143690D01*
X125745000Y-73634250D01*
X125903750Y-73793000D01*
X127003000Y-73793000D01*
X127003000Y-72793750D01*
X126844250Y-72635000D01*
X126253691Y-72635000D01*
X126020302Y-72731673D01*
X125841673Y-72910301D01*
X125745000Y-73143690D01*
X125544160Y-73143690D01*
X125529507Y-71824965D01*
X125613592Y-71656796D01*
X125627000Y-71600000D01*
X125627000Y-71001025D01*
X125798327Y-70829699D01*
X125895000Y-70596310D01*
X125895000Y-70105750D01*
X125736250Y-69947000D01*
X124637000Y-69947000D01*
X124637000Y-69967000D01*
X124383000Y-69967000D01*
X124383000Y-69947000D01*
X124363000Y-69947000D01*
X124363000Y-69693000D01*
X124383000Y-69693000D01*
X124383000Y-68693750D01*
X124637000Y-68693750D01*
X124637000Y-69693000D01*
X125736250Y-69693000D01*
X125895000Y-69534250D01*
X125895000Y-69043690D01*
X125798327Y-68810301D01*
X125619698Y-68631673D01*
X125386309Y-68535000D01*
X124795750Y-68535000D01*
X124637000Y-68693750D01*
X124383000Y-68693750D01*
X124224250Y-68535000D01*
X123633691Y-68535000D01*
X123400302Y-68631673D01*
X123221673Y-68810301D01*
X123165346Y-68946287D01*
X123163162Y-68934683D01*
X123024090Y-68718559D01*
X122811890Y-68573569D01*
X122560000Y-68522560D01*
X121060000Y-68522560D01*
X120824683Y-68566838D01*
X120720698Y-68633751D01*
X120661890Y-68593569D01*
X120410000Y-68542560D01*
X119210000Y-68542560D01*
X118974683Y-68586838D01*
X118758559Y-68725910D01*
X118710866Y-68795711D01*
X118674090Y-68738559D01*
X118461890Y-68593569D01*
X118210000Y-68542560D01*
X117010000Y-68542560D01*
X116774683Y-68586838D01*
X116558559Y-68725910D01*
X116413569Y-68938110D01*
X116362560Y-69190000D01*
X116362560Y-70390000D01*
X116373606Y-70448705D01*
X116473010Y-78301607D01*
X116481685Y-78346159D01*
X116508965Y-78388553D01*
X116550590Y-78416994D01*
X116600000Y-78427000D01*
X117845000Y-78427000D01*
X117845000Y-78994250D01*
X118003750Y-79153000D01*
X119103000Y-79153000D01*
X119103000Y-79133000D01*
X119357000Y-79133000D01*
X119357000Y-79153000D01*
X119377000Y-79153000D01*
X119377000Y-79407000D01*
X119357000Y-79407000D01*
X119357000Y-79427000D01*
X119103000Y-79427000D01*
X119103000Y-79407000D01*
X118003750Y-79407000D01*
X117845000Y-79565750D01*
X117845000Y-80330000D01*
X117725750Y-80330000D01*
X117567000Y-80488750D01*
X117567000Y-81463000D01*
X117587000Y-81463000D01*
X117587000Y-81717000D01*
X117567000Y-81717000D01*
X117567000Y-82691250D01*
X117725750Y-82850000D01*
X118225000Y-82850000D01*
X118225000Y-84662560D01*
X118160000Y-84662560D01*
X117924683Y-84706838D01*
X117708559Y-84845910D01*
X117563569Y-85058110D01*
X117512560Y-85310000D01*
X117512560Y-87010000D01*
X117556838Y-87245317D01*
X117695910Y-87461441D01*
X117908110Y-87606431D01*
X118160000Y-87657440D01*
X119860000Y-87657440D01*
X120095317Y-87613162D01*
X120311441Y-87474090D01*
X120456431Y-87261890D01*
X120470086Y-87194459D01*
X120499946Y-87239147D01*
X120765000Y-87416250D01*
X120765000Y-89774843D01*
X115944921Y-94594921D01*
X115774755Y-94849593D01*
X115731892Y-95065079D01*
X115715000Y-95150000D01*
X115715000Y-114600000D01*
X115774755Y-114900407D01*
X115944921Y-115155079D01*
X117449921Y-116660079D01*
X117704594Y-116830245D01*
X118005000Y-116890000D01*
X120346651Y-116890000D01*
X120734436Y-117278461D01*
X121243298Y-117489759D01*
X121794285Y-117490240D01*
X122303515Y-117279831D01*
X122693461Y-116890564D01*
X122904759Y-116381702D01*
X122905240Y-115830715D01*
X122694831Y-115321485D01*
X122305564Y-114931539D01*
X122073130Y-114835024D01*
X122303515Y-114739831D01*
X122693461Y-114350564D01*
X122904759Y-113841702D01*
X122905240Y-113290715D01*
X122694831Y-112781485D01*
X122305564Y-112391539D01*
X122089021Y-112301623D01*
X122243923Y-112237460D01*
X122311912Y-111996517D01*
X121527000Y-111211605D01*
X121527000Y-111025000D01*
X121699605Y-111025000D01*
X122491517Y-111816912D01*
X122732460Y-111748923D01*
X122917201Y-111229829D01*
X122889230Y-110679552D01*
X122732460Y-110301077D01*
X122491517Y-110233088D01*
X121699605Y-111025000D01*
X121527000Y-111025000D01*
X121527000Y-110838395D01*
X122311912Y-110053483D01*
X122243923Y-109812540D01*
X122077379Y-109753268D01*
X122303515Y-109659831D01*
X122693461Y-109270564D01*
X122904759Y-108761702D01*
X122905240Y-108210715D01*
X122694831Y-107701485D01*
X122305564Y-107311539D01*
X121796702Y-107100241D01*
X121245715Y-107099760D01*
X120736485Y-107310169D01*
X120346539Y-107699436D01*
X120135241Y-108208298D01*
X120134878Y-108624113D01*
X119938653Y-108754930D01*
X119765564Y-108581539D01*
X119533130Y-108485024D01*
X119763515Y-108389831D01*
X120153461Y-108000564D01*
X120364759Y-107491702D01*
X120365240Y-106940715D01*
X120154831Y-106431485D01*
X119765564Y-106041539D01*
X119256702Y-105830241D01*
X118705715Y-105829760D01*
X118196485Y-106040169D01*
X117806539Y-106429436D01*
X117595241Y-106938298D01*
X117594760Y-107489285D01*
X117805169Y-107998515D01*
X118194436Y-108388461D01*
X118426870Y-108484976D01*
X118196485Y-108580169D01*
X117806539Y-108969436D01*
X117595241Y-109478298D01*
X117594760Y-110029285D01*
X117805169Y-110538515D01*
X118194436Y-110928461D01*
X118410979Y-111018377D01*
X118256077Y-111082540D01*
X118188088Y-111323483D01*
X118980000Y-112115395D01*
X118994143Y-112101253D01*
X119173748Y-112280858D01*
X119159605Y-112295000D01*
X119173748Y-112309143D01*
X118994143Y-112488748D01*
X118980000Y-112474605D01*
X118188088Y-113266517D01*
X118256077Y-113507460D01*
X118422621Y-113566732D01*
X118196485Y-113660169D01*
X117806539Y-114049436D01*
X117595241Y-114558298D01*
X117595218Y-114585060D01*
X117285000Y-114274842D01*
X117285000Y-112090171D01*
X117582799Y-112090171D01*
X117610770Y-112640448D01*
X117767540Y-113018923D01*
X118008483Y-113086912D01*
X118800395Y-112295000D01*
X118008483Y-111503088D01*
X117767540Y-111571077D01*
X117582799Y-112090171D01*
X117285000Y-112090171D01*
X117285000Y-95475158D01*
X122105076Y-90655081D01*
X122105079Y-90655079D01*
X122275245Y-90400406D01*
X122335000Y-90100000D01*
X122335000Y-87416250D01*
X122600054Y-87239147D01*
X122820000Y-86909974D01*
X123039946Y-87239147D01*
X123315000Y-87422932D01*
X123315000Y-107679980D01*
X123374755Y-107980387D01*
X123544921Y-108235059D01*
X132534941Y-117225079D01*
X132789613Y-117395245D01*
X133090020Y-117455000D01*
X140760457Y-117455000D01*
X140673000Y-117894679D01*
X140673000Y-118985321D01*
X140779340Y-119519930D01*
X141082172Y-119973149D01*
X141535391Y-120275981D01*
X141681280Y-120305000D01*
X129377577Y-120305000D01*
X129983045Y-119700589D01*
X130322113Y-118884022D01*
X130322885Y-117999857D01*
X129985242Y-117182700D01*
X129360589Y-116556955D01*
X128544022Y-116217887D01*
X127659857Y-116217115D01*
X126842700Y-116554758D01*
X126216955Y-117179411D01*
X125877887Y-117995978D01*
X125877115Y-118880143D01*
X126214758Y-119697300D01*
X126821397Y-120305000D01*
X111010259Y-120305000D01*
X111225908Y-119724539D01*
X111212641Y-119366013D01*
X111277242Y-119430726D01*
X112153513Y-119794585D01*
X113102325Y-119795413D01*
X113979229Y-119433084D01*
X114650726Y-118762758D01*
X115014585Y-117886487D01*
X115015413Y-116937675D01*
X114653084Y-116060771D01*
X113982758Y-115389274D01*
X113106487Y-115025415D01*
X112157675Y-115024587D01*
X111280771Y-115386916D01*
X110609274Y-116057242D01*
X110245415Y-116933513D01*
X110244587Y-117882325D01*
X110283827Y-117977293D01*
X109844539Y-117814092D01*
X109194540Y-117838144D01*
X108705736Y-118040613D01*
X108607073Y-118307468D01*
X109580000Y-119280395D01*
X109594143Y-119266253D01*
X109773748Y-119445858D01*
X109759605Y-119460000D01*
X109773748Y-119474143D01*
X109594143Y-119653748D01*
X109580000Y-119639605D01*
X109565858Y-119653748D01*
X109386253Y-119474143D01*
X109400395Y-119460000D01*
X108427468Y-118487073D01*
X108160613Y-118585736D01*
X107934092Y-119195461D01*
X107958144Y-119845460D01*
X108148491Y-120305000D01*
X104815000Y-120305000D01*
X104815000Y-105012532D01*
X108607073Y-105012532D01*
X108705736Y-105279387D01*
X109315461Y-105505908D01*
X109965460Y-105481856D01*
X110279325Y-105351849D01*
X110245415Y-105433513D01*
X110244587Y-106382325D01*
X110606916Y-107259229D01*
X111277242Y-107930726D01*
X112153513Y-108294585D01*
X113102325Y-108295413D01*
X113979229Y-107933084D01*
X114650726Y-107262758D01*
X115014585Y-106386487D01*
X115015413Y-105437675D01*
X114653084Y-104560771D01*
X113982758Y-103889274D01*
X113106487Y-103525415D01*
X112157675Y-103524587D01*
X111280771Y-103886916D01*
X111219383Y-103948197D01*
X111201856Y-103474540D01*
X110999387Y-102985736D01*
X110732532Y-102887073D01*
X109759605Y-103860000D01*
X109773748Y-103874143D01*
X109594143Y-104053748D01*
X109580000Y-104039605D01*
X108607073Y-105012532D01*
X104815000Y-105012532D01*
X104815000Y-103595461D01*
X107934092Y-103595461D01*
X107958144Y-104245460D01*
X108160613Y-104734264D01*
X108427468Y-104832927D01*
X109400395Y-103860000D01*
X108427468Y-102887073D01*
X108160613Y-102985736D01*
X107934092Y-103595461D01*
X104815000Y-103595461D01*
X104815000Y-102707468D01*
X108607073Y-102707468D01*
X109580000Y-103680395D01*
X110552927Y-102707468D01*
X110454264Y-102440613D01*
X109844539Y-102214092D01*
X109194540Y-102238144D01*
X108705736Y-102440613D01*
X108607073Y-102707468D01*
X104815000Y-102707468D01*
X104815000Y-95023207D01*
X108434665Y-95023207D01*
X108728630Y-95734658D01*
X109272479Y-96279457D01*
X109983416Y-96574663D01*
X110753207Y-96575335D01*
X111464658Y-96281370D01*
X112009457Y-95737521D01*
X112304663Y-95026584D01*
X112305335Y-94256793D01*
X112011370Y-93545342D01*
X111467521Y-93000543D01*
X110756584Y-92705337D01*
X109986793Y-92704665D01*
X109275342Y-92998630D01*
X108730543Y-93542479D01*
X108435337Y-94253416D01*
X108434665Y-95023207D01*
X104815000Y-95023207D01*
X104815000Y-90929459D01*
X109180146Y-90929459D01*
X109315504Y-91227455D01*
X110033880Y-91504066D01*
X110803427Y-91484710D01*
X111424496Y-91227455D01*
X111559854Y-90929459D01*
X110370000Y-89739605D01*
X109180146Y-90929459D01*
X104815000Y-90929459D01*
X104815000Y-89223880D01*
X108425934Y-89223880D01*
X108445290Y-89993427D01*
X108702545Y-90614496D01*
X109000541Y-90749854D01*
X110190395Y-89560000D01*
X110549605Y-89560000D01*
X111739459Y-90749854D01*
X112037455Y-90614496D01*
X112314066Y-89896120D01*
X112294710Y-89126573D01*
X112037455Y-88505504D01*
X111739459Y-88370146D01*
X110549605Y-89560000D01*
X110190395Y-89560000D01*
X109000541Y-88370146D01*
X108702545Y-88505504D01*
X108425934Y-89223880D01*
X104815000Y-89223880D01*
X104815000Y-88190541D01*
X109180146Y-88190541D01*
X110370000Y-89380395D01*
X111559854Y-88190541D01*
X111424496Y-87892545D01*
X110706120Y-87615934D01*
X109936573Y-87635290D01*
X109315504Y-87892545D01*
X109180146Y-88190541D01*
X104815000Y-88190541D01*
X104815000Y-84863207D01*
X108434665Y-84863207D01*
X108728630Y-85574658D01*
X109272479Y-86119457D01*
X109983416Y-86414663D01*
X110753207Y-86415335D01*
X111464658Y-86121370D01*
X112009457Y-85577521D01*
X112304663Y-84866584D01*
X112305335Y-84096793D01*
X112011370Y-83385342D01*
X111467521Y-82840543D01*
X110756584Y-82545337D01*
X109986793Y-82544665D01*
X109275342Y-82838630D01*
X108730543Y-83382479D01*
X108435337Y-84093416D01*
X108434665Y-84863207D01*
X104815000Y-84863207D01*
X104815000Y-81875750D01*
X116055000Y-81875750D01*
X116055000Y-82341310D01*
X116151673Y-82574699D01*
X116330302Y-82753327D01*
X116563691Y-82850000D01*
X117154250Y-82850000D01*
X117313000Y-82691250D01*
X117313000Y-81717000D01*
X116213750Y-81717000D01*
X116055000Y-81875750D01*
X104815000Y-81875750D01*
X104815000Y-80838690D01*
X116055000Y-80838690D01*
X116055000Y-81304250D01*
X116213750Y-81463000D01*
X117313000Y-81463000D01*
X117313000Y-80488750D01*
X117154250Y-80330000D01*
X116563691Y-80330000D01*
X116330302Y-80426673D01*
X116151673Y-80605301D01*
X116055000Y-80838690D01*
X104815000Y-80838690D01*
X104815000Y-77373207D01*
X108344665Y-77373207D01*
X108638630Y-78084658D01*
X109182479Y-78629457D01*
X109893416Y-78924663D01*
X110663207Y-78925335D01*
X111374658Y-78631370D01*
X111919457Y-78087521D01*
X112214663Y-77376584D01*
X112215335Y-76606793D01*
X111921370Y-75895342D01*
X111377521Y-75350543D01*
X110666584Y-75055337D01*
X109896793Y-75054665D01*
X109185342Y-75348630D01*
X108640543Y-75892479D01*
X108345337Y-76603416D01*
X108344665Y-77373207D01*
X104815000Y-77373207D01*
X104815000Y-73279459D01*
X109090146Y-73279459D01*
X109225504Y-73577455D01*
X109943880Y-73854066D01*
X110713427Y-73834710D01*
X111334496Y-73577455D01*
X111469854Y-73279459D01*
X110280000Y-72089605D01*
X109090146Y-73279459D01*
X104815000Y-73279459D01*
X104815000Y-71573880D01*
X108335934Y-71573880D01*
X108355290Y-72343427D01*
X108612545Y-72964496D01*
X108910541Y-73099854D01*
X110100395Y-71910000D01*
X110459605Y-71910000D01*
X111649459Y-73099854D01*
X111947455Y-72964496D01*
X112224066Y-72246120D01*
X112204710Y-71476573D01*
X111947455Y-70855504D01*
X111649459Y-70720146D01*
X110459605Y-71910000D01*
X110100395Y-71910000D01*
X108910541Y-70720146D01*
X108612545Y-70855504D01*
X108335934Y-71573880D01*
X104815000Y-71573880D01*
X104815000Y-70540541D01*
X109090146Y-70540541D01*
X110280000Y-71730395D01*
X111469854Y-70540541D01*
X111334496Y-70242545D01*
X110616120Y-69965934D01*
X109846573Y-69985290D01*
X109225504Y-70242545D01*
X109090146Y-70540541D01*
X104815000Y-70540541D01*
X104815000Y-68335000D01*
X128072388Y-68335000D01*
X127486955Y-68919411D01*
X127486955Y-68919411D01*
G37*
X127486955Y-68919411D02*
X127147887Y-69735978D01*
X127147115Y-70620143D01*
X127484758Y-71437300D01*
X128109411Y-72063045D01*
X128925978Y-72402113D01*
X129810143Y-72402885D01*
X130627300Y-72065242D01*
X131253045Y-71440589D01*
X131535818Y-70759596D01*
X131635340Y-71259930D01*
X131938172Y-71713149D01*
X132391391Y-72015981D01*
X132926000Y-72122321D01*
X133460609Y-72015981D01*
X133913828Y-71713149D01*
X134196000Y-71290850D01*
X134478172Y-71713149D01*
X134931391Y-72015981D01*
X135466000Y-72122321D01*
X136000609Y-72015981D01*
X136453828Y-71713149D01*
X136736000Y-71290850D01*
X137018172Y-71713149D01*
X137471391Y-72015981D01*
X138006000Y-72122321D01*
X138540609Y-72015981D01*
X138993828Y-71713149D01*
X139285330Y-71276887D01*
X139303941Y-71339941D01*
X139647974Y-71765630D01*
X140128723Y-72027260D01*
X140202930Y-72042220D01*
X140419000Y-71919720D01*
X140419000Y-70307000D01*
X140399000Y-70307000D01*
X140399000Y-70053000D01*
X140419000Y-70053000D01*
X140419000Y-70033000D01*
X140673000Y-70033000D01*
X140673000Y-70053000D01*
X140693000Y-70053000D01*
X140693000Y-70307000D01*
X140673000Y-70307000D01*
X140673000Y-71919720D01*
X140889070Y-72042220D01*
X140963277Y-72027260D01*
X141444026Y-71765630D01*
X141788059Y-71339941D01*
X141806670Y-71276887D01*
X142098172Y-71713149D01*
X142551391Y-72015981D01*
X143086000Y-72122321D01*
X143620609Y-72015981D01*
X144073828Y-71713149D01*
X144356000Y-71290850D01*
X144638172Y-71713149D01*
X145091391Y-72015981D01*
X145626000Y-72122321D01*
X146160609Y-72015981D01*
X146613828Y-71713149D01*
X146896000Y-71290850D01*
X147178172Y-71713149D01*
X147631391Y-72015981D01*
X148166000Y-72122321D01*
X148700609Y-72015981D01*
X149153828Y-71713149D01*
X149436000Y-71290850D01*
X149718172Y-71713149D01*
X150171391Y-72015981D01*
X150706000Y-72122321D01*
X151240609Y-72015981D01*
X151693828Y-71713149D01*
X151976000Y-71290850D01*
X152258172Y-71713149D01*
X152711391Y-72015981D01*
X153246000Y-72122321D01*
X153780609Y-72015981D01*
X154233828Y-71713149D01*
X154516000Y-71290850D01*
X154798172Y-71713149D01*
X155251391Y-72015981D01*
X155786000Y-72122321D01*
X156320609Y-72015981D01*
X156773828Y-71713149D01*
X157076660Y-71259930D01*
X157183000Y-70725321D01*
X157183000Y-69634679D01*
X157076660Y-69100070D01*
X156773828Y-68646851D01*
X156320609Y-68344019D01*
X156275267Y-68335000D01*
X159360733Y-68335000D01*
X159315391Y-68344019D01*
X158862172Y-68646851D01*
X158559340Y-69100070D01*
X158453000Y-69634679D01*
X158453000Y-70725321D01*
X158559340Y-71259930D01*
X158862172Y-71713149D01*
X159315391Y-72015981D01*
X159850000Y-72122321D01*
X160384609Y-72015981D01*
X160837828Y-71713149D01*
X161120000Y-71290850D01*
X161402172Y-71713149D01*
X161855391Y-72015981D01*
X162390000Y-72122321D01*
X162924609Y-72015981D01*
X163377828Y-71713149D01*
X163660000Y-71290850D01*
X163942172Y-71713149D01*
X164395391Y-72015981D01*
X164930000Y-72122321D01*
X165464609Y-72015981D01*
X165917828Y-71713149D01*
X166200000Y-71290850D01*
X166482172Y-71713149D01*
X166935391Y-72015981D01*
X167470000Y-72122321D01*
X168004609Y-72015981D01*
X168457828Y-71713149D01*
X168740000Y-71290850D01*
X169022172Y-71713149D01*
X169475391Y-72015981D01*
X170010000Y-72122321D01*
X170544609Y-72015981D01*
X170997828Y-71713149D01*
X171280000Y-71290850D01*
X171562172Y-71713149D01*
X171790000Y-71865379D01*
X171790000Y-73550000D01*
X171847852Y-73840839D01*
X172012599Y-74087401D01*
X173262599Y-75337401D01*
X173509161Y-75502148D01*
X173564441Y-75513144D01*
X173596838Y-75685317D01*
X173735910Y-75901441D01*
X173948110Y-76046431D01*
X174200000Y-76097440D01*
X175700000Y-76097440D01*
X175935317Y-76053162D01*
X176151441Y-75914090D01*
X176296431Y-75701890D01*
X176299081Y-75688803D01*
X176435910Y-75901441D01*
X176648110Y-76046431D01*
X176900000Y-76097440D01*
X178400000Y-76097440D01*
X178635317Y-76053162D01*
X178851441Y-75914090D01*
X178956726Y-75760000D01*
X179737537Y-75760000D01*
X179769673Y-75792192D01*
X180113201Y-75934838D01*
X180485167Y-75935162D01*
X180828943Y-75793117D01*
X181092192Y-75530327D01*
X181203575Y-75262089D01*
X181230000Y-75267440D01*
X182730000Y-75267440D01*
X182965317Y-75223162D01*
X183181441Y-75084090D01*
X183326431Y-74871890D01*
X183329081Y-74858803D01*
X183465910Y-75071441D01*
X183678110Y-75216431D01*
X183930000Y-75267440D01*
X185430000Y-75267440D01*
X185665317Y-75223162D01*
X185881441Y-75084090D01*
X186026431Y-74871890D01*
X186055164Y-74730000D01*
X195630000Y-74730000D01*
X195920839Y-74672148D01*
X196167401Y-74507401D01*
X198487401Y-72187401D01*
X198652148Y-71940840D01*
X198660591Y-71898393D01*
X198937828Y-71713149D01*
X199220000Y-71290850D01*
X199502172Y-71713149D01*
X199955391Y-72015981D01*
X200490000Y-72122321D01*
X201024609Y-72015981D01*
X201477828Y-71713149D01*
X201780660Y-71259930D01*
X201887000Y-70725321D01*
X201887000Y-69634679D01*
X201780660Y-69100070D01*
X201477828Y-68646851D01*
X201024609Y-68344019D01*
X200979267Y-68335000D01*
X203002388Y-68335000D01*
X202416955Y-68919411D01*
X202077887Y-69735978D01*
X202077115Y-70620143D01*
X202414758Y-71437300D01*
X203039411Y-72063045D01*
X203855978Y-72402113D01*
X204740143Y-72402885D01*
X205557300Y-72065242D01*
X206183045Y-71440589D01*
X206522113Y-70624022D01*
X206522885Y-69739857D01*
X206185242Y-68922700D01*
X205598568Y-68335000D01*
X210376264Y-68335000D01*
X210824416Y-68783152D01*
X210373339Y-68782758D01*
X209859697Y-68994990D01*
X209466371Y-69387630D01*
X209380051Y-69595512D01*
X209295010Y-69389697D01*
X208902370Y-68996371D01*
X208389100Y-68783243D01*
X207833339Y-68782758D01*
X207319697Y-68994990D01*
X206926371Y-69387630D01*
X206713243Y-69900900D01*
X206712758Y-70456661D01*
X206924990Y-70970303D01*
X207317630Y-71363629D01*
X207525512Y-71449949D01*
X207319697Y-71534990D01*
X206926371Y-71927630D01*
X206713243Y-72440900D01*
X206712758Y-72996661D01*
X206924990Y-73510303D01*
X207317630Y-73903629D01*
X207525512Y-73989949D01*
X207319697Y-74074990D01*
X206926371Y-74467630D01*
X206713243Y-74980900D01*
X206712758Y-75536661D01*
X206924990Y-76050303D01*
X207317630Y-76443629D01*
X207525512Y-76529949D01*
X207319697Y-76614990D01*
X206926371Y-77007630D01*
X206713243Y-77520900D01*
X206712758Y-78076661D01*
X206924990Y-78590303D01*
X207317630Y-78983629D01*
X207525512Y-79069949D01*
X207319697Y-79154990D01*
X206926371Y-79547630D01*
X206713243Y-80060900D01*
X206712758Y-80616661D01*
X206924990Y-81130303D01*
X207317630Y-81523629D01*
X207525512Y-81609949D01*
X207319697Y-81694990D01*
X206926371Y-82087630D01*
X206713243Y-82600900D01*
X206712758Y-83156661D01*
X206924990Y-83670303D01*
X207317630Y-84063629D01*
X207525512Y-84149949D01*
X207319697Y-84234990D01*
X206926371Y-84627630D01*
X206713243Y-85140900D01*
X206712758Y-85696661D01*
X206924990Y-86210303D01*
X207317630Y-86603629D01*
X207525512Y-86689949D01*
X207319697Y-86774990D01*
X206926371Y-87167630D01*
X206713243Y-87680900D01*
X206712758Y-88236661D01*
X206924990Y-88750303D01*
X207317630Y-89143629D01*
X207525512Y-89229949D01*
X207319697Y-89314990D01*
X206926371Y-89707630D01*
X206713243Y-90220900D01*
X206712758Y-90776661D01*
X206924990Y-91290303D01*
X207317630Y-91683629D01*
X207525512Y-91769949D01*
X207319697Y-91854990D01*
X206926371Y-92247630D01*
X206713243Y-92760900D01*
X206712758Y-93316661D01*
X206924990Y-93830303D01*
X207317630Y-94223629D01*
X207525512Y-94309949D01*
X207319697Y-94394990D01*
X206926371Y-94787630D01*
X206713243Y-95300900D01*
X206712758Y-95856661D01*
X206924990Y-96370303D01*
X207317630Y-96763629D01*
X207525512Y-96849949D01*
X207319697Y-96934990D01*
X206926371Y-97327630D01*
X206713243Y-97840900D01*
X206712758Y-98396661D01*
X206924990Y-98910303D01*
X207317630Y-99303629D01*
X207525512Y-99389949D01*
X207319697Y-99474990D01*
X206926371Y-99867630D01*
X206713243Y-100380900D01*
X206712758Y-100936661D01*
X206924990Y-101450303D01*
X207317630Y-101843629D01*
X207525512Y-101929949D01*
X207319697Y-102014990D01*
X206926371Y-102407630D01*
X206713243Y-102920900D01*
X206712758Y-103476661D01*
X206924990Y-103990303D01*
X207317630Y-104383629D01*
X207525512Y-104469949D01*
X207319697Y-104554990D01*
X206926371Y-104947630D01*
X206713243Y-105460900D01*
X206712758Y-106016661D01*
X206924990Y-106530303D01*
X207317630Y-106923629D01*
X207525512Y-107009949D01*
X207319697Y-107094990D01*
X206926371Y-107487630D01*
X206912930Y-107520000D01*
X204424802Y-107520000D01*
X203167401Y-106262599D01*
X202920839Y-106097852D01*
X202630000Y-106040000D01*
X202093527Y-106040000D01*
X202101961Y-106027378D01*
X202215000Y-105459093D01*
X202215000Y-105400907D01*
X202101961Y-104832622D01*
X201780054Y-104350853D01*
X201298285Y-104028946D01*
X200730000Y-103915907D01*
X200363592Y-103988790D01*
X197197351Y-100822549D01*
X196950789Y-100657802D01*
X196659950Y-100599950D01*
X184366802Y-100599950D01*
X182569375Y-98802523D01*
X182322813Y-98637776D01*
X182031974Y-98579924D01*
X175645000Y-98579923D01*
X175645000Y-98275750D01*
X175486250Y-98117000D01*
X175007440Y-98117000D01*
X175007440Y-97863000D01*
X175486250Y-97863000D01*
X175645000Y-97704250D01*
X175645000Y-97088691D01*
X175548327Y-96855302D01*
X175369699Y-96676673D01*
X175136310Y-96580000D01*
X175106250Y-96580000D01*
X174947500Y-96738750D01*
X174947500Y-96955344D01*
X174824090Y-96763559D01*
X174822500Y-96762473D01*
X174822500Y-96738750D01*
X174663750Y-96580000D01*
X174633690Y-96580000D01*
X174563993Y-96608870D01*
X174360000Y-96567560D01*
X174110000Y-96567560D01*
X173902658Y-96606574D01*
X173710000Y-96567560D01*
X173460000Y-96567560D01*
X173252658Y-96606574D01*
X173060000Y-96567560D01*
X172810000Y-96567560D01*
X172602658Y-96606574D01*
X172410000Y-96567560D01*
X172160000Y-96567560D01*
X171952658Y-96606574D01*
X171760000Y-96567560D01*
X171510000Y-96567560D01*
X171302658Y-96606574D01*
X171110000Y-96567560D01*
X170860000Y-96567560D01*
X170652658Y-96606574D01*
X170470000Y-96569585D01*
X170470000Y-96185000D01*
X170410245Y-95884594D01*
X170240079Y-95629921D01*
X170240076Y-95629919D01*
X169900076Y-95289919D01*
X169793117Y-95031057D01*
X169530327Y-94767808D01*
X169186799Y-94625162D01*
X168814833Y-94624838D01*
X168471057Y-94766883D01*
X168207808Y-95029673D01*
X168065162Y-95373201D01*
X168064838Y-95745167D01*
X168206883Y-96088943D01*
X168469673Y-96352192D01*
X168813201Y-96494838D01*
X168884743Y-96494900D01*
X168900000Y-96510157D01*
X168900000Y-96569442D01*
X168674683Y-96611838D01*
X168458559Y-96750910D01*
X168313569Y-96963110D01*
X168306199Y-96999502D01*
X168121890Y-96873569D01*
X167870000Y-96822560D01*
X167242718Y-96822560D01*
X167185000Y-96764842D01*
X167185000Y-95145158D01*
X170255079Y-92075079D01*
X170425245Y-91820406D01*
X170426830Y-91812440D01*
X170450000Y-91812440D01*
X170685317Y-91768162D01*
X170724861Y-91742716D01*
X170818110Y-91806431D01*
X171070000Y-91857440D01*
X172570000Y-91857440D01*
X172805317Y-91813162D01*
X173021441Y-91674090D01*
X173166431Y-91461890D01*
X173169081Y-91448803D01*
X173305910Y-91661441D01*
X173518110Y-91806431D01*
X173770000Y-91857440D01*
X175270000Y-91857440D01*
X175505317Y-91813162D01*
X175721441Y-91674090D01*
X175866431Y-91461890D01*
X175917440Y-91210000D01*
X175917440Y-90776661D01*
X176232758Y-90776661D01*
X176444990Y-91290303D01*
X176837630Y-91683629D01*
X177045512Y-91769949D01*
X176839697Y-91854990D01*
X176446371Y-92247630D01*
X176233243Y-92760900D01*
X176232758Y-93316661D01*
X176444990Y-93830303D01*
X176837630Y-94223629D01*
X177045512Y-94309949D01*
X176839697Y-94394990D01*
X176446371Y-94787630D01*
X176233243Y-95300900D01*
X176232758Y-95856661D01*
X176444990Y-96370303D01*
X176837630Y-96763629D01*
X177350900Y-96976757D01*
X177906661Y-96977242D01*
X178420303Y-96765010D01*
X178813629Y-96372370D01*
X178899949Y-96164488D01*
X178984990Y-96370303D01*
X179377630Y-96763629D01*
X179890900Y-96976757D01*
X180446661Y-96977242D01*
X180960303Y-96765010D01*
X181353629Y-96372370D01*
X181566757Y-95859100D01*
X181567242Y-95303339D01*
X181355010Y-94789697D01*
X180962370Y-94396371D01*
X180754488Y-94310051D01*
X180960303Y-94225010D01*
X181353629Y-93832370D01*
X181566757Y-93319100D01*
X181567242Y-92763339D01*
X181355010Y-92249697D01*
X180962370Y-91856371D01*
X180754488Y-91770051D01*
X180960303Y-91685010D01*
X181353629Y-91292370D01*
X181566757Y-90779100D01*
X181567242Y-90223339D01*
X181355010Y-89709697D01*
X180962370Y-89316371D01*
X180449100Y-89103243D01*
X179893339Y-89102758D01*
X179379697Y-89314990D01*
X178986371Y-89707630D01*
X178900051Y-89915512D01*
X178815010Y-89709697D01*
X178422370Y-89316371D01*
X177909100Y-89103243D01*
X177353339Y-89102758D01*
X176839697Y-89314990D01*
X176446371Y-89707630D01*
X176233243Y-90220900D01*
X176232758Y-90776661D01*
X175917440Y-90776661D01*
X175917440Y-89910000D01*
X175873162Y-89674683D01*
X175734090Y-89458559D01*
X175687440Y-89426684D01*
X175687440Y-87885000D01*
X175643162Y-87649683D01*
X175504090Y-87433559D01*
X175291890Y-87288569D01*
X175040000Y-87237560D01*
X175025000Y-87237560D01*
X175025000Y-85775000D01*
X174967148Y-85484161D01*
X174802401Y-85237599D01*
X174023688Y-84458886D01*
X174140000Y-84482440D01*
X174390000Y-84482440D01*
X174598850Y-84443142D01*
X174663690Y-84470000D01*
X174693750Y-84470000D01*
X174852500Y-84311250D01*
X174852500Y-84282905D01*
X174977500Y-84099961D01*
X174977500Y-84311250D01*
X175136250Y-84470000D01*
X175166310Y-84470000D01*
X175399699Y-84373327D01*
X175578327Y-84194698D01*
X175675000Y-83961309D01*
X175675000Y-83345750D01*
X175516250Y-83187000D01*
X175037440Y-83187000D01*
X175037440Y-82933000D01*
X175516250Y-82933000D01*
X175675000Y-82774250D01*
X175675000Y-82158691D01*
X175578327Y-81925302D01*
X175538025Y-81885000D01*
X178045554Y-81885000D01*
X179392225Y-83231671D01*
X178658700Y-83534758D01*
X178032955Y-84159411D01*
X177693887Y-84975978D01*
X177693115Y-85860143D01*
X178030758Y-86677300D01*
X178655411Y-87303045D01*
X179471978Y-87642113D01*
X180356143Y-87642885D01*
X181173300Y-87305242D01*
X181799045Y-86680589D01*
X182138113Y-85864022D01*
X182138885Y-84979857D01*
X182000525Y-84645000D01*
X193990000Y-84645000D01*
X194271272Y-84589051D01*
X194509723Y-84429723D01*
X197339725Y-81599722D01*
X197499052Y-81361271D01*
X197500025Y-81356380D01*
X197641715Y-81451054D01*
X198210000Y-81564093D01*
X198778285Y-81451054D01*
X199260054Y-81129147D01*
X199480000Y-80799974D01*
X199699946Y-81129147D01*
X200181715Y-81451054D01*
X200750000Y-81564093D01*
X201318285Y-81451054D01*
X201800054Y-81129147D01*
X202121961Y-80647378D01*
X202235000Y-80079093D01*
X202235000Y-80020907D01*
X202121961Y-79452622D01*
X201800054Y-78970853D01*
X201514422Y-78780000D01*
X201800054Y-78589147D01*
X202121961Y-78107378D01*
X202235000Y-77539093D01*
X202235000Y-77480907D01*
X202121961Y-76912622D01*
X201800054Y-76430853D01*
X201318285Y-76108946D01*
X200750000Y-75995907D01*
X200181715Y-76108946D01*
X199699946Y-76430853D01*
X199480000Y-76760026D01*
X199260054Y-76430853D01*
X198778285Y-76108946D01*
X198210000Y-75995907D01*
X197641715Y-76108946D01*
X197159946Y-76430853D01*
X196940000Y-76760026D01*
X196720054Y-76430853D01*
X196238285Y-76108946D01*
X195670000Y-75995907D01*
X195101715Y-76108946D01*
X194619946Y-76430853D01*
X194400000Y-76760026D01*
X194180054Y-76430853D01*
X193698285Y-76108946D01*
X193130000Y-75995907D01*
X192561715Y-76108946D01*
X192079946Y-76430853D01*
X191860000Y-76760026D01*
X191640054Y-76430853D01*
X191158285Y-76108946D01*
X190590000Y-75995907D01*
X190021715Y-76108946D01*
X189539946Y-76430853D01*
X189320000Y-76760026D01*
X189100054Y-76430853D01*
X188618285Y-76108946D01*
X188050000Y-75995907D01*
X187481715Y-76108946D01*
X186999946Y-76430853D01*
X186780000Y-76760026D01*
X186560054Y-76430853D01*
X186078285Y-76108946D01*
X185510000Y-75995907D01*
X184941715Y-76108946D01*
X184459946Y-76430853D01*
X184240000Y-76760026D01*
X184020054Y-76430853D01*
X183538285Y-76108946D01*
X182970000Y-75995907D01*
X182401715Y-76108946D01*
X181919946Y-76430853D01*
X181706699Y-76750000D01*
X171610000Y-76750000D01*
X171319161Y-76807852D01*
X171072599Y-76972599D01*
X167852599Y-80192599D01*
X167687852Y-80439161D01*
X167630000Y-80730000D01*
X167630000Y-82385000D01*
X167687852Y-82675839D01*
X167852599Y-82922401D01*
X168292560Y-83362362D01*
X168292560Y-83450001D01*
X168124803Y-83450001D01*
X166037401Y-81362599D01*
X165790839Y-81197852D01*
X165500000Y-81140000D01*
X161600000Y-81140000D01*
X161309161Y-81197852D01*
X161062599Y-81362599D01*
X160440251Y-81984947D01*
X160235617Y-81984769D01*
X159744771Y-82187582D01*
X159499902Y-82432024D01*
X159257204Y-82188902D01*
X158766713Y-81985232D01*
X158235617Y-81984769D01*
X157744771Y-82187582D01*
X157499902Y-82432024D01*
X157257204Y-82188902D01*
X156766713Y-81985232D01*
X156235617Y-81984769D01*
X155744771Y-82187582D01*
X155499902Y-82432024D01*
X155257204Y-82188902D01*
X154766713Y-81985232D01*
X154235617Y-81984769D01*
X153744771Y-82187582D01*
X153499902Y-82432024D01*
X153257204Y-82188902D01*
X152766713Y-81985232D01*
X152235617Y-81984769D01*
X151744771Y-82187582D01*
X151499902Y-82432024D01*
X151257204Y-82188902D01*
X150766713Y-81985232D01*
X150235617Y-81984769D01*
X149744771Y-82187582D01*
X149499902Y-82432024D01*
X149257204Y-82188902D01*
X148766713Y-81985232D01*
X148235617Y-81984769D01*
X147744771Y-82187582D01*
X147499902Y-82432024D01*
X147257204Y-82188902D01*
X146766713Y-81985232D01*
X146235617Y-81984769D01*
X145744771Y-82187582D01*
X145368902Y-82562796D01*
X145165232Y-83053287D01*
X145164769Y-83584383D01*
X145367582Y-84075229D01*
X145742796Y-84451098D01*
X145765000Y-84460318D01*
X145765000Y-85400000D01*
X145816088Y-85656836D01*
X145820949Y-85681272D01*
X145980277Y-85919723D01*
X148000276Y-87939723D01*
X148238727Y-88099051D01*
X148268238Y-88104921D01*
X148520000Y-88155000D01*
X168292560Y-88155000D01*
X168292560Y-89369574D01*
X168076309Y-89280000D01*
X167485750Y-89280000D01*
X167327000Y-89438750D01*
X167327000Y-90413000D01*
X167347000Y-90413000D01*
X167347000Y-90667000D01*
X167327000Y-90667000D01*
X167327000Y-91641250D01*
X167485750Y-91800000D01*
X168076309Y-91800000D01*
X168309698Y-91703327D01*
X168450936Y-91562090D01*
X168485910Y-91616441D01*
X168490360Y-91619482D01*
X165844921Y-94264921D01*
X165674755Y-94519593D01*
X165674755Y-94519594D01*
X165615000Y-94820000D01*
X165615000Y-96845000D01*
X165605750Y-96845000D01*
X165447000Y-97003750D01*
X165447000Y-98103000D01*
X165467000Y-98103000D01*
X165467000Y-98357000D01*
X165447000Y-98357000D01*
X165447000Y-98377000D01*
X165193000Y-98377000D01*
X165193000Y-98357000D01*
X164218750Y-98357000D01*
X164060000Y-98515750D01*
X164060000Y-99106309D01*
X164156673Y-99339698D01*
X164297910Y-99480936D01*
X164243559Y-99515910D01*
X164098569Y-99728110D01*
X164054648Y-99945000D01*
X151090000Y-99945000D01*
X150789593Y-100004755D01*
X150534921Y-100174921D01*
X146724647Y-103985195D01*
X146235617Y-103984769D01*
X145744771Y-104187582D01*
X145368902Y-104562796D01*
X145165232Y-105053287D01*
X145164769Y-105584383D01*
X145227833Y-105737009D01*
X143847282Y-107117560D01*
X142810000Y-107117560D01*
X142574683Y-107161838D01*
X142358559Y-107300910D01*
X142213569Y-107513110D01*
X142194961Y-107605000D01*
X136740000Y-107605000D01*
X136439594Y-107664755D01*
X136184921Y-107834921D01*
X135554995Y-108464847D01*
X135544833Y-108464838D01*
X135201057Y-108606883D01*
X134937808Y-108869673D01*
X134795162Y-109213201D01*
X134794838Y-109585167D01*
X134936883Y-109928943D01*
X135199673Y-110192192D01*
X135543201Y-110334838D01*
X135915167Y-110335162D01*
X136258943Y-110193117D01*
X136522192Y-109930327D01*
X136664838Y-109586799D01*
X136664848Y-109575310D01*
X137065158Y-109175000D01*
X142192666Y-109175000D01*
X142206838Y-109250317D01*
X142345910Y-109466441D01*
X142558110Y-109611431D01*
X142810000Y-109662440D01*
X144310000Y-109662440D01*
X144545317Y-109618162D01*
X144761441Y-109479090D01*
X144807969Y-109410994D01*
X144950302Y-109553327D01*
X145183691Y-109650000D01*
X145774250Y-109650000D01*
X145933000Y-109491250D01*
X145933000Y-108517000D01*
X146187000Y-108517000D01*
X146187000Y-109491250D01*
X146345750Y-109650000D01*
X146936309Y-109650000D01*
X147169698Y-109553327D01*
X147348327Y-109374699D01*
X147445000Y-109141310D01*
X147445000Y-108675750D01*
X147286250Y-108517000D01*
X146187000Y-108517000D01*
X145933000Y-108517000D01*
X145913000Y-108517000D01*
X145913000Y-108263000D01*
X145933000Y-108263000D01*
X145933000Y-107288750D01*
X146187000Y-107288750D01*
X146187000Y-108263000D01*
X147286250Y-108263000D01*
X147445000Y-108104250D01*
X147445000Y-107638690D01*
X147348327Y-107405301D01*
X147169698Y-107226673D01*
X146936309Y-107130000D01*
X146345750Y-107130000D01*
X146187000Y-107288750D01*
X145933000Y-107288750D01*
X145914704Y-107270454D01*
X146530131Y-106655027D01*
X146764383Y-106655231D01*
X147255229Y-106452418D01*
X147500098Y-106207976D01*
X147742796Y-106451098D01*
X148233287Y-106654768D01*
X148764383Y-106655231D01*
X149255229Y-106452418D01*
X149500098Y-106207976D01*
X149742796Y-106451098D01*
X150233287Y-106654768D01*
X150764383Y-106655231D01*
X151255229Y-106452418D01*
X151500098Y-106207976D01*
X151742796Y-106451098D01*
X152233287Y-106654768D01*
X152764383Y-106655231D01*
X153255229Y-106452418D01*
X153500098Y-106207976D01*
X153742796Y-106451098D01*
X154233287Y-106654768D01*
X154760426Y-106655228D01*
X156074914Y-107969716D01*
X156065162Y-107993201D01*
X156064838Y-108365167D01*
X156206883Y-108708943D01*
X156469673Y-108972192D01*
X156813201Y-109114838D01*
X157185167Y-109115162D01*
X157528943Y-108973117D01*
X157562118Y-108940000D01*
X158275078Y-108940000D01*
X158274838Y-109215167D01*
X158416883Y-109558943D01*
X158679673Y-109822192D01*
X159023201Y-109964838D01*
X159395167Y-109965162D01*
X159738943Y-109823117D01*
X159744862Y-109817208D01*
X159744838Y-109845167D01*
X159886883Y-110188943D01*
X160149673Y-110452192D01*
X160300928Y-110514999D01*
X158862001Y-110514999D01*
X158561595Y-110574754D01*
X158306922Y-110744920D01*
X152500381Y-116551461D01*
X152230000Y-116497679D01*
X151959619Y-116551461D01*
X150653079Y-115244921D01*
X150398407Y-115074755D01*
X150098000Y-115015000D01*
X143319643Y-115015000D01*
X143571961Y-114637378D01*
X143685000Y-114069093D01*
X143685000Y-114010907D01*
X143571961Y-113442622D01*
X143250054Y-112960853D01*
X142964422Y-112770000D01*
X143250054Y-112579147D01*
X143571961Y-112097378D01*
X143685000Y-111529093D01*
X143685000Y-111470907D01*
X143571961Y-110902622D01*
X143250054Y-110420853D01*
X142768285Y-110098946D01*
X142200000Y-109985907D01*
X141631715Y-110098946D01*
X141149946Y-110420853D01*
X140930000Y-110750026D01*
X140710054Y-110420853D01*
X140228285Y-110098946D01*
X139660000Y-109985907D01*
X139091715Y-110098946D01*
X138609946Y-110420853D01*
X138288039Y-110902622D01*
X138175000Y-111470907D01*
X138175000Y-111529093D01*
X138288039Y-112097378D01*
X138609946Y-112579147D01*
X138611179Y-112579971D01*
X138574683Y-112586838D01*
X138358559Y-112725910D01*
X138213569Y-112938110D01*
X138162560Y-113190000D01*
X138162560Y-114890000D01*
X138186080Y-115015000D01*
X137295157Y-115015000D01*
X133665000Y-111384842D01*
X133665000Y-97353691D01*
X164060000Y-97353691D01*
X164060000Y-97944250D01*
X164218750Y-98103000D01*
X165193000Y-98103000D01*
X165193000Y-97003750D01*
X165034250Y-96845000D01*
X164568690Y-96845000D01*
X164335301Y-96941673D01*
X164156673Y-97120302D01*
X164060000Y-97353691D01*
X133665000Y-97353691D01*
X133665000Y-87466250D01*
X133930054Y-87289147D01*
X134251961Y-86807378D01*
X134365000Y-86239093D01*
X134365000Y-86180907D01*
X134278292Y-85744999D01*
X134614841Y-85744999D01*
X143934921Y-95065079D01*
X144189594Y-95235245D01*
X144490000Y-95295000D01*
X163312494Y-95295000D01*
X163319673Y-95302192D01*
X163663201Y-95444838D01*
X164035167Y-95445162D01*
X164378943Y-95303117D01*
X164642192Y-95040327D01*
X164784838Y-94696799D01*
X164785162Y-94324833D01*
X164643117Y-93981057D01*
X164380327Y-93717808D01*
X164036799Y-93575162D01*
X163664833Y-93574838D01*
X163321057Y-93716883D01*
X163312926Y-93725000D01*
X144815158Y-93725000D01*
X141915908Y-90825750D01*
X165815000Y-90825750D01*
X165815000Y-91291310D01*
X165911673Y-91524699D01*
X166090302Y-91703327D01*
X166323691Y-91800000D01*
X166914250Y-91800000D01*
X167073000Y-91641250D01*
X167073000Y-90667000D01*
X165973750Y-90667000D01*
X165815000Y-90825750D01*
X141915908Y-90825750D01*
X140878848Y-89788690D01*
X165815000Y-89788690D01*
X165815000Y-90254250D01*
X165973750Y-90413000D01*
X167073000Y-90413000D01*
X167073000Y-89438750D01*
X166914250Y-89280000D01*
X166323691Y-89280000D01*
X166090302Y-89376673D01*
X165911673Y-89555301D01*
X165815000Y-89788690D01*
X140878848Y-89788690D01*
X135507097Y-84416939D01*
X135580317Y-84403162D01*
X135796441Y-84264090D01*
X135941431Y-84051890D01*
X135992440Y-83800000D01*
X135992440Y-83385000D01*
X136032494Y-83385000D01*
X136039673Y-83392192D01*
X136383201Y-83534838D01*
X136755167Y-83535162D01*
X137098943Y-83393117D01*
X137362192Y-83130327D01*
X137504838Y-82786799D01*
X137505162Y-82414833D01*
X137363117Y-82071057D01*
X137100327Y-81807808D01*
X136756799Y-81665162D01*
X136384833Y-81664838D01*
X136041057Y-81806883D01*
X136032926Y-81815000D01*
X135759975Y-81815000D01*
X135740994Y-81802031D01*
X135883327Y-81659698D01*
X135980000Y-81426309D01*
X135980000Y-80835750D01*
X135821250Y-80677000D01*
X134847000Y-80677000D01*
X134847000Y-80697000D01*
X134593000Y-80697000D01*
X134593000Y-80677000D01*
X134573000Y-80677000D01*
X134573000Y-80423000D01*
X134593000Y-80423000D01*
X134593000Y-79666250D01*
X134613000Y-79646250D01*
X134613000Y-79323750D01*
X134847000Y-79323750D01*
X134847000Y-80423000D01*
X135821250Y-80423000D01*
X135980000Y-80264250D01*
X135980000Y-79673691D01*
X135911842Y-79509142D01*
X136000000Y-79296309D01*
X136000000Y-78705750D01*
X135841250Y-78547000D01*
X134867000Y-78547000D01*
X134867000Y-79303750D01*
X134847000Y-79323750D01*
X134613000Y-79323750D01*
X134613000Y-78547000D01*
X134593000Y-78547000D01*
X134593000Y-78293000D01*
X134613000Y-78293000D01*
X134613000Y-78273000D01*
X134867000Y-78273000D01*
X134867000Y-78293000D01*
X135841250Y-78293000D01*
X136000000Y-78134250D01*
X136000000Y-77543691D01*
X135903327Y-77310302D01*
X135762090Y-77169064D01*
X135816441Y-77134090D01*
X135961431Y-76921890D01*
X136012440Y-76670000D01*
X136012440Y-75170000D01*
X135968162Y-74934683D01*
X135925000Y-74867607D01*
X135925000Y-74320907D01*
X138335000Y-74320907D01*
X138335000Y-74379093D01*
X138448039Y-74947378D01*
X138769946Y-75429147D01*
X139055578Y-75620000D01*
X138769946Y-75810853D01*
X138448039Y-76292622D01*
X138335000Y-76860907D01*
X138335000Y-76919093D01*
X138448039Y-77487378D01*
X138769946Y-77969147D01*
X139251715Y-78291054D01*
X139820000Y-78404093D01*
X140388285Y-78291054D01*
X140870054Y-77969147D01*
X141090000Y-77639974D01*
X141309946Y-77969147D01*
X141791715Y-78291054D01*
X142360000Y-78404093D01*
X142928285Y-78291054D01*
X143410054Y-77969147D01*
X143731961Y-77487378D01*
X143845000Y-76919093D01*
X143845000Y-76860907D01*
X143731961Y-76292622D01*
X143410054Y-75810853D01*
X143408821Y-75810029D01*
X143445317Y-75803162D01*
X143661441Y-75664090D01*
X143806431Y-75451890D01*
X143857440Y-75200000D01*
X143857440Y-73500000D01*
X143813162Y-73264683D01*
X143674090Y-73048559D01*
X143461890Y-72903569D01*
X143210000Y-72852560D01*
X141510000Y-72852560D01*
X141274683Y-72896838D01*
X141058559Y-73035910D01*
X140913569Y-73248110D01*
X140899914Y-73315541D01*
X140870054Y-73270853D01*
X140388285Y-72948946D01*
X139820000Y-72835907D01*
X139251715Y-72948946D01*
X138769946Y-73270853D01*
X138448039Y-73752622D01*
X138335000Y-74320907D01*
X135925000Y-74320907D01*
X135925000Y-74140000D01*
X135920377Y-74116757D01*
X135865245Y-73839593D01*
X135695079Y-73584921D01*
X135475079Y-73364921D01*
X135247248Y-73212690D01*
X135223162Y-73084683D01*
X135084090Y-72868559D01*
X134871890Y-72723569D01*
X134620000Y-72672560D01*
X133420000Y-72672560D01*
X133184683Y-72716838D01*
X132968559Y-72855910D01*
X132920866Y-72925711D01*
X132884090Y-72868559D01*
X132671890Y-72723569D01*
X132420000Y-72672560D01*
X131220000Y-72672560D01*
X130984683Y-72716838D01*
X130938608Y-72746486D01*
X130831890Y-72673569D01*
X130580000Y-72622560D01*
X129080000Y-72622560D01*
X128844683Y-72666838D01*
X128628559Y-72805910D01*
X128483569Y-73018110D01*
X128476809Y-73051490D01*
X128418327Y-72910301D01*
X128239698Y-72731673D01*
X128006309Y-72635000D01*
X127415750Y-72635000D01*
X127257000Y-72793750D01*
X127257000Y-73793000D01*
X127277000Y-73793000D01*
X127277000Y-74047000D01*
X127257000Y-74047000D01*
X127257000Y-75046250D01*
X127273729Y-75062979D01*
X127133569Y-75268110D01*
X127082560Y-75520000D01*
X127082560Y-77520000D01*
X127126838Y-77755317D01*
X127265910Y-77971441D01*
X127478110Y-78116431D01*
X127730000Y-78167440D01*
X128845000Y-78167440D01*
X128845000Y-81179146D01*
X128644683Y-81216838D01*
X128480508Y-81322482D01*
X128439699Y-81281673D01*
X128206310Y-81185000D01*
X127615750Y-81185000D01*
X127457000Y-81343750D01*
X127457000Y-82693000D01*
X127477000Y-82693000D01*
X127477000Y-82947000D01*
X127457000Y-82947000D01*
X127457000Y-82967000D01*
X127203000Y-82967000D01*
X127203000Y-82947000D01*
X126103750Y-82947000D01*
X125945000Y-83105750D01*
X125945000Y-83251270D01*
X124885619Y-82860000D01*
X125416309Y-82860000D01*
X125649698Y-82763327D01*
X125828327Y-82584699D01*
X125925000Y-82351310D01*
X125925000Y-81885750D01*
X125766250Y-81727000D01*
X124667000Y-81727000D01*
X124667000Y-81747000D01*
X124413000Y-81747000D01*
X124413000Y-81727000D01*
X124393000Y-81727000D01*
X124393000Y-81693691D01*
X125945000Y-81693691D01*
X125945000Y-82534250D01*
X126103750Y-82693000D01*
X127203000Y-82693000D01*
X127203000Y-81343750D01*
X127044250Y-81185000D01*
X126453690Y-81185000D01*
X126220301Y-81281673D01*
X126041673Y-81460302D01*
X125945000Y-81693691D01*
X124393000Y-81693691D01*
X124393000Y-81473000D01*
X124413000Y-81473000D01*
X124413000Y-81453000D01*
X124667000Y-81453000D01*
X124667000Y-81473000D01*
X125766250Y-81473000D01*
X125925000Y-81314250D01*
X125925000Y-80848690D01*
X125828327Y-80615301D01*
X125649698Y-80436673D01*
X125625080Y-80426476D01*
X125555961Y-74205750D01*
X125745000Y-74205750D01*
X125745000Y-74696310D01*
X125841673Y-74929699D01*
X126020302Y-75108327D01*
X126253691Y-75205000D01*
X126844250Y-75205000D01*
X127003000Y-75046250D01*
X127003000Y-74047000D01*
X125903750Y-74047000D01*
X125745000Y-74205750D01*
X125555961Y-74205750D01*
X125544160Y-73143690D01*
X125745000Y-73143690D01*
X125745000Y-73634250D01*
X125903750Y-73793000D01*
X127003000Y-73793000D01*
X127003000Y-72793750D01*
X126844250Y-72635000D01*
X126253691Y-72635000D01*
X126020302Y-72731673D01*
X125841673Y-72910301D01*
X125745000Y-73143690D01*
X125544160Y-73143690D01*
X125529507Y-71824965D01*
X125613592Y-71656796D01*
X125627000Y-71600000D01*
X125627000Y-71001025D01*
X125798327Y-70829699D01*
X125895000Y-70596310D01*
X125895000Y-70105750D01*
X125736250Y-69947000D01*
X124637000Y-69947000D01*
X124637000Y-69967000D01*
X124383000Y-69967000D01*
X124383000Y-69947000D01*
X124363000Y-69947000D01*
X124363000Y-69693000D01*
X124383000Y-69693000D01*
X124383000Y-68693750D01*
X124637000Y-68693750D01*
X124637000Y-69693000D01*
X125736250Y-69693000D01*
X125895000Y-69534250D01*
X125895000Y-69043690D01*
X125798327Y-68810301D01*
X125619698Y-68631673D01*
X125386309Y-68535000D01*
X124795750Y-68535000D01*
X124637000Y-68693750D01*
X124383000Y-68693750D01*
X124224250Y-68535000D01*
X123633691Y-68535000D01*
X123400302Y-68631673D01*
X123221673Y-68810301D01*
X123165346Y-68946287D01*
X123163162Y-68934683D01*
X123024090Y-68718559D01*
X122811890Y-68573569D01*
X122560000Y-68522560D01*
X121060000Y-68522560D01*
X120824683Y-68566838D01*
X120720698Y-68633751D01*
X120661890Y-68593569D01*
X120410000Y-68542560D01*
X119210000Y-68542560D01*
X118974683Y-68586838D01*
X118758559Y-68725910D01*
X118710866Y-68795711D01*
X118674090Y-68738559D01*
X118461890Y-68593569D01*
X118210000Y-68542560D01*
X117010000Y-68542560D01*
X116774683Y-68586838D01*
X116558559Y-68725910D01*
X116413569Y-68938110D01*
X116362560Y-69190000D01*
X116362560Y-70390000D01*
X116373606Y-70448705D01*
X116473010Y-78301607D01*
X116481685Y-78346159D01*
X116508965Y-78388553D01*
X116550590Y-78416994D01*
X116600000Y-78427000D01*
X117845000Y-78427000D01*
X117845000Y-78994250D01*
X118003750Y-79153000D01*
X119103000Y-79153000D01*
X119103000Y-79133000D01*
X119357000Y-79133000D01*
X119357000Y-79153000D01*
X119377000Y-79153000D01*
X119377000Y-79407000D01*
X119357000Y-79407000D01*
X119357000Y-79427000D01*
X119103000Y-79427000D01*
X119103000Y-79407000D01*
X118003750Y-79407000D01*
X117845000Y-79565750D01*
X117845000Y-80330000D01*
X117725750Y-80330000D01*
X117567000Y-80488750D01*
X117567000Y-81463000D01*
X117587000Y-81463000D01*
X117587000Y-81717000D01*
X117567000Y-81717000D01*
X117567000Y-82691250D01*
X117725750Y-82850000D01*
X118225000Y-82850000D01*
X118225000Y-84662560D01*
X118160000Y-84662560D01*
X117924683Y-84706838D01*
X117708559Y-84845910D01*
X117563569Y-85058110D01*
X117512560Y-85310000D01*
X117512560Y-87010000D01*
X117556838Y-87245317D01*
X117695910Y-87461441D01*
X117908110Y-87606431D01*
X118160000Y-87657440D01*
X119860000Y-87657440D01*
X120095317Y-87613162D01*
X120311441Y-87474090D01*
X120456431Y-87261890D01*
X120470086Y-87194459D01*
X120499946Y-87239147D01*
X120765000Y-87416250D01*
X120765000Y-89774843D01*
X115944921Y-94594921D01*
X115774755Y-94849593D01*
X115731892Y-95065079D01*
X115715000Y-95150000D01*
X115715000Y-114600000D01*
X115774755Y-114900407D01*
X115944921Y-115155079D01*
X117449921Y-116660079D01*
X117704594Y-116830245D01*
X118005000Y-116890000D01*
X120346651Y-116890000D01*
X120734436Y-117278461D01*
X121243298Y-117489759D01*
X121794285Y-117490240D01*
X122303515Y-117279831D01*
X122693461Y-116890564D01*
X122904759Y-116381702D01*
X122905240Y-115830715D01*
X122694831Y-115321485D01*
X122305564Y-114931539D01*
X122073130Y-114835024D01*
X122303515Y-114739831D01*
X122693461Y-114350564D01*
X122904759Y-113841702D01*
X122905240Y-113290715D01*
X122694831Y-112781485D01*
X122305564Y-112391539D01*
X122089021Y-112301623D01*
X122243923Y-112237460D01*
X122311912Y-111996517D01*
X121527000Y-111211605D01*
X121527000Y-111025000D01*
X121699605Y-111025000D01*
X122491517Y-111816912D01*
X122732460Y-111748923D01*
X122917201Y-111229829D01*
X122889230Y-110679552D01*
X122732460Y-110301077D01*
X122491517Y-110233088D01*
X121699605Y-111025000D01*
X121527000Y-111025000D01*
X121527000Y-110838395D01*
X122311912Y-110053483D01*
X122243923Y-109812540D01*
X122077379Y-109753268D01*
X122303515Y-109659831D01*
X122693461Y-109270564D01*
X122904759Y-108761702D01*
X122905240Y-108210715D01*
X122694831Y-107701485D01*
X122305564Y-107311539D01*
X121796702Y-107100241D01*
X121245715Y-107099760D01*
X120736485Y-107310169D01*
X120346539Y-107699436D01*
X120135241Y-108208298D01*
X120134878Y-108624113D01*
X119938653Y-108754930D01*
X119765564Y-108581539D01*
X119533130Y-108485024D01*
X119763515Y-108389831D01*
X120153461Y-108000564D01*
X120364759Y-107491702D01*
X120365240Y-106940715D01*
X120154831Y-106431485D01*
X119765564Y-106041539D01*
X119256702Y-105830241D01*
X118705715Y-105829760D01*
X118196485Y-106040169D01*
X117806539Y-106429436D01*
X117595241Y-106938298D01*
X117594760Y-107489285D01*
X117805169Y-107998515D01*
X118194436Y-108388461D01*
X118426870Y-108484976D01*
X118196485Y-108580169D01*
X117806539Y-108969436D01*
X117595241Y-109478298D01*
X117594760Y-110029285D01*
X117805169Y-110538515D01*
X118194436Y-110928461D01*
X118410979Y-111018377D01*
X118256077Y-111082540D01*
X118188088Y-111323483D01*
X118980000Y-112115395D01*
X118994143Y-112101253D01*
X119173748Y-112280858D01*
X119159605Y-112295000D01*
X119173748Y-112309143D01*
X118994143Y-112488748D01*
X118980000Y-112474605D01*
X118188088Y-113266517D01*
X118256077Y-113507460D01*
X118422621Y-113566732D01*
X118196485Y-113660169D01*
X117806539Y-114049436D01*
X117595241Y-114558298D01*
X117595218Y-114585060D01*
X117285000Y-114274842D01*
X117285000Y-112090171D01*
X117582799Y-112090171D01*
X117610770Y-112640448D01*
X117767540Y-113018923D01*
X118008483Y-113086912D01*
X118800395Y-112295000D01*
X118008483Y-111503088D01*
X117767540Y-111571077D01*
X117582799Y-112090171D01*
X117285000Y-112090171D01*
X117285000Y-95475158D01*
X122105076Y-90655081D01*
X122105079Y-90655079D01*
X122275245Y-90400406D01*
X122335000Y-90100000D01*
X122335000Y-87416250D01*
X122600054Y-87239147D01*
X122820000Y-86909974D01*
X123039946Y-87239147D01*
X123315000Y-87422932D01*
X123315000Y-107679980D01*
X123374755Y-107980387D01*
X123544921Y-108235059D01*
X132534941Y-117225079D01*
X132789613Y-117395245D01*
X133090020Y-117455000D01*
X140760457Y-117455000D01*
X140673000Y-117894679D01*
X140673000Y-118985321D01*
X140779340Y-119519930D01*
X141082172Y-119973149D01*
X141535391Y-120275981D01*
X141681280Y-120305000D01*
X129377577Y-120305000D01*
X129983045Y-119700589D01*
X130322113Y-118884022D01*
X130322885Y-117999857D01*
X129985242Y-117182700D01*
X129360589Y-116556955D01*
X128544022Y-116217887D01*
X127659857Y-116217115D01*
X126842700Y-116554758D01*
X126216955Y-117179411D01*
X125877887Y-117995978D01*
X125877115Y-118880143D01*
X126214758Y-119697300D01*
X126821397Y-120305000D01*
X111010259Y-120305000D01*
X111225908Y-119724539D01*
X111212641Y-119366013D01*
X111277242Y-119430726D01*
X112153513Y-119794585D01*
X113102325Y-119795413D01*
X113979229Y-119433084D01*
X114650726Y-118762758D01*
X115014585Y-117886487D01*
X115015413Y-116937675D01*
X114653084Y-116060771D01*
X113982758Y-115389274D01*
X113106487Y-115025415D01*
X112157675Y-115024587D01*
X111280771Y-115386916D01*
X110609274Y-116057242D01*
X110245415Y-116933513D01*
X110244587Y-117882325D01*
X110283827Y-117977293D01*
X109844539Y-117814092D01*
X109194540Y-117838144D01*
X108705736Y-118040613D01*
X108607073Y-118307468D01*
X109580000Y-119280395D01*
X109594143Y-119266253D01*
X109773748Y-119445858D01*
X109759605Y-119460000D01*
X109773748Y-119474143D01*
X109594143Y-119653748D01*
X109580000Y-119639605D01*
X109565858Y-119653748D01*
X109386253Y-119474143D01*
X109400395Y-119460000D01*
X108427468Y-118487073D01*
X108160613Y-118585736D01*
X107934092Y-119195461D01*
X107958144Y-119845460D01*
X108148491Y-120305000D01*
X104815000Y-120305000D01*
X104815000Y-105012532D01*
X108607073Y-105012532D01*
X108705736Y-105279387D01*
X109315461Y-105505908D01*
X109965460Y-105481856D01*
X110279325Y-105351849D01*
X110245415Y-105433513D01*
X110244587Y-106382325D01*
X110606916Y-107259229D01*
X111277242Y-107930726D01*
X112153513Y-108294585D01*
X113102325Y-108295413D01*
X113979229Y-107933084D01*
X114650726Y-107262758D01*
X115014585Y-106386487D01*
X115015413Y-105437675D01*
X114653084Y-104560771D01*
X113982758Y-103889274D01*
X113106487Y-103525415D01*
X112157675Y-103524587D01*
X111280771Y-103886916D01*
X111219383Y-103948197D01*
X111201856Y-103474540D01*
X110999387Y-102985736D01*
X110732532Y-102887073D01*
X109759605Y-103860000D01*
X109773748Y-103874143D01*
X109594143Y-104053748D01*
X109580000Y-104039605D01*
X108607073Y-105012532D01*
X104815000Y-105012532D01*
X104815000Y-103595461D01*
X107934092Y-103595461D01*
X107958144Y-104245460D01*
X108160613Y-104734264D01*
X108427468Y-104832927D01*
X109400395Y-103860000D01*
X108427468Y-102887073D01*
X108160613Y-102985736D01*
X107934092Y-103595461D01*
X104815000Y-103595461D01*
X104815000Y-102707468D01*
X108607073Y-102707468D01*
X109580000Y-103680395D01*
X110552927Y-102707468D01*
X110454264Y-102440613D01*
X109844539Y-102214092D01*
X109194540Y-102238144D01*
X108705736Y-102440613D01*
X108607073Y-102707468D01*
X104815000Y-102707468D01*
X104815000Y-95023207D01*
X108434665Y-95023207D01*
X108728630Y-95734658D01*
X109272479Y-96279457D01*
X109983416Y-96574663D01*
X110753207Y-96575335D01*
X111464658Y-96281370D01*
X112009457Y-95737521D01*
X112304663Y-95026584D01*
X112305335Y-94256793D01*
X112011370Y-93545342D01*
X111467521Y-93000543D01*
X110756584Y-92705337D01*
X109986793Y-92704665D01*
X109275342Y-92998630D01*
X108730543Y-93542479D01*
X108435337Y-94253416D01*
X108434665Y-95023207D01*
X104815000Y-95023207D01*
X104815000Y-90929459D01*
X109180146Y-90929459D01*
X109315504Y-91227455D01*
X110033880Y-91504066D01*
X110803427Y-91484710D01*
X111424496Y-91227455D01*
X111559854Y-90929459D01*
X110370000Y-89739605D01*
X109180146Y-90929459D01*
X104815000Y-90929459D01*
X104815000Y-89223880D01*
X108425934Y-89223880D01*
X108445290Y-89993427D01*
X108702545Y-90614496D01*
X109000541Y-90749854D01*
X110190395Y-89560000D01*
X110549605Y-89560000D01*
X111739459Y-90749854D01*
X112037455Y-90614496D01*
X112314066Y-89896120D01*
X112294710Y-89126573D01*
X112037455Y-88505504D01*
X111739459Y-88370146D01*
X110549605Y-89560000D01*
X110190395Y-89560000D01*
X109000541Y-88370146D01*
X108702545Y-88505504D01*
X108425934Y-89223880D01*
X104815000Y-89223880D01*
X104815000Y-88190541D01*
X109180146Y-88190541D01*
X110370000Y-89380395D01*
X111559854Y-88190541D01*
X111424496Y-87892545D01*
X110706120Y-87615934D01*
X109936573Y-87635290D01*
X109315504Y-87892545D01*
X109180146Y-88190541D01*
X104815000Y-88190541D01*
X104815000Y-84863207D01*
X108434665Y-84863207D01*
X108728630Y-85574658D01*
X109272479Y-86119457D01*
X109983416Y-86414663D01*
X110753207Y-86415335D01*
X111464658Y-86121370D01*
X112009457Y-85577521D01*
X112304663Y-84866584D01*
X112305335Y-84096793D01*
X112011370Y-83385342D01*
X111467521Y-82840543D01*
X110756584Y-82545337D01*
X109986793Y-82544665D01*
X109275342Y-82838630D01*
X108730543Y-83382479D01*
X108435337Y-84093416D01*
X108434665Y-84863207D01*
X104815000Y-84863207D01*
X104815000Y-81875750D01*
X116055000Y-81875750D01*
X116055000Y-82341310D01*
X116151673Y-82574699D01*
X116330302Y-82753327D01*
X116563691Y-82850000D01*
X117154250Y-82850000D01*
X117313000Y-82691250D01*
X117313000Y-81717000D01*
X116213750Y-81717000D01*
X116055000Y-81875750D01*
X104815000Y-81875750D01*
X104815000Y-80838690D01*
X116055000Y-80838690D01*
X116055000Y-81304250D01*
X116213750Y-81463000D01*
X117313000Y-81463000D01*
X117313000Y-80488750D01*
X117154250Y-80330000D01*
X116563691Y-80330000D01*
X116330302Y-80426673D01*
X116151673Y-80605301D01*
X116055000Y-80838690D01*
X104815000Y-80838690D01*
X104815000Y-77373207D01*
X108344665Y-77373207D01*
X108638630Y-78084658D01*
X109182479Y-78629457D01*
X109893416Y-78924663D01*
X110663207Y-78925335D01*
X111374658Y-78631370D01*
X111919457Y-78087521D01*
X112214663Y-77376584D01*
X112215335Y-76606793D01*
X111921370Y-75895342D01*
X111377521Y-75350543D01*
X110666584Y-75055337D01*
X109896793Y-75054665D01*
X109185342Y-75348630D01*
X108640543Y-75892479D01*
X108345337Y-76603416D01*
X108344665Y-77373207D01*
X104815000Y-77373207D01*
X104815000Y-73279459D01*
X109090146Y-73279459D01*
X109225504Y-73577455D01*
X109943880Y-73854066D01*
X110713427Y-73834710D01*
X111334496Y-73577455D01*
X111469854Y-73279459D01*
X110280000Y-72089605D01*
X109090146Y-73279459D01*
X104815000Y-73279459D01*
X104815000Y-71573880D01*
X108335934Y-71573880D01*
X108355290Y-72343427D01*
X108612545Y-72964496D01*
X108910541Y-73099854D01*
X110100395Y-71910000D01*
X110459605Y-71910000D01*
X111649459Y-73099854D01*
X111947455Y-72964496D01*
X112224066Y-72246120D01*
X112204710Y-71476573D01*
X111947455Y-70855504D01*
X111649459Y-70720146D01*
X110459605Y-71910000D01*
X110100395Y-71910000D01*
X108910541Y-70720146D01*
X108612545Y-70855504D01*
X108335934Y-71573880D01*
X104815000Y-71573880D01*
X104815000Y-70540541D01*
X109090146Y-70540541D01*
X110280000Y-71730395D01*
X111469854Y-70540541D01*
X111334496Y-70242545D01*
X110616120Y-69965934D01*
X109846573Y-69985290D01*
X109225504Y-70242545D01*
X109090146Y-70540541D01*
X104815000Y-70540541D01*
X104815000Y-68335000D01*
X128072388Y-68335000D01*
X127486955Y-68919411D01*
G36*
X212515000Y-70473736D02*
X212515000Y-80350000D01*
X212540967Y-80480543D01*
X212566627Y-80610889D01*
X212567009Y-80611463D01*
X212567143Y-80612138D01*
X212640924Y-80722559D01*
X212714677Y-80833412D01*
X215045000Y-83172946D01*
X215045000Y-116897054D01*
X212733606Y-119217584D01*
X212872113Y-118884022D01*
X212872885Y-117999857D01*
X212535242Y-117182700D01*
X211910589Y-116556955D01*
X211094022Y-116217887D01*
X210209857Y-116217115D01*
X209392700Y-116554758D01*
X208766955Y-117179411D01*
X208427887Y-117995978D01*
X208427115Y-118880143D01*
X208764758Y-119697300D01*
X209371397Y-120305000D01*
X205958720Y-120305000D01*
X206104609Y-120275981D01*
X206557828Y-119973149D01*
X206860660Y-119519930D01*
X206967000Y-118985321D01*
X206967000Y-117894679D01*
X206860660Y-117360070D01*
X206557828Y-116906851D01*
X206104609Y-116604019D01*
X205570000Y-116497679D01*
X205035391Y-116604019D01*
X204582172Y-116906851D01*
X204300000Y-117329150D01*
X204017828Y-116906851D01*
X203564609Y-116604019D01*
X203030000Y-116497679D01*
X202495391Y-116604019D01*
X202042172Y-116906851D01*
X201760000Y-117329150D01*
X201477828Y-116906851D01*
X201024609Y-116604019D01*
X200490000Y-116497679D01*
X199955391Y-116604019D01*
X199502172Y-116906851D01*
X199220000Y-117329150D01*
X198937828Y-116906851D01*
X198484609Y-116604019D01*
X197950000Y-116497679D01*
X197415391Y-116604019D01*
X196962172Y-116906851D01*
X196680000Y-117329150D01*
X196397828Y-116906851D01*
X195944609Y-116604019D01*
X195410000Y-116497679D01*
X194875391Y-116604019D01*
X194422172Y-116906851D01*
X194140000Y-117329150D01*
X193857828Y-116906851D01*
X193404609Y-116604019D01*
X192870000Y-116497679D01*
X192335391Y-116604019D01*
X191882172Y-116906851D01*
X191600000Y-117329150D01*
X191317828Y-116906851D01*
X190864609Y-116604019D01*
X190330000Y-116497679D01*
X189795391Y-116604019D01*
X189342172Y-116906851D01*
X189060000Y-117329150D01*
X188777828Y-116906851D01*
X188324609Y-116604019D01*
X187790000Y-116497679D01*
X187255391Y-116604019D01*
X186802172Y-116906851D01*
X186499340Y-117360070D01*
X186393000Y-117894679D01*
X186393000Y-118985321D01*
X186499340Y-119519930D01*
X186802172Y-119973149D01*
X187255391Y-120275981D01*
X187401280Y-120305000D01*
X183098720Y-120305000D01*
X183244609Y-120275981D01*
X183697828Y-119973149D01*
X184000660Y-119519930D01*
X184107000Y-118985321D01*
X184107000Y-117894679D01*
X184000660Y-117360070D01*
X183697828Y-116906851D01*
X183244609Y-116604019D01*
X182710000Y-116497679D01*
X182175391Y-116604019D01*
X181722172Y-116906851D01*
X181440000Y-117329150D01*
X181157828Y-116906851D01*
X180704609Y-116604019D01*
X180170000Y-116497679D01*
X179635391Y-116604019D01*
X179182172Y-116906851D01*
X178900000Y-117329150D01*
X178617828Y-116906851D01*
X178164609Y-116604019D01*
X177630000Y-116497679D01*
X177095391Y-116604019D01*
X176642172Y-116906851D01*
X176360000Y-117329150D01*
X176077828Y-116906851D01*
X175624609Y-116604019D01*
X175090000Y-116497679D01*
X174555391Y-116604019D01*
X174102172Y-116906851D01*
X173820000Y-117329150D01*
X173537828Y-116906851D01*
X173084609Y-116604019D01*
X172550000Y-116497679D01*
X172015391Y-116604019D01*
X171562172Y-116906851D01*
X171280000Y-117329150D01*
X170997828Y-116906851D01*
X170544609Y-116604019D01*
X170010000Y-116497679D01*
X169475391Y-116604019D01*
X169022172Y-116906851D01*
X168740000Y-117329150D01*
X168457828Y-116906851D01*
X168004609Y-116604019D01*
X167470000Y-116497679D01*
X166935391Y-116604019D01*
X166482172Y-116906851D01*
X166200000Y-117329150D01*
X165917828Y-116906851D01*
X165464609Y-116604019D01*
X164930000Y-116497679D01*
X164395391Y-116604019D01*
X163942172Y-116906851D01*
X163639340Y-117360070D01*
X163533000Y-117894679D01*
X163533000Y-118985321D01*
X163639340Y-119519930D01*
X163942172Y-119973149D01*
X164395391Y-120275981D01*
X164541280Y-120305000D01*
X160238720Y-120305000D01*
X160384609Y-120275981D01*
X160837828Y-119973149D01*
X161140660Y-119519930D01*
X161247000Y-118985321D01*
X161247000Y-117894679D01*
X161140660Y-117360070D01*
X160837828Y-116906851D01*
X160384609Y-116604019D01*
X159850000Y-116497679D01*
X159315391Y-116604019D01*
X158862172Y-116906851D01*
X158570670Y-117343113D01*
X158552059Y-117280059D01*
X158208026Y-116854370D01*
X157727277Y-116592740D01*
X157653070Y-116577780D01*
X157437000Y-116700280D01*
X157437000Y-118313000D01*
X157457000Y-118313000D01*
X157457000Y-118567000D01*
X157437000Y-118567000D01*
X157437000Y-118587000D01*
X157183000Y-118587000D01*
X157183000Y-118567000D01*
X154897000Y-118567000D01*
X154897000Y-118587000D01*
X154643000Y-118587000D01*
X154643000Y-118567000D01*
X154623000Y-118567000D01*
X154623000Y-118313000D01*
X154643000Y-118313000D01*
X154643000Y-116700280D01*
X154897000Y-116700280D01*
X154897000Y-118313000D01*
X157183000Y-118313000D01*
X157183000Y-116700280D01*
X156966930Y-116577780D01*
X156892723Y-116592740D01*
X156411974Y-116854370D01*
X156067941Y-117280059D01*
X156040000Y-117374723D01*
X156012059Y-117280059D01*
X155668026Y-116854370D01*
X155187277Y-116592740D01*
X155113070Y-116577780D01*
X154897000Y-116700280D01*
X154643000Y-116700280D01*
X154597611Y-116674547D01*
X159187159Y-112084999D01*
X178301392Y-112084999D01*
X178286955Y-112099411D01*
X177947887Y-112915978D01*
X177947115Y-113800143D01*
X178284758Y-114617300D01*
X178909411Y-115243045D01*
X179725978Y-115582113D01*
X180610143Y-115582885D01*
X181427300Y-115245242D01*
X182053045Y-114620589D01*
X182169467Y-114340213D01*
X207309392Y-114340213D01*
X207378857Y-114582397D01*
X207902302Y-114769144D01*
X208457368Y-114741362D01*
X208841143Y-114582397D01*
X208910608Y-114340213D01*
X209849392Y-114340213D01*
X209918857Y-114582397D01*
X210442302Y-114769144D01*
X210997368Y-114741362D01*
X211381143Y-114582397D01*
X211450608Y-114340213D01*
X210650000Y-113539605D01*
X209849392Y-114340213D01*
X208910608Y-114340213D01*
X208110000Y-113539605D01*
X207309392Y-114340213D01*
X182169467Y-114340213D01*
X182392113Y-113804022D01*
X182392885Y-112919857D01*
X182055242Y-112102700D01*
X182037572Y-112084999D01*
X186100001Y-112084999D01*
X186400408Y-112025244D01*
X186535291Y-111935119D01*
X186585167Y-111935162D01*
X186928943Y-111793117D01*
X187192192Y-111530327D01*
X187334838Y-111186799D01*
X187335162Y-110814833D01*
X187193117Y-110471057D01*
X186930327Y-110207808D01*
X186586799Y-110065162D01*
X186214833Y-110064838D01*
X185871057Y-110206883D01*
X185607808Y-110469673D01*
X185588987Y-110514999D01*
X169409803Y-110514999D01*
X174151336Y-105773466D01*
X174369673Y-105992184D01*
X174713201Y-106134830D01*
X175085167Y-106135154D01*
X175428943Y-105993109D01*
X175692192Y-105730319D01*
X175834838Y-105386791D01*
X175835162Y-105014825D01*
X175693117Y-104671049D01*
X175645000Y-104622848D01*
X175645000Y-104426431D01*
X175657440Y-104365000D01*
X175657440Y-103249999D01*
X179695197Y-103249999D01*
X181528229Y-105083031D01*
X181465000Y-105400907D01*
X181465000Y-105459093D01*
X181578039Y-106027378D01*
X181899946Y-106509147D01*
X181901179Y-106509971D01*
X181864683Y-106516838D01*
X181648559Y-106655910D01*
X181503569Y-106868110D01*
X181452560Y-107120000D01*
X181452560Y-108820000D01*
X181496838Y-109055317D01*
X181635910Y-109271441D01*
X181848110Y-109416431D01*
X182100000Y-109467440D01*
X183800000Y-109467440D01*
X184035317Y-109423162D01*
X184251441Y-109284090D01*
X184396431Y-109071890D01*
X184410086Y-109004459D01*
X184439946Y-109049147D01*
X184921715Y-109371054D01*
X185490000Y-109484093D01*
X186058285Y-109371054D01*
X186540054Y-109049147D01*
X186760000Y-108719974D01*
X186979946Y-109049147D01*
X187461715Y-109371054D01*
X188030000Y-109484093D01*
X188598285Y-109371054D01*
X189080054Y-109049147D01*
X189300000Y-108719974D01*
X189519946Y-109049147D01*
X190001715Y-109371054D01*
X190570000Y-109484093D01*
X191138285Y-109371054D01*
X191620054Y-109049147D01*
X191840000Y-108719974D01*
X192059946Y-109049147D01*
X192541715Y-109371054D01*
X193110000Y-109484093D01*
X193678285Y-109371054D01*
X194160054Y-109049147D01*
X194380000Y-108719974D01*
X194599946Y-109049147D01*
X194840000Y-109209546D01*
X194840000Y-111100000D01*
X194897852Y-111390839D01*
X195062599Y-111637401D01*
X196162599Y-112737401D01*
X196409161Y-112902148D01*
X196700000Y-112960000D01*
X206769463Y-112960000D01*
X206700856Y-113152302D01*
X206728638Y-113707368D01*
X206887603Y-114091143D01*
X207129787Y-114160608D01*
X207930395Y-113360000D01*
X207916253Y-113345858D01*
X208095858Y-113166253D01*
X208110000Y-113180395D01*
X208124143Y-113166253D01*
X208303748Y-113345858D01*
X208289605Y-113360000D01*
X209090213Y-114160608D01*
X209332397Y-114091143D01*
X209376453Y-113967656D01*
X209427603Y-114091143D01*
X209669787Y-114160608D01*
X210470395Y-113360000D01*
X210829605Y-113360000D01*
X211630213Y-114160608D01*
X211872397Y-114091143D01*
X212059144Y-113567698D01*
X212031362Y-113012632D01*
X211872397Y-112628857D01*
X211630213Y-112559392D01*
X210829605Y-113360000D01*
X210470395Y-113360000D01*
X210456253Y-113345858D01*
X210635858Y-113166253D01*
X210650000Y-113180395D01*
X211450608Y-112379787D01*
X211381143Y-112137603D01*
X211240682Y-112087491D01*
X211440303Y-112005010D01*
X211833629Y-111612370D01*
X212046757Y-111099100D01*
X212047242Y-110543339D01*
X211835010Y-110029697D01*
X211442370Y-109636371D01*
X211234488Y-109550051D01*
X211440303Y-109465010D01*
X211833629Y-109072370D01*
X212046757Y-108559100D01*
X212047242Y-108003339D01*
X211835010Y-107489697D01*
X211442370Y-107096371D01*
X211234488Y-107010051D01*
X211440303Y-106925010D01*
X211833629Y-106532370D01*
X212046757Y-106019100D01*
X212047242Y-105463339D01*
X211835010Y-104949697D01*
X211442370Y-104556371D01*
X211234488Y-104470051D01*
X211440303Y-104385010D01*
X211833629Y-103992370D01*
X212046757Y-103479100D01*
X212047242Y-102923339D01*
X211835010Y-102409697D01*
X211442370Y-102016371D01*
X211234488Y-101930051D01*
X211440303Y-101845010D01*
X211833629Y-101452370D01*
X212046757Y-100939100D01*
X212047242Y-100383339D01*
X211835010Y-99869697D01*
X211442370Y-99476371D01*
X211234488Y-99390051D01*
X211440303Y-99305010D01*
X211833629Y-98912370D01*
X212046757Y-98399100D01*
X212047242Y-97843339D01*
X211835010Y-97329697D01*
X211442370Y-96936371D01*
X211234488Y-96850051D01*
X211440303Y-96765010D01*
X211833629Y-96372370D01*
X212046757Y-95859100D01*
X212047242Y-95303339D01*
X211835010Y-94789697D01*
X211442370Y-94396371D01*
X211234488Y-94310051D01*
X211440303Y-94225010D01*
X211833629Y-93832370D01*
X212046757Y-93319100D01*
X212047242Y-92763339D01*
X211835010Y-92249697D01*
X211442370Y-91856371D01*
X211234488Y-91770051D01*
X211440303Y-91685010D01*
X211833629Y-91292370D01*
X212046757Y-90779100D01*
X212047242Y-90223339D01*
X211835010Y-89709697D01*
X211442370Y-89316371D01*
X211234488Y-89230051D01*
X211440303Y-89145010D01*
X211833629Y-88752370D01*
X212046757Y-88239100D01*
X212047242Y-87683339D01*
X211835010Y-87169697D01*
X211442370Y-86776371D01*
X211234488Y-86690051D01*
X211440303Y-86605010D01*
X211833629Y-86212370D01*
X212046757Y-85699100D01*
X212047242Y-85143339D01*
X211835010Y-84629697D01*
X211442370Y-84236371D01*
X211234488Y-84150051D01*
X211440303Y-84065010D01*
X211833629Y-83672370D01*
X212046757Y-83159100D01*
X212047242Y-82603339D01*
X211835010Y-82089697D01*
X211442370Y-81696371D01*
X211234488Y-81610051D01*
X211440303Y-81525010D01*
X211833629Y-81132370D01*
X212046757Y-80619100D01*
X212047242Y-80063339D01*
X211835010Y-79549697D01*
X211442370Y-79156371D01*
X211234488Y-79070051D01*
X211440303Y-78985010D01*
X211833629Y-78592370D01*
X212046757Y-78079100D01*
X212047242Y-77523339D01*
X211835010Y-77009697D01*
X211442370Y-76616371D01*
X211234488Y-76530051D01*
X211440303Y-76445010D01*
X211833629Y-76052370D01*
X212046757Y-75539100D01*
X212047242Y-74983339D01*
X211835010Y-74469697D01*
X211442370Y-74076371D01*
X211234488Y-73990051D01*
X211440303Y-73905010D01*
X211833629Y-73512370D01*
X212046757Y-72999100D01*
X212047242Y-72443339D01*
X211835010Y-71929697D01*
X211442370Y-71536371D01*
X211234488Y-71450051D01*
X211440303Y-71365010D01*
X211833629Y-70972370D01*
X212046757Y-70459100D01*
X212047153Y-70005889D01*
X212515000Y-70473736D01*
X212515000Y-70473736D01*
G37*
X212515000Y-70473736D02*
X212515000Y-80350000D01*
X212540967Y-80480543D01*
X212566627Y-80610889D01*
X212567009Y-80611463D01*
X212567143Y-80612138D01*
X212640924Y-80722559D01*
X212714677Y-80833412D01*
X215045000Y-83172946D01*
X215045000Y-116897054D01*
X212733606Y-119217584D01*
X212872113Y-118884022D01*
X212872885Y-117999857D01*
X212535242Y-117182700D01*
X211910589Y-116556955D01*
X211094022Y-116217887D01*
X210209857Y-116217115D01*
X209392700Y-116554758D01*
X208766955Y-117179411D01*
X208427887Y-117995978D01*
X208427115Y-118880143D01*
X208764758Y-119697300D01*
X209371397Y-120305000D01*
X205958720Y-120305000D01*
X206104609Y-120275981D01*
X206557828Y-119973149D01*
X206860660Y-119519930D01*
X206967000Y-118985321D01*
X206967000Y-117894679D01*
X206860660Y-117360070D01*
X206557828Y-116906851D01*
X206104609Y-116604019D01*
X205570000Y-116497679D01*
X205035391Y-116604019D01*
X204582172Y-116906851D01*
X204300000Y-117329150D01*
X204017828Y-116906851D01*
X203564609Y-116604019D01*
X203030000Y-116497679D01*
X202495391Y-116604019D01*
X202042172Y-116906851D01*
X201760000Y-117329150D01*
X201477828Y-116906851D01*
X201024609Y-116604019D01*
X200490000Y-116497679D01*
X199955391Y-116604019D01*
X199502172Y-116906851D01*
X199220000Y-117329150D01*
X198937828Y-116906851D01*
X198484609Y-116604019D01*
X197950000Y-116497679D01*
X197415391Y-116604019D01*
X196962172Y-116906851D01*
X196680000Y-117329150D01*
X196397828Y-116906851D01*
X195944609Y-116604019D01*
X195410000Y-116497679D01*
X194875391Y-116604019D01*
X194422172Y-116906851D01*
X194140000Y-117329150D01*
X193857828Y-116906851D01*
X193404609Y-116604019D01*
X192870000Y-116497679D01*
X192335391Y-116604019D01*
X191882172Y-116906851D01*
X191600000Y-117329150D01*
X191317828Y-116906851D01*
X190864609Y-116604019D01*
X190330000Y-116497679D01*
X189795391Y-116604019D01*
X189342172Y-116906851D01*
X189060000Y-117329150D01*
X188777828Y-116906851D01*
X188324609Y-116604019D01*
X187790000Y-116497679D01*
X187255391Y-116604019D01*
X186802172Y-116906851D01*
X186499340Y-117360070D01*
X186393000Y-117894679D01*
X186393000Y-118985321D01*
X186499340Y-119519930D01*
X186802172Y-119973149D01*
X187255391Y-120275981D01*
X187401280Y-120305000D01*
X183098720Y-120305000D01*
X183244609Y-120275981D01*
X183697828Y-119973149D01*
X184000660Y-119519930D01*
X184107000Y-118985321D01*
X184107000Y-117894679D01*
X184000660Y-117360070D01*
X183697828Y-116906851D01*
X183244609Y-116604019D01*
X182710000Y-116497679D01*
X182175391Y-116604019D01*
X181722172Y-116906851D01*
X181440000Y-117329150D01*
X181157828Y-116906851D01*
X180704609Y-116604019D01*
X180170000Y-116497679D01*
X179635391Y-116604019D01*
X179182172Y-116906851D01*
X178900000Y-117329150D01*
X178617828Y-116906851D01*
X178164609Y-116604019D01*
X177630000Y-116497679D01*
X177095391Y-116604019D01*
X176642172Y-116906851D01*
X176360000Y-117329150D01*
X176077828Y-116906851D01*
X175624609Y-116604019D01*
X175090000Y-116497679D01*
X174555391Y-116604019D01*
X174102172Y-116906851D01*
X173820000Y-117329150D01*
X173537828Y-116906851D01*
X173084609Y-116604019D01*
X172550000Y-116497679D01*
X172015391Y-116604019D01*
X171562172Y-116906851D01*
X171280000Y-117329150D01*
X170997828Y-116906851D01*
X170544609Y-116604019D01*
X170010000Y-116497679D01*
X169475391Y-116604019D01*
X169022172Y-116906851D01*
X168740000Y-117329150D01*
X168457828Y-116906851D01*
X168004609Y-116604019D01*
X167470000Y-116497679D01*
X166935391Y-116604019D01*
X166482172Y-116906851D01*
X166200000Y-117329150D01*
X165917828Y-116906851D01*
X165464609Y-116604019D01*
X164930000Y-116497679D01*
X164395391Y-116604019D01*
X163942172Y-116906851D01*
X163639340Y-117360070D01*
X163533000Y-117894679D01*
X163533000Y-118985321D01*
X163639340Y-119519930D01*
X163942172Y-119973149D01*
X164395391Y-120275981D01*
X164541280Y-120305000D01*
X160238720Y-120305000D01*
X160384609Y-120275981D01*
X160837828Y-119973149D01*
X161140660Y-119519930D01*
X161247000Y-118985321D01*
X161247000Y-117894679D01*
X161140660Y-117360070D01*
X160837828Y-116906851D01*
X160384609Y-116604019D01*
X159850000Y-116497679D01*
X159315391Y-116604019D01*
X158862172Y-116906851D01*
X158570670Y-117343113D01*
X158552059Y-117280059D01*
X158208026Y-116854370D01*
X157727277Y-116592740D01*
X157653070Y-116577780D01*
X157437000Y-116700280D01*
X157437000Y-118313000D01*
X157457000Y-118313000D01*
X157457000Y-118567000D01*
X157437000Y-118567000D01*
X157437000Y-118587000D01*
X157183000Y-118587000D01*
X157183000Y-118567000D01*
X154897000Y-118567000D01*
X154897000Y-118587000D01*
X154643000Y-118587000D01*
X154643000Y-118567000D01*
X154623000Y-118567000D01*
X154623000Y-118313000D01*
X154643000Y-118313000D01*
X154643000Y-116700280D01*
X154897000Y-116700280D01*
X154897000Y-118313000D01*
X157183000Y-118313000D01*
X157183000Y-116700280D01*
X156966930Y-116577780D01*
X156892723Y-116592740D01*
X156411974Y-116854370D01*
X156067941Y-117280059D01*
X156040000Y-117374723D01*
X156012059Y-117280059D01*
X155668026Y-116854370D01*
X155187277Y-116592740D01*
X155113070Y-116577780D01*
X154897000Y-116700280D01*
X154643000Y-116700280D01*
X154597611Y-116674547D01*
X159187159Y-112084999D01*
X178301392Y-112084999D01*
X178286955Y-112099411D01*
X177947887Y-112915978D01*
X177947115Y-113800143D01*
X178284758Y-114617300D01*
X178909411Y-115243045D01*
X179725978Y-115582113D01*
X180610143Y-115582885D01*
X181427300Y-115245242D01*
X182053045Y-114620589D01*
X182169467Y-114340213D01*
X207309392Y-114340213D01*
X207378857Y-114582397D01*
X207902302Y-114769144D01*
X208457368Y-114741362D01*
X208841143Y-114582397D01*
X208910608Y-114340213D01*
X209849392Y-114340213D01*
X209918857Y-114582397D01*
X210442302Y-114769144D01*
X210997368Y-114741362D01*
X211381143Y-114582397D01*
X211450608Y-114340213D01*
X210650000Y-113539605D01*
X209849392Y-114340213D01*
X208910608Y-114340213D01*
X208110000Y-113539605D01*
X207309392Y-114340213D01*
X182169467Y-114340213D01*
X182392113Y-113804022D01*
X182392885Y-112919857D01*
X182055242Y-112102700D01*
X182037572Y-112084999D01*
X186100001Y-112084999D01*
X186400408Y-112025244D01*
X186535291Y-111935119D01*
X186585167Y-111935162D01*
X186928943Y-111793117D01*
X187192192Y-111530327D01*
X187334838Y-111186799D01*
X187335162Y-110814833D01*
X187193117Y-110471057D01*
X186930327Y-110207808D01*
X186586799Y-110065162D01*
X186214833Y-110064838D01*
X185871057Y-110206883D01*
X185607808Y-110469673D01*
X185588987Y-110514999D01*
X169409803Y-110514999D01*
X174151336Y-105773466D01*
X174369673Y-105992184D01*
X174713201Y-106134830D01*
X175085167Y-106135154D01*
X175428943Y-105993109D01*
X175692192Y-105730319D01*
X175834838Y-105386791D01*
X175835162Y-105014825D01*
X175693117Y-104671049D01*
X175645000Y-104622848D01*
X175645000Y-104426431D01*
X175657440Y-104365000D01*
X175657440Y-103249999D01*
X179695197Y-103249999D01*
X181528229Y-105083031D01*
X181465000Y-105400907D01*
X181465000Y-105459093D01*
X181578039Y-106027378D01*
X181899946Y-106509147D01*
X181901179Y-106509971D01*
X181864683Y-106516838D01*
X181648559Y-106655910D01*
X181503569Y-106868110D01*
X181452560Y-107120000D01*
X181452560Y-108820000D01*
X181496838Y-109055317D01*
X181635910Y-109271441D01*
X181848110Y-109416431D01*
X182100000Y-109467440D01*
X183800000Y-109467440D01*
X184035317Y-109423162D01*
X184251441Y-109284090D01*
X184396431Y-109071890D01*
X184410086Y-109004459D01*
X184439946Y-109049147D01*
X184921715Y-109371054D01*
X185490000Y-109484093D01*
X186058285Y-109371054D01*
X186540054Y-109049147D01*
X186760000Y-108719974D01*
X186979946Y-109049147D01*
X187461715Y-109371054D01*
X188030000Y-109484093D01*
X188598285Y-109371054D01*
X189080054Y-109049147D01*
X189300000Y-108719974D01*
X189519946Y-109049147D01*
X190001715Y-109371054D01*
X190570000Y-109484093D01*
X191138285Y-109371054D01*
X191620054Y-109049147D01*
X191840000Y-108719974D01*
X192059946Y-109049147D01*
X192541715Y-109371054D01*
X193110000Y-109484093D01*
X193678285Y-109371054D01*
X194160054Y-109049147D01*
X194380000Y-108719974D01*
X194599946Y-109049147D01*
X194840000Y-109209546D01*
X194840000Y-111100000D01*
X194897852Y-111390839D01*
X195062599Y-111637401D01*
X196162599Y-112737401D01*
X196409161Y-112902148D01*
X196700000Y-112960000D01*
X206769463Y-112960000D01*
X206700856Y-113152302D01*
X206728638Y-113707368D01*
X206887603Y-114091143D01*
X207129787Y-114160608D01*
X207930395Y-113360000D01*
X207916253Y-113345858D01*
X208095858Y-113166253D01*
X208110000Y-113180395D01*
X208124143Y-113166253D01*
X208303748Y-113345858D01*
X208289605Y-113360000D01*
X209090213Y-114160608D01*
X209332397Y-114091143D01*
X209376453Y-113967656D01*
X209427603Y-114091143D01*
X209669787Y-114160608D01*
X210470395Y-113360000D01*
X210829605Y-113360000D01*
X211630213Y-114160608D01*
X211872397Y-114091143D01*
X212059144Y-113567698D01*
X212031362Y-113012632D01*
X211872397Y-112628857D01*
X211630213Y-112559392D01*
X210829605Y-113360000D01*
X210470395Y-113360000D01*
X210456253Y-113345858D01*
X210635858Y-113166253D01*
X210650000Y-113180395D01*
X211450608Y-112379787D01*
X211381143Y-112137603D01*
X211240682Y-112087491D01*
X211440303Y-112005010D01*
X211833629Y-111612370D01*
X212046757Y-111099100D01*
X212047242Y-110543339D01*
X211835010Y-110029697D01*
X211442370Y-109636371D01*
X211234488Y-109550051D01*
X211440303Y-109465010D01*
X211833629Y-109072370D01*
X212046757Y-108559100D01*
X212047242Y-108003339D01*
X211835010Y-107489697D01*
X211442370Y-107096371D01*
X211234488Y-107010051D01*
X211440303Y-106925010D01*
X211833629Y-106532370D01*
X212046757Y-106019100D01*
X212047242Y-105463339D01*
X211835010Y-104949697D01*
X211442370Y-104556371D01*
X211234488Y-104470051D01*
X211440303Y-104385010D01*
X211833629Y-103992370D01*
X212046757Y-103479100D01*
X212047242Y-102923339D01*
X211835010Y-102409697D01*
X211442370Y-102016371D01*
X211234488Y-101930051D01*
X211440303Y-101845010D01*
X211833629Y-101452370D01*
X212046757Y-100939100D01*
X212047242Y-100383339D01*
X211835010Y-99869697D01*
X211442370Y-99476371D01*
X211234488Y-99390051D01*
X211440303Y-99305010D01*
X211833629Y-98912370D01*
X212046757Y-98399100D01*
X212047242Y-97843339D01*
X211835010Y-97329697D01*
X211442370Y-96936371D01*
X211234488Y-96850051D01*
X211440303Y-96765010D01*
X211833629Y-96372370D01*
X212046757Y-95859100D01*
X212047242Y-95303339D01*
X211835010Y-94789697D01*
X211442370Y-94396371D01*
X211234488Y-94310051D01*
X211440303Y-94225010D01*
X211833629Y-93832370D01*
X212046757Y-93319100D01*
X212047242Y-92763339D01*
X211835010Y-92249697D01*
X211442370Y-91856371D01*
X211234488Y-91770051D01*
X211440303Y-91685010D01*
X211833629Y-91292370D01*
X212046757Y-90779100D01*
X212047242Y-90223339D01*
X211835010Y-89709697D01*
X211442370Y-89316371D01*
X211234488Y-89230051D01*
X211440303Y-89145010D01*
X211833629Y-88752370D01*
X212046757Y-88239100D01*
X212047242Y-87683339D01*
X211835010Y-87169697D01*
X211442370Y-86776371D01*
X211234488Y-86690051D01*
X211440303Y-86605010D01*
X211833629Y-86212370D01*
X212046757Y-85699100D01*
X212047242Y-85143339D01*
X211835010Y-84629697D01*
X211442370Y-84236371D01*
X211234488Y-84150051D01*
X211440303Y-84065010D01*
X211833629Y-83672370D01*
X212046757Y-83159100D01*
X212047242Y-82603339D01*
X211835010Y-82089697D01*
X211442370Y-81696371D01*
X211234488Y-81610051D01*
X211440303Y-81525010D01*
X211833629Y-81132370D01*
X212046757Y-80619100D01*
X212047242Y-80063339D01*
X211835010Y-79549697D01*
X211442370Y-79156371D01*
X211234488Y-79070051D01*
X211440303Y-78985010D01*
X211833629Y-78592370D01*
X212046757Y-78079100D01*
X212047242Y-77523339D01*
X211835010Y-77009697D01*
X211442370Y-76616371D01*
X211234488Y-76530051D01*
X211440303Y-76445010D01*
X211833629Y-76052370D01*
X212046757Y-75539100D01*
X212047242Y-74983339D01*
X211835010Y-74469697D01*
X211442370Y-74076371D01*
X211234488Y-73990051D01*
X211440303Y-73905010D01*
X211833629Y-73512370D01*
X212046757Y-72999100D01*
X212047242Y-72443339D01*
X211835010Y-71929697D01*
X211442370Y-71536371D01*
X211234488Y-71450051D01*
X211440303Y-71365010D01*
X211833629Y-70972370D01*
X212046757Y-70459100D01*
X212047153Y-70005889D01*
X212515000Y-70473736D01*
M02*
