G04 #@! TF.FileFunction,Copper,L2,Bot,Signal*
%FSLAX46Y46*%
G04 Gerber Fmt 4.6, Leading zero omitted, Abs format (unit mm)*
G04 Created by KiCad (PCBNEW 4.0.4-stable) date 04/21/17 11:27:43*
%MOMM*%
%LPD*%
G01*
G04 APERTURE LIST*
%ADD10C,0.100000*%
%ADD11C,0.600000*%
%ADD12R,1.700000X1.700000*%
%ADD13O,1.700000X1.700000*%
%ADD14O,1.524000X2.540000*%
%ADD15C,1.524000*%
%ADD16C,2.600000*%
%ADD17C,0.400000*%
%ADD18C,0.300000*%
%ADD19C,0.254000*%
G04 APERTURE END LIST*
D10*
D11*
X179260000Y-96730000D03*
X175260000Y-96730000D03*
X171260000Y-96730000D03*
X179260000Y-92730000D03*
X175260000Y-92730000D03*
X171260000Y-92730000D03*
X179260000Y-88730000D03*
X175260000Y-88730000D03*
X183610000Y-82380000D03*
X188980000Y-82360000D03*
X193290000Y-77100000D03*
X188730000Y-77110000D03*
X183620000Y-77010000D03*
X181190000Y-79270000D03*
X193300000Y-71440000D03*
X192120000Y-68290000D03*
X171260000Y-88730000D03*
X188580000Y-71450000D03*
D12*
X155200000Y-53850000D03*
D13*
X155200000Y-56390000D03*
X155200000Y-58930000D03*
D14*
X216210000Y-53680000D03*
X218750000Y-53680000D03*
X221290000Y-53680000D03*
X223830000Y-53680000D03*
X226370000Y-53680000D03*
X228910000Y-53680000D03*
X231450000Y-53680000D03*
X233990000Y-53680000D03*
X239070000Y-101940000D03*
X236530000Y-101940000D03*
X233990000Y-101940000D03*
X231450000Y-101940000D03*
X221290000Y-101940000D03*
X216210000Y-101940000D03*
X213670000Y-101940000D03*
X223830000Y-101940000D03*
X226370000Y-101940000D03*
X228910000Y-101940000D03*
X211130000Y-101940000D03*
X208590000Y-101940000D03*
X206050000Y-101940000D03*
X198430000Y-101940000D03*
X200970000Y-101940000D03*
X203510000Y-101940000D03*
X193350000Y-101940000D03*
X190810000Y-101940000D03*
X188270000Y-101940000D03*
X183190000Y-101940000D03*
X180650000Y-101940000D03*
X211130000Y-53680000D03*
X208590000Y-53680000D03*
X206050000Y-53680000D03*
X203510000Y-53680000D03*
X200970000Y-53680000D03*
X198430000Y-53680000D03*
X195890000Y-53680000D03*
X193350000Y-53680000D03*
X189286000Y-53680000D03*
X186746000Y-53680000D03*
X184206000Y-53680000D03*
X181666000Y-53680000D03*
X179126000Y-53680000D03*
X176586000Y-53680000D03*
X174046000Y-53680000D03*
X171506000Y-53680000D03*
X185730000Y-101940000D03*
D15*
X241610000Y-56220000D03*
X244150000Y-56220000D03*
X241610000Y-58760000D03*
X244150000Y-58760000D03*
X241610000Y-61300000D03*
X244150000Y-61300000D03*
X241610000Y-63840000D03*
X244150000Y-63840000D03*
X241610000Y-53680000D03*
X244150000Y-53680000D03*
X244150000Y-66380000D03*
X241610000Y-66380000D03*
X241610000Y-68920000D03*
X244150000Y-68920000D03*
X241610000Y-71460000D03*
X244150000Y-71460000D03*
X241610000Y-74000000D03*
X244150000Y-74000000D03*
X241610000Y-76540000D03*
X244150000Y-76540000D03*
X241610000Y-79080000D03*
X244150000Y-79080000D03*
X241610000Y-81620000D03*
X244150000Y-81620000D03*
X241610000Y-84160000D03*
X244150000Y-84160000D03*
X241610000Y-86700000D03*
X244150000Y-86700000D03*
X241610000Y-89240000D03*
X244150000Y-89240000D03*
X241610000Y-91780000D03*
X244150000Y-91780000D03*
X241610000Y-94320000D03*
X244150000Y-94320000D03*
X241610000Y-96860000D03*
X244150000Y-96860000D03*
X211130000Y-74000000D03*
X213670000Y-74000000D03*
X211130000Y-76540000D03*
X213670000Y-76540000D03*
X211130000Y-79080000D03*
X213670000Y-79080000D03*
D14*
X178110000Y-101940000D03*
X175570000Y-101940000D03*
X168966000Y-53680000D03*
X166426000Y-53680000D03*
D12*
X168860000Y-101790000D03*
D13*
X171400000Y-101790000D03*
D12*
X155200000Y-69630000D03*
D13*
X155200000Y-72170000D03*
X155200000Y-74710000D03*
D12*
X155200000Y-92510000D03*
D13*
X155200000Y-95050000D03*
X155200000Y-97590000D03*
X155200000Y-100130000D03*
D12*
X155200000Y-81320000D03*
D13*
X155200000Y-83860000D03*
X155200000Y-86400000D03*
D12*
X152660000Y-53850000D03*
D13*
X152660000Y-56390000D03*
X152660000Y-58930000D03*
D12*
X152780000Y-69630000D03*
D13*
X152780000Y-72170000D03*
X152780000Y-74710000D03*
D12*
X152660000Y-92510000D03*
D13*
X152660000Y-95050000D03*
X152660000Y-97590000D03*
X152660000Y-100130000D03*
D12*
X152660000Y-81320000D03*
D13*
X152660000Y-83860000D03*
X152660000Y-86400000D03*
D16*
X142050000Y-94100000D03*
X142050000Y-89020000D03*
X142050000Y-99180000D03*
X142100000Y-77020000D03*
X142100000Y-71940000D03*
X142100000Y-82100000D03*
X142130000Y-59860000D03*
X142130000Y-54780000D03*
X142130000Y-64940000D03*
D11*
X178460000Y-82360000D03*
X149910000Y-64070000D03*
X150200000Y-77510000D03*
X188610000Y-60000000D03*
D17*
X143349999Y-95399999D02*
X142050000Y-94100000D01*
X150640000Y-102690000D02*
X143349999Y-95399999D01*
X157159254Y-102690000D02*
X150640000Y-102690000D01*
X160429254Y-99420000D02*
X157159254Y-102690000D01*
X165240000Y-99420000D02*
X160429254Y-99420000D01*
X168860000Y-101790000D02*
X167610000Y-101790000D01*
X167610000Y-101790000D02*
X165240000Y-99420000D01*
D18*
X155200000Y-92510000D02*
X158710000Y-92510000D01*
X158710000Y-92510000D02*
X189120000Y-62100000D01*
X189120000Y-62100000D02*
X220750000Y-62100000D01*
X220750000Y-62100000D02*
X226370000Y-56480000D01*
X226370000Y-56480000D02*
X226370000Y-53680000D01*
X228910000Y-53680000D02*
X228910000Y-55250000D01*
X228910000Y-55250000D02*
X221180000Y-62980000D01*
X221180000Y-62980000D02*
X190610000Y-62980000D01*
X190610000Y-62980000D02*
X158540000Y-95050000D01*
X158540000Y-95050000D02*
X155200000Y-95050000D01*
X155200000Y-97590000D02*
X157640000Y-97590000D01*
X157640000Y-97590000D02*
X190800000Y-64430000D01*
X190800000Y-64430000D02*
X221208000Y-64430000D01*
X221208000Y-64430000D02*
X231450000Y-54188000D01*
X231450000Y-54188000D02*
X231450000Y-53680000D01*
X155200000Y-100130000D02*
X157430000Y-100130000D01*
X157430000Y-100130000D02*
X191460000Y-66100000D01*
X191460000Y-66100000D02*
X222078000Y-66100000D01*
X222078000Y-66100000D02*
X233990000Y-54188000D01*
X233990000Y-54188000D02*
X233990000Y-53680000D01*
X175180000Y-65260000D02*
X151100000Y-65260000D01*
X151100000Y-65260000D02*
X149910000Y-64070000D01*
X181260000Y-59180000D02*
X175180000Y-65260000D01*
X202120000Y-59180000D02*
X181260000Y-59180000D01*
X206050000Y-53680000D02*
X206050000Y-55250000D01*
X206050000Y-55250000D02*
X202120000Y-59180000D01*
X188610000Y-60000000D02*
X171960000Y-76650000D01*
X171960000Y-76650000D02*
X151060000Y-76650000D01*
X151060000Y-76650000D02*
X150200000Y-77510000D01*
D19*
G36*
X194329776Y-100401471D02*
X193884609Y-100104019D01*
X193350000Y-99997679D01*
X192815391Y-100104019D01*
X192362172Y-100406851D01*
X192070670Y-100843113D01*
X192052059Y-100780059D01*
X191708026Y-100354370D01*
X191227277Y-100092740D01*
X191153070Y-100077780D01*
X190937000Y-100200280D01*
X190937000Y-101813000D01*
X190957000Y-101813000D01*
X190957000Y-102067000D01*
X190937000Y-102067000D01*
X190937000Y-102087000D01*
X190683000Y-102087000D01*
X190683000Y-102067000D01*
X188397000Y-102067000D01*
X188397000Y-102087000D01*
X188143000Y-102087000D01*
X188143000Y-102067000D01*
X188123000Y-102067000D01*
X188123000Y-101813000D01*
X188143000Y-101813000D01*
X188143000Y-100200280D01*
X188397000Y-100200280D01*
X188397000Y-101813000D01*
X190683000Y-101813000D01*
X190683000Y-100200280D01*
X190466930Y-100077780D01*
X190392723Y-100092740D01*
X189911974Y-100354370D01*
X189567941Y-100780059D01*
X189540000Y-100874723D01*
X189512059Y-100780059D01*
X189168026Y-100354370D01*
X188687277Y-100092740D01*
X188613070Y-100077780D01*
X188397000Y-100200280D01*
X188143000Y-100200280D01*
X187926930Y-100077780D01*
X187852723Y-100092740D01*
X187371974Y-100354370D01*
X187027941Y-100780059D01*
X187009330Y-100843113D01*
X186717828Y-100406851D01*
X186264609Y-100104019D01*
X185730000Y-99997679D01*
X185195391Y-100104019D01*
X184742172Y-100406851D01*
X184460000Y-100829150D01*
X184177828Y-100406851D01*
X183724609Y-100104019D01*
X183190000Y-99997679D01*
X182655391Y-100104019D01*
X182202172Y-100406851D01*
X181920000Y-100829150D01*
X181637828Y-100406851D01*
X181184609Y-100104019D01*
X180650000Y-99997679D01*
X180115391Y-100104019D01*
X179662172Y-100406851D01*
X179380000Y-100829150D01*
X179097828Y-100406851D01*
X178644609Y-100104019D01*
X178110000Y-99997679D01*
X177575391Y-100104019D01*
X177122172Y-100406851D01*
X176840000Y-100829150D01*
X176557828Y-100406851D01*
X176104609Y-100104019D01*
X175570000Y-99997679D01*
X175035391Y-100104019D01*
X174582172Y-100406851D01*
X174279340Y-100860070D01*
X174173000Y-101394679D01*
X174173000Y-102485321D01*
X174279340Y-103019930D01*
X174582172Y-103473149D01*
X175035391Y-103775981D01*
X175055596Y-103780000D01*
X162902621Y-103780000D01*
X163483045Y-103200589D01*
X163822113Y-102384022D01*
X163822885Y-101499857D01*
X163485242Y-100682700D01*
X163058288Y-100255000D01*
X164894132Y-100255000D01*
X167019566Y-102380434D01*
X167290459Y-102561439D01*
X167362560Y-102575781D01*
X167362560Y-102640000D01*
X167406838Y-102875317D01*
X167545910Y-103091441D01*
X167758110Y-103236431D01*
X168010000Y-103287440D01*
X169710000Y-103287440D01*
X169945317Y-103243162D01*
X170161441Y-103104090D01*
X170306431Y-102891890D01*
X170320086Y-102824459D01*
X170349946Y-102869147D01*
X170831715Y-103191054D01*
X171400000Y-103304093D01*
X171968285Y-103191054D01*
X172450054Y-102869147D01*
X172771961Y-102387378D01*
X172885000Y-101819093D01*
X172885000Y-101760907D01*
X172771961Y-101192622D01*
X172450054Y-100710853D01*
X171968285Y-100388946D01*
X171400000Y-100275907D01*
X170831715Y-100388946D01*
X170349946Y-100710853D01*
X170322150Y-100752452D01*
X170313162Y-100704683D01*
X170174090Y-100488559D01*
X169961890Y-100343569D01*
X169710000Y-100292560D01*
X168010000Y-100292560D01*
X167774683Y-100336838D01*
X167558559Y-100475910D01*
X167525363Y-100524495D01*
X165830434Y-98829566D01*
X165700946Y-98743045D01*
X165559541Y-98648561D01*
X165240000Y-98585000D01*
X160429254Y-98585000D01*
X160109713Y-98648561D01*
X159968308Y-98743045D01*
X159844160Y-98825998D01*
X191785157Y-66885000D01*
X194034338Y-66885000D01*
X194329776Y-100401471D01*
X194329776Y-100401471D01*
G37*
X194329776Y-100401471D02*
X193884609Y-100104019D01*
X193350000Y-99997679D01*
X192815391Y-100104019D01*
X192362172Y-100406851D01*
X192070670Y-100843113D01*
X192052059Y-100780059D01*
X191708026Y-100354370D01*
X191227277Y-100092740D01*
X191153070Y-100077780D01*
X190937000Y-100200280D01*
X190937000Y-101813000D01*
X190957000Y-101813000D01*
X190957000Y-102067000D01*
X190937000Y-102067000D01*
X190937000Y-102087000D01*
X190683000Y-102087000D01*
X190683000Y-102067000D01*
X188397000Y-102067000D01*
X188397000Y-102087000D01*
X188143000Y-102087000D01*
X188143000Y-102067000D01*
X188123000Y-102067000D01*
X188123000Y-101813000D01*
X188143000Y-101813000D01*
X188143000Y-100200280D01*
X188397000Y-100200280D01*
X188397000Y-101813000D01*
X190683000Y-101813000D01*
X190683000Y-100200280D01*
X190466930Y-100077780D01*
X190392723Y-100092740D01*
X189911974Y-100354370D01*
X189567941Y-100780059D01*
X189540000Y-100874723D01*
X189512059Y-100780059D01*
X189168026Y-100354370D01*
X188687277Y-100092740D01*
X188613070Y-100077780D01*
X188397000Y-100200280D01*
X188143000Y-100200280D01*
X187926930Y-100077780D01*
X187852723Y-100092740D01*
X187371974Y-100354370D01*
X187027941Y-100780059D01*
X187009330Y-100843113D01*
X186717828Y-100406851D01*
X186264609Y-100104019D01*
X185730000Y-99997679D01*
X185195391Y-100104019D01*
X184742172Y-100406851D01*
X184460000Y-100829150D01*
X184177828Y-100406851D01*
X183724609Y-100104019D01*
X183190000Y-99997679D01*
X182655391Y-100104019D01*
X182202172Y-100406851D01*
X181920000Y-100829150D01*
X181637828Y-100406851D01*
X181184609Y-100104019D01*
X180650000Y-99997679D01*
X180115391Y-100104019D01*
X179662172Y-100406851D01*
X179380000Y-100829150D01*
X179097828Y-100406851D01*
X178644609Y-100104019D01*
X178110000Y-99997679D01*
X177575391Y-100104019D01*
X177122172Y-100406851D01*
X176840000Y-100829150D01*
X176557828Y-100406851D01*
X176104609Y-100104019D01*
X175570000Y-99997679D01*
X175035391Y-100104019D01*
X174582172Y-100406851D01*
X174279340Y-100860070D01*
X174173000Y-101394679D01*
X174173000Y-102485321D01*
X174279340Y-103019930D01*
X174582172Y-103473149D01*
X175035391Y-103775981D01*
X175055596Y-103780000D01*
X162902621Y-103780000D01*
X163483045Y-103200589D01*
X163822113Y-102384022D01*
X163822885Y-101499857D01*
X163485242Y-100682700D01*
X163058288Y-100255000D01*
X164894132Y-100255000D01*
X167019566Y-102380434D01*
X167290459Y-102561439D01*
X167362560Y-102575781D01*
X167362560Y-102640000D01*
X167406838Y-102875317D01*
X167545910Y-103091441D01*
X167758110Y-103236431D01*
X168010000Y-103287440D01*
X169710000Y-103287440D01*
X169945317Y-103243162D01*
X170161441Y-103104090D01*
X170306431Y-102891890D01*
X170320086Y-102824459D01*
X170349946Y-102869147D01*
X170831715Y-103191054D01*
X171400000Y-103304093D01*
X171968285Y-103191054D01*
X172450054Y-102869147D01*
X172771961Y-102387378D01*
X172885000Y-101819093D01*
X172885000Y-101760907D01*
X172771961Y-101192622D01*
X172450054Y-100710853D01*
X171968285Y-100388946D01*
X171400000Y-100275907D01*
X170831715Y-100388946D01*
X170349946Y-100710853D01*
X170322150Y-100752452D01*
X170313162Y-100704683D01*
X170174090Y-100488559D01*
X169961890Y-100343569D01*
X169710000Y-100292560D01*
X168010000Y-100292560D01*
X167774683Y-100336838D01*
X167558559Y-100475910D01*
X167525363Y-100524495D01*
X165830434Y-98829566D01*
X165700946Y-98743045D01*
X165559541Y-98648561D01*
X165240000Y-98585000D01*
X160429254Y-98585000D01*
X160109713Y-98648561D01*
X159968308Y-98743045D01*
X159844160Y-98825998D01*
X191785157Y-66885000D01*
X194034338Y-66885000D01*
X194329776Y-100401471D01*
M02*
