G04 #@! TF.FileFunction,Legend,Top*
%FSLAX46Y46*%
G04 Gerber Fmt 4.6, Leading zero omitted, Abs format (unit mm)*
G04 Created by KiCad (PCBNEW 4.0.4-stable) date 04/21/17 11:27:43*
%MOMM*%
%LPD*%
G01*
G04 APERTURE LIST*
%ADD10C,0.100000*%
%ADD11C,0.175000*%
%ADD12C,0.300000*%
%ADD13C,0.120000*%
%ADD14C,0.381000*%
%ADD15C,0.010000*%
%ADD16C,0.150000*%
G04 APERTURE END LIST*
D10*
D11*
X168880000Y-99403333D02*
X168880000Y-99636666D01*
X169246667Y-99636666D02*
X168546667Y-99636666D01*
X168546667Y-99303333D01*
X169246667Y-98703333D02*
X169246667Y-99036666D01*
X168546667Y-99036666D01*
X168546667Y-98336666D02*
X168546667Y-98203333D01*
X168580000Y-98136666D01*
X168646667Y-98069999D01*
X168780000Y-98036666D01*
X169013333Y-98036666D01*
X169146667Y-98069999D01*
X169213333Y-98136666D01*
X169246667Y-98203333D01*
X169246667Y-98336666D01*
X169213333Y-98403333D01*
X169146667Y-98469999D01*
X169013333Y-98503333D01*
X168780000Y-98503333D01*
X168646667Y-98469999D01*
X168580000Y-98403333D01*
X168546667Y-98336666D01*
X169046667Y-97770000D02*
X169046667Y-97436666D01*
X169246667Y-97836666D02*
X168546667Y-97603333D01*
X169246667Y-97370000D01*
X168546667Y-97236666D02*
X168546667Y-96836666D01*
X169246667Y-97036666D02*
X168546667Y-97036666D01*
X169313333Y-96770000D02*
X169313333Y-96236667D01*
X169246667Y-96070000D02*
X168546667Y-96070000D01*
X168546667Y-95803334D01*
X168580000Y-95736667D01*
X168613333Y-95703334D01*
X168680000Y-95670000D01*
X168780000Y-95670000D01*
X168846667Y-95703334D01*
X168880000Y-95736667D01*
X168913333Y-95803334D01*
X168913333Y-96070000D01*
X168546667Y-95436667D02*
X169246667Y-95270000D01*
X168746667Y-95136667D01*
X169246667Y-95003334D01*
X168546667Y-94836667D01*
X169246667Y-94170000D02*
X168913333Y-94403334D01*
X169246667Y-94570000D02*
X168546667Y-94570000D01*
X168546667Y-94303334D01*
X168580000Y-94236667D01*
X168613333Y-94203334D01*
X168680000Y-94170000D01*
X168780000Y-94170000D01*
X168846667Y-94203334D01*
X168880000Y-94236667D01*
X168913333Y-94303334D01*
X168913333Y-94570000D01*
X170966667Y-99303333D02*
X170966667Y-99636666D01*
X171300000Y-99670000D01*
X171266667Y-99636666D01*
X171233333Y-99570000D01*
X171233333Y-99403333D01*
X171266667Y-99336666D01*
X171300000Y-99303333D01*
X171366667Y-99270000D01*
X171533333Y-99270000D01*
X171600000Y-99303333D01*
X171633333Y-99336666D01*
X171666667Y-99403333D01*
X171666667Y-99570000D01*
X171633333Y-99636666D01*
X171600000Y-99670000D01*
X170966667Y-99069999D02*
X171666667Y-98836666D01*
X170966667Y-98603333D01*
X149526667Y-91796667D02*
X148826667Y-91796667D01*
X148826667Y-91530001D01*
X148860000Y-91463334D01*
X148893333Y-91430001D01*
X148960000Y-91396667D01*
X149060000Y-91396667D01*
X149126667Y-91430001D01*
X149160000Y-91463334D01*
X149193333Y-91530001D01*
X149193333Y-91796667D01*
X148893333Y-91130001D02*
X148860000Y-91096667D01*
X148826667Y-91030001D01*
X148826667Y-90863334D01*
X148860000Y-90796667D01*
X148893333Y-90763334D01*
X148960000Y-90730001D01*
X149026667Y-90730001D01*
X149126667Y-90763334D01*
X149526667Y-91163334D01*
X149526667Y-90730001D01*
X149126667Y-90330000D02*
X149093333Y-90396667D01*
X149060000Y-90430000D01*
X148993333Y-90463334D01*
X148960000Y-90463334D01*
X148893333Y-90430000D01*
X148860000Y-90396667D01*
X148826667Y-90330000D01*
X148826667Y-90196667D01*
X148860000Y-90130000D01*
X148893333Y-90096667D01*
X148960000Y-90063334D01*
X148993333Y-90063334D01*
X149060000Y-90096667D01*
X149093333Y-90130000D01*
X149126667Y-90196667D01*
X149126667Y-90330000D01*
X149160000Y-90396667D01*
X149193333Y-90430000D01*
X149260000Y-90463334D01*
X149393333Y-90463334D01*
X149460000Y-90430000D01*
X149493333Y-90396667D01*
X149526667Y-90330000D01*
X149526667Y-90196667D01*
X149493333Y-90130000D01*
X149460000Y-90096667D01*
X149393333Y-90063334D01*
X149260000Y-90063334D01*
X149193333Y-90096667D01*
X149160000Y-90130000D01*
X149126667Y-90196667D01*
X148793333Y-89263333D02*
X149693333Y-89863333D01*
X148893333Y-89063334D02*
X148860000Y-89030000D01*
X148826667Y-88963334D01*
X148826667Y-88796667D01*
X148860000Y-88730000D01*
X148893333Y-88696667D01*
X148960000Y-88663334D01*
X149026667Y-88663334D01*
X149126667Y-88696667D01*
X149526667Y-89096667D01*
X149526667Y-88663334D01*
X149526667Y-88330000D02*
X149526667Y-88196667D01*
X149493333Y-88130000D01*
X149460000Y-88096667D01*
X149360000Y-88030000D01*
X149226667Y-87996667D01*
X148960000Y-87996667D01*
X148893333Y-88030000D01*
X148860000Y-88063333D01*
X148826667Y-88130000D01*
X148826667Y-88263333D01*
X148860000Y-88330000D01*
X148893333Y-88363333D01*
X148960000Y-88396667D01*
X149126667Y-88396667D01*
X149193333Y-88363333D01*
X149226667Y-88330000D01*
X149260000Y-88263333D01*
X149260000Y-88130000D01*
X149226667Y-88063333D01*
X149193333Y-88030000D01*
X149126667Y-87996667D01*
X148793333Y-87196666D02*
X149693333Y-87796666D01*
X148826667Y-87030000D02*
X148826667Y-86596667D01*
X149093333Y-86830000D01*
X149093333Y-86730000D01*
X149126667Y-86663333D01*
X149160000Y-86630000D01*
X149226667Y-86596667D01*
X149393333Y-86596667D01*
X149460000Y-86630000D01*
X149493333Y-86663333D01*
X149526667Y-86730000D01*
X149526667Y-86930000D01*
X149493333Y-86996667D01*
X149460000Y-87030000D01*
X148826667Y-86163333D02*
X148826667Y-86096666D01*
X148860000Y-86030000D01*
X148893333Y-85996666D01*
X148960000Y-85963333D01*
X149093333Y-85930000D01*
X149260000Y-85930000D01*
X149393333Y-85963333D01*
X149460000Y-85996666D01*
X149493333Y-86030000D01*
X149526667Y-86096666D01*
X149526667Y-86163333D01*
X149493333Y-86230000D01*
X149460000Y-86263333D01*
X149393333Y-86296666D01*
X149260000Y-86330000D01*
X149093333Y-86330000D01*
X148960000Y-86296666D01*
X148893333Y-86263333D01*
X148860000Y-86230000D01*
X148826667Y-86163333D01*
X149146667Y-93656667D02*
X148813334Y-93656667D01*
X148780000Y-93990000D01*
X148813334Y-93956667D01*
X148880000Y-93923333D01*
X149046667Y-93923333D01*
X149113334Y-93956667D01*
X149146667Y-93990000D01*
X149180000Y-94056667D01*
X149180000Y-94223333D01*
X149146667Y-94290000D01*
X149113334Y-94323333D01*
X149046667Y-94356667D01*
X148880000Y-94356667D01*
X148813334Y-94323333D01*
X148780000Y-94290000D01*
X149380001Y-93656667D02*
X149613334Y-94356667D01*
X149846667Y-93656667D01*
X157216667Y-100326667D02*
X157216667Y-99626667D01*
X157383333Y-99626667D01*
X157483333Y-99660000D01*
X157550000Y-99726667D01*
X157583333Y-99793333D01*
X157616667Y-99926667D01*
X157616667Y-100026667D01*
X157583333Y-100160000D01*
X157550000Y-100226667D01*
X157483333Y-100293333D01*
X157383333Y-100326667D01*
X157216667Y-100326667D01*
X157916667Y-100326667D02*
X157916667Y-99626667D01*
X158383333Y-99626667D02*
X158516666Y-99626667D01*
X158583333Y-99660000D01*
X158650000Y-99726667D01*
X158683333Y-99860000D01*
X158683333Y-100093333D01*
X158650000Y-100226667D01*
X158583333Y-100293333D01*
X158516666Y-100326667D01*
X158383333Y-100326667D01*
X158316666Y-100293333D01*
X158250000Y-100226667D01*
X158216666Y-100093333D01*
X158216666Y-99860000D01*
X158250000Y-99726667D01*
X158316666Y-99660000D01*
X158383333Y-99626667D01*
X158949999Y-99693333D02*
X158983333Y-99660000D01*
X159049999Y-99626667D01*
X159216666Y-99626667D01*
X159283333Y-99660000D01*
X159316666Y-99693333D01*
X159349999Y-99760000D01*
X159349999Y-99826667D01*
X159316666Y-99926667D01*
X158916666Y-100326667D01*
X159349999Y-100326667D01*
X160016666Y-100326667D02*
X159616666Y-100326667D01*
X159816666Y-100326667D02*
X159816666Y-99626667D01*
X159750000Y-99726667D01*
X159683333Y-99793333D01*
X159616666Y-99826667D01*
X157306667Y-97796667D02*
X157306667Y-97096667D01*
X157473333Y-97096667D01*
X157573333Y-97130000D01*
X157640000Y-97196667D01*
X157673333Y-97263333D01*
X157706667Y-97396667D01*
X157706667Y-97496667D01*
X157673333Y-97630000D01*
X157640000Y-97696667D01*
X157573333Y-97763333D01*
X157473333Y-97796667D01*
X157306667Y-97796667D01*
X158006667Y-97796667D02*
X158006667Y-97096667D01*
X158473333Y-97096667D02*
X158606666Y-97096667D01*
X158673333Y-97130000D01*
X158740000Y-97196667D01*
X158773333Y-97330000D01*
X158773333Y-97563333D01*
X158740000Y-97696667D01*
X158673333Y-97763333D01*
X158606666Y-97796667D01*
X158473333Y-97796667D01*
X158406666Y-97763333D01*
X158340000Y-97696667D01*
X158306666Y-97563333D01*
X158306666Y-97330000D01*
X158340000Y-97196667D01*
X158406666Y-97130000D01*
X158473333Y-97096667D01*
X159039999Y-97163333D02*
X159073333Y-97130000D01*
X159139999Y-97096667D01*
X159306666Y-97096667D01*
X159373333Y-97130000D01*
X159406666Y-97163333D01*
X159439999Y-97230000D01*
X159439999Y-97296667D01*
X159406666Y-97396667D01*
X159006666Y-97796667D01*
X159439999Y-97796667D01*
X159873333Y-97096667D02*
X159940000Y-97096667D01*
X160006666Y-97130000D01*
X160040000Y-97163333D01*
X160073333Y-97230000D01*
X160106666Y-97363333D01*
X160106666Y-97530000D01*
X160073333Y-97663333D01*
X160040000Y-97730000D01*
X160006666Y-97763333D01*
X159940000Y-97796667D01*
X159873333Y-97796667D01*
X159806666Y-97763333D01*
X159773333Y-97730000D01*
X159740000Y-97663333D01*
X159706666Y-97530000D01*
X159706666Y-97363333D01*
X159740000Y-97230000D01*
X159773333Y-97163333D01*
X159806666Y-97130000D01*
X159873333Y-97096667D01*
X157526667Y-95456667D02*
X157526667Y-94756667D01*
X157693333Y-94756667D01*
X157793333Y-94790000D01*
X157860000Y-94856667D01*
X157893333Y-94923333D01*
X157926667Y-95056667D01*
X157926667Y-95156667D01*
X157893333Y-95290000D01*
X157860000Y-95356667D01*
X157793333Y-95423333D01*
X157693333Y-95456667D01*
X157526667Y-95456667D01*
X158226667Y-95456667D02*
X158226667Y-94756667D01*
X158693333Y-94756667D02*
X158826666Y-94756667D01*
X158893333Y-94790000D01*
X158960000Y-94856667D01*
X158993333Y-94990000D01*
X158993333Y-95223333D01*
X158960000Y-95356667D01*
X158893333Y-95423333D01*
X158826666Y-95456667D01*
X158693333Y-95456667D01*
X158626666Y-95423333D01*
X158560000Y-95356667D01*
X158526666Y-95223333D01*
X158526666Y-94990000D01*
X158560000Y-94856667D01*
X158626666Y-94790000D01*
X158693333Y-94756667D01*
X159659999Y-95456667D02*
X159259999Y-95456667D01*
X159459999Y-95456667D02*
X159459999Y-94756667D01*
X159393333Y-94856667D01*
X159326666Y-94923333D01*
X159259999Y-94956667D01*
X159993333Y-95456667D02*
X160126666Y-95456667D01*
X160193333Y-95423333D01*
X160226666Y-95390000D01*
X160293333Y-95290000D01*
X160326666Y-95156667D01*
X160326666Y-94890000D01*
X160293333Y-94823333D01*
X160260000Y-94790000D01*
X160193333Y-94756667D01*
X160060000Y-94756667D01*
X159993333Y-94790000D01*
X159960000Y-94823333D01*
X159926666Y-94890000D01*
X159926666Y-95056667D01*
X159960000Y-95123333D01*
X159993333Y-95156667D01*
X160060000Y-95190000D01*
X160193333Y-95190000D01*
X160260000Y-95156667D01*
X160293333Y-95123333D01*
X160326666Y-95056667D01*
X157436667Y-92956667D02*
X157436667Y-92256667D01*
X157603333Y-92256667D01*
X157703333Y-92290000D01*
X157770000Y-92356667D01*
X157803333Y-92423333D01*
X157836667Y-92556667D01*
X157836667Y-92656667D01*
X157803333Y-92790000D01*
X157770000Y-92856667D01*
X157703333Y-92923333D01*
X157603333Y-92956667D01*
X157436667Y-92956667D01*
X158136667Y-92956667D02*
X158136667Y-92256667D01*
X158603333Y-92256667D02*
X158736666Y-92256667D01*
X158803333Y-92290000D01*
X158870000Y-92356667D01*
X158903333Y-92490000D01*
X158903333Y-92723333D01*
X158870000Y-92856667D01*
X158803333Y-92923333D01*
X158736666Y-92956667D01*
X158603333Y-92956667D01*
X158536666Y-92923333D01*
X158470000Y-92856667D01*
X158436666Y-92723333D01*
X158436666Y-92490000D01*
X158470000Y-92356667D01*
X158536666Y-92290000D01*
X158603333Y-92256667D01*
X159569999Y-92956667D02*
X159169999Y-92956667D01*
X159369999Y-92956667D02*
X159369999Y-92256667D01*
X159303333Y-92356667D01*
X159236666Y-92423333D01*
X159169999Y-92456667D01*
X159970000Y-92556667D02*
X159903333Y-92523333D01*
X159870000Y-92490000D01*
X159836666Y-92423333D01*
X159836666Y-92390000D01*
X159870000Y-92323333D01*
X159903333Y-92290000D01*
X159970000Y-92256667D01*
X160103333Y-92256667D01*
X160170000Y-92290000D01*
X160203333Y-92323333D01*
X160236666Y-92390000D01*
X160236666Y-92423333D01*
X160203333Y-92490000D01*
X160170000Y-92523333D01*
X160103333Y-92556667D01*
X159970000Y-92556667D01*
X159903333Y-92590000D01*
X159870000Y-92623333D01*
X159836666Y-92690000D01*
X159836666Y-92823333D01*
X159870000Y-92890000D01*
X159903333Y-92923333D01*
X159970000Y-92956667D01*
X160103333Y-92956667D01*
X160170000Y-92923333D01*
X160203333Y-92890000D01*
X160236666Y-92823333D01*
X160236666Y-92690000D01*
X160203333Y-92623333D01*
X160170000Y-92590000D01*
X160103333Y-92556667D01*
X157376667Y-86706667D02*
X157376667Y-86006667D01*
X157543333Y-86006667D01*
X157643333Y-86040000D01*
X157710000Y-86106667D01*
X157743333Y-86173333D01*
X157776667Y-86306667D01*
X157776667Y-86406667D01*
X157743333Y-86540000D01*
X157710000Y-86606667D01*
X157643333Y-86673333D01*
X157543333Y-86706667D01*
X157376667Y-86706667D01*
X158076667Y-86706667D02*
X158076667Y-86006667D01*
X158543333Y-86006667D02*
X158676666Y-86006667D01*
X158743333Y-86040000D01*
X158810000Y-86106667D01*
X158843333Y-86240000D01*
X158843333Y-86473333D01*
X158810000Y-86606667D01*
X158743333Y-86673333D01*
X158676666Y-86706667D01*
X158543333Y-86706667D01*
X158476666Y-86673333D01*
X158410000Y-86606667D01*
X158376666Y-86473333D01*
X158376666Y-86240000D01*
X158410000Y-86106667D01*
X158476666Y-86040000D01*
X158543333Y-86006667D01*
X159076666Y-86006667D02*
X159509999Y-86006667D01*
X159276666Y-86273333D01*
X159376666Y-86273333D01*
X159443333Y-86306667D01*
X159476666Y-86340000D01*
X159509999Y-86406667D01*
X159509999Y-86573333D01*
X159476666Y-86640000D01*
X159443333Y-86673333D01*
X159376666Y-86706667D01*
X159176666Y-86706667D01*
X159109999Y-86673333D01*
X159076666Y-86640000D01*
X159943333Y-86006667D02*
X160010000Y-86006667D01*
X160076666Y-86040000D01*
X160110000Y-86073333D01*
X160143333Y-86140000D01*
X160176666Y-86273333D01*
X160176666Y-86440000D01*
X160143333Y-86573333D01*
X160110000Y-86640000D01*
X160076666Y-86673333D01*
X160010000Y-86706667D01*
X159943333Y-86706667D01*
X159876666Y-86673333D01*
X159843333Y-86640000D01*
X159810000Y-86573333D01*
X159776666Y-86440000D01*
X159776666Y-86273333D01*
X159810000Y-86140000D01*
X159843333Y-86073333D01*
X159876666Y-86040000D01*
X159943333Y-86006667D01*
X157356667Y-84176667D02*
X157356667Y-83476667D01*
X157523333Y-83476667D01*
X157623333Y-83510000D01*
X157690000Y-83576667D01*
X157723333Y-83643333D01*
X157756667Y-83776667D01*
X157756667Y-83876667D01*
X157723333Y-84010000D01*
X157690000Y-84076667D01*
X157623333Y-84143333D01*
X157523333Y-84176667D01*
X157356667Y-84176667D01*
X158056667Y-84176667D02*
X158056667Y-83476667D01*
X158523333Y-83476667D02*
X158656666Y-83476667D01*
X158723333Y-83510000D01*
X158790000Y-83576667D01*
X158823333Y-83710000D01*
X158823333Y-83943333D01*
X158790000Y-84076667D01*
X158723333Y-84143333D01*
X158656666Y-84176667D01*
X158523333Y-84176667D01*
X158456666Y-84143333D01*
X158390000Y-84076667D01*
X158356666Y-83943333D01*
X158356666Y-83710000D01*
X158390000Y-83576667D01*
X158456666Y-83510000D01*
X158523333Y-83476667D01*
X159089999Y-83543333D02*
X159123333Y-83510000D01*
X159189999Y-83476667D01*
X159356666Y-83476667D01*
X159423333Y-83510000D01*
X159456666Y-83543333D01*
X159489999Y-83610000D01*
X159489999Y-83676667D01*
X159456666Y-83776667D01*
X159056666Y-84176667D01*
X159489999Y-84176667D01*
X159823333Y-84176667D02*
X159956666Y-84176667D01*
X160023333Y-84143333D01*
X160056666Y-84110000D01*
X160123333Y-84010000D01*
X160156666Y-83876667D01*
X160156666Y-83610000D01*
X160123333Y-83543333D01*
X160090000Y-83510000D01*
X160023333Y-83476667D01*
X159890000Y-83476667D01*
X159823333Y-83510000D01*
X159790000Y-83543333D01*
X159756666Y-83610000D01*
X159756666Y-83776667D01*
X159790000Y-83843333D01*
X159823333Y-83876667D01*
X159890000Y-83910000D01*
X160023333Y-83910000D01*
X160090000Y-83876667D01*
X160123333Y-83843333D01*
X160156666Y-83776667D01*
X157406667Y-81676667D02*
X157406667Y-80976667D01*
X157573333Y-80976667D01*
X157673333Y-81010000D01*
X157740000Y-81076667D01*
X157773333Y-81143333D01*
X157806667Y-81276667D01*
X157806667Y-81376667D01*
X157773333Y-81510000D01*
X157740000Y-81576667D01*
X157673333Y-81643333D01*
X157573333Y-81676667D01*
X157406667Y-81676667D01*
X158106667Y-81676667D02*
X158106667Y-80976667D01*
X158573333Y-80976667D02*
X158706666Y-80976667D01*
X158773333Y-81010000D01*
X158840000Y-81076667D01*
X158873333Y-81210000D01*
X158873333Y-81443333D01*
X158840000Y-81576667D01*
X158773333Y-81643333D01*
X158706666Y-81676667D01*
X158573333Y-81676667D01*
X158506666Y-81643333D01*
X158440000Y-81576667D01*
X158406666Y-81443333D01*
X158406666Y-81210000D01*
X158440000Y-81076667D01*
X158506666Y-81010000D01*
X158573333Y-80976667D01*
X159139999Y-81043333D02*
X159173333Y-81010000D01*
X159239999Y-80976667D01*
X159406666Y-80976667D01*
X159473333Y-81010000D01*
X159506666Y-81043333D01*
X159539999Y-81110000D01*
X159539999Y-81176667D01*
X159506666Y-81276667D01*
X159106666Y-81676667D01*
X159539999Y-81676667D01*
X159940000Y-81276667D02*
X159873333Y-81243333D01*
X159840000Y-81210000D01*
X159806666Y-81143333D01*
X159806666Y-81110000D01*
X159840000Y-81043333D01*
X159873333Y-81010000D01*
X159940000Y-80976667D01*
X160073333Y-80976667D01*
X160140000Y-81010000D01*
X160173333Y-81043333D01*
X160206666Y-81110000D01*
X160206666Y-81143333D01*
X160173333Y-81210000D01*
X160140000Y-81243333D01*
X160073333Y-81276667D01*
X159940000Y-81276667D01*
X159873333Y-81310000D01*
X159840000Y-81343333D01*
X159806666Y-81410000D01*
X159806666Y-81543333D01*
X159840000Y-81610000D01*
X159873333Y-81643333D01*
X159940000Y-81676667D01*
X160073333Y-81676667D01*
X160140000Y-81643333D01*
X160173333Y-81610000D01*
X160206666Y-81543333D01*
X160206666Y-81410000D01*
X160173333Y-81343333D01*
X160140000Y-81310000D01*
X160073333Y-81276667D01*
X149696667Y-103700000D02*
X148996667Y-103700000D01*
X148996667Y-103433334D01*
X149030000Y-103366667D01*
X149063333Y-103333334D01*
X149130000Y-103300000D01*
X149230000Y-103300000D01*
X149296667Y-103333334D01*
X149330000Y-103366667D01*
X149363333Y-103433334D01*
X149363333Y-103700000D01*
X149696667Y-102633334D02*
X149696667Y-103033334D01*
X149696667Y-102833334D02*
X148996667Y-102833334D01*
X149096667Y-102900000D01*
X149163333Y-102966667D01*
X149196667Y-103033334D01*
X149296667Y-102233333D02*
X149263333Y-102300000D01*
X149230000Y-102333333D01*
X149163333Y-102366667D01*
X149130000Y-102366667D01*
X149063333Y-102333333D01*
X149030000Y-102300000D01*
X148996667Y-102233333D01*
X148996667Y-102100000D01*
X149030000Y-102033333D01*
X149063333Y-102000000D01*
X149130000Y-101966667D01*
X149163333Y-101966667D01*
X149230000Y-102000000D01*
X149263333Y-102033333D01*
X149296667Y-102100000D01*
X149296667Y-102233333D01*
X149330000Y-102300000D01*
X149363333Y-102333333D01*
X149430000Y-102366667D01*
X149563333Y-102366667D01*
X149630000Y-102333333D01*
X149663333Y-102300000D01*
X149696667Y-102233333D01*
X149696667Y-102100000D01*
X149663333Y-102033333D01*
X149630000Y-102000000D01*
X149563333Y-101966667D01*
X149430000Y-101966667D01*
X149363333Y-102000000D01*
X149330000Y-102033333D01*
X149296667Y-102100000D01*
X148963333Y-101166666D02*
X149863333Y-101766666D01*
X149696667Y-100566667D02*
X149696667Y-100966667D01*
X149696667Y-100766667D02*
X148996667Y-100766667D01*
X149096667Y-100833333D01*
X149163333Y-100900000D01*
X149196667Y-100966667D01*
X149696667Y-100233333D02*
X149696667Y-100100000D01*
X149663333Y-100033333D01*
X149630000Y-100000000D01*
X149530000Y-99933333D01*
X149396667Y-99900000D01*
X149130000Y-99900000D01*
X149063333Y-99933333D01*
X149030000Y-99966666D01*
X148996667Y-100033333D01*
X148996667Y-100166666D01*
X149030000Y-100233333D01*
X149063333Y-100266666D01*
X149130000Y-100300000D01*
X149296667Y-100300000D01*
X149363333Y-100266666D01*
X149396667Y-100233333D01*
X149430000Y-100166666D01*
X149430000Y-100033333D01*
X149396667Y-99966666D01*
X149363333Y-99933333D01*
X149296667Y-99900000D01*
X148963333Y-99099999D02*
X149863333Y-99699999D01*
X149063333Y-98900000D02*
X149030000Y-98866666D01*
X148996667Y-98800000D01*
X148996667Y-98633333D01*
X149030000Y-98566666D01*
X149063333Y-98533333D01*
X149130000Y-98500000D01*
X149196667Y-98500000D01*
X149296667Y-98533333D01*
X149696667Y-98933333D01*
X149696667Y-98500000D01*
X148996667Y-98066666D02*
X148996667Y-97999999D01*
X149030000Y-97933333D01*
X149063333Y-97899999D01*
X149130000Y-97866666D01*
X149263333Y-97833333D01*
X149430000Y-97833333D01*
X149563333Y-97866666D01*
X149630000Y-97899999D01*
X149663333Y-97933333D01*
X149696667Y-97999999D01*
X149696667Y-98066666D01*
X149663333Y-98133333D01*
X149630000Y-98166666D01*
X149563333Y-98199999D01*
X149430000Y-98233333D01*
X149263333Y-98233333D01*
X149130000Y-98199999D01*
X149063333Y-98166666D01*
X149030000Y-98133333D01*
X148996667Y-98066666D01*
X148963333Y-97033332D02*
X149863333Y-97633332D01*
X149063333Y-96833333D02*
X149030000Y-96799999D01*
X148996667Y-96733333D01*
X148996667Y-96566666D01*
X149030000Y-96499999D01*
X149063333Y-96466666D01*
X149130000Y-96433333D01*
X149196667Y-96433333D01*
X149296667Y-96466666D01*
X149696667Y-96866666D01*
X149696667Y-96433333D01*
X149696667Y-95766666D02*
X149696667Y-96166666D01*
X149696667Y-95966666D02*
X148996667Y-95966666D01*
X149096667Y-96033332D01*
X149163333Y-96099999D01*
X149196667Y-96166666D01*
X149226667Y-83139999D02*
X148526667Y-83139999D01*
X148526667Y-82973333D01*
X148560000Y-82873333D01*
X148626667Y-82806666D01*
X148693333Y-82773333D01*
X148826667Y-82739999D01*
X148926667Y-82739999D01*
X149060000Y-82773333D01*
X149126667Y-82806666D01*
X149193333Y-82873333D01*
X149226667Y-82973333D01*
X149226667Y-83139999D01*
X149226667Y-82439999D02*
X148526667Y-82439999D01*
X148526667Y-81973333D02*
X148526667Y-81840000D01*
X148560000Y-81773333D01*
X148626667Y-81706666D01*
X148760000Y-81673333D01*
X148993333Y-81673333D01*
X149126667Y-81706666D01*
X149193333Y-81773333D01*
X149226667Y-81840000D01*
X149226667Y-81973333D01*
X149193333Y-82040000D01*
X149126667Y-82106666D01*
X148993333Y-82140000D01*
X148760000Y-82140000D01*
X148626667Y-82106666D01*
X148560000Y-82040000D01*
X148526667Y-81973333D01*
X148526667Y-81440000D02*
X148526667Y-81006667D01*
X148793333Y-81240000D01*
X148793333Y-81140000D01*
X148826667Y-81073333D01*
X148860000Y-81040000D01*
X148926667Y-81006667D01*
X149093333Y-81006667D01*
X149160000Y-81040000D01*
X149193333Y-81073333D01*
X149226667Y-81140000D01*
X149226667Y-81340000D01*
X149193333Y-81406667D01*
X149160000Y-81440000D01*
X148776667Y-76546667D02*
X148443334Y-76546667D01*
X148410000Y-76880000D01*
X148443334Y-76846667D01*
X148510000Y-76813333D01*
X148676667Y-76813333D01*
X148743334Y-76846667D01*
X148776667Y-76880000D01*
X148810000Y-76946667D01*
X148810000Y-77113333D01*
X148776667Y-77180000D01*
X148743334Y-77213333D01*
X148676667Y-77246667D01*
X148510000Y-77246667D01*
X148443334Y-77213333D01*
X148410000Y-77180000D01*
X149010001Y-76546667D02*
X149243334Y-77246667D01*
X149476667Y-76546667D01*
X149226667Y-74856667D02*
X148526667Y-74856667D01*
X148526667Y-74590001D01*
X148560000Y-74523334D01*
X148593333Y-74490001D01*
X148660000Y-74456667D01*
X148760000Y-74456667D01*
X148826667Y-74490001D01*
X148860000Y-74523334D01*
X148893333Y-74590001D01*
X148893333Y-74856667D01*
X148593333Y-74190001D02*
X148560000Y-74156667D01*
X148526667Y-74090001D01*
X148526667Y-73923334D01*
X148560000Y-73856667D01*
X148593333Y-73823334D01*
X148660000Y-73790001D01*
X148726667Y-73790001D01*
X148826667Y-73823334D01*
X149226667Y-74223334D01*
X149226667Y-73790001D01*
X148526667Y-73156667D02*
X148526667Y-73490000D01*
X148860000Y-73523334D01*
X148826667Y-73490000D01*
X148793333Y-73423334D01*
X148793333Y-73256667D01*
X148826667Y-73190000D01*
X148860000Y-73156667D01*
X148926667Y-73123334D01*
X149093333Y-73123334D01*
X149160000Y-73156667D01*
X149193333Y-73190000D01*
X149226667Y-73256667D01*
X149226667Y-73423334D01*
X149193333Y-73490000D01*
X149160000Y-73523334D01*
X148493333Y-72323333D02*
X149393333Y-72923333D01*
X148593333Y-72123334D02*
X148560000Y-72090000D01*
X148526667Y-72023334D01*
X148526667Y-71856667D01*
X148560000Y-71790000D01*
X148593333Y-71756667D01*
X148660000Y-71723334D01*
X148726667Y-71723334D01*
X148826667Y-71756667D01*
X149226667Y-72156667D01*
X149226667Y-71723334D01*
X148526667Y-71123333D02*
X148526667Y-71256667D01*
X148560000Y-71323333D01*
X148593333Y-71356667D01*
X148693333Y-71423333D01*
X148826667Y-71456667D01*
X149093333Y-71456667D01*
X149160000Y-71423333D01*
X149193333Y-71390000D01*
X149226667Y-71323333D01*
X149226667Y-71190000D01*
X149193333Y-71123333D01*
X149160000Y-71090000D01*
X149093333Y-71056667D01*
X148926667Y-71056667D01*
X148860000Y-71090000D01*
X148826667Y-71123333D01*
X148793333Y-71190000D01*
X148793333Y-71323333D01*
X148826667Y-71390000D01*
X148860000Y-71423333D01*
X148926667Y-71456667D01*
X148493333Y-70256666D02*
X149393333Y-70856666D01*
X148593333Y-70056667D02*
X148560000Y-70023333D01*
X148526667Y-69956667D01*
X148526667Y-69790000D01*
X148560000Y-69723333D01*
X148593333Y-69690000D01*
X148660000Y-69656667D01*
X148726667Y-69656667D01*
X148826667Y-69690000D01*
X149226667Y-70090000D01*
X149226667Y-69656667D01*
X148526667Y-69423333D02*
X148526667Y-68956666D01*
X149226667Y-69256666D01*
X157446667Y-74906667D02*
X157446667Y-74206667D01*
X157613333Y-74206667D01*
X157713333Y-74240000D01*
X157780000Y-74306667D01*
X157813333Y-74373333D01*
X157846667Y-74506667D01*
X157846667Y-74606667D01*
X157813333Y-74740000D01*
X157780000Y-74806667D01*
X157713333Y-74873333D01*
X157613333Y-74906667D01*
X157446667Y-74906667D01*
X158146667Y-74906667D02*
X158146667Y-74206667D01*
X158613333Y-74206667D02*
X158746666Y-74206667D01*
X158813333Y-74240000D01*
X158880000Y-74306667D01*
X158913333Y-74440000D01*
X158913333Y-74673333D01*
X158880000Y-74806667D01*
X158813333Y-74873333D01*
X158746666Y-74906667D01*
X158613333Y-74906667D01*
X158546666Y-74873333D01*
X158480000Y-74806667D01*
X158446666Y-74673333D01*
X158446666Y-74440000D01*
X158480000Y-74306667D01*
X158546666Y-74240000D01*
X158613333Y-74206667D01*
X159179999Y-74273333D02*
X159213333Y-74240000D01*
X159279999Y-74206667D01*
X159446666Y-74206667D01*
X159513333Y-74240000D01*
X159546666Y-74273333D01*
X159579999Y-74340000D01*
X159579999Y-74406667D01*
X159546666Y-74506667D01*
X159146666Y-74906667D01*
X159579999Y-74906667D01*
X159813333Y-74206667D02*
X160280000Y-74206667D01*
X159980000Y-74906667D01*
X157366667Y-72366667D02*
X157366667Y-71666667D01*
X157533333Y-71666667D01*
X157633333Y-71700000D01*
X157700000Y-71766667D01*
X157733333Y-71833333D01*
X157766667Y-71966667D01*
X157766667Y-72066667D01*
X157733333Y-72200000D01*
X157700000Y-72266667D01*
X157633333Y-72333333D01*
X157533333Y-72366667D01*
X157366667Y-72366667D01*
X158066667Y-72366667D02*
X158066667Y-71666667D01*
X158533333Y-71666667D02*
X158666666Y-71666667D01*
X158733333Y-71700000D01*
X158800000Y-71766667D01*
X158833333Y-71900000D01*
X158833333Y-72133333D01*
X158800000Y-72266667D01*
X158733333Y-72333333D01*
X158666666Y-72366667D01*
X158533333Y-72366667D01*
X158466666Y-72333333D01*
X158400000Y-72266667D01*
X158366666Y-72133333D01*
X158366666Y-71900000D01*
X158400000Y-71766667D01*
X158466666Y-71700000D01*
X158533333Y-71666667D01*
X159099999Y-71733333D02*
X159133333Y-71700000D01*
X159199999Y-71666667D01*
X159366666Y-71666667D01*
X159433333Y-71700000D01*
X159466666Y-71733333D01*
X159499999Y-71800000D01*
X159499999Y-71866667D01*
X159466666Y-71966667D01*
X159066666Y-72366667D01*
X159499999Y-72366667D01*
X160100000Y-71666667D02*
X159966666Y-71666667D01*
X159900000Y-71700000D01*
X159866666Y-71733333D01*
X159800000Y-71833333D01*
X159766666Y-71966667D01*
X159766666Y-72233333D01*
X159800000Y-72300000D01*
X159833333Y-72333333D01*
X159900000Y-72366667D01*
X160033333Y-72366667D01*
X160100000Y-72333333D01*
X160133333Y-72300000D01*
X160166666Y-72233333D01*
X160166666Y-72066667D01*
X160133333Y-72000000D01*
X160100000Y-71966667D01*
X160033333Y-71933333D01*
X159900000Y-71933333D01*
X159833333Y-71966667D01*
X159800000Y-72000000D01*
X159766666Y-72066667D01*
X157346667Y-69986667D02*
X157346667Y-69286667D01*
X157513333Y-69286667D01*
X157613333Y-69320000D01*
X157680000Y-69386667D01*
X157713333Y-69453333D01*
X157746667Y-69586667D01*
X157746667Y-69686667D01*
X157713333Y-69820000D01*
X157680000Y-69886667D01*
X157613333Y-69953333D01*
X157513333Y-69986667D01*
X157346667Y-69986667D01*
X158046667Y-69986667D02*
X158046667Y-69286667D01*
X158513333Y-69286667D02*
X158646666Y-69286667D01*
X158713333Y-69320000D01*
X158780000Y-69386667D01*
X158813333Y-69520000D01*
X158813333Y-69753333D01*
X158780000Y-69886667D01*
X158713333Y-69953333D01*
X158646666Y-69986667D01*
X158513333Y-69986667D01*
X158446666Y-69953333D01*
X158380000Y-69886667D01*
X158346666Y-69753333D01*
X158346666Y-69520000D01*
X158380000Y-69386667D01*
X158446666Y-69320000D01*
X158513333Y-69286667D01*
X159079999Y-69353333D02*
X159113333Y-69320000D01*
X159179999Y-69286667D01*
X159346666Y-69286667D01*
X159413333Y-69320000D01*
X159446666Y-69353333D01*
X159479999Y-69420000D01*
X159479999Y-69486667D01*
X159446666Y-69586667D01*
X159046666Y-69986667D01*
X159479999Y-69986667D01*
X160113333Y-69286667D02*
X159780000Y-69286667D01*
X159746666Y-69620000D01*
X159780000Y-69586667D01*
X159846666Y-69553333D01*
X160013333Y-69553333D01*
X160080000Y-69586667D01*
X160113333Y-69620000D01*
X160146666Y-69686667D01*
X160146666Y-69853333D01*
X160113333Y-69920000D01*
X160080000Y-69953333D01*
X160013333Y-69986667D01*
X159846666Y-69986667D01*
X159780000Y-69953333D01*
X159746666Y-69920000D01*
X149226667Y-65959999D02*
X148526667Y-65959999D01*
X148526667Y-65793333D01*
X148560000Y-65693333D01*
X148626667Y-65626666D01*
X148693333Y-65593333D01*
X148826667Y-65559999D01*
X148926667Y-65559999D01*
X149060000Y-65593333D01*
X149126667Y-65626666D01*
X149193333Y-65693333D01*
X149226667Y-65793333D01*
X149226667Y-65959999D01*
X149226667Y-65259999D02*
X148526667Y-65259999D01*
X148526667Y-64793333D02*
X148526667Y-64660000D01*
X148560000Y-64593333D01*
X148626667Y-64526666D01*
X148760000Y-64493333D01*
X148993333Y-64493333D01*
X149126667Y-64526666D01*
X149193333Y-64593333D01*
X149226667Y-64660000D01*
X149226667Y-64793333D01*
X149193333Y-64860000D01*
X149126667Y-64926666D01*
X148993333Y-64960000D01*
X148760000Y-64960000D01*
X148626667Y-64926666D01*
X148560000Y-64860000D01*
X148526667Y-64793333D01*
X148593333Y-64226667D02*
X148560000Y-64193333D01*
X148526667Y-64126667D01*
X148526667Y-63960000D01*
X148560000Y-63893333D01*
X148593333Y-63860000D01*
X148660000Y-63826667D01*
X148726667Y-63826667D01*
X148826667Y-63860000D01*
X149226667Y-64260000D01*
X149226667Y-63826667D01*
X148776667Y-59476667D02*
X148443334Y-59476667D01*
X148410000Y-59810000D01*
X148443334Y-59776667D01*
X148510000Y-59743333D01*
X148676667Y-59743333D01*
X148743334Y-59776667D01*
X148776667Y-59810000D01*
X148810000Y-59876667D01*
X148810000Y-60043333D01*
X148776667Y-60110000D01*
X148743334Y-60143333D01*
X148676667Y-60176667D01*
X148510000Y-60176667D01*
X148443334Y-60143333D01*
X148410000Y-60110000D01*
X149010001Y-59476667D02*
X149243334Y-60176667D01*
X149476667Y-59476667D01*
X149226667Y-57746667D02*
X148526667Y-57746667D01*
X148526667Y-57480001D01*
X148560000Y-57413334D01*
X148593333Y-57380001D01*
X148660000Y-57346667D01*
X148760000Y-57346667D01*
X148826667Y-57380001D01*
X148860000Y-57413334D01*
X148893333Y-57480001D01*
X148893333Y-57746667D01*
X148593333Y-57080001D02*
X148560000Y-57046667D01*
X148526667Y-56980001D01*
X148526667Y-56813334D01*
X148560000Y-56746667D01*
X148593333Y-56713334D01*
X148660000Y-56680001D01*
X148726667Y-56680001D01*
X148826667Y-56713334D01*
X149226667Y-57113334D01*
X149226667Y-56680001D01*
X148593333Y-56413334D02*
X148560000Y-56380000D01*
X148526667Y-56313334D01*
X148526667Y-56146667D01*
X148560000Y-56080000D01*
X148593333Y-56046667D01*
X148660000Y-56013334D01*
X148726667Y-56013334D01*
X148826667Y-56046667D01*
X149226667Y-56446667D01*
X149226667Y-56013334D01*
X148493333Y-55213333D02*
X149393333Y-55813333D01*
X148593333Y-55013334D02*
X148560000Y-54980000D01*
X148526667Y-54913334D01*
X148526667Y-54746667D01*
X148560000Y-54680000D01*
X148593333Y-54646667D01*
X148660000Y-54613334D01*
X148726667Y-54613334D01*
X148826667Y-54646667D01*
X149226667Y-55046667D01*
X149226667Y-54613334D01*
X148526667Y-54380000D02*
X148526667Y-53946667D01*
X148793333Y-54180000D01*
X148793333Y-54080000D01*
X148826667Y-54013333D01*
X148860000Y-53980000D01*
X148926667Y-53946667D01*
X149093333Y-53946667D01*
X149160000Y-53980000D01*
X149193333Y-54013333D01*
X149226667Y-54080000D01*
X149226667Y-54280000D01*
X149193333Y-54346667D01*
X149160000Y-54380000D01*
X148493333Y-53146666D02*
X149393333Y-53746666D01*
X148593333Y-52946667D02*
X148560000Y-52913333D01*
X148526667Y-52846667D01*
X148526667Y-52680000D01*
X148560000Y-52613333D01*
X148593333Y-52580000D01*
X148660000Y-52546667D01*
X148726667Y-52546667D01*
X148826667Y-52580000D01*
X149226667Y-52980000D01*
X149226667Y-52546667D01*
X148760000Y-51946666D02*
X149226667Y-51946666D01*
X148493333Y-52113333D02*
X148993333Y-52280000D01*
X148993333Y-51846666D01*
X157676667Y-59326667D02*
X157676667Y-58626667D01*
X157843333Y-58626667D01*
X157943333Y-58660000D01*
X158010000Y-58726667D01*
X158043333Y-58793333D01*
X158076667Y-58926667D01*
X158076667Y-59026667D01*
X158043333Y-59160000D01*
X158010000Y-59226667D01*
X157943333Y-59293333D01*
X157843333Y-59326667D01*
X157676667Y-59326667D01*
X158376667Y-59326667D02*
X158376667Y-58626667D01*
X158843333Y-58626667D02*
X158976666Y-58626667D01*
X159043333Y-58660000D01*
X159110000Y-58726667D01*
X159143333Y-58860000D01*
X159143333Y-59093333D01*
X159110000Y-59226667D01*
X159043333Y-59293333D01*
X158976666Y-59326667D01*
X158843333Y-59326667D01*
X158776666Y-59293333D01*
X158710000Y-59226667D01*
X158676666Y-59093333D01*
X158676666Y-58860000D01*
X158710000Y-58726667D01*
X158776666Y-58660000D01*
X158843333Y-58626667D01*
X159409999Y-58693333D02*
X159443333Y-58660000D01*
X159509999Y-58626667D01*
X159676666Y-58626667D01*
X159743333Y-58660000D01*
X159776666Y-58693333D01*
X159809999Y-58760000D01*
X159809999Y-58826667D01*
X159776666Y-58926667D01*
X159376666Y-59326667D01*
X159809999Y-59326667D01*
X160410000Y-58860000D02*
X160410000Y-59326667D01*
X160243333Y-58593333D02*
X160076666Y-59093333D01*
X160510000Y-59093333D01*
X157616667Y-56646667D02*
X157616667Y-55946667D01*
X157783333Y-55946667D01*
X157883333Y-55980000D01*
X157950000Y-56046667D01*
X157983333Y-56113333D01*
X158016667Y-56246667D01*
X158016667Y-56346667D01*
X157983333Y-56480000D01*
X157950000Y-56546667D01*
X157883333Y-56613333D01*
X157783333Y-56646667D01*
X157616667Y-56646667D01*
X158316667Y-56646667D02*
X158316667Y-55946667D01*
X158783333Y-55946667D02*
X158916666Y-55946667D01*
X158983333Y-55980000D01*
X159050000Y-56046667D01*
X159083333Y-56180000D01*
X159083333Y-56413333D01*
X159050000Y-56546667D01*
X158983333Y-56613333D01*
X158916666Y-56646667D01*
X158783333Y-56646667D01*
X158716666Y-56613333D01*
X158650000Y-56546667D01*
X158616666Y-56413333D01*
X158616666Y-56180000D01*
X158650000Y-56046667D01*
X158716666Y-55980000D01*
X158783333Y-55946667D01*
X159349999Y-56013333D02*
X159383333Y-55980000D01*
X159449999Y-55946667D01*
X159616666Y-55946667D01*
X159683333Y-55980000D01*
X159716666Y-56013333D01*
X159749999Y-56080000D01*
X159749999Y-56146667D01*
X159716666Y-56246667D01*
X159316666Y-56646667D01*
X159749999Y-56646667D01*
X159983333Y-55946667D02*
X160416666Y-55946667D01*
X160183333Y-56213333D01*
X160283333Y-56213333D01*
X160350000Y-56246667D01*
X160383333Y-56280000D01*
X160416666Y-56346667D01*
X160416666Y-56513333D01*
X160383333Y-56580000D01*
X160350000Y-56613333D01*
X160283333Y-56646667D01*
X160083333Y-56646667D01*
X160016666Y-56613333D01*
X159983333Y-56580000D01*
X157536667Y-53786667D02*
X157536667Y-53086667D01*
X157703333Y-53086667D01*
X157803333Y-53120000D01*
X157870000Y-53186667D01*
X157903333Y-53253333D01*
X157936667Y-53386667D01*
X157936667Y-53486667D01*
X157903333Y-53620000D01*
X157870000Y-53686667D01*
X157803333Y-53753333D01*
X157703333Y-53786667D01*
X157536667Y-53786667D01*
X158236667Y-53786667D02*
X158236667Y-53086667D01*
X158703333Y-53086667D02*
X158836666Y-53086667D01*
X158903333Y-53120000D01*
X158970000Y-53186667D01*
X159003333Y-53320000D01*
X159003333Y-53553333D01*
X158970000Y-53686667D01*
X158903333Y-53753333D01*
X158836666Y-53786667D01*
X158703333Y-53786667D01*
X158636666Y-53753333D01*
X158570000Y-53686667D01*
X158536666Y-53553333D01*
X158536666Y-53320000D01*
X158570000Y-53186667D01*
X158636666Y-53120000D01*
X158703333Y-53086667D01*
X159269999Y-53153333D02*
X159303333Y-53120000D01*
X159369999Y-53086667D01*
X159536666Y-53086667D01*
X159603333Y-53120000D01*
X159636666Y-53153333D01*
X159669999Y-53220000D01*
X159669999Y-53286667D01*
X159636666Y-53386667D01*
X159236666Y-53786667D01*
X159669999Y-53786667D01*
X159936666Y-53153333D02*
X159970000Y-53120000D01*
X160036666Y-53086667D01*
X160203333Y-53086667D01*
X160270000Y-53120000D01*
X160303333Y-53153333D01*
X160336666Y-53220000D01*
X160336666Y-53286667D01*
X160303333Y-53386667D01*
X159903333Y-53786667D01*
X160336666Y-53786667D01*
D12*
X213972856Y-70918571D02*
X214258570Y-71918571D01*
X214544284Y-71204286D01*
X214829999Y-71918571D01*
X215115713Y-70918571D01*
X215544285Y-70918571D02*
X215829999Y-71918571D01*
X216115713Y-71204286D01*
X216401428Y-71918571D01*
X216687142Y-70918571D01*
X217115714Y-70918571D02*
X217401428Y-71918571D01*
X217687142Y-71204286D01*
X217972857Y-71918571D01*
X218258571Y-70918571D01*
X218830000Y-71775714D02*
X218901428Y-71847143D01*
X218830000Y-71918571D01*
X218758571Y-71847143D01*
X218830000Y-71775714D01*
X218830000Y-71918571D01*
X219330000Y-70918571D02*
X219901429Y-70918571D01*
X219544286Y-70418571D02*
X219544286Y-71704286D01*
X219615714Y-71847143D01*
X219758572Y-71918571D01*
X219901429Y-71918571D01*
X220401429Y-71918571D02*
X220401429Y-70418571D01*
X221044286Y-71918571D02*
X221044286Y-71132857D01*
X220972857Y-70990000D01*
X220830000Y-70918571D01*
X220615715Y-70918571D01*
X220472857Y-70990000D01*
X220401429Y-71061429D01*
X221758572Y-71918571D02*
X221758572Y-70918571D01*
X221758572Y-70418571D02*
X221687143Y-70490000D01*
X221758572Y-70561429D01*
X221830000Y-70490000D01*
X221758572Y-70418571D01*
X221758572Y-70561429D01*
X222472858Y-70918571D02*
X222472858Y-71918571D01*
X222472858Y-71061429D02*
X222544286Y-70990000D01*
X222687144Y-70918571D01*
X222901429Y-70918571D01*
X223044286Y-70990000D01*
X223115715Y-71132857D01*
X223115715Y-71918571D01*
X224472858Y-70918571D02*
X224472858Y-72132857D01*
X224401429Y-72275714D01*
X224330001Y-72347143D01*
X224187144Y-72418571D01*
X223972858Y-72418571D01*
X223830001Y-72347143D01*
X224472858Y-71847143D02*
X224330001Y-71918571D01*
X224044287Y-71918571D01*
X223901429Y-71847143D01*
X223830001Y-71775714D01*
X223758572Y-71632857D01*
X223758572Y-71204286D01*
X223830001Y-71061429D01*
X223901429Y-70990000D01*
X224044287Y-70918571D01*
X224330001Y-70918571D01*
X224472858Y-70990000D01*
X224972858Y-70918571D02*
X225544287Y-70918571D01*
X225187144Y-70418571D02*
X225187144Y-71704286D01*
X225258572Y-71847143D01*
X225401430Y-71918571D01*
X225544287Y-71918571D01*
X226044287Y-71918571D02*
X226044287Y-70918571D01*
X226044287Y-71204286D02*
X226115715Y-71061429D01*
X226187144Y-70990000D01*
X226330001Y-70918571D01*
X226472858Y-70918571D01*
X227187144Y-71918571D02*
X227044286Y-71847143D01*
X226972858Y-71775714D01*
X226901429Y-71632857D01*
X226901429Y-71204286D01*
X226972858Y-71061429D01*
X227044286Y-70990000D01*
X227187144Y-70918571D01*
X227401429Y-70918571D01*
X227544286Y-70990000D01*
X227615715Y-71061429D01*
X227687144Y-71204286D01*
X227687144Y-71632857D01*
X227615715Y-71775714D01*
X227544286Y-71847143D01*
X227401429Y-71918571D01*
X227187144Y-71918571D01*
X228330001Y-70918571D02*
X228330001Y-71918571D01*
X228330001Y-71061429D02*
X228401429Y-70990000D01*
X228544287Y-70918571D01*
X228758572Y-70918571D01*
X228901429Y-70990000D01*
X228972858Y-71132857D01*
X228972858Y-71918571D01*
X229687144Y-71918571D02*
X229687144Y-70918571D01*
X229687144Y-70418571D02*
X229615715Y-70490000D01*
X229687144Y-70561429D01*
X229758572Y-70490000D01*
X229687144Y-70418571D01*
X229687144Y-70561429D01*
X231044287Y-71847143D02*
X230901430Y-71918571D01*
X230615716Y-71918571D01*
X230472858Y-71847143D01*
X230401430Y-71775714D01*
X230330001Y-71632857D01*
X230330001Y-71204286D01*
X230401430Y-71061429D01*
X230472858Y-70990000D01*
X230615716Y-70918571D01*
X230901430Y-70918571D01*
X231044287Y-70990000D01*
X231615715Y-71847143D02*
X231758572Y-71918571D01*
X232044287Y-71918571D01*
X232187144Y-71847143D01*
X232258572Y-71704286D01*
X232258572Y-71632857D01*
X232187144Y-71490000D01*
X232044287Y-71418571D01*
X231830001Y-71418571D01*
X231687144Y-71347143D01*
X231615715Y-71204286D01*
X231615715Y-71132857D01*
X231687144Y-70990000D01*
X231830001Y-70918571D01*
X232044287Y-70918571D01*
X232187144Y-70990000D01*
X232901430Y-71775714D02*
X232972858Y-71847143D01*
X232901430Y-71918571D01*
X232830001Y-71847143D01*
X232901430Y-71775714D01*
X232901430Y-71918571D01*
X234258573Y-71847143D02*
X234115716Y-71918571D01*
X233830002Y-71918571D01*
X233687144Y-71847143D01*
X233615716Y-71775714D01*
X233544287Y-71632857D01*
X233544287Y-71204286D01*
X233615716Y-71061429D01*
X233687144Y-70990000D01*
X233830002Y-70918571D01*
X234115716Y-70918571D01*
X234258573Y-70990000D01*
X235115716Y-71918571D02*
X234972858Y-71847143D01*
X234901430Y-71775714D01*
X234830001Y-71632857D01*
X234830001Y-71204286D01*
X234901430Y-71061429D01*
X234972858Y-70990000D01*
X235115716Y-70918571D01*
X235330001Y-70918571D01*
X235472858Y-70990000D01*
X235544287Y-71061429D01*
X235615716Y-71204286D01*
X235615716Y-71632857D01*
X235544287Y-71775714D01*
X235472858Y-71847143D01*
X235330001Y-71918571D01*
X235115716Y-71918571D01*
X236258573Y-71918571D02*
X236258573Y-70918571D01*
X236258573Y-71061429D02*
X236330001Y-70990000D01*
X236472859Y-70918571D01*
X236687144Y-70918571D01*
X236830001Y-70990000D01*
X236901430Y-71132857D01*
X236901430Y-71918571D01*
X236901430Y-71132857D02*
X236972859Y-70990000D01*
X237115716Y-70918571D01*
X237330001Y-70918571D01*
X237472859Y-70990000D01*
X237544287Y-71132857D01*
X237544287Y-71918571D01*
X212728572Y-81798571D02*
X213300001Y-81798571D01*
X212942858Y-81298571D02*
X212942858Y-82584286D01*
X213014286Y-82727143D01*
X213157144Y-82798571D01*
X213300001Y-82798571D01*
X213800001Y-82798571D02*
X213800001Y-81298571D01*
X214442858Y-82798571D02*
X214442858Y-82012857D01*
X214371429Y-81870000D01*
X214228572Y-81798571D01*
X214014287Y-81798571D01*
X213871429Y-81870000D01*
X213800001Y-81941429D01*
X215157144Y-82798571D02*
X215157144Y-81798571D01*
X215157144Y-81298571D02*
X215085715Y-81370000D01*
X215157144Y-81441429D01*
X215228572Y-81370000D01*
X215157144Y-81298571D01*
X215157144Y-81441429D01*
X215871430Y-81798571D02*
X215871430Y-82798571D01*
X215871430Y-81941429D02*
X215942858Y-81870000D01*
X216085716Y-81798571D01*
X216300001Y-81798571D01*
X216442858Y-81870000D01*
X216514287Y-82012857D01*
X216514287Y-82798571D01*
X217871430Y-81798571D02*
X217871430Y-83012857D01*
X217800001Y-83155714D01*
X217728573Y-83227143D01*
X217585716Y-83298571D01*
X217371430Y-83298571D01*
X217228573Y-83227143D01*
X217871430Y-82727143D02*
X217728573Y-82798571D01*
X217442859Y-82798571D01*
X217300001Y-82727143D01*
X217228573Y-82655714D01*
X217157144Y-82512857D01*
X217157144Y-82084286D01*
X217228573Y-81941429D01*
X217300001Y-81870000D01*
X217442859Y-81798571D01*
X217728573Y-81798571D01*
X217871430Y-81870000D01*
X218514287Y-82727143D02*
X218728573Y-82798571D01*
X219085716Y-82798571D01*
X219228573Y-82727143D01*
X219300002Y-82655714D01*
X219371430Y-82512857D01*
X219371430Y-82370000D01*
X219300002Y-82227143D01*
X219228573Y-82155714D01*
X219085716Y-82084286D01*
X218800002Y-82012857D01*
X218657144Y-81941429D01*
X218585716Y-81870000D01*
X218514287Y-81727143D01*
X218514287Y-81584286D01*
X218585716Y-81441429D01*
X218657144Y-81370000D01*
X218800002Y-81298571D01*
X219157144Y-81298571D01*
X219371430Y-81370000D01*
X220014287Y-82798571D02*
X220014287Y-81298571D01*
X220657144Y-82798571D02*
X220657144Y-82012857D01*
X220585715Y-81870000D01*
X220442858Y-81798571D01*
X220228573Y-81798571D01*
X220085715Y-81870000D01*
X220014287Y-81941429D01*
X221371430Y-82798571D02*
X221371430Y-81798571D01*
X221371430Y-81298571D02*
X221300001Y-81370000D01*
X221371430Y-81441429D01*
X221442858Y-81370000D01*
X221371430Y-81298571D01*
X221371430Y-81441429D01*
X222657144Y-82727143D02*
X222514287Y-82798571D01*
X222228573Y-82798571D01*
X222085716Y-82727143D01*
X222014287Y-82584286D01*
X222014287Y-82012857D01*
X222085716Y-81870000D01*
X222228573Y-81798571D01*
X222514287Y-81798571D01*
X222657144Y-81870000D01*
X222728573Y-82012857D01*
X222728573Y-82155714D01*
X222014287Y-82298571D01*
X223585716Y-82798571D02*
X223442858Y-82727143D01*
X223371430Y-82584286D01*
X223371430Y-81298571D01*
X224800001Y-82798571D02*
X224800001Y-81298571D01*
X224800001Y-82727143D02*
X224657144Y-82798571D01*
X224371430Y-82798571D01*
X224228572Y-82727143D01*
X224157144Y-82655714D01*
X224085715Y-82512857D01*
X224085715Y-82084286D01*
X224157144Y-81941429D01*
X224228572Y-81870000D01*
X224371430Y-81798571D01*
X224657144Y-81798571D01*
X224800001Y-81870000D01*
X225514287Y-82227143D02*
X226657144Y-82227143D01*
X227871430Y-82012857D02*
X227371430Y-82012857D01*
X227371430Y-82798571D02*
X227371430Y-81298571D01*
X228085716Y-81298571D01*
X228871430Y-82798571D02*
X228728572Y-82727143D01*
X228657144Y-82584286D01*
X228657144Y-81298571D01*
X229657144Y-82798571D02*
X229514286Y-82727143D01*
X229442858Y-82655714D01*
X229371429Y-82512857D01*
X229371429Y-82084286D01*
X229442858Y-81941429D01*
X229514286Y-81870000D01*
X229657144Y-81798571D01*
X229871429Y-81798571D01*
X230014286Y-81870000D01*
X230085715Y-81941429D01*
X230157144Y-82084286D01*
X230157144Y-82512857D01*
X230085715Y-82655714D01*
X230014286Y-82727143D01*
X229871429Y-82798571D01*
X229657144Y-82798571D01*
X231442858Y-82798571D02*
X231442858Y-82012857D01*
X231371429Y-81870000D01*
X231228572Y-81798571D01*
X230942858Y-81798571D01*
X230800001Y-81870000D01*
X231442858Y-82727143D02*
X231300001Y-82798571D01*
X230942858Y-82798571D01*
X230800001Y-82727143D01*
X230728572Y-82584286D01*
X230728572Y-82441429D01*
X230800001Y-82298571D01*
X230942858Y-82227143D01*
X231300001Y-82227143D01*
X231442858Y-82155714D01*
X231942858Y-81798571D02*
X232514287Y-81798571D01*
X232157144Y-81298571D02*
X232157144Y-82584286D01*
X232228572Y-82727143D01*
X232371430Y-82798571D01*
X232514287Y-82798571D01*
X234014287Y-81798571D02*
X234371430Y-82798571D01*
X234728572Y-81798571D01*
X236085715Y-82798571D02*
X235228572Y-82798571D01*
X235657144Y-82798571D02*
X235657144Y-81298571D01*
X235514287Y-81512857D01*
X235371429Y-81655714D01*
X235228572Y-81727143D01*
X236728572Y-82655714D02*
X236800000Y-82727143D01*
X236728572Y-82798571D01*
X236657143Y-82727143D01*
X236728572Y-82655714D01*
X236728572Y-82798571D01*
X237728572Y-81298571D02*
X237871429Y-81298571D01*
X238014286Y-81370000D01*
X238085715Y-81441429D01*
X238157144Y-81584286D01*
X238228572Y-81870000D01*
X238228572Y-82227143D01*
X238157144Y-82512857D01*
X238085715Y-82655714D01*
X238014286Y-82727143D01*
X237871429Y-82798571D01*
X237728572Y-82798571D01*
X237585715Y-82727143D01*
X237514286Y-82655714D01*
X237442858Y-82512857D01*
X237371429Y-82227143D01*
X237371429Y-81870000D01*
X237442858Y-81584286D01*
X237514286Y-81441429D01*
X237585715Y-81370000D01*
X237728572Y-81298571D01*
D13*
X153870000Y-55120000D02*
X153870000Y-60260000D01*
X153870000Y-60260000D02*
X156530000Y-60260000D01*
X156530000Y-60260000D02*
X156530000Y-55120000D01*
X156530000Y-55120000D02*
X153870000Y-55120000D01*
X153870000Y-53850000D02*
X153870000Y-52520000D01*
X153870000Y-52520000D02*
X155200000Y-52520000D01*
X155250000Y-62670000D02*
X154050000Y-62670000D01*
X154050000Y-60910000D02*
X155250000Y-60910000D01*
X155250000Y-67690000D02*
X154050000Y-67690000D01*
X154050000Y-65930000D02*
X155250000Y-65930000D01*
X155250000Y-103840000D02*
X154050000Y-103840000D01*
X154050000Y-102080000D02*
X155250000Y-102080000D01*
X155260000Y-90070000D02*
X154060000Y-90070000D01*
X154060000Y-88310000D02*
X155260000Y-88310000D01*
X170130000Y-103120000D02*
X172730000Y-103120000D01*
X172730000Y-103120000D02*
X172730000Y-100460000D01*
X172730000Y-100460000D02*
X170130000Y-100460000D01*
X170130000Y-100460000D02*
X170130000Y-103120000D01*
X168860000Y-103120000D02*
X167530000Y-103120000D01*
X167530000Y-103120000D02*
X167530000Y-101790000D01*
X153870000Y-70900000D02*
X153870000Y-76040000D01*
X153870000Y-76040000D02*
X156530000Y-76040000D01*
X156530000Y-76040000D02*
X156530000Y-70900000D01*
X156530000Y-70900000D02*
X153870000Y-70900000D01*
X153870000Y-69630000D02*
X153870000Y-68300000D01*
X153870000Y-68300000D02*
X155200000Y-68300000D01*
X153870000Y-93780000D02*
X153870000Y-101460000D01*
X153870000Y-101460000D02*
X156530000Y-101460000D01*
X156530000Y-101460000D02*
X156530000Y-93780000D01*
X156530000Y-93780000D02*
X153870000Y-93780000D01*
X153870000Y-92510000D02*
X153870000Y-91180000D01*
X153870000Y-91180000D02*
X155200000Y-91180000D01*
X153870000Y-82590000D02*
X153870000Y-87730000D01*
X153870000Y-87730000D02*
X156530000Y-87730000D01*
X156530000Y-87730000D02*
X156530000Y-82590000D01*
X156530000Y-82590000D02*
X153870000Y-82590000D01*
X153870000Y-81320000D02*
X153870000Y-79990000D01*
X153870000Y-79990000D02*
X155200000Y-79990000D01*
X151330000Y-55120000D02*
X151330000Y-60260000D01*
X151330000Y-60260000D02*
X153990000Y-60260000D01*
X153990000Y-60260000D02*
X153990000Y-55120000D01*
X153990000Y-55120000D02*
X151330000Y-55120000D01*
X151330000Y-53850000D02*
X151330000Y-52520000D01*
X151330000Y-52520000D02*
X152660000Y-52520000D01*
X151450000Y-70900000D02*
X151450000Y-76040000D01*
X151450000Y-76040000D02*
X154110000Y-76040000D01*
X154110000Y-76040000D02*
X154110000Y-70900000D01*
X154110000Y-70900000D02*
X151450000Y-70900000D01*
X151450000Y-69630000D02*
X151450000Y-68300000D01*
X151450000Y-68300000D02*
X152780000Y-68300000D01*
X151330000Y-93780000D02*
X151330000Y-101460000D01*
X151330000Y-101460000D02*
X153990000Y-101460000D01*
X153990000Y-101460000D02*
X153990000Y-93780000D01*
X153990000Y-93780000D02*
X151330000Y-93780000D01*
X151330000Y-92510000D02*
X151330000Y-91180000D01*
X151330000Y-91180000D02*
X152660000Y-91180000D01*
X151330000Y-82590000D02*
X151330000Y-87730000D01*
X151330000Y-87730000D02*
X153990000Y-87730000D01*
X153990000Y-87730000D02*
X153990000Y-82590000D01*
X153990000Y-82590000D02*
X151330000Y-82590000D01*
X151330000Y-81320000D02*
X151330000Y-79990000D01*
X151330000Y-79990000D02*
X152660000Y-79990000D01*
X154020000Y-77670000D02*
X155220000Y-77670000D01*
X155220000Y-79430000D02*
X154020000Y-79430000D01*
X154050000Y-62820000D02*
X155250000Y-62820000D01*
X155250000Y-64580000D02*
X154050000Y-64580000D01*
D14*
X135210555Y-99580000D02*
G75*
G03X135210555Y-99580000I-360555J0D01*
G01*
X136030000Y-86180000D02*
X147230000Y-86180000D01*
X138430000Y-102180000D02*
X138430000Y-86180000D01*
X144730000Y-102180000D02*
X144730000Y-86180000D01*
X139130000Y-102180000D02*
X139130000Y-86180000D01*
X146430000Y-102180000D02*
X146430000Y-86180000D01*
X147230000Y-102180000D02*
X147230000Y-86180000D01*
X136030000Y-102180000D02*
X136030000Y-86180000D01*
X136030000Y-102180000D02*
X147230000Y-102180000D01*
X135260555Y-82500000D02*
G75*
G03X135260555Y-82500000I-360555J0D01*
G01*
X136080000Y-69100000D02*
X147280000Y-69100000D01*
X138480000Y-85100000D02*
X138480000Y-69100000D01*
X144780000Y-85100000D02*
X144780000Y-69100000D01*
X139180000Y-85100000D02*
X139180000Y-69100000D01*
X146480000Y-85100000D02*
X146480000Y-69100000D01*
X147280000Y-85100000D02*
X147280000Y-69100000D01*
X136080000Y-85100000D02*
X136080000Y-69100000D01*
X136080000Y-85100000D02*
X147280000Y-85100000D01*
X135290555Y-65340000D02*
G75*
G03X135290555Y-65340000I-360555J0D01*
G01*
X136110000Y-51940000D02*
X147310000Y-51940000D01*
X138510000Y-67940000D02*
X138510000Y-51940000D01*
X144810000Y-67940000D02*
X144810000Y-51940000D01*
X139210000Y-67940000D02*
X139210000Y-51940000D01*
X146510000Y-67940000D02*
X146510000Y-51940000D01*
X147310000Y-67940000D02*
X147310000Y-51940000D01*
X136110000Y-67940000D02*
X136110000Y-51940000D01*
X136110000Y-67940000D02*
X147310000Y-67940000D01*
D15*
G36*
X227926666Y-79976666D02*
X221238000Y-79976666D01*
X221238000Y-76885377D01*
X221589415Y-76885377D01*
X221590412Y-76903193D01*
X221690757Y-77521690D01*
X221925237Y-78069418D01*
X222309566Y-78580246D01*
X222423503Y-78698773D01*
X222858963Y-79072178D01*
X223322055Y-79329298D01*
X223877303Y-79504944D01*
X223947333Y-79520909D01*
X224318404Y-79595236D01*
X224599911Y-79624462D01*
X224865161Y-79609830D01*
X225187456Y-79552581D01*
X225234332Y-79542719D01*
X225926090Y-79322469D01*
X226522220Y-78984316D01*
X227008849Y-78543919D01*
X227372103Y-78016940D01*
X227598112Y-77419040D01*
X227673085Y-76789562D01*
X227645259Y-76354907D01*
X227570783Y-75946570D01*
X227525055Y-75794861D01*
X227408078Y-75542699D01*
X227241524Y-75272275D01*
X227053098Y-75018423D01*
X226870507Y-74815980D01*
X226721454Y-74699779D01*
X226647060Y-74690937D01*
X226589392Y-74674245D01*
X226591068Y-74627793D01*
X226543704Y-74532184D01*
X226472142Y-74514586D01*
X226308126Y-74472406D01*
X226260475Y-74437512D01*
X226250400Y-74400890D01*
X226296833Y-74422422D01*
X226390917Y-74451779D01*
X226402666Y-74437717D01*
X226329580Y-74353296D01*
X226149190Y-74256066D01*
X225919796Y-74168550D01*
X225699701Y-74113272D01*
X225555262Y-74110327D01*
X225422232Y-74122893D01*
X225410694Y-74079619D01*
X225355611Y-74041440D01*
X225148168Y-74014301D01*
X224805081Y-73999850D01*
X224582333Y-73997897D01*
X224176265Y-74005213D01*
X223897284Y-74026062D01*
X223762105Y-74058794D01*
X223753972Y-74079619D01*
X223730281Y-74126648D01*
X223621789Y-74113566D01*
X223494395Y-74104291D01*
X223495438Y-74156950D01*
X223490120Y-74212302D01*
X223410889Y-74194045D01*
X223293743Y-74187909D01*
X223270000Y-74226987D01*
X223217972Y-74275075D01*
X223185333Y-74261666D01*
X223107439Y-74271188D01*
X223100666Y-74303999D01*
X223053055Y-74362795D01*
X223026085Y-74352566D01*
X222911172Y-74371832D01*
X222722253Y-74492700D01*
X222493224Y-74686269D01*
X222257984Y-74923638D01*
X222050428Y-75175909D01*
X222034569Y-75197926D01*
X221755693Y-75699959D01*
X221610654Y-76249599D01*
X221589415Y-76885377D01*
X221238000Y-76885377D01*
X221238000Y-73288000D01*
X227926666Y-73288000D01*
X227926666Y-79976666D01*
X227926666Y-79976666D01*
G37*
X227926666Y-79976666D02*
X221238000Y-79976666D01*
X221238000Y-76885377D01*
X221589415Y-76885377D01*
X221590412Y-76903193D01*
X221690757Y-77521690D01*
X221925237Y-78069418D01*
X222309566Y-78580246D01*
X222423503Y-78698773D01*
X222858963Y-79072178D01*
X223322055Y-79329298D01*
X223877303Y-79504944D01*
X223947333Y-79520909D01*
X224318404Y-79595236D01*
X224599911Y-79624462D01*
X224865161Y-79609830D01*
X225187456Y-79552581D01*
X225234332Y-79542719D01*
X225926090Y-79322469D01*
X226522220Y-78984316D01*
X227008849Y-78543919D01*
X227372103Y-78016940D01*
X227598112Y-77419040D01*
X227673085Y-76789562D01*
X227645259Y-76354907D01*
X227570783Y-75946570D01*
X227525055Y-75794861D01*
X227408078Y-75542699D01*
X227241524Y-75272275D01*
X227053098Y-75018423D01*
X226870507Y-74815980D01*
X226721454Y-74699779D01*
X226647060Y-74690937D01*
X226589392Y-74674245D01*
X226591068Y-74627793D01*
X226543704Y-74532184D01*
X226472142Y-74514586D01*
X226308126Y-74472406D01*
X226260475Y-74437512D01*
X226250400Y-74400890D01*
X226296833Y-74422422D01*
X226390917Y-74451779D01*
X226402666Y-74437717D01*
X226329580Y-74353296D01*
X226149190Y-74256066D01*
X225919796Y-74168550D01*
X225699701Y-74113272D01*
X225555262Y-74110327D01*
X225422232Y-74122893D01*
X225410694Y-74079619D01*
X225355611Y-74041440D01*
X225148168Y-74014301D01*
X224805081Y-73999850D01*
X224582333Y-73997897D01*
X224176265Y-74005213D01*
X223897284Y-74026062D01*
X223762105Y-74058794D01*
X223753972Y-74079619D01*
X223730281Y-74126648D01*
X223621789Y-74113566D01*
X223494395Y-74104291D01*
X223495438Y-74156950D01*
X223490120Y-74212302D01*
X223410889Y-74194045D01*
X223293743Y-74187909D01*
X223270000Y-74226987D01*
X223217972Y-74275075D01*
X223185333Y-74261666D01*
X223107439Y-74271188D01*
X223100666Y-74303999D01*
X223053055Y-74362795D01*
X223026085Y-74352566D01*
X222911172Y-74371832D01*
X222722253Y-74492700D01*
X222493224Y-74686269D01*
X222257984Y-74923638D01*
X222050428Y-75175909D01*
X222034569Y-75197926D01*
X221755693Y-75699959D01*
X221610654Y-76249599D01*
X221589415Y-76885377D01*
X221238000Y-76885377D01*
X221238000Y-73288000D01*
X227926666Y-73288000D01*
X227926666Y-79976666D01*
G36*
X224791996Y-74174539D02*
X225023617Y-74208853D01*
X225698463Y-74386516D01*
X226279134Y-74693843D01*
X226690414Y-75037325D01*
X226941361Y-75312399D01*
X227063607Y-75512724D01*
X227053667Y-75630059D01*
X226953000Y-75658666D01*
X226868756Y-75659663D01*
X226838805Y-75690798D01*
X226862876Y-75794287D01*
X226940699Y-76012346D01*
X226950558Y-76039666D01*
X227074418Y-76615124D01*
X227030415Y-77190777D01*
X226818060Y-77769512D01*
X226594508Y-78141505D01*
X226463699Y-78353156D01*
X226435477Y-78475118D01*
X226483121Y-78534730D01*
X226509459Y-78605360D01*
X226403972Y-78718603D01*
X226223862Y-78845099D01*
X226000077Y-78998416D01*
X225836853Y-79125150D01*
X225790129Y-79171540D01*
X225733063Y-79206318D01*
X225726629Y-79183133D01*
X225675046Y-79162851D01*
X225616038Y-79199972D01*
X225460672Y-79275429D01*
X225231412Y-79335789D01*
X225213871Y-79338798D01*
X224942015Y-79385959D01*
X224705252Y-79430766D01*
X224524477Y-79445510D01*
X224436353Y-79421464D01*
X224323787Y-79379125D01*
X224115873Y-79343880D01*
X224075172Y-79339684D01*
X223834215Y-79293171D01*
X223748673Y-79257000D01*
X223862666Y-79257000D01*
X223905000Y-79299333D01*
X223947333Y-79257000D01*
X223905000Y-79214666D01*
X223862666Y-79257000D01*
X223748673Y-79257000D01*
X223655742Y-79217705D01*
X223643525Y-79208463D01*
X223519978Y-79144340D01*
X223472565Y-79153212D01*
X223383130Y-79139956D01*
X223271010Y-79059444D01*
X223086414Y-78906451D01*
X222889666Y-78760632D01*
X222739827Y-78621747D01*
X222747265Y-78518272D01*
X222749717Y-78515748D01*
X222769033Y-78393957D01*
X222654303Y-78189711D01*
X222632736Y-78160892D01*
X222455401Y-77889232D01*
X222304923Y-77597066D01*
X222298952Y-77582995D01*
X222211463Y-77246126D01*
X222174381Y-76823443D01*
X222176998Y-76747055D01*
X222477684Y-76747055D01*
X222492937Y-77101062D01*
X222557464Y-77426545D01*
X222628744Y-77606000D01*
X222818843Y-77919615D01*
X223007677Y-78136495D01*
X223171125Y-78231786D01*
X223231960Y-78227636D01*
X223274664Y-78161426D01*
X223214616Y-78016514D01*
X223095697Y-77839703D01*
X222833443Y-77381778D01*
X222721828Y-76921597D01*
X222727301Y-76845485D01*
X223016000Y-76845485D01*
X223074934Y-77168146D01*
X223229178Y-77520729D01*
X223420332Y-77796500D01*
X223570743Y-77928147D01*
X223685793Y-77919082D01*
X223717894Y-77891883D01*
X223705040Y-77798720D01*
X223608809Y-77630037D01*
X223563374Y-77567313D01*
X223351860Y-77187973D01*
X223302196Y-76798611D01*
X223379475Y-76443997D01*
X223453838Y-76183171D01*
X223446941Y-76043962D01*
X223356033Y-75997954D01*
X223336235Y-75997333D01*
X223249498Y-76071629D01*
X223154450Y-76258029D01*
X223071754Y-76501803D01*
X223022077Y-76748219D01*
X223016000Y-76845485D01*
X222727301Y-76845485D01*
X222757411Y-76426782D01*
X222896532Y-75965901D01*
X222892394Y-75848874D01*
X222823663Y-75828000D01*
X222684695Y-75904996D01*
X222577851Y-76109911D01*
X222507418Y-76403635D01*
X222477684Y-76747055D01*
X222176998Y-76747055D01*
X222189192Y-76391245D01*
X222257379Y-76025828D01*
X222268030Y-75993477D01*
X222322995Y-75788961D01*
X222297956Y-75693396D01*
X222268030Y-75677454D01*
X222184900Y-75618072D01*
X222198919Y-75510599D01*
X222320091Y-75332675D01*
X222529166Y-75093678D01*
X222782872Y-74860442D01*
X223087111Y-74645190D01*
X223412368Y-74460413D01*
X223729127Y-74318602D01*
X224007870Y-74232248D01*
X224219082Y-74213843D01*
X224333248Y-74275878D01*
X224345110Y-74325166D01*
X224355922Y-74461913D01*
X224381188Y-74707372D01*
X224407394Y-74939000D01*
X224432887Y-75216822D01*
X224424504Y-75341202D01*
X224381260Y-75324803D01*
X224377802Y-75320000D01*
X224298446Y-75134986D01*
X224287296Y-75055200D01*
X224225481Y-74888012D01*
X224157088Y-74810413D01*
X224069601Y-74644409D01*
X224078127Y-74546046D01*
X224075808Y-74415481D01*
X223995372Y-74388666D01*
X223901828Y-74391041D01*
X223871859Y-74430000D01*
X223897366Y-74553292D01*
X223941423Y-74706725D01*
X223972989Y-74912715D01*
X223925267Y-74980093D01*
X223818195Y-74897393D01*
X223758351Y-74811999D01*
X223639209Y-74688326D01*
X223514675Y-74640598D01*
X223442469Y-74686805D01*
X223439333Y-74712574D01*
X223503930Y-74833834D01*
X223656152Y-74981803D01*
X223833645Y-75104580D01*
X223965642Y-75150666D01*
X224094869Y-75216906D01*
X224243869Y-75380660D01*
X224273952Y-75425345D01*
X224381995Y-75605325D01*
X224399735Y-75694294D01*
X224328442Y-75743678D01*
X224282266Y-75761283D01*
X224147761Y-75849699D01*
X224116666Y-75914935D01*
X224064957Y-75968040D01*
X224032000Y-75955000D01*
X223971000Y-75840543D01*
X223947333Y-75653669D01*
X223921227Y-75477517D01*
X223858818Y-75404666D01*
X223744872Y-75349537D01*
X223580495Y-75214204D01*
X223553505Y-75187868D01*
X223399577Y-75059029D01*
X223295825Y-75017221D01*
X223285181Y-75022596D01*
X223277841Y-75132376D01*
X223380728Y-75282772D01*
X223558246Y-75428318D01*
X223637643Y-75472786D01*
X223799298Y-75589596D01*
X223862666Y-75705619D01*
X223803818Y-75809676D01*
X223660775Y-75819862D01*
X223483788Y-75745251D01*
X223334790Y-75610294D01*
X223181125Y-75465991D01*
X223078485Y-75477647D01*
X223075681Y-75580760D01*
X223179721Y-75722610D01*
X223346975Y-75864276D01*
X223533813Y-75966837D01*
X223658055Y-75994657D01*
X223838240Y-76023025D01*
X223885517Y-76117800D01*
X223807851Y-76304830D01*
X223772206Y-76365167D01*
X223661294Y-76600290D01*
X223609484Y-76814928D01*
X223608983Y-76830936D01*
X223656399Y-77057862D01*
X223773420Y-77303113D01*
X223921278Y-77496776D01*
X224013993Y-77561286D01*
X224167748Y-77583926D01*
X224202318Y-77507252D01*
X224111878Y-77357739D01*
X224068866Y-77311896D01*
X223894769Y-77038073D01*
X223879572Y-76747029D01*
X224023062Y-76473548D01*
X224074333Y-76420666D01*
X224217794Y-76297826D01*
X224294773Y-76254817D01*
X224297880Y-76257741D01*
X224308037Y-76354862D01*
X224322335Y-76570482D01*
X224334810Y-76801666D01*
X224328614Y-77284788D01*
X224263190Y-77677400D01*
X224145163Y-77953404D01*
X224011638Y-78075391D01*
X223825379Y-78215961D01*
X223742592Y-78325666D01*
X223638252Y-78484351D01*
X223576652Y-78549033D01*
X223546187Y-78650130D01*
X223610753Y-78758966D01*
X223691602Y-78791333D01*
X223759098Y-78718499D01*
X223819008Y-78543365D01*
X223819048Y-78543183D01*
X223897839Y-78335753D01*
X224012864Y-78180920D01*
X224126729Y-78121364D01*
X224171629Y-78140740D01*
X224224027Y-78292166D01*
X224206182Y-78506020D01*
X224131198Y-78697330D01*
X224076438Y-78757930D01*
X223982267Y-78878851D01*
X223986185Y-78955033D01*
X224093108Y-79039911D01*
X224184600Y-79005815D01*
X224201891Y-78939500D01*
X224247074Y-78803217D01*
X224357042Y-78608246D01*
X224376152Y-78579666D01*
X224549856Y-78325666D01*
X224523761Y-78784006D01*
X224524746Y-79097947D01*
X224573415Y-79256888D01*
X224603500Y-79277894D01*
X224667935Y-79244784D01*
X224703807Y-79078802D01*
X224715313Y-78819555D01*
X224721294Y-78325666D01*
X224881175Y-78685500D01*
X224993333Y-78898983D01*
X225094475Y-79027960D01*
X225129194Y-79045333D01*
X225210957Y-78988886D01*
X225175501Y-78831755D01*
X225056082Y-78633350D01*
X224953583Y-78455438D01*
X224960973Y-78326962D01*
X225001339Y-78261235D01*
X225092470Y-78162379D01*
X225175323Y-78195339D01*
X225238516Y-78262954D01*
X225358248Y-78452937D01*
X225399092Y-78572650D01*
X225464133Y-78713274D01*
X225559336Y-78773490D01*
X225630706Y-78731229D01*
X225640666Y-78671388D01*
X225600042Y-78554216D01*
X225561888Y-78537333D01*
X225490099Y-78465343D01*
X225456055Y-78346833D01*
X225362076Y-78164075D01*
X225338514Y-78146343D01*
X225894666Y-78146343D01*
X225954888Y-78201439D01*
X226091269Y-78181320D01*
X226237386Y-78102116D01*
X226289406Y-78050500D01*
X226576544Y-77564231D01*
X226725833Y-77027765D01*
X226729877Y-76482098D01*
X226639658Y-76109177D01*
X226542622Y-75927550D01*
X226435816Y-75832588D01*
X226355887Y-75836002D01*
X226339480Y-75949500D01*
X226355858Y-76018500D01*
X226472468Y-76605826D01*
X226454104Y-77132847D01*
X226302986Y-77580765D01*
X226144490Y-77809487D01*
X225993584Y-77992055D01*
X225904700Y-78120262D01*
X225894666Y-78146343D01*
X225338514Y-78146343D01*
X225243711Y-78075000D01*
X225077889Y-77959133D01*
X225010823Y-77863333D01*
X224997033Y-77828461D01*
X225414476Y-77828461D01*
X225429000Y-77860000D01*
X225537205Y-77938958D01*
X225690303Y-77876299D01*
X225856468Y-77720536D01*
X226097816Y-77341425D01*
X226188449Y-76899880D01*
X226128739Y-76438828D01*
X226031613Y-76181843D01*
X225927370Y-76050255D01*
X225891833Y-76039666D01*
X225799791Y-76105290D01*
X225797751Y-76209000D01*
X225864790Y-76661009D01*
X225877251Y-76992804D01*
X225832393Y-77245372D01*
X225727472Y-77459704D01*
X225712583Y-77482064D01*
X225573930Y-77663845D01*
X225466885Y-77766397D01*
X225445169Y-77774754D01*
X225414476Y-77828461D01*
X224997033Y-77828461D01*
X224931407Y-77662519D01*
X224907176Y-77606000D01*
X224884698Y-77524471D01*
X224960200Y-77569139D01*
X224977541Y-77583285D01*
X225083976Y-77630859D01*
X225205020Y-77570945D01*
X225323937Y-77456285D01*
X225548488Y-77143095D01*
X225609343Y-76835662D01*
X225509887Y-76512220D01*
X225479288Y-76457469D01*
X225361303Y-76207568D01*
X225369571Y-76059672D01*
X225506720Y-76000068D01*
X225567509Y-75997333D01*
X225716499Y-75949518D01*
X225890471Y-75832045D01*
X226048572Y-75683874D01*
X226149948Y-75543963D01*
X226153745Y-75451272D01*
X226146204Y-75445478D01*
X226039543Y-75466766D01*
X225898839Y-75592310D01*
X225885122Y-75609236D01*
X225708289Y-75770031D01*
X225538893Y-75826163D01*
X225418933Y-75773467D01*
X225386666Y-75658666D01*
X225447380Y-75515925D01*
X225542877Y-75489333D01*
X225702379Y-75433405D01*
X225868556Y-75304868D01*
X225971298Y-75162597D01*
X225979333Y-75122833D01*
X225910394Y-75072327D01*
X225852333Y-75066000D01*
X225739698Y-75114046D01*
X225725333Y-75155070D01*
X225653951Y-75241707D01*
X225481182Y-75329186D01*
X225471333Y-75332686D01*
X225296779Y-75420527D01*
X225223019Y-75561491D01*
X225207511Y-75730449D01*
X225192865Y-75890796D01*
X225168136Y-75917263D01*
X225158970Y-75891500D01*
X225053727Y-75769519D01*
X224951236Y-75743333D01*
X224824245Y-75700560D01*
X224809278Y-75553742D01*
X224902026Y-75387231D01*
X225142115Y-75221875D01*
X225241363Y-75172205D01*
X225531366Y-75004320D01*
X225695519Y-74842039D01*
X225718033Y-74703142D01*
X225691512Y-74665289D01*
X225610213Y-74684345D01*
X225506918Y-74795941D01*
X225366892Y-74952609D01*
X225284999Y-74959982D01*
X225278762Y-74823336D01*
X225300172Y-74733706D01*
X225336029Y-74544410D01*
X225322484Y-74437373D01*
X225211717Y-74389939D01*
X225145376Y-74494754D01*
X225132666Y-74632299D01*
X225094507Y-74843700D01*
X225015851Y-74972881D01*
X224947336Y-75006207D01*
X224923852Y-74932388D01*
X224938172Y-74723369D01*
X224942195Y-74686914D01*
X224956740Y-74422955D01*
X224932193Y-74307609D01*
X224882051Y-74328529D01*
X224819812Y-74473367D01*
X224758974Y-74729777D01*
X224736027Y-74875499D01*
X224658254Y-75447000D01*
X224574333Y-74812000D01*
X224535970Y-74505519D01*
X224510906Y-74273003D01*
X224503677Y-74157403D01*
X224504644Y-74152283D01*
X224588459Y-74151546D01*
X224791996Y-74174539D01*
X224791996Y-74174539D01*
G37*
X224791996Y-74174539D02*
X225023617Y-74208853D01*
X225698463Y-74386516D01*
X226279134Y-74693843D01*
X226690414Y-75037325D01*
X226941361Y-75312399D01*
X227063607Y-75512724D01*
X227053667Y-75630059D01*
X226953000Y-75658666D01*
X226868756Y-75659663D01*
X226838805Y-75690798D01*
X226862876Y-75794287D01*
X226940699Y-76012346D01*
X226950558Y-76039666D01*
X227074418Y-76615124D01*
X227030415Y-77190777D01*
X226818060Y-77769512D01*
X226594508Y-78141505D01*
X226463699Y-78353156D01*
X226435477Y-78475118D01*
X226483121Y-78534730D01*
X226509459Y-78605360D01*
X226403972Y-78718603D01*
X226223862Y-78845099D01*
X226000077Y-78998416D01*
X225836853Y-79125150D01*
X225790129Y-79171540D01*
X225733063Y-79206318D01*
X225726629Y-79183133D01*
X225675046Y-79162851D01*
X225616038Y-79199972D01*
X225460672Y-79275429D01*
X225231412Y-79335789D01*
X225213871Y-79338798D01*
X224942015Y-79385959D01*
X224705252Y-79430766D01*
X224524477Y-79445510D01*
X224436353Y-79421464D01*
X224323787Y-79379125D01*
X224115873Y-79343880D01*
X224075172Y-79339684D01*
X223834215Y-79293171D01*
X223748673Y-79257000D01*
X223862666Y-79257000D01*
X223905000Y-79299333D01*
X223947333Y-79257000D01*
X223905000Y-79214666D01*
X223862666Y-79257000D01*
X223748673Y-79257000D01*
X223655742Y-79217705D01*
X223643525Y-79208463D01*
X223519978Y-79144340D01*
X223472565Y-79153212D01*
X223383130Y-79139956D01*
X223271010Y-79059444D01*
X223086414Y-78906451D01*
X222889666Y-78760632D01*
X222739827Y-78621747D01*
X222747265Y-78518272D01*
X222749717Y-78515748D01*
X222769033Y-78393957D01*
X222654303Y-78189711D01*
X222632736Y-78160892D01*
X222455401Y-77889232D01*
X222304923Y-77597066D01*
X222298952Y-77582995D01*
X222211463Y-77246126D01*
X222174381Y-76823443D01*
X222176998Y-76747055D01*
X222477684Y-76747055D01*
X222492937Y-77101062D01*
X222557464Y-77426545D01*
X222628744Y-77606000D01*
X222818843Y-77919615D01*
X223007677Y-78136495D01*
X223171125Y-78231786D01*
X223231960Y-78227636D01*
X223274664Y-78161426D01*
X223214616Y-78016514D01*
X223095697Y-77839703D01*
X222833443Y-77381778D01*
X222721828Y-76921597D01*
X222727301Y-76845485D01*
X223016000Y-76845485D01*
X223074934Y-77168146D01*
X223229178Y-77520729D01*
X223420332Y-77796500D01*
X223570743Y-77928147D01*
X223685793Y-77919082D01*
X223717894Y-77891883D01*
X223705040Y-77798720D01*
X223608809Y-77630037D01*
X223563374Y-77567313D01*
X223351860Y-77187973D01*
X223302196Y-76798611D01*
X223379475Y-76443997D01*
X223453838Y-76183171D01*
X223446941Y-76043962D01*
X223356033Y-75997954D01*
X223336235Y-75997333D01*
X223249498Y-76071629D01*
X223154450Y-76258029D01*
X223071754Y-76501803D01*
X223022077Y-76748219D01*
X223016000Y-76845485D01*
X222727301Y-76845485D01*
X222757411Y-76426782D01*
X222896532Y-75965901D01*
X222892394Y-75848874D01*
X222823663Y-75828000D01*
X222684695Y-75904996D01*
X222577851Y-76109911D01*
X222507418Y-76403635D01*
X222477684Y-76747055D01*
X222176998Y-76747055D01*
X222189192Y-76391245D01*
X222257379Y-76025828D01*
X222268030Y-75993477D01*
X222322995Y-75788961D01*
X222297956Y-75693396D01*
X222268030Y-75677454D01*
X222184900Y-75618072D01*
X222198919Y-75510599D01*
X222320091Y-75332675D01*
X222529166Y-75093678D01*
X222782872Y-74860442D01*
X223087111Y-74645190D01*
X223412368Y-74460413D01*
X223729127Y-74318602D01*
X224007870Y-74232248D01*
X224219082Y-74213843D01*
X224333248Y-74275878D01*
X224345110Y-74325166D01*
X224355922Y-74461913D01*
X224381188Y-74707372D01*
X224407394Y-74939000D01*
X224432887Y-75216822D01*
X224424504Y-75341202D01*
X224381260Y-75324803D01*
X224377802Y-75320000D01*
X224298446Y-75134986D01*
X224287296Y-75055200D01*
X224225481Y-74888012D01*
X224157088Y-74810413D01*
X224069601Y-74644409D01*
X224078127Y-74546046D01*
X224075808Y-74415481D01*
X223995372Y-74388666D01*
X223901828Y-74391041D01*
X223871859Y-74430000D01*
X223897366Y-74553292D01*
X223941423Y-74706725D01*
X223972989Y-74912715D01*
X223925267Y-74980093D01*
X223818195Y-74897393D01*
X223758351Y-74811999D01*
X223639209Y-74688326D01*
X223514675Y-74640598D01*
X223442469Y-74686805D01*
X223439333Y-74712574D01*
X223503930Y-74833834D01*
X223656152Y-74981803D01*
X223833645Y-75104580D01*
X223965642Y-75150666D01*
X224094869Y-75216906D01*
X224243869Y-75380660D01*
X224273952Y-75425345D01*
X224381995Y-75605325D01*
X224399735Y-75694294D01*
X224328442Y-75743678D01*
X224282266Y-75761283D01*
X224147761Y-75849699D01*
X224116666Y-75914935D01*
X224064957Y-75968040D01*
X224032000Y-75955000D01*
X223971000Y-75840543D01*
X223947333Y-75653669D01*
X223921227Y-75477517D01*
X223858818Y-75404666D01*
X223744872Y-75349537D01*
X223580495Y-75214204D01*
X223553505Y-75187868D01*
X223399577Y-75059029D01*
X223295825Y-75017221D01*
X223285181Y-75022596D01*
X223277841Y-75132376D01*
X223380728Y-75282772D01*
X223558246Y-75428318D01*
X223637643Y-75472786D01*
X223799298Y-75589596D01*
X223862666Y-75705619D01*
X223803818Y-75809676D01*
X223660775Y-75819862D01*
X223483788Y-75745251D01*
X223334790Y-75610294D01*
X223181125Y-75465991D01*
X223078485Y-75477647D01*
X223075681Y-75580760D01*
X223179721Y-75722610D01*
X223346975Y-75864276D01*
X223533813Y-75966837D01*
X223658055Y-75994657D01*
X223838240Y-76023025D01*
X223885517Y-76117800D01*
X223807851Y-76304830D01*
X223772206Y-76365167D01*
X223661294Y-76600290D01*
X223609484Y-76814928D01*
X223608983Y-76830936D01*
X223656399Y-77057862D01*
X223773420Y-77303113D01*
X223921278Y-77496776D01*
X224013993Y-77561286D01*
X224167748Y-77583926D01*
X224202318Y-77507252D01*
X224111878Y-77357739D01*
X224068866Y-77311896D01*
X223894769Y-77038073D01*
X223879572Y-76747029D01*
X224023062Y-76473548D01*
X224074333Y-76420666D01*
X224217794Y-76297826D01*
X224294773Y-76254817D01*
X224297880Y-76257741D01*
X224308037Y-76354862D01*
X224322335Y-76570482D01*
X224334810Y-76801666D01*
X224328614Y-77284788D01*
X224263190Y-77677400D01*
X224145163Y-77953404D01*
X224011638Y-78075391D01*
X223825379Y-78215961D01*
X223742592Y-78325666D01*
X223638252Y-78484351D01*
X223576652Y-78549033D01*
X223546187Y-78650130D01*
X223610753Y-78758966D01*
X223691602Y-78791333D01*
X223759098Y-78718499D01*
X223819008Y-78543365D01*
X223819048Y-78543183D01*
X223897839Y-78335753D01*
X224012864Y-78180920D01*
X224126729Y-78121364D01*
X224171629Y-78140740D01*
X224224027Y-78292166D01*
X224206182Y-78506020D01*
X224131198Y-78697330D01*
X224076438Y-78757930D01*
X223982267Y-78878851D01*
X223986185Y-78955033D01*
X224093108Y-79039911D01*
X224184600Y-79005815D01*
X224201891Y-78939500D01*
X224247074Y-78803217D01*
X224357042Y-78608246D01*
X224376152Y-78579666D01*
X224549856Y-78325666D01*
X224523761Y-78784006D01*
X224524746Y-79097947D01*
X224573415Y-79256888D01*
X224603500Y-79277894D01*
X224667935Y-79244784D01*
X224703807Y-79078802D01*
X224715313Y-78819555D01*
X224721294Y-78325666D01*
X224881175Y-78685500D01*
X224993333Y-78898983D01*
X225094475Y-79027960D01*
X225129194Y-79045333D01*
X225210957Y-78988886D01*
X225175501Y-78831755D01*
X225056082Y-78633350D01*
X224953583Y-78455438D01*
X224960973Y-78326962D01*
X225001339Y-78261235D01*
X225092470Y-78162379D01*
X225175323Y-78195339D01*
X225238516Y-78262954D01*
X225358248Y-78452937D01*
X225399092Y-78572650D01*
X225464133Y-78713274D01*
X225559336Y-78773490D01*
X225630706Y-78731229D01*
X225640666Y-78671388D01*
X225600042Y-78554216D01*
X225561888Y-78537333D01*
X225490099Y-78465343D01*
X225456055Y-78346833D01*
X225362076Y-78164075D01*
X225338514Y-78146343D01*
X225894666Y-78146343D01*
X225954888Y-78201439D01*
X226091269Y-78181320D01*
X226237386Y-78102116D01*
X226289406Y-78050500D01*
X226576544Y-77564231D01*
X226725833Y-77027765D01*
X226729877Y-76482098D01*
X226639658Y-76109177D01*
X226542622Y-75927550D01*
X226435816Y-75832588D01*
X226355887Y-75836002D01*
X226339480Y-75949500D01*
X226355858Y-76018500D01*
X226472468Y-76605826D01*
X226454104Y-77132847D01*
X226302986Y-77580765D01*
X226144490Y-77809487D01*
X225993584Y-77992055D01*
X225904700Y-78120262D01*
X225894666Y-78146343D01*
X225338514Y-78146343D01*
X225243711Y-78075000D01*
X225077889Y-77959133D01*
X225010823Y-77863333D01*
X224997033Y-77828461D01*
X225414476Y-77828461D01*
X225429000Y-77860000D01*
X225537205Y-77938958D01*
X225690303Y-77876299D01*
X225856468Y-77720536D01*
X226097816Y-77341425D01*
X226188449Y-76899880D01*
X226128739Y-76438828D01*
X226031613Y-76181843D01*
X225927370Y-76050255D01*
X225891833Y-76039666D01*
X225799791Y-76105290D01*
X225797751Y-76209000D01*
X225864790Y-76661009D01*
X225877251Y-76992804D01*
X225832393Y-77245372D01*
X225727472Y-77459704D01*
X225712583Y-77482064D01*
X225573930Y-77663845D01*
X225466885Y-77766397D01*
X225445169Y-77774754D01*
X225414476Y-77828461D01*
X224997033Y-77828461D01*
X224931407Y-77662519D01*
X224907176Y-77606000D01*
X224884698Y-77524471D01*
X224960200Y-77569139D01*
X224977541Y-77583285D01*
X225083976Y-77630859D01*
X225205020Y-77570945D01*
X225323937Y-77456285D01*
X225548488Y-77143095D01*
X225609343Y-76835662D01*
X225509887Y-76512220D01*
X225479288Y-76457469D01*
X225361303Y-76207568D01*
X225369571Y-76059672D01*
X225506720Y-76000068D01*
X225567509Y-75997333D01*
X225716499Y-75949518D01*
X225890471Y-75832045D01*
X226048572Y-75683874D01*
X226149948Y-75543963D01*
X226153745Y-75451272D01*
X226146204Y-75445478D01*
X226039543Y-75466766D01*
X225898839Y-75592310D01*
X225885122Y-75609236D01*
X225708289Y-75770031D01*
X225538893Y-75826163D01*
X225418933Y-75773467D01*
X225386666Y-75658666D01*
X225447380Y-75515925D01*
X225542877Y-75489333D01*
X225702379Y-75433405D01*
X225868556Y-75304868D01*
X225971298Y-75162597D01*
X225979333Y-75122833D01*
X225910394Y-75072327D01*
X225852333Y-75066000D01*
X225739698Y-75114046D01*
X225725333Y-75155070D01*
X225653951Y-75241707D01*
X225481182Y-75329186D01*
X225471333Y-75332686D01*
X225296779Y-75420527D01*
X225223019Y-75561491D01*
X225207511Y-75730449D01*
X225192865Y-75890796D01*
X225168136Y-75917263D01*
X225158970Y-75891500D01*
X225053727Y-75769519D01*
X224951236Y-75743333D01*
X224824245Y-75700560D01*
X224809278Y-75553742D01*
X224902026Y-75387231D01*
X225142115Y-75221875D01*
X225241363Y-75172205D01*
X225531366Y-75004320D01*
X225695519Y-74842039D01*
X225718033Y-74703142D01*
X225691512Y-74665289D01*
X225610213Y-74684345D01*
X225506918Y-74795941D01*
X225366892Y-74952609D01*
X225284999Y-74959982D01*
X225278762Y-74823336D01*
X225300172Y-74733706D01*
X225336029Y-74544410D01*
X225322484Y-74437373D01*
X225211717Y-74389939D01*
X225145376Y-74494754D01*
X225132666Y-74632299D01*
X225094507Y-74843700D01*
X225015851Y-74972881D01*
X224947336Y-75006207D01*
X224923852Y-74932388D01*
X224938172Y-74723369D01*
X224942195Y-74686914D01*
X224956740Y-74422955D01*
X224932193Y-74307609D01*
X224882051Y-74328529D01*
X224819812Y-74473367D01*
X224758974Y-74729777D01*
X224736027Y-74875499D01*
X224658254Y-75447000D01*
X224574333Y-74812000D01*
X224535970Y-74505519D01*
X224510906Y-74273003D01*
X224503677Y-74157403D01*
X224504644Y-74152283D01*
X224588459Y-74151546D01*
X224791996Y-74174539D01*
G36*
X223270000Y-79087666D02*
X223227666Y-79130000D01*
X223185333Y-79087666D01*
X223227666Y-79045333D01*
X223270000Y-79087666D01*
X223270000Y-79087666D01*
G37*
X223270000Y-79087666D02*
X223227666Y-79130000D01*
X223185333Y-79087666D01*
X223227666Y-79045333D01*
X223270000Y-79087666D01*
G36*
X224511777Y-77549555D02*
X224521910Y-77650035D01*
X224511777Y-77662444D01*
X224461443Y-77650822D01*
X224455333Y-77606000D01*
X224486311Y-77536309D01*
X224511777Y-77549555D01*
X224511777Y-77549555D01*
G37*
X224511777Y-77549555D02*
X224521910Y-77650035D01*
X224511777Y-77662444D01*
X224461443Y-77650822D01*
X224455333Y-77606000D01*
X224486311Y-77536309D01*
X224511777Y-77549555D01*
G36*
X225122418Y-76318840D02*
X225237568Y-76471240D01*
X225335765Y-76676132D01*
X225385347Y-76878334D01*
X225386666Y-76909703D01*
X225332451Y-77056622D01*
X225204618Y-77234837D01*
X225055382Y-77382081D01*
X224944767Y-77436666D01*
X224921411Y-77359384D01*
X224908202Y-77156765D01*
X224907994Y-76872647D01*
X224908005Y-76872184D01*
X224930651Y-76538423D01*
X224977236Y-76331012D01*
X225021980Y-76274117D01*
X225122418Y-76318840D01*
X225122418Y-76318840D01*
G37*
X225122418Y-76318840D02*
X225237568Y-76471240D01*
X225335765Y-76676132D01*
X225385347Y-76878334D01*
X225386666Y-76909703D01*
X225332451Y-77056622D01*
X225204618Y-77234837D01*
X225055382Y-77382081D01*
X224944767Y-77436666D01*
X224921411Y-77359384D01*
X224908202Y-77156765D01*
X224907994Y-76872647D01*
X224908005Y-76872184D01*
X224930651Y-76538423D01*
X224977236Y-76331012D01*
X225021980Y-76274117D01*
X225122418Y-76318840D01*
G36*
X222846666Y-74515666D02*
X222804333Y-74558000D01*
X222762000Y-74515666D01*
X222804333Y-74473333D01*
X222846666Y-74515666D01*
X222846666Y-74515666D01*
G37*
X222846666Y-74515666D02*
X222804333Y-74558000D01*
X222762000Y-74515666D01*
X222804333Y-74473333D01*
X222846666Y-74515666D01*
G36*
X226148666Y-74346333D02*
X226106333Y-74388666D01*
X226064000Y-74346333D01*
X226106333Y-74304000D01*
X226148666Y-74346333D01*
X226148666Y-74346333D01*
G37*
X226148666Y-74346333D02*
X226106333Y-74388666D01*
X226064000Y-74346333D01*
X226106333Y-74304000D01*
X226148666Y-74346333D01*
G36*
X225979333Y-74261666D02*
X225937000Y-74304000D01*
X225894666Y-74261666D01*
X225937000Y-74219333D01*
X225979333Y-74261666D01*
X225979333Y-74261666D01*
G37*
X225979333Y-74261666D02*
X225937000Y-74304000D01*
X225894666Y-74261666D01*
X225937000Y-74219333D01*
X225979333Y-74261666D01*
G36*
X225810000Y-74177000D02*
X225767666Y-74219333D01*
X225725333Y-74177000D01*
X225767666Y-74134666D01*
X225810000Y-74177000D01*
X225810000Y-74177000D01*
G37*
X225810000Y-74177000D02*
X225767666Y-74219333D01*
X225725333Y-74177000D01*
X225767666Y-74134666D01*
X225810000Y-74177000D01*
D10*
X154727143Y-51921429D02*
X154727143Y-51321429D01*
X154955715Y-51321429D01*
X155012857Y-51350000D01*
X155041429Y-51378571D01*
X155070000Y-51435714D01*
X155070000Y-51521429D01*
X155041429Y-51578571D01*
X155012857Y-51607143D01*
X154955715Y-51635714D01*
X154727143Y-51635714D01*
X155298572Y-51378571D02*
X155327143Y-51350000D01*
X155384286Y-51321429D01*
X155527143Y-51321429D01*
X155584286Y-51350000D01*
X155612857Y-51378571D01*
X155641429Y-51435714D01*
X155641429Y-51492857D01*
X155612857Y-51578571D01*
X155270000Y-51921429D01*
X155641429Y-51921429D01*
D16*
X157833334Y-62292381D02*
X157500000Y-61816190D01*
X157261905Y-62292381D02*
X157261905Y-61292381D01*
X157642858Y-61292381D01*
X157738096Y-61340000D01*
X157785715Y-61387619D01*
X157833334Y-61482857D01*
X157833334Y-61625714D01*
X157785715Y-61720952D01*
X157738096Y-61768571D01*
X157642858Y-61816190D01*
X157261905Y-61816190D01*
X158785715Y-62292381D02*
X158214286Y-62292381D01*
X158500000Y-62292381D02*
X158500000Y-61292381D01*
X158404762Y-61435238D01*
X158309524Y-61530476D01*
X158214286Y-61578095D01*
X157793334Y-67172381D02*
X157460000Y-66696190D01*
X157221905Y-67172381D02*
X157221905Y-66172381D01*
X157602858Y-66172381D01*
X157698096Y-66220000D01*
X157745715Y-66267619D01*
X157793334Y-66362857D01*
X157793334Y-66505714D01*
X157745715Y-66600952D01*
X157698096Y-66648571D01*
X157602858Y-66696190D01*
X157221905Y-66696190D01*
X158174286Y-66267619D02*
X158221905Y-66220000D01*
X158317143Y-66172381D01*
X158555239Y-66172381D01*
X158650477Y-66220000D01*
X158698096Y-66267619D01*
X158745715Y-66362857D01*
X158745715Y-66458095D01*
X158698096Y-66600952D01*
X158126667Y-67172381D01*
X158745715Y-67172381D01*
X151153334Y-103542381D02*
X150820000Y-103066190D01*
X150581905Y-103542381D02*
X150581905Y-102542381D01*
X150962858Y-102542381D01*
X151058096Y-102590000D01*
X151105715Y-102637619D01*
X151153334Y-102732857D01*
X151153334Y-102875714D01*
X151105715Y-102970952D01*
X151058096Y-103018571D01*
X150962858Y-103066190D01*
X150581905Y-103066190D01*
X151486667Y-102542381D02*
X152105715Y-102542381D01*
X151772381Y-102923333D01*
X151915239Y-102923333D01*
X152010477Y-102970952D01*
X152058096Y-103018571D01*
X152105715Y-103113810D01*
X152105715Y-103351905D01*
X152058096Y-103447143D01*
X152010477Y-103494762D01*
X151915239Y-103542381D01*
X151629524Y-103542381D01*
X151534286Y-103494762D01*
X151486667Y-103447143D01*
X151982381Y-89506666D02*
X151506190Y-89840000D01*
X151982381Y-90078095D02*
X150982381Y-90078095D01*
X150982381Y-89697142D01*
X151030000Y-89601904D01*
X151077619Y-89554285D01*
X151172857Y-89506666D01*
X151315714Y-89506666D01*
X151410952Y-89554285D01*
X151458571Y-89601904D01*
X151506190Y-89697142D01*
X151506190Y-90078095D01*
X151315714Y-88649523D02*
X151982381Y-88649523D01*
X150934762Y-88887619D02*
X151649048Y-89125714D01*
X151649048Y-88506666D01*
X166982381Y-102528095D02*
X165982381Y-102528095D01*
X165982381Y-102147142D01*
X166030000Y-102051904D01*
X166077619Y-102004285D01*
X166172857Y-101956666D01*
X166315714Y-101956666D01*
X166410952Y-102004285D01*
X166458571Y-102051904D01*
X166506190Y-102147142D01*
X166506190Y-102528095D01*
X166982381Y-101004285D02*
X166982381Y-101575714D01*
X166982381Y-101290000D02*
X165982381Y-101290000D01*
X166125238Y-101385238D01*
X166220476Y-101480476D01*
X166268095Y-101575714D01*
D10*
X157127143Y-68501429D02*
X157127143Y-67901429D01*
X157355715Y-67901429D01*
X157412857Y-67930000D01*
X157441429Y-67958571D01*
X157470000Y-68015714D01*
X157470000Y-68101429D01*
X157441429Y-68158571D01*
X157412857Y-68187143D01*
X157355715Y-68215714D01*
X157127143Y-68215714D01*
X157670000Y-67901429D02*
X158041429Y-67901429D01*
X157841429Y-68130000D01*
X157927143Y-68130000D01*
X157984286Y-68158571D01*
X158012857Y-68187143D01*
X158041429Y-68244286D01*
X158041429Y-68387143D01*
X158012857Y-68444286D01*
X157984286Y-68472857D01*
X157927143Y-68501429D01*
X157755715Y-68501429D01*
X157698572Y-68472857D01*
X157670000Y-68444286D01*
X157801429Y-91932857D02*
X157201429Y-91932857D01*
X157201429Y-91704285D01*
X157230000Y-91647143D01*
X157258571Y-91618571D01*
X157315714Y-91590000D01*
X157401429Y-91590000D01*
X157458571Y-91618571D01*
X157487143Y-91647143D01*
X157515714Y-91704285D01*
X157515714Y-91932857D01*
X157401429Y-91075714D02*
X157801429Y-91075714D01*
X157172857Y-91218571D02*
X157601429Y-91361428D01*
X157601429Y-90990000D01*
X157237143Y-80281429D02*
X157237143Y-79681429D01*
X157465715Y-79681429D01*
X157522857Y-79710000D01*
X157551429Y-79738571D01*
X157580000Y-79795714D01*
X157580000Y-79881429D01*
X157551429Y-79938571D01*
X157522857Y-79967143D01*
X157465715Y-79995714D01*
X157237143Y-79995714D01*
X158122857Y-79681429D02*
X157837143Y-79681429D01*
X157808572Y-79967143D01*
X157837143Y-79938571D01*
X157894286Y-79910000D01*
X158037143Y-79910000D01*
X158094286Y-79938571D01*
X158122857Y-79967143D01*
X158151429Y-80024286D01*
X158151429Y-80167143D01*
X158122857Y-80224286D01*
X158094286Y-80252857D01*
X158037143Y-80281429D01*
X157894286Y-80281429D01*
X157837143Y-80252857D01*
X157808572Y-80224286D01*
X152167143Y-51971429D02*
X152167143Y-51371429D01*
X152395715Y-51371429D01*
X152452857Y-51400000D01*
X152481429Y-51428571D01*
X152510000Y-51485714D01*
X152510000Y-51571429D01*
X152481429Y-51628571D01*
X152452857Y-51657143D01*
X152395715Y-51685714D01*
X152167143Y-51685714D01*
X153024286Y-51371429D02*
X152910000Y-51371429D01*
X152852857Y-51400000D01*
X152824286Y-51428571D01*
X152767143Y-51514286D01*
X152738572Y-51628571D01*
X152738572Y-51857143D01*
X152767143Y-51914286D01*
X152795715Y-51942857D01*
X152852857Y-51971429D01*
X152967143Y-51971429D01*
X153024286Y-51942857D01*
X153052857Y-51914286D01*
X153081429Y-51857143D01*
X153081429Y-51714286D01*
X153052857Y-51657143D01*
X153024286Y-51628571D01*
X152967143Y-51600000D01*
X152852857Y-51600000D01*
X152795715Y-51628571D01*
X152767143Y-51657143D01*
X152738572Y-51714286D01*
X149807143Y-68511429D02*
X149807143Y-67911429D01*
X150035715Y-67911429D01*
X150092857Y-67940000D01*
X150121429Y-67968571D01*
X150150000Y-68025714D01*
X150150000Y-68111429D01*
X150121429Y-68168571D01*
X150092857Y-68197143D01*
X150035715Y-68225714D01*
X149807143Y-68225714D01*
X150350000Y-67911429D02*
X150750000Y-67911429D01*
X150492857Y-68511429D01*
X150751429Y-92612857D02*
X150151429Y-92612857D01*
X150151429Y-92384285D01*
X150180000Y-92327143D01*
X150208571Y-92298571D01*
X150265714Y-92270000D01*
X150351429Y-92270000D01*
X150408571Y-92298571D01*
X150437143Y-92327143D01*
X150465714Y-92384285D01*
X150465714Y-92612857D01*
X150408571Y-91927143D02*
X150380000Y-91984285D01*
X150351429Y-92012857D01*
X150294286Y-92041428D01*
X150265714Y-92041428D01*
X150208571Y-92012857D01*
X150180000Y-91984285D01*
X150151429Y-91927143D01*
X150151429Y-91812857D01*
X150180000Y-91755714D01*
X150208571Y-91727143D01*
X150265714Y-91698571D01*
X150294286Y-91698571D01*
X150351429Y-91727143D01*
X150380000Y-91755714D01*
X150408571Y-91812857D01*
X150408571Y-91927143D01*
X150437143Y-91984285D01*
X150465714Y-92012857D01*
X150522857Y-92041428D01*
X150637143Y-92041428D01*
X150694286Y-92012857D01*
X150722857Y-91984285D01*
X150751429Y-91927143D01*
X150751429Y-91812857D01*
X150722857Y-91755714D01*
X150694286Y-91727143D01*
X150637143Y-91698571D01*
X150522857Y-91698571D01*
X150465714Y-91727143D01*
X150437143Y-91755714D01*
X150408571Y-91812857D01*
X149797143Y-80391429D02*
X149797143Y-79791429D01*
X150025715Y-79791429D01*
X150082857Y-79820000D01*
X150111429Y-79848571D01*
X150140000Y-79905714D01*
X150140000Y-79991429D01*
X150111429Y-80048571D01*
X150082857Y-80077143D01*
X150025715Y-80105714D01*
X149797143Y-80105714D01*
X150425715Y-80391429D02*
X150540000Y-80391429D01*
X150597143Y-80362857D01*
X150625715Y-80334286D01*
X150682857Y-80248571D01*
X150711429Y-80134286D01*
X150711429Y-79905714D01*
X150682857Y-79848571D01*
X150654286Y-79820000D01*
X150597143Y-79791429D01*
X150482857Y-79791429D01*
X150425715Y-79820000D01*
X150397143Y-79848571D01*
X150368572Y-79905714D01*
X150368572Y-80048571D01*
X150397143Y-80105714D01*
X150425715Y-80134286D01*
X150482857Y-80162857D01*
X150597143Y-80162857D01*
X150654286Y-80134286D01*
X150682857Y-80105714D01*
X150711429Y-80048571D01*
D16*
X151702381Y-78796666D02*
X151226190Y-79130000D01*
X151702381Y-79368095D02*
X150702381Y-79368095D01*
X150702381Y-78987142D01*
X150750000Y-78891904D01*
X150797619Y-78844285D01*
X150892857Y-78796666D01*
X151035714Y-78796666D01*
X151130952Y-78844285D01*
X151178571Y-78891904D01*
X151226190Y-78987142D01*
X151226190Y-79368095D01*
X150702381Y-77891904D02*
X150702381Y-78368095D01*
X151178571Y-78415714D01*
X151130952Y-78368095D01*
X151083333Y-78272857D01*
X151083333Y-78034761D01*
X151130952Y-77939523D01*
X151178571Y-77891904D01*
X151273810Y-77844285D01*
X151511905Y-77844285D01*
X151607143Y-77891904D01*
X151654762Y-77939523D01*
X151702381Y-78034761D01*
X151702381Y-78272857D01*
X151654762Y-78368095D01*
X151607143Y-78415714D01*
X157783334Y-64062381D02*
X157450000Y-63586190D01*
X157211905Y-64062381D02*
X157211905Y-63062381D01*
X157592858Y-63062381D01*
X157688096Y-63110000D01*
X157735715Y-63157619D01*
X157783334Y-63252857D01*
X157783334Y-63395714D01*
X157735715Y-63490952D01*
X157688096Y-63538571D01*
X157592858Y-63586190D01*
X157211905Y-63586190D01*
X158640477Y-63062381D02*
X158450000Y-63062381D01*
X158354762Y-63110000D01*
X158307143Y-63157619D01*
X158211905Y-63300476D01*
X158164286Y-63490952D01*
X158164286Y-63871905D01*
X158211905Y-63967143D01*
X158259524Y-64014762D01*
X158354762Y-64062381D01*
X158545239Y-64062381D01*
X158640477Y-64014762D01*
X158688096Y-63967143D01*
X158735715Y-63871905D01*
X158735715Y-63633810D01*
X158688096Y-63538571D01*
X158640477Y-63490952D01*
X158545239Y-63443333D01*
X158354762Y-63443333D01*
X158259524Y-63490952D01*
X158211905Y-63538571D01*
X158164286Y-63633810D01*
M02*
