G04 #@! TF.FileFunction,Soldermask,Bot*
%FSLAX46Y46*%
G04 Gerber Fmt 4.6, Leading zero omitted, Abs format (unit mm)*
G04 Created by KiCad (PCBNEW 4.0.4-stable) date 04/20/17 14:33:44*
%MOMM*%
%LPD*%
G01*
G04 APERTURE LIST*
%ADD10C,0.100000*%
%ADD11R,3.200000X3.200000*%
%ADD12O,3.200000X3.200000*%
%ADD13R,2.100000X2.100000*%
%ADD14O,2.100000X2.100000*%
%ADD15C,2.400000*%
%ADD16O,1.924000X2.940000*%
%ADD17C,3.575000*%
%ADD18C,1.924000*%
%ADD19O,3.041600X1.720800*%
%ADD20C,3.000000*%
G04 APERTURE END LIST*
D10*
D11*
X189380000Y-96870000D03*
D12*
X189380000Y-86710000D03*
D11*
X189380000Y-79340000D03*
D12*
X189380000Y-69180000D03*
D13*
X178070000Y-60390000D03*
D14*
X180610000Y-60390000D03*
X183150000Y-60390000D03*
X185690000Y-60390000D03*
X188230000Y-60390000D03*
X190770000Y-60390000D03*
X193310000Y-60390000D03*
X195850000Y-60390000D03*
X198390000Y-60390000D03*
X200930000Y-60390000D03*
X203470000Y-60390000D03*
X206010000Y-60390000D03*
D13*
X178070000Y-62930000D03*
D14*
X180610000Y-62930000D03*
X183150000Y-62930000D03*
X185690000Y-62930000D03*
X188230000Y-62930000D03*
X190770000Y-62930000D03*
X193310000Y-62930000D03*
X195850000Y-62930000D03*
X198390000Y-62930000D03*
X200930000Y-62930000D03*
X203470000Y-62930000D03*
X206010000Y-62930000D03*
D13*
X196650000Y-96730000D03*
D14*
X194110000Y-96730000D03*
D13*
X178070000Y-57870000D03*
D14*
X180610000Y-57870000D03*
X183150000Y-57870000D03*
X185690000Y-57870000D03*
X188230000Y-57870000D03*
X190770000Y-57870000D03*
X193310000Y-57870000D03*
X195850000Y-57870000D03*
X198390000Y-57870000D03*
X200930000Y-57870000D03*
X203470000Y-57870000D03*
X206010000Y-57870000D03*
D15*
X183320000Y-90880000D03*
X181320000Y-96880000D03*
X181320000Y-84880000D03*
X169120000Y-96880000D03*
X169120000Y-84880000D03*
X183340000Y-73950000D03*
X181340000Y-79950000D03*
X181340000Y-67950000D03*
X169140000Y-79950000D03*
X169140000Y-67950000D03*
D16*
X216210000Y-53680000D03*
X218750000Y-53680000D03*
X221290000Y-53680000D03*
X223830000Y-53680000D03*
X226370000Y-53680000D03*
X228910000Y-53680000D03*
X231450000Y-53680000D03*
X233990000Y-53680000D03*
X239070000Y-101940000D03*
X236530000Y-101940000D03*
X233990000Y-101940000D03*
X231450000Y-101940000D03*
X221290000Y-101940000D03*
X216210000Y-101940000D03*
X213670000Y-101940000D03*
X223830000Y-101940000D03*
X226370000Y-101940000D03*
X228910000Y-101940000D03*
X211130000Y-101940000D03*
X208590000Y-101940000D03*
X206050000Y-101940000D03*
X198430000Y-101940000D03*
X200970000Y-101940000D03*
X203510000Y-101940000D03*
X193350000Y-101940000D03*
X190810000Y-101940000D03*
X188270000Y-101940000D03*
X183190000Y-101940000D03*
X180650000Y-101940000D03*
X211130000Y-53680000D03*
X208590000Y-53680000D03*
X206050000Y-53680000D03*
X203510000Y-53680000D03*
X200970000Y-53680000D03*
X198430000Y-53680000D03*
X195890000Y-53680000D03*
X193350000Y-53680000D03*
X189286000Y-53680000D03*
X186746000Y-53680000D03*
X184206000Y-53680000D03*
X181666000Y-53680000D03*
X179126000Y-53680000D03*
X176586000Y-53680000D03*
X174046000Y-53680000D03*
X171506000Y-53680000D03*
X185730000Y-101940000D03*
D17*
X244150000Y-101940000D03*
X237800000Y-53680000D03*
X162870000Y-53680000D03*
X161600000Y-101940000D03*
D18*
X241610000Y-56220000D03*
X244150000Y-56220000D03*
X241610000Y-58760000D03*
X244150000Y-58760000D03*
X241610000Y-61300000D03*
X244150000Y-61300000D03*
X241610000Y-63840000D03*
X244150000Y-63840000D03*
X241610000Y-53680000D03*
X244150000Y-53680000D03*
X244150000Y-66380000D03*
X241610000Y-66380000D03*
X241610000Y-68920000D03*
X244150000Y-68920000D03*
X241610000Y-71460000D03*
X244150000Y-71460000D03*
X241610000Y-74000000D03*
X244150000Y-74000000D03*
X241610000Y-76540000D03*
X244150000Y-76540000D03*
X241610000Y-79080000D03*
X244150000Y-79080000D03*
X241610000Y-81620000D03*
X244150000Y-81620000D03*
X241610000Y-84160000D03*
X244150000Y-84160000D03*
X241610000Y-86700000D03*
X244150000Y-86700000D03*
X241610000Y-89240000D03*
X244150000Y-89240000D03*
X241610000Y-91780000D03*
X244150000Y-91780000D03*
X241610000Y-94320000D03*
X244150000Y-94320000D03*
X241610000Y-96860000D03*
X244150000Y-96860000D03*
X211130000Y-74000000D03*
X213670000Y-74000000D03*
X211130000Y-76540000D03*
X213670000Y-76540000D03*
X211130000Y-79080000D03*
X213670000Y-79080000D03*
D17*
X213416000Y-68920000D03*
X213670000Y-96860000D03*
D16*
X178110000Y-101940000D03*
X175570000Y-101940000D03*
X168966000Y-53680000D03*
X166426000Y-53680000D03*
D19*
X202840000Y-91670000D03*
X202840000Y-89130000D03*
X195220000Y-89130000D03*
X195220000Y-91670000D03*
X202200000Y-75310000D03*
X202200000Y-72770000D03*
X194580000Y-72770000D03*
X194580000Y-75310000D03*
D20*
X154130000Y-75920000D03*
X154130000Y-70840000D03*
X154130000Y-81000000D03*
X154090000Y-94810000D03*
X154090000Y-89730000D03*
X154090000Y-99890000D03*
X154180000Y-56510000D03*
X154180000Y-61590000D03*
M02*
