G04 #@! TF.FileFunction,Paste,Bot*
%FSLAX46Y46*%
G04 Gerber Fmt 4.6, Leading zero omitted, Abs format (unit mm)*
G04 Created by KiCad (PCBNEW 4.0.4-stable) date 05/31/17 10:55:34*
%MOMM*%
%LPD*%
G01*
G04 APERTURE LIST*
%ADD10C,0.100000*%
%ADD11R,0.900000X0.800000*%
%ADD12R,0.600000X1.500000*%
%ADD13R,1.500000X1.250000*%
%ADD14R,1.250000X1.500000*%
%ADD15R,1.500000X1.300000*%
%ADD16R,1.300000X1.500000*%
G04 APERTURE END LIST*
D10*
D11*
X149900000Y-110600000D03*
X149900000Y-108700000D03*
X151900000Y-109650000D03*
D12*
X128240000Y-96670000D03*
X129510000Y-96670000D03*
X130780000Y-96670000D03*
X132050000Y-96670000D03*
X133320000Y-96670000D03*
X134590000Y-96670000D03*
X135860000Y-96670000D03*
X137130000Y-96670000D03*
X137130000Y-102070000D03*
X135860000Y-102070000D03*
X134590000Y-102070000D03*
X133320000Y-102070000D03*
X132050000Y-102070000D03*
X130780000Y-102070000D03*
X129510000Y-102070000D03*
X128240000Y-102070000D03*
D13*
X135800000Y-94340000D03*
X133300000Y-94340000D03*
D14*
X125770000Y-103950000D03*
X125770000Y-101450000D03*
D13*
X127780000Y-104100000D03*
X130280000Y-104100000D03*
D14*
X125770000Y-96700000D03*
X125770000Y-99200000D03*
D13*
X128530000Y-94320000D03*
X131030000Y-94320000D03*
D11*
X157400000Y-110500000D03*
X157400000Y-108600000D03*
X159400000Y-109550000D03*
X171400000Y-110350000D03*
X171400000Y-108450000D03*
X173400000Y-109400000D03*
X164200000Y-110550000D03*
X164200000Y-108650000D03*
X166200000Y-109600000D03*
X150200000Y-78400000D03*
X150200000Y-80300000D03*
X148200000Y-79350000D03*
X157400000Y-78450000D03*
X157400000Y-80350000D03*
X155400000Y-79400000D03*
X164400000Y-78450000D03*
X164400000Y-80350000D03*
X162400000Y-79400000D03*
X171200000Y-78450000D03*
X171200000Y-80350000D03*
X169200000Y-79400000D03*
D15*
X152950000Y-112400000D03*
X150250000Y-112400000D03*
X160450000Y-112300000D03*
X157750000Y-112300000D03*
X174400000Y-112200000D03*
X171700000Y-112200000D03*
X167200000Y-112300000D03*
X164500000Y-112300000D03*
D16*
X148200000Y-108900000D03*
X148200000Y-111600000D03*
X155700000Y-108800000D03*
X155700000Y-111500000D03*
X169700000Y-108700000D03*
X169700000Y-111400000D03*
X162500000Y-108800000D03*
X162500000Y-111500000D03*
X151900000Y-79400000D03*
X151900000Y-76700000D03*
X159100000Y-79400000D03*
X159100000Y-76700000D03*
X166100000Y-79400000D03*
X166100000Y-76700000D03*
X172900000Y-79400000D03*
X172900000Y-76700000D03*
D15*
X149900000Y-76600000D03*
X147200000Y-76600000D03*
X157100000Y-76600000D03*
X154400000Y-76600000D03*
X164100000Y-76600000D03*
X161400000Y-76600000D03*
X170900000Y-76600000D03*
X168200000Y-76600000D03*
M02*
