G04 #@! TF.FileFunction,Legend,Bot*
%FSLAX46Y46*%
G04 Gerber Fmt 4.6, Leading zero omitted, Abs format (unit mm)*
G04 Created by KiCad (PCBNEW 4.0.4-stable) date 05/31/17 10:55:34*
%MOMM*%
%LPD*%
G01*
G04 APERTURE LIST*
%ADD10C,0.100000*%
%ADD11C,0.200000*%
%ADD12C,0.250000*%
%ADD13C,0.120000*%
%ADD14C,0.150000*%
G04 APERTURE END LIST*
D10*
D11*
X119246699Y-105846698D02*
G75*
G03X119246699Y-105846698I-346699J0D01*
G01*
X127216228Y-94900000D02*
G75*
G03X127216228Y-94900000I-316228J0D01*
G01*
D12*
X123148095Y-117182381D02*
X122529047Y-117182381D01*
X122862381Y-117563333D01*
X122719523Y-117563333D01*
X122624285Y-117610952D01*
X122576666Y-117658571D01*
X122529047Y-117753810D01*
X122529047Y-117991905D01*
X122576666Y-118087143D01*
X122624285Y-118134762D01*
X122719523Y-118182381D01*
X123005238Y-118182381D01*
X123100476Y-118134762D01*
X123148095Y-118087143D01*
X122243333Y-117182381D02*
X121910000Y-118182381D01*
X121576666Y-117182381D01*
X121338571Y-117182381D02*
X120719523Y-117182381D01*
X121052857Y-117563333D01*
X120909999Y-117563333D01*
X120814761Y-117610952D01*
X120767142Y-117658571D01*
X120719523Y-117753810D01*
X120719523Y-117991905D01*
X120767142Y-118087143D01*
X120814761Y-118134762D01*
X120909999Y-118182381D01*
X121195714Y-118182381D01*
X121290952Y-118134762D01*
X121338571Y-118087143D01*
X119000476Y-115912381D02*
X119476667Y-115912381D01*
X119524286Y-116388571D01*
X119476667Y-116340952D01*
X119381429Y-116293333D01*
X119143333Y-116293333D01*
X119048095Y-116340952D01*
X119000476Y-116388571D01*
X118952857Y-116483810D01*
X118952857Y-116721905D01*
X119000476Y-116817143D01*
X119048095Y-116864762D01*
X119143333Y-116912381D01*
X119381429Y-116912381D01*
X119476667Y-116864762D01*
X119524286Y-116817143D01*
X118667143Y-115912381D02*
X118333810Y-116912381D01*
X118000476Y-115912381D01*
X117880000Y-113131904D02*
X117927619Y-113227142D01*
X117927619Y-113369999D01*
X117880000Y-113512857D01*
X117784762Y-113608095D01*
X117689524Y-113655714D01*
X117499048Y-113703333D01*
X117356190Y-113703333D01*
X117165714Y-113655714D01*
X117070476Y-113608095D01*
X116975238Y-113512857D01*
X116927619Y-113369999D01*
X116927619Y-113274761D01*
X116975238Y-113131904D01*
X117022857Y-113084285D01*
X117356190Y-113084285D01*
X117356190Y-113274761D01*
X116927619Y-112655714D02*
X117927619Y-112655714D01*
X116927619Y-112084285D01*
X117927619Y-112084285D01*
X116927619Y-111608095D02*
X117927619Y-111608095D01*
X117927619Y-111370000D01*
X117880000Y-111227142D01*
X117784762Y-111131904D01*
X117689524Y-111084285D01*
X117499048Y-111036666D01*
X117356190Y-111036666D01*
X117165714Y-111084285D01*
X117070476Y-111131904D01*
X116975238Y-111227142D01*
X116927619Y-111370000D01*
X116927619Y-111608095D01*
X122597619Y-113705238D02*
X123073810Y-114038572D01*
X122597619Y-114276667D02*
X123597619Y-114276667D01*
X123597619Y-113895714D01*
X123550000Y-113800476D01*
X123502381Y-113752857D01*
X123407143Y-113705238D01*
X123264286Y-113705238D01*
X123169048Y-113752857D01*
X123121429Y-113800476D01*
X123073810Y-113895714D01*
X123073810Y-114276667D01*
X122597619Y-113371905D02*
X123264286Y-112848095D01*
X123264286Y-113371905D02*
X122597619Y-112848095D01*
X117977619Y-107940476D02*
X117977619Y-107369047D01*
X116977619Y-107654762D02*
X117977619Y-107654762D01*
X116977619Y-107130952D02*
X117644286Y-106607142D01*
X117644286Y-107130952D02*
X116977619Y-106607142D01*
D13*
X151660000Y-108070000D02*
X151660000Y-109000000D01*
X151660000Y-111230000D02*
X151660000Y-110300000D01*
X151660000Y-111230000D02*
X149500000Y-111230000D01*
X151660000Y-108070000D02*
X150200000Y-108070000D01*
D14*
X127610000Y-97295000D02*
X127635000Y-97295000D01*
X127610000Y-101445000D02*
X127715000Y-101445000D01*
X137760000Y-101445000D02*
X137655000Y-101445000D01*
X137760000Y-97295000D02*
X137655000Y-97295000D01*
X127610000Y-97295000D02*
X127610000Y-101445000D01*
X137760000Y-97295000D02*
X137760000Y-101445000D01*
X127635000Y-97295000D02*
X127635000Y-95920000D01*
D13*
X134050000Y-93490000D02*
X135050000Y-93490000D01*
X135050000Y-95190000D02*
X134050000Y-95190000D01*
X126620000Y-102200000D02*
X126620000Y-103200000D01*
X124920000Y-103200000D02*
X124920000Y-102200000D01*
X129530000Y-104950000D02*
X128530000Y-104950000D01*
X128530000Y-103250000D02*
X129530000Y-103250000D01*
X124920000Y-98450000D02*
X124920000Y-97450000D01*
X126620000Y-97450000D02*
X126620000Y-98450000D01*
X130280000Y-95170000D02*
X129280000Y-95170000D01*
X129280000Y-93470000D02*
X130280000Y-93470000D01*
X159160000Y-107970000D02*
X159160000Y-108900000D01*
X159160000Y-111130000D02*
X159160000Y-110200000D01*
X159160000Y-111130000D02*
X157000000Y-111130000D01*
X159160000Y-107970000D02*
X157700000Y-107970000D01*
X173160000Y-107820000D02*
X173160000Y-108750000D01*
X173160000Y-110980000D02*
X173160000Y-110050000D01*
X173160000Y-110980000D02*
X171000000Y-110980000D01*
X173160000Y-107820000D02*
X171700000Y-107820000D01*
X165960000Y-108020000D02*
X165960000Y-108950000D01*
X165960000Y-111180000D02*
X165960000Y-110250000D01*
X165960000Y-111180000D02*
X163800000Y-111180000D01*
X165960000Y-108020000D02*
X164500000Y-108020000D01*
X148440000Y-80930000D02*
X148440000Y-80000000D01*
X148440000Y-77770000D02*
X148440000Y-78700000D01*
X148440000Y-77770000D02*
X150600000Y-77770000D01*
X148440000Y-80930000D02*
X149900000Y-80930000D01*
X155640000Y-80980000D02*
X155640000Y-80050000D01*
X155640000Y-77820000D02*
X155640000Y-78750000D01*
X155640000Y-77820000D02*
X157800000Y-77820000D01*
X155640000Y-80980000D02*
X157100000Y-80980000D01*
X162640000Y-80980000D02*
X162640000Y-80050000D01*
X162640000Y-77820000D02*
X162640000Y-78750000D01*
X162640000Y-77820000D02*
X164800000Y-77820000D01*
X162640000Y-80980000D02*
X164100000Y-80980000D01*
X169440000Y-80980000D02*
X169440000Y-80050000D01*
X169440000Y-77820000D02*
X169440000Y-78750000D01*
X169440000Y-77820000D02*
X171600000Y-77820000D01*
X169440000Y-80980000D02*
X170900000Y-80980000D01*
X151000000Y-113280000D02*
X152200000Y-113280000D01*
X152200000Y-111520000D02*
X151000000Y-111520000D01*
X158500000Y-113180000D02*
X159700000Y-113180000D01*
X159700000Y-111420000D02*
X158500000Y-111420000D01*
X172450000Y-113080000D02*
X173650000Y-113080000D01*
X173650000Y-111320000D02*
X172450000Y-111320000D01*
X165250000Y-113180000D02*
X166450000Y-113180000D01*
X166450000Y-111420000D02*
X165250000Y-111420000D01*
X149080000Y-110850000D02*
X149080000Y-109650000D01*
X147320000Y-109650000D02*
X147320000Y-110850000D01*
X156580000Y-110750000D02*
X156580000Y-109550000D01*
X154820000Y-109550000D02*
X154820000Y-110750000D01*
X170580000Y-110650000D02*
X170580000Y-109450000D01*
X168820000Y-109450000D02*
X168820000Y-110650000D01*
X163380000Y-110750000D02*
X163380000Y-109550000D01*
X161620000Y-109550000D02*
X161620000Y-110750000D01*
X151020000Y-77450000D02*
X151020000Y-78650000D01*
X152780000Y-78650000D02*
X152780000Y-77450000D01*
X158220000Y-77450000D02*
X158220000Y-78650000D01*
X159980000Y-78650000D02*
X159980000Y-77450000D01*
X165220000Y-77450000D02*
X165220000Y-78650000D01*
X166980000Y-78650000D02*
X166980000Y-77450000D01*
X172020000Y-77450000D02*
X172020000Y-78650000D01*
X173780000Y-78650000D02*
X173780000Y-77450000D01*
X147950000Y-77480000D02*
X149150000Y-77480000D01*
X149150000Y-75720000D02*
X147950000Y-75720000D01*
X155150000Y-77480000D02*
X156350000Y-77480000D01*
X156350000Y-75720000D02*
X155150000Y-75720000D01*
X162150000Y-77480000D02*
X163350000Y-77480000D01*
X163350000Y-75720000D02*
X162150000Y-75720000D01*
X168950000Y-77480000D02*
X170150000Y-77480000D01*
X170150000Y-75720000D02*
X168950000Y-75720000D01*
D10*
X153373810Y-109602381D02*
X153350000Y-109554762D01*
X153302381Y-109507143D01*
X153230952Y-109435714D01*
X153207143Y-109388095D01*
X153207143Y-109340476D01*
X153326190Y-109364286D02*
X153302381Y-109316667D01*
X153254762Y-109269048D01*
X153159524Y-109245238D01*
X152992857Y-109245238D01*
X152897619Y-109269048D01*
X152850000Y-109316667D01*
X152826190Y-109364286D01*
X152826190Y-109459524D01*
X152850000Y-109507143D01*
X152897619Y-109554762D01*
X152992857Y-109578571D01*
X153159524Y-109578571D01*
X153254762Y-109554762D01*
X153302381Y-109507143D01*
X153326190Y-109459524D01*
X153326190Y-109364286D01*
X152992857Y-110007143D02*
X153326190Y-110007143D01*
X152802381Y-109888096D02*
X153159524Y-109769048D01*
X153159524Y-110078572D01*
D14*
X138352381Y-98538095D02*
X139161905Y-98538095D01*
X139257143Y-98585714D01*
X139304762Y-98633333D01*
X139352381Y-98728571D01*
X139352381Y-98919048D01*
X139304762Y-99014286D01*
X139257143Y-99061905D01*
X139161905Y-99109524D01*
X138352381Y-99109524D01*
X138352381Y-99490476D02*
X138352381Y-100109524D01*
X138733333Y-99776190D01*
X138733333Y-99919048D01*
X138780952Y-100014286D01*
X138828571Y-100061905D01*
X138923810Y-100109524D01*
X139161905Y-100109524D01*
X139257143Y-100061905D01*
X139304762Y-100014286D01*
X139352381Y-99919048D01*
X139352381Y-99633333D01*
X139304762Y-99538095D01*
X139257143Y-99490476D01*
X135192857Y-92947143D02*
X135240476Y-92994762D01*
X135383333Y-93042381D01*
X135478571Y-93042381D01*
X135621429Y-92994762D01*
X135716667Y-92899524D01*
X135764286Y-92804286D01*
X135811905Y-92613810D01*
X135811905Y-92470952D01*
X135764286Y-92280476D01*
X135716667Y-92185238D01*
X135621429Y-92090000D01*
X135478571Y-92042381D01*
X135383333Y-92042381D01*
X135240476Y-92090000D01*
X135192857Y-92137619D01*
X134240476Y-93042381D02*
X134811905Y-93042381D01*
X134526191Y-93042381D02*
X134526191Y-92042381D01*
X134621429Y-92185238D01*
X134716667Y-92280476D01*
X134811905Y-92328095D01*
X133621429Y-92042381D02*
X133526190Y-92042381D01*
X133430952Y-92090000D01*
X133383333Y-92137619D01*
X133335714Y-92232857D01*
X133288095Y-92423333D01*
X133288095Y-92661429D01*
X133335714Y-92851905D01*
X133383333Y-92947143D01*
X133430952Y-92994762D01*
X133526190Y-93042381D01*
X133621429Y-93042381D01*
X133716667Y-92994762D01*
X133764286Y-92947143D01*
X133811905Y-92851905D01*
X133859524Y-92661429D01*
X133859524Y-92423333D01*
X133811905Y-92232857D01*
X133764286Y-92137619D01*
X133716667Y-92090000D01*
X133621429Y-92042381D01*
D12*
X124257143Y-102533334D02*
X124304762Y-102485715D01*
X124352381Y-102342858D01*
X124352381Y-102247620D01*
X124304762Y-102104762D01*
X124209524Y-102009524D01*
X124114286Y-101961905D01*
X123923810Y-101914286D01*
X123780952Y-101914286D01*
X123590476Y-101961905D01*
X123495238Y-102009524D01*
X123400000Y-102104762D01*
X123352381Y-102247620D01*
X123352381Y-102342858D01*
X123400000Y-102485715D01*
X123447619Y-102533334D01*
X124352381Y-103009524D02*
X124352381Y-103200000D01*
X124304762Y-103295239D01*
X124257143Y-103342858D01*
X124114286Y-103438096D01*
X123923810Y-103485715D01*
X123542857Y-103485715D01*
X123447619Y-103438096D01*
X123400000Y-103390477D01*
X123352381Y-103295239D01*
X123352381Y-103104762D01*
X123400000Y-103009524D01*
X123447619Y-102961905D01*
X123542857Y-102914286D01*
X123780952Y-102914286D01*
X123876190Y-102961905D01*
X123923810Y-103009524D01*
X123971429Y-103104762D01*
X123971429Y-103295239D01*
X123923810Y-103390477D01*
X123876190Y-103438096D01*
X123780952Y-103485715D01*
D14*
X129156666Y-106227143D02*
X129204285Y-106274762D01*
X129347142Y-106322381D01*
X129442380Y-106322381D01*
X129585238Y-106274762D01*
X129680476Y-106179524D01*
X129728095Y-106084286D01*
X129775714Y-105893810D01*
X129775714Y-105750952D01*
X129728095Y-105560476D01*
X129680476Y-105465238D01*
X129585238Y-105370000D01*
X129442380Y-105322381D01*
X129347142Y-105322381D01*
X129204285Y-105370000D01*
X129156666Y-105417619D01*
X128823333Y-105322381D02*
X128204285Y-105322381D01*
X128537619Y-105703333D01*
X128394761Y-105703333D01*
X128299523Y-105750952D01*
X128251904Y-105798571D01*
X128204285Y-105893810D01*
X128204285Y-106131905D01*
X128251904Y-106227143D01*
X128299523Y-106274762D01*
X128394761Y-106322381D01*
X128680476Y-106322381D01*
X128775714Y-106274762D01*
X128823333Y-106227143D01*
D12*
X124257143Y-98033334D02*
X124304762Y-97985715D01*
X124352381Y-97842858D01*
X124352381Y-97747620D01*
X124304762Y-97604762D01*
X124209524Y-97509524D01*
X124114286Y-97461905D01*
X123923810Y-97414286D01*
X123780952Y-97414286D01*
X123590476Y-97461905D01*
X123495238Y-97509524D01*
X123400000Y-97604762D01*
X123352381Y-97747620D01*
X123352381Y-97842858D01*
X123400000Y-97985715D01*
X123447619Y-98033334D01*
X123352381Y-98366667D02*
X123352381Y-99033334D01*
X124352381Y-98604762D01*
D14*
X129726666Y-93117143D02*
X129774285Y-93164762D01*
X129917142Y-93212381D01*
X130012380Y-93212381D01*
X130155238Y-93164762D01*
X130250476Y-93069524D01*
X130298095Y-92974286D01*
X130345714Y-92783810D01*
X130345714Y-92640952D01*
X130298095Y-92450476D01*
X130250476Y-92355238D01*
X130155238Y-92260000D01*
X130012380Y-92212381D01*
X129917142Y-92212381D01*
X129774285Y-92260000D01*
X129726666Y-92307619D01*
X129155238Y-92640952D02*
X129250476Y-92593333D01*
X129298095Y-92545714D01*
X129345714Y-92450476D01*
X129345714Y-92402857D01*
X129298095Y-92307619D01*
X129250476Y-92260000D01*
X129155238Y-92212381D01*
X128964761Y-92212381D01*
X128869523Y-92260000D01*
X128821904Y-92307619D01*
X128774285Y-92402857D01*
X128774285Y-92450476D01*
X128821904Y-92545714D01*
X128869523Y-92593333D01*
X128964761Y-92640952D01*
X129155238Y-92640952D01*
X129250476Y-92688571D01*
X129298095Y-92736190D01*
X129345714Y-92831429D01*
X129345714Y-93021905D01*
X129298095Y-93117143D01*
X129250476Y-93164762D01*
X129155238Y-93212381D01*
X128964761Y-93212381D01*
X128869523Y-93164762D01*
X128821904Y-93117143D01*
X128774285Y-93021905D01*
X128774285Y-92831429D01*
X128821904Y-92736190D01*
X128869523Y-92688571D01*
X128964761Y-92640952D01*
D10*
X160773810Y-109552381D02*
X160750000Y-109504762D01*
X160702381Y-109457143D01*
X160630952Y-109385714D01*
X160607143Y-109338095D01*
X160607143Y-109290476D01*
X160726190Y-109314286D02*
X160702381Y-109266667D01*
X160654762Y-109219048D01*
X160559524Y-109195238D01*
X160392857Y-109195238D01*
X160297619Y-109219048D01*
X160250000Y-109266667D01*
X160226190Y-109314286D01*
X160226190Y-109409524D01*
X160250000Y-109457143D01*
X160297619Y-109504762D01*
X160392857Y-109528571D01*
X160559524Y-109528571D01*
X160654762Y-109504762D01*
X160702381Y-109457143D01*
X160726190Y-109409524D01*
X160726190Y-109314286D01*
X160226190Y-109980953D02*
X160226190Y-109742858D01*
X160464286Y-109719048D01*
X160440476Y-109742858D01*
X160416667Y-109790477D01*
X160416667Y-109909524D01*
X160440476Y-109957143D01*
X160464286Y-109980953D01*
X160511905Y-110004762D01*
X160630952Y-110004762D01*
X160678571Y-109980953D01*
X160702381Y-109957143D01*
X160726190Y-109909524D01*
X160726190Y-109790477D01*
X160702381Y-109742858D01*
X160678571Y-109719048D01*
X174773810Y-109252381D02*
X174750000Y-109204762D01*
X174702381Y-109157143D01*
X174630952Y-109085714D01*
X174607143Y-109038095D01*
X174607143Y-108990476D01*
X174726190Y-109014286D02*
X174702381Y-108966667D01*
X174654762Y-108919048D01*
X174559524Y-108895238D01*
X174392857Y-108895238D01*
X174297619Y-108919048D01*
X174250000Y-108966667D01*
X174226190Y-109014286D01*
X174226190Y-109109524D01*
X174250000Y-109157143D01*
X174297619Y-109204762D01*
X174392857Y-109228571D01*
X174559524Y-109228571D01*
X174654762Y-109204762D01*
X174702381Y-109157143D01*
X174726190Y-109109524D01*
X174726190Y-109014286D01*
X174226190Y-109657143D02*
X174226190Y-109561905D01*
X174250000Y-109514286D01*
X174273810Y-109490477D01*
X174345238Y-109442858D01*
X174440476Y-109419048D01*
X174630952Y-109419048D01*
X174678571Y-109442858D01*
X174702381Y-109466667D01*
X174726190Y-109514286D01*
X174726190Y-109609524D01*
X174702381Y-109657143D01*
X174678571Y-109680953D01*
X174630952Y-109704762D01*
X174511905Y-109704762D01*
X174464286Y-109680953D01*
X174440476Y-109657143D01*
X174416667Y-109609524D01*
X174416667Y-109514286D01*
X174440476Y-109466667D01*
X174464286Y-109442858D01*
X174511905Y-109419048D01*
X167573810Y-109452381D02*
X167550000Y-109404762D01*
X167502381Y-109357143D01*
X167430952Y-109285714D01*
X167407143Y-109238095D01*
X167407143Y-109190476D01*
X167526190Y-109214286D02*
X167502381Y-109166667D01*
X167454762Y-109119048D01*
X167359524Y-109095238D01*
X167192857Y-109095238D01*
X167097619Y-109119048D01*
X167050000Y-109166667D01*
X167026190Y-109214286D01*
X167026190Y-109309524D01*
X167050000Y-109357143D01*
X167097619Y-109404762D01*
X167192857Y-109428571D01*
X167359524Y-109428571D01*
X167454762Y-109404762D01*
X167502381Y-109357143D01*
X167526190Y-109309524D01*
X167526190Y-109214286D01*
X167240476Y-109714286D02*
X167216667Y-109666667D01*
X167192857Y-109642858D01*
X167145238Y-109619048D01*
X167121429Y-109619048D01*
X167073810Y-109642858D01*
X167050000Y-109666667D01*
X167026190Y-109714286D01*
X167026190Y-109809524D01*
X167050000Y-109857143D01*
X167073810Y-109880953D01*
X167121429Y-109904762D01*
X167145238Y-109904762D01*
X167192857Y-109880953D01*
X167216667Y-109857143D01*
X167240476Y-109809524D01*
X167240476Y-109714286D01*
X167264286Y-109666667D01*
X167288095Y-109642858D01*
X167335714Y-109619048D01*
X167430952Y-109619048D01*
X167478571Y-109642858D01*
X167502381Y-109666667D01*
X167526190Y-109714286D01*
X167526190Y-109809524D01*
X167502381Y-109857143D01*
X167478571Y-109880953D01*
X167430952Y-109904762D01*
X167335714Y-109904762D01*
X167288095Y-109880953D01*
X167264286Y-109857143D01*
X167240476Y-109809524D01*
X147273810Y-79352381D02*
X147250000Y-79304762D01*
X147202381Y-79257143D01*
X147130952Y-79185714D01*
X147107143Y-79138095D01*
X147107143Y-79090476D01*
X147226190Y-79114286D02*
X147202381Y-79066667D01*
X147154762Y-79019048D01*
X147059524Y-78995238D01*
X146892857Y-78995238D01*
X146797619Y-79019048D01*
X146750000Y-79066667D01*
X146726190Y-79114286D01*
X146726190Y-79209524D01*
X146750000Y-79257143D01*
X146797619Y-79304762D01*
X146892857Y-79328571D01*
X147059524Y-79328571D01*
X147154762Y-79304762D01*
X147202381Y-79257143D01*
X147226190Y-79209524D01*
X147226190Y-79114286D01*
X147226190Y-79566667D02*
X147226190Y-79661905D01*
X147202381Y-79709524D01*
X147178571Y-79733334D01*
X147107143Y-79780953D01*
X147011905Y-79804762D01*
X146821429Y-79804762D01*
X146773810Y-79780953D01*
X146750000Y-79757143D01*
X146726190Y-79709524D01*
X146726190Y-79614286D01*
X146750000Y-79566667D01*
X146773810Y-79542858D01*
X146821429Y-79519048D01*
X146940476Y-79519048D01*
X146988095Y-79542858D01*
X147011905Y-79566667D01*
X147035714Y-79614286D01*
X147035714Y-79709524D01*
X147011905Y-79757143D01*
X146988095Y-79780953D01*
X146940476Y-79804762D01*
X154373810Y-79114286D02*
X154350000Y-79066667D01*
X154302381Y-79019048D01*
X154230952Y-78947619D01*
X154207143Y-78900000D01*
X154207143Y-78852381D01*
X154326190Y-78876191D02*
X154302381Y-78828572D01*
X154254762Y-78780953D01*
X154159524Y-78757143D01*
X153992857Y-78757143D01*
X153897619Y-78780953D01*
X153850000Y-78828572D01*
X153826190Y-78876191D01*
X153826190Y-78971429D01*
X153850000Y-79019048D01*
X153897619Y-79066667D01*
X153992857Y-79090476D01*
X154159524Y-79090476D01*
X154254762Y-79066667D01*
X154302381Y-79019048D01*
X154326190Y-78971429D01*
X154326190Y-78876191D01*
X154326190Y-79566667D02*
X154326190Y-79280953D01*
X154326190Y-79423810D02*
X153826190Y-79423810D01*
X153897619Y-79376191D01*
X153945238Y-79328572D01*
X153969048Y-79280953D01*
X153826190Y-79876191D02*
X153826190Y-79923810D01*
X153850000Y-79971429D01*
X153873810Y-79995238D01*
X153921429Y-80019048D01*
X154016667Y-80042857D01*
X154135714Y-80042857D01*
X154230952Y-80019048D01*
X154278571Y-79995238D01*
X154302381Y-79971429D01*
X154326190Y-79923810D01*
X154326190Y-79876191D01*
X154302381Y-79828572D01*
X154278571Y-79804762D01*
X154230952Y-79780953D01*
X154135714Y-79757143D01*
X154016667Y-79757143D01*
X153921429Y-79780953D01*
X153873810Y-79804762D01*
X153850000Y-79828572D01*
X153826190Y-79876191D01*
X161573810Y-79214286D02*
X161550000Y-79166667D01*
X161502381Y-79119048D01*
X161430952Y-79047619D01*
X161407143Y-79000000D01*
X161407143Y-78952381D01*
X161526190Y-78976191D02*
X161502381Y-78928572D01*
X161454762Y-78880953D01*
X161359524Y-78857143D01*
X161192857Y-78857143D01*
X161097619Y-78880953D01*
X161050000Y-78928572D01*
X161026190Y-78976191D01*
X161026190Y-79071429D01*
X161050000Y-79119048D01*
X161097619Y-79166667D01*
X161192857Y-79190476D01*
X161359524Y-79190476D01*
X161454762Y-79166667D01*
X161502381Y-79119048D01*
X161526190Y-79071429D01*
X161526190Y-78976191D01*
X161526190Y-79666667D02*
X161526190Y-79380953D01*
X161526190Y-79523810D02*
X161026190Y-79523810D01*
X161097619Y-79476191D01*
X161145238Y-79428572D01*
X161169048Y-79380953D01*
X161526190Y-80142857D02*
X161526190Y-79857143D01*
X161526190Y-80000000D02*
X161026190Y-80000000D01*
X161097619Y-79952381D01*
X161145238Y-79904762D01*
X161169048Y-79857143D01*
X168373810Y-79114286D02*
X168350000Y-79066667D01*
X168302381Y-79019048D01*
X168230952Y-78947619D01*
X168207143Y-78900000D01*
X168207143Y-78852381D01*
X168326190Y-78876191D02*
X168302381Y-78828572D01*
X168254762Y-78780953D01*
X168159524Y-78757143D01*
X167992857Y-78757143D01*
X167897619Y-78780953D01*
X167850000Y-78828572D01*
X167826190Y-78876191D01*
X167826190Y-78971429D01*
X167850000Y-79019048D01*
X167897619Y-79066667D01*
X167992857Y-79090476D01*
X168159524Y-79090476D01*
X168254762Y-79066667D01*
X168302381Y-79019048D01*
X168326190Y-78971429D01*
X168326190Y-78876191D01*
X168326190Y-79566667D02*
X168326190Y-79280953D01*
X168326190Y-79423810D02*
X167826190Y-79423810D01*
X167897619Y-79376191D01*
X167945238Y-79328572D01*
X167969048Y-79280953D01*
X167873810Y-79757143D02*
X167850000Y-79780953D01*
X167826190Y-79828572D01*
X167826190Y-79947619D01*
X167850000Y-79995238D01*
X167873810Y-80019048D01*
X167921429Y-80042857D01*
X167969048Y-80042857D01*
X168040476Y-80019048D01*
X168326190Y-79733334D01*
X168326190Y-80042857D01*
X151583333Y-113926190D02*
X151750000Y-113688095D01*
X151869047Y-113926190D02*
X151869047Y-113426190D01*
X151678571Y-113426190D01*
X151630952Y-113450000D01*
X151607143Y-113473810D01*
X151583333Y-113521429D01*
X151583333Y-113592857D01*
X151607143Y-113640476D01*
X151630952Y-113664286D01*
X151678571Y-113688095D01*
X151869047Y-113688095D01*
X151297619Y-113640476D02*
X151345238Y-113616667D01*
X151369047Y-113592857D01*
X151392857Y-113545238D01*
X151392857Y-113521429D01*
X151369047Y-113473810D01*
X151345238Y-113450000D01*
X151297619Y-113426190D01*
X151202381Y-113426190D01*
X151154762Y-113450000D01*
X151130952Y-113473810D01*
X151107143Y-113521429D01*
X151107143Y-113545238D01*
X151130952Y-113592857D01*
X151154762Y-113616667D01*
X151202381Y-113640476D01*
X151297619Y-113640476D01*
X151345238Y-113664286D01*
X151369047Y-113688095D01*
X151392857Y-113735714D01*
X151392857Y-113830952D01*
X151369047Y-113878571D01*
X151345238Y-113902381D01*
X151297619Y-113926190D01*
X151202381Y-113926190D01*
X151154762Y-113902381D01*
X151130952Y-113878571D01*
X151107143Y-113830952D01*
X151107143Y-113735714D01*
X151130952Y-113688095D01*
X151154762Y-113664286D01*
X151202381Y-113640476D01*
X159083333Y-113826190D02*
X159250000Y-113588095D01*
X159369047Y-113826190D02*
X159369047Y-113326190D01*
X159178571Y-113326190D01*
X159130952Y-113350000D01*
X159107143Y-113373810D01*
X159083333Y-113421429D01*
X159083333Y-113492857D01*
X159107143Y-113540476D01*
X159130952Y-113564286D01*
X159178571Y-113588095D01*
X159369047Y-113588095D01*
X158845238Y-113826190D02*
X158750000Y-113826190D01*
X158702381Y-113802381D01*
X158678571Y-113778571D01*
X158630952Y-113707143D01*
X158607143Y-113611905D01*
X158607143Y-113421429D01*
X158630952Y-113373810D01*
X158654762Y-113350000D01*
X158702381Y-113326190D01*
X158797619Y-113326190D01*
X158845238Y-113350000D01*
X158869047Y-113373810D01*
X158892857Y-113421429D01*
X158892857Y-113540476D01*
X158869047Y-113588095D01*
X158845238Y-113611905D01*
X158797619Y-113635714D01*
X158702381Y-113635714D01*
X158654762Y-113611905D01*
X158630952Y-113588095D01*
X158607143Y-113540476D01*
X173321428Y-113826190D02*
X173488095Y-113588095D01*
X173607142Y-113826190D02*
X173607142Y-113326190D01*
X173416666Y-113326190D01*
X173369047Y-113350000D01*
X173345238Y-113373810D01*
X173321428Y-113421429D01*
X173321428Y-113492857D01*
X173345238Y-113540476D01*
X173369047Y-113564286D01*
X173416666Y-113588095D01*
X173607142Y-113588095D01*
X172845238Y-113826190D02*
X173130952Y-113826190D01*
X172988095Y-113826190D02*
X172988095Y-113326190D01*
X173035714Y-113397619D01*
X173083333Y-113445238D01*
X173130952Y-113469048D01*
X172535714Y-113326190D02*
X172488095Y-113326190D01*
X172440476Y-113350000D01*
X172416667Y-113373810D01*
X172392857Y-113421429D01*
X172369048Y-113516667D01*
X172369048Y-113635714D01*
X172392857Y-113730952D01*
X172416667Y-113778571D01*
X172440476Y-113802381D01*
X172488095Y-113826190D01*
X172535714Y-113826190D01*
X172583333Y-113802381D01*
X172607143Y-113778571D01*
X172630952Y-113730952D01*
X172654762Y-113635714D01*
X172654762Y-113516667D01*
X172630952Y-113421429D01*
X172607143Y-113373810D01*
X172583333Y-113350000D01*
X172535714Y-113326190D01*
X166321428Y-113926190D02*
X166488095Y-113688095D01*
X166607142Y-113926190D02*
X166607142Y-113426190D01*
X166416666Y-113426190D01*
X166369047Y-113450000D01*
X166345238Y-113473810D01*
X166321428Y-113521429D01*
X166321428Y-113592857D01*
X166345238Y-113640476D01*
X166369047Y-113664286D01*
X166416666Y-113688095D01*
X166607142Y-113688095D01*
X165845238Y-113926190D02*
X166130952Y-113926190D01*
X165988095Y-113926190D02*
X165988095Y-113426190D01*
X166035714Y-113497619D01*
X166083333Y-113545238D01*
X166130952Y-113569048D01*
X165654762Y-113473810D02*
X165630952Y-113450000D01*
X165583333Y-113426190D01*
X165464286Y-113426190D01*
X165416667Y-113450000D01*
X165392857Y-113473810D01*
X165369048Y-113521429D01*
X165369048Y-113569048D01*
X165392857Y-113640476D01*
X165678571Y-113926190D01*
X165369048Y-113926190D01*
X147126190Y-110028572D02*
X146888095Y-109861905D01*
X147126190Y-109742858D02*
X146626190Y-109742858D01*
X146626190Y-109933334D01*
X146650000Y-109980953D01*
X146673810Y-110004762D01*
X146721429Y-110028572D01*
X146792857Y-110028572D01*
X146840476Y-110004762D01*
X146864286Y-109980953D01*
X146888095Y-109933334D01*
X146888095Y-109742858D01*
X147126190Y-110504762D02*
X147126190Y-110219048D01*
X147126190Y-110361905D02*
X146626190Y-110361905D01*
X146697619Y-110314286D01*
X146745238Y-110266667D01*
X146769048Y-110219048D01*
X146626190Y-110933333D02*
X146626190Y-110838095D01*
X146650000Y-110790476D01*
X146673810Y-110766667D01*
X146745238Y-110719048D01*
X146840476Y-110695238D01*
X147030952Y-110695238D01*
X147078571Y-110719048D01*
X147102381Y-110742857D01*
X147126190Y-110790476D01*
X147126190Y-110885714D01*
X147102381Y-110933333D01*
X147078571Y-110957143D01*
X147030952Y-110980952D01*
X146911905Y-110980952D01*
X146864286Y-110957143D01*
X146840476Y-110933333D01*
X146816667Y-110885714D01*
X146816667Y-110790476D01*
X146840476Y-110742857D01*
X146864286Y-110719048D01*
X146911905Y-110695238D01*
X156021428Y-113226190D02*
X156188095Y-112988095D01*
X156307142Y-113226190D02*
X156307142Y-112726190D01*
X156116666Y-112726190D01*
X156069047Y-112750000D01*
X156045238Y-112773810D01*
X156021428Y-112821429D01*
X156021428Y-112892857D01*
X156045238Y-112940476D01*
X156069047Y-112964286D01*
X156116666Y-112988095D01*
X156307142Y-112988095D01*
X155545238Y-113226190D02*
X155830952Y-113226190D01*
X155688095Y-113226190D02*
X155688095Y-112726190D01*
X155735714Y-112797619D01*
X155783333Y-112845238D01*
X155830952Y-112869048D01*
X155378571Y-112726190D02*
X155045238Y-112726190D01*
X155259524Y-113226190D01*
X170021428Y-113126190D02*
X170188095Y-112888095D01*
X170307142Y-113126190D02*
X170307142Y-112626190D01*
X170116666Y-112626190D01*
X170069047Y-112650000D01*
X170045238Y-112673810D01*
X170021428Y-112721429D01*
X170021428Y-112792857D01*
X170045238Y-112840476D01*
X170069047Y-112864286D01*
X170116666Y-112888095D01*
X170307142Y-112888095D01*
X169545238Y-113126190D02*
X169830952Y-113126190D01*
X169688095Y-113126190D02*
X169688095Y-112626190D01*
X169735714Y-112697619D01*
X169783333Y-112745238D01*
X169830952Y-112769048D01*
X169259524Y-112840476D02*
X169307143Y-112816667D01*
X169330952Y-112792857D01*
X169354762Y-112745238D01*
X169354762Y-112721429D01*
X169330952Y-112673810D01*
X169307143Y-112650000D01*
X169259524Y-112626190D01*
X169164286Y-112626190D01*
X169116667Y-112650000D01*
X169092857Y-112673810D01*
X169069048Y-112721429D01*
X169069048Y-112745238D01*
X169092857Y-112792857D01*
X169116667Y-112816667D01*
X169164286Y-112840476D01*
X169259524Y-112840476D01*
X169307143Y-112864286D01*
X169330952Y-112888095D01*
X169354762Y-112935714D01*
X169354762Y-113030952D01*
X169330952Y-113078571D01*
X169307143Y-113102381D01*
X169259524Y-113126190D01*
X169164286Y-113126190D01*
X169116667Y-113102381D01*
X169092857Y-113078571D01*
X169069048Y-113030952D01*
X169069048Y-112935714D01*
X169092857Y-112888095D01*
X169116667Y-112864286D01*
X169164286Y-112840476D01*
X162921428Y-113126190D02*
X163088095Y-112888095D01*
X163207142Y-113126190D02*
X163207142Y-112626190D01*
X163016666Y-112626190D01*
X162969047Y-112650000D01*
X162945238Y-112673810D01*
X162921428Y-112721429D01*
X162921428Y-112792857D01*
X162945238Y-112840476D01*
X162969047Y-112864286D01*
X163016666Y-112888095D01*
X163207142Y-112888095D01*
X162730952Y-112673810D02*
X162707142Y-112650000D01*
X162659523Y-112626190D01*
X162540476Y-112626190D01*
X162492857Y-112650000D01*
X162469047Y-112673810D01*
X162445238Y-112721429D01*
X162445238Y-112769048D01*
X162469047Y-112840476D01*
X162754761Y-113126190D01*
X162445238Y-113126190D01*
X162135714Y-112626190D02*
X162088095Y-112626190D01*
X162040476Y-112650000D01*
X162016667Y-112673810D01*
X161992857Y-112721429D01*
X161969048Y-112816667D01*
X161969048Y-112935714D01*
X161992857Y-113030952D01*
X162016667Y-113078571D01*
X162040476Y-113102381D01*
X162088095Y-113126190D01*
X162135714Y-113126190D01*
X162183333Y-113102381D01*
X162207143Y-113078571D01*
X162230952Y-113030952D01*
X162254762Y-112935714D01*
X162254762Y-112816667D01*
X162230952Y-112721429D01*
X162207143Y-112673810D01*
X162183333Y-112650000D01*
X162135714Y-112626190D01*
X152121428Y-75226190D02*
X152288095Y-74988095D01*
X152407142Y-75226190D02*
X152407142Y-74726190D01*
X152216666Y-74726190D01*
X152169047Y-74750000D01*
X152145238Y-74773810D01*
X152121428Y-74821429D01*
X152121428Y-74892857D01*
X152145238Y-74940476D01*
X152169047Y-74964286D01*
X152216666Y-74988095D01*
X152407142Y-74988095D01*
X151930952Y-74773810D02*
X151907142Y-74750000D01*
X151859523Y-74726190D01*
X151740476Y-74726190D01*
X151692857Y-74750000D01*
X151669047Y-74773810D01*
X151645238Y-74821429D01*
X151645238Y-74869048D01*
X151669047Y-74940476D01*
X151954761Y-75226190D01*
X151645238Y-75226190D01*
X151169048Y-75226190D02*
X151454762Y-75226190D01*
X151311905Y-75226190D02*
X151311905Y-74726190D01*
X151359524Y-74797619D01*
X151407143Y-74845238D01*
X151454762Y-74869048D01*
X159321428Y-75426190D02*
X159488095Y-75188095D01*
X159607142Y-75426190D02*
X159607142Y-74926190D01*
X159416666Y-74926190D01*
X159369047Y-74950000D01*
X159345238Y-74973810D01*
X159321428Y-75021429D01*
X159321428Y-75092857D01*
X159345238Y-75140476D01*
X159369047Y-75164286D01*
X159416666Y-75188095D01*
X159607142Y-75188095D01*
X159130952Y-74973810D02*
X159107142Y-74950000D01*
X159059523Y-74926190D01*
X158940476Y-74926190D01*
X158892857Y-74950000D01*
X158869047Y-74973810D01*
X158845238Y-75021429D01*
X158845238Y-75069048D01*
X158869047Y-75140476D01*
X159154761Y-75426190D01*
X158845238Y-75426190D01*
X158654762Y-74973810D02*
X158630952Y-74950000D01*
X158583333Y-74926190D01*
X158464286Y-74926190D01*
X158416667Y-74950000D01*
X158392857Y-74973810D01*
X158369048Y-75021429D01*
X158369048Y-75069048D01*
X158392857Y-75140476D01*
X158678571Y-75426190D01*
X158369048Y-75426190D01*
X166421428Y-78276190D02*
X166588095Y-78038095D01*
X166707142Y-78276190D02*
X166707142Y-77776190D01*
X166516666Y-77776190D01*
X166469047Y-77800000D01*
X166445238Y-77823810D01*
X166421428Y-77871429D01*
X166421428Y-77942857D01*
X166445238Y-77990476D01*
X166469047Y-78014286D01*
X166516666Y-78038095D01*
X166707142Y-78038095D01*
X166230952Y-77823810D02*
X166207142Y-77800000D01*
X166159523Y-77776190D01*
X166040476Y-77776190D01*
X165992857Y-77800000D01*
X165969047Y-77823810D01*
X165945238Y-77871429D01*
X165945238Y-77919048D01*
X165969047Y-77990476D01*
X166254761Y-78276190D01*
X165945238Y-78276190D01*
X165778571Y-77776190D02*
X165469048Y-77776190D01*
X165635714Y-77966667D01*
X165564286Y-77966667D01*
X165516667Y-77990476D01*
X165492857Y-78014286D01*
X165469048Y-78061905D01*
X165469048Y-78180952D01*
X165492857Y-78228571D01*
X165516667Y-78252381D01*
X165564286Y-78276190D01*
X165707143Y-78276190D01*
X165754762Y-78252381D01*
X165778571Y-78228571D01*
X173121428Y-75526190D02*
X173288095Y-75288095D01*
X173407142Y-75526190D02*
X173407142Y-75026190D01*
X173216666Y-75026190D01*
X173169047Y-75050000D01*
X173145238Y-75073810D01*
X173121428Y-75121429D01*
X173121428Y-75192857D01*
X173145238Y-75240476D01*
X173169047Y-75264286D01*
X173216666Y-75288095D01*
X173407142Y-75288095D01*
X172930952Y-75073810D02*
X172907142Y-75050000D01*
X172859523Y-75026190D01*
X172740476Y-75026190D01*
X172692857Y-75050000D01*
X172669047Y-75073810D01*
X172645238Y-75121429D01*
X172645238Y-75169048D01*
X172669047Y-75240476D01*
X172954761Y-75526190D01*
X172645238Y-75526190D01*
X172216667Y-75192857D02*
X172216667Y-75526190D01*
X172335714Y-75002381D02*
X172454762Y-75359524D01*
X172145238Y-75359524D01*
X145926190Y-76278572D02*
X145688095Y-76111905D01*
X145926190Y-75992858D02*
X145426190Y-75992858D01*
X145426190Y-76183334D01*
X145450000Y-76230953D01*
X145473810Y-76254762D01*
X145521429Y-76278572D01*
X145592857Y-76278572D01*
X145640476Y-76254762D01*
X145664286Y-76230953D01*
X145688095Y-76183334D01*
X145688095Y-75992858D01*
X145473810Y-76469048D02*
X145450000Y-76492858D01*
X145426190Y-76540477D01*
X145426190Y-76659524D01*
X145450000Y-76707143D01*
X145473810Y-76730953D01*
X145521429Y-76754762D01*
X145569048Y-76754762D01*
X145640476Y-76730953D01*
X145926190Y-76445239D01*
X145926190Y-76754762D01*
X145926190Y-76992857D02*
X145926190Y-77088095D01*
X145902381Y-77135714D01*
X145878571Y-77159524D01*
X145807143Y-77207143D01*
X145711905Y-77230952D01*
X145521429Y-77230952D01*
X145473810Y-77207143D01*
X145450000Y-77183333D01*
X145426190Y-77135714D01*
X145426190Y-77040476D01*
X145450000Y-76992857D01*
X145473810Y-76969048D01*
X145521429Y-76945238D01*
X145640476Y-76945238D01*
X145688095Y-76969048D01*
X145711905Y-76992857D01*
X145735714Y-77040476D01*
X145735714Y-77135714D01*
X145711905Y-77183333D01*
X145688095Y-77207143D01*
X145640476Y-77230952D01*
X156021428Y-75426190D02*
X156188095Y-75188095D01*
X156307142Y-75426190D02*
X156307142Y-74926190D01*
X156116666Y-74926190D01*
X156069047Y-74950000D01*
X156045238Y-74973810D01*
X156021428Y-75021429D01*
X156021428Y-75092857D01*
X156045238Y-75140476D01*
X156069047Y-75164286D01*
X156116666Y-75188095D01*
X156307142Y-75188095D01*
X155854761Y-74926190D02*
X155545238Y-74926190D01*
X155711904Y-75116667D01*
X155640476Y-75116667D01*
X155592857Y-75140476D01*
X155569047Y-75164286D01*
X155545238Y-75211905D01*
X155545238Y-75330952D01*
X155569047Y-75378571D01*
X155592857Y-75402381D01*
X155640476Y-75426190D01*
X155783333Y-75426190D01*
X155830952Y-75402381D01*
X155854761Y-75378571D01*
X155235714Y-74926190D02*
X155188095Y-74926190D01*
X155140476Y-74950000D01*
X155116667Y-74973810D01*
X155092857Y-75021429D01*
X155069048Y-75116667D01*
X155069048Y-75235714D01*
X155092857Y-75330952D01*
X155116667Y-75378571D01*
X155140476Y-75402381D01*
X155188095Y-75426190D01*
X155235714Y-75426190D01*
X155283333Y-75402381D01*
X155307143Y-75378571D01*
X155330952Y-75330952D01*
X155354762Y-75235714D01*
X155354762Y-75116667D01*
X155330952Y-75021429D01*
X155307143Y-74973810D01*
X155283333Y-74950000D01*
X155235714Y-74926190D01*
X163121428Y-75526190D02*
X163288095Y-75288095D01*
X163407142Y-75526190D02*
X163407142Y-75026190D01*
X163216666Y-75026190D01*
X163169047Y-75050000D01*
X163145238Y-75073810D01*
X163121428Y-75121429D01*
X163121428Y-75192857D01*
X163145238Y-75240476D01*
X163169047Y-75264286D01*
X163216666Y-75288095D01*
X163407142Y-75288095D01*
X162954761Y-75026190D02*
X162645238Y-75026190D01*
X162811904Y-75216667D01*
X162740476Y-75216667D01*
X162692857Y-75240476D01*
X162669047Y-75264286D01*
X162645238Y-75311905D01*
X162645238Y-75430952D01*
X162669047Y-75478571D01*
X162692857Y-75502381D01*
X162740476Y-75526190D01*
X162883333Y-75526190D01*
X162930952Y-75502381D01*
X162954761Y-75478571D01*
X162169048Y-75526190D02*
X162454762Y-75526190D01*
X162311905Y-75526190D02*
X162311905Y-75026190D01*
X162359524Y-75097619D01*
X162407143Y-75145238D01*
X162454762Y-75169048D01*
X169621428Y-75526190D02*
X169788095Y-75288095D01*
X169907142Y-75526190D02*
X169907142Y-75026190D01*
X169716666Y-75026190D01*
X169669047Y-75050000D01*
X169645238Y-75073810D01*
X169621428Y-75121429D01*
X169621428Y-75192857D01*
X169645238Y-75240476D01*
X169669047Y-75264286D01*
X169716666Y-75288095D01*
X169907142Y-75288095D01*
X169454761Y-75026190D02*
X169145238Y-75026190D01*
X169311904Y-75216667D01*
X169240476Y-75216667D01*
X169192857Y-75240476D01*
X169169047Y-75264286D01*
X169145238Y-75311905D01*
X169145238Y-75430952D01*
X169169047Y-75478571D01*
X169192857Y-75502381D01*
X169240476Y-75526190D01*
X169383333Y-75526190D01*
X169430952Y-75502381D01*
X169454761Y-75478571D01*
X168954762Y-75073810D02*
X168930952Y-75050000D01*
X168883333Y-75026190D01*
X168764286Y-75026190D01*
X168716667Y-75050000D01*
X168692857Y-75073810D01*
X168669048Y-75121429D01*
X168669048Y-75169048D01*
X168692857Y-75240476D01*
X168978571Y-75526190D01*
X168669048Y-75526190D01*
M02*
