G04 #@! TF.FileFunction,Drawing*
%FSLAX46Y46*%
G04 Gerber Fmt 4.6, Leading zero omitted, Abs format (unit mm)*
G04 Created by KiCad (PCBNEW 4.0.4-stable) date 05/31/17 10:55:34*
%MOMM*%
%LPD*%
G01*
G04 APERTURE LIST*
%ADD10C,0.100000*%
%ADD11C,0.150000*%
%ADD12C,0.300000*%
G04 APERTURE END LIST*
D10*
D11*
X60238096Y-74852381D02*
X59666667Y-74852381D01*
X59952381Y-74852381D02*
X59952381Y-73852381D01*
X59857143Y-73995238D01*
X59761905Y-74090476D01*
X59666667Y-74138095D01*
X61190477Y-74852381D02*
X60619048Y-74852381D01*
X60904762Y-74852381D02*
X60904762Y-73852381D01*
X60809524Y-73995238D01*
X60714286Y-74090476D01*
X60619048Y-74138095D01*
X62142858Y-74852381D02*
X61571429Y-74852381D01*
X61857143Y-74852381D02*
X61857143Y-73852381D01*
X61761905Y-73995238D01*
X61666667Y-74090476D01*
X61571429Y-74138095D01*
X62571429Y-74757143D02*
X62619048Y-74804762D01*
X62571429Y-74852381D01*
X62523810Y-74804762D01*
X62571429Y-74757143D01*
X62571429Y-74852381D01*
X63476191Y-73852381D02*
X63285714Y-73852381D01*
X63190476Y-73900000D01*
X63142857Y-73947619D01*
X63047619Y-74090476D01*
X63000000Y-74280952D01*
X63000000Y-74661905D01*
X63047619Y-74757143D01*
X63095238Y-74804762D01*
X63190476Y-74852381D01*
X63380953Y-74852381D01*
X63476191Y-74804762D01*
X63523810Y-74757143D01*
X63571429Y-74661905D01*
X63571429Y-74423810D01*
X63523810Y-74328571D01*
X63476191Y-74280952D01*
X63380953Y-74233333D01*
X63190476Y-74233333D01*
X63095238Y-74280952D01*
X63047619Y-74328571D01*
X63000000Y-74423810D01*
X64666667Y-73852381D02*
X65333334Y-74852381D01*
X65333334Y-73852381D02*
X64666667Y-74852381D01*
X66952382Y-73852381D02*
X66476191Y-73852381D01*
X66428572Y-74328571D01*
X66476191Y-74280952D01*
X66571429Y-74233333D01*
X66809525Y-74233333D01*
X66904763Y-74280952D01*
X66952382Y-74328571D01*
X67000001Y-74423810D01*
X67000001Y-74661905D01*
X66952382Y-74757143D01*
X66904763Y-74804762D01*
X66809525Y-74852381D01*
X66571429Y-74852381D01*
X66476191Y-74804762D01*
X66428572Y-74757143D01*
X67333334Y-73852381D02*
X67952382Y-73852381D01*
X67619048Y-74233333D01*
X67761906Y-74233333D01*
X67857144Y-74280952D01*
X67904763Y-74328571D01*
X67952382Y-74423810D01*
X67952382Y-74661905D01*
X67904763Y-74757143D01*
X67857144Y-74804762D01*
X67761906Y-74852381D01*
X67476191Y-74852381D01*
X67380953Y-74804762D01*
X67333334Y-74757143D01*
X68380953Y-74757143D02*
X68428572Y-74804762D01*
X68380953Y-74852381D01*
X68333334Y-74804762D01*
X68380953Y-74757143D01*
X68380953Y-74852381D01*
X68761905Y-73852381D02*
X69380953Y-73852381D01*
X69047619Y-74233333D01*
X69190477Y-74233333D01*
X69285715Y-74280952D01*
X69333334Y-74328571D01*
X69380953Y-74423810D01*
X69380953Y-74661905D01*
X69333334Y-74757143D01*
X69285715Y-74804762D01*
X69190477Y-74852381D01*
X68904762Y-74852381D01*
X68809524Y-74804762D01*
X68761905Y-74757143D01*
X70238096Y-74185714D02*
X70238096Y-74852381D01*
X70000000Y-73804762D02*
X69761905Y-74519048D01*
X70380953Y-74519048D01*
D12*
X86853160Y-98917185D02*
X86849147Y-99631460D01*
X87563020Y-99706900D01*
X87491995Y-99635071D01*
X87421369Y-99491815D01*
X87423376Y-99134678D01*
X87495606Y-98992224D01*
X87567434Y-98921198D01*
X87710690Y-98850573D01*
X88067828Y-98852580D01*
X88210281Y-98924809D01*
X88281308Y-98996638D01*
X88351932Y-99139894D01*
X88349926Y-99497032D01*
X88277696Y-99639485D01*
X88205867Y-99710512D01*
X86856370Y-98345766D02*
X86861586Y-97417210D01*
X87430198Y-97920412D01*
X87431401Y-97706129D01*
X87503632Y-97563676D01*
X87575460Y-97492649D01*
X87718716Y-97422025D01*
X88075853Y-97424031D01*
X88218307Y-97496261D01*
X88289333Y-97568090D01*
X88359958Y-97711346D01*
X88357550Y-98139911D01*
X88285321Y-98282365D01*
X88213491Y-98353390D01*
X88222320Y-96781987D02*
X88294149Y-96710961D01*
X88365174Y-96782790D01*
X88293346Y-96853816D01*
X88222320Y-96781987D01*
X88365174Y-96782790D01*
X86868408Y-96202943D02*
X86873625Y-95274386D01*
X87442236Y-95777589D01*
X87443440Y-95563306D01*
X87515670Y-95420853D01*
X87587498Y-95349826D01*
X87730754Y-95279202D01*
X88087892Y-95281208D01*
X88230345Y-95353438D01*
X88301372Y-95425267D01*
X88371996Y-95568523D01*
X88369588Y-95997088D01*
X88297359Y-96139541D01*
X88225530Y-96210567D01*
X87380840Y-93991502D02*
X88380824Y-93997120D01*
X86807415Y-94345429D02*
X87876819Y-94708585D01*
X87882036Y-93780028D01*
X88391659Y-92068579D02*
X87391674Y-92062961D01*
X87534530Y-92063764D02*
X87463504Y-91991935D01*
X87392878Y-91848678D01*
X87394082Y-91634397D01*
X87466312Y-91491943D01*
X87609569Y-91421318D01*
X88395270Y-91425732D01*
X87609569Y-91421318D02*
X87467115Y-91349088D01*
X87396490Y-91205832D01*
X87397694Y-90991550D01*
X87469924Y-90849096D01*
X87613180Y-90778471D01*
X88398882Y-90782885D01*
X88402894Y-90068611D02*
X87402910Y-90062993D01*
X87545766Y-90063795D02*
X87474739Y-89991967D01*
X87404114Y-89848710D01*
X87405318Y-89634428D01*
X87477548Y-89491975D01*
X87620804Y-89421350D01*
X88406506Y-89425764D01*
X87620804Y-89421350D02*
X87478351Y-89349119D01*
X87407726Y-89205863D01*
X87408929Y-88991582D01*
X87481160Y-88849127D01*
X87624416Y-88778503D01*
X88410117Y-88782917D01*
X88901039Y-120915174D02*
X89201039Y-67515174D01*
X104000000Y-121000000D02*
X86201082Y-120900006D01*
X104300000Y-67600000D02*
X86501082Y-67500006D01*
X89201039Y-67515174D02*
X89781122Y-68644954D01*
X89201039Y-67515174D02*
X88608299Y-68638366D01*
X88901039Y-120915174D02*
X89493779Y-119791982D01*
X88901039Y-120915174D02*
X88320956Y-119785394D01*
X155295211Y-134375746D02*
X154438069Y-134374979D01*
X154866641Y-134375363D02*
X154867983Y-132875363D01*
X154724935Y-133089521D01*
X154581949Y-133232250D01*
X154439028Y-133303551D01*
X156723782Y-134377025D02*
X155866639Y-134376258D01*
X156295211Y-134376641D02*
X156296554Y-132876642D01*
X156153505Y-133090800D01*
X156010519Y-133233529D01*
X155867598Y-133304830D01*
X158152352Y-134378304D02*
X157295210Y-134377537D01*
X157723781Y-134377920D02*
X157725124Y-132877921D01*
X157582075Y-133092079D01*
X157439090Y-133234808D01*
X157296169Y-133306109D01*
X158795337Y-134236023D02*
X158866701Y-134307516D01*
X158795209Y-134378880D01*
X158723844Y-134307388D01*
X158795337Y-134236023D01*
X158795209Y-134378880D01*
X160153694Y-132880095D02*
X159867980Y-132879839D01*
X159725060Y-132951140D01*
X159653567Y-133022505D01*
X159510518Y-133236663D01*
X159438833Y-133522313D01*
X159438321Y-134093741D01*
X159509623Y-134236662D01*
X159580987Y-134308155D01*
X159723781Y-134379711D01*
X160009494Y-134379967D01*
X160152415Y-134308667D01*
X160223908Y-134237302D01*
X160295464Y-134094509D01*
X160295784Y-133737366D01*
X160224484Y-133594445D01*
X160153119Y-133522953D01*
X160010326Y-133451396D01*
X159724612Y-133451140D01*
X159581690Y-133522441D01*
X159510198Y-133593805D01*
X159438641Y-133736598D01*
X162080922Y-134381821D02*
X162081817Y-133381822D01*
X162081689Y-133524679D02*
X162153181Y-133453314D01*
X162296103Y-133382013D01*
X162510388Y-133382205D01*
X162653181Y-133453762D01*
X162724482Y-133596683D01*
X162723778Y-134382397D01*
X162724482Y-133596683D02*
X162796039Y-133453890D01*
X162938960Y-133382589D01*
X163153244Y-133382781D01*
X163296038Y-133454338D01*
X163367339Y-133597258D01*
X163366635Y-134382972D01*
X164080921Y-134383612D02*
X164081816Y-133383612D01*
X164081688Y-133526470D02*
X164153180Y-133455105D01*
X164296102Y-133383804D01*
X164510387Y-133383996D01*
X164653180Y-133455553D01*
X164724481Y-133598473D01*
X164723778Y-134384187D01*
X164724481Y-133598473D02*
X164796038Y-133455680D01*
X164938959Y-133384379D01*
X165153244Y-133384571D01*
X165296038Y-133456128D01*
X165367338Y-133599049D01*
X165366634Y-134384763D01*
X104089882Y-132301333D02*
X215789882Y-132401333D01*
X104100000Y-121000000D02*
X104087465Y-135001332D01*
X215800000Y-121100000D02*
X215787465Y-135101332D01*
X215789882Y-132401333D02*
X214662854Y-132986745D01*
X215789882Y-132401333D02*
X214663904Y-131813904D01*
X104089882Y-132301333D02*
X105215860Y-132888762D01*
X104089882Y-132301333D02*
X105216910Y-131715921D01*
D10*
X41000000Y-70200000D02*
X41000000Y-113200000D01*
X41000000Y-111200000D02*
X71000000Y-111200000D01*
X71000000Y-70200000D02*
X71000000Y-113200000D01*
X41000000Y-73200000D02*
X71000000Y-73200000D01*
X41000000Y-70200000D02*
X71000000Y-70200000D01*
X41000000Y-75200000D02*
X71000000Y-75200000D01*
X41000000Y-77200000D02*
X71000000Y-77200000D01*
X41000000Y-79200000D02*
X71000000Y-79200000D01*
X41000000Y-83200000D02*
X71000000Y-83200000D01*
X41000000Y-81200000D02*
X71000000Y-81200000D01*
X41000000Y-85200000D02*
X71000000Y-85200000D01*
X41000000Y-87200000D02*
X71000000Y-87200000D01*
X41000000Y-89200000D02*
X71000000Y-89200000D01*
X41000000Y-91200000D02*
X71000000Y-91200000D01*
X41000000Y-93200000D02*
X71000000Y-93200000D01*
X41000000Y-95200000D02*
X71000000Y-95200000D01*
X41000000Y-97200000D02*
X71000000Y-97200000D01*
X41000000Y-99200000D02*
X71000000Y-99200000D01*
X41000000Y-101200000D02*
X71000000Y-101200000D01*
X41000000Y-103200000D02*
X71000000Y-103200000D01*
X41000000Y-105200000D02*
X71000000Y-105200000D01*
X41000000Y-107200000D02*
X71000000Y-107200000D01*
X41000000Y-109200000D02*
X71000000Y-109200000D01*
X59000000Y-113200000D02*
X59000000Y-73200000D01*
X41000000Y-113200000D02*
X71000000Y-113200000D01*
D11*
X41428571Y-74652381D02*
X41428571Y-73652381D01*
X41809524Y-73652381D01*
X41904762Y-73700000D01*
X41952381Y-73747619D01*
X42000000Y-73842857D01*
X42000000Y-73985714D01*
X41952381Y-74080952D01*
X41904762Y-74128571D01*
X41809524Y-74176190D01*
X41428571Y-74176190D01*
X43000000Y-74557143D02*
X42952381Y-74604762D01*
X42809524Y-74652381D01*
X42714286Y-74652381D01*
X42571428Y-74604762D01*
X42476190Y-74509524D01*
X42428571Y-74414286D01*
X42380952Y-74223810D01*
X42380952Y-74080952D01*
X42428571Y-73890476D01*
X42476190Y-73795238D01*
X42571428Y-73700000D01*
X42714286Y-73652381D01*
X42809524Y-73652381D01*
X42952381Y-73700000D01*
X43000000Y-73747619D01*
X43761905Y-74128571D02*
X43904762Y-74176190D01*
X43952381Y-74223810D01*
X44000000Y-74319048D01*
X44000000Y-74461905D01*
X43952381Y-74557143D01*
X43904762Y-74604762D01*
X43809524Y-74652381D01*
X43428571Y-74652381D01*
X43428571Y-73652381D01*
X43761905Y-73652381D01*
X43857143Y-73700000D01*
X43904762Y-73747619D01*
X43952381Y-73842857D01*
X43952381Y-73938095D01*
X43904762Y-74033333D01*
X43857143Y-74080952D01*
X43761905Y-74128571D01*
X43428571Y-74128571D01*
X45142857Y-74604762D02*
X45285714Y-74652381D01*
X45523810Y-74652381D01*
X45619048Y-74604762D01*
X45666667Y-74557143D01*
X45714286Y-74461905D01*
X45714286Y-74366667D01*
X45666667Y-74271429D01*
X45619048Y-74223810D01*
X45523810Y-74176190D01*
X45333333Y-74128571D01*
X45238095Y-74080952D01*
X45190476Y-74033333D01*
X45142857Y-73938095D01*
X45142857Y-73842857D01*
X45190476Y-73747619D01*
X45238095Y-73700000D01*
X45333333Y-73652381D01*
X45571429Y-73652381D01*
X45714286Y-73700000D01*
X46142857Y-74652381D02*
X46142857Y-73985714D01*
X46142857Y-73652381D02*
X46095238Y-73700000D01*
X46142857Y-73747619D01*
X46190476Y-73700000D01*
X46142857Y-73652381D01*
X46142857Y-73747619D01*
X46523809Y-73985714D02*
X47047619Y-73985714D01*
X46523809Y-74652381D01*
X47047619Y-74652381D01*
X47809524Y-74604762D02*
X47714286Y-74652381D01*
X47523809Y-74652381D01*
X47428571Y-74604762D01*
X47380952Y-74509524D01*
X47380952Y-74128571D01*
X47428571Y-74033333D01*
X47523809Y-73985714D01*
X47714286Y-73985714D01*
X47809524Y-74033333D01*
X47857143Y-74128571D01*
X47857143Y-74223810D01*
X47380952Y-74319048D01*
X49333334Y-75033333D02*
X49285714Y-74985714D01*
X49190476Y-74842857D01*
X49142857Y-74747619D01*
X49095238Y-74604762D01*
X49047619Y-74366667D01*
X49047619Y-74176190D01*
X49095238Y-73938095D01*
X49142857Y-73795238D01*
X49190476Y-73700000D01*
X49285714Y-73557143D01*
X49333334Y-73509524D01*
X49714286Y-74652381D02*
X49714286Y-73985714D01*
X49714286Y-74080952D02*
X49761905Y-74033333D01*
X49857143Y-73985714D01*
X50000001Y-73985714D01*
X50095239Y-74033333D01*
X50142858Y-74128571D01*
X50142858Y-74652381D01*
X50142858Y-74128571D02*
X50190477Y-74033333D01*
X50285715Y-73985714D01*
X50428572Y-73985714D01*
X50523810Y-74033333D01*
X50571429Y-74128571D01*
X50571429Y-74652381D01*
X51047619Y-74652381D02*
X51047619Y-73985714D01*
X51047619Y-74080952D02*
X51095238Y-74033333D01*
X51190476Y-73985714D01*
X51333334Y-73985714D01*
X51428572Y-74033333D01*
X51476191Y-74128571D01*
X51476191Y-74652381D01*
X51476191Y-74128571D02*
X51523810Y-74033333D01*
X51619048Y-73985714D01*
X51761905Y-73985714D01*
X51857143Y-74033333D01*
X51904762Y-74128571D01*
X51904762Y-74652381D01*
X52285714Y-75033333D02*
X52333333Y-74985714D01*
X52428571Y-74842857D01*
X52476190Y-74747619D01*
X52523809Y-74604762D01*
X52571428Y-74366667D01*
X52571428Y-74176190D01*
X52523809Y-73938095D01*
X52476190Y-73795238D01*
X52428571Y-73700000D01*
X52333333Y-73557143D01*
X52285714Y-73509524D01*
X42114287Y-72114286D02*
X41714287Y-72114286D01*
X41714287Y-72742857D02*
X41714287Y-71542857D01*
X42285716Y-71542857D01*
X43257144Y-72742857D02*
X43257144Y-72114286D01*
X43200001Y-72000000D01*
X43085715Y-71942857D01*
X42857144Y-71942857D01*
X42742858Y-72000000D01*
X43257144Y-72685714D02*
X43142858Y-72742857D01*
X42857144Y-72742857D01*
X42742858Y-72685714D01*
X42685715Y-72571429D01*
X42685715Y-72457143D01*
X42742858Y-72342857D01*
X42857144Y-72285714D01*
X43142858Y-72285714D01*
X43257144Y-72228571D01*
X43828572Y-72742857D02*
X43828572Y-71542857D01*
X43828572Y-72000000D02*
X43942858Y-71942857D01*
X44171429Y-71942857D01*
X44285715Y-72000000D01*
X44342858Y-72057143D01*
X44400001Y-72171429D01*
X44400001Y-72514286D01*
X44342858Y-72628571D01*
X44285715Y-72685714D01*
X44171429Y-72742857D01*
X43942858Y-72742857D01*
X43828572Y-72685714D01*
X44914286Y-72742857D02*
X44914286Y-71942857D01*
X44914286Y-72171429D02*
X44971429Y-72057143D01*
X45028572Y-72000000D01*
X45142858Y-71942857D01*
X45257143Y-71942857D01*
X45657143Y-72742857D02*
X45657143Y-71942857D01*
X45657143Y-71542857D02*
X45600000Y-71600000D01*
X45657143Y-71657143D01*
X45714286Y-71600000D01*
X45657143Y-71542857D01*
X45657143Y-71657143D01*
X46742858Y-72685714D02*
X46628572Y-72742857D01*
X46400001Y-72742857D01*
X46285715Y-72685714D01*
X46228572Y-72628571D01*
X46171429Y-72514286D01*
X46171429Y-72171429D01*
X46228572Y-72057143D01*
X46285715Y-72000000D01*
X46400001Y-71942857D01*
X46628572Y-71942857D01*
X46742858Y-72000000D01*
X47771429Y-72742857D02*
X47771429Y-72114286D01*
X47714286Y-72000000D01*
X47600000Y-71942857D01*
X47371429Y-71942857D01*
X47257143Y-72000000D01*
X47771429Y-72685714D02*
X47657143Y-72742857D01*
X47371429Y-72742857D01*
X47257143Y-72685714D01*
X47200000Y-72571429D01*
X47200000Y-72457143D01*
X47257143Y-72342857D01*
X47371429Y-72285714D01*
X47657143Y-72285714D01*
X47771429Y-72228571D01*
X48171429Y-71942857D02*
X48628572Y-71942857D01*
X48342857Y-71542857D02*
X48342857Y-72571429D01*
X48400000Y-72685714D01*
X48514286Y-72742857D01*
X48628572Y-72742857D01*
X49028571Y-72742857D02*
X49028571Y-71942857D01*
X49028571Y-71542857D02*
X48971428Y-71600000D01*
X49028571Y-71657143D01*
X49085714Y-71600000D01*
X49028571Y-71542857D01*
X49028571Y-71657143D01*
X49771429Y-72742857D02*
X49657143Y-72685714D01*
X49600000Y-72628571D01*
X49542857Y-72514286D01*
X49542857Y-72171429D01*
X49600000Y-72057143D01*
X49657143Y-72000000D01*
X49771429Y-71942857D01*
X49942857Y-71942857D01*
X50057143Y-72000000D01*
X50114286Y-72057143D01*
X50171429Y-72171429D01*
X50171429Y-72514286D01*
X50114286Y-72628571D01*
X50057143Y-72685714D01*
X49942857Y-72742857D01*
X49771429Y-72742857D01*
X50685714Y-71942857D02*
X50685714Y-72742857D01*
X50685714Y-72057143D02*
X50742857Y-72000000D01*
X50857143Y-71942857D01*
X51028571Y-71942857D01*
X51142857Y-72000000D01*
X51200000Y-72114286D01*
X51200000Y-72742857D01*
X52685714Y-72742857D02*
X52685714Y-71542857D01*
X52971429Y-71542857D01*
X53142857Y-71600000D01*
X53257143Y-71714286D01*
X53314286Y-71828571D01*
X53371429Y-72057143D01*
X53371429Y-72228571D01*
X53314286Y-72457143D01*
X53257143Y-72571429D01*
X53142857Y-72685714D01*
X52971429Y-72742857D01*
X52685714Y-72742857D01*
X54342857Y-72685714D02*
X54228571Y-72742857D01*
X54000000Y-72742857D01*
X53885714Y-72685714D01*
X53828571Y-72571429D01*
X53828571Y-72114286D01*
X53885714Y-72000000D01*
X54000000Y-71942857D01*
X54228571Y-71942857D01*
X54342857Y-72000000D01*
X54400000Y-72114286D01*
X54400000Y-72228571D01*
X53828571Y-72342857D01*
X54742857Y-71942857D02*
X55200000Y-71942857D01*
X54914285Y-71542857D02*
X54914285Y-72571429D01*
X54971428Y-72685714D01*
X55085714Y-72742857D01*
X55200000Y-72742857D01*
X56114285Y-72742857D02*
X56114285Y-72114286D01*
X56057142Y-72000000D01*
X55942856Y-71942857D01*
X55714285Y-71942857D01*
X55599999Y-72000000D01*
X56114285Y-72685714D02*
X55999999Y-72742857D01*
X55714285Y-72742857D01*
X55599999Y-72685714D01*
X55542856Y-72571429D01*
X55542856Y-72457143D01*
X55599999Y-72342857D01*
X55714285Y-72285714D01*
X55999999Y-72285714D01*
X56114285Y-72228571D01*
X56685713Y-72742857D02*
X56685713Y-71942857D01*
X56685713Y-71542857D02*
X56628570Y-71600000D01*
X56685713Y-71657143D01*
X56742856Y-71600000D01*
X56685713Y-71542857D01*
X56685713Y-71657143D01*
X57428571Y-72742857D02*
X57314285Y-72685714D01*
X57257142Y-72571429D01*
X57257142Y-71542857D01*
X57828570Y-72685714D02*
X57942856Y-72742857D01*
X58171428Y-72742857D01*
X58285713Y-72685714D01*
X58342856Y-72571429D01*
X58342856Y-72514286D01*
X58285713Y-72400000D01*
X58171428Y-72342857D01*
X57999999Y-72342857D01*
X57885713Y-72285714D01*
X57828570Y-72171429D01*
X57828570Y-72114286D01*
X57885713Y-72000000D01*
X57999999Y-71942857D01*
X58171428Y-71942857D01*
X58285713Y-72000000D01*
X41680951Y-76652381D02*
X41680951Y-75652381D01*
X42252380Y-76652381D01*
X42252380Y-75652381D01*
X42871427Y-76652381D02*
X42776189Y-76604762D01*
X42728570Y-76557143D01*
X42680951Y-76461905D01*
X42680951Y-76176190D01*
X42728570Y-76080952D01*
X42776189Y-76033333D01*
X42871427Y-75985714D01*
X43014285Y-75985714D01*
X43109523Y-76033333D01*
X43157142Y-76080952D01*
X43204761Y-76176190D01*
X43204761Y-76461905D01*
X43157142Y-76557143D01*
X43109523Y-76604762D01*
X43014285Y-76652381D01*
X42871427Y-76652381D01*
X44538094Y-76652381D02*
X44442856Y-76604762D01*
X44395237Y-76557143D01*
X44347618Y-76461905D01*
X44347618Y-76176190D01*
X44395237Y-76080952D01*
X44442856Y-76033333D01*
X44538094Y-75985714D01*
X44680952Y-75985714D01*
X44776190Y-76033333D01*
X44823809Y-76080952D01*
X44871428Y-76176190D01*
X44871428Y-76461905D01*
X44823809Y-76557143D01*
X44776190Y-76604762D01*
X44680952Y-76652381D01*
X44538094Y-76652381D01*
X45157142Y-75985714D02*
X45538094Y-75985714D01*
X45299999Y-76652381D02*
X45299999Y-75795238D01*
X45347618Y-75700000D01*
X45442856Y-75652381D01*
X45538094Y-75652381D01*
X47109524Y-76652381D02*
X46633333Y-76652381D01*
X46633333Y-75652381D01*
X47871429Y-76652381D02*
X47871429Y-76128571D01*
X47823810Y-76033333D01*
X47728572Y-75985714D01*
X47538095Y-75985714D01*
X47442857Y-76033333D01*
X47871429Y-76604762D02*
X47776191Y-76652381D01*
X47538095Y-76652381D01*
X47442857Y-76604762D01*
X47395238Y-76509524D01*
X47395238Y-76414286D01*
X47442857Y-76319048D01*
X47538095Y-76271429D01*
X47776191Y-76271429D01*
X47871429Y-76223810D01*
X48252381Y-75985714D02*
X48490476Y-76652381D01*
X48728572Y-75985714D02*
X48490476Y-76652381D01*
X48395238Y-76890476D01*
X48347619Y-76938095D01*
X48252381Y-76985714D01*
X49490477Y-76604762D02*
X49395239Y-76652381D01*
X49204762Y-76652381D01*
X49109524Y-76604762D01*
X49061905Y-76509524D01*
X49061905Y-76128571D01*
X49109524Y-76033333D01*
X49204762Y-75985714D01*
X49395239Y-75985714D01*
X49490477Y-76033333D01*
X49538096Y-76128571D01*
X49538096Y-76223810D01*
X49061905Y-76319048D01*
X49966667Y-76652381D02*
X49966667Y-75985714D01*
X49966667Y-76176190D02*
X50014286Y-76080952D01*
X50061905Y-76033333D01*
X50157143Y-75985714D01*
X50252382Y-75985714D01*
X50538096Y-76604762D02*
X50633334Y-76652381D01*
X50823810Y-76652381D01*
X50919049Y-76604762D01*
X50966668Y-76509524D01*
X50966668Y-76461905D01*
X50919049Y-76366667D01*
X50823810Y-76319048D01*
X50680953Y-76319048D01*
X50585715Y-76271429D01*
X50538096Y-76176190D01*
X50538096Y-76128571D01*
X50585715Y-76033333D01*
X50680953Y-75985714D01*
X50823810Y-75985714D01*
X50919049Y-76033333D01*
X41690476Y-78652381D02*
X41690476Y-77652381D01*
X42023810Y-78366667D01*
X42357143Y-77652381D01*
X42357143Y-78652381D01*
X42833333Y-78652381D02*
X42833333Y-77985714D01*
X42833333Y-77652381D02*
X42785714Y-77700000D01*
X42833333Y-77747619D01*
X42880952Y-77700000D01*
X42833333Y-77652381D01*
X42833333Y-77747619D01*
X43309523Y-77985714D02*
X43309523Y-78652381D01*
X43309523Y-78080952D02*
X43357142Y-78033333D01*
X43452380Y-77985714D01*
X43595238Y-77985714D01*
X43690476Y-78033333D01*
X43738095Y-78128571D01*
X43738095Y-78652381D01*
X45452381Y-78652381D02*
X44976190Y-78652381D01*
X44976190Y-77652381D01*
X45785714Y-78652381D02*
X45785714Y-77985714D01*
X45785714Y-77652381D02*
X45738095Y-77700000D01*
X45785714Y-77747619D01*
X45833333Y-77700000D01*
X45785714Y-77652381D01*
X45785714Y-77747619D01*
X46261904Y-77985714D02*
X46261904Y-78652381D01*
X46261904Y-78080952D02*
X46309523Y-78033333D01*
X46404761Y-77985714D01*
X46547619Y-77985714D01*
X46642857Y-78033333D01*
X46690476Y-78128571D01*
X46690476Y-78652381D01*
X47547619Y-78604762D02*
X47452381Y-78652381D01*
X47261904Y-78652381D01*
X47166666Y-78604762D01*
X47119047Y-78509524D01*
X47119047Y-78128571D01*
X47166666Y-78033333D01*
X47261904Y-77985714D01*
X47452381Y-77985714D01*
X47547619Y-78033333D01*
X47595238Y-78128571D01*
X47595238Y-78223810D01*
X47119047Y-78319048D01*
X48690476Y-77652381D02*
X48928571Y-78652381D01*
X49119048Y-77938095D01*
X49309524Y-78652381D01*
X49547619Y-77652381D01*
X49928571Y-78652381D02*
X49928571Y-77985714D01*
X49928571Y-77652381D02*
X49880952Y-77700000D01*
X49928571Y-77747619D01*
X49976190Y-77700000D01*
X49928571Y-77652381D01*
X49928571Y-77747619D01*
X50833333Y-78652381D02*
X50833333Y-77652381D01*
X50833333Y-78604762D02*
X50738095Y-78652381D01*
X50547618Y-78652381D01*
X50452380Y-78604762D01*
X50404761Y-78557143D01*
X50357142Y-78461905D01*
X50357142Y-78176190D01*
X50404761Y-78080952D01*
X50452380Y-78033333D01*
X50547618Y-77985714D01*
X50738095Y-77985714D01*
X50833333Y-78033333D01*
X51166666Y-77985714D02*
X51547618Y-77985714D01*
X51309523Y-77652381D02*
X51309523Y-78509524D01*
X51357142Y-78604762D01*
X51452380Y-78652381D01*
X51547618Y-78652381D01*
X51880952Y-78652381D02*
X51880952Y-77652381D01*
X52309524Y-78652381D02*
X52309524Y-78128571D01*
X52261905Y-78033333D01*
X52166667Y-77985714D01*
X52023809Y-77985714D01*
X51928571Y-78033333D01*
X51880952Y-78080952D01*
X41742857Y-80652381D02*
X41742857Y-79652381D01*
X42076191Y-80366667D01*
X42409524Y-79652381D01*
X42409524Y-80652381D01*
X42885714Y-80652381D02*
X42885714Y-79985714D01*
X42885714Y-79652381D02*
X42838095Y-79700000D01*
X42885714Y-79747619D01*
X42933333Y-79700000D01*
X42885714Y-79652381D01*
X42885714Y-79747619D01*
X43361904Y-79985714D02*
X43361904Y-80652381D01*
X43361904Y-80080952D02*
X43409523Y-80033333D01*
X43504761Y-79985714D01*
X43647619Y-79985714D01*
X43742857Y-80033333D01*
X43790476Y-80128571D01*
X43790476Y-80652381D01*
X44980952Y-80604762D02*
X45123809Y-80652381D01*
X45361905Y-80652381D01*
X45457143Y-80604762D01*
X45504762Y-80557143D01*
X45552381Y-80461905D01*
X45552381Y-80366667D01*
X45504762Y-80271429D01*
X45457143Y-80223810D01*
X45361905Y-80176190D01*
X45171428Y-80128571D01*
X45076190Y-80080952D01*
X45028571Y-80033333D01*
X44980952Y-79938095D01*
X44980952Y-79842857D01*
X45028571Y-79747619D01*
X45076190Y-79700000D01*
X45171428Y-79652381D01*
X45409524Y-79652381D01*
X45552381Y-79700000D01*
X45980952Y-79985714D02*
X45980952Y-80985714D01*
X45980952Y-80033333D02*
X46076190Y-79985714D01*
X46266667Y-79985714D01*
X46361905Y-80033333D01*
X46409524Y-80080952D01*
X46457143Y-80176190D01*
X46457143Y-80461905D01*
X46409524Y-80557143D01*
X46361905Y-80604762D01*
X46266667Y-80652381D01*
X46076190Y-80652381D01*
X45980952Y-80604762D01*
X47314286Y-80652381D02*
X47314286Y-80128571D01*
X47266667Y-80033333D01*
X47171429Y-79985714D01*
X46980952Y-79985714D01*
X46885714Y-80033333D01*
X47314286Y-80604762D02*
X47219048Y-80652381D01*
X46980952Y-80652381D01*
X46885714Y-80604762D01*
X46838095Y-80509524D01*
X46838095Y-80414286D01*
X46885714Y-80319048D01*
X46980952Y-80271429D01*
X47219048Y-80271429D01*
X47314286Y-80223810D01*
X48219048Y-80604762D02*
X48123810Y-80652381D01*
X47933333Y-80652381D01*
X47838095Y-80604762D01*
X47790476Y-80557143D01*
X47742857Y-80461905D01*
X47742857Y-80176190D01*
X47790476Y-80080952D01*
X47838095Y-80033333D01*
X47933333Y-79985714D01*
X48123810Y-79985714D01*
X48219048Y-80033333D01*
X48647619Y-80652381D02*
X48647619Y-79985714D01*
X48647619Y-79652381D02*
X48600000Y-79700000D01*
X48647619Y-79747619D01*
X48695238Y-79700000D01*
X48647619Y-79652381D01*
X48647619Y-79747619D01*
X49123809Y-79985714D02*
X49123809Y-80652381D01*
X49123809Y-80080952D02*
X49171428Y-80033333D01*
X49266666Y-79985714D01*
X49409524Y-79985714D01*
X49504762Y-80033333D01*
X49552381Y-80128571D01*
X49552381Y-80652381D01*
X50457143Y-79985714D02*
X50457143Y-80795238D01*
X50409524Y-80890476D01*
X50361905Y-80938095D01*
X50266666Y-80985714D01*
X50123809Y-80985714D01*
X50028571Y-80938095D01*
X50457143Y-80604762D02*
X50361905Y-80652381D01*
X50171428Y-80652381D01*
X50076190Y-80604762D01*
X50028571Y-80557143D01*
X49980952Y-80461905D01*
X49980952Y-80176190D01*
X50028571Y-80080952D01*
X50076190Y-80033333D01*
X50171428Y-79985714D01*
X50361905Y-79985714D01*
X50457143Y-80033333D01*
X41623808Y-82404762D02*
X41766665Y-82452381D01*
X42004761Y-82452381D01*
X42099999Y-82404762D01*
X42147618Y-82357143D01*
X42195237Y-82261905D01*
X42195237Y-82166667D01*
X42147618Y-82071429D01*
X42099999Y-82023810D01*
X42004761Y-81976190D01*
X41814284Y-81928571D01*
X41719046Y-81880952D01*
X41671427Y-81833333D01*
X41623808Y-81738095D01*
X41623808Y-81642857D01*
X41671427Y-81547619D01*
X41719046Y-81500000D01*
X41814284Y-81452381D01*
X42052380Y-81452381D01*
X42195237Y-81500000D01*
X42766665Y-82452381D02*
X42671427Y-82404762D01*
X42623808Y-82309524D01*
X42623808Y-81452381D01*
X43290475Y-82452381D02*
X43195237Y-82404762D01*
X43147618Y-82357143D01*
X43099999Y-82261905D01*
X43099999Y-81976190D01*
X43147618Y-81880952D01*
X43195237Y-81833333D01*
X43290475Y-81785714D01*
X43433333Y-81785714D01*
X43528571Y-81833333D01*
X43576190Y-81880952D01*
X43623809Y-81976190D01*
X43623809Y-82261905D01*
X43576190Y-82357143D01*
X43528571Y-82404762D01*
X43433333Y-82452381D01*
X43290475Y-82452381D01*
X43909523Y-81785714D02*
X44290475Y-81785714D01*
X44052380Y-81452381D02*
X44052380Y-82309524D01*
X44099999Y-82404762D01*
X44195237Y-82452381D01*
X44290475Y-82452381D01*
X45385714Y-82452381D02*
X45385714Y-81452381D01*
X45766667Y-81452381D01*
X45861905Y-81500000D01*
X45909524Y-81547619D01*
X45957143Y-81642857D01*
X45957143Y-81785714D01*
X45909524Y-81880952D01*
X45861905Y-81928571D01*
X45766667Y-81976190D01*
X45385714Y-81976190D01*
X46385714Y-82452381D02*
X46385714Y-81785714D01*
X46385714Y-81976190D02*
X46433333Y-81880952D01*
X46480952Y-81833333D01*
X46576190Y-81785714D01*
X46671429Y-81785714D01*
X47385715Y-82404762D02*
X47290477Y-82452381D01*
X47100000Y-82452381D01*
X47004762Y-82404762D01*
X46957143Y-82309524D01*
X46957143Y-81928571D01*
X47004762Y-81833333D01*
X47100000Y-81785714D01*
X47290477Y-81785714D01*
X47385715Y-81833333D01*
X47433334Y-81928571D01*
X47433334Y-82023810D01*
X46957143Y-82119048D01*
X47814286Y-82404762D02*
X47909524Y-82452381D01*
X48100000Y-82452381D01*
X48195239Y-82404762D01*
X48242858Y-82309524D01*
X48242858Y-82261905D01*
X48195239Y-82166667D01*
X48100000Y-82119048D01*
X47957143Y-82119048D01*
X47861905Y-82071429D01*
X47814286Y-81976190D01*
X47814286Y-81928571D01*
X47861905Y-81833333D01*
X47957143Y-81785714D01*
X48100000Y-81785714D01*
X48195239Y-81833333D01*
X49052382Y-82404762D02*
X48957144Y-82452381D01*
X48766667Y-82452381D01*
X48671429Y-82404762D01*
X48623810Y-82309524D01*
X48623810Y-81928571D01*
X48671429Y-81833333D01*
X48766667Y-81785714D01*
X48957144Y-81785714D01*
X49052382Y-81833333D01*
X49100001Y-81928571D01*
X49100001Y-82023810D01*
X48623810Y-82119048D01*
X49528572Y-81785714D02*
X49528572Y-82452381D01*
X49528572Y-81880952D02*
X49576191Y-81833333D01*
X49671429Y-81785714D01*
X49814287Y-81785714D01*
X49909525Y-81833333D01*
X49957144Y-81928571D01*
X49957144Y-82452381D01*
X50290477Y-81785714D02*
X50671429Y-81785714D01*
X50433334Y-81452381D02*
X50433334Y-82309524D01*
X50480953Y-82404762D01*
X50576191Y-82452381D01*
X50671429Y-82452381D01*
X41552380Y-84604762D02*
X41695237Y-84652381D01*
X41933333Y-84652381D01*
X42028571Y-84604762D01*
X42076190Y-84557143D01*
X42123809Y-84461905D01*
X42123809Y-84366667D01*
X42076190Y-84271429D01*
X42028571Y-84223810D01*
X41933333Y-84176190D01*
X41742856Y-84128571D01*
X41647618Y-84080952D01*
X41599999Y-84033333D01*
X41552380Y-83938095D01*
X41552380Y-83842857D01*
X41599999Y-83747619D01*
X41647618Y-83700000D01*
X41742856Y-83652381D01*
X41980952Y-83652381D01*
X42123809Y-83700000D01*
X42552380Y-84652381D02*
X42552380Y-83652381D01*
X42885714Y-84366667D01*
X43219047Y-83652381D01*
X43219047Y-84652381D01*
X43695237Y-84652381D02*
X43695237Y-83652381D01*
X43933332Y-83652381D01*
X44076190Y-83700000D01*
X44171428Y-83795238D01*
X44219047Y-83890476D01*
X44266666Y-84080952D01*
X44266666Y-84223810D01*
X44219047Y-84414286D01*
X44171428Y-84509524D01*
X44076190Y-84604762D01*
X43933332Y-84652381D01*
X43695237Y-84652381D01*
X45457142Y-84652381D02*
X45457142Y-83652381D01*
X45838095Y-83652381D01*
X45933333Y-83700000D01*
X45980952Y-83747619D01*
X46028571Y-83842857D01*
X46028571Y-83985714D01*
X45980952Y-84080952D01*
X45933333Y-84128571D01*
X45838095Y-84176190D01*
X45457142Y-84176190D01*
X46457142Y-84652381D02*
X46457142Y-83985714D01*
X46457142Y-84176190D02*
X46504761Y-84080952D01*
X46552380Y-84033333D01*
X46647618Y-83985714D01*
X46742857Y-83985714D01*
X47457143Y-84604762D02*
X47361905Y-84652381D01*
X47171428Y-84652381D01*
X47076190Y-84604762D01*
X47028571Y-84509524D01*
X47028571Y-84128571D01*
X47076190Y-84033333D01*
X47171428Y-83985714D01*
X47361905Y-83985714D01*
X47457143Y-84033333D01*
X47504762Y-84128571D01*
X47504762Y-84223810D01*
X47028571Y-84319048D01*
X47885714Y-84604762D02*
X47980952Y-84652381D01*
X48171428Y-84652381D01*
X48266667Y-84604762D01*
X48314286Y-84509524D01*
X48314286Y-84461905D01*
X48266667Y-84366667D01*
X48171428Y-84319048D01*
X48028571Y-84319048D01*
X47933333Y-84271429D01*
X47885714Y-84176190D01*
X47885714Y-84128571D01*
X47933333Y-84033333D01*
X48028571Y-83985714D01*
X48171428Y-83985714D01*
X48266667Y-84033333D01*
X49123810Y-84604762D02*
X49028572Y-84652381D01*
X48838095Y-84652381D01*
X48742857Y-84604762D01*
X48695238Y-84509524D01*
X48695238Y-84128571D01*
X48742857Y-84033333D01*
X48838095Y-83985714D01*
X49028572Y-83985714D01*
X49123810Y-84033333D01*
X49171429Y-84128571D01*
X49171429Y-84223810D01*
X48695238Y-84319048D01*
X49600000Y-83985714D02*
X49600000Y-84652381D01*
X49600000Y-84080952D02*
X49647619Y-84033333D01*
X49742857Y-83985714D01*
X49885715Y-83985714D01*
X49980953Y-84033333D01*
X50028572Y-84128571D01*
X50028572Y-84652381D01*
X50361905Y-83985714D02*
X50742857Y-83985714D01*
X50504762Y-83652381D02*
X50504762Y-84509524D01*
X50552381Y-84604762D01*
X50647619Y-84652381D01*
X50742857Y-84652381D01*
X41557142Y-86652381D02*
X41557142Y-85652381D01*
X41890476Y-86366667D01*
X42223809Y-85652381D01*
X42223809Y-86652381D01*
X43128571Y-86652381D02*
X43128571Y-86128571D01*
X43080952Y-86033333D01*
X42985714Y-85985714D01*
X42795237Y-85985714D01*
X42699999Y-86033333D01*
X43128571Y-86604762D02*
X43033333Y-86652381D01*
X42795237Y-86652381D01*
X42699999Y-86604762D01*
X42652380Y-86509524D01*
X42652380Y-86414286D01*
X42699999Y-86319048D01*
X42795237Y-86271429D01*
X43033333Y-86271429D01*
X43128571Y-86223810D01*
X43557142Y-86604762D02*
X43652380Y-86652381D01*
X43842856Y-86652381D01*
X43938095Y-86604762D01*
X43985714Y-86509524D01*
X43985714Y-86461905D01*
X43938095Y-86366667D01*
X43842856Y-86319048D01*
X43699999Y-86319048D01*
X43604761Y-86271429D01*
X43557142Y-86176190D01*
X43557142Y-86128571D01*
X43604761Y-86033333D01*
X43699999Y-85985714D01*
X43842856Y-85985714D01*
X43938095Y-86033333D01*
X44414285Y-86652381D02*
X44414285Y-85652381D01*
X44509523Y-86271429D02*
X44795238Y-86652381D01*
X44795238Y-85985714D02*
X44414285Y-86366667D01*
X46557143Y-86557143D02*
X46509524Y-86604762D01*
X46366667Y-86652381D01*
X46271429Y-86652381D01*
X46128571Y-86604762D01*
X46033333Y-86509524D01*
X45985714Y-86414286D01*
X45938095Y-86223810D01*
X45938095Y-86080952D01*
X45985714Y-85890476D01*
X46033333Y-85795238D01*
X46128571Y-85700000D01*
X46271429Y-85652381D01*
X46366667Y-85652381D01*
X46509524Y-85700000D01*
X46557143Y-85747619D01*
X47128571Y-86652381D02*
X47033333Y-86604762D01*
X46985714Y-86557143D01*
X46938095Y-86461905D01*
X46938095Y-86176190D01*
X46985714Y-86080952D01*
X47033333Y-86033333D01*
X47128571Y-85985714D01*
X47271429Y-85985714D01*
X47366667Y-86033333D01*
X47414286Y-86080952D01*
X47461905Y-86176190D01*
X47461905Y-86461905D01*
X47414286Y-86557143D01*
X47366667Y-86604762D01*
X47271429Y-86652381D01*
X47128571Y-86652381D01*
X47795238Y-85985714D02*
X48033333Y-86652381D01*
X48271429Y-85985714D01*
X49033334Y-86604762D02*
X48938096Y-86652381D01*
X48747619Y-86652381D01*
X48652381Y-86604762D01*
X48604762Y-86509524D01*
X48604762Y-86128571D01*
X48652381Y-86033333D01*
X48747619Y-85985714D01*
X48938096Y-85985714D01*
X49033334Y-86033333D01*
X49080953Y-86128571D01*
X49080953Y-86223810D01*
X48604762Y-86319048D01*
X49509524Y-86652381D02*
X49509524Y-85985714D01*
X49509524Y-86176190D02*
X49557143Y-86080952D01*
X49604762Y-86033333D01*
X49700000Y-85985714D01*
X49795239Y-85985714D01*
X50128572Y-86652381D02*
X50128572Y-85985714D01*
X50128572Y-85652381D02*
X50080953Y-85700000D01*
X50128572Y-85747619D01*
X50176191Y-85700000D01*
X50128572Y-85652381D01*
X50128572Y-85747619D01*
X50604762Y-85985714D02*
X50604762Y-86652381D01*
X50604762Y-86080952D02*
X50652381Y-86033333D01*
X50747619Y-85985714D01*
X50890477Y-85985714D01*
X50985715Y-86033333D01*
X51033334Y-86128571D01*
X51033334Y-86652381D01*
X51938096Y-85985714D02*
X51938096Y-86795238D01*
X51890477Y-86890476D01*
X51842858Y-86938095D01*
X51747619Y-86985714D01*
X51604762Y-86985714D01*
X51509524Y-86938095D01*
X51938096Y-86604762D02*
X51842858Y-86652381D01*
X51652381Y-86652381D01*
X51557143Y-86604762D01*
X51509524Y-86557143D01*
X51461905Y-86461905D01*
X51461905Y-86176190D01*
X51509524Y-86080952D01*
X51557143Y-86033333D01*
X51652381Y-85985714D01*
X51842858Y-85985714D01*
X51938096Y-86033333D01*
X53033334Y-85652381D02*
X53366667Y-86652381D01*
X53700001Y-85652381D01*
X54033334Y-86652381D02*
X54033334Y-85652381D01*
X54461905Y-86366667D02*
X54938096Y-86366667D01*
X54366667Y-86652381D02*
X54700000Y-85652381D01*
X55033334Y-86652381D01*
X55319048Y-86604762D02*
X55461905Y-86652381D01*
X55700001Y-86652381D01*
X55795239Y-86604762D01*
X55842858Y-86557143D01*
X55890477Y-86461905D01*
X55890477Y-86366667D01*
X55842858Y-86271429D01*
X55795239Y-86223810D01*
X55700001Y-86176190D01*
X55509524Y-86128571D01*
X55414286Y-86080952D01*
X55366667Y-86033333D01*
X55319048Y-85938095D01*
X55319048Y-85842857D01*
X55366667Y-85747619D01*
X55414286Y-85700000D01*
X55509524Y-85652381D01*
X55747620Y-85652381D01*
X55890477Y-85700000D01*
X41480951Y-87652381D02*
X41480951Y-88461905D01*
X41528570Y-88557143D01*
X41576189Y-88604762D01*
X41671427Y-88652381D01*
X41861904Y-88652381D01*
X41957142Y-88604762D01*
X42004761Y-88557143D01*
X42052380Y-88461905D01*
X42052380Y-87652381D01*
X42528570Y-87985714D02*
X42528570Y-88652381D01*
X42528570Y-88080952D02*
X42576189Y-88033333D01*
X42671427Y-87985714D01*
X42814285Y-87985714D01*
X42909523Y-88033333D01*
X42957142Y-88128571D01*
X42957142Y-88652381D01*
X43290475Y-87985714D02*
X43671427Y-87985714D01*
X43433332Y-87652381D02*
X43433332Y-88509524D01*
X43480951Y-88604762D01*
X43576189Y-88652381D01*
X43671427Y-88652381D01*
X44385714Y-88604762D02*
X44290476Y-88652381D01*
X44099999Y-88652381D01*
X44004761Y-88604762D01*
X43957142Y-88509524D01*
X43957142Y-88128571D01*
X44004761Y-88033333D01*
X44099999Y-87985714D01*
X44290476Y-87985714D01*
X44385714Y-88033333D01*
X44433333Y-88128571D01*
X44433333Y-88223810D01*
X43957142Y-88319048D01*
X44861904Y-88652381D02*
X44861904Y-87985714D01*
X44861904Y-88176190D02*
X44909523Y-88080952D01*
X44957142Y-88033333D01*
X45052380Y-87985714D01*
X45147619Y-87985714D01*
X45480952Y-88652381D02*
X45480952Y-87985714D01*
X45480952Y-88080952D02*
X45528571Y-88033333D01*
X45623809Y-87985714D01*
X45766667Y-87985714D01*
X45861905Y-88033333D01*
X45909524Y-88128571D01*
X45909524Y-88652381D01*
X45909524Y-88128571D02*
X45957143Y-88033333D01*
X46052381Y-87985714D01*
X46195238Y-87985714D01*
X46290476Y-88033333D01*
X46338095Y-88128571D01*
X46338095Y-88652381D01*
X46814285Y-88652381D02*
X46814285Y-87985714D01*
X46814285Y-87652381D02*
X46766666Y-87700000D01*
X46814285Y-87747619D01*
X46861904Y-87700000D01*
X46814285Y-87652381D01*
X46814285Y-87747619D01*
X47290475Y-87985714D02*
X47290475Y-88652381D01*
X47290475Y-88080952D02*
X47338094Y-88033333D01*
X47433332Y-87985714D01*
X47576190Y-87985714D01*
X47671428Y-88033333D01*
X47719047Y-88128571D01*
X47719047Y-88652381D01*
X48623809Y-88652381D02*
X48623809Y-88128571D01*
X48576190Y-88033333D01*
X48480952Y-87985714D01*
X48290475Y-87985714D01*
X48195237Y-88033333D01*
X48623809Y-88604762D02*
X48528571Y-88652381D01*
X48290475Y-88652381D01*
X48195237Y-88604762D01*
X48147618Y-88509524D01*
X48147618Y-88414286D01*
X48195237Y-88319048D01*
X48290475Y-88271429D01*
X48528571Y-88271429D01*
X48623809Y-88223810D01*
X48957142Y-87985714D02*
X49338094Y-87985714D01*
X49099999Y-87652381D02*
X49099999Y-88509524D01*
X49147618Y-88604762D01*
X49242856Y-88652381D01*
X49338094Y-88652381D01*
X50052381Y-88604762D02*
X49957143Y-88652381D01*
X49766666Y-88652381D01*
X49671428Y-88604762D01*
X49623809Y-88509524D01*
X49623809Y-88128571D01*
X49671428Y-88033333D01*
X49766666Y-87985714D01*
X49957143Y-87985714D01*
X50052381Y-88033333D01*
X50100000Y-88128571D01*
X50100000Y-88223810D01*
X49623809Y-88319048D01*
X50957143Y-88652381D02*
X50957143Y-87652381D01*
X50957143Y-88604762D02*
X50861905Y-88652381D01*
X50671428Y-88652381D01*
X50576190Y-88604762D01*
X50528571Y-88557143D01*
X50480952Y-88461905D01*
X50480952Y-88176190D01*
X50528571Y-88080952D01*
X50576190Y-88033333D01*
X50671428Y-87985714D01*
X50861905Y-87985714D01*
X50957143Y-88033333D01*
X52052381Y-87652381D02*
X52623810Y-87652381D01*
X52338095Y-88652381D02*
X52338095Y-87652381D01*
X52957143Y-88652381D02*
X52957143Y-87985714D01*
X52957143Y-88176190D02*
X53004762Y-88080952D01*
X53052381Y-88033333D01*
X53147619Y-87985714D01*
X53242858Y-87985714D01*
X54004763Y-88652381D02*
X54004763Y-88128571D01*
X53957144Y-88033333D01*
X53861906Y-87985714D01*
X53671429Y-87985714D01*
X53576191Y-88033333D01*
X54004763Y-88604762D02*
X53909525Y-88652381D01*
X53671429Y-88652381D01*
X53576191Y-88604762D01*
X53528572Y-88509524D01*
X53528572Y-88414286D01*
X53576191Y-88319048D01*
X53671429Y-88271429D01*
X53909525Y-88271429D01*
X54004763Y-88223810D01*
X54909525Y-88604762D02*
X54814287Y-88652381D01*
X54623810Y-88652381D01*
X54528572Y-88604762D01*
X54480953Y-88557143D01*
X54433334Y-88461905D01*
X54433334Y-88176190D01*
X54480953Y-88080952D01*
X54528572Y-88033333D01*
X54623810Y-87985714D01*
X54814287Y-87985714D01*
X54909525Y-88033333D01*
X55719049Y-88604762D02*
X55623811Y-88652381D01*
X55433334Y-88652381D01*
X55338096Y-88604762D01*
X55290477Y-88509524D01*
X55290477Y-88128571D01*
X55338096Y-88033333D01*
X55433334Y-87985714D01*
X55623811Y-87985714D01*
X55719049Y-88033333D01*
X55766668Y-88128571D01*
X55766668Y-88223810D01*
X55290477Y-88319048D01*
X41433332Y-90652381D02*
X41433332Y-89652381D01*
X41766666Y-90366667D01*
X42099999Y-89652381D01*
X42099999Y-90652381D01*
X43004761Y-90652381D02*
X43004761Y-90128571D01*
X42957142Y-90033333D01*
X42861904Y-89985714D01*
X42671427Y-89985714D01*
X42576189Y-90033333D01*
X43004761Y-90604762D02*
X42909523Y-90652381D01*
X42671427Y-90652381D01*
X42576189Y-90604762D01*
X42528570Y-90509524D01*
X42528570Y-90414286D01*
X42576189Y-90319048D01*
X42671427Y-90271429D01*
X42909523Y-90271429D01*
X43004761Y-90223810D01*
X43433332Y-90604762D02*
X43528570Y-90652381D01*
X43719046Y-90652381D01*
X43814285Y-90604762D01*
X43861904Y-90509524D01*
X43861904Y-90461905D01*
X43814285Y-90366667D01*
X43719046Y-90319048D01*
X43576189Y-90319048D01*
X43480951Y-90271429D01*
X43433332Y-90176190D01*
X43433332Y-90128571D01*
X43480951Y-90033333D01*
X43576189Y-89985714D01*
X43719046Y-89985714D01*
X43814285Y-90033333D01*
X44290475Y-90652381D02*
X44290475Y-89652381D01*
X44385713Y-90271429D02*
X44671428Y-90652381D01*
X44671428Y-89985714D02*
X44290475Y-90366667D01*
X46433333Y-90557143D02*
X46385714Y-90604762D01*
X46242857Y-90652381D01*
X46147619Y-90652381D01*
X46004761Y-90604762D01*
X45909523Y-90509524D01*
X45861904Y-90414286D01*
X45814285Y-90223810D01*
X45814285Y-90080952D01*
X45861904Y-89890476D01*
X45909523Y-89795238D01*
X46004761Y-89700000D01*
X46147619Y-89652381D01*
X46242857Y-89652381D01*
X46385714Y-89700000D01*
X46433333Y-89747619D01*
X47004761Y-90652381D02*
X46909523Y-90604762D01*
X46861904Y-90509524D01*
X46861904Y-89652381D01*
X47766667Y-90604762D02*
X47671429Y-90652381D01*
X47480952Y-90652381D01*
X47385714Y-90604762D01*
X47338095Y-90509524D01*
X47338095Y-90128571D01*
X47385714Y-90033333D01*
X47480952Y-89985714D01*
X47671429Y-89985714D01*
X47766667Y-90033333D01*
X47814286Y-90128571D01*
X47814286Y-90223810D01*
X47338095Y-90319048D01*
X48671429Y-90652381D02*
X48671429Y-90128571D01*
X48623810Y-90033333D01*
X48528572Y-89985714D01*
X48338095Y-89985714D01*
X48242857Y-90033333D01*
X48671429Y-90604762D02*
X48576191Y-90652381D01*
X48338095Y-90652381D01*
X48242857Y-90604762D01*
X48195238Y-90509524D01*
X48195238Y-90414286D01*
X48242857Y-90319048D01*
X48338095Y-90271429D01*
X48576191Y-90271429D01*
X48671429Y-90223810D01*
X49147619Y-90652381D02*
X49147619Y-89985714D01*
X49147619Y-90176190D02*
X49195238Y-90080952D01*
X49242857Y-90033333D01*
X49338095Y-89985714D01*
X49433334Y-89985714D01*
X50147620Y-90604762D02*
X50052382Y-90652381D01*
X49861905Y-90652381D01*
X49766667Y-90604762D01*
X49719048Y-90509524D01*
X49719048Y-90128571D01*
X49766667Y-90033333D01*
X49861905Y-89985714D01*
X50052382Y-89985714D01*
X50147620Y-90033333D01*
X50195239Y-90128571D01*
X50195239Y-90223810D01*
X49719048Y-90319048D01*
X50623810Y-89985714D02*
X50623810Y-90652381D01*
X50623810Y-90080952D02*
X50671429Y-90033333D01*
X50766667Y-89985714D01*
X50909525Y-89985714D01*
X51004763Y-90033333D01*
X51052382Y-90128571D01*
X51052382Y-90652381D01*
X51957144Y-90604762D02*
X51861906Y-90652381D01*
X51671429Y-90652381D01*
X51576191Y-90604762D01*
X51528572Y-90557143D01*
X51480953Y-90461905D01*
X51480953Y-90176190D01*
X51528572Y-90080952D01*
X51576191Y-90033333D01*
X51671429Y-89985714D01*
X51861906Y-89985714D01*
X51957144Y-90033333D01*
X52766668Y-90604762D02*
X52671430Y-90652381D01*
X52480953Y-90652381D01*
X52385715Y-90604762D01*
X52338096Y-90509524D01*
X52338096Y-90128571D01*
X52385715Y-90033333D01*
X52480953Y-89985714D01*
X52671430Y-89985714D01*
X52766668Y-90033333D01*
X52814287Y-90128571D01*
X52814287Y-90223810D01*
X52338096Y-90319048D01*
X41919047Y-92652381D02*
X41442856Y-92652381D01*
X41442856Y-91652381D01*
X42633333Y-92604762D02*
X42538095Y-92652381D01*
X42347618Y-92652381D01*
X42252380Y-92604762D01*
X42204761Y-92509524D01*
X42204761Y-92128571D01*
X42252380Y-92033333D01*
X42347618Y-91985714D01*
X42538095Y-91985714D01*
X42633333Y-92033333D01*
X42680952Y-92128571D01*
X42680952Y-92223810D01*
X42204761Y-92319048D01*
X43538095Y-91985714D02*
X43538095Y-92795238D01*
X43490476Y-92890476D01*
X43442857Y-92938095D01*
X43347618Y-92985714D01*
X43204761Y-92985714D01*
X43109523Y-92938095D01*
X43538095Y-92604762D02*
X43442857Y-92652381D01*
X43252380Y-92652381D01*
X43157142Y-92604762D01*
X43109523Y-92557143D01*
X43061904Y-92461905D01*
X43061904Y-92176190D01*
X43109523Y-92080952D01*
X43157142Y-92033333D01*
X43252380Y-91985714D01*
X43442857Y-91985714D01*
X43538095Y-92033333D01*
X44395238Y-92604762D02*
X44300000Y-92652381D01*
X44109523Y-92652381D01*
X44014285Y-92604762D01*
X43966666Y-92509524D01*
X43966666Y-92128571D01*
X44014285Y-92033333D01*
X44109523Y-91985714D01*
X44300000Y-91985714D01*
X44395238Y-92033333D01*
X44442857Y-92128571D01*
X44442857Y-92223810D01*
X43966666Y-92319048D01*
X44871428Y-91985714D02*
X44871428Y-92652381D01*
X44871428Y-92080952D02*
X44919047Y-92033333D01*
X45014285Y-91985714D01*
X45157143Y-91985714D01*
X45252381Y-92033333D01*
X45300000Y-92128571D01*
X45300000Y-92652381D01*
X46204762Y-92652381D02*
X46204762Y-91652381D01*
X46204762Y-92604762D02*
X46109524Y-92652381D01*
X45919047Y-92652381D01*
X45823809Y-92604762D01*
X45776190Y-92557143D01*
X45728571Y-92461905D01*
X45728571Y-92176190D01*
X45776190Y-92080952D01*
X45823809Y-92033333D01*
X45919047Y-91985714D01*
X46109524Y-91985714D01*
X46204762Y-92033333D01*
X47585714Y-92652381D02*
X47490476Y-92604762D01*
X47442857Y-92557143D01*
X47395238Y-92461905D01*
X47395238Y-92176190D01*
X47442857Y-92080952D01*
X47490476Y-92033333D01*
X47585714Y-91985714D01*
X47728572Y-91985714D01*
X47823810Y-92033333D01*
X47871429Y-92080952D01*
X47919048Y-92176190D01*
X47919048Y-92461905D01*
X47871429Y-92557143D01*
X47823810Y-92604762D01*
X47728572Y-92652381D01*
X47585714Y-92652381D01*
X48347619Y-91985714D02*
X48347619Y-92652381D01*
X48347619Y-92080952D02*
X48395238Y-92033333D01*
X48490476Y-91985714D01*
X48633334Y-91985714D01*
X48728572Y-92033333D01*
X48776191Y-92128571D01*
X48776191Y-92652381D01*
X50014286Y-92652381D02*
X50014286Y-91652381D01*
X50395239Y-91652381D01*
X50490477Y-91700000D01*
X50538096Y-91747619D01*
X50585715Y-91842857D01*
X50585715Y-91985714D01*
X50538096Y-92080952D01*
X50490477Y-92128571D01*
X50395239Y-92176190D01*
X50014286Y-92176190D01*
X51442858Y-92652381D02*
X51442858Y-92128571D01*
X51395239Y-92033333D01*
X51300001Y-91985714D01*
X51109524Y-91985714D01*
X51014286Y-92033333D01*
X51442858Y-92604762D02*
X51347620Y-92652381D01*
X51109524Y-92652381D01*
X51014286Y-92604762D01*
X50966667Y-92509524D01*
X50966667Y-92414286D01*
X51014286Y-92319048D01*
X51109524Y-92271429D01*
X51347620Y-92271429D01*
X51442858Y-92223810D01*
X52347620Y-92652381D02*
X52347620Y-91652381D01*
X52347620Y-92604762D02*
X52252382Y-92652381D01*
X52061905Y-92652381D01*
X51966667Y-92604762D01*
X51919048Y-92557143D01*
X51871429Y-92461905D01*
X51871429Y-92176190D01*
X51919048Y-92080952D01*
X51966667Y-92033333D01*
X52061905Y-91985714D01*
X52252382Y-91985714D01*
X52347620Y-92033333D01*
X52776191Y-92604762D02*
X52871429Y-92652381D01*
X53061905Y-92652381D01*
X53157144Y-92604762D01*
X53204763Y-92509524D01*
X53204763Y-92461905D01*
X53157144Y-92366667D01*
X53061905Y-92319048D01*
X52919048Y-92319048D01*
X52823810Y-92271429D01*
X52776191Y-92176190D01*
X52776191Y-92128571D01*
X52823810Y-92033333D01*
X52919048Y-91985714D01*
X53061905Y-91985714D01*
X53157144Y-92033333D01*
X41728571Y-94128571D02*
X41871428Y-94176190D01*
X41919047Y-94223810D01*
X41966666Y-94319048D01*
X41966666Y-94461905D01*
X41919047Y-94557143D01*
X41871428Y-94604762D01*
X41776190Y-94652381D01*
X41395237Y-94652381D01*
X41395237Y-93652381D01*
X41728571Y-93652381D01*
X41823809Y-93700000D01*
X41871428Y-93747619D01*
X41919047Y-93842857D01*
X41919047Y-93938095D01*
X41871428Y-94033333D01*
X41823809Y-94080952D01*
X41728571Y-94128571D01*
X41395237Y-94128571D01*
X42538094Y-94652381D02*
X42442856Y-94604762D01*
X42395237Y-94557143D01*
X42347618Y-94461905D01*
X42347618Y-94176190D01*
X42395237Y-94080952D01*
X42442856Y-94033333D01*
X42538094Y-93985714D01*
X42680952Y-93985714D01*
X42776190Y-94033333D01*
X42823809Y-94080952D01*
X42871428Y-94176190D01*
X42871428Y-94461905D01*
X42823809Y-94557143D01*
X42776190Y-94604762D01*
X42680952Y-94652381D01*
X42538094Y-94652381D01*
X43728571Y-94652381D02*
X43728571Y-94128571D01*
X43680952Y-94033333D01*
X43585714Y-93985714D01*
X43395237Y-93985714D01*
X43299999Y-94033333D01*
X43728571Y-94604762D02*
X43633333Y-94652381D01*
X43395237Y-94652381D01*
X43299999Y-94604762D01*
X43252380Y-94509524D01*
X43252380Y-94414286D01*
X43299999Y-94319048D01*
X43395237Y-94271429D01*
X43633333Y-94271429D01*
X43728571Y-94223810D01*
X44204761Y-94652381D02*
X44204761Y-93985714D01*
X44204761Y-94176190D02*
X44252380Y-94080952D01*
X44299999Y-94033333D01*
X44395237Y-93985714D01*
X44490476Y-93985714D01*
X45252381Y-94652381D02*
X45252381Y-93652381D01*
X45252381Y-94604762D02*
X45157143Y-94652381D01*
X44966666Y-94652381D01*
X44871428Y-94604762D01*
X44823809Y-94557143D01*
X44776190Y-94461905D01*
X44776190Y-94176190D01*
X44823809Y-94080952D01*
X44871428Y-94033333D01*
X44966666Y-93985714D01*
X45157143Y-93985714D01*
X45252381Y-94033333D01*
X46347619Y-93652381D02*
X46919048Y-93652381D01*
X46633333Y-94652381D02*
X46633333Y-93652381D01*
X47252381Y-94652381D02*
X47252381Y-93652381D01*
X47680953Y-94652381D02*
X47680953Y-94128571D01*
X47633334Y-94033333D01*
X47538096Y-93985714D01*
X47395238Y-93985714D01*
X47300000Y-94033333D01*
X47252381Y-94080952D01*
X48157143Y-94652381D02*
X48157143Y-93985714D01*
X48157143Y-93652381D02*
X48109524Y-93700000D01*
X48157143Y-93747619D01*
X48204762Y-93700000D01*
X48157143Y-93652381D01*
X48157143Y-93747619D01*
X49061905Y-94604762D02*
X48966667Y-94652381D01*
X48776190Y-94652381D01*
X48680952Y-94604762D01*
X48633333Y-94557143D01*
X48585714Y-94461905D01*
X48585714Y-94176190D01*
X48633333Y-94080952D01*
X48680952Y-94033333D01*
X48776190Y-93985714D01*
X48966667Y-93985714D01*
X49061905Y-94033333D01*
X49490476Y-94652381D02*
X49490476Y-93652381D01*
X49585714Y-94271429D02*
X49871429Y-94652381D01*
X49871429Y-93985714D02*
X49490476Y-94366667D01*
X50300000Y-93985714D02*
X50300000Y-94652381D01*
X50300000Y-94080952D02*
X50347619Y-94033333D01*
X50442857Y-93985714D01*
X50585715Y-93985714D01*
X50680953Y-94033333D01*
X50728572Y-94128571D01*
X50728572Y-94652381D01*
X51585715Y-94604762D02*
X51490477Y-94652381D01*
X51300000Y-94652381D01*
X51204762Y-94604762D01*
X51157143Y-94509524D01*
X51157143Y-94128571D01*
X51204762Y-94033333D01*
X51300000Y-93985714D01*
X51490477Y-93985714D01*
X51585715Y-94033333D01*
X51633334Y-94128571D01*
X51633334Y-94223810D01*
X51157143Y-94319048D01*
X52014286Y-94604762D02*
X52109524Y-94652381D01*
X52300000Y-94652381D01*
X52395239Y-94604762D01*
X52442858Y-94509524D01*
X52442858Y-94461905D01*
X52395239Y-94366667D01*
X52300000Y-94319048D01*
X52157143Y-94319048D01*
X52061905Y-94271429D01*
X52014286Y-94176190D01*
X52014286Y-94128571D01*
X52061905Y-94033333D01*
X52157143Y-93985714D01*
X52300000Y-93985714D01*
X52395239Y-94033333D01*
X52823810Y-94604762D02*
X52919048Y-94652381D01*
X53109524Y-94652381D01*
X53204763Y-94604762D01*
X53252382Y-94509524D01*
X53252382Y-94461905D01*
X53204763Y-94366667D01*
X53109524Y-94319048D01*
X52966667Y-94319048D01*
X52871429Y-94271429D01*
X52823810Y-94176190D01*
X52823810Y-94128571D01*
X52871429Y-94033333D01*
X52966667Y-93985714D01*
X53109524Y-93985714D01*
X53204763Y-94033333D01*
X41438095Y-96852381D02*
X41438095Y-95852381D01*
X41771429Y-96566667D01*
X42104762Y-95852381D01*
X42104762Y-96852381D01*
X43009524Y-96852381D02*
X43009524Y-96328571D01*
X42961905Y-96233333D01*
X42866667Y-96185714D01*
X42676190Y-96185714D01*
X42580952Y-96233333D01*
X43009524Y-96804762D02*
X42914286Y-96852381D01*
X42676190Y-96852381D01*
X42580952Y-96804762D01*
X42533333Y-96709524D01*
X42533333Y-96614286D01*
X42580952Y-96519048D01*
X42676190Y-96471429D01*
X42914286Y-96471429D01*
X43009524Y-96423810D01*
X43342857Y-96185714D02*
X43723809Y-96185714D01*
X43485714Y-95852381D02*
X43485714Y-96709524D01*
X43533333Y-96804762D01*
X43628571Y-96852381D01*
X43723809Y-96852381D01*
X44438096Y-96804762D02*
X44342858Y-96852381D01*
X44152381Y-96852381D01*
X44057143Y-96804762D01*
X44009524Y-96709524D01*
X44009524Y-96328571D01*
X44057143Y-96233333D01*
X44152381Y-96185714D01*
X44342858Y-96185714D01*
X44438096Y-96233333D01*
X44485715Y-96328571D01*
X44485715Y-96423810D01*
X44009524Y-96519048D01*
X44914286Y-96852381D02*
X44914286Y-96185714D01*
X44914286Y-96376190D02*
X44961905Y-96280952D01*
X45009524Y-96233333D01*
X45104762Y-96185714D01*
X45200001Y-96185714D01*
X45533334Y-96852381D02*
X45533334Y-96185714D01*
X45533334Y-95852381D02*
X45485715Y-95900000D01*
X45533334Y-95947619D01*
X45580953Y-95900000D01*
X45533334Y-95852381D01*
X45533334Y-95947619D01*
X46438096Y-96852381D02*
X46438096Y-96328571D01*
X46390477Y-96233333D01*
X46295239Y-96185714D01*
X46104762Y-96185714D01*
X46009524Y-96233333D01*
X46438096Y-96804762D02*
X46342858Y-96852381D01*
X46104762Y-96852381D01*
X46009524Y-96804762D01*
X45961905Y-96709524D01*
X45961905Y-96614286D01*
X46009524Y-96519048D01*
X46104762Y-96471429D01*
X46342858Y-96471429D01*
X46438096Y-96423810D01*
X47057143Y-96852381D02*
X46961905Y-96804762D01*
X46914286Y-96709524D01*
X46914286Y-95852381D01*
X41957142Y-98752381D02*
X41480951Y-98752381D01*
X41480951Y-97752381D01*
X42671428Y-98704762D02*
X42576190Y-98752381D01*
X42385713Y-98752381D01*
X42290475Y-98704762D01*
X42242856Y-98609524D01*
X42242856Y-98228571D01*
X42290475Y-98133333D01*
X42385713Y-98085714D01*
X42576190Y-98085714D01*
X42671428Y-98133333D01*
X42719047Y-98228571D01*
X42719047Y-98323810D01*
X42242856Y-98419048D01*
X43576190Y-98085714D02*
X43576190Y-98895238D01*
X43528571Y-98990476D01*
X43480952Y-99038095D01*
X43385713Y-99085714D01*
X43242856Y-99085714D01*
X43147618Y-99038095D01*
X43576190Y-98704762D02*
X43480952Y-98752381D01*
X43290475Y-98752381D01*
X43195237Y-98704762D01*
X43147618Y-98657143D01*
X43099999Y-98561905D01*
X43099999Y-98276190D01*
X43147618Y-98180952D01*
X43195237Y-98133333D01*
X43290475Y-98085714D01*
X43480952Y-98085714D01*
X43576190Y-98133333D01*
X44433333Y-98704762D02*
X44338095Y-98752381D01*
X44147618Y-98752381D01*
X44052380Y-98704762D01*
X44004761Y-98609524D01*
X44004761Y-98228571D01*
X44052380Y-98133333D01*
X44147618Y-98085714D01*
X44338095Y-98085714D01*
X44433333Y-98133333D01*
X44480952Y-98228571D01*
X44480952Y-98323810D01*
X44004761Y-98419048D01*
X44909523Y-98085714D02*
X44909523Y-98752381D01*
X44909523Y-98180952D02*
X44957142Y-98133333D01*
X45052380Y-98085714D01*
X45195238Y-98085714D01*
X45290476Y-98133333D01*
X45338095Y-98228571D01*
X45338095Y-98752381D01*
X46242857Y-98752381D02*
X46242857Y-97752381D01*
X46242857Y-98704762D02*
X46147619Y-98752381D01*
X45957142Y-98752381D01*
X45861904Y-98704762D01*
X45814285Y-98657143D01*
X45766666Y-98561905D01*
X45766666Y-98276190D01*
X45814285Y-98180952D01*
X45861904Y-98133333D01*
X45957142Y-98085714D01*
X46147619Y-98085714D01*
X46242857Y-98133333D01*
X47623809Y-98752381D02*
X47528571Y-98704762D01*
X47480952Y-98657143D01*
X47433333Y-98561905D01*
X47433333Y-98276190D01*
X47480952Y-98180952D01*
X47528571Y-98133333D01*
X47623809Y-98085714D01*
X47766667Y-98085714D01*
X47861905Y-98133333D01*
X47909524Y-98180952D01*
X47957143Y-98276190D01*
X47957143Y-98561905D01*
X47909524Y-98657143D01*
X47861905Y-98704762D01*
X47766667Y-98752381D01*
X47623809Y-98752381D01*
X48385714Y-98085714D02*
X48385714Y-98752381D01*
X48385714Y-98180952D02*
X48433333Y-98133333D01*
X48528571Y-98085714D01*
X48671429Y-98085714D01*
X48766667Y-98133333D01*
X48814286Y-98228571D01*
X48814286Y-98752381D01*
X50385715Y-98228571D02*
X50528572Y-98276190D01*
X50576191Y-98323810D01*
X50623810Y-98419048D01*
X50623810Y-98561905D01*
X50576191Y-98657143D01*
X50528572Y-98704762D01*
X50433334Y-98752381D01*
X50052381Y-98752381D01*
X50052381Y-97752381D01*
X50385715Y-97752381D01*
X50480953Y-97800000D01*
X50528572Y-97847619D01*
X50576191Y-97942857D01*
X50576191Y-98038095D01*
X50528572Y-98133333D01*
X50480953Y-98180952D01*
X50385715Y-98228571D01*
X50052381Y-98228571D01*
X51195238Y-98752381D02*
X51100000Y-98704762D01*
X51052381Y-98657143D01*
X51004762Y-98561905D01*
X51004762Y-98276190D01*
X51052381Y-98180952D01*
X51100000Y-98133333D01*
X51195238Y-98085714D01*
X51338096Y-98085714D01*
X51433334Y-98133333D01*
X51480953Y-98180952D01*
X51528572Y-98276190D01*
X51528572Y-98561905D01*
X51480953Y-98657143D01*
X51433334Y-98704762D01*
X51338096Y-98752381D01*
X51195238Y-98752381D01*
X51814286Y-98085714D02*
X52195238Y-98085714D01*
X51957143Y-97752381D02*
X51957143Y-98609524D01*
X52004762Y-98704762D01*
X52100000Y-98752381D01*
X52195238Y-98752381D01*
X52528572Y-98752381D02*
X52528572Y-97752381D01*
X52957144Y-98752381D02*
X52957144Y-98228571D01*
X52909525Y-98133333D01*
X52814287Y-98085714D01*
X52671429Y-98085714D01*
X52576191Y-98133333D01*
X52528572Y-98180952D01*
X54147620Y-98704762D02*
X54290477Y-98752381D01*
X54528573Y-98752381D01*
X54623811Y-98704762D01*
X54671430Y-98657143D01*
X54719049Y-98561905D01*
X54719049Y-98466667D01*
X54671430Y-98371429D01*
X54623811Y-98323810D01*
X54528573Y-98276190D01*
X54338096Y-98228571D01*
X54242858Y-98180952D01*
X54195239Y-98133333D01*
X54147620Y-98038095D01*
X54147620Y-97942857D01*
X54195239Y-97847619D01*
X54242858Y-97800000D01*
X54338096Y-97752381D01*
X54576192Y-97752381D01*
X54719049Y-97800000D01*
X55147620Y-98752381D02*
X55147620Y-98085714D01*
X55147620Y-97752381D02*
X55100001Y-97800000D01*
X55147620Y-97847619D01*
X55195239Y-97800000D01*
X55147620Y-97752381D01*
X55147620Y-97847619D01*
X56052382Y-98752381D02*
X56052382Y-97752381D01*
X56052382Y-98704762D02*
X55957144Y-98752381D01*
X55766667Y-98752381D01*
X55671429Y-98704762D01*
X55623810Y-98657143D01*
X55576191Y-98561905D01*
X55576191Y-98276190D01*
X55623810Y-98180952D01*
X55671429Y-98133333D01*
X55766667Y-98085714D01*
X55957144Y-98085714D01*
X56052382Y-98133333D01*
X56909525Y-98704762D02*
X56814287Y-98752381D01*
X56623810Y-98752381D01*
X56528572Y-98704762D01*
X56480953Y-98609524D01*
X56480953Y-98228571D01*
X56528572Y-98133333D01*
X56623810Y-98085714D01*
X56814287Y-98085714D01*
X56909525Y-98133333D01*
X56957144Y-98228571D01*
X56957144Y-98323810D01*
X56480953Y-98419048D01*
X57338096Y-98704762D02*
X57433334Y-98752381D01*
X57623810Y-98752381D01*
X57719049Y-98704762D01*
X57766668Y-98609524D01*
X57766668Y-98561905D01*
X57719049Y-98466667D01*
X57623810Y-98419048D01*
X57480953Y-98419048D01*
X57385715Y-98371429D01*
X57338096Y-98276190D01*
X57338096Y-98228571D01*
X57385715Y-98133333D01*
X57480953Y-98085714D01*
X57623810Y-98085714D01*
X57719049Y-98133333D01*
X41466666Y-100752381D02*
X41466666Y-99752381D01*
X41800000Y-100466667D01*
X42133333Y-99752381D01*
X42133333Y-100752381D01*
X43038095Y-100752381D02*
X43038095Y-100228571D01*
X42990476Y-100133333D01*
X42895238Y-100085714D01*
X42704761Y-100085714D01*
X42609523Y-100133333D01*
X43038095Y-100704762D02*
X42942857Y-100752381D01*
X42704761Y-100752381D01*
X42609523Y-100704762D01*
X42561904Y-100609524D01*
X42561904Y-100514286D01*
X42609523Y-100419048D01*
X42704761Y-100371429D01*
X42942857Y-100371429D01*
X43038095Y-100323810D01*
X43466666Y-100704762D02*
X43561904Y-100752381D01*
X43752380Y-100752381D01*
X43847619Y-100704762D01*
X43895238Y-100609524D01*
X43895238Y-100561905D01*
X43847619Y-100466667D01*
X43752380Y-100419048D01*
X43609523Y-100419048D01*
X43514285Y-100371429D01*
X43466666Y-100276190D01*
X43466666Y-100228571D01*
X43514285Y-100133333D01*
X43609523Y-100085714D01*
X43752380Y-100085714D01*
X43847619Y-100133333D01*
X44323809Y-100752381D02*
X44323809Y-99752381D01*
X44419047Y-100371429D02*
X44704762Y-100752381D01*
X44704762Y-100085714D02*
X44323809Y-100466667D01*
X46038095Y-100752381D02*
X45942857Y-100704762D01*
X45895238Y-100657143D01*
X45847619Y-100561905D01*
X45847619Y-100276190D01*
X45895238Y-100180952D01*
X45942857Y-100133333D01*
X46038095Y-100085714D01*
X46180953Y-100085714D01*
X46276191Y-100133333D01*
X46323810Y-100180952D01*
X46371429Y-100276190D01*
X46371429Y-100561905D01*
X46323810Y-100657143D01*
X46276191Y-100704762D01*
X46180953Y-100752381D01*
X46038095Y-100752381D01*
X46800000Y-100085714D02*
X46800000Y-100752381D01*
X46800000Y-100180952D02*
X46847619Y-100133333D01*
X46942857Y-100085714D01*
X47085715Y-100085714D01*
X47180953Y-100133333D01*
X47228572Y-100228571D01*
X47228572Y-100752381D01*
X48800001Y-100228571D02*
X48942858Y-100276190D01*
X48990477Y-100323810D01*
X49038096Y-100419048D01*
X49038096Y-100561905D01*
X48990477Y-100657143D01*
X48942858Y-100704762D01*
X48847620Y-100752381D01*
X48466667Y-100752381D01*
X48466667Y-99752381D01*
X48800001Y-99752381D01*
X48895239Y-99800000D01*
X48942858Y-99847619D01*
X48990477Y-99942857D01*
X48990477Y-100038095D01*
X48942858Y-100133333D01*
X48895239Y-100180952D01*
X48800001Y-100228571D01*
X48466667Y-100228571D01*
X49609524Y-100752381D02*
X49514286Y-100704762D01*
X49466667Y-100657143D01*
X49419048Y-100561905D01*
X49419048Y-100276190D01*
X49466667Y-100180952D01*
X49514286Y-100133333D01*
X49609524Y-100085714D01*
X49752382Y-100085714D01*
X49847620Y-100133333D01*
X49895239Y-100180952D01*
X49942858Y-100276190D01*
X49942858Y-100561905D01*
X49895239Y-100657143D01*
X49847620Y-100704762D01*
X49752382Y-100752381D01*
X49609524Y-100752381D01*
X50228572Y-100085714D02*
X50609524Y-100085714D01*
X50371429Y-99752381D02*
X50371429Y-100609524D01*
X50419048Y-100704762D01*
X50514286Y-100752381D01*
X50609524Y-100752381D01*
X50942858Y-100752381D02*
X50942858Y-99752381D01*
X51371430Y-100752381D02*
X51371430Y-100228571D01*
X51323811Y-100133333D01*
X51228573Y-100085714D01*
X51085715Y-100085714D01*
X50990477Y-100133333D01*
X50942858Y-100180952D01*
X52561906Y-100704762D02*
X52704763Y-100752381D01*
X52942859Y-100752381D01*
X53038097Y-100704762D01*
X53085716Y-100657143D01*
X53133335Y-100561905D01*
X53133335Y-100466667D01*
X53085716Y-100371429D01*
X53038097Y-100323810D01*
X52942859Y-100276190D01*
X52752382Y-100228571D01*
X52657144Y-100180952D01*
X52609525Y-100133333D01*
X52561906Y-100038095D01*
X52561906Y-99942857D01*
X52609525Y-99847619D01*
X52657144Y-99800000D01*
X52752382Y-99752381D01*
X52990478Y-99752381D01*
X53133335Y-99800000D01*
X53561906Y-100752381D02*
X53561906Y-100085714D01*
X53561906Y-99752381D02*
X53514287Y-99800000D01*
X53561906Y-99847619D01*
X53609525Y-99800000D01*
X53561906Y-99752381D01*
X53561906Y-99847619D01*
X54466668Y-100752381D02*
X54466668Y-99752381D01*
X54466668Y-100704762D02*
X54371430Y-100752381D01*
X54180953Y-100752381D01*
X54085715Y-100704762D01*
X54038096Y-100657143D01*
X53990477Y-100561905D01*
X53990477Y-100276190D01*
X54038096Y-100180952D01*
X54085715Y-100133333D01*
X54180953Y-100085714D01*
X54371430Y-100085714D01*
X54466668Y-100133333D01*
X55323811Y-100704762D02*
X55228573Y-100752381D01*
X55038096Y-100752381D01*
X54942858Y-100704762D01*
X54895239Y-100609524D01*
X54895239Y-100228571D01*
X54942858Y-100133333D01*
X55038096Y-100085714D01*
X55228573Y-100085714D01*
X55323811Y-100133333D01*
X55371430Y-100228571D01*
X55371430Y-100323810D01*
X54895239Y-100419048D01*
X55752382Y-100704762D02*
X55847620Y-100752381D01*
X56038096Y-100752381D01*
X56133335Y-100704762D01*
X56180954Y-100609524D01*
X56180954Y-100561905D01*
X56133335Y-100466667D01*
X56038096Y-100419048D01*
X55895239Y-100419048D01*
X55800001Y-100371429D01*
X55752382Y-100276190D01*
X55752382Y-100228571D01*
X55800001Y-100133333D01*
X55895239Y-100085714D01*
X56038096Y-100085714D01*
X56133335Y-100133333D01*
X41466666Y-102652381D02*
X41466666Y-101652381D01*
X41942856Y-102652381D02*
X41942856Y-101985714D01*
X41942856Y-102080952D02*
X41990475Y-102033333D01*
X42085713Y-101985714D01*
X42228571Y-101985714D01*
X42323809Y-102033333D01*
X42371428Y-102128571D01*
X42371428Y-102652381D01*
X42371428Y-102128571D02*
X42419047Y-102033333D01*
X42514285Y-101985714D01*
X42657142Y-101985714D01*
X42752380Y-102033333D01*
X42799999Y-102128571D01*
X42799999Y-102652381D01*
X43276189Y-101985714D02*
X43276189Y-102985714D01*
X43276189Y-102033333D02*
X43371427Y-101985714D01*
X43561904Y-101985714D01*
X43657142Y-102033333D01*
X43704761Y-102080952D01*
X43752380Y-102176190D01*
X43752380Y-102461905D01*
X43704761Y-102557143D01*
X43657142Y-102604762D01*
X43561904Y-102652381D01*
X43371427Y-102652381D01*
X43276189Y-102604762D01*
X44561904Y-102604762D02*
X44466666Y-102652381D01*
X44276189Y-102652381D01*
X44180951Y-102604762D01*
X44133332Y-102509524D01*
X44133332Y-102128571D01*
X44180951Y-102033333D01*
X44276189Y-101985714D01*
X44466666Y-101985714D01*
X44561904Y-102033333D01*
X44609523Y-102128571D01*
X44609523Y-102223810D01*
X44133332Y-102319048D01*
X45466666Y-102652381D02*
X45466666Y-101652381D01*
X45466666Y-102604762D02*
X45371428Y-102652381D01*
X45180951Y-102652381D01*
X45085713Y-102604762D01*
X45038094Y-102557143D01*
X44990475Y-102461905D01*
X44990475Y-102176190D01*
X45038094Y-102080952D01*
X45085713Y-102033333D01*
X45180951Y-101985714D01*
X45371428Y-101985714D01*
X45466666Y-102033333D01*
X46323809Y-102604762D02*
X46228571Y-102652381D01*
X46038094Y-102652381D01*
X45942856Y-102604762D01*
X45895237Y-102509524D01*
X45895237Y-102128571D01*
X45942856Y-102033333D01*
X46038094Y-101985714D01*
X46228571Y-101985714D01*
X46323809Y-102033333D01*
X46371428Y-102128571D01*
X46371428Y-102223810D01*
X45895237Y-102319048D01*
X46799999Y-101985714D02*
X46799999Y-102652381D01*
X46799999Y-102080952D02*
X46847618Y-102033333D01*
X46942856Y-101985714D01*
X47085714Y-101985714D01*
X47180952Y-102033333D01*
X47228571Y-102128571D01*
X47228571Y-102652381D01*
X48133333Y-102604762D02*
X48038095Y-102652381D01*
X47847618Y-102652381D01*
X47752380Y-102604762D01*
X47704761Y-102557143D01*
X47657142Y-102461905D01*
X47657142Y-102176190D01*
X47704761Y-102080952D01*
X47752380Y-102033333D01*
X47847618Y-101985714D01*
X48038095Y-101985714D01*
X48133333Y-102033333D01*
X48942857Y-102604762D02*
X48847619Y-102652381D01*
X48657142Y-102652381D01*
X48561904Y-102604762D01*
X48514285Y-102509524D01*
X48514285Y-102128571D01*
X48561904Y-102033333D01*
X48657142Y-101985714D01*
X48847619Y-101985714D01*
X48942857Y-102033333D01*
X48990476Y-102128571D01*
X48990476Y-102223810D01*
X48514285Y-102319048D01*
X50752381Y-102557143D02*
X50704762Y-102604762D01*
X50561905Y-102652381D01*
X50466667Y-102652381D01*
X50323809Y-102604762D01*
X50228571Y-102509524D01*
X50180952Y-102414286D01*
X50133333Y-102223810D01*
X50133333Y-102080952D01*
X50180952Y-101890476D01*
X50228571Y-101795238D01*
X50323809Y-101700000D01*
X50466667Y-101652381D01*
X50561905Y-101652381D01*
X50704762Y-101700000D01*
X50752381Y-101747619D01*
X51323809Y-102652381D02*
X51228571Y-102604762D01*
X51180952Y-102557143D01*
X51133333Y-102461905D01*
X51133333Y-102176190D01*
X51180952Y-102080952D01*
X51228571Y-102033333D01*
X51323809Y-101985714D01*
X51466667Y-101985714D01*
X51561905Y-102033333D01*
X51609524Y-102080952D01*
X51657143Y-102176190D01*
X51657143Y-102461905D01*
X51609524Y-102557143D01*
X51561905Y-102604762D01*
X51466667Y-102652381D01*
X51323809Y-102652381D01*
X52085714Y-101985714D02*
X52085714Y-102652381D01*
X52085714Y-102080952D02*
X52133333Y-102033333D01*
X52228571Y-101985714D01*
X52371429Y-101985714D01*
X52466667Y-102033333D01*
X52514286Y-102128571D01*
X52514286Y-102652381D01*
X52847619Y-101985714D02*
X53228571Y-101985714D01*
X52990476Y-101652381D02*
X52990476Y-102509524D01*
X53038095Y-102604762D01*
X53133333Y-102652381D01*
X53228571Y-102652381D01*
X53561905Y-102652381D02*
X53561905Y-101985714D01*
X53561905Y-102176190D02*
X53609524Y-102080952D01*
X53657143Y-102033333D01*
X53752381Y-101985714D01*
X53847620Y-101985714D01*
X54323810Y-102652381D02*
X54228572Y-102604762D01*
X54180953Y-102557143D01*
X54133334Y-102461905D01*
X54133334Y-102176190D01*
X54180953Y-102080952D01*
X54228572Y-102033333D01*
X54323810Y-101985714D01*
X54466668Y-101985714D01*
X54561906Y-102033333D01*
X54609525Y-102080952D01*
X54657144Y-102176190D01*
X54657144Y-102461905D01*
X54609525Y-102557143D01*
X54561906Y-102604762D01*
X54466668Y-102652381D01*
X54323810Y-102652381D01*
X55228572Y-102652381D02*
X55133334Y-102604762D01*
X55085715Y-102509524D01*
X55085715Y-101652381D01*
X42038095Y-104457143D02*
X41990476Y-104504762D01*
X41847619Y-104552381D01*
X41752381Y-104552381D01*
X41609523Y-104504762D01*
X41514285Y-104409524D01*
X41466666Y-104314286D01*
X41419047Y-104123810D01*
X41419047Y-103980952D01*
X41466666Y-103790476D01*
X41514285Y-103695238D01*
X41609523Y-103600000D01*
X41752381Y-103552381D01*
X41847619Y-103552381D01*
X41990476Y-103600000D01*
X42038095Y-103647619D01*
X42609523Y-104552381D02*
X42514285Y-104504762D01*
X42466666Y-104457143D01*
X42419047Y-104361905D01*
X42419047Y-104076190D01*
X42466666Y-103980952D01*
X42514285Y-103933333D01*
X42609523Y-103885714D01*
X42752381Y-103885714D01*
X42847619Y-103933333D01*
X42895238Y-103980952D01*
X42942857Y-104076190D01*
X42942857Y-104361905D01*
X42895238Y-104457143D01*
X42847619Y-104504762D01*
X42752381Y-104552381D01*
X42609523Y-104552381D01*
X43371428Y-103885714D02*
X43371428Y-104885714D01*
X43371428Y-103933333D02*
X43466666Y-103885714D01*
X43657143Y-103885714D01*
X43752381Y-103933333D01*
X43800000Y-103980952D01*
X43847619Y-104076190D01*
X43847619Y-104361905D01*
X43800000Y-104457143D01*
X43752381Y-104504762D01*
X43657143Y-104552381D01*
X43466666Y-104552381D01*
X43371428Y-104504762D01*
X44276190Y-103885714D02*
X44276190Y-104885714D01*
X44276190Y-103933333D02*
X44371428Y-103885714D01*
X44561905Y-103885714D01*
X44657143Y-103933333D01*
X44704762Y-103980952D01*
X44752381Y-104076190D01*
X44752381Y-104361905D01*
X44704762Y-104457143D01*
X44657143Y-104504762D01*
X44561905Y-104552381D01*
X44371428Y-104552381D01*
X44276190Y-104504762D01*
X45561905Y-104504762D02*
X45466667Y-104552381D01*
X45276190Y-104552381D01*
X45180952Y-104504762D01*
X45133333Y-104409524D01*
X45133333Y-104028571D01*
X45180952Y-103933333D01*
X45276190Y-103885714D01*
X45466667Y-103885714D01*
X45561905Y-103933333D01*
X45609524Y-104028571D01*
X45609524Y-104123810D01*
X45133333Y-104219048D01*
X46038095Y-104552381D02*
X46038095Y-103885714D01*
X46038095Y-104076190D02*
X46085714Y-103980952D01*
X46133333Y-103933333D01*
X46228571Y-103885714D01*
X46323810Y-103885714D01*
X47276191Y-103552381D02*
X47847620Y-103552381D01*
X47561905Y-104552381D02*
X47561905Y-103552381D01*
X48180953Y-104552381D02*
X48180953Y-103552381D01*
X48609525Y-104552381D02*
X48609525Y-104028571D01*
X48561906Y-103933333D01*
X48466668Y-103885714D01*
X48323810Y-103885714D01*
X48228572Y-103933333D01*
X48180953Y-103980952D01*
X49085715Y-104552381D02*
X49085715Y-103885714D01*
X49085715Y-103552381D02*
X49038096Y-103600000D01*
X49085715Y-103647619D01*
X49133334Y-103600000D01*
X49085715Y-103552381D01*
X49085715Y-103647619D01*
X49990477Y-104504762D02*
X49895239Y-104552381D01*
X49704762Y-104552381D01*
X49609524Y-104504762D01*
X49561905Y-104457143D01*
X49514286Y-104361905D01*
X49514286Y-104076190D01*
X49561905Y-103980952D01*
X49609524Y-103933333D01*
X49704762Y-103885714D01*
X49895239Y-103885714D01*
X49990477Y-103933333D01*
X50419048Y-104552381D02*
X50419048Y-103552381D01*
X50514286Y-104171429D02*
X50800001Y-104552381D01*
X50800001Y-103885714D02*
X50419048Y-104266667D01*
X51228572Y-103885714D02*
X51228572Y-104552381D01*
X51228572Y-103980952D02*
X51276191Y-103933333D01*
X51371429Y-103885714D01*
X51514287Y-103885714D01*
X51609525Y-103933333D01*
X51657144Y-104028571D01*
X51657144Y-104552381D01*
X52514287Y-104504762D02*
X52419049Y-104552381D01*
X52228572Y-104552381D01*
X52133334Y-104504762D01*
X52085715Y-104409524D01*
X52085715Y-104028571D01*
X52133334Y-103933333D01*
X52228572Y-103885714D01*
X52419049Y-103885714D01*
X52514287Y-103933333D01*
X52561906Y-104028571D01*
X52561906Y-104123810D01*
X52085715Y-104219048D01*
X52942858Y-104504762D02*
X53038096Y-104552381D01*
X53228572Y-104552381D01*
X53323811Y-104504762D01*
X53371430Y-104409524D01*
X53371430Y-104361905D01*
X53323811Y-104266667D01*
X53228572Y-104219048D01*
X53085715Y-104219048D01*
X52990477Y-104171429D01*
X52942858Y-104076190D01*
X52942858Y-104028571D01*
X52990477Y-103933333D01*
X53085715Y-103885714D01*
X53228572Y-103885714D01*
X53323811Y-103933333D01*
X53752382Y-104504762D02*
X53847620Y-104552381D01*
X54038096Y-104552381D01*
X54133335Y-104504762D01*
X54180954Y-104409524D01*
X54180954Y-104361905D01*
X54133335Y-104266667D01*
X54038096Y-104219048D01*
X53895239Y-104219048D01*
X53800001Y-104171429D01*
X53752382Y-104076190D01*
X53752382Y-104028571D01*
X53800001Y-103933333D01*
X53895239Y-103885714D01*
X54038096Y-103885714D01*
X54133335Y-103933333D01*
X41857144Y-106228571D02*
X41523810Y-106228571D01*
X41523810Y-106752381D02*
X41523810Y-105752381D01*
X42000001Y-105752381D01*
X42380953Y-106752381D02*
X42380953Y-106085714D01*
X42380953Y-105752381D02*
X42333334Y-105800000D01*
X42380953Y-105847619D01*
X42428572Y-105800000D01*
X42380953Y-105752381D01*
X42380953Y-105847619D01*
X42857143Y-106085714D02*
X42857143Y-106752381D01*
X42857143Y-106180952D02*
X42904762Y-106133333D01*
X43000000Y-106085714D01*
X43142858Y-106085714D01*
X43238096Y-106133333D01*
X43285715Y-106228571D01*
X43285715Y-106752381D01*
X43761905Y-106752381D02*
X43761905Y-106085714D01*
X43761905Y-105752381D02*
X43714286Y-105800000D01*
X43761905Y-105847619D01*
X43809524Y-105800000D01*
X43761905Y-105752381D01*
X43761905Y-105847619D01*
X44190476Y-106704762D02*
X44285714Y-106752381D01*
X44476190Y-106752381D01*
X44571429Y-106704762D01*
X44619048Y-106609524D01*
X44619048Y-106561905D01*
X44571429Y-106466667D01*
X44476190Y-106419048D01*
X44333333Y-106419048D01*
X44238095Y-106371429D01*
X44190476Y-106276190D01*
X44190476Y-106228571D01*
X44238095Y-106133333D01*
X44333333Y-106085714D01*
X44476190Y-106085714D01*
X44571429Y-106133333D01*
X45047619Y-106752381D02*
X45047619Y-105752381D01*
X45476191Y-106752381D02*
X45476191Y-106228571D01*
X45428572Y-106133333D01*
X45333334Y-106085714D01*
X45190476Y-106085714D01*
X45095238Y-106133333D01*
X45047619Y-106180952D01*
X41790477Y-108128571D02*
X41933334Y-108176190D01*
X41980953Y-108223810D01*
X42028572Y-108319048D01*
X42028572Y-108461905D01*
X41980953Y-108557143D01*
X41933334Y-108604762D01*
X41838096Y-108652381D01*
X41457143Y-108652381D01*
X41457143Y-107652381D01*
X41790477Y-107652381D01*
X41885715Y-107700000D01*
X41933334Y-107747619D01*
X41980953Y-107842857D01*
X41980953Y-107938095D01*
X41933334Y-108033333D01*
X41885715Y-108080952D01*
X41790477Y-108128571D01*
X41457143Y-108128571D01*
X42790477Y-108128571D02*
X42933334Y-108176190D01*
X42980953Y-108223810D01*
X43028572Y-108319048D01*
X43028572Y-108461905D01*
X42980953Y-108557143D01*
X42933334Y-108604762D01*
X42838096Y-108652381D01*
X42457143Y-108652381D01*
X42457143Y-107652381D01*
X42790477Y-107652381D01*
X42885715Y-107700000D01*
X42933334Y-107747619D01*
X42980953Y-107842857D01*
X42980953Y-107938095D01*
X42933334Y-108033333D01*
X42885715Y-108080952D01*
X42790477Y-108128571D01*
X42457143Y-108128571D01*
X43314286Y-107652381D02*
X43885715Y-107652381D01*
X43600000Y-108652381D02*
X43600000Y-107652381D01*
X41861905Y-110228571D02*
X41528571Y-110228571D01*
X41528571Y-110752381D02*
X41528571Y-109752381D01*
X42004762Y-109752381D01*
X42719048Y-110228571D02*
X42861905Y-110276190D01*
X42909524Y-110323810D01*
X42957143Y-110419048D01*
X42957143Y-110561905D01*
X42909524Y-110657143D01*
X42861905Y-110704762D01*
X42766667Y-110752381D01*
X42385714Y-110752381D01*
X42385714Y-109752381D01*
X42719048Y-109752381D01*
X42814286Y-109800000D01*
X42861905Y-109847619D01*
X42909524Y-109942857D01*
X42909524Y-110038095D01*
X42861905Y-110133333D01*
X42814286Y-110180952D01*
X42719048Y-110228571D01*
X42385714Y-110228571D01*
X43242857Y-109752381D02*
X43814286Y-109752381D01*
X43528571Y-110752381D02*
X43528571Y-109752381D01*
X41338094Y-112404762D02*
X41480951Y-112452381D01*
X41719047Y-112452381D01*
X41814285Y-112404762D01*
X41861904Y-112357143D01*
X41909523Y-112261905D01*
X41909523Y-112166667D01*
X41861904Y-112071429D01*
X41814285Y-112023810D01*
X41719047Y-111976190D01*
X41528570Y-111928571D01*
X41433332Y-111880952D01*
X41385713Y-111833333D01*
X41338094Y-111738095D01*
X41338094Y-111642857D01*
X41385713Y-111547619D01*
X41433332Y-111500000D01*
X41528570Y-111452381D01*
X41766666Y-111452381D01*
X41909523Y-111500000D01*
X42480951Y-112452381D02*
X42385713Y-112404762D01*
X42338094Y-112357143D01*
X42290475Y-112261905D01*
X42290475Y-111976190D01*
X42338094Y-111880952D01*
X42385713Y-111833333D01*
X42480951Y-111785714D01*
X42623809Y-111785714D01*
X42719047Y-111833333D01*
X42766666Y-111880952D01*
X42814285Y-111976190D01*
X42814285Y-112261905D01*
X42766666Y-112357143D01*
X42719047Y-112404762D01*
X42623809Y-112452381D01*
X42480951Y-112452381D01*
X43385713Y-112452381D02*
X43290475Y-112404762D01*
X43242856Y-112309524D01*
X43242856Y-111452381D01*
X44195238Y-112452381D02*
X44195238Y-111452381D01*
X44195238Y-112404762D02*
X44100000Y-112452381D01*
X43909523Y-112452381D01*
X43814285Y-112404762D01*
X43766666Y-112357143D01*
X43719047Y-112261905D01*
X43719047Y-111976190D01*
X43766666Y-111880952D01*
X43814285Y-111833333D01*
X43909523Y-111785714D01*
X44100000Y-111785714D01*
X44195238Y-111833333D01*
X45052381Y-112404762D02*
X44957143Y-112452381D01*
X44766666Y-112452381D01*
X44671428Y-112404762D01*
X44623809Y-112309524D01*
X44623809Y-111928571D01*
X44671428Y-111833333D01*
X44766666Y-111785714D01*
X44957143Y-111785714D01*
X45052381Y-111833333D01*
X45100000Y-111928571D01*
X45100000Y-112023810D01*
X44623809Y-112119048D01*
X45528571Y-112452381D02*
X45528571Y-111785714D01*
X45528571Y-111976190D02*
X45576190Y-111880952D01*
X45623809Y-111833333D01*
X45719047Y-111785714D01*
X45814286Y-111785714D01*
X46909524Y-112452381D02*
X46909524Y-111452381D01*
X47242858Y-112166667D01*
X47576191Y-111452381D01*
X47576191Y-112452381D01*
X48480953Y-112452381D02*
X48480953Y-111928571D01*
X48433334Y-111833333D01*
X48338096Y-111785714D01*
X48147619Y-111785714D01*
X48052381Y-111833333D01*
X48480953Y-112404762D02*
X48385715Y-112452381D01*
X48147619Y-112452381D01*
X48052381Y-112404762D01*
X48004762Y-112309524D01*
X48004762Y-112214286D01*
X48052381Y-112119048D01*
X48147619Y-112071429D01*
X48385715Y-112071429D01*
X48480953Y-112023810D01*
X48909524Y-112404762D02*
X49004762Y-112452381D01*
X49195238Y-112452381D01*
X49290477Y-112404762D01*
X49338096Y-112309524D01*
X49338096Y-112261905D01*
X49290477Y-112166667D01*
X49195238Y-112119048D01*
X49052381Y-112119048D01*
X48957143Y-112071429D01*
X48909524Y-111976190D01*
X48909524Y-111928571D01*
X48957143Y-111833333D01*
X49052381Y-111785714D01*
X49195238Y-111785714D01*
X49290477Y-111833333D01*
X49766667Y-112452381D02*
X49766667Y-111452381D01*
X49861905Y-112071429D02*
X50147620Y-112452381D01*
X50147620Y-111785714D02*
X49766667Y-112166667D01*
X51909525Y-112357143D02*
X51861906Y-112404762D01*
X51719049Y-112452381D01*
X51623811Y-112452381D01*
X51480953Y-112404762D01*
X51385715Y-112309524D01*
X51338096Y-112214286D01*
X51290477Y-112023810D01*
X51290477Y-111880952D01*
X51338096Y-111690476D01*
X51385715Y-111595238D01*
X51480953Y-111500000D01*
X51623811Y-111452381D01*
X51719049Y-111452381D01*
X51861906Y-111500000D01*
X51909525Y-111547619D01*
X52480953Y-112452381D02*
X52385715Y-112404762D01*
X52338096Y-112357143D01*
X52290477Y-112261905D01*
X52290477Y-111976190D01*
X52338096Y-111880952D01*
X52385715Y-111833333D01*
X52480953Y-111785714D01*
X52623811Y-111785714D01*
X52719049Y-111833333D01*
X52766668Y-111880952D01*
X52814287Y-111976190D01*
X52814287Y-112261905D01*
X52766668Y-112357143D01*
X52719049Y-112404762D01*
X52623811Y-112452381D01*
X52480953Y-112452381D01*
X53385715Y-112452381D02*
X53290477Y-112404762D01*
X53242858Y-112309524D01*
X53242858Y-111452381D01*
X53909525Y-112452381D02*
X53814287Y-112404762D01*
X53766668Y-112357143D01*
X53719049Y-112261905D01*
X53719049Y-111976190D01*
X53766668Y-111880952D01*
X53814287Y-111833333D01*
X53909525Y-111785714D01*
X54052383Y-111785714D01*
X54147621Y-111833333D01*
X54195240Y-111880952D01*
X54242859Y-111976190D01*
X54242859Y-112261905D01*
X54195240Y-112357143D01*
X54147621Y-112404762D01*
X54052383Y-112452381D01*
X53909525Y-112452381D01*
X54671430Y-112452381D02*
X54671430Y-111785714D01*
X54671430Y-111976190D02*
X54719049Y-111880952D01*
X54766668Y-111833333D01*
X54861906Y-111785714D01*
X54957145Y-111785714D01*
X61512380Y-75657619D02*
X61559999Y-75610000D01*
X61655237Y-75562381D01*
X61893333Y-75562381D01*
X61988571Y-75610000D01*
X62036190Y-75657619D01*
X62083809Y-75752857D01*
X62083809Y-75848095D01*
X62036190Y-75990952D01*
X61464761Y-76562381D01*
X62083809Y-76562381D01*
X63750476Y-76562381D02*
X63274285Y-76562381D01*
X63274285Y-75562381D01*
X64512381Y-76562381D02*
X64512381Y-76038571D01*
X64464762Y-75943333D01*
X64369524Y-75895714D01*
X64179047Y-75895714D01*
X64083809Y-75943333D01*
X64512381Y-76514762D02*
X64417143Y-76562381D01*
X64179047Y-76562381D01*
X64083809Y-76514762D01*
X64036190Y-76419524D01*
X64036190Y-76324286D01*
X64083809Y-76229048D01*
X64179047Y-76181429D01*
X64417143Y-76181429D01*
X64512381Y-76133810D01*
X64893333Y-75895714D02*
X65131428Y-76562381D01*
X65369524Y-75895714D02*
X65131428Y-76562381D01*
X65036190Y-76800476D01*
X64988571Y-76848095D01*
X64893333Y-76895714D01*
X66131429Y-76514762D02*
X66036191Y-76562381D01*
X65845714Y-76562381D01*
X65750476Y-76514762D01*
X65702857Y-76419524D01*
X65702857Y-76038571D01*
X65750476Y-75943333D01*
X65845714Y-75895714D01*
X66036191Y-75895714D01*
X66131429Y-75943333D01*
X66179048Y-76038571D01*
X66179048Y-76133810D01*
X65702857Y-76229048D01*
X66607619Y-76562381D02*
X66607619Y-75895714D01*
X66607619Y-76086190D02*
X66655238Y-75990952D01*
X66702857Y-75943333D01*
X66798095Y-75895714D01*
X66893334Y-75895714D01*
X67179048Y-76514762D02*
X67274286Y-76562381D01*
X67464762Y-76562381D01*
X67560001Y-76514762D01*
X67607620Y-76419524D01*
X67607620Y-76371905D01*
X67560001Y-76276667D01*
X67464762Y-76229048D01*
X67321905Y-76229048D01*
X67226667Y-76181429D01*
X67179048Y-76086190D01*
X67179048Y-76038571D01*
X67226667Y-75943333D01*
X67321905Y-75895714D01*
X67464762Y-75895714D01*
X67560001Y-75943333D01*
X61952381Y-78080952D02*
X61857143Y-78033333D01*
X61809524Y-77985714D01*
X61761905Y-77890476D01*
X61761905Y-77842857D01*
X61809524Y-77747619D01*
X61857143Y-77700000D01*
X61952381Y-77652381D01*
X62142858Y-77652381D01*
X62238096Y-77700000D01*
X62285715Y-77747619D01*
X62333334Y-77842857D01*
X62333334Y-77890476D01*
X62285715Y-77985714D01*
X62238096Y-78033333D01*
X62142858Y-78080952D01*
X61952381Y-78080952D01*
X61857143Y-78128571D01*
X61809524Y-78176190D01*
X61761905Y-78271429D01*
X61761905Y-78461905D01*
X61809524Y-78557143D01*
X61857143Y-78604762D01*
X61952381Y-78652381D01*
X62142858Y-78652381D01*
X62238096Y-78604762D01*
X62285715Y-78557143D01*
X62333334Y-78461905D01*
X62333334Y-78271429D01*
X62285715Y-78176190D01*
X62238096Y-78128571D01*
X62142858Y-78080952D01*
X63523810Y-78652381D02*
X63523810Y-77985714D01*
X63523810Y-78080952D02*
X63571429Y-78033333D01*
X63666667Y-77985714D01*
X63809525Y-77985714D01*
X63904763Y-78033333D01*
X63952382Y-78128571D01*
X63952382Y-78652381D01*
X63952382Y-78128571D02*
X64000001Y-78033333D01*
X64095239Y-77985714D01*
X64238096Y-77985714D01*
X64333334Y-78033333D01*
X64380953Y-78128571D01*
X64380953Y-78652381D01*
X64857143Y-78652381D02*
X64857143Y-77985714D01*
X64857143Y-77652381D02*
X64809524Y-77700000D01*
X64857143Y-77747619D01*
X64904762Y-77700000D01*
X64857143Y-77652381D01*
X64857143Y-77747619D01*
X65476190Y-78652381D02*
X65380952Y-78604762D01*
X65333333Y-78509524D01*
X65333333Y-77652381D01*
X65809524Y-78604762D02*
X65904762Y-78652381D01*
X66095238Y-78652381D01*
X66190477Y-78604762D01*
X66238096Y-78509524D01*
X66238096Y-78461905D01*
X66190477Y-78366667D01*
X66095238Y-78319048D01*
X65952381Y-78319048D01*
X65857143Y-78271429D01*
X65809524Y-78176190D01*
X65809524Y-78128571D01*
X65857143Y-78033333D01*
X65952381Y-77985714D01*
X66095238Y-77985714D01*
X66190477Y-78033333D01*
X61952381Y-80080952D02*
X61857143Y-80033333D01*
X61809524Y-79985714D01*
X61761905Y-79890476D01*
X61761905Y-79842857D01*
X61809524Y-79747619D01*
X61857143Y-79700000D01*
X61952381Y-79652381D01*
X62142858Y-79652381D01*
X62238096Y-79700000D01*
X62285715Y-79747619D01*
X62333334Y-79842857D01*
X62333334Y-79890476D01*
X62285715Y-79985714D01*
X62238096Y-80033333D01*
X62142858Y-80080952D01*
X61952381Y-80080952D01*
X61857143Y-80128571D01*
X61809524Y-80176190D01*
X61761905Y-80271429D01*
X61761905Y-80461905D01*
X61809524Y-80557143D01*
X61857143Y-80604762D01*
X61952381Y-80652381D01*
X62142858Y-80652381D01*
X62238096Y-80604762D01*
X62285715Y-80557143D01*
X62333334Y-80461905D01*
X62333334Y-80271429D01*
X62285715Y-80176190D01*
X62238096Y-80128571D01*
X62142858Y-80080952D01*
X63523810Y-80652381D02*
X63523810Y-79985714D01*
X63523810Y-80080952D02*
X63571429Y-80033333D01*
X63666667Y-79985714D01*
X63809525Y-79985714D01*
X63904763Y-80033333D01*
X63952382Y-80128571D01*
X63952382Y-80652381D01*
X63952382Y-80128571D02*
X64000001Y-80033333D01*
X64095239Y-79985714D01*
X64238096Y-79985714D01*
X64333334Y-80033333D01*
X64380953Y-80128571D01*
X64380953Y-80652381D01*
X64857143Y-80652381D02*
X64857143Y-79985714D01*
X64857143Y-79652381D02*
X64809524Y-79700000D01*
X64857143Y-79747619D01*
X64904762Y-79700000D01*
X64857143Y-79652381D01*
X64857143Y-79747619D01*
X65476190Y-80652381D02*
X65380952Y-80604762D01*
X65333333Y-80509524D01*
X65333333Y-79652381D01*
X65809524Y-80604762D02*
X65904762Y-80652381D01*
X66095238Y-80652381D01*
X66190477Y-80604762D01*
X66238096Y-80509524D01*
X66238096Y-80461905D01*
X66190477Y-80366667D01*
X66095238Y-80319048D01*
X65952381Y-80319048D01*
X65857143Y-80271429D01*
X65809524Y-80176190D01*
X65809524Y-80128571D01*
X65857143Y-80033333D01*
X65952381Y-79985714D01*
X66095238Y-79985714D01*
X66190477Y-80033333D01*
X62261905Y-82652381D02*
X62261905Y-81652381D01*
X62833334Y-82652381D01*
X62833334Y-81652381D01*
X63452381Y-82652381D02*
X63357143Y-82604762D01*
X63309524Y-82557143D01*
X63261905Y-82461905D01*
X63261905Y-82176190D01*
X63309524Y-82080952D01*
X63357143Y-82033333D01*
X63452381Y-81985714D01*
X63595239Y-81985714D01*
X63690477Y-82033333D01*
X63738096Y-82080952D01*
X63785715Y-82176190D01*
X63785715Y-82461905D01*
X63738096Y-82557143D01*
X63690477Y-82604762D01*
X63595239Y-82652381D01*
X63452381Y-82652381D01*
X62166666Y-84176190D02*
X62166666Y-84652381D01*
X61833333Y-83652381D02*
X62166666Y-84176190D01*
X62500000Y-83652381D01*
X63214286Y-84604762D02*
X63119048Y-84652381D01*
X62928571Y-84652381D01*
X62833333Y-84604762D01*
X62785714Y-84509524D01*
X62785714Y-84128571D01*
X62833333Y-84033333D01*
X62928571Y-83985714D01*
X63119048Y-83985714D01*
X63214286Y-84033333D01*
X63261905Y-84128571D01*
X63261905Y-84223810D01*
X62785714Y-84319048D01*
X63642857Y-84604762D02*
X63738095Y-84652381D01*
X63928571Y-84652381D01*
X64023810Y-84604762D01*
X64071429Y-84509524D01*
X64071429Y-84461905D01*
X64023810Y-84366667D01*
X63928571Y-84319048D01*
X63785714Y-84319048D01*
X63690476Y-84271429D01*
X63642857Y-84176190D01*
X63642857Y-84128571D01*
X63690476Y-84033333D01*
X63785714Y-83985714D01*
X63928571Y-83985714D01*
X64023810Y-84033333D01*
X62166666Y-86176190D02*
X62166666Y-86652381D01*
X61833333Y-85652381D02*
X62166666Y-86176190D01*
X62500000Y-85652381D01*
X63214286Y-86604762D02*
X63119048Y-86652381D01*
X62928571Y-86652381D01*
X62833333Y-86604762D01*
X62785714Y-86509524D01*
X62785714Y-86128571D01*
X62833333Y-86033333D01*
X62928571Y-85985714D01*
X63119048Y-85985714D01*
X63214286Y-86033333D01*
X63261905Y-86128571D01*
X63261905Y-86223810D01*
X62785714Y-86319048D01*
X63642857Y-86604762D02*
X63738095Y-86652381D01*
X63928571Y-86652381D01*
X64023810Y-86604762D01*
X64071429Y-86509524D01*
X64071429Y-86461905D01*
X64023810Y-86366667D01*
X63928571Y-86319048D01*
X63785714Y-86319048D01*
X63690476Y-86271429D01*
X63642857Y-86176190D01*
X63642857Y-86128571D01*
X63690476Y-86033333D01*
X63785714Y-85985714D01*
X63928571Y-85985714D01*
X64023810Y-86033333D01*
X62261905Y-88652381D02*
X62261905Y-87652381D01*
X62833334Y-88652381D01*
X62833334Y-87652381D01*
X63452381Y-88652381D02*
X63357143Y-88604762D01*
X63309524Y-88557143D01*
X63261905Y-88461905D01*
X63261905Y-88176190D01*
X63309524Y-88080952D01*
X63357143Y-88033333D01*
X63452381Y-87985714D01*
X63595239Y-87985714D01*
X63690477Y-88033333D01*
X63738096Y-88080952D01*
X63785715Y-88176190D01*
X63785715Y-88461905D01*
X63738096Y-88557143D01*
X63690477Y-88604762D01*
X63595239Y-88652381D01*
X63452381Y-88652381D01*
X62238096Y-89652381D02*
X62047619Y-89652381D01*
X61952381Y-89700000D01*
X61904762Y-89747619D01*
X61809524Y-89890476D01*
X61761905Y-90080952D01*
X61761905Y-90461905D01*
X61809524Y-90557143D01*
X61857143Y-90604762D01*
X61952381Y-90652381D01*
X62142858Y-90652381D01*
X62238096Y-90604762D01*
X62285715Y-90557143D01*
X62333334Y-90461905D01*
X62333334Y-90223810D01*
X62285715Y-90128571D01*
X62238096Y-90080952D01*
X62142858Y-90033333D01*
X61952381Y-90033333D01*
X61857143Y-90080952D01*
X61809524Y-90128571D01*
X61761905Y-90223810D01*
X63523810Y-90652381D02*
X63523810Y-89985714D01*
X63523810Y-90080952D02*
X63571429Y-90033333D01*
X63666667Y-89985714D01*
X63809525Y-89985714D01*
X63904763Y-90033333D01*
X63952382Y-90128571D01*
X63952382Y-90652381D01*
X63952382Y-90128571D02*
X64000001Y-90033333D01*
X64095239Y-89985714D01*
X64238096Y-89985714D01*
X64333334Y-90033333D01*
X64380953Y-90128571D01*
X64380953Y-90652381D01*
X64857143Y-90652381D02*
X64857143Y-89985714D01*
X64857143Y-89652381D02*
X64809524Y-89700000D01*
X64857143Y-89747619D01*
X64904762Y-89700000D01*
X64857143Y-89652381D01*
X64857143Y-89747619D01*
X65476190Y-90652381D02*
X65380952Y-90604762D01*
X65333333Y-90509524D01*
X65333333Y-89652381D01*
X65809524Y-90604762D02*
X65904762Y-90652381D01*
X66095238Y-90652381D01*
X66190477Y-90604762D01*
X66238096Y-90509524D01*
X66238096Y-90461905D01*
X66190477Y-90366667D01*
X66095238Y-90319048D01*
X65952381Y-90319048D01*
X65857143Y-90271429D01*
X65809524Y-90176190D01*
X65809524Y-90128571D01*
X65857143Y-90033333D01*
X65952381Y-89985714D01*
X66095238Y-89985714D01*
X66190477Y-90033333D01*
X62261905Y-92652381D02*
X62261905Y-91652381D01*
X62833334Y-92652381D01*
X62833334Y-91652381D01*
X63452381Y-92652381D02*
X63357143Y-92604762D01*
X63309524Y-92557143D01*
X63261905Y-92461905D01*
X63261905Y-92176190D01*
X63309524Y-92080952D01*
X63357143Y-92033333D01*
X63452381Y-91985714D01*
X63595239Y-91985714D01*
X63690477Y-92033333D01*
X63738096Y-92080952D01*
X63785715Y-92176190D01*
X63785715Y-92461905D01*
X63738096Y-92557143D01*
X63690477Y-92604762D01*
X63595239Y-92652381D01*
X63452381Y-92652381D01*
X61857144Y-94652381D02*
X61285715Y-94652381D01*
X61571429Y-94652381D02*
X61571429Y-93652381D01*
X61476191Y-93795238D01*
X61380953Y-93890476D01*
X61285715Y-93938095D01*
X62285715Y-94557143D02*
X62333334Y-94604762D01*
X62285715Y-94652381D01*
X62238096Y-94604762D01*
X62285715Y-94557143D01*
X62285715Y-94652381D01*
X63190477Y-93652381D02*
X63000000Y-93652381D01*
X62904762Y-93700000D01*
X62857143Y-93747619D01*
X62761905Y-93890476D01*
X62714286Y-94080952D01*
X62714286Y-94461905D01*
X62761905Y-94557143D01*
X62809524Y-94604762D01*
X62904762Y-94652381D01*
X63095239Y-94652381D01*
X63190477Y-94604762D01*
X63238096Y-94557143D01*
X63285715Y-94461905D01*
X63285715Y-94223810D01*
X63238096Y-94128571D01*
X63190477Y-94080952D01*
X63095239Y-94033333D01*
X62904762Y-94033333D01*
X62809524Y-94080952D01*
X62761905Y-94128571D01*
X62714286Y-94223810D01*
X64476191Y-94652381D02*
X64476191Y-93985714D01*
X64476191Y-94080952D02*
X64523810Y-94033333D01*
X64619048Y-93985714D01*
X64761906Y-93985714D01*
X64857144Y-94033333D01*
X64904763Y-94128571D01*
X64904763Y-94652381D01*
X64904763Y-94128571D02*
X64952382Y-94033333D01*
X65047620Y-93985714D01*
X65190477Y-93985714D01*
X65285715Y-94033333D01*
X65333334Y-94128571D01*
X65333334Y-94652381D01*
X65809524Y-94652381D02*
X65809524Y-93985714D01*
X65809524Y-94080952D02*
X65857143Y-94033333D01*
X65952381Y-93985714D01*
X66095239Y-93985714D01*
X66190477Y-94033333D01*
X66238096Y-94128571D01*
X66238096Y-94652381D01*
X66238096Y-94128571D02*
X66285715Y-94033333D01*
X66380953Y-93985714D01*
X66523810Y-93985714D01*
X66619048Y-94033333D01*
X66666667Y-94128571D01*
X66666667Y-94652381D01*
X62166667Y-96128571D02*
X61833333Y-96128571D01*
X61833333Y-96652381D02*
X61833333Y-95652381D01*
X62309524Y-95652381D01*
X63261905Y-96652381D02*
X62928571Y-96176190D01*
X62690476Y-96652381D02*
X62690476Y-95652381D01*
X63071429Y-95652381D01*
X63166667Y-95700000D01*
X63214286Y-95747619D01*
X63261905Y-95842857D01*
X63261905Y-95985714D01*
X63214286Y-96080952D01*
X63166667Y-96128571D01*
X63071429Y-96176190D01*
X62690476Y-96176190D01*
X64119048Y-95985714D02*
X64119048Y-96652381D01*
X63880952Y-95604762D02*
X63642857Y-96319048D01*
X64261905Y-96319048D01*
X61966666Y-98276190D02*
X61966666Y-98752381D01*
X61633333Y-97752381D02*
X61966666Y-98276190D01*
X62300000Y-97752381D01*
X63014286Y-98704762D02*
X62919048Y-98752381D01*
X62728571Y-98752381D01*
X62633333Y-98704762D01*
X62585714Y-98609524D01*
X62585714Y-98228571D01*
X62633333Y-98133333D01*
X62728571Y-98085714D01*
X62919048Y-98085714D01*
X63014286Y-98133333D01*
X63061905Y-98228571D01*
X63061905Y-98323810D01*
X62585714Y-98419048D01*
X63442857Y-98704762D02*
X63538095Y-98752381D01*
X63728571Y-98752381D01*
X63823810Y-98704762D01*
X63871429Y-98609524D01*
X63871429Y-98561905D01*
X63823810Y-98466667D01*
X63728571Y-98419048D01*
X63585714Y-98419048D01*
X63490476Y-98371429D01*
X63442857Y-98276190D01*
X63442857Y-98228571D01*
X63490476Y-98133333D01*
X63585714Y-98085714D01*
X63728571Y-98085714D01*
X63823810Y-98133333D01*
X62166666Y-100176190D02*
X62166666Y-100652381D01*
X61833333Y-99652381D02*
X62166666Y-100176190D01*
X62500000Y-99652381D01*
X63214286Y-100604762D02*
X63119048Y-100652381D01*
X62928571Y-100652381D01*
X62833333Y-100604762D01*
X62785714Y-100509524D01*
X62785714Y-100128571D01*
X62833333Y-100033333D01*
X62928571Y-99985714D01*
X63119048Y-99985714D01*
X63214286Y-100033333D01*
X63261905Y-100128571D01*
X63261905Y-100223810D01*
X62785714Y-100319048D01*
X63642857Y-100604762D02*
X63738095Y-100652381D01*
X63928571Y-100652381D01*
X64023810Y-100604762D01*
X64071429Y-100509524D01*
X64071429Y-100461905D01*
X64023810Y-100366667D01*
X63928571Y-100319048D01*
X63785714Y-100319048D01*
X63690476Y-100271429D01*
X63642857Y-100176190D01*
X63642857Y-100128571D01*
X63690476Y-100033333D01*
X63785714Y-99985714D01*
X63928571Y-99985714D01*
X64023810Y-100033333D01*
X62261905Y-102652381D02*
X62261905Y-101652381D01*
X62833334Y-102652381D01*
X62833334Y-101652381D01*
X63452381Y-102652381D02*
X63357143Y-102604762D01*
X63309524Y-102557143D01*
X63261905Y-102461905D01*
X63261905Y-102176190D01*
X63309524Y-102080952D01*
X63357143Y-102033333D01*
X63452381Y-101985714D01*
X63595239Y-101985714D01*
X63690477Y-102033333D01*
X63738096Y-102080952D01*
X63785715Y-102176190D01*
X63785715Y-102461905D01*
X63738096Y-102557143D01*
X63690477Y-102604762D01*
X63595239Y-102652381D01*
X63452381Y-102652381D01*
X62476191Y-104752381D02*
X61904762Y-104752381D01*
X62190476Y-104752381D02*
X62190476Y-103752381D01*
X62095238Y-103895238D01*
X62000000Y-103990476D01*
X61904762Y-104038095D01*
X63857143Y-103752381D02*
X64047620Y-103752381D01*
X64142858Y-103800000D01*
X64238096Y-103895238D01*
X64285715Y-104085714D01*
X64285715Y-104419048D01*
X64238096Y-104609524D01*
X64142858Y-104704762D01*
X64047620Y-104752381D01*
X63857143Y-104752381D01*
X63761905Y-104704762D01*
X63666667Y-104609524D01*
X63619048Y-104419048D01*
X63619048Y-104085714D01*
X63666667Y-103895238D01*
X63761905Y-103800000D01*
X63857143Y-103752381D01*
X64619048Y-104085714D02*
X65142858Y-104085714D01*
X64619048Y-104752381D01*
X65142858Y-104752381D01*
X61809524Y-106652381D02*
X61809524Y-105652381D01*
X61809524Y-106128571D02*
X62380953Y-106128571D01*
X62380953Y-106652381D02*
X62380953Y-105652381D01*
X62809524Y-106366667D02*
X63285715Y-106366667D01*
X62714286Y-106652381D02*
X63047619Y-105652381D01*
X63380953Y-106652381D01*
X63666667Y-106604762D02*
X63809524Y-106652381D01*
X64047620Y-106652381D01*
X64142858Y-106604762D01*
X64190477Y-106557143D01*
X64238096Y-106461905D01*
X64238096Y-106366667D01*
X64190477Y-106271429D01*
X64142858Y-106223810D01*
X64047620Y-106176190D01*
X63857143Y-106128571D01*
X63761905Y-106080952D01*
X63714286Y-106033333D01*
X63666667Y-105938095D01*
X63666667Y-105842857D01*
X63714286Y-105747619D01*
X63761905Y-105700000D01*
X63857143Y-105652381D01*
X64095239Y-105652381D01*
X64238096Y-105700000D01*
X65142858Y-106652381D02*
X64666667Y-106652381D01*
X64666667Y-105652381D01*
X66571430Y-106128571D02*
X66238096Y-106128571D01*
X66238096Y-106652381D02*
X66238096Y-105652381D01*
X66714287Y-105652381D01*
X67095239Y-106652381D02*
X67095239Y-105985714D01*
X67095239Y-105652381D02*
X67047620Y-105700000D01*
X67095239Y-105747619D01*
X67142858Y-105700000D01*
X67095239Y-105652381D01*
X67095239Y-105747619D01*
X67571429Y-105985714D02*
X67571429Y-106652381D01*
X67571429Y-106080952D02*
X67619048Y-106033333D01*
X67714286Y-105985714D01*
X67857144Y-105985714D01*
X67952382Y-106033333D01*
X68000001Y-106128571D01*
X68000001Y-106652381D01*
X68476191Y-106652381D02*
X68476191Y-105985714D01*
X68476191Y-105652381D02*
X68428572Y-105700000D01*
X68476191Y-105747619D01*
X68523810Y-105700000D01*
X68476191Y-105652381D01*
X68476191Y-105747619D01*
X68904762Y-106604762D02*
X69000000Y-106652381D01*
X69190476Y-106652381D01*
X69285715Y-106604762D01*
X69333334Y-106509524D01*
X69333334Y-106461905D01*
X69285715Y-106366667D01*
X69190476Y-106319048D01*
X69047619Y-106319048D01*
X68952381Y-106271429D01*
X68904762Y-106176190D01*
X68904762Y-106128571D01*
X68952381Y-106033333D01*
X69047619Y-105985714D01*
X69190476Y-105985714D01*
X69285715Y-106033333D01*
X69761905Y-106652381D02*
X69761905Y-105652381D01*
X70190477Y-106652381D02*
X70190477Y-106128571D01*
X70142858Y-106033333D01*
X70047620Y-105985714D01*
X69904762Y-105985714D01*
X69809524Y-106033333D01*
X69761905Y-106080952D01*
X62166666Y-108176190D02*
X62166666Y-108652381D01*
X61833333Y-107652381D02*
X62166666Y-108176190D01*
X62500000Y-107652381D01*
X63214286Y-108604762D02*
X63119048Y-108652381D01*
X62928571Y-108652381D01*
X62833333Y-108604762D01*
X62785714Y-108509524D01*
X62785714Y-108128571D01*
X62833333Y-108033333D01*
X62928571Y-107985714D01*
X63119048Y-107985714D01*
X63214286Y-108033333D01*
X63261905Y-108128571D01*
X63261905Y-108223810D01*
X62785714Y-108319048D01*
X63642857Y-108604762D02*
X63738095Y-108652381D01*
X63928571Y-108652381D01*
X64023810Y-108604762D01*
X64071429Y-108509524D01*
X64071429Y-108461905D01*
X64023810Y-108366667D01*
X63928571Y-108319048D01*
X63785714Y-108319048D01*
X63690476Y-108271429D01*
X63642857Y-108176190D01*
X63642857Y-108128571D01*
X63690476Y-108033333D01*
X63785714Y-107985714D01*
X63928571Y-107985714D01*
X64023810Y-108033333D01*
X62166666Y-110176190D02*
X62166666Y-110652381D01*
X61833333Y-109652381D02*
X62166666Y-110176190D01*
X62500000Y-109652381D01*
X63214286Y-110604762D02*
X63119048Y-110652381D01*
X62928571Y-110652381D01*
X62833333Y-110604762D01*
X62785714Y-110509524D01*
X62785714Y-110128571D01*
X62833333Y-110033333D01*
X62928571Y-109985714D01*
X63119048Y-109985714D01*
X63214286Y-110033333D01*
X63261905Y-110128571D01*
X63261905Y-110223810D01*
X62785714Y-110319048D01*
X63642857Y-110604762D02*
X63738095Y-110652381D01*
X63928571Y-110652381D01*
X64023810Y-110604762D01*
X64071429Y-110509524D01*
X64071429Y-110461905D01*
X64023810Y-110366667D01*
X63928571Y-110319048D01*
X63785714Y-110319048D01*
X63690476Y-110271429D01*
X63642857Y-110176190D01*
X63642857Y-110128571D01*
X63690476Y-110033333D01*
X63785714Y-109985714D01*
X63928571Y-109985714D01*
X64023810Y-110033333D01*
X62342857Y-111800000D02*
X62247619Y-111752381D01*
X62104762Y-111752381D01*
X61961904Y-111800000D01*
X61866666Y-111895238D01*
X61819047Y-111990476D01*
X61771428Y-112180952D01*
X61771428Y-112323810D01*
X61819047Y-112514286D01*
X61866666Y-112609524D01*
X61961904Y-112704762D01*
X62104762Y-112752381D01*
X62200000Y-112752381D01*
X62342857Y-112704762D01*
X62390476Y-112657143D01*
X62390476Y-112323810D01*
X62200000Y-112323810D01*
X62819047Y-112752381D02*
X62819047Y-112085714D01*
X62819047Y-112276190D02*
X62866666Y-112180952D01*
X62914285Y-112133333D01*
X63009523Y-112085714D01*
X63104762Y-112085714D01*
X63819048Y-112704762D02*
X63723810Y-112752381D01*
X63533333Y-112752381D01*
X63438095Y-112704762D01*
X63390476Y-112609524D01*
X63390476Y-112228571D01*
X63438095Y-112133333D01*
X63533333Y-112085714D01*
X63723810Y-112085714D01*
X63819048Y-112133333D01*
X63866667Y-112228571D01*
X63866667Y-112323810D01*
X63390476Y-112419048D01*
X64676191Y-112704762D02*
X64580953Y-112752381D01*
X64390476Y-112752381D01*
X64295238Y-112704762D01*
X64247619Y-112609524D01*
X64247619Y-112228571D01*
X64295238Y-112133333D01*
X64390476Y-112085714D01*
X64580953Y-112085714D01*
X64676191Y-112133333D01*
X64723810Y-112228571D01*
X64723810Y-112323810D01*
X64247619Y-112419048D01*
X65152381Y-112085714D02*
X65152381Y-112752381D01*
X65152381Y-112180952D02*
X65200000Y-112133333D01*
X65295238Y-112085714D01*
X65438096Y-112085714D01*
X65533334Y-112133333D01*
X65580953Y-112228571D01*
X65580953Y-112752381D01*
M02*
