G04 #@! TF.FileFunction,Soldermask,Bot*
%FSLAX46Y46*%
G04 Gerber Fmt 4.6, Leading zero omitted, Abs format (unit mm)*
G04 Created by KiCad (PCBNEW 4.0.4-stable) date 04/28/17 11:07:38*
%MOMM*%
%LPD*%
G01*
G04 APERTURE LIST*
%ADD10C,0.100000*%
%ADD11R,1.500000X1.250000*%
%ADD12O,1.524000X2.540000*%
%ADD13C,3.175000*%
%ADD14C,1.524000*%
%ADD15R,0.600000X1.500000*%
%ADD16R,1.250000X1.500000*%
%ADD17R,1.700000X1.700000*%
%ADD18O,1.700000X1.700000*%
%ADD19C,2.600000*%
%ADD20C,3.500000*%
%ADD21C,2.000000*%
%ADD22C,1.500000*%
%ADD23C,1.400000*%
G04 APERTURE END LIST*
D10*
D11*
X167680000Y-95830000D03*
X165180000Y-95830000D03*
D12*
X182710000Y-70180000D03*
X185250000Y-70180000D03*
X187790000Y-70180000D03*
X190330000Y-70180000D03*
X192870000Y-70180000D03*
X195410000Y-70180000D03*
X197950000Y-70180000D03*
X200490000Y-70180000D03*
X205570000Y-118440000D03*
X203030000Y-118440000D03*
X200490000Y-118440000D03*
X197950000Y-118440000D03*
X187790000Y-118440000D03*
X182710000Y-118440000D03*
X180170000Y-118440000D03*
X190330000Y-118440000D03*
X192870000Y-118440000D03*
X195410000Y-118440000D03*
X177630000Y-118440000D03*
X175090000Y-118440000D03*
X172550000Y-118440000D03*
X164930000Y-118440000D03*
X167470000Y-118440000D03*
X170010000Y-118440000D03*
X159850000Y-118440000D03*
X157310000Y-118440000D03*
X154770000Y-118440000D03*
X149690000Y-118440000D03*
X147150000Y-118440000D03*
X177630000Y-70180000D03*
X175090000Y-70180000D03*
X172550000Y-70180000D03*
X170010000Y-70180000D03*
X167470000Y-70180000D03*
X164930000Y-70180000D03*
X162390000Y-70180000D03*
X159850000Y-70180000D03*
X155786000Y-70180000D03*
X153246000Y-70180000D03*
X150706000Y-70180000D03*
X148166000Y-70180000D03*
X145626000Y-70180000D03*
X143086000Y-70180000D03*
X140546000Y-70180000D03*
X138006000Y-70180000D03*
X152230000Y-118440000D03*
D13*
X210650000Y-118440000D03*
X204300000Y-70180000D03*
X129370000Y-70180000D03*
X128100000Y-118440000D03*
D14*
X208110000Y-72720000D03*
X210650000Y-72720000D03*
X208110000Y-75260000D03*
X210650000Y-75260000D03*
X208110000Y-77800000D03*
X210650000Y-77800000D03*
X208110000Y-80340000D03*
X210650000Y-80340000D03*
X208110000Y-70180000D03*
X210650000Y-70180000D03*
X210650000Y-82880000D03*
X208110000Y-82880000D03*
X208110000Y-85420000D03*
X210650000Y-85420000D03*
X208110000Y-87960000D03*
X210650000Y-87960000D03*
X208110000Y-90500000D03*
X210650000Y-90500000D03*
X208110000Y-93040000D03*
X210650000Y-93040000D03*
X208110000Y-95580000D03*
X210650000Y-95580000D03*
X208110000Y-98120000D03*
X210650000Y-98120000D03*
X208110000Y-100660000D03*
X210650000Y-100660000D03*
X208110000Y-103200000D03*
X210650000Y-103200000D03*
X208110000Y-105740000D03*
X210650000Y-105740000D03*
X208110000Y-108280000D03*
X210650000Y-108280000D03*
X208110000Y-110820000D03*
X210650000Y-110820000D03*
X208110000Y-113360000D03*
X210650000Y-113360000D03*
X177630000Y-90500000D03*
X180170000Y-90500000D03*
X177630000Y-93040000D03*
X180170000Y-93040000D03*
X177630000Y-95580000D03*
X180170000Y-95580000D03*
D13*
X179916000Y-85420000D03*
X180170000Y-113360000D03*
D12*
X144610000Y-118440000D03*
X142070000Y-118440000D03*
X135466000Y-70180000D03*
X132926000Y-70180000D03*
D15*
X128240000Y-96670000D03*
X129510000Y-96670000D03*
X130780000Y-96670000D03*
X132050000Y-96670000D03*
X133320000Y-96670000D03*
X134590000Y-96670000D03*
X135860000Y-96670000D03*
X137130000Y-96670000D03*
X137130000Y-102070000D03*
X135860000Y-102070000D03*
X134590000Y-102070000D03*
X133320000Y-102070000D03*
X132050000Y-102070000D03*
X130780000Y-102070000D03*
X129510000Y-102070000D03*
X128240000Y-102070000D03*
D11*
X135800000Y-94340000D03*
X133300000Y-94340000D03*
D16*
X125770000Y-103950000D03*
X125770000Y-101450000D03*
D11*
X127780000Y-104100000D03*
X130280000Y-104100000D03*
X169570000Y-79490000D03*
X172070000Y-79490000D03*
D16*
X125770000Y-96700000D03*
X125770000Y-99200000D03*
D11*
X128530000Y-94320000D03*
X131030000Y-94320000D03*
D17*
X182950000Y-107970000D03*
D18*
X182950000Y-105430000D03*
X185490000Y-107970000D03*
X185490000Y-105430000D03*
X188030000Y-107970000D03*
X188030000Y-105430000D03*
X190570000Y-107970000D03*
X190570000Y-105430000D03*
X193110000Y-107970000D03*
X193110000Y-105430000D03*
X195650000Y-107970000D03*
X195650000Y-105430000D03*
X198190000Y-107970000D03*
X198190000Y-105430000D03*
X200730000Y-107970000D03*
X200730000Y-105430000D03*
D17*
X139660000Y-114040000D03*
D18*
X139660000Y-111500000D03*
X142200000Y-114040000D03*
X142200000Y-111500000D03*
D17*
X142360000Y-74350000D03*
D18*
X142360000Y-76890000D03*
X139820000Y-74350000D03*
X139820000Y-76890000D03*
D19*
X110370000Y-89560000D03*
X110370000Y-84480000D03*
X110370000Y-94640000D03*
D17*
X119010000Y-86160000D03*
D18*
X121550000Y-86160000D03*
X124090000Y-86160000D03*
D19*
X110280000Y-71910000D03*
X110280000Y-76990000D03*
D20*
X112630000Y-105910000D03*
X112630000Y-117410000D03*
D21*
X109580000Y-103860000D03*
X109580000Y-119460000D03*
D22*
X121520000Y-116105000D03*
X121520000Y-113565000D03*
X121520000Y-111025000D03*
X121520000Y-108485000D03*
X118980000Y-114835000D03*
X118980000Y-112295000D03*
X118980000Y-109755000D03*
X118980000Y-107215000D03*
D17*
X127800000Y-86210000D03*
D18*
X130340000Y-86210000D03*
X132880000Y-86210000D03*
D17*
X182970000Y-80050000D03*
D18*
X182970000Y-77510000D03*
X185510000Y-80050000D03*
X185510000Y-77510000D03*
X188050000Y-80050000D03*
X188050000Y-77510000D03*
X190590000Y-80050000D03*
X190590000Y-77510000D03*
X193130000Y-80050000D03*
X193130000Y-77510000D03*
X195670000Y-80050000D03*
X195670000Y-77510000D03*
X198210000Y-80050000D03*
X198210000Y-77510000D03*
X200750000Y-80050000D03*
X200750000Y-77510000D03*
D23*
X146500000Y-83320000D03*
X148500000Y-83320000D03*
X150500000Y-83320000D03*
X152500000Y-83320000D03*
X154500000Y-83320000D03*
X156500000Y-83320000D03*
X158500000Y-83320000D03*
X160500000Y-83320000D03*
X162500000Y-83320000D03*
X164500000Y-83320000D03*
X164500000Y-105320000D03*
X162500000Y-105320000D03*
X160500000Y-105320000D03*
X158500000Y-105320000D03*
X156500000Y-105320000D03*
X154500000Y-105320000D03*
X152500000Y-105320000D03*
X150500000Y-105320000D03*
X148500000Y-105320000D03*
X146500000Y-105320000D03*
M02*
