G04 #@! TF.FileFunction,Legend,Top*
%FSLAX46Y46*%
G04 Gerber Fmt 4.6, Leading zero omitted, Abs format (unit mm)*
G04 Created by KiCad (PCBNEW 4.0.4-stable) date 04/28/17 11:07:38*
%MOMM*%
%LPD*%
G01*
G04 APERTURE LIST*
%ADD10C,0.100000*%
%ADD11C,0.250000*%
%ADD12C,0.300000*%
%ADD13C,0.200000*%
%ADD14C,0.120000*%
%ADD15C,0.381000*%
%ADD16C,0.150000*%
%ADD17C,0.010000*%
G04 APERTURE END LIST*
D10*
D11*
X172147619Y-73785714D02*
X172100000Y-73738095D01*
X172052381Y-73642857D01*
X172052381Y-73404761D01*
X172100000Y-73309523D01*
X172147619Y-73261904D01*
X172242857Y-73214285D01*
X172338095Y-73214285D01*
X172480952Y-73261904D01*
X173052381Y-73833333D01*
X173052381Y-73214285D01*
X169552381Y-73733333D02*
X169552381Y-73114285D01*
X169933333Y-73447619D01*
X169933333Y-73304761D01*
X169980952Y-73209523D01*
X170028571Y-73161904D01*
X170123810Y-73114285D01*
X170361905Y-73114285D01*
X170457143Y-73161904D01*
X170504762Y-73209523D01*
X170552381Y-73304761D01*
X170552381Y-73590476D01*
X170504762Y-73685714D01*
X170457143Y-73733333D01*
X167085714Y-73309523D02*
X167752381Y-73309523D01*
X166704762Y-73547619D02*
X167419048Y-73785714D01*
X167419048Y-73166666D01*
X164352381Y-73061904D02*
X164352381Y-73538095D01*
X164828571Y-73585714D01*
X164780952Y-73538095D01*
X164733333Y-73442857D01*
X164733333Y-73204761D01*
X164780952Y-73109523D01*
X164828571Y-73061904D01*
X164923810Y-73014285D01*
X165161905Y-73014285D01*
X165257143Y-73061904D01*
X165304762Y-73109523D01*
X165352381Y-73204761D01*
X165352381Y-73442857D01*
X165304762Y-73538095D01*
X165257143Y-73585714D01*
X161952381Y-73209523D02*
X161952381Y-73400000D01*
X162000000Y-73495238D01*
X162047619Y-73542857D01*
X162190476Y-73638095D01*
X162380952Y-73685714D01*
X162761905Y-73685714D01*
X162857143Y-73638095D01*
X162904762Y-73590476D01*
X162952381Y-73495238D01*
X162952381Y-73304761D01*
X162904762Y-73209523D01*
X162857143Y-73161904D01*
X162761905Y-73114285D01*
X162523810Y-73114285D01*
X162428571Y-73161904D01*
X162380952Y-73209523D01*
X162333333Y-73304761D01*
X162333333Y-73495238D01*
X162380952Y-73590476D01*
X162428571Y-73638095D01*
X162523810Y-73685714D01*
D12*
X144478571Y-100299999D02*
X145978571Y-99299999D01*
X144478571Y-99299999D02*
X145978571Y-100299999D01*
X145978571Y-98728571D02*
X144478571Y-98728571D01*
X145050000Y-98728571D02*
X144978571Y-98585714D01*
X144978571Y-98300000D01*
X145050000Y-98157143D01*
X145121429Y-98085714D01*
X145264286Y-98014285D01*
X145692857Y-98014285D01*
X145835714Y-98085714D01*
X145907143Y-98157143D01*
X145978571Y-98300000D01*
X145978571Y-98585714D01*
X145907143Y-98728571D01*
X145907143Y-96800000D02*
X145978571Y-96942857D01*
X145978571Y-97228571D01*
X145907143Y-97371428D01*
X145764286Y-97442857D01*
X145192857Y-97442857D01*
X145050000Y-97371428D01*
X144978571Y-97228571D01*
X144978571Y-96942857D01*
X145050000Y-96800000D01*
X145192857Y-96728571D01*
X145335714Y-96728571D01*
X145478571Y-97442857D01*
X145907143Y-95514286D02*
X145978571Y-95657143D01*
X145978571Y-95942857D01*
X145907143Y-96085714D01*
X145764286Y-96157143D01*
X145192857Y-96157143D01*
X145050000Y-96085714D01*
X144978571Y-95942857D01*
X144978571Y-95657143D01*
X145050000Y-95514286D01*
X145192857Y-95442857D01*
X145335714Y-95442857D01*
X145478571Y-96157143D01*
X145907143Y-93728572D02*
X145978571Y-93514286D01*
X145978571Y-93157143D01*
X145907143Y-93014286D01*
X145835714Y-92942857D01*
X145692857Y-92871429D01*
X145550000Y-92871429D01*
X145407143Y-92942857D01*
X145335714Y-93014286D01*
X145264286Y-93157143D01*
X145192857Y-93442857D01*
X145121429Y-93585715D01*
X145050000Y-93657143D01*
X144907143Y-93728572D01*
X144764286Y-93728572D01*
X144621429Y-93657143D01*
X144550000Y-93585715D01*
X144478571Y-93442857D01*
X144478571Y-93085715D01*
X144550000Y-92871429D01*
X145978571Y-92228572D02*
X144478571Y-92228572D01*
X145978571Y-91585715D02*
X145192857Y-91585715D01*
X145050000Y-91657144D01*
X144978571Y-91800001D01*
X144978571Y-92014286D01*
X145050000Y-92157144D01*
X145121429Y-92228572D01*
X145978571Y-90871429D02*
X144978571Y-90871429D01*
X144478571Y-90871429D02*
X144550000Y-90942858D01*
X144621429Y-90871429D01*
X144550000Y-90800001D01*
X144478571Y-90871429D01*
X144621429Y-90871429D01*
X145907143Y-89585715D02*
X145978571Y-89728572D01*
X145978571Y-90014286D01*
X145907143Y-90157143D01*
X145764286Y-90228572D01*
X145192857Y-90228572D01*
X145050000Y-90157143D01*
X144978571Y-90014286D01*
X144978571Y-89728572D01*
X145050000Y-89585715D01*
X145192857Y-89514286D01*
X145335714Y-89514286D01*
X145478571Y-90228572D01*
X145978571Y-88657143D02*
X145907143Y-88800001D01*
X145764286Y-88871429D01*
X144478571Y-88871429D01*
X145978571Y-87442858D02*
X144478571Y-87442858D01*
X145907143Y-87442858D02*
X145978571Y-87585715D01*
X145978571Y-87871429D01*
X145907143Y-88014287D01*
X145835714Y-88085715D01*
X145692857Y-88157144D01*
X145264286Y-88157144D01*
X145121429Y-88085715D01*
X145050000Y-88014287D01*
X144978571Y-87871429D01*
X144978571Y-87585715D01*
X145050000Y-87442858D01*
D13*
X201061905Y-75152381D02*
X201061905Y-75609524D01*
X201061905Y-75380953D02*
X200261905Y-75380953D01*
X200376190Y-75457143D01*
X200452381Y-75533334D01*
X200490476Y-75609524D01*
X200261905Y-74466667D02*
X200261905Y-74619048D01*
X200300000Y-74695238D01*
X200338095Y-74733333D01*
X200452381Y-74809524D01*
X200604762Y-74847619D01*
X200909524Y-74847619D01*
X200985714Y-74809524D01*
X201023810Y-74771429D01*
X201061905Y-74695238D01*
X201061905Y-74542857D01*
X201023810Y-74466667D01*
X200985714Y-74428571D01*
X200909524Y-74390476D01*
X200719048Y-74390476D01*
X200642857Y-74428571D01*
X200604762Y-74466667D01*
X200566667Y-74542857D01*
X200566667Y-74695238D01*
X200604762Y-74771429D01*
X200642857Y-74809524D01*
X200719048Y-74847619D01*
X198561905Y-75152381D02*
X198561905Y-75609524D01*
X198561905Y-75380953D02*
X197761905Y-75380953D01*
X197876190Y-75457143D01*
X197952381Y-75533334D01*
X197990476Y-75609524D01*
X197761905Y-74428571D02*
X197761905Y-74809524D01*
X198142857Y-74847619D01*
X198104762Y-74809524D01*
X198066667Y-74733333D01*
X198066667Y-74542857D01*
X198104762Y-74466667D01*
X198142857Y-74428571D01*
X198219048Y-74390476D01*
X198409524Y-74390476D01*
X198485714Y-74428571D01*
X198523810Y-74466667D01*
X198561905Y-74542857D01*
X198561905Y-74733333D01*
X198523810Y-74809524D01*
X198485714Y-74847619D01*
X195961905Y-75152381D02*
X195961905Y-75609524D01*
X195961905Y-75380953D02*
X195161905Y-75380953D01*
X195276190Y-75457143D01*
X195352381Y-75533334D01*
X195390476Y-75609524D01*
X195428571Y-74466667D02*
X195961905Y-74466667D01*
X195123810Y-74657143D02*
X195695238Y-74847619D01*
X195695238Y-74352381D01*
X193561905Y-75252381D02*
X193561905Y-75709524D01*
X193561905Y-75480953D02*
X192761905Y-75480953D01*
X192876190Y-75557143D01*
X192952381Y-75633334D01*
X192990476Y-75709524D01*
X192761905Y-74985714D02*
X192761905Y-74490476D01*
X193066667Y-74757143D01*
X193066667Y-74642857D01*
X193104762Y-74566667D01*
X193142857Y-74528571D01*
X193219048Y-74490476D01*
X193409524Y-74490476D01*
X193485714Y-74528571D01*
X193523810Y-74566667D01*
X193561905Y-74642857D01*
X193561905Y-74871429D01*
X193523810Y-74947619D01*
X193485714Y-74985714D01*
X190961905Y-75352381D02*
X190961905Y-75809524D01*
X190961905Y-75580953D02*
X190161905Y-75580953D01*
X190276190Y-75657143D01*
X190352381Y-75733334D01*
X190390476Y-75809524D01*
X190238095Y-75047619D02*
X190200000Y-75009524D01*
X190161905Y-74933333D01*
X190161905Y-74742857D01*
X190200000Y-74666667D01*
X190238095Y-74628571D01*
X190314286Y-74590476D01*
X190390476Y-74590476D01*
X190504762Y-74628571D01*
X190961905Y-75085714D01*
X190961905Y-74590476D01*
X188261905Y-75452381D02*
X188261905Y-75909524D01*
X188261905Y-75680953D02*
X187461905Y-75680953D01*
X187576190Y-75757143D01*
X187652381Y-75833334D01*
X187690476Y-75909524D01*
X188261905Y-74690476D02*
X188261905Y-75147619D01*
X188261905Y-74919048D02*
X187461905Y-74919048D01*
X187576190Y-74995238D01*
X187652381Y-75071429D01*
X187690476Y-75147619D01*
X185861905Y-75552381D02*
X185861905Y-76009524D01*
X185861905Y-75780953D02*
X185061905Y-75780953D01*
X185176190Y-75857143D01*
X185252381Y-75933334D01*
X185290476Y-76009524D01*
X185061905Y-75057143D02*
X185061905Y-74980952D01*
X185100000Y-74904762D01*
X185138095Y-74866667D01*
X185214286Y-74828571D01*
X185366667Y-74790476D01*
X185557143Y-74790476D01*
X185709524Y-74828571D01*
X185785714Y-74866667D01*
X185823810Y-74904762D01*
X185861905Y-74980952D01*
X185861905Y-75057143D01*
X185823810Y-75133333D01*
X185785714Y-75171429D01*
X185709524Y-75209524D01*
X185557143Y-75247619D01*
X185366667Y-75247619D01*
X185214286Y-75209524D01*
X185138095Y-75171429D01*
X185100000Y-75133333D01*
X185061905Y-75057143D01*
X183261905Y-75552381D02*
X183261905Y-75400000D01*
X183223810Y-75323809D01*
X183185714Y-75285714D01*
X183071429Y-75209523D01*
X182919048Y-75171428D01*
X182614286Y-75171428D01*
X182538095Y-75209523D01*
X182500000Y-75247619D01*
X182461905Y-75323809D01*
X182461905Y-75476190D01*
X182500000Y-75552381D01*
X182538095Y-75590476D01*
X182614286Y-75628571D01*
X182804762Y-75628571D01*
X182880952Y-75590476D01*
X182919048Y-75552381D01*
X182957143Y-75476190D01*
X182957143Y-75323809D01*
X182919048Y-75247619D01*
X182880952Y-75209523D01*
X182804762Y-75171428D01*
X160861905Y-80852381D02*
X160861905Y-81309524D01*
X160861905Y-81080953D02*
X160061905Y-81080953D01*
X160176190Y-81157143D01*
X160252381Y-81233334D01*
X160290476Y-81309524D01*
X160061905Y-80166667D02*
X160061905Y-80319048D01*
X160100000Y-80395238D01*
X160138095Y-80433333D01*
X160252381Y-80509524D01*
X160404762Y-80547619D01*
X160709524Y-80547619D01*
X160785714Y-80509524D01*
X160823810Y-80471429D01*
X160861905Y-80395238D01*
X160861905Y-80242857D01*
X160823810Y-80166667D01*
X160785714Y-80128571D01*
X160709524Y-80090476D01*
X160519048Y-80090476D01*
X160442857Y-80128571D01*
X160404762Y-80166667D01*
X160366667Y-80242857D01*
X160366667Y-80395238D01*
X160404762Y-80471429D01*
X160442857Y-80509524D01*
X160519048Y-80547619D01*
X158761905Y-80852381D02*
X158761905Y-81309524D01*
X158761905Y-81080953D02*
X157961905Y-81080953D01*
X158076190Y-81157143D01*
X158152381Y-81233334D01*
X158190476Y-81309524D01*
X157961905Y-80128571D02*
X157961905Y-80509524D01*
X158342857Y-80547619D01*
X158304762Y-80509524D01*
X158266667Y-80433333D01*
X158266667Y-80242857D01*
X158304762Y-80166667D01*
X158342857Y-80128571D01*
X158419048Y-80090476D01*
X158609524Y-80090476D01*
X158685714Y-80128571D01*
X158723810Y-80166667D01*
X158761905Y-80242857D01*
X158761905Y-80433333D01*
X158723810Y-80509524D01*
X158685714Y-80547619D01*
X156761905Y-80952381D02*
X156761905Y-81409524D01*
X156761905Y-81180953D02*
X155961905Y-81180953D01*
X156076190Y-81257143D01*
X156152381Y-81333334D01*
X156190476Y-81409524D01*
X156228571Y-80266667D02*
X156761905Y-80266667D01*
X155923810Y-80457143D02*
X156495238Y-80647619D01*
X156495238Y-80152381D01*
X154661905Y-80952381D02*
X154661905Y-81409524D01*
X154661905Y-81180953D02*
X153861905Y-81180953D01*
X153976190Y-81257143D01*
X154052381Y-81333334D01*
X154090476Y-81409524D01*
X153861905Y-80685714D02*
X153861905Y-80190476D01*
X154166667Y-80457143D01*
X154166667Y-80342857D01*
X154204762Y-80266667D01*
X154242857Y-80228571D01*
X154319048Y-80190476D01*
X154509524Y-80190476D01*
X154585714Y-80228571D01*
X154623810Y-80266667D01*
X154661905Y-80342857D01*
X154661905Y-80571429D01*
X154623810Y-80647619D01*
X154585714Y-80685714D01*
X152761905Y-80952381D02*
X152761905Y-81409524D01*
X152761905Y-81180953D02*
X151961905Y-81180953D01*
X152076190Y-81257143D01*
X152152381Y-81333334D01*
X152190476Y-81409524D01*
X152038095Y-80647619D02*
X152000000Y-80609524D01*
X151961905Y-80533333D01*
X151961905Y-80342857D01*
X152000000Y-80266667D01*
X152038095Y-80228571D01*
X152114286Y-80190476D01*
X152190476Y-80190476D01*
X152304762Y-80228571D01*
X152761905Y-80685714D01*
X152761905Y-80190476D01*
X150661905Y-81052381D02*
X150661905Y-81509524D01*
X150661905Y-81280953D02*
X149861905Y-81280953D01*
X149976190Y-81357143D01*
X150052381Y-81433334D01*
X150090476Y-81509524D01*
X150661905Y-80290476D02*
X150661905Y-80747619D01*
X150661905Y-80519048D02*
X149861905Y-80519048D01*
X149976190Y-80595238D01*
X150052381Y-80671429D01*
X150090476Y-80747619D01*
X148761905Y-81152381D02*
X148761905Y-81609524D01*
X148761905Y-81380953D02*
X147961905Y-81380953D01*
X148076190Y-81457143D01*
X148152381Y-81533334D01*
X148190476Y-81609524D01*
X147961905Y-80657143D02*
X147961905Y-80580952D01*
X148000000Y-80504762D01*
X148038095Y-80466667D01*
X148114286Y-80428571D01*
X148266667Y-80390476D01*
X148457143Y-80390476D01*
X148609524Y-80428571D01*
X148685714Y-80466667D01*
X148723810Y-80504762D01*
X148761905Y-80580952D01*
X148761905Y-80657143D01*
X148723810Y-80733333D01*
X148685714Y-80771429D01*
X148609524Y-80809524D01*
X148457143Y-80847619D01*
X148266667Y-80847619D01*
X148114286Y-80809524D01*
X148038095Y-80771429D01*
X148000000Y-80733333D01*
X147961905Y-80657143D01*
X146861905Y-80852381D02*
X146861905Y-80700000D01*
X146823810Y-80623809D01*
X146785714Y-80585714D01*
X146671429Y-80509523D01*
X146519048Y-80471428D01*
X146214286Y-80471428D01*
X146138095Y-80509523D01*
X146100000Y-80547619D01*
X146061905Y-80623809D01*
X146061905Y-80776190D01*
X146100000Y-80852381D01*
X146138095Y-80890476D01*
X146214286Y-80928571D01*
X146404762Y-80928571D01*
X146480952Y-80890476D01*
X146519048Y-80852381D01*
X146557143Y-80776190D01*
X146557143Y-80623809D01*
X146519048Y-80547619D01*
X146480952Y-80509523D01*
X146404762Y-80471428D01*
X162404762Y-107676190D02*
X162366667Y-107752381D01*
X162328571Y-107790476D01*
X162252381Y-107828571D01*
X162214286Y-107828571D01*
X162138095Y-107790476D01*
X162100000Y-107752381D01*
X162061905Y-107676190D01*
X162061905Y-107523809D01*
X162100000Y-107447619D01*
X162138095Y-107409523D01*
X162214286Y-107371428D01*
X162252381Y-107371428D01*
X162328571Y-107409523D01*
X162366667Y-107447619D01*
X162404762Y-107523809D01*
X162404762Y-107676190D01*
X162442857Y-107752381D01*
X162480952Y-107790476D01*
X162557143Y-107828571D01*
X162709524Y-107828571D01*
X162785714Y-107790476D01*
X162823810Y-107752381D01*
X162861905Y-107676190D01*
X162861905Y-107523809D01*
X162823810Y-107447619D01*
X162785714Y-107409523D01*
X162709524Y-107371428D01*
X162557143Y-107371428D01*
X162480952Y-107409523D01*
X162442857Y-107447619D01*
X162404762Y-107523809D01*
X160161905Y-107766666D02*
X160161905Y-107233333D01*
X160961905Y-107576190D01*
X158361905Y-107347619D02*
X158361905Y-107500000D01*
X158400000Y-107576190D01*
X158438095Y-107614285D01*
X158552381Y-107690476D01*
X158704762Y-107728571D01*
X159009524Y-107728571D01*
X159085714Y-107690476D01*
X159123810Y-107652381D01*
X159161905Y-107576190D01*
X159161905Y-107423809D01*
X159123810Y-107347619D01*
X159085714Y-107309523D01*
X159009524Y-107271428D01*
X158819048Y-107271428D01*
X158742857Y-107309523D01*
X158704762Y-107347619D01*
X158666667Y-107423809D01*
X158666667Y-107576190D01*
X158704762Y-107652381D01*
X158742857Y-107690476D01*
X158819048Y-107728571D01*
X156361905Y-107309523D02*
X156361905Y-107690476D01*
X156742857Y-107728571D01*
X156704762Y-107690476D01*
X156666667Y-107614285D01*
X156666667Y-107423809D01*
X156704762Y-107347619D01*
X156742857Y-107309523D01*
X156819048Y-107271428D01*
X157009524Y-107271428D01*
X157085714Y-107309523D01*
X157123810Y-107347619D01*
X157161905Y-107423809D01*
X157161905Y-107614285D01*
X157123810Y-107690476D01*
X157085714Y-107728571D01*
X154428571Y-107447619D02*
X154961905Y-107447619D01*
X154123810Y-107638095D02*
X154695238Y-107828571D01*
X154695238Y-107333333D01*
X152161905Y-107866666D02*
X152161905Y-107371428D01*
X152466667Y-107638095D01*
X152466667Y-107523809D01*
X152504762Y-107447619D01*
X152542857Y-107409523D01*
X152619048Y-107371428D01*
X152809524Y-107371428D01*
X152885714Y-107409523D01*
X152923810Y-107447619D01*
X152961905Y-107523809D01*
X152961905Y-107752381D01*
X152923810Y-107828571D01*
X152885714Y-107866666D01*
X150138095Y-107828571D02*
X150100000Y-107790476D01*
X150061905Y-107714285D01*
X150061905Y-107523809D01*
X150100000Y-107447619D01*
X150138095Y-107409523D01*
X150214286Y-107371428D01*
X150290476Y-107371428D01*
X150404762Y-107409523D01*
X150861905Y-107866666D01*
X150861905Y-107371428D01*
X148861905Y-107371428D02*
X148861905Y-107828571D01*
X148861905Y-107600000D02*
X148061905Y-107600000D01*
X148176190Y-107676190D01*
X148252381Y-107752381D01*
X148290476Y-107828571D01*
D11*
X175452381Y-73014285D02*
X175452381Y-73585714D01*
X175452381Y-73300000D02*
X174452381Y-73300000D01*
X174595238Y-73395238D01*
X174690476Y-73490476D01*
X174738095Y-73585714D01*
X177666667Y-115914286D02*
X177666667Y-115438095D01*
X177952381Y-116009524D02*
X176952381Y-115676191D01*
X177952381Y-115342857D01*
X177952381Y-115009524D02*
X176952381Y-115009524D01*
X176952381Y-114771429D01*
X177000000Y-114628571D01*
X177095238Y-114533333D01*
X177190476Y-114485714D01*
X177380952Y-114438095D01*
X177523810Y-114438095D01*
X177714286Y-114485714D01*
X177809524Y-114533333D01*
X177904762Y-114628571D01*
X177952381Y-114771429D01*
X177952381Y-115009524D01*
X176952381Y-113533333D02*
X176952381Y-114009524D01*
X177428571Y-114057143D01*
X177380952Y-114009524D01*
X177333333Y-113914286D01*
X177333333Y-113676190D01*
X177380952Y-113580952D01*
X177428571Y-113533333D01*
X177523810Y-113485714D01*
X177761905Y-113485714D01*
X177857143Y-113533333D01*
X177904762Y-113580952D01*
X177952381Y-113676190D01*
X177952381Y-113914286D01*
X177904762Y-114009524D01*
X177857143Y-114057143D01*
X175166667Y-115914286D02*
X175166667Y-115438095D01*
X175452381Y-116009524D02*
X174452381Y-115676191D01*
X175452381Y-115342857D01*
X175452381Y-115009524D02*
X174452381Y-115009524D01*
X174452381Y-114771429D01*
X174500000Y-114628571D01*
X174595238Y-114533333D01*
X174690476Y-114485714D01*
X174880952Y-114438095D01*
X175023810Y-114438095D01*
X175214286Y-114485714D01*
X175309524Y-114533333D01*
X175404762Y-114628571D01*
X175452381Y-114771429D01*
X175452381Y-115009524D01*
X174785714Y-113580952D02*
X175452381Y-113580952D01*
X174404762Y-113819048D02*
X175119048Y-114057143D01*
X175119048Y-113438095D01*
X172566667Y-115914286D02*
X172566667Y-115438095D01*
X172852381Y-116009524D02*
X171852381Y-115676191D01*
X172852381Y-115342857D01*
X172852381Y-115009524D02*
X171852381Y-115009524D01*
X171852381Y-114771429D01*
X171900000Y-114628571D01*
X171995238Y-114533333D01*
X172090476Y-114485714D01*
X172280952Y-114438095D01*
X172423810Y-114438095D01*
X172614286Y-114485714D01*
X172709524Y-114533333D01*
X172804762Y-114628571D01*
X172852381Y-114771429D01*
X172852381Y-115009524D01*
X171852381Y-114104762D02*
X171852381Y-113485714D01*
X172233333Y-113819048D01*
X172233333Y-113676190D01*
X172280952Y-113580952D01*
X172328571Y-113533333D01*
X172423810Y-113485714D01*
X172661905Y-113485714D01*
X172757143Y-113533333D01*
X172804762Y-113580952D01*
X172852381Y-113676190D01*
X172852381Y-113961905D01*
X172804762Y-114057143D01*
X172757143Y-114104762D01*
X170066667Y-115914286D02*
X170066667Y-115438095D01*
X170352381Y-116009524D02*
X169352381Y-115676191D01*
X170352381Y-115342857D01*
X170352381Y-115009524D02*
X169352381Y-115009524D01*
X169352381Y-114771429D01*
X169400000Y-114628571D01*
X169495238Y-114533333D01*
X169590476Y-114485714D01*
X169780952Y-114438095D01*
X169923810Y-114438095D01*
X170114286Y-114485714D01*
X170209524Y-114533333D01*
X170304762Y-114628571D01*
X170352381Y-114771429D01*
X170352381Y-115009524D01*
X169447619Y-114057143D02*
X169400000Y-114009524D01*
X169352381Y-113914286D01*
X169352381Y-113676190D01*
X169400000Y-113580952D01*
X169447619Y-113533333D01*
X169542857Y-113485714D01*
X169638095Y-113485714D01*
X169780952Y-113533333D01*
X170352381Y-114104762D01*
X170352381Y-113485714D01*
X167566667Y-115914286D02*
X167566667Y-115438095D01*
X167852381Y-116009524D02*
X166852381Y-115676191D01*
X167852381Y-115342857D01*
X167852381Y-115009524D02*
X166852381Y-115009524D01*
X166852381Y-114771429D01*
X166900000Y-114628571D01*
X166995238Y-114533333D01*
X167090476Y-114485714D01*
X167280952Y-114438095D01*
X167423810Y-114438095D01*
X167614286Y-114485714D01*
X167709524Y-114533333D01*
X167804762Y-114628571D01*
X167852381Y-114771429D01*
X167852381Y-115009524D01*
X167852381Y-113485714D02*
X167852381Y-114057143D01*
X167852381Y-113771429D02*
X166852381Y-113771429D01*
X166995238Y-113866667D01*
X167090476Y-113961905D01*
X167138095Y-114057143D01*
X156900000Y-115061904D02*
X156852381Y-115157142D01*
X156852381Y-115299999D01*
X156900000Y-115442857D01*
X156995238Y-115538095D01*
X157090476Y-115585714D01*
X157280952Y-115633333D01*
X157423810Y-115633333D01*
X157614286Y-115585714D01*
X157709524Y-115538095D01*
X157804762Y-115442857D01*
X157852381Y-115299999D01*
X157852381Y-115204761D01*
X157804762Y-115061904D01*
X157757143Y-115014285D01*
X157423810Y-115014285D01*
X157423810Y-115204761D01*
X157852381Y-114585714D02*
X156852381Y-114585714D01*
X157852381Y-114014285D01*
X156852381Y-114014285D01*
X157852381Y-113538095D02*
X156852381Y-113538095D01*
X156852381Y-113300000D01*
X156900000Y-113157142D01*
X156995238Y-113061904D01*
X157090476Y-113014285D01*
X157280952Y-112966666D01*
X157423810Y-112966666D01*
X157614286Y-113014285D01*
X157709524Y-113061904D01*
X157804762Y-113157142D01*
X157852381Y-113300000D01*
X157852381Y-113538095D01*
X159252381Y-115876190D02*
X160252381Y-115542857D01*
X159252381Y-115209523D01*
X160347619Y-115114285D02*
X160347619Y-114352380D01*
X160252381Y-114114285D02*
X159252381Y-114114285D01*
X160252381Y-113638095D02*
X159252381Y-113638095D01*
X160252381Y-113066666D01*
X159252381Y-113066666D01*
X154400000Y-115061904D02*
X154352381Y-115157142D01*
X154352381Y-115299999D01*
X154400000Y-115442857D01*
X154495238Y-115538095D01*
X154590476Y-115585714D01*
X154780952Y-115633333D01*
X154923810Y-115633333D01*
X155114286Y-115585714D01*
X155209524Y-115538095D01*
X155304762Y-115442857D01*
X155352381Y-115299999D01*
X155352381Y-115204761D01*
X155304762Y-115061904D01*
X155257143Y-115014285D01*
X154923810Y-115014285D01*
X154923810Y-115204761D01*
X155352381Y-114585714D02*
X154352381Y-114585714D01*
X155352381Y-114014285D01*
X154352381Y-114014285D01*
X155352381Y-113538095D02*
X154352381Y-113538095D01*
X154352381Y-113300000D01*
X154400000Y-113157142D01*
X154495238Y-113061904D01*
X154590476Y-113014285D01*
X154780952Y-112966666D01*
X154923810Y-112966666D01*
X155114286Y-113014285D01*
X155209524Y-113061904D01*
X155304762Y-113157142D01*
X155352381Y-113300000D01*
X155352381Y-113538095D01*
X151752381Y-114490476D02*
X151752381Y-114966667D01*
X152228571Y-115014286D01*
X152180952Y-114966667D01*
X152133333Y-114871429D01*
X152133333Y-114633333D01*
X152180952Y-114538095D01*
X152228571Y-114490476D01*
X152323810Y-114442857D01*
X152561905Y-114442857D01*
X152657143Y-114490476D01*
X152704762Y-114538095D01*
X152752381Y-114633333D01*
X152752381Y-114871429D01*
X152704762Y-114966667D01*
X152657143Y-115014286D01*
X151752381Y-114157143D02*
X152752381Y-113823810D01*
X151752381Y-113490476D01*
X148952381Y-115638095D02*
X148952381Y-115019047D01*
X149333333Y-115352381D01*
X149333333Y-115209523D01*
X149380952Y-115114285D01*
X149428571Y-115066666D01*
X149523810Y-115019047D01*
X149761905Y-115019047D01*
X149857143Y-115066666D01*
X149904762Y-115114285D01*
X149952381Y-115209523D01*
X149952381Y-115495238D01*
X149904762Y-115590476D01*
X149857143Y-115638095D01*
X148952381Y-114733333D02*
X149952381Y-114400000D01*
X148952381Y-114066666D01*
X148952381Y-113828571D02*
X148952381Y-113209523D01*
X149333333Y-113542857D01*
X149333333Y-113399999D01*
X149380952Y-113304761D01*
X149428571Y-113257142D01*
X149523810Y-113209523D01*
X149761905Y-113209523D01*
X149857143Y-113257142D01*
X149904762Y-113304761D01*
X149952381Y-113399999D01*
X149952381Y-113685714D01*
X149904762Y-113780952D01*
X149857143Y-113828571D01*
X182800000Y-97321429D02*
X183047619Y-98188095D01*
X183295238Y-97569048D01*
X183542857Y-98188095D01*
X183790476Y-97321429D01*
X184161905Y-97321429D02*
X184409524Y-98188095D01*
X184657143Y-97569048D01*
X184904762Y-98188095D01*
X185152381Y-97321429D01*
X185523810Y-97321429D02*
X185771429Y-98188095D01*
X186019048Y-97569048D01*
X186266667Y-98188095D01*
X186514286Y-97321429D01*
X187009525Y-98064286D02*
X187071430Y-98126190D01*
X187009525Y-98188095D01*
X186947620Y-98126190D01*
X187009525Y-98064286D01*
X187009525Y-98188095D01*
X187442859Y-97321429D02*
X187938097Y-97321429D01*
X187628573Y-96888095D02*
X187628573Y-98002381D01*
X187690478Y-98126190D01*
X187814287Y-98188095D01*
X187938097Y-98188095D01*
X188371430Y-98188095D02*
X188371430Y-96888095D01*
X188928573Y-98188095D02*
X188928573Y-97507143D01*
X188866668Y-97383333D01*
X188742858Y-97321429D01*
X188557144Y-97321429D01*
X188433335Y-97383333D01*
X188371430Y-97445238D01*
X189547620Y-98188095D02*
X189547620Y-97321429D01*
X189547620Y-96888095D02*
X189485715Y-96950000D01*
X189547620Y-97011905D01*
X189609525Y-96950000D01*
X189547620Y-96888095D01*
X189547620Y-97011905D01*
X190166668Y-97321429D02*
X190166668Y-98188095D01*
X190166668Y-97445238D02*
X190228573Y-97383333D01*
X190352382Y-97321429D01*
X190538096Y-97321429D01*
X190661906Y-97383333D01*
X190723811Y-97507143D01*
X190723811Y-98188095D01*
X191900001Y-97321429D02*
X191900001Y-98373810D01*
X191838096Y-98497619D01*
X191776191Y-98559524D01*
X191652382Y-98621429D01*
X191466667Y-98621429D01*
X191342858Y-98559524D01*
X191900001Y-98126190D02*
X191776191Y-98188095D01*
X191528572Y-98188095D01*
X191404763Y-98126190D01*
X191342858Y-98064286D01*
X191280953Y-97940476D01*
X191280953Y-97569048D01*
X191342858Y-97445238D01*
X191404763Y-97383333D01*
X191528572Y-97321429D01*
X191776191Y-97321429D01*
X191900001Y-97383333D01*
X192333334Y-96888095D02*
X193076191Y-96888095D01*
X192704762Y-98188095D02*
X192704762Y-96888095D01*
X193509524Y-98188095D02*
X193509524Y-97321429D01*
X193509524Y-97569048D02*
X193571429Y-97445238D01*
X193633333Y-97383333D01*
X193757143Y-97321429D01*
X193880952Y-97321429D01*
X194500000Y-98188095D02*
X194376191Y-98126190D01*
X194314286Y-98064286D01*
X194252381Y-97940476D01*
X194252381Y-97569048D01*
X194314286Y-97445238D01*
X194376191Y-97383333D01*
X194500000Y-97321429D01*
X194685714Y-97321429D01*
X194809524Y-97383333D01*
X194871429Y-97445238D01*
X194933333Y-97569048D01*
X194933333Y-97940476D01*
X194871429Y-98064286D01*
X194809524Y-98126190D01*
X194685714Y-98188095D01*
X194500000Y-98188095D01*
X195490476Y-97321429D02*
X195490476Y-98188095D01*
X195490476Y-97445238D02*
X195552381Y-97383333D01*
X195676190Y-97321429D01*
X195861904Y-97321429D01*
X195985714Y-97383333D01*
X196047619Y-97507143D01*
X196047619Y-98188095D01*
X196666666Y-98188095D02*
X196666666Y-97321429D01*
X196666666Y-96888095D02*
X196604761Y-96950000D01*
X196666666Y-97011905D01*
X196728571Y-96950000D01*
X196666666Y-96888095D01*
X196666666Y-97011905D01*
X197842857Y-98126190D02*
X197719047Y-98188095D01*
X197471428Y-98188095D01*
X197347619Y-98126190D01*
X197285714Y-98064286D01*
X197223809Y-97940476D01*
X197223809Y-97569048D01*
X197285714Y-97445238D01*
X197347619Y-97383333D01*
X197471428Y-97321429D01*
X197719047Y-97321429D01*
X197842857Y-97383333D01*
X198338095Y-98126190D02*
X198461905Y-98188095D01*
X198709524Y-98188095D01*
X198833333Y-98126190D01*
X198895238Y-98002381D01*
X198895238Y-97940476D01*
X198833333Y-97816667D01*
X198709524Y-97754762D01*
X198523809Y-97754762D01*
X198400000Y-97692857D01*
X198338095Y-97569048D01*
X198338095Y-97507143D01*
X198400000Y-97383333D01*
X198523809Y-97321429D01*
X198709524Y-97321429D01*
X198833333Y-97383333D01*
X199452381Y-98064286D02*
X199514286Y-98126190D01*
X199452381Y-98188095D01*
X199390476Y-98126190D01*
X199452381Y-98064286D01*
X199452381Y-98188095D01*
X200628572Y-98126190D02*
X200504762Y-98188095D01*
X200257143Y-98188095D01*
X200133334Y-98126190D01*
X200071429Y-98064286D01*
X200009524Y-97940476D01*
X200009524Y-97569048D01*
X200071429Y-97445238D01*
X200133334Y-97383333D01*
X200257143Y-97321429D01*
X200504762Y-97321429D01*
X200628572Y-97383333D01*
X201371429Y-98188095D02*
X201247620Y-98126190D01*
X201185715Y-98064286D01*
X201123810Y-97940476D01*
X201123810Y-97569048D01*
X201185715Y-97445238D01*
X201247620Y-97383333D01*
X201371429Y-97321429D01*
X201557143Y-97321429D01*
X201680953Y-97383333D01*
X201742858Y-97445238D01*
X201804762Y-97569048D01*
X201804762Y-97940476D01*
X201742858Y-98064286D01*
X201680953Y-98126190D01*
X201557143Y-98188095D01*
X201371429Y-98188095D01*
X202361905Y-98188095D02*
X202361905Y-97321429D01*
X202361905Y-97445238D02*
X202423810Y-97383333D01*
X202547619Y-97321429D01*
X202733333Y-97321429D01*
X202857143Y-97383333D01*
X202919048Y-97507143D01*
X202919048Y-98188095D01*
X202919048Y-97507143D02*
X202980952Y-97383333D01*
X203104762Y-97321429D01*
X203290476Y-97321429D01*
X203414286Y-97383333D01*
X203476191Y-97507143D01*
X203476191Y-98188095D01*
X182543812Y-88531429D02*
X183039050Y-88531429D01*
X182729526Y-88098095D02*
X182729526Y-89212381D01*
X182791431Y-89336190D01*
X182915240Y-89398095D01*
X183039050Y-89398095D01*
X183472383Y-89398095D02*
X183472383Y-88098095D01*
X184029526Y-89398095D02*
X184029526Y-88717143D01*
X183967621Y-88593333D01*
X183843811Y-88531429D01*
X183658097Y-88531429D01*
X183534288Y-88593333D01*
X183472383Y-88655238D01*
X184648573Y-89398095D02*
X184648573Y-88531429D01*
X184648573Y-88098095D02*
X184586668Y-88160000D01*
X184648573Y-88221905D01*
X184710478Y-88160000D01*
X184648573Y-88098095D01*
X184648573Y-88221905D01*
X185267621Y-88531429D02*
X185267621Y-89398095D01*
X185267621Y-88655238D02*
X185329526Y-88593333D01*
X185453335Y-88531429D01*
X185639049Y-88531429D01*
X185762859Y-88593333D01*
X185824764Y-88717143D01*
X185824764Y-89398095D01*
X187000954Y-88531429D02*
X187000954Y-89583810D01*
X186939049Y-89707619D01*
X186877144Y-89769524D01*
X186753335Y-89831429D01*
X186567620Y-89831429D01*
X186443811Y-89769524D01*
X187000954Y-89336190D02*
X186877144Y-89398095D01*
X186629525Y-89398095D01*
X186505716Y-89336190D01*
X186443811Y-89274286D01*
X186381906Y-89150476D01*
X186381906Y-88779048D01*
X186443811Y-88655238D01*
X186505716Y-88593333D01*
X186629525Y-88531429D01*
X186877144Y-88531429D01*
X187000954Y-88593333D01*
X187558096Y-89336190D02*
X187743810Y-89398095D01*
X188053334Y-89398095D01*
X188177144Y-89336190D01*
X188239048Y-89274286D01*
X188300953Y-89150476D01*
X188300953Y-89026667D01*
X188239048Y-88902857D01*
X188177144Y-88840952D01*
X188053334Y-88779048D01*
X187805715Y-88717143D01*
X187681906Y-88655238D01*
X187620001Y-88593333D01*
X187558096Y-88469524D01*
X187558096Y-88345714D01*
X187620001Y-88221905D01*
X187681906Y-88160000D01*
X187805715Y-88098095D01*
X188115239Y-88098095D01*
X188300953Y-88160000D01*
X188858096Y-89398095D02*
X188858096Y-88098095D01*
X189415239Y-89398095D02*
X189415239Y-88717143D01*
X189353334Y-88593333D01*
X189229524Y-88531429D01*
X189043810Y-88531429D01*
X188920001Y-88593333D01*
X188858096Y-88655238D01*
X190034286Y-89398095D02*
X190034286Y-88531429D01*
X190034286Y-88098095D02*
X189972381Y-88160000D01*
X190034286Y-88221905D01*
X190096191Y-88160000D01*
X190034286Y-88098095D01*
X190034286Y-88221905D01*
X191148572Y-89336190D02*
X191024762Y-89398095D01*
X190777143Y-89398095D01*
X190653334Y-89336190D01*
X190591429Y-89212381D01*
X190591429Y-88717143D01*
X190653334Y-88593333D01*
X190777143Y-88531429D01*
X191024762Y-88531429D01*
X191148572Y-88593333D01*
X191210477Y-88717143D01*
X191210477Y-88840952D01*
X190591429Y-88964762D01*
X191953334Y-89398095D02*
X191829525Y-89336190D01*
X191767620Y-89212381D01*
X191767620Y-88098095D01*
X193005715Y-89398095D02*
X193005715Y-88098095D01*
X193005715Y-89336190D02*
X192881905Y-89398095D01*
X192634286Y-89398095D01*
X192510477Y-89336190D01*
X192448572Y-89274286D01*
X192386667Y-89150476D01*
X192386667Y-88779048D01*
X192448572Y-88655238D01*
X192510477Y-88593333D01*
X192634286Y-88531429D01*
X192881905Y-88531429D01*
X193005715Y-88593333D01*
X193624762Y-88902857D02*
X194615238Y-88902857D01*
X195667619Y-88717143D02*
X195853333Y-88779048D01*
X195915238Y-88840952D01*
X195977143Y-88964762D01*
X195977143Y-89150476D01*
X195915238Y-89274286D01*
X195853333Y-89336190D01*
X195729524Y-89398095D01*
X195234286Y-89398095D01*
X195234286Y-88098095D01*
X195667619Y-88098095D01*
X195791429Y-88160000D01*
X195853333Y-88221905D01*
X195915238Y-88345714D01*
X195915238Y-88469524D01*
X195853333Y-88593333D01*
X195791429Y-88655238D01*
X195667619Y-88717143D01*
X195234286Y-88717143D01*
X196720000Y-89398095D02*
X196596191Y-89336190D01*
X196534286Y-89274286D01*
X196472381Y-89150476D01*
X196472381Y-88779048D01*
X196534286Y-88655238D01*
X196596191Y-88593333D01*
X196720000Y-88531429D01*
X196905714Y-88531429D01*
X197029524Y-88593333D01*
X197091429Y-88655238D01*
X197153333Y-88779048D01*
X197153333Y-89150476D01*
X197091429Y-89274286D01*
X197029524Y-89336190D01*
X196905714Y-89398095D01*
X196720000Y-89398095D01*
X197524762Y-88531429D02*
X198020000Y-88531429D01*
X197710476Y-88098095D02*
X197710476Y-89212381D01*
X197772381Y-89336190D01*
X197896190Y-89398095D01*
X198020000Y-89398095D01*
X199319999Y-88531429D02*
X199629523Y-89398095D01*
X199939047Y-88531429D01*
X201115237Y-89398095D02*
X200372380Y-89398095D01*
X200743809Y-89398095D02*
X200743809Y-88098095D01*
X200619999Y-88283810D01*
X200496190Y-88407619D01*
X200372380Y-88469524D01*
X201672380Y-89274286D02*
X201734285Y-89336190D01*
X201672380Y-89398095D01*
X201610475Y-89336190D01*
X201672380Y-89274286D01*
X201672380Y-89398095D01*
X202539047Y-88098095D02*
X202662856Y-88098095D01*
X202786666Y-88160000D01*
X202848571Y-88221905D01*
X202910475Y-88345714D01*
X202972380Y-88593333D01*
X202972380Y-88902857D01*
X202910475Y-89150476D01*
X202848571Y-89274286D01*
X202786666Y-89336190D01*
X202662856Y-89398095D01*
X202539047Y-89398095D01*
X202415237Y-89336190D01*
X202353333Y-89274286D01*
X202291428Y-89150476D01*
X202229523Y-88902857D01*
X202229523Y-88593333D01*
X202291428Y-88345714D01*
X202353333Y-88221905D01*
X202415237Y-88160000D01*
X202539047Y-88098095D01*
D13*
X119246699Y-105850000D02*
G75*
G03X119246699Y-105850000I-346699J0D01*
G01*
X132491905Y-91459999D02*
X132491905Y-91840952D01*
X132872857Y-91879047D01*
X132834762Y-91840952D01*
X132796667Y-91764761D01*
X132796667Y-91574285D01*
X132834762Y-91498095D01*
X132872857Y-91459999D01*
X132949048Y-91421904D01*
X133139524Y-91421904D01*
X133215714Y-91459999D01*
X133253810Y-91498095D01*
X133291905Y-91574285D01*
X133291905Y-91764761D01*
X133253810Y-91840952D01*
X133215714Y-91879047D01*
X132491905Y-91193333D02*
X133291905Y-90926666D01*
X132491905Y-90659999D01*
X133368095Y-90583809D02*
X133368095Y-89974285D01*
X133063333Y-89821904D02*
X133063333Y-89440952D01*
X133291905Y-89898095D02*
X132491905Y-89631428D01*
X133291905Y-89364761D01*
X133291905Y-88640952D02*
X132910952Y-88907619D01*
X133291905Y-89098095D02*
X132491905Y-89098095D01*
X132491905Y-88793333D01*
X132530000Y-88717142D01*
X132568095Y-88679047D01*
X132644286Y-88640952D01*
X132758571Y-88640952D01*
X132834762Y-88679047D01*
X132872857Y-88717142D01*
X132910952Y-88793333D01*
X132910952Y-89098095D01*
X130081905Y-90332380D02*
X130081905Y-90713333D01*
X130462857Y-90751428D01*
X130424762Y-90713333D01*
X130386667Y-90637142D01*
X130386667Y-90446666D01*
X130424762Y-90370476D01*
X130462857Y-90332380D01*
X130539048Y-90294285D01*
X130729524Y-90294285D01*
X130805714Y-90332380D01*
X130843810Y-90370476D01*
X130881905Y-90446666D01*
X130881905Y-90637142D01*
X130843810Y-90713333D01*
X130805714Y-90751428D01*
X130081905Y-90065714D02*
X130881905Y-89799047D01*
X130081905Y-89532380D01*
X127091905Y-91864762D02*
X127091905Y-92245715D01*
X127472857Y-92283810D01*
X127434762Y-92245715D01*
X127396667Y-92169524D01*
X127396667Y-91979048D01*
X127434762Y-91902858D01*
X127472857Y-91864762D01*
X127549048Y-91826667D01*
X127739524Y-91826667D01*
X127815714Y-91864762D01*
X127853810Y-91902858D01*
X127891905Y-91979048D01*
X127891905Y-92169524D01*
X127853810Y-92245715D01*
X127815714Y-92283810D01*
X127091905Y-91598096D02*
X127891905Y-91331429D01*
X127091905Y-91064762D01*
X127968095Y-90988572D02*
X127968095Y-90379048D01*
X127472857Y-90188572D02*
X127472857Y-89921905D01*
X127891905Y-89807619D02*
X127891905Y-90188572D01*
X127091905Y-90188572D01*
X127091905Y-89807619D01*
X127091905Y-89540952D02*
X127891905Y-89007619D01*
X127091905Y-89007619D02*
X127891905Y-89540952D01*
X127091905Y-88817143D02*
X127091905Y-88360000D01*
X127891905Y-88588571D02*
X127091905Y-88588571D01*
X123731905Y-92518095D02*
X123731905Y-92022857D01*
X124036667Y-92289524D01*
X124036667Y-92175238D01*
X124074762Y-92099048D01*
X124112857Y-92060952D01*
X124189048Y-92022857D01*
X124379524Y-92022857D01*
X124455714Y-92060952D01*
X124493810Y-92099048D01*
X124531905Y-92175238D01*
X124531905Y-92403810D01*
X124493810Y-92480000D01*
X124455714Y-92518095D01*
X123731905Y-91794286D02*
X124531905Y-91527619D01*
X123731905Y-91260952D01*
X123731905Y-91070476D02*
X123731905Y-90575238D01*
X124036667Y-90841905D01*
X124036667Y-90727619D01*
X124074762Y-90651429D01*
X124112857Y-90613333D01*
X124189048Y-90575238D01*
X124379524Y-90575238D01*
X124455714Y-90613333D01*
X124493810Y-90651429D01*
X124531905Y-90727619D01*
X124531905Y-90956191D01*
X124493810Y-91032381D01*
X124455714Y-91070476D01*
X124608095Y-90422857D02*
X124608095Y-89813333D01*
X124303333Y-89660952D02*
X124303333Y-89280000D01*
X124531905Y-89737143D02*
X123731905Y-89470476D01*
X124531905Y-89203809D01*
X124531905Y-88480000D02*
X124150952Y-88746667D01*
X124531905Y-88937143D02*
X123731905Y-88937143D01*
X123731905Y-88632381D01*
X123770000Y-88556190D01*
X123808095Y-88518095D01*
X123884286Y-88480000D01*
X123998571Y-88480000D01*
X124074762Y-88518095D01*
X124112857Y-88556190D01*
X124150952Y-88632381D01*
X124150952Y-88937143D01*
X121291905Y-91890476D02*
X121291905Y-91395238D01*
X121596667Y-91661905D01*
X121596667Y-91547619D01*
X121634762Y-91471429D01*
X121672857Y-91433333D01*
X121749048Y-91395238D01*
X121939524Y-91395238D01*
X122015714Y-91433333D01*
X122053810Y-91471429D01*
X122091905Y-91547619D01*
X122091905Y-91776191D01*
X122053810Y-91852381D01*
X122015714Y-91890476D01*
X121291905Y-91166667D02*
X122091905Y-90900000D01*
X121291905Y-90633333D01*
X121291905Y-90442857D02*
X121291905Y-89947619D01*
X121596667Y-90214286D01*
X121596667Y-90100000D01*
X121634762Y-90023810D01*
X121672857Y-89985714D01*
X121749048Y-89947619D01*
X121939524Y-89947619D01*
X122015714Y-89985714D01*
X122053810Y-90023810D01*
X122091905Y-90100000D01*
X122091905Y-90328572D01*
X122053810Y-90404762D01*
X122015714Y-90442857D01*
X118981905Y-93242857D02*
X118981905Y-92747619D01*
X119286667Y-93014286D01*
X119286667Y-92900000D01*
X119324762Y-92823810D01*
X119362857Y-92785714D01*
X119439048Y-92747619D01*
X119629524Y-92747619D01*
X119705714Y-92785714D01*
X119743810Y-92823810D01*
X119781905Y-92900000D01*
X119781905Y-93128572D01*
X119743810Y-93204762D01*
X119705714Y-93242857D01*
X118981905Y-92519048D02*
X119781905Y-92252381D01*
X118981905Y-91985714D01*
X118981905Y-91795238D02*
X118981905Y-91300000D01*
X119286667Y-91566667D01*
X119286667Y-91452381D01*
X119324762Y-91376191D01*
X119362857Y-91338095D01*
X119439048Y-91300000D01*
X119629524Y-91300000D01*
X119705714Y-91338095D01*
X119743810Y-91376191D01*
X119781905Y-91452381D01*
X119781905Y-91680953D01*
X119743810Y-91757143D01*
X119705714Y-91795238D01*
X119858095Y-91147619D02*
X119858095Y-90538095D01*
X119362857Y-90347619D02*
X119362857Y-90080952D01*
X119781905Y-89966666D02*
X119781905Y-90347619D01*
X118981905Y-90347619D01*
X118981905Y-89966666D01*
X118981905Y-89699999D02*
X119781905Y-89166666D01*
X118981905Y-89166666D02*
X119781905Y-89699999D01*
X118981905Y-88976190D02*
X118981905Y-88519047D01*
X119781905Y-88747618D02*
X118981905Y-88747618D01*
D11*
X142919524Y-72652381D02*
X142348095Y-72652381D01*
X142633809Y-72652381D02*
X142633809Y-71652381D01*
X142538571Y-71795238D01*
X142443333Y-71890476D01*
X142348095Y-71938095D01*
X143252857Y-71652381D02*
X143871905Y-71652381D01*
X143538571Y-72033333D01*
X143681429Y-72033333D01*
X143776667Y-72080952D01*
X143824286Y-72128571D01*
X143871905Y-72223810D01*
X143871905Y-72461905D01*
X143824286Y-72557143D01*
X143776667Y-72604762D01*
X143681429Y-72652381D01*
X143395714Y-72652381D01*
X143300476Y-72604762D01*
X143252857Y-72557143D01*
X155740952Y-72495238D02*
X155693333Y-72590476D01*
X155645714Y-72638095D01*
X155550476Y-72685714D01*
X155502857Y-72685714D01*
X155407619Y-72638095D01*
X155360000Y-72590476D01*
X155312381Y-72495238D01*
X155312381Y-72304761D01*
X155360000Y-72209523D01*
X155407619Y-72161904D01*
X155502857Y-72114285D01*
X155550476Y-72114285D01*
X155645714Y-72161904D01*
X155693333Y-72209523D01*
X155740952Y-72304761D01*
X155740952Y-72495238D01*
X155788571Y-72590476D01*
X155836190Y-72638095D01*
X155931429Y-72685714D01*
X156121905Y-72685714D01*
X156217143Y-72638095D01*
X156264762Y-72590476D01*
X156312381Y-72495238D01*
X156312381Y-72304761D01*
X156264762Y-72209523D01*
X156217143Y-72161904D01*
X156121905Y-72114285D01*
X155931429Y-72114285D01*
X155836190Y-72161904D01*
X155788571Y-72209523D01*
X155740952Y-72304761D01*
X159252381Y-73833333D02*
X159252381Y-73166666D01*
X160252381Y-73595238D01*
X176952381Y-73447619D02*
X176952381Y-73352380D01*
X177000000Y-73257142D01*
X177047619Y-73209523D01*
X177142857Y-73161904D01*
X177333333Y-73114285D01*
X177571429Y-73114285D01*
X177761905Y-73161904D01*
X177857143Y-73209523D01*
X177904762Y-73257142D01*
X177952381Y-73352380D01*
X177952381Y-73447619D01*
X177904762Y-73542857D01*
X177857143Y-73590476D01*
X177761905Y-73638095D01*
X177571429Y-73685714D01*
X177333333Y-73685714D01*
X177142857Y-73638095D01*
X177047619Y-73590476D01*
X177000000Y-73542857D01*
X176952381Y-73447619D01*
X182509524Y-72652381D02*
X181938095Y-72652381D01*
X182223809Y-72652381D02*
X182223809Y-71652381D01*
X182128571Y-71795238D01*
X182033333Y-71890476D01*
X181938095Y-71938095D01*
X183366667Y-71985714D02*
X183366667Y-72652381D01*
X183128571Y-71604762D02*
X182890476Y-72319048D01*
X183509524Y-72319048D01*
X199938095Y-72747619D02*
X199985714Y-72700000D01*
X200080952Y-72652381D01*
X200319048Y-72652381D01*
X200414286Y-72700000D01*
X200461905Y-72747619D01*
X200509524Y-72842857D01*
X200509524Y-72938095D01*
X200461905Y-73080952D01*
X199890476Y-73652381D01*
X200509524Y-73652381D01*
X201461905Y-73652381D02*
X200890476Y-73652381D01*
X201176190Y-73652381D02*
X201176190Y-72652381D01*
X201080952Y-72795238D01*
X200985714Y-72890476D01*
X200890476Y-72938095D01*
X147552381Y-114847619D02*
X147076190Y-115180953D01*
X147552381Y-115419048D02*
X146552381Y-115419048D01*
X146552381Y-115038095D01*
X146600000Y-114942857D01*
X146647619Y-114895238D01*
X146742857Y-114847619D01*
X146885714Y-114847619D01*
X146980952Y-114895238D01*
X147028571Y-114942857D01*
X147076190Y-115038095D01*
X147076190Y-115419048D01*
X147504762Y-114466667D02*
X147552381Y-114323810D01*
X147552381Y-114085714D01*
X147504762Y-113990476D01*
X147457143Y-113942857D01*
X147361905Y-113895238D01*
X147266667Y-113895238D01*
X147171429Y-113942857D01*
X147123810Y-113990476D01*
X147076190Y-114085714D01*
X147028571Y-114276191D01*
X146980952Y-114371429D01*
X146933333Y-114419048D01*
X146838095Y-114466667D01*
X146742857Y-114466667D01*
X146647619Y-114419048D01*
X146600000Y-114371429D01*
X146552381Y-114276191D01*
X146552381Y-114038095D01*
X146600000Y-113895238D01*
X146552381Y-113609524D02*
X146552381Y-113038095D01*
X147552381Y-113323810D02*
X146552381Y-113323810D01*
X164766667Y-115814286D02*
X164766667Y-115338095D01*
X165052381Y-115909524D02*
X164052381Y-115576191D01*
X165052381Y-115242857D01*
X165052381Y-114909524D02*
X164052381Y-114909524D01*
X164052381Y-114671429D01*
X164100000Y-114528571D01*
X164195238Y-114433333D01*
X164290476Y-114385714D01*
X164480952Y-114338095D01*
X164623810Y-114338095D01*
X164814286Y-114385714D01*
X164909524Y-114433333D01*
X165004762Y-114528571D01*
X165052381Y-114671429D01*
X165052381Y-114909524D01*
X164052381Y-113719048D02*
X164052381Y-113623809D01*
X164100000Y-113528571D01*
X164147619Y-113480952D01*
X164242857Y-113433333D01*
X164433333Y-113385714D01*
X164671429Y-113385714D01*
X164861905Y-113433333D01*
X164957143Y-113480952D01*
X165004762Y-113528571D01*
X165052381Y-113623809D01*
X165052381Y-113719048D01*
X165004762Y-113814286D01*
X164957143Y-113861905D01*
X164861905Y-113909524D01*
X164671429Y-113957143D01*
X164433333Y-113957143D01*
X164242857Y-113909524D01*
X164147619Y-113861905D01*
X164100000Y-113814286D01*
X164052381Y-113719048D01*
D13*
X183016667Y-116294286D02*
X183016667Y-115818095D01*
X183302381Y-116389524D02*
X182302381Y-116056191D01*
X183302381Y-115722857D01*
X183302381Y-115389524D02*
X182302381Y-115389524D01*
X182302381Y-115151429D01*
X182350000Y-115008571D01*
X182445238Y-114913333D01*
X182540476Y-114865714D01*
X182730952Y-114818095D01*
X182873810Y-114818095D01*
X183064286Y-114865714D01*
X183159524Y-114913333D01*
X183254762Y-115008571D01*
X183302381Y-115151429D01*
X183302381Y-115389524D01*
X182302381Y-114484762D02*
X182302381Y-113818095D01*
X183302381Y-114246667D01*
X205523333Y-116732381D02*
X205523333Y-116351429D01*
X205751905Y-116808572D02*
X204951905Y-116541905D01*
X205751905Y-116275238D01*
X205751905Y-116008572D02*
X204951905Y-116008572D01*
X204951905Y-115818096D01*
X204990000Y-115703810D01*
X205066190Y-115627619D01*
X205142381Y-115589524D01*
X205294762Y-115551429D01*
X205409048Y-115551429D01*
X205561429Y-115589524D01*
X205637619Y-115627619D01*
X205713810Y-115703810D01*
X205751905Y-115818096D01*
X205751905Y-116008572D01*
X205751905Y-114789524D02*
X205751905Y-115246667D01*
X205751905Y-115018096D02*
X204951905Y-115018096D01*
X205066190Y-115094286D01*
X205142381Y-115170477D01*
X205180476Y-115246667D01*
X204951905Y-114065714D02*
X204951905Y-114446667D01*
X205332857Y-114484762D01*
X205294762Y-114446667D01*
X205256667Y-114370476D01*
X205256667Y-114180000D01*
X205294762Y-114103810D01*
X205332857Y-114065714D01*
X205409048Y-114027619D01*
X205599524Y-114027619D01*
X205675714Y-114065714D01*
X205713810Y-114103810D01*
X205751905Y-114180000D01*
X205751905Y-114370476D01*
X205713810Y-114446667D01*
X205675714Y-114484762D01*
X203003333Y-116642381D02*
X203003333Y-116261429D01*
X203231905Y-116718572D02*
X202431905Y-116451905D01*
X203231905Y-116185238D01*
X203231905Y-115918572D02*
X202431905Y-115918572D01*
X202431905Y-115728096D01*
X202470000Y-115613810D01*
X202546190Y-115537619D01*
X202622381Y-115499524D01*
X202774762Y-115461429D01*
X202889048Y-115461429D01*
X203041429Y-115499524D01*
X203117619Y-115537619D01*
X203193810Y-115613810D01*
X203231905Y-115728096D01*
X203231905Y-115918572D01*
X203231905Y-114699524D02*
X203231905Y-115156667D01*
X203231905Y-114928096D02*
X202431905Y-114928096D01*
X202546190Y-115004286D01*
X202622381Y-115080477D01*
X202660476Y-115156667D01*
X202698571Y-114013810D02*
X203231905Y-114013810D01*
X202393810Y-114204286D02*
X202965238Y-114394762D01*
X202965238Y-113899524D01*
D11*
X200586667Y-116520476D02*
X200586667Y-116044285D01*
X200872381Y-116615714D02*
X199872381Y-116282381D01*
X200872381Y-115949047D01*
X200872381Y-115615714D02*
X199872381Y-115615714D01*
X199872381Y-115377619D01*
X199920000Y-115234761D01*
X200015238Y-115139523D01*
X200110476Y-115091904D01*
X200300952Y-115044285D01*
X200443810Y-115044285D01*
X200634286Y-115091904D01*
X200729524Y-115139523D01*
X200824762Y-115234761D01*
X200872381Y-115377619D01*
X200872381Y-115615714D01*
X200872381Y-114091904D02*
X200872381Y-114663333D01*
X200872381Y-114377619D02*
X199872381Y-114377619D01*
X200015238Y-114472857D01*
X200110476Y-114568095D01*
X200158095Y-114663333D01*
X199872381Y-113758571D02*
X199872381Y-113139523D01*
X200253333Y-113472857D01*
X200253333Y-113329999D01*
X200300952Y-113234761D01*
X200348571Y-113187142D01*
X200443810Y-113139523D01*
X200681905Y-113139523D01*
X200777143Y-113187142D01*
X200824762Y-113234761D01*
X200872381Y-113329999D01*
X200872381Y-113615714D01*
X200824762Y-113710952D01*
X200777143Y-113758571D01*
X197766667Y-116610476D02*
X197766667Y-116134285D01*
X198052381Y-116705714D02*
X197052381Y-116372381D01*
X198052381Y-116039047D01*
X198052381Y-115705714D02*
X197052381Y-115705714D01*
X197052381Y-115467619D01*
X197100000Y-115324761D01*
X197195238Y-115229523D01*
X197290476Y-115181904D01*
X197480952Y-115134285D01*
X197623810Y-115134285D01*
X197814286Y-115181904D01*
X197909524Y-115229523D01*
X198004762Y-115324761D01*
X198052381Y-115467619D01*
X198052381Y-115705714D01*
X198052381Y-114181904D02*
X198052381Y-114753333D01*
X198052381Y-114467619D02*
X197052381Y-114467619D01*
X197195238Y-114562857D01*
X197290476Y-114658095D01*
X197338095Y-114753333D01*
X197147619Y-113800952D02*
X197100000Y-113753333D01*
X197052381Y-113658095D01*
X197052381Y-113419999D01*
X197100000Y-113324761D01*
X197147619Y-113277142D01*
X197242857Y-113229523D01*
X197338095Y-113229523D01*
X197480952Y-113277142D01*
X198052381Y-113848571D01*
X198052381Y-113229523D01*
X195446667Y-116670476D02*
X195446667Y-116194285D01*
X195732381Y-116765714D02*
X194732381Y-116432381D01*
X195732381Y-116099047D01*
X195732381Y-115765714D02*
X194732381Y-115765714D01*
X194732381Y-115527619D01*
X194780000Y-115384761D01*
X194875238Y-115289523D01*
X194970476Y-115241904D01*
X195160952Y-115194285D01*
X195303810Y-115194285D01*
X195494286Y-115241904D01*
X195589524Y-115289523D01*
X195684762Y-115384761D01*
X195732381Y-115527619D01*
X195732381Y-115765714D01*
X195732381Y-114241904D02*
X195732381Y-114813333D01*
X195732381Y-114527619D02*
X194732381Y-114527619D01*
X194875238Y-114622857D01*
X194970476Y-114718095D01*
X195018095Y-114813333D01*
X195732381Y-113289523D02*
X195732381Y-113860952D01*
X195732381Y-113575238D02*
X194732381Y-113575238D01*
X194875238Y-113670476D01*
X194970476Y-113765714D01*
X195018095Y-113860952D01*
X192856667Y-116760476D02*
X192856667Y-116284285D01*
X193142381Y-116855714D02*
X192142381Y-116522381D01*
X193142381Y-116189047D01*
X193142381Y-115855714D02*
X192142381Y-115855714D01*
X192142381Y-115617619D01*
X192190000Y-115474761D01*
X192285238Y-115379523D01*
X192380476Y-115331904D01*
X192570952Y-115284285D01*
X192713810Y-115284285D01*
X192904286Y-115331904D01*
X192999524Y-115379523D01*
X193094762Y-115474761D01*
X193142381Y-115617619D01*
X193142381Y-115855714D01*
X193142381Y-114331904D02*
X193142381Y-114903333D01*
X193142381Y-114617619D02*
X192142381Y-114617619D01*
X192285238Y-114712857D01*
X192380476Y-114808095D01*
X192428095Y-114903333D01*
X192142381Y-113712857D02*
X192142381Y-113617618D01*
X192190000Y-113522380D01*
X192237619Y-113474761D01*
X192332857Y-113427142D01*
X192523333Y-113379523D01*
X192761429Y-113379523D01*
X192951905Y-113427142D01*
X193047143Y-113474761D01*
X193094762Y-113522380D01*
X193142381Y-113617618D01*
X193142381Y-113712857D01*
X193094762Y-113808095D01*
X193047143Y-113855714D01*
X192951905Y-113903333D01*
X192761429Y-113950952D01*
X192523333Y-113950952D01*
X192332857Y-113903333D01*
X192237619Y-113855714D01*
X192190000Y-113808095D01*
X192142381Y-113712857D01*
X190596667Y-116264286D02*
X190596667Y-115788095D01*
X190882381Y-116359524D02*
X189882381Y-116026191D01*
X190882381Y-115692857D01*
X190882381Y-115359524D02*
X189882381Y-115359524D01*
X189882381Y-115121429D01*
X189930000Y-114978571D01*
X190025238Y-114883333D01*
X190120476Y-114835714D01*
X190310952Y-114788095D01*
X190453810Y-114788095D01*
X190644286Y-114835714D01*
X190739524Y-114883333D01*
X190834762Y-114978571D01*
X190882381Y-115121429D01*
X190882381Y-115359524D01*
X190882381Y-114311905D02*
X190882381Y-114121429D01*
X190834762Y-114026190D01*
X190787143Y-113978571D01*
X190644286Y-113883333D01*
X190453810Y-113835714D01*
X190072857Y-113835714D01*
X189977619Y-113883333D01*
X189930000Y-113930952D01*
X189882381Y-114026190D01*
X189882381Y-114216667D01*
X189930000Y-114311905D01*
X189977619Y-114359524D01*
X190072857Y-114407143D01*
X190310952Y-114407143D01*
X190406190Y-114359524D01*
X190453810Y-114311905D01*
X190501429Y-114216667D01*
X190501429Y-114026190D01*
X190453810Y-113930952D01*
X190406190Y-113883333D01*
X190310952Y-113835714D01*
X213378096Y-113000000D02*
X213282858Y-112952381D01*
X213140001Y-112952381D01*
X212997143Y-113000000D01*
X212901905Y-113095238D01*
X212854286Y-113190476D01*
X212806667Y-113380952D01*
X212806667Y-113523810D01*
X212854286Y-113714286D01*
X212901905Y-113809524D01*
X212997143Y-113904762D01*
X213140001Y-113952381D01*
X213235239Y-113952381D01*
X213378096Y-113904762D01*
X213425715Y-113857143D01*
X213425715Y-113523810D01*
X213235239Y-113523810D01*
X213854286Y-113952381D02*
X213854286Y-112952381D01*
X214425715Y-113952381D01*
X214425715Y-112952381D01*
X214901905Y-113952381D02*
X214901905Y-112952381D01*
X215140000Y-112952381D01*
X215282858Y-113000000D01*
X215378096Y-113095238D01*
X215425715Y-113190476D01*
X215473334Y-113380952D01*
X215473334Y-113523810D01*
X215425715Y-113714286D01*
X215378096Y-113809524D01*
X215282858Y-113904762D01*
X215140000Y-113952381D01*
X214901905Y-113952381D01*
X203428096Y-112540000D02*
X203332858Y-112492381D01*
X203190001Y-112492381D01*
X203047143Y-112540000D01*
X202951905Y-112635238D01*
X202904286Y-112730476D01*
X202856667Y-112920952D01*
X202856667Y-113063810D01*
X202904286Y-113254286D01*
X202951905Y-113349524D01*
X203047143Y-113444762D01*
X203190001Y-113492381D01*
X203285239Y-113492381D01*
X203428096Y-113444762D01*
X203475715Y-113397143D01*
X203475715Y-113063810D01*
X203285239Y-113063810D01*
X203904286Y-113492381D02*
X203904286Y-112492381D01*
X204475715Y-113492381D01*
X204475715Y-112492381D01*
X204951905Y-113492381D02*
X204951905Y-112492381D01*
X205190000Y-112492381D01*
X205332858Y-112540000D01*
X205428096Y-112635238D01*
X205475715Y-112730476D01*
X205523334Y-112920952D01*
X205523334Y-113063810D01*
X205475715Y-113254286D01*
X205428096Y-113349524D01*
X205332858Y-113444762D01*
X205190000Y-113492381D01*
X204951905Y-113492381D01*
X213811905Y-110162381D02*
X213335714Y-110162381D01*
X213288095Y-110638571D01*
X213335714Y-110590952D01*
X213430952Y-110543333D01*
X213669048Y-110543333D01*
X213764286Y-110590952D01*
X213811905Y-110638571D01*
X213859524Y-110733810D01*
X213859524Y-110971905D01*
X213811905Y-111067143D01*
X213764286Y-111114762D01*
X213669048Y-111162381D01*
X213430952Y-111162381D01*
X213335714Y-111114762D01*
X213288095Y-111067143D01*
X214192857Y-110162381D02*
X214811905Y-110162381D01*
X214478571Y-110543333D01*
X214621429Y-110543333D01*
X214716667Y-110590952D01*
X214764286Y-110638571D01*
X214811905Y-110733810D01*
X214811905Y-110971905D01*
X214764286Y-111067143D01*
X214716667Y-111114762D01*
X214621429Y-111162381D01*
X214335714Y-111162381D01*
X214240476Y-111114762D01*
X214192857Y-111067143D01*
X213781905Y-107672381D02*
X213305714Y-107672381D01*
X213258095Y-108148571D01*
X213305714Y-108100952D01*
X213400952Y-108053333D01*
X213639048Y-108053333D01*
X213734286Y-108100952D01*
X213781905Y-108148571D01*
X213829524Y-108243810D01*
X213829524Y-108481905D01*
X213781905Y-108577143D01*
X213734286Y-108624762D01*
X213639048Y-108672381D01*
X213400952Y-108672381D01*
X213305714Y-108624762D01*
X213258095Y-108577143D01*
X214781905Y-108672381D02*
X214210476Y-108672381D01*
X214496190Y-108672381D02*
X214496190Y-107672381D01*
X214400952Y-107815238D01*
X214305714Y-107910476D01*
X214210476Y-107958095D01*
X213864286Y-103115714D02*
X213864286Y-103782381D01*
X213626190Y-102734762D02*
X213388095Y-103449048D01*
X214007143Y-103449048D01*
X214292857Y-102782381D02*
X214959524Y-102782381D01*
X214530952Y-103782381D01*
X213844286Y-105375714D02*
X213844286Y-106042381D01*
X213606190Y-104994762D02*
X213368095Y-105709048D01*
X213987143Y-105709048D01*
X214415714Y-106042381D02*
X214606190Y-106042381D01*
X214701429Y-105994762D01*
X214749048Y-105947143D01*
X214844286Y-105804286D01*
X214891905Y-105613810D01*
X214891905Y-105232857D01*
X214844286Y-105137619D01*
X214796667Y-105090000D01*
X214701429Y-105042381D01*
X214510952Y-105042381D01*
X214415714Y-105090000D01*
X214368095Y-105137619D01*
X214320476Y-105232857D01*
X214320476Y-105470952D01*
X214368095Y-105566190D01*
X214415714Y-105613810D01*
X214510952Y-105661429D01*
X214701429Y-105661429D01*
X214796667Y-105613810D01*
X214844286Y-105566190D01*
X214891905Y-105470952D01*
X213744286Y-100445714D02*
X213744286Y-101112381D01*
X213506190Y-100064762D02*
X213268095Y-100779048D01*
X213887143Y-100779048D01*
X214744286Y-100112381D02*
X214268095Y-100112381D01*
X214220476Y-100588571D01*
X214268095Y-100540952D01*
X214363333Y-100493333D01*
X214601429Y-100493333D01*
X214696667Y-100540952D01*
X214744286Y-100588571D01*
X214791905Y-100683810D01*
X214791905Y-100921905D01*
X214744286Y-101017143D01*
X214696667Y-101064762D01*
X214601429Y-101112381D01*
X214363333Y-101112381D01*
X214268095Y-101064762D01*
X214220476Y-101017143D01*
X213714286Y-97955714D02*
X213714286Y-98622381D01*
X213476190Y-97574762D02*
X213238095Y-98289048D01*
X213857143Y-98289048D01*
X214142857Y-97622381D02*
X214761905Y-97622381D01*
X214428571Y-98003333D01*
X214571429Y-98003333D01*
X214666667Y-98050952D01*
X214714286Y-98098571D01*
X214761905Y-98193810D01*
X214761905Y-98431905D01*
X214714286Y-98527143D01*
X214666667Y-98574762D01*
X214571429Y-98622381D01*
X214285714Y-98622381D01*
X214190476Y-98574762D01*
X214142857Y-98527143D01*
X213784286Y-95435714D02*
X213784286Y-96102381D01*
X213546190Y-95054762D02*
X213308095Y-95769048D01*
X213927143Y-95769048D01*
X214831905Y-96102381D02*
X214260476Y-96102381D01*
X214546190Y-96102381D02*
X214546190Y-95102381D01*
X214450952Y-95245238D01*
X214355714Y-95340476D01*
X214260476Y-95388095D01*
X213120476Y-92462381D02*
X213739524Y-92462381D01*
X213406190Y-92843333D01*
X213549048Y-92843333D01*
X213644286Y-92890952D01*
X213691905Y-92938571D01*
X213739524Y-93033810D01*
X213739524Y-93271905D01*
X213691905Y-93367143D01*
X213644286Y-93414762D01*
X213549048Y-93462381D01*
X213263333Y-93462381D01*
X213168095Y-93414762D01*
X213120476Y-93367143D01*
X214215714Y-93462381D02*
X214406190Y-93462381D01*
X214501429Y-93414762D01*
X214549048Y-93367143D01*
X214644286Y-93224286D01*
X214691905Y-93033810D01*
X214691905Y-92652857D01*
X214644286Y-92557619D01*
X214596667Y-92510000D01*
X214501429Y-92462381D01*
X214310952Y-92462381D01*
X214215714Y-92510000D01*
X214168095Y-92557619D01*
X214120476Y-92652857D01*
X214120476Y-92890952D01*
X214168095Y-92986190D01*
X214215714Y-93033810D01*
X214310952Y-93081429D01*
X214501429Y-93081429D01*
X214596667Y-93033810D01*
X214644286Y-92986190D01*
X214691905Y-92890952D01*
X213150476Y-89912381D02*
X213769524Y-89912381D01*
X213436190Y-90293333D01*
X213579048Y-90293333D01*
X213674286Y-90340952D01*
X213721905Y-90388571D01*
X213769524Y-90483810D01*
X213769524Y-90721905D01*
X213721905Y-90817143D01*
X213674286Y-90864762D01*
X213579048Y-90912381D01*
X213293333Y-90912381D01*
X213198095Y-90864762D01*
X213150476Y-90817143D01*
X214102857Y-89912381D02*
X214769524Y-89912381D01*
X214340952Y-90912381D01*
X213090476Y-87362381D02*
X213709524Y-87362381D01*
X213376190Y-87743333D01*
X213519048Y-87743333D01*
X213614286Y-87790952D01*
X213661905Y-87838571D01*
X213709524Y-87933810D01*
X213709524Y-88171905D01*
X213661905Y-88267143D01*
X213614286Y-88314762D01*
X213519048Y-88362381D01*
X213233333Y-88362381D01*
X213138095Y-88314762D01*
X213090476Y-88267143D01*
X214614286Y-87362381D02*
X214138095Y-87362381D01*
X214090476Y-87838571D01*
X214138095Y-87790952D01*
X214233333Y-87743333D01*
X214471429Y-87743333D01*
X214566667Y-87790952D01*
X214614286Y-87838571D01*
X214661905Y-87933810D01*
X214661905Y-88171905D01*
X214614286Y-88267143D01*
X214566667Y-88314762D01*
X214471429Y-88362381D01*
X214233333Y-88362381D01*
X214138095Y-88314762D01*
X214090476Y-88267143D01*
X213130476Y-84732381D02*
X213749524Y-84732381D01*
X213416190Y-85113333D01*
X213559048Y-85113333D01*
X213654286Y-85160952D01*
X213701905Y-85208571D01*
X213749524Y-85303810D01*
X213749524Y-85541905D01*
X213701905Y-85637143D01*
X213654286Y-85684762D01*
X213559048Y-85732381D01*
X213273333Y-85732381D01*
X213178095Y-85684762D01*
X213130476Y-85637143D01*
X214082857Y-84732381D02*
X214701905Y-84732381D01*
X214368571Y-85113333D01*
X214511429Y-85113333D01*
X214606667Y-85160952D01*
X214654286Y-85208571D01*
X214701905Y-85303810D01*
X214701905Y-85541905D01*
X214654286Y-85637143D01*
X214606667Y-85684762D01*
X214511429Y-85732381D01*
X214225714Y-85732381D01*
X214130476Y-85684762D01*
X214082857Y-85637143D01*
X213130476Y-82412381D02*
X213749524Y-82412381D01*
X213416190Y-82793333D01*
X213559048Y-82793333D01*
X213654286Y-82840952D01*
X213701905Y-82888571D01*
X213749524Y-82983810D01*
X213749524Y-83221905D01*
X213701905Y-83317143D01*
X213654286Y-83364762D01*
X213559048Y-83412381D01*
X213273333Y-83412381D01*
X213178095Y-83364762D01*
X213130476Y-83317143D01*
X214701905Y-83412381D02*
X214130476Y-83412381D01*
X214416190Y-83412381D02*
X214416190Y-82412381D01*
X214320952Y-82555238D01*
X214225714Y-82650476D01*
X214130476Y-82698095D01*
X203728095Y-72577619D02*
X203775714Y-72530000D01*
X203870952Y-72482381D01*
X204109048Y-72482381D01*
X204204286Y-72530000D01*
X204251905Y-72577619D01*
X204299524Y-72672857D01*
X204299524Y-72768095D01*
X204251905Y-72910952D01*
X203680476Y-73482381D01*
X204299524Y-73482381D01*
X204680476Y-72577619D02*
X204728095Y-72530000D01*
X204823333Y-72482381D01*
X205061429Y-72482381D01*
X205156667Y-72530000D01*
X205204286Y-72577619D01*
X205251905Y-72672857D01*
X205251905Y-72768095D01*
X205204286Y-72910952D01*
X204632857Y-73482381D01*
X205251905Y-73482381D01*
X203878095Y-74847619D02*
X203925714Y-74800000D01*
X204020952Y-74752381D01*
X204259048Y-74752381D01*
X204354286Y-74800000D01*
X204401905Y-74847619D01*
X204449524Y-74942857D01*
X204449524Y-75038095D01*
X204401905Y-75180952D01*
X203830476Y-75752381D01*
X204449524Y-75752381D01*
X205306667Y-75085714D02*
X205306667Y-75752381D01*
X205068571Y-74704762D02*
X204830476Y-75419048D01*
X205449524Y-75419048D01*
X204028095Y-77397619D02*
X204075714Y-77350000D01*
X204170952Y-77302381D01*
X204409048Y-77302381D01*
X204504286Y-77350000D01*
X204551905Y-77397619D01*
X204599524Y-77492857D01*
X204599524Y-77588095D01*
X204551905Y-77730952D01*
X203980476Y-78302381D01*
X204599524Y-78302381D01*
X205456667Y-77302381D02*
X205266190Y-77302381D01*
X205170952Y-77350000D01*
X205123333Y-77397619D01*
X205028095Y-77540476D01*
X204980476Y-77730952D01*
X204980476Y-78111905D01*
X205028095Y-78207143D01*
X205075714Y-78254762D01*
X205170952Y-78302381D01*
X205361429Y-78302381D01*
X205456667Y-78254762D01*
X205504286Y-78207143D01*
X205551905Y-78111905D01*
X205551905Y-77873810D01*
X205504286Y-77778571D01*
X205456667Y-77730952D01*
X205361429Y-77683333D01*
X205170952Y-77683333D01*
X205075714Y-77730952D01*
X205028095Y-77778571D01*
X204980476Y-77873810D01*
X204038095Y-79747619D02*
X204085714Y-79700000D01*
X204180952Y-79652381D01*
X204419048Y-79652381D01*
X204514286Y-79700000D01*
X204561905Y-79747619D01*
X204609524Y-79842857D01*
X204609524Y-79938095D01*
X204561905Y-80080952D01*
X203990476Y-80652381D01*
X204609524Y-80652381D01*
X205180952Y-80080952D02*
X205085714Y-80033333D01*
X205038095Y-79985714D01*
X204990476Y-79890476D01*
X204990476Y-79842857D01*
X205038095Y-79747619D01*
X205085714Y-79700000D01*
X205180952Y-79652381D01*
X205371429Y-79652381D01*
X205466667Y-79700000D01*
X205514286Y-79747619D01*
X205561905Y-79842857D01*
X205561905Y-79890476D01*
X205514286Y-79985714D01*
X205466667Y-80033333D01*
X205371429Y-80080952D01*
X205180952Y-80080952D01*
X205085714Y-80128571D01*
X205038095Y-80176190D01*
X204990476Y-80271429D01*
X204990476Y-80461905D01*
X205038095Y-80557143D01*
X205085714Y-80604762D01*
X205180952Y-80652381D01*
X205371429Y-80652381D01*
X205466667Y-80604762D01*
X205514286Y-80557143D01*
X205561905Y-80461905D01*
X205561905Y-80271429D01*
X205514286Y-80176190D01*
X205466667Y-80128571D01*
X205371429Y-80080952D01*
X204050476Y-82482381D02*
X204669524Y-82482381D01*
X204336190Y-82863333D01*
X204479048Y-82863333D01*
X204574286Y-82910952D01*
X204621905Y-82958571D01*
X204669524Y-83053810D01*
X204669524Y-83291905D01*
X204621905Y-83387143D01*
X204574286Y-83434762D01*
X204479048Y-83482381D01*
X204193333Y-83482381D01*
X204098095Y-83434762D01*
X204050476Y-83387143D01*
X205288571Y-82482381D02*
X205383810Y-82482381D01*
X205479048Y-82530000D01*
X205526667Y-82577619D01*
X205574286Y-82672857D01*
X205621905Y-82863333D01*
X205621905Y-83101429D01*
X205574286Y-83291905D01*
X205526667Y-83387143D01*
X205479048Y-83434762D01*
X205383810Y-83482381D01*
X205288571Y-83482381D01*
X205193333Y-83434762D01*
X205145714Y-83387143D01*
X205098095Y-83291905D01*
X205050476Y-83101429D01*
X205050476Y-82863333D01*
X205098095Y-82672857D01*
X205145714Y-82577619D01*
X205193333Y-82530000D01*
X205288571Y-82482381D01*
X204050476Y-84932381D02*
X204669524Y-84932381D01*
X204336190Y-85313333D01*
X204479048Y-85313333D01*
X204574286Y-85360952D01*
X204621905Y-85408571D01*
X204669524Y-85503810D01*
X204669524Y-85741905D01*
X204621905Y-85837143D01*
X204574286Y-85884762D01*
X204479048Y-85932381D01*
X204193333Y-85932381D01*
X204098095Y-85884762D01*
X204050476Y-85837143D01*
X205050476Y-85027619D02*
X205098095Y-84980000D01*
X205193333Y-84932381D01*
X205431429Y-84932381D01*
X205526667Y-84980000D01*
X205574286Y-85027619D01*
X205621905Y-85122857D01*
X205621905Y-85218095D01*
X205574286Y-85360952D01*
X205002857Y-85932381D01*
X205621905Y-85932381D01*
X203900476Y-87412381D02*
X204519524Y-87412381D01*
X204186190Y-87793333D01*
X204329048Y-87793333D01*
X204424286Y-87840952D01*
X204471905Y-87888571D01*
X204519524Y-87983810D01*
X204519524Y-88221905D01*
X204471905Y-88317143D01*
X204424286Y-88364762D01*
X204329048Y-88412381D01*
X204043333Y-88412381D01*
X203948095Y-88364762D01*
X203900476Y-88317143D01*
X205376667Y-87745714D02*
X205376667Y-88412381D01*
X205138571Y-87364762D02*
X204900476Y-88079048D01*
X205519524Y-88079048D01*
X203870476Y-89952381D02*
X204489524Y-89952381D01*
X204156190Y-90333333D01*
X204299048Y-90333333D01*
X204394286Y-90380952D01*
X204441905Y-90428571D01*
X204489524Y-90523810D01*
X204489524Y-90761905D01*
X204441905Y-90857143D01*
X204394286Y-90904762D01*
X204299048Y-90952381D01*
X204013333Y-90952381D01*
X203918095Y-90904762D01*
X203870476Y-90857143D01*
X205346667Y-89952381D02*
X205156190Y-89952381D01*
X205060952Y-90000000D01*
X205013333Y-90047619D01*
X204918095Y-90190476D01*
X204870476Y-90380952D01*
X204870476Y-90761905D01*
X204918095Y-90857143D01*
X204965714Y-90904762D01*
X205060952Y-90952381D01*
X205251429Y-90952381D01*
X205346667Y-90904762D01*
X205394286Y-90857143D01*
X205441905Y-90761905D01*
X205441905Y-90523810D01*
X205394286Y-90428571D01*
X205346667Y-90380952D01*
X205251429Y-90333333D01*
X205060952Y-90333333D01*
X204965714Y-90380952D01*
X204918095Y-90428571D01*
X204870476Y-90523810D01*
X203790476Y-92572381D02*
X204409524Y-92572381D01*
X204076190Y-92953333D01*
X204219048Y-92953333D01*
X204314286Y-93000952D01*
X204361905Y-93048571D01*
X204409524Y-93143810D01*
X204409524Y-93381905D01*
X204361905Y-93477143D01*
X204314286Y-93524762D01*
X204219048Y-93572381D01*
X203933333Y-93572381D01*
X203838095Y-93524762D01*
X203790476Y-93477143D01*
X204980952Y-93000952D02*
X204885714Y-92953333D01*
X204838095Y-92905714D01*
X204790476Y-92810476D01*
X204790476Y-92762857D01*
X204838095Y-92667619D01*
X204885714Y-92620000D01*
X204980952Y-92572381D01*
X205171429Y-92572381D01*
X205266667Y-92620000D01*
X205314286Y-92667619D01*
X205361905Y-92762857D01*
X205361905Y-92810476D01*
X205314286Y-92905714D01*
X205266667Y-92953333D01*
X205171429Y-93000952D01*
X204980952Y-93000952D01*
X204885714Y-93048571D01*
X204838095Y-93096190D01*
X204790476Y-93191429D01*
X204790476Y-93381905D01*
X204838095Y-93477143D01*
X204885714Y-93524762D01*
X204980952Y-93572381D01*
X205171429Y-93572381D01*
X205266667Y-93524762D01*
X205314286Y-93477143D01*
X205361905Y-93381905D01*
X205361905Y-93191429D01*
X205314286Y-93096190D01*
X205266667Y-93048571D01*
X205171429Y-93000952D01*
X204434286Y-95495714D02*
X204434286Y-96162381D01*
X204196190Y-95114762D02*
X203958095Y-95829048D01*
X204577143Y-95829048D01*
X205148571Y-95162381D02*
X205243810Y-95162381D01*
X205339048Y-95210000D01*
X205386667Y-95257619D01*
X205434286Y-95352857D01*
X205481905Y-95543333D01*
X205481905Y-95781429D01*
X205434286Y-95971905D01*
X205386667Y-96067143D01*
X205339048Y-96114762D01*
X205243810Y-96162381D01*
X205148571Y-96162381D01*
X205053333Y-96114762D01*
X205005714Y-96067143D01*
X204958095Y-95971905D01*
X204910476Y-95781429D01*
X204910476Y-95543333D01*
X204958095Y-95352857D01*
X205005714Y-95257619D01*
X205053333Y-95210000D01*
X205148571Y-95162381D01*
X204324286Y-97765714D02*
X204324286Y-98432381D01*
X204086190Y-97384762D02*
X203848095Y-98099048D01*
X204467143Y-98099048D01*
X204800476Y-97527619D02*
X204848095Y-97480000D01*
X204943333Y-97432381D01*
X205181429Y-97432381D01*
X205276667Y-97480000D01*
X205324286Y-97527619D01*
X205371905Y-97622857D01*
X205371905Y-97718095D01*
X205324286Y-97860952D01*
X204752857Y-98432381D01*
X205371905Y-98432381D01*
X204424286Y-100705714D02*
X204424286Y-101372381D01*
X204186190Y-100324762D02*
X203948095Y-101039048D01*
X204567143Y-101039048D01*
X205376667Y-100705714D02*
X205376667Y-101372381D01*
X205138571Y-100324762D02*
X204900476Y-101039048D01*
X205519524Y-101039048D01*
X204474286Y-103235714D02*
X204474286Y-103902381D01*
X204236190Y-102854762D02*
X203998095Y-103569048D01*
X204617143Y-103569048D01*
X205426667Y-102902381D02*
X205236190Y-102902381D01*
X205140952Y-102950000D01*
X205093333Y-102997619D01*
X204998095Y-103140476D01*
X204950476Y-103330952D01*
X204950476Y-103711905D01*
X204998095Y-103807143D01*
X205045714Y-103854762D01*
X205140952Y-103902381D01*
X205331429Y-103902381D01*
X205426667Y-103854762D01*
X205474286Y-103807143D01*
X205521905Y-103711905D01*
X205521905Y-103473810D01*
X205474286Y-103378571D01*
X205426667Y-103330952D01*
X205331429Y-103283333D01*
X205140952Y-103283333D01*
X205045714Y-103330952D01*
X204998095Y-103378571D01*
X204950476Y-103473810D01*
X204414286Y-105565714D02*
X204414286Y-106232381D01*
X204176190Y-105184762D02*
X203938095Y-105899048D01*
X204557143Y-105899048D01*
X205080952Y-105660952D02*
X204985714Y-105613333D01*
X204938095Y-105565714D01*
X204890476Y-105470476D01*
X204890476Y-105422857D01*
X204938095Y-105327619D01*
X204985714Y-105280000D01*
X205080952Y-105232381D01*
X205271429Y-105232381D01*
X205366667Y-105280000D01*
X205414286Y-105327619D01*
X205461905Y-105422857D01*
X205461905Y-105470476D01*
X205414286Y-105565714D01*
X205366667Y-105613333D01*
X205271429Y-105660952D01*
X205080952Y-105660952D01*
X204985714Y-105708571D01*
X204938095Y-105756190D01*
X204890476Y-105851429D01*
X204890476Y-106041905D01*
X204938095Y-106137143D01*
X204985714Y-106184762D01*
X205080952Y-106232381D01*
X205271429Y-106232381D01*
X205366667Y-106184762D01*
X205414286Y-106137143D01*
X205461905Y-106041905D01*
X205461905Y-105851429D01*
X205414286Y-105756190D01*
X205366667Y-105708571D01*
X205271429Y-105660952D01*
X204461905Y-107712381D02*
X203985714Y-107712381D01*
X203938095Y-108188571D01*
X203985714Y-108140952D01*
X204080952Y-108093333D01*
X204319048Y-108093333D01*
X204414286Y-108140952D01*
X204461905Y-108188571D01*
X204509524Y-108283810D01*
X204509524Y-108521905D01*
X204461905Y-108617143D01*
X204414286Y-108664762D01*
X204319048Y-108712381D01*
X204080952Y-108712381D01*
X203985714Y-108664762D01*
X203938095Y-108617143D01*
X205128571Y-107712381D02*
X205223810Y-107712381D01*
X205319048Y-107760000D01*
X205366667Y-107807619D01*
X205414286Y-107902857D01*
X205461905Y-108093333D01*
X205461905Y-108331429D01*
X205414286Y-108521905D01*
X205366667Y-108617143D01*
X205319048Y-108664762D01*
X205223810Y-108712381D01*
X205128571Y-108712381D01*
X205033333Y-108664762D01*
X204985714Y-108617143D01*
X204938095Y-108521905D01*
X204890476Y-108331429D01*
X204890476Y-108093333D01*
X204938095Y-107902857D01*
X204985714Y-107807619D01*
X205033333Y-107760000D01*
X205128571Y-107712381D01*
X204471905Y-110282381D02*
X203995714Y-110282381D01*
X203948095Y-110758571D01*
X203995714Y-110710952D01*
X204090952Y-110663333D01*
X204329048Y-110663333D01*
X204424286Y-110710952D01*
X204471905Y-110758571D01*
X204519524Y-110853810D01*
X204519524Y-111091905D01*
X204471905Y-111187143D01*
X204424286Y-111234762D01*
X204329048Y-111282381D01*
X204090952Y-111282381D01*
X203995714Y-111234762D01*
X203948095Y-111187143D01*
X204900476Y-110377619D02*
X204948095Y-110330000D01*
X205043333Y-110282381D01*
X205281429Y-110282381D01*
X205376667Y-110330000D01*
X205424286Y-110377619D01*
X205471905Y-110472857D01*
X205471905Y-110568095D01*
X205424286Y-110710952D01*
X204852857Y-111282381D01*
X205471905Y-111282381D01*
X187796667Y-116364286D02*
X187796667Y-115888095D01*
X188082381Y-116459524D02*
X187082381Y-116126191D01*
X188082381Y-115792857D01*
X188082381Y-115459524D02*
X187082381Y-115459524D01*
X187082381Y-115221429D01*
X187130000Y-115078571D01*
X187225238Y-114983333D01*
X187320476Y-114935714D01*
X187510952Y-114888095D01*
X187653810Y-114888095D01*
X187844286Y-114935714D01*
X187939524Y-114983333D01*
X188034762Y-115078571D01*
X188082381Y-115221429D01*
X188082381Y-115459524D01*
X187510952Y-114316667D02*
X187463333Y-114411905D01*
X187415714Y-114459524D01*
X187320476Y-114507143D01*
X187272857Y-114507143D01*
X187177619Y-114459524D01*
X187130000Y-114411905D01*
X187082381Y-114316667D01*
X187082381Y-114126190D01*
X187130000Y-114030952D01*
X187177619Y-113983333D01*
X187272857Y-113935714D01*
X187320476Y-113935714D01*
X187415714Y-113983333D01*
X187463333Y-114030952D01*
X187510952Y-114126190D01*
X187510952Y-114316667D01*
X187558571Y-114411905D01*
X187606190Y-114459524D01*
X187701429Y-114507143D01*
X187891905Y-114507143D01*
X187987143Y-114459524D01*
X188034762Y-114411905D01*
X188082381Y-114316667D01*
X188082381Y-114126190D01*
X188034762Y-114030952D01*
X187987143Y-113983333D01*
X187891905Y-113935714D01*
X187701429Y-113935714D01*
X187606190Y-113983333D01*
X187558571Y-114030952D01*
X187510952Y-114126190D01*
D13*
X168327631Y-89070000D02*
G75*
G03X168327631Y-89070000I-167631J0D01*
G01*
X169234109Y-104940000D02*
G75*
G03X169234109Y-104940000I-294109J0D01*
G01*
X200394762Y-102806190D02*
X200356667Y-102882381D01*
X200318571Y-102920476D01*
X200242381Y-102958571D01*
X200204286Y-102958571D01*
X200128095Y-102920476D01*
X200090000Y-102882381D01*
X200051905Y-102806190D01*
X200051905Y-102653809D01*
X200090000Y-102577619D01*
X200128095Y-102539523D01*
X200204286Y-102501428D01*
X200242381Y-102501428D01*
X200318571Y-102539523D01*
X200356667Y-102577619D01*
X200394762Y-102653809D01*
X200394762Y-102806190D01*
X200432857Y-102882381D01*
X200470952Y-102920476D01*
X200547143Y-102958571D01*
X200699524Y-102958571D01*
X200775714Y-102920476D01*
X200813810Y-102882381D01*
X200851905Y-102806190D01*
X200851905Y-102653809D01*
X200813810Y-102577619D01*
X200775714Y-102539523D01*
X200699524Y-102501428D01*
X200547143Y-102501428D01*
X200470952Y-102539523D01*
X200432857Y-102577619D01*
X200394762Y-102653809D01*
X197641905Y-103026666D02*
X197641905Y-102493333D01*
X198441905Y-102836190D01*
X195251905Y-102577619D02*
X195251905Y-102730000D01*
X195290000Y-102806190D01*
X195328095Y-102844285D01*
X195442381Y-102920476D01*
X195594762Y-102958571D01*
X195899524Y-102958571D01*
X195975714Y-102920476D01*
X196013810Y-102882381D01*
X196051905Y-102806190D01*
X196051905Y-102653809D01*
X196013810Y-102577619D01*
X195975714Y-102539523D01*
X195899524Y-102501428D01*
X195709048Y-102501428D01*
X195632857Y-102539523D01*
X195594762Y-102577619D01*
X195556667Y-102653809D01*
X195556667Y-102806190D01*
X195594762Y-102882381D01*
X195632857Y-102920476D01*
X195709048Y-102958571D01*
X192681905Y-102549523D02*
X192681905Y-102930476D01*
X193062857Y-102968571D01*
X193024762Y-102930476D01*
X192986667Y-102854285D01*
X192986667Y-102663809D01*
X193024762Y-102587619D01*
X193062857Y-102549523D01*
X193139048Y-102511428D01*
X193329524Y-102511428D01*
X193405714Y-102549523D01*
X193443810Y-102587619D01*
X193481905Y-102663809D01*
X193481905Y-102854285D01*
X193443810Y-102930476D01*
X193405714Y-102968571D01*
X190278571Y-102517619D02*
X190811905Y-102517619D01*
X189973810Y-102708095D02*
X190545238Y-102898571D01*
X190545238Y-102403333D01*
X187471905Y-103026666D02*
X187471905Y-102531428D01*
X187776667Y-102798095D01*
X187776667Y-102683809D01*
X187814762Y-102607619D01*
X187852857Y-102569523D01*
X187929048Y-102531428D01*
X188119524Y-102531428D01*
X188195714Y-102569523D01*
X188233810Y-102607619D01*
X188271905Y-102683809D01*
X188271905Y-102912381D01*
X188233810Y-102988571D01*
X188195714Y-103026666D01*
X185108095Y-102868571D02*
X185070000Y-102830476D01*
X185031905Y-102754285D01*
X185031905Y-102563809D01*
X185070000Y-102487619D01*
X185108095Y-102449523D01*
X185184286Y-102411428D01*
X185260476Y-102411428D01*
X185374762Y-102449523D01*
X185831905Y-102906666D01*
X185831905Y-102411428D01*
X183221905Y-102301428D02*
X183221905Y-102758571D01*
X183221905Y-102530000D02*
X182421905Y-102530000D01*
X182536190Y-102606190D01*
X182612381Y-102682381D01*
X182650476Y-102758571D01*
X201001905Y-112507143D02*
X200201905Y-112507143D01*
X200773333Y-112240476D01*
X200201905Y-111973809D01*
X201001905Y-111973809D01*
X200201905Y-111440476D02*
X200201905Y-111288095D01*
X200240000Y-111211904D01*
X200316190Y-111135714D01*
X200468571Y-111097619D01*
X200735238Y-111097619D01*
X200887619Y-111135714D01*
X200963810Y-111211904D01*
X201001905Y-111288095D01*
X201001905Y-111440476D01*
X200963810Y-111516666D01*
X200887619Y-111592857D01*
X200735238Y-111630952D01*
X200468571Y-111630952D01*
X200316190Y-111592857D01*
X200240000Y-111516666D01*
X200201905Y-111440476D01*
X200963810Y-110792857D02*
X201001905Y-110678571D01*
X201001905Y-110488095D01*
X200963810Y-110411905D01*
X200925714Y-110373809D01*
X200849524Y-110335714D01*
X200773333Y-110335714D01*
X200697143Y-110373809D01*
X200659048Y-110411905D01*
X200620952Y-110488095D01*
X200582857Y-110640476D01*
X200544762Y-110716667D01*
X200506667Y-110754762D01*
X200430476Y-110792857D01*
X200354286Y-110792857D01*
X200278095Y-110754762D01*
X200240000Y-110716667D01*
X200201905Y-110640476D01*
X200201905Y-110450000D01*
X200240000Y-110335714D01*
X201001905Y-109992857D02*
X200201905Y-109992857D01*
X198561905Y-111608571D02*
X197761905Y-111608571D01*
X198561905Y-111151428D01*
X197761905Y-111151428D01*
X198485714Y-110313333D02*
X198523810Y-110351428D01*
X198561905Y-110465714D01*
X198561905Y-110541904D01*
X198523810Y-110656190D01*
X198447619Y-110732381D01*
X198371429Y-110770476D01*
X198219048Y-110808571D01*
X198104762Y-110808571D01*
X197952381Y-110770476D01*
X197876190Y-110732381D01*
X197800000Y-110656190D01*
X197761905Y-110541904D01*
X197761905Y-110465714D01*
X197800000Y-110351428D01*
X197838095Y-110313333D01*
X195388571Y-111992381D02*
X195921905Y-111992381D01*
X195464762Y-111992381D02*
X195426667Y-111954286D01*
X195388571Y-111878095D01*
X195388571Y-111763809D01*
X195426667Y-111687619D01*
X195502857Y-111649524D01*
X195921905Y-111649524D01*
X195845714Y-110811428D02*
X195883810Y-110849523D01*
X195921905Y-110963809D01*
X195921905Y-111039999D01*
X195883810Y-111154285D01*
X195807619Y-111230476D01*
X195731429Y-111268571D01*
X195579048Y-111306666D01*
X195464762Y-111306666D01*
X195312381Y-111268571D01*
X195236190Y-111230476D01*
X195160000Y-111154285D01*
X195121905Y-111039999D01*
X195121905Y-110963809D01*
X195160000Y-110849523D01*
X195198095Y-110811428D01*
X195883810Y-110506666D02*
X195921905Y-110392380D01*
X195921905Y-110201904D01*
X195883810Y-110125714D01*
X195845714Y-110087618D01*
X195769524Y-110049523D01*
X195693333Y-110049523D01*
X195617143Y-110087618D01*
X195579048Y-110125714D01*
X195540952Y-110201904D01*
X195502857Y-110354285D01*
X195464762Y-110430476D01*
X195426667Y-110468571D01*
X195350476Y-110506666D01*
X195274286Y-110506666D01*
X195198095Y-110468571D01*
X195160000Y-110430476D01*
X195121905Y-110354285D01*
X195121905Y-110163809D01*
X195160000Y-110049523D01*
X193325714Y-111446190D02*
X193363810Y-111484285D01*
X193401905Y-111598571D01*
X193401905Y-111674761D01*
X193363810Y-111789047D01*
X193287619Y-111865238D01*
X193211429Y-111903333D01*
X193059048Y-111941428D01*
X192944762Y-111941428D01*
X192792381Y-111903333D01*
X192716190Y-111865238D01*
X192640000Y-111789047D01*
X192601905Y-111674761D01*
X192601905Y-111598571D01*
X192640000Y-111484285D01*
X192678095Y-111446190D01*
X193401905Y-110722380D02*
X193401905Y-111103333D01*
X192601905Y-111103333D01*
X193401905Y-110455714D02*
X192601905Y-110455714D01*
X193401905Y-109998571D02*
X192944762Y-110341428D01*
X192601905Y-109998571D02*
X193059048Y-110455714D01*
X190891905Y-113170952D02*
X190091905Y-113170952D01*
X190091905Y-112980476D01*
X190130000Y-112866190D01*
X190206190Y-112789999D01*
X190282381Y-112751904D01*
X190434762Y-112713809D01*
X190549048Y-112713809D01*
X190701429Y-112751904D01*
X190777619Y-112789999D01*
X190853810Y-112866190D01*
X190891905Y-112980476D01*
X190891905Y-113170952D01*
X190891905Y-112370952D02*
X190091905Y-112370952D01*
X190091905Y-111837619D02*
X190091905Y-111685238D01*
X190130000Y-111609047D01*
X190206190Y-111532857D01*
X190358571Y-111494762D01*
X190625238Y-111494762D01*
X190777619Y-111532857D01*
X190853810Y-111609047D01*
X190891905Y-111685238D01*
X190891905Y-111837619D01*
X190853810Y-111913809D01*
X190777619Y-111990000D01*
X190625238Y-112028095D01*
X190358571Y-112028095D01*
X190206190Y-111990000D01*
X190130000Y-111913809D01*
X190091905Y-111837619D01*
X190358571Y-110809048D02*
X190891905Y-110809048D01*
X190053810Y-110999524D02*
X190625238Y-111190000D01*
X190625238Y-110694762D01*
X190434762Y-110275714D02*
X190396667Y-110351905D01*
X190358571Y-110390000D01*
X190282381Y-110428095D01*
X190244286Y-110428095D01*
X190168095Y-110390000D01*
X190130000Y-110351905D01*
X190091905Y-110275714D01*
X190091905Y-110123333D01*
X190130000Y-110047143D01*
X190168095Y-110009047D01*
X190244286Y-109970952D01*
X190282381Y-109970952D01*
X190358571Y-110009047D01*
X190396667Y-110047143D01*
X190434762Y-110123333D01*
X190434762Y-110275714D01*
X190472857Y-110351905D01*
X190510952Y-110390000D01*
X190587143Y-110428095D01*
X190739524Y-110428095D01*
X190815714Y-110390000D01*
X190853810Y-110351905D01*
X190891905Y-110275714D01*
X190891905Y-110123333D01*
X190853810Y-110047143D01*
X190815714Y-110009047D01*
X190739524Y-109970952D01*
X190587143Y-109970952D01*
X190510952Y-110009047D01*
X190472857Y-110047143D01*
X190434762Y-110123333D01*
X188371905Y-112457143D02*
X187571905Y-112457143D01*
X188143333Y-112190476D01*
X187571905Y-111923809D01*
X188371905Y-111923809D01*
X188371905Y-111542857D02*
X187571905Y-111542857D01*
X188333810Y-111200000D02*
X188371905Y-111085714D01*
X188371905Y-110895238D01*
X188333810Y-110819048D01*
X188295714Y-110780952D01*
X188219524Y-110742857D01*
X188143333Y-110742857D01*
X188067143Y-110780952D01*
X188029048Y-110819048D01*
X187990952Y-110895238D01*
X187952857Y-111047619D01*
X187914762Y-111123810D01*
X187876667Y-111161905D01*
X187800476Y-111200000D01*
X187724286Y-111200000D01*
X187648095Y-111161905D01*
X187610000Y-111123810D01*
X187571905Y-111047619D01*
X187571905Y-110857143D01*
X187610000Y-110742857D01*
X187571905Y-110247619D02*
X187571905Y-110095238D01*
X187610000Y-110019047D01*
X187686190Y-109942857D01*
X187838571Y-109904762D01*
X188105238Y-109904762D01*
X188257619Y-109942857D01*
X188333810Y-110019047D01*
X188371905Y-110095238D01*
X188371905Y-110247619D01*
X188333810Y-110323809D01*
X188257619Y-110400000D01*
X188105238Y-110438095D01*
X187838571Y-110438095D01*
X187686190Y-110400000D01*
X187610000Y-110323809D01*
X187571905Y-110247619D01*
X185051905Y-111910477D02*
X185051905Y-111453334D01*
X185851905Y-111681905D02*
X185051905Y-111681905D01*
X185051905Y-111262857D02*
X185851905Y-110729524D01*
X185051905Y-110729524D02*
X185851905Y-111262857D01*
X185051905Y-110500952D02*
X185051905Y-110005714D01*
X185356667Y-110272381D01*
X185356667Y-110158095D01*
X185394762Y-110081905D01*
X185432857Y-110043809D01*
X185509048Y-110005714D01*
X185699524Y-110005714D01*
X185775714Y-110043809D01*
X185813810Y-110081905D01*
X185851905Y-110158095D01*
X185851905Y-110386667D01*
X185813810Y-110462857D01*
X185775714Y-110500952D01*
X183161905Y-111434286D02*
X182780952Y-111700953D01*
X183161905Y-111891429D02*
X182361905Y-111891429D01*
X182361905Y-111586667D01*
X182400000Y-111510476D01*
X182438095Y-111472381D01*
X182514286Y-111434286D01*
X182628571Y-111434286D01*
X182704762Y-111472381D01*
X182742857Y-111510476D01*
X182780952Y-111586667D01*
X182780952Y-111891429D01*
X182361905Y-111167619D02*
X183161905Y-110634286D01*
X182361905Y-110634286D02*
X183161905Y-111167619D01*
X182361905Y-110405714D02*
X182361905Y-109910476D01*
X182666667Y-110177143D01*
X182666667Y-110062857D01*
X182704762Y-109986667D01*
X182742857Y-109948571D01*
X182819048Y-109910476D01*
X183009524Y-109910476D01*
X183085714Y-109948571D01*
X183123810Y-109986667D01*
X183161905Y-110062857D01*
X183161905Y-110291429D01*
X183123810Y-110367619D01*
X183085714Y-110405714D01*
X201111905Y-83618571D02*
X200311905Y-83618571D01*
X201111905Y-83161428D01*
X200311905Y-83161428D01*
X201035714Y-82323333D02*
X201073810Y-82361428D01*
X201111905Y-82475714D01*
X201111905Y-82551904D01*
X201073810Y-82666190D01*
X200997619Y-82742381D01*
X200921429Y-82780476D01*
X200769048Y-82818571D01*
X200654762Y-82818571D01*
X200502381Y-82780476D01*
X200426190Y-82742381D01*
X200350000Y-82666190D01*
X200311905Y-82551904D01*
X200311905Y-82475714D01*
X200350000Y-82361428D01*
X200388095Y-82323333D01*
X198551905Y-83648571D02*
X197751905Y-83648571D01*
X198551905Y-83191428D01*
X197751905Y-83191428D01*
X198475714Y-82353333D02*
X198513810Y-82391428D01*
X198551905Y-82505714D01*
X198551905Y-82581904D01*
X198513810Y-82696190D01*
X198437619Y-82772381D01*
X198361429Y-82810476D01*
X198209048Y-82848571D01*
X198094762Y-82848571D01*
X197942381Y-82810476D01*
X197866190Y-82772381D01*
X197790000Y-82696190D01*
X197751905Y-82581904D01*
X197751905Y-82505714D01*
X197790000Y-82391428D01*
X197828095Y-82353333D01*
X195941905Y-83728571D02*
X195141905Y-83728571D01*
X195941905Y-83271428D01*
X195141905Y-83271428D01*
X195865714Y-82433333D02*
X195903810Y-82471428D01*
X195941905Y-82585714D01*
X195941905Y-82661904D01*
X195903810Y-82776190D01*
X195827619Y-82852381D01*
X195751429Y-82890476D01*
X195599048Y-82928571D01*
X195484762Y-82928571D01*
X195332381Y-82890476D01*
X195256190Y-82852381D01*
X195180000Y-82776190D01*
X195141905Y-82661904D01*
X195141905Y-82585714D01*
X195180000Y-82471428D01*
X195218095Y-82433333D01*
X193511905Y-83728571D02*
X192711905Y-83728571D01*
X193511905Y-83271428D01*
X192711905Y-83271428D01*
X193435714Y-82433333D02*
X193473810Y-82471428D01*
X193511905Y-82585714D01*
X193511905Y-82661904D01*
X193473810Y-82776190D01*
X193397619Y-82852381D01*
X193321429Y-82890476D01*
X193169048Y-82928571D01*
X193054762Y-82928571D01*
X192902381Y-82890476D01*
X192826190Y-82852381D01*
X192750000Y-82776190D01*
X192711905Y-82661904D01*
X192711905Y-82585714D01*
X192750000Y-82471428D01*
X192788095Y-82433333D01*
X190961905Y-83648571D02*
X190161905Y-83648571D01*
X190961905Y-83191428D01*
X190161905Y-83191428D01*
X190885714Y-82353333D02*
X190923810Y-82391428D01*
X190961905Y-82505714D01*
X190961905Y-82581904D01*
X190923810Y-82696190D01*
X190847619Y-82772381D01*
X190771429Y-82810476D01*
X190619048Y-82848571D01*
X190504762Y-82848571D01*
X190352381Y-82810476D01*
X190276190Y-82772381D01*
X190200000Y-82696190D01*
X190161905Y-82581904D01*
X190161905Y-82505714D01*
X190200000Y-82391428D01*
X190238095Y-82353333D01*
X188331905Y-83568571D02*
X187531905Y-83568571D01*
X188331905Y-83111428D01*
X187531905Y-83111428D01*
X188255714Y-82273333D02*
X188293810Y-82311428D01*
X188331905Y-82425714D01*
X188331905Y-82501904D01*
X188293810Y-82616190D01*
X188217619Y-82692381D01*
X188141429Y-82730476D01*
X187989048Y-82768571D01*
X187874762Y-82768571D01*
X187722381Y-82730476D01*
X187646190Y-82692381D01*
X187570000Y-82616190D01*
X187531905Y-82501904D01*
X187531905Y-82425714D01*
X187570000Y-82311428D01*
X187608095Y-82273333D01*
X185881905Y-85230952D02*
X185081905Y-85230952D01*
X185081905Y-85040476D01*
X185120000Y-84926190D01*
X185196190Y-84849999D01*
X185272381Y-84811904D01*
X185424762Y-84773809D01*
X185539048Y-84773809D01*
X185691429Y-84811904D01*
X185767619Y-84849999D01*
X185843810Y-84926190D01*
X185881905Y-85040476D01*
X185881905Y-85230952D01*
X185881905Y-84430952D02*
X185081905Y-84430952D01*
X185081905Y-83897619D02*
X185081905Y-83745238D01*
X185120000Y-83669047D01*
X185196190Y-83592857D01*
X185348571Y-83554762D01*
X185615238Y-83554762D01*
X185767619Y-83592857D01*
X185843810Y-83669047D01*
X185881905Y-83745238D01*
X185881905Y-83897619D01*
X185843810Y-83973809D01*
X185767619Y-84050000D01*
X185615238Y-84088095D01*
X185348571Y-84088095D01*
X185196190Y-84050000D01*
X185120000Y-83973809D01*
X185081905Y-83897619D01*
X185158095Y-83250000D02*
X185120000Y-83211905D01*
X185081905Y-83135714D01*
X185081905Y-82945238D01*
X185120000Y-82869048D01*
X185158095Y-82830952D01*
X185234286Y-82792857D01*
X185310476Y-82792857D01*
X185424762Y-82830952D01*
X185881905Y-83288095D01*
X185881905Y-82792857D01*
X185881905Y-82030952D02*
X185881905Y-82488095D01*
X185881905Y-82259524D02*
X185081905Y-82259524D01*
X185196190Y-82335714D01*
X185272381Y-82411905D01*
X185310476Y-82488095D01*
X183401905Y-86900952D02*
X182601905Y-86900952D01*
X182601905Y-86710476D01*
X182640000Y-86596190D01*
X182716190Y-86519999D01*
X182792381Y-86481904D01*
X182944762Y-86443809D01*
X183059048Y-86443809D01*
X183211429Y-86481904D01*
X183287619Y-86519999D01*
X183363810Y-86596190D01*
X183401905Y-86710476D01*
X183401905Y-86900952D01*
X183401905Y-86100952D02*
X182601905Y-86100952D01*
X182601905Y-85567619D02*
X182601905Y-85415238D01*
X182640000Y-85339047D01*
X182716190Y-85262857D01*
X182868571Y-85224762D01*
X183135238Y-85224762D01*
X183287619Y-85262857D01*
X183363810Y-85339047D01*
X183401905Y-85415238D01*
X183401905Y-85567619D01*
X183363810Y-85643809D01*
X183287619Y-85720000D01*
X183135238Y-85758095D01*
X182868571Y-85758095D01*
X182716190Y-85720000D01*
X182640000Y-85643809D01*
X182601905Y-85567619D01*
X182678095Y-84920000D02*
X182640000Y-84881905D01*
X182601905Y-84805714D01*
X182601905Y-84615238D01*
X182640000Y-84539048D01*
X182678095Y-84500952D01*
X182754286Y-84462857D01*
X182830476Y-84462857D01*
X182944762Y-84500952D01*
X183401905Y-84958095D01*
X183401905Y-84462857D01*
X182563810Y-83548571D02*
X183592381Y-84234286D01*
X182678095Y-83320000D02*
X182640000Y-83281905D01*
X182601905Y-83205714D01*
X182601905Y-83015238D01*
X182640000Y-82939048D01*
X182678095Y-82900952D01*
X182754286Y-82862857D01*
X182830476Y-82862857D01*
X182944762Y-82900952D01*
X183401905Y-83358095D01*
X183401905Y-82862857D01*
X182601905Y-82367619D02*
X182601905Y-82291428D01*
X182640000Y-82215238D01*
X182678095Y-82177143D01*
X182754286Y-82139047D01*
X182906667Y-82100952D01*
X183097143Y-82100952D01*
X183249524Y-82139047D01*
X183325714Y-82177143D01*
X183363810Y-82215238D01*
X183401905Y-82291428D01*
X183401905Y-82367619D01*
X183363810Y-82443809D01*
X183325714Y-82481905D01*
X183249524Y-82520000D01*
X183097143Y-82558095D01*
X182906667Y-82558095D01*
X182754286Y-82520000D01*
X182678095Y-82481905D01*
X182640000Y-82443809D01*
X182601905Y-82367619D01*
X142801905Y-81220477D02*
X142801905Y-80763334D01*
X143601905Y-80991905D02*
X142801905Y-80991905D01*
X142801905Y-80572857D02*
X143601905Y-80039524D01*
X142801905Y-80039524D02*
X143601905Y-80572857D01*
X142878095Y-79772857D02*
X142840000Y-79734762D01*
X142801905Y-79658571D01*
X142801905Y-79468095D01*
X142840000Y-79391905D01*
X142878095Y-79353809D01*
X142954286Y-79315714D01*
X143030476Y-79315714D01*
X143144762Y-79353809D01*
X143601905Y-79810952D01*
X143601905Y-79315714D01*
X139631905Y-80684286D02*
X139250952Y-80950953D01*
X139631905Y-81141429D02*
X138831905Y-81141429D01*
X138831905Y-80836667D01*
X138870000Y-80760476D01*
X138908095Y-80722381D01*
X138984286Y-80684286D01*
X139098571Y-80684286D01*
X139174762Y-80722381D01*
X139212857Y-80760476D01*
X139250952Y-80836667D01*
X139250952Y-81141429D01*
X138831905Y-80417619D02*
X139631905Y-79884286D01*
X138831905Y-79884286D02*
X139631905Y-80417619D01*
X138908095Y-79617619D02*
X138870000Y-79579524D01*
X138831905Y-79503333D01*
X138831905Y-79312857D01*
X138870000Y-79236667D01*
X138908095Y-79198571D01*
X138984286Y-79160476D01*
X139060476Y-79160476D01*
X139174762Y-79198571D01*
X139631905Y-79655714D01*
X139631905Y-79160476D01*
X141861428Y-116697143D02*
X141561428Y-116268571D01*
X141347143Y-116697143D02*
X141347143Y-115797143D01*
X141690000Y-115797143D01*
X141775714Y-115840000D01*
X141818571Y-115882857D01*
X141861428Y-115968571D01*
X141861428Y-116097143D01*
X141818571Y-116182857D01*
X141775714Y-116225714D01*
X141690000Y-116268571D01*
X141347143Y-116268571D01*
X142161428Y-115797143D02*
X142761428Y-116697143D01*
X142761428Y-115797143D02*
X142161428Y-116697143D01*
X143018571Y-115797143D02*
X143575714Y-115797143D01*
X143275714Y-116140000D01*
X143404286Y-116140000D01*
X143490000Y-116182857D01*
X143532857Y-116225714D01*
X143575714Y-116311429D01*
X143575714Y-116525714D01*
X143532857Y-116611429D01*
X143490000Y-116654286D01*
X143404286Y-116697143D01*
X143147143Y-116697143D01*
X143061429Y-116654286D01*
X143018571Y-116611429D01*
X138395714Y-115887143D02*
X138910000Y-115887143D01*
X138652857Y-116787143D02*
X138652857Y-115887143D01*
X139124285Y-115887143D02*
X139724285Y-116787143D01*
X139724285Y-115887143D02*
X139124285Y-116787143D01*
X139981428Y-115887143D02*
X140538571Y-115887143D01*
X140238571Y-116230000D01*
X140367143Y-116230000D01*
X140452857Y-116272857D01*
X140495714Y-116315714D01*
X140538571Y-116401429D01*
X140538571Y-116615714D01*
X140495714Y-116701429D01*
X140452857Y-116744286D01*
X140367143Y-116787143D01*
X140110000Y-116787143D01*
X140024286Y-116744286D01*
X139981428Y-116701429D01*
X116912857Y-74180000D02*
X116912857Y-73751429D01*
X116484286Y-73708572D01*
X116527143Y-73751429D01*
X116570000Y-73837143D01*
X116570000Y-74051429D01*
X116527143Y-74137143D01*
X116484286Y-74180000D01*
X116398571Y-74222857D01*
X116184286Y-74222857D01*
X116098571Y-74180000D01*
X116055714Y-74137143D01*
X116012857Y-74051429D01*
X116012857Y-73837143D01*
X116055714Y-73751429D01*
X116098571Y-73708572D01*
X116912857Y-74480000D02*
X116012857Y-74780000D01*
X116912857Y-75080000D01*
X116355714Y-75380001D02*
X116355714Y-76065715D01*
X116012857Y-76965715D02*
X116012857Y-76451430D01*
X116012857Y-76708572D02*
X116912857Y-76708572D01*
X116784286Y-76622858D01*
X116698571Y-76537144D01*
X116655714Y-76451430D01*
X116912857Y-77780001D02*
X116912857Y-77351430D01*
X116484286Y-77308573D01*
X116527143Y-77351430D01*
X116570000Y-77437144D01*
X116570000Y-77651430D01*
X116527143Y-77737144D01*
X116484286Y-77780001D01*
X116398571Y-77822858D01*
X116184286Y-77822858D01*
X116098571Y-77780001D01*
X116055714Y-77737144D01*
X116012857Y-77651430D01*
X116012857Y-77437144D01*
X116055714Y-77351430D01*
X116098571Y-77308573D01*
X116912857Y-78080001D02*
X116012857Y-78380001D01*
X116912857Y-78680001D01*
X115927143Y-78765716D02*
X115927143Y-79451430D01*
X116012857Y-79665716D02*
X116912857Y-79665716D01*
X116012857Y-80094287D02*
X116912857Y-80094287D01*
X116012857Y-80608572D01*
X116912857Y-80608572D01*
X116770000Y-70284286D02*
X116812857Y-70198572D01*
X116812857Y-70070001D01*
X116770000Y-69941429D01*
X116684286Y-69855715D01*
X116598571Y-69812858D01*
X116427143Y-69770001D01*
X116298571Y-69770001D01*
X116127143Y-69812858D01*
X116041429Y-69855715D01*
X115955714Y-69941429D01*
X115912857Y-70070001D01*
X115912857Y-70155715D01*
X115955714Y-70284286D01*
X115998571Y-70327143D01*
X116298571Y-70327143D01*
X116298571Y-70155715D01*
X115912857Y-70712858D02*
X116812857Y-70712858D01*
X115912857Y-71227143D01*
X116812857Y-71227143D01*
X115912857Y-71655715D02*
X116812857Y-71655715D01*
X116812857Y-71870000D01*
X116770000Y-71998572D01*
X116684286Y-72084286D01*
X116598571Y-72127143D01*
X116427143Y-72170000D01*
X116298571Y-72170000D01*
X116127143Y-72127143D01*
X116041429Y-72084286D01*
X115955714Y-71998572D01*
X115912857Y-71870000D01*
X115912857Y-71655715D01*
X117070000Y-88954286D02*
X117112857Y-88868572D01*
X117112857Y-88740001D01*
X117070000Y-88611429D01*
X116984286Y-88525715D01*
X116898571Y-88482858D01*
X116727143Y-88440001D01*
X116598571Y-88440001D01*
X116427143Y-88482858D01*
X116341429Y-88525715D01*
X116255714Y-88611429D01*
X116212857Y-88740001D01*
X116212857Y-88825715D01*
X116255714Y-88954286D01*
X116298571Y-88997143D01*
X116598571Y-88997143D01*
X116598571Y-88825715D01*
X116212857Y-89382858D02*
X117112857Y-89382858D01*
X116212857Y-89897143D01*
X117112857Y-89897143D01*
X116212857Y-90325715D02*
X117112857Y-90325715D01*
X117112857Y-90540000D01*
X117070000Y-90668572D01*
X116984286Y-90754286D01*
X116898571Y-90797143D01*
X116727143Y-90840000D01*
X116598571Y-90840000D01*
X116427143Y-90797143D01*
X116341429Y-90754286D01*
X116255714Y-90668572D01*
X116212857Y-90540000D01*
X116212857Y-90325715D01*
X117252857Y-94098572D02*
X117252857Y-94612858D01*
X116352857Y-94355715D02*
X117252857Y-94355715D01*
X116352857Y-94827143D02*
X116952857Y-95298572D01*
X116952857Y-94827143D02*
X116352857Y-95298572D01*
X115982857Y-84334286D02*
X116411429Y-84034286D01*
X115982857Y-83820001D02*
X116882857Y-83820001D01*
X116882857Y-84162858D01*
X116840000Y-84248572D01*
X116797143Y-84291429D01*
X116711429Y-84334286D01*
X116582857Y-84334286D01*
X116497143Y-84291429D01*
X116454286Y-84248572D01*
X116411429Y-84162858D01*
X116411429Y-83820001D01*
X115982857Y-84634286D02*
X116582857Y-85105715D01*
X116582857Y-84634286D02*
X115982857Y-85105715D01*
D14*
X175700000Y-73920000D02*
X176900000Y-73920000D01*
X176900000Y-75680000D02*
X175700000Y-75680000D01*
X164470000Y-98980000D02*
X164470000Y-99980000D01*
X166170000Y-99980000D02*
X166170000Y-98980000D01*
X145310000Y-107540000D02*
X144310000Y-107540000D01*
X144310000Y-109240000D02*
X145310000Y-109240000D01*
X167950000Y-91390000D02*
X168950000Y-91390000D01*
X168950000Y-89690000D02*
X167950000Y-89690000D01*
X133870000Y-81300000D02*
X133870000Y-82300000D01*
X135570000Y-82300000D02*
X135570000Y-81300000D01*
X123790000Y-80750000D02*
X122790000Y-80750000D01*
X122790000Y-82450000D02*
X123790000Y-82450000D01*
X118190000Y-82440000D02*
X119190000Y-82440000D01*
X119190000Y-80740000D02*
X118190000Y-80740000D01*
X135590000Y-77670000D02*
X135590000Y-76670000D01*
X133890000Y-76670000D02*
X133890000Y-77670000D01*
X120510000Y-70490000D02*
X120510000Y-69090000D01*
X120510000Y-69090000D02*
X117710000Y-69090000D01*
X120510000Y-70490000D02*
X117710000Y-70490000D01*
X131120000Y-73220000D02*
X131120000Y-74620000D01*
X131120000Y-74620000D02*
X133920000Y-74620000D01*
X131120000Y-73220000D02*
X133920000Y-73220000D01*
X184220000Y-109300000D02*
X202060000Y-109300000D01*
X202060000Y-109300000D02*
X202060000Y-104100000D01*
X202060000Y-104100000D02*
X181620000Y-104100000D01*
X181620000Y-104100000D02*
X181620000Y-106700000D01*
X181620000Y-106700000D02*
X184220000Y-106700000D01*
X184220000Y-106700000D02*
X184220000Y-109300000D01*
X182950000Y-109300000D02*
X181620000Y-109300000D01*
X181620000Y-109300000D02*
X181620000Y-107970000D01*
X140930000Y-115370000D02*
X143530000Y-115370000D01*
X143530000Y-115370000D02*
X143530000Y-110170000D01*
X143530000Y-110170000D02*
X138330000Y-110170000D01*
X138330000Y-110170000D02*
X138330000Y-112770000D01*
X138330000Y-112770000D02*
X140930000Y-112770000D01*
X140930000Y-112770000D02*
X140930000Y-115370000D01*
X139660000Y-115370000D02*
X138330000Y-115370000D01*
X138330000Y-115370000D02*
X138330000Y-114040000D01*
X141090000Y-73020000D02*
X138490000Y-73020000D01*
X138490000Y-73020000D02*
X138490000Y-78220000D01*
X138490000Y-78220000D02*
X143690000Y-78220000D01*
X143690000Y-78220000D02*
X143690000Y-75620000D01*
X143690000Y-75620000D02*
X141090000Y-75620000D01*
X141090000Y-75620000D02*
X141090000Y-73020000D01*
X142360000Y-73020000D02*
X143690000Y-73020000D01*
X143690000Y-73020000D02*
X143690000Y-74350000D01*
D15*
X103530555Y-95040000D02*
G75*
G03X103530555Y-95040000I-360555J0D01*
G01*
X104350000Y-81640000D02*
X115550000Y-81640000D01*
X106750000Y-97640000D02*
X106750000Y-81640000D01*
X113050000Y-97640000D02*
X113050000Y-81640000D01*
X107450000Y-97640000D02*
X107450000Y-81640000D01*
X114750000Y-97640000D02*
X114750000Y-81640000D01*
X115550000Y-97640000D02*
X115550000Y-81640000D01*
X104350000Y-97640000D02*
X104350000Y-81640000D01*
X104350000Y-97640000D02*
X115550000Y-97640000D01*
D14*
X120280000Y-87490000D02*
X125420000Y-87490000D01*
X125420000Y-87490000D02*
X125420000Y-84830000D01*
X125420000Y-84830000D02*
X120280000Y-84830000D01*
X120280000Y-84830000D02*
X120280000Y-87490000D01*
X119010000Y-87490000D02*
X117680000Y-87490000D01*
X117680000Y-87490000D02*
X117680000Y-86160000D01*
D15*
X103440555Y-77390000D02*
G75*
G03X103440555Y-77390000I-360555J0D01*
G01*
X104260000Y-67910000D02*
X115460000Y-67910000D01*
X106660000Y-80990000D02*
X106660000Y-67910000D01*
X112960000Y-80990000D02*
X112960000Y-67910000D01*
X107360000Y-80990000D02*
X107360000Y-67910000D01*
X114660000Y-80990000D02*
X114660000Y-67910000D01*
X115460000Y-80990000D02*
X115460000Y-67990000D01*
X104260000Y-80990000D02*
X104260000Y-67910000D01*
X104260000Y-80990000D02*
X115460000Y-80990000D01*
D13*
X124060000Y-103740000D02*
X104400000Y-103740000D01*
X124060000Y-103740000D02*
X124060000Y-119580000D01*
X104400000Y-103740000D02*
X104400000Y-119580000D01*
X124060000Y-119580000D02*
X104400000Y-119580000D01*
D14*
X129070000Y-87540000D02*
X134210000Y-87540000D01*
X134210000Y-87540000D02*
X134210000Y-84880000D01*
X134210000Y-84880000D02*
X129070000Y-84880000D01*
X129070000Y-84880000D02*
X129070000Y-87540000D01*
X127800000Y-87540000D02*
X126470000Y-87540000D01*
X126470000Y-87540000D02*
X126470000Y-86210000D01*
X184240000Y-81380000D02*
X202080000Y-81380000D01*
X202080000Y-81380000D02*
X202080000Y-76180000D01*
X202080000Y-76180000D02*
X181640000Y-76180000D01*
X181640000Y-76180000D02*
X181640000Y-78780000D01*
X181640000Y-78780000D02*
X184240000Y-78780000D01*
X184240000Y-78780000D02*
X184240000Y-81380000D01*
X182970000Y-81380000D02*
X181640000Y-81380000D01*
X181640000Y-81380000D02*
X181640000Y-80050000D01*
X168100000Y-98970000D02*
X168100000Y-100170000D01*
X166340000Y-100170000D02*
X166340000Y-98970000D01*
X172570000Y-89680000D02*
X173770000Y-89680000D01*
X173770000Y-91440000D02*
X172570000Y-91440000D01*
X123760000Y-70700000D02*
X122560000Y-70700000D01*
X122560000Y-68940000D02*
X123760000Y-68940000D01*
X127880000Y-73040000D02*
X129080000Y-73040000D01*
X129080000Y-74800000D02*
X127880000Y-74800000D01*
X183930000Y-74850000D02*
X182730000Y-74850000D01*
X182730000Y-73090000D02*
X183930000Y-73090000D01*
D16*
X168510000Y-98465000D02*
X168610000Y-98465000D01*
X175335000Y-98465000D02*
X175310000Y-98465000D01*
X175335000Y-103115000D02*
X175310000Y-103115000D01*
X168510000Y-104190000D02*
X168510000Y-98465000D01*
X175335000Y-103115000D02*
X175335000Y-98465000D01*
X145800000Y-106510000D02*
X172210000Y-106510000D01*
X172210000Y-106510000D02*
X172210000Y-82130000D01*
X172210000Y-82130000D02*
X145800000Y-82130000D01*
X145800000Y-82130000D02*
X139270000Y-89720000D01*
X139270000Y-89720000D02*
X139270000Y-98920000D01*
X139270000Y-98920000D02*
X145800000Y-106510000D01*
X168540000Y-83535000D02*
X168640000Y-83535000D01*
X175365000Y-83535000D02*
X175340000Y-83535000D01*
X175365000Y-88185000D02*
X175340000Y-88185000D01*
X168540000Y-89260000D02*
X168540000Y-83535000D01*
X175365000Y-88185000D02*
X175365000Y-83535000D01*
D14*
X124940000Y-74220000D02*
X123680000Y-74220000D01*
X118120000Y-74220000D02*
X119380000Y-74220000D01*
X124940000Y-77980000D02*
X124940000Y-74220000D01*
X118120000Y-80230000D02*
X118120000Y-74220000D01*
X133040000Y-77760000D02*
X131780000Y-77760000D01*
X126220000Y-77760000D02*
X127480000Y-77760000D01*
X133040000Y-81520000D02*
X133040000Y-77760000D01*
X126220000Y-83770000D02*
X126220000Y-77760000D01*
D17*
G36*
X195886666Y-96486666D02*
X189198000Y-96486666D01*
X189198000Y-93395377D01*
X189549415Y-93395377D01*
X189550412Y-93413193D01*
X189650757Y-94031690D01*
X189885237Y-94579418D01*
X190269566Y-95090246D01*
X190383503Y-95208773D01*
X190818963Y-95582178D01*
X191282055Y-95839298D01*
X191837303Y-96014944D01*
X191907333Y-96030909D01*
X192278404Y-96105236D01*
X192559911Y-96134462D01*
X192825161Y-96119830D01*
X193147456Y-96062581D01*
X193194332Y-96052719D01*
X193886090Y-95832469D01*
X194482220Y-95494316D01*
X194968849Y-95053919D01*
X195332103Y-94526940D01*
X195558112Y-93929040D01*
X195633085Y-93299562D01*
X195605259Y-92864907D01*
X195530783Y-92456570D01*
X195485055Y-92304861D01*
X195368078Y-92052699D01*
X195201524Y-91782275D01*
X195013098Y-91528423D01*
X194830507Y-91325980D01*
X194681454Y-91209779D01*
X194607060Y-91200937D01*
X194549392Y-91184245D01*
X194551068Y-91137793D01*
X194503704Y-91042184D01*
X194432142Y-91024586D01*
X194268126Y-90982406D01*
X194220475Y-90947512D01*
X194210400Y-90910890D01*
X194256833Y-90932422D01*
X194350917Y-90961779D01*
X194362666Y-90947717D01*
X194289580Y-90863296D01*
X194109190Y-90766066D01*
X193879796Y-90678550D01*
X193659701Y-90623272D01*
X193515262Y-90620327D01*
X193382232Y-90632893D01*
X193370694Y-90589619D01*
X193315611Y-90551440D01*
X193108168Y-90524301D01*
X192765081Y-90509850D01*
X192542333Y-90507897D01*
X192136265Y-90515213D01*
X191857284Y-90536062D01*
X191722105Y-90568794D01*
X191713972Y-90589619D01*
X191690281Y-90636648D01*
X191581789Y-90623566D01*
X191454395Y-90614291D01*
X191455438Y-90666950D01*
X191450120Y-90722302D01*
X191370889Y-90704045D01*
X191253743Y-90697909D01*
X191230000Y-90736987D01*
X191177972Y-90785075D01*
X191145333Y-90771666D01*
X191067439Y-90781188D01*
X191060666Y-90813999D01*
X191013055Y-90872795D01*
X190986085Y-90862566D01*
X190871172Y-90881832D01*
X190682253Y-91002700D01*
X190453224Y-91196269D01*
X190217984Y-91433638D01*
X190010428Y-91685909D01*
X189994569Y-91707926D01*
X189715693Y-92209959D01*
X189570654Y-92759599D01*
X189549415Y-93395377D01*
X189198000Y-93395377D01*
X189198000Y-89798000D01*
X195886666Y-89798000D01*
X195886666Y-96486666D01*
X195886666Y-96486666D01*
G37*
X195886666Y-96486666D02*
X189198000Y-96486666D01*
X189198000Y-93395377D01*
X189549415Y-93395377D01*
X189550412Y-93413193D01*
X189650757Y-94031690D01*
X189885237Y-94579418D01*
X190269566Y-95090246D01*
X190383503Y-95208773D01*
X190818963Y-95582178D01*
X191282055Y-95839298D01*
X191837303Y-96014944D01*
X191907333Y-96030909D01*
X192278404Y-96105236D01*
X192559911Y-96134462D01*
X192825161Y-96119830D01*
X193147456Y-96062581D01*
X193194332Y-96052719D01*
X193886090Y-95832469D01*
X194482220Y-95494316D01*
X194968849Y-95053919D01*
X195332103Y-94526940D01*
X195558112Y-93929040D01*
X195633085Y-93299562D01*
X195605259Y-92864907D01*
X195530783Y-92456570D01*
X195485055Y-92304861D01*
X195368078Y-92052699D01*
X195201524Y-91782275D01*
X195013098Y-91528423D01*
X194830507Y-91325980D01*
X194681454Y-91209779D01*
X194607060Y-91200937D01*
X194549392Y-91184245D01*
X194551068Y-91137793D01*
X194503704Y-91042184D01*
X194432142Y-91024586D01*
X194268126Y-90982406D01*
X194220475Y-90947512D01*
X194210400Y-90910890D01*
X194256833Y-90932422D01*
X194350917Y-90961779D01*
X194362666Y-90947717D01*
X194289580Y-90863296D01*
X194109190Y-90766066D01*
X193879796Y-90678550D01*
X193659701Y-90623272D01*
X193515262Y-90620327D01*
X193382232Y-90632893D01*
X193370694Y-90589619D01*
X193315611Y-90551440D01*
X193108168Y-90524301D01*
X192765081Y-90509850D01*
X192542333Y-90507897D01*
X192136265Y-90515213D01*
X191857284Y-90536062D01*
X191722105Y-90568794D01*
X191713972Y-90589619D01*
X191690281Y-90636648D01*
X191581789Y-90623566D01*
X191454395Y-90614291D01*
X191455438Y-90666950D01*
X191450120Y-90722302D01*
X191370889Y-90704045D01*
X191253743Y-90697909D01*
X191230000Y-90736987D01*
X191177972Y-90785075D01*
X191145333Y-90771666D01*
X191067439Y-90781188D01*
X191060666Y-90813999D01*
X191013055Y-90872795D01*
X190986085Y-90862566D01*
X190871172Y-90881832D01*
X190682253Y-91002700D01*
X190453224Y-91196269D01*
X190217984Y-91433638D01*
X190010428Y-91685909D01*
X189994569Y-91707926D01*
X189715693Y-92209959D01*
X189570654Y-92759599D01*
X189549415Y-93395377D01*
X189198000Y-93395377D01*
X189198000Y-89798000D01*
X195886666Y-89798000D01*
X195886666Y-96486666D01*
G36*
X192751996Y-90684539D02*
X192983617Y-90718853D01*
X193658463Y-90896516D01*
X194239134Y-91203843D01*
X194650414Y-91547325D01*
X194901361Y-91822399D01*
X195023607Y-92022724D01*
X195013667Y-92140059D01*
X194913000Y-92168666D01*
X194828756Y-92169663D01*
X194798805Y-92200798D01*
X194822876Y-92304287D01*
X194900699Y-92522346D01*
X194910558Y-92549666D01*
X195034418Y-93125124D01*
X194990415Y-93700777D01*
X194778060Y-94279512D01*
X194554508Y-94651505D01*
X194423699Y-94863156D01*
X194395477Y-94985118D01*
X194443121Y-95044730D01*
X194469459Y-95115360D01*
X194363972Y-95228603D01*
X194183862Y-95355099D01*
X193960077Y-95508416D01*
X193796853Y-95635150D01*
X193750129Y-95681540D01*
X193693063Y-95716318D01*
X193686629Y-95693133D01*
X193635046Y-95672851D01*
X193576038Y-95709972D01*
X193420672Y-95785429D01*
X193191412Y-95845789D01*
X193173871Y-95848798D01*
X192902015Y-95895959D01*
X192665252Y-95940766D01*
X192484477Y-95955510D01*
X192396353Y-95931464D01*
X192283787Y-95889125D01*
X192075873Y-95853880D01*
X192035172Y-95849684D01*
X191794215Y-95803171D01*
X191708673Y-95767000D01*
X191822666Y-95767000D01*
X191865000Y-95809333D01*
X191907333Y-95767000D01*
X191865000Y-95724666D01*
X191822666Y-95767000D01*
X191708673Y-95767000D01*
X191615742Y-95727705D01*
X191603525Y-95718463D01*
X191479978Y-95654340D01*
X191432565Y-95663212D01*
X191343130Y-95649956D01*
X191231010Y-95569444D01*
X191046414Y-95416451D01*
X190849666Y-95270632D01*
X190699827Y-95131747D01*
X190707265Y-95028272D01*
X190709717Y-95025748D01*
X190729033Y-94903957D01*
X190614303Y-94699711D01*
X190592736Y-94670892D01*
X190415401Y-94399232D01*
X190264923Y-94107066D01*
X190258952Y-94092995D01*
X190171463Y-93756126D01*
X190134381Y-93333443D01*
X190136998Y-93257055D01*
X190437684Y-93257055D01*
X190452937Y-93611062D01*
X190517464Y-93936545D01*
X190588744Y-94116000D01*
X190778843Y-94429615D01*
X190967677Y-94646495D01*
X191131125Y-94741786D01*
X191191960Y-94737636D01*
X191234664Y-94671426D01*
X191174616Y-94526514D01*
X191055697Y-94349703D01*
X190793443Y-93891778D01*
X190681828Y-93431597D01*
X190687301Y-93355485D01*
X190976000Y-93355485D01*
X191034934Y-93678146D01*
X191189178Y-94030729D01*
X191380332Y-94306500D01*
X191530743Y-94438147D01*
X191645793Y-94429082D01*
X191677894Y-94401883D01*
X191665040Y-94308720D01*
X191568809Y-94140037D01*
X191523374Y-94077313D01*
X191311860Y-93697973D01*
X191262196Y-93308611D01*
X191339475Y-92953997D01*
X191413838Y-92693171D01*
X191406941Y-92553962D01*
X191316033Y-92507954D01*
X191296235Y-92507333D01*
X191209498Y-92581629D01*
X191114450Y-92768029D01*
X191031754Y-93011803D01*
X190982077Y-93258219D01*
X190976000Y-93355485D01*
X190687301Y-93355485D01*
X190717411Y-92936782D01*
X190856532Y-92475901D01*
X190852394Y-92358874D01*
X190783663Y-92338000D01*
X190644695Y-92414996D01*
X190537851Y-92619911D01*
X190467418Y-92913635D01*
X190437684Y-93257055D01*
X190136998Y-93257055D01*
X190149192Y-92901245D01*
X190217379Y-92535828D01*
X190228030Y-92503477D01*
X190282995Y-92298961D01*
X190257956Y-92203396D01*
X190228030Y-92187454D01*
X190144900Y-92128072D01*
X190158919Y-92020599D01*
X190280091Y-91842675D01*
X190489166Y-91603678D01*
X190742872Y-91370442D01*
X191047111Y-91155190D01*
X191372368Y-90970413D01*
X191689127Y-90828602D01*
X191967870Y-90742248D01*
X192179082Y-90723843D01*
X192293248Y-90785878D01*
X192305110Y-90835166D01*
X192315922Y-90971913D01*
X192341188Y-91217372D01*
X192367394Y-91449000D01*
X192392887Y-91726822D01*
X192384504Y-91851202D01*
X192341260Y-91834803D01*
X192337802Y-91830000D01*
X192258446Y-91644986D01*
X192247296Y-91565200D01*
X192185481Y-91398012D01*
X192117088Y-91320413D01*
X192029601Y-91154409D01*
X192038127Y-91056046D01*
X192035808Y-90925481D01*
X191955372Y-90898666D01*
X191861828Y-90901041D01*
X191831859Y-90940000D01*
X191857366Y-91063292D01*
X191901423Y-91216725D01*
X191932989Y-91422715D01*
X191885267Y-91490093D01*
X191778195Y-91407393D01*
X191718351Y-91321999D01*
X191599209Y-91198326D01*
X191474675Y-91150598D01*
X191402469Y-91196805D01*
X191399333Y-91222574D01*
X191463930Y-91343834D01*
X191616152Y-91491803D01*
X191793645Y-91614580D01*
X191925642Y-91660666D01*
X192054869Y-91726906D01*
X192203869Y-91890660D01*
X192233952Y-91935345D01*
X192341995Y-92115325D01*
X192359735Y-92204294D01*
X192288442Y-92253678D01*
X192242266Y-92271283D01*
X192107761Y-92359699D01*
X192076666Y-92424935D01*
X192024957Y-92478040D01*
X191992000Y-92465000D01*
X191931000Y-92350543D01*
X191907333Y-92163669D01*
X191881227Y-91987517D01*
X191818818Y-91914666D01*
X191704872Y-91859537D01*
X191540495Y-91724204D01*
X191513505Y-91697868D01*
X191359577Y-91569029D01*
X191255825Y-91527221D01*
X191245181Y-91532596D01*
X191237841Y-91642376D01*
X191340728Y-91792772D01*
X191518246Y-91938318D01*
X191597643Y-91982786D01*
X191759298Y-92099596D01*
X191822666Y-92215619D01*
X191763818Y-92319676D01*
X191620775Y-92329862D01*
X191443788Y-92255251D01*
X191294790Y-92120294D01*
X191141125Y-91975991D01*
X191038485Y-91987647D01*
X191035681Y-92090760D01*
X191139721Y-92232610D01*
X191306975Y-92374276D01*
X191493813Y-92476837D01*
X191618055Y-92504657D01*
X191798240Y-92533025D01*
X191845517Y-92627800D01*
X191767851Y-92814830D01*
X191732206Y-92875167D01*
X191621294Y-93110290D01*
X191569484Y-93324928D01*
X191568983Y-93340936D01*
X191616399Y-93567862D01*
X191733420Y-93813113D01*
X191881278Y-94006776D01*
X191973993Y-94071286D01*
X192127748Y-94093926D01*
X192162318Y-94017252D01*
X192071878Y-93867739D01*
X192028866Y-93821896D01*
X191854769Y-93548073D01*
X191839572Y-93257029D01*
X191983062Y-92983548D01*
X192034333Y-92930666D01*
X192177794Y-92807826D01*
X192254773Y-92764817D01*
X192257880Y-92767741D01*
X192268037Y-92864862D01*
X192282335Y-93080482D01*
X192294810Y-93311666D01*
X192288614Y-93794788D01*
X192223190Y-94187400D01*
X192105163Y-94463404D01*
X191971638Y-94585391D01*
X191785379Y-94725961D01*
X191702592Y-94835666D01*
X191598252Y-94994351D01*
X191536652Y-95059033D01*
X191506187Y-95160130D01*
X191570753Y-95268966D01*
X191651602Y-95301333D01*
X191719098Y-95228499D01*
X191779008Y-95053365D01*
X191779048Y-95053183D01*
X191857839Y-94845753D01*
X191972864Y-94690920D01*
X192086729Y-94631364D01*
X192131629Y-94650740D01*
X192184027Y-94802166D01*
X192166182Y-95016020D01*
X192091198Y-95207330D01*
X192036438Y-95267930D01*
X191942267Y-95388851D01*
X191946185Y-95465033D01*
X192053108Y-95549911D01*
X192144600Y-95515815D01*
X192161891Y-95449500D01*
X192207074Y-95313217D01*
X192317042Y-95118246D01*
X192336152Y-95089666D01*
X192509856Y-94835666D01*
X192483761Y-95294006D01*
X192484746Y-95607947D01*
X192533415Y-95766888D01*
X192563500Y-95787894D01*
X192627935Y-95754784D01*
X192663807Y-95588802D01*
X192675313Y-95329555D01*
X192681294Y-94835666D01*
X192841175Y-95195500D01*
X192953333Y-95408983D01*
X193054475Y-95537960D01*
X193089194Y-95555333D01*
X193170957Y-95498886D01*
X193135501Y-95341755D01*
X193016082Y-95143350D01*
X192913583Y-94965438D01*
X192920973Y-94836962D01*
X192961339Y-94771235D01*
X193052470Y-94672379D01*
X193135323Y-94705339D01*
X193198516Y-94772954D01*
X193318248Y-94962937D01*
X193359092Y-95082650D01*
X193424133Y-95223274D01*
X193519336Y-95283490D01*
X193590706Y-95241229D01*
X193600666Y-95181388D01*
X193560042Y-95064216D01*
X193521888Y-95047333D01*
X193450099Y-94975343D01*
X193416055Y-94856833D01*
X193322076Y-94674075D01*
X193298514Y-94656343D01*
X193854666Y-94656343D01*
X193914888Y-94711439D01*
X194051269Y-94691320D01*
X194197386Y-94612116D01*
X194249406Y-94560500D01*
X194536544Y-94074231D01*
X194685833Y-93537765D01*
X194689877Y-92992098D01*
X194599658Y-92619177D01*
X194502622Y-92437550D01*
X194395816Y-92342588D01*
X194315887Y-92346002D01*
X194299480Y-92459500D01*
X194315858Y-92528500D01*
X194432468Y-93115826D01*
X194414104Y-93642847D01*
X194262986Y-94090765D01*
X194104490Y-94319487D01*
X193953584Y-94502055D01*
X193864700Y-94630262D01*
X193854666Y-94656343D01*
X193298514Y-94656343D01*
X193203711Y-94585000D01*
X193037889Y-94469133D01*
X192970823Y-94373333D01*
X192957033Y-94338461D01*
X193374476Y-94338461D01*
X193389000Y-94370000D01*
X193497205Y-94448958D01*
X193650303Y-94386299D01*
X193816468Y-94230536D01*
X194057816Y-93851425D01*
X194148449Y-93409880D01*
X194088739Y-92948828D01*
X193991613Y-92691843D01*
X193887370Y-92560255D01*
X193851833Y-92549666D01*
X193759791Y-92615290D01*
X193757751Y-92719000D01*
X193824790Y-93171009D01*
X193837251Y-93502804D01*
X193792393Y-93755372D01*
X193687472Y-93969704D01*
X193672583Y-93992064D01*
X193533930Y-94173845D01*
X193426885Y-94276397D01*
X193405169Y-94284754D01*
X193374476Y-94338461D01*
X192957033Y-94338461D01*
X192891407Y-94172519D01*
X192867176Y-94116000D01*
X192844698Y-94034471D01*
X192920200Y-94079139D01*
X192937541Y-94093285D01*
X193043976Y-94140859D01*
X193165020Y-94080945D01*
X193283937Y-93966285D01*
X193508488Y-93653095D01*
X193569343Y-93345662D01*
X193469887Y-93022220D01*
X193439288Y-92967469D01*
X193321303Y-92717568D01*
X193329571Y-92569672D01*
X193466720Y-92510068D01*
X193527509Y-92507333D01*
X193676499Y-92459518D01*
X193850471Y-92342045D01*
X194008572Y-92193874D01*
X194109948Y-92053963D01*
X194113745Y-91961272D01*
X194106204Y-91955478D01*
X193999543Y-91976766D01*
X193858839Y-92102310D01*
X193845122Y-92119236D01*
X193668289Y-92280031D01*
X193498893Y-92336163D01*
X193378933Y-92283467D01*
X193346666Y-92168666D01*
X193407380Y-92025925D01*
X193502877Y-91999333D01*
X193662379Y-91943405D01*
X193828556Y-91814868D01*
X193931298Y-91672597D01*
X193939333Y-91632833D01*
X193870394Y-91582327D01*
X193812333Y-91576000D01*
X193699698Y-91624046D01*
X193685333Y-91665070D01*
X193613951Y-91751707D01*
X193441182Y-91839186D01*
X193431333Y-91842686D01*
X193256779Y-91930527D01*
X193183019Y-92071491D01*
X193167511Y-92240449D01*
X193152865Y-92400796D01*
X193128136Y-92427263D01*
X193118970Y-92401500D01*
X193013727Y-92279519D01*
X192911236Y-92253333D01*
X192784245Y-92210560D01*
X192769278Y-92063742D01*
X192862026Y-91897231D01*
X193102115Y-91731875D01*
X193201363Y-91682205D01*
X193491366Y-91514320D01*
X193655519Y-91352039D01*
X193678033Y-91213142D01*
X193651512Y-91175289D01*
X193570213Y-91194345D01*
X193466918Y-91305941D01*
X193326892Y-91462609D01*
X193244999Y-91469982D01*
X193238762Y-91333336D01*
X193260172Y-91243706D01*
X193296029Y-91054410D01*
X193282484Y-90947373D01*
X193171717Y-90899939D01*
X193105376Y-91004754D01*
X193092666Y-91142299D01*
X193054507Y-91353700D01*
X192975851Y-91482881D01*
X192907336Y-91516207D01*
X192883852Y-91442388D01*
X192898172Y-91233369D01*
X192902195Y-91196914D01*
X192916740Y-90932955D01*
X192892193Y-90817609D01*
X192842051Y-90838529D01*
X192779812Y-90983367D01*
X192718974Y-91239777D01*
X192696027Y-91385499D01*
X192618254Y-91957000D01*
X192534333Y-91322000D01*
X192495970Y-91015519D01*
X192470906Y-90783003D01*
X192463677Y-90667403D01*
X192464644Y-90662283D01*
X192548459Y-90661546D01*
X192751996Y-90684539D01*
X192751996Y-90684539D01*
G37*
X192751996Y-90684539D02*
X192983617Y-90718853D01*
X193658463Y-90896516D01*
X194239134Y-91203843D01*
X194650414Y-91547325D01*
X194901361Y-91822399D01*
X195023607Y-92022724D01*
X195013667Y-92140059D01*
X194913000Y-92168666D01*
X194828756Y-92169663D01*
X194798805Y-92200798D01*
X194822876Y-92304287D01*
X194900699Y-92522346D01*
X194910558Y-92549666D01*
X195034418Y-93125124D01*
X194990415Y-93700777D01*
X194778060Y-94279512D01*
X194554508Y-94651505D01*
X194423699Y-94863156D01*
X194395477Y-94985118D01*
X194443121Y-95044730D01*
X194469459Y-95115360D01*
X194363972Y-95228603D01*
X194183862Y-95355099D01*
X193960077Y-95508416D01*
X193796853Y-95635150D01*
X193750129Y-95681540D01*
X193693063Y-95716318D01*
X193686629Y-95693133D01*
X193635046Y-95672851D01*
X193576038Y-95709972D01*
X193420672Y-95785429D01*
X193191412Y-95845789D01*
X193173871Y-95848798D01*
X192902015Y-95895959D01*
X192665252Y-95940766D01*
X192484477Y-95955510D01*
X192396353Y-95931464D01*
X192283787Y-95889125D01*
X192075873Y-95853880D01*
X192035172Y-95849684D01*
X191794215Y-95803171D01*
X191708673Y-95767000D01*
X191822666Y-95767000D01*
X191865000Y-95809333D01*
X191907333Y-95767000D01*
X191865000Y-95724666D01*
X191822666Y-95767000D01*
X191708673Y-95767000D01*
X191615742Y-95727705D01*
X191603525Y-95718463D01*
X191479978Y-95654340D01*
X191432565Y-95663212D01*
X191343130Y-95649956D01*
X191231010Y-95569444D01*
X191046414Y-95416451D01*
X190849666Y-95270632D01*
X190699827Y-95131747D01*
X190707265Y-95028272D01*
X190709717Y-95025748D01*
X190729033Y-94903957D01*
X190614303Y-94699711D01*
X190592736Y-94670892D01*
X190415401Y-94399232D01*
X190264923Y-94107066D01*
X190258952Y-94092995D01*
X190171463Y-93756126D01*
X190134381Y-93333443D01*
X190136998Y-93257055D01*
X190437684Y-93257055D01*
X190452937Y-93611062D01*
X190517464Y-93936545D01*
X190588744Y-94116000D01*
X190778843Y-94429615D01*
X190967677Y-94646495D01*
X191131125Y-94741786D01*
X191191960Y-94737636D01*
X191234664Y-94671426D01*
X191174616Y-94526514D01*
X191055697Y-94349703D01*
X190793443Y-93891778D01*
X190681828Y-93431597D01*
X190687301Y-93355485D01*
X190976000Y-93355485D01*
X191034934Y-93678146D01*
X191189178Y-94030729D01*
X191380332Y-94306500D01*
X191530743Y-94438147D01*
X191645793Y-94429082D01*
X191677894Y-94401883D01*
X191665040Y-94308720D01*
X191568809Y-94140037D01*
X191523374Y-94077313D01*
X191311860Y-93697973D01*
X191262196Y-93308611D01*
X191339475Y-92953997D01*
X191413838Y-92693171D01*
X191406941Y-92553962D01*
X191316033Y-92507954D01*
X191296235Y-92507333D01*
X191209498Y-92581629D01*
X191114450Y-92768029D01*
X191031754Y-93011803D01*
X190982077Y-93258219D01*
X190976000Y-93355485D01*
X190687301Y-93355485D01*
X190717411Y-92936782D01*
X190856532Y-92475901D01*
X190852394Y-92358874D01*
X190783663Y-92338000D01*
X190644695Y-92414996D01*
X190537851Y-92619911D01*
X190467418Y-92913635D01*
X190437684Y-93257055D01*
X190136998Y-93257055D01*
X190149192Y-92901245D01*
X190217379Y-92535828D01*
X190228030Y-92503477D01*
X190282995Y-92298961D01*
X190257956Y-92203396D01*
X190228030Y-92187454D01*
X190144900Y-92128072D01*
X190158919Y-92020599D01*
X190280091Y-91842675D01*
X190489166Y-91603678D01*
X190742872Y-91370442D01*
X191047111Y-91155190D01*
X191372368Y-90970413D01*
X191689127Y-90828602D01*
X191967870Y-90742248D01*
X192179082Y-90723843D01*
X192293248Y-90785878D01*
X192305110Y-90835166D01*
X192315922Y-90971913D01*
X192341188Y-91217372D01*
X192367394Y-91449000D01*
X192392887Y-91726822D01*
X192384504Y-91851202D01*
X192341260Y-91834803D01*
X192337802Y-91830000D01*
X192258446Y-91644986D01*
X192247296Y-91565200D01*
X192185481Y-91398012D01*
X192117088Y-91320413D01*
X192029601Y-91154409D01*
X192038127Y-91056046D01*
X192035808Y-90925481D01*
X191955372Y-90898666D01*
X191861828Y-90901041D01*
X191831859Y-90940000D01*
X191857366Y-91063292D01*
X191901423Y-91216725D01*
X191932989Y-91422715D01*
X191885267Y-91490093D01*
X191778195Y-91407393D01*
X191718351Y-91321999D01*
X191599209Y-91198326D01*
X191474675Y-91150598D01*
X191402469Y-91196805D01*
X191399333Y-91222574D01*
X191463930Y-91343834D01*
X191616152Y-91491803D01*
X191793645Y-91614580D01*
X191925642Y-91660666D01*
X192054869Y-91726906D01*
X192203869Y-91890660D01*
X192233952Y-91935345D01*
X192341995Y-92115325D01*
X192359735Y-92204294D01*
X192288442Y-92253678D01*
X192242266Y-92271283D01*
X192107761Y-92359699D01*
X192076666Y-92424935D01*
X192024957Y-92478040D01*
X191992000Y-92465000D01*
X191931000Y-92350543D01*
X191907333Y-92163669D01*
X191881227Y-91987517D01*
X191818818Y-91914666D01*
X191704872Y-91859537D01*
X191540495Y-91724204D01*
X191513505Y-91697868D01*
X191359577Y-91569029D01*
X191255825Y-91527221D01*
X191245181Y-91532596D01*
X191237841Y-91642376D01*
X191340728Y-91792772D01*
X191518246Y-91938318D01*
X191597643Y-91982786D01*
X191759298Y-92099596D01*
X191822666Y-92215619D01*
X191763818Y-92319676D01*
X191620775Y-92329862D01*
X191443788Y-92255251D01*
X191294790Y-92120294D01*
X191141125Y-91975991D01*
X191038485Y-91987647D01*
X191035681Y-92090760D01*
X191139721Y-92232610D01*
X191306975Y-92374276D01*
X191493813Y-92476837D01*
X191618055Y-92504657D01*
X191798240Y-92533025D01*
X191845517Y-92627800D01*
X191767851Y-92814830D01*
X191732206Y-92875167D01*
X191621294Y-93110290D01*
X191569484Y-93324928D01*
X191568983Y-93340936D01*
X191616399Y-93567862D01*
X191733420Y-93813113D01*
X191881278Y-94006776D01*
X191973993Y-94071286D01*
X192127748Y-94093926D01*
X192162318Y-94017252D01*
X192071878Y-93867739D01*
X192028866Y-93821896D01*
X191854769Y-93548073D01*
X191839572Y-93257029D01*
X191983062Y-92983548D01*
X192034333Y-92930666D01*
X192177794Y-92807826D01*
X192254773Y-92764817D01*
X192257880Y-92767741D01*
X192268037Y-92864862D01*
X192282335Y-93080482D01*
X192294810Y-93311666D01*
X192288614Y-93794788D01*
X192223190Y-94187400D01*
X192105163Y-94463404D01*
X191971638Y-94585391D01*
X191785379Y-94725961D01*
X191702592Y-94835666D01*
X191598252Y-94994351D01*
X191536652Y-95059033D01*
X191506187Y-95160130D01*
X191570753Y-95268966D01*
X191651602Y-95301333D01*
X191719098Y-95228499D01*
X191779008Y-95053365D01*
X191779048Y-95053183D01*
X191857839Y-94845753D01*
X191972864Y-94690920D01*
X192086729Y-94631364D01*
X192131629Y-94650740D01*
X192184027Y-94802166D01*
X192166182Y-95016020D01*
X192091198Y-95207330D01*
X192036438Y-95267930D01*
X191942267Y-95388851D01*
X191946185Y-95465033D01*
X192053108Y-95549911D01*
X192144600Y-95515815D01*
X192161891Y-95449500D01*
X192207074Y-95313217D01*
X192317042Y-95118246D01*
X192336152Y-95089666D01*
X192509856Y-94835666D01*
X192483761Y-95294006D01*
X192484746Y-95607947D01*
X192533415Y-95766888D01*
X192563500Y-95787894D01*
X192627935Y-95754784D01*
X192663807Y-95588802D01*
X192675313Y-95329555D01*
X192681294Y-94835666D01*
X192841175Y-95195500D01*
X192953333Y-95408983D01*
X193054475Y-95537960D01*
X193089194Y-95555333D01*
X193170957Y-95498886D01*
X193135501Y-95341755D01*
X193016082Y-95143350D01*
X192913583Y-94965438D01*
X192920973Y-94836962D01*
X192961339Y-94771235D01*
X193052470Y-94672379D01*
X193135323Y-94705339D01*
X193198516Y-94772954D01*
X193318248Y-94962937D01*
X193359092Y-95082650D01*
X193424133Y-95223274D01*
X193519336Y-95283490D01*
X193590706Y-95241229D01*
X193600666Y-95181388D01*
X193560042Y-95064216D01*
X193521888Y-95047333D01*
X193450099Y-94975343D01*
X193416055Y-94856833D01*
X193322076Y-94674075D01*
X193298514Y-94656343D01*
X193854666Y-94656343D01*
X193914888Y-94711439D01*
X194051269Y-94691320D01*
X194197386Y-94612116D01*
X194249406Y-94560500D01*
X194536544Y-94074231D01*
X194685833Y-93537765D01*
X194689877Y-92992098D01*
X194599658Y-92619177D01*
X194502622Y-92437550D01*
X194395816Y-92342588D01*
X194315887Y-92346002D01*
X194299480Y-92459500D01*
X194315858Y-92528500D01*
X194432468Y-93115826D01*
X194414104Y-93642847D01*
X194262986Y-94090765D01*
X194104490Y-94319487D01*
X193953584Y-94502055D01*
X193864700Y-94630262D01*
X193854666Y-94656343D01*
X193298514Y-94656343D01*
X193203711Y-94585000D01*
X193037889Y-94469133D01*
X192970823Y-94373333D01*
X192957033Y-94338461D01*
X193374476Y-94338461D01*
X193389000Y-94370000D01*
X193497205Y-94448958D01*
X193650303Y-94386299D01*
X193816468Y-94230536D01*
X194057816Y-93851425D01*
X194148449Y-93409880D01*
X194088739Y-92948828D01*
X193991613Y-92691843D01*
X193887370Y-92560255D01*
X193851833Y-92549666D01*
X193759791Y-92615290D01*
X193757751Y-92719000D01*
X193824790Y-93171009D01*
X193837251Y-93502804D01*
X193792393Y-93755372D01*
X193687472Y-93969704D01*
X193672583Y-93992064D01*
X193533930Y-94173845D01*
X193426885Y-94276397D01*
X193405169Y-94284754D01*
X193374476Y-94338461D01*
X192957033Y-94338461D01*
X192891407Y-94172519D01*
X192867176Y-94116000D01*
X192844698Y-94034471D01*
X192920200Y-94079139D01*
X192937541Y-94093285D01*
X193043976Y-94140859D01*
X193165020Y-94080945D01*
X193283937Y-93966285D01*
X193508488Y-93653095D01*
X193569343Y-93345662D01*
X193469887Y-93022220D01*
X193439288Y-92967469D01*
X193321303Y-92717568D01*
X193329571Y-92569672D01*
X193466720Y-92510068D01*
X193527509Y-92507333D01*
X193676499Y-92459518D01*
X193850471Y-92342045D01*
X194008572Y-92193874D01*
X194109948Y-92053963D01*
X194113745Y-91961272D01*
X194106204Y-91955478D01*
X193999543Y-91976766D01*
X193858839Y-92102310D01*
X193845122Y-92119236D01*
X193668289Y-92280031D01*
X193498893Y-92336163D01*
X193378933Y-92283467D01*
X193346666Y-92168666D01*
X193407380Y-92025925D01*
X193502877Y-91999333D01*
X193662379Y-91943405D01*
X193828556Y-91814868D01*
X193931298Y-91672597D01*
X193939333Y-91632833D01*
X193870394Y-91582327D01*
X193812333Y-91576000D01*
X193699698Y-91624046D01*
X193685333Y-91665070D01*
X193613951Y-91751707D01*
X193441182Y-91839186D01*
X193431333Y-91842686D01*
X193256779Y-91930527D01*
X193183019Y-92071491D01*
X193167511Y-92240449D01*
X193152865Y-92400796D01*
X193128136Y-92427263D01*
X193118970Y-92401500D01*
X193013727Y-92279519D01*
X192911236Y-92253333D01*
X192784245Y-92210560D01*
X192769278Y-92063742D01*
X192862026Y-91897231D01*
X193102115Y-91731875D01*
X193201363Y-91682205D01*
X193491366Y-91514320D01*
X193655519Y-91352039D01*
X193678033Y-91213142D01*
X193651512Y-91175289D01*
X193570213Y-91194345D01*
X193466918Y-91305941D01*
X193326892Y-91462609D01*
X193244999Y-91469982D01*
X193238762Y-91333336D01*
X193260172Y-91243706D01*
X193296029Y-91054410D01*
X193282484Y-90947373D01*
X193171717Y-90899939D01*
X193105376Y-91004754D01*
X193092666Y-91142299D01*
X193054507Y-91353700D01*
X192975851Y-91482881D01*
X192907336Y-91516207D01*
X192883852Y-91442388D01*
X192898172Y-91233369D01*
X192902195Y-91196914D01*
X192916740Y-90932955D01*
X192892193Y-90817609D01*
X192842051Y-90838529D01*
X192779812Y-90983367D01*
X192718974Y-91239777D01*
X192696027Y-91385499D01*
X192618254Y-91957000D01*
X192534333Y-91322000D01*
X192495970Y-91015519D01*
X192470906Y-90783003D01*
X192463677Y-90667403D01*
X192464644Y-90662283D01*
X192548459Y-90661546D01*
X192751996Y-90684539D01*
G36*
X191230000Y-95597666D02*
X191187666Y-95640000D01*
X191145333Y-95597666D01*
X191187666Y-95555333D01*
X191230000Y-95597666D01*
X191230000Y-95597666D01*
G37*
X191230000Y-95597666D02*
X191187666Y-95640000D01*
X191145333Y-95597666D01*
X191187666Y-95555333D01*
X191230000Y-95597666D01*
G36*
X192471777Y-94059555D02*
X192481910Y-94160035D01*
X192471777Y-94172444D01*
X192421443Y-94160822D01*
X192415333Y-94116000D01*
X192446311Y-94046309D01*
X192471777Y-94059555D01*
X192471777Y-94059555D01*
G37*
X192471777Y-94059555D02*
X192481910Y-94160035D01*
X192471777Y-94172444D01*
X192421443Y-94160822D01*
X192415333Y-94116000D01*
X192446311Y-94046309D01*
X192471777Y-94059555D01*
G36*
X193082418Y-92828840D02*
X193197568Y-92981240D01*
X193295765Y-93186132D01*
X193345347Y-93388334D01*
X193346666Y-93419703D01*
X193292451Y-93566622D01*
X193164618Y-93744837D01*
X193015382Y-93892081D01*
X192904767Y-93946666D01*
X192881411Y-93869384D01*
X192868202Y-93666765D01*
X192867994Y-93382647D01*
X192868005Y-93382184D01*
X192890651Y-93048423D01*
X192937236Y-92841012D01*
X192981980Y-92784117D01*
X193082418Y-92828840D01*
X193082418Y-92828840D01*
G37*
X193082418Y-92828840D02*
X193197568Y-92981240D01*
X193295765Y-93186132D01*
X193345347Y-93388334D01*
X193346666Y-93419703D01*
X193292451Y-93566622D01*
X193164618Y-93744837D01*
X193015382Y-93892081D01*
X192904767Y-93946666D01*
X192881411Y-93869384D01*
X192868202Y-93666765D01*
X192867994Y-93382647D01*
X192868005Y-93382184D01*
X192890651Y-93048423D01*
X192937236Y-92841012D01*
X192981980Y-92784117D01*
X193082418Y-92828840D01*
G36*
X190806666Y-91025666D02*
X190764333Y-91068000D01*
X190722000Y-91025666D01*
X190764333Y-90983333D01*
X190806666Y-91025666D01*
X190806666Y-91025666D01*
G37*
X190806666Y-91025666D02*
X190764333Y-91068000D01*
X190722000Y-91025666D01*
X190764333Y-90983333D01*
X190806666Y-91025666D01*
G36*
X194108666Y-90856333D02*
X194066333Y-90898666D01*
X194024000Y-90856333D01*
X194066333Y-90814000D01*
X194108666Y-90856333D01*
X194108666Y-90856333D01*
G37*
X194108666Y-90856333D02*
X194066333Y-90898666D01*
X194024000Y-90856333D01*
X194066333Y-90814000D01*
X194108666Y-90856333D01*
G36*
X193939333Y-90771666D02*
X193897000Y-90814000D01*
X193854666Y-90771666D01*
X193897000Y-90729333D01*
X193939333Y-90771666D01*
X193939333Y-90771666D01*
G37*
X193939333Y-90771666D02*
X193897000Y-90814000D01*
X193854666Y-90771666D01*
X193897000Y-90729333D01*
X193939333Y-90771666D01*
G36*
X193770000Y-90687000D02*
X193727666Y-90729333D01*
X193685333Y-90687000D01*
X193727666Y-90644666D01*
X193770000Y-90687000D01*
X193770000Y-90687000D01*
G37*
X193770000Y-90687000D02*
X193727666Y-90729333D01*
X193685333Y-90687000D01*
X193727666Y-90644666D01*
X193770000Y-90687000D01*
D16*
X176133334Y-76952381D02*
X175800000Y-76476190D01*
X175561905Y-76952381D02*
X175561905Y-75952381D01*
X175942858Y-75952381D01*
X176038096Y-76000000D01*
X176085715Y-76047619D01*
X176133334Y-76142857D01*
X176133334Y-76285714D01*
X176085715Y-76380952D01*
X176038096Y-76428571D01*
X175942858Y-76476190D01*
X175561905Y-76476190D01*
X176990477Y-75952381D02*
X176800000Y-75952381D01*
X176704762Y-76000000D01*
X176657143Y-76047619D01*
X176561905Y-76190476D01*
X176514286Y-76380952D01*
X176514286Y-76761905D01*
X176561905Y-76857143D01*
X176609524Y-76904762D01*
X176704762Y-76952381D01*
X176895239Y-76952381D01*
X176990477Y-76904762D01*
X177038096Y-76857143D01*
X177085715Y-76761905D01*
X177085715Y-76523810D01*
X177038096Y-76428571D01*
X176990477Y-76380952D01*
X176895239Y-76333333D01*
X176704762Y-76333333D01*
X176609524Y-76380952D01*
X176561905Y-76428571D01*
X176514286Y-76523810D01*
X165497143Y-96156666D02*
X165544762Y-96204285D01*
X165592381Y-96347142D01*
X165592381Y-96442380D01*
X165544762Y-96585238D01*
X165449524Y-96680476D01*
X165354286Y-96728095D01*
X165163810Y-96775714D01*
X165020952Y-96775714D01*
X164830476Y-96728095D01*
X164735238Y-96680476D01*
X164640000Y-96585238D01*
X164592381Y-96442380D01*
X164592381Y-96347142D01*
X164640000Y-96204285D01*
X164687619Y-96156666D01*
X164687619Y-95775714D02*
X164640000Y-95728095D01*
X164592381Y-95632857D01*
X164592381Y-95394761D01*
X164640000Y-95299523D01*
X164687619Y-95251904D01*
X164782857Y-95204285D01*
X164878095Y-95204285D01*
X165020952Y-95251904D01*
X165592381Y-95823333D01*
X165592381Y-95204285D01*
D10*
X144726667Y-107318571D02*
X144702857Y-107342381D01*
X144631429Y-107366190D01*
X144583810Y-107366190D01*
X144512381Y-107342381D01*
X144464762Y-107294762D01*
X144440953Y-107247143D01*
X144417143Y-107151905D01*
X144417143Y-107080476D01*
X144440953Y-106985238D01*
X144464762Y-106937619D01*
X144512381Y-106890000D01*
X144583810Y-106866190D01*
X144631429Y-106866190D01*
X144702857Y-106890000D01*
X144726667Y-106913810D01*
X145155238Y-107032857D02*
X145155238Y-107366190D01*
X145036191Y-106842381D02*
X144917143Y-107199524D01*
X145226667Y-107199524D01*
X168386667Y-92298571D02*
X168362857Y-92322381D01*
X168291429Y-92346190D01*
X168243810Y-92346190D01*
X168172381Y-92322381D01*
X168124762Y-92274762D01*
X168100953Y-92227143D01*
X168077143Y-92131905D01*
X168077143Y-92060476D01*
X168100953Y-91965238D01*
X168124762Y-91917619D01*
X168172381Y-91870000D01*
X168243810Y-91846190D01*
X168291429Y-91846190D01*
X168362857Y-91870000D01*
X168386667Y-91893810D01*
X168815238Y-91846190D02*
X168720000Y-91846190D01*
X168672381Y-91870000D01*
X168648572Y-91893810D01*
X168600953Y-91965238D01*
X168577143Y-92060476D01*
X168577143Y-92250952D01*
X168600953Y-92298571D01*
X168624762Y-92322381D01*
X168672381Y-92346190D01*
X168767619Y-92346190D01*
X168815238Y-92322381D01*
X168839048Y-92298571D01*
X168862857Y-92250952D01*
X168862857Y-92131905D01*
X168839048Y-92084286D01*
X168815238Y-92060476D01*
X168767619Y-92036667D01*
X168672381Y-92036667D01*
X168624762Y-92060476D01*
X168600953Y-92084286D01*
X168577143Y-92131905D01*
D16*
X136787143Y-81622857D02*
X136834762Y-81670476D01*
X136882381Y-81813333D01*
X136882381Y-81908571D01*
X136834762Y-82051429D01*
X136739524Y-82146667D01*
X136644286Y-82194286D01*
X136453810Y-82241905D01*
X136310952Y-82241905D01*
X136120476Y-82194286D01*
X136025238Y-82146667D01*
X135930000Y-82051429D01*
X135882381Y-81908571D01*
X135882381Y-81813333D01*
X135930000Y-81670476D01*
X135977619Y-81622857D01*
X136882381Y-80670476D02*
X136882381Y-81241905D01*
X136882381Y-80956191D02*
X135882381Y-80956191D01*
X136025238Y-81051429D01*
X136120476Y-81146667D01*
X136168095Y-81241905D01*
X136882381Y-79718095D02*
X136882381Y-80289524D01*
X136882381Y-80003810D02*
X135882381Y-80003810D01*
X136025238Y-80099048D01*
X136120476Y-80194286D01*
X136168095Y-80289524D01*
D10*
X123098572Y-83258571D02*
X123074762Y-83282381D01*
X123003334Y-83306190D01*
X122955715Y-83306190D01*
X122884286Y-83282381D01*
X122836667Y-83234762D01*
X122812858Y-83187143D01*
X122789048Y-83091905D01*
X122789048Y-83020476D01*
X122812858Y-82925238D01*
X122836667Y-82877619D01*
X122884286Y-82830000D01*
X122955715Y-82806190D01*
X123003334Y-82806190D01*
X123074762Y-82830000D01*
X123098572Y-82853810D01*
X123574762Y-83306190D02*
X123289048Y-83306190D01*
X123431905Y-83306190D02*
X123431905Y-82806190D01*
X123384286Y-82877619D01*
X123336667Y-82925238D01*
X123289048Y-82949048D01*
X123765238Y-82853810D02*
X123789048Y-82830000D01*
X123836667Y-82806190D01*
X123955714Y-82806190D01*
X124003333Y-82830000D01*
X124027143Y-82853810D01*
X124050952Y-82901429D01*
X124050952Y-82949048D01*
X124027143Y-83020476D01*
X123741429Y-83306190D01*
X124050952Y-83306190D01*
X118408572Y-83328571D02*
X118384762Y-83352381D01*
X118313334Y-83376190D01*
X118265715Y-83376190D01*
X118194286Y-83352381D01*
X118146667Y-83304762D01*
X118122858Y-83257143D01*
X118099048Y-83161905D01*
X118099048Y-83090476D01*
X118122858Y-82995238D01*
X118146667Y-82947619D01*
X118194286Y-82900000D01*
X118265715Y-82876190D01*
X118313334Y-82876190D01*
X118384762Y-82900000D01*
X118408572Y-82923810D01*
X118884762Y-83376190D02*
X118599048Y-83376190D01*
X118741905Y-83376190D02*
X118741905Y-82876190D01*
X118694286Y-82947619D01*
X118646667Y-82995238D01*
X118599048Y-83019048D01*
X119051429Y-82876190D02*
X119360952Y-82876190D01*
X119194286Y-83066667D01*
X119265714Y-83066667D01*
X119313333Y-83090476D01*
X119337143Y-83114286D01*
X119360952Y-83161905D01*
X119360952Y-83280952D01*
X119337143Y-83328571D01*
X119313333Y-83352381D01*
X119265714Y-83376190D01*
X119122857Y-83376190D01*
X119075238Y-83352381D01*
X119051429Y-83328571D01*
D16*
X136787143Y-77782857D02*
X136834762Y-77830476D01*
X136882381Y-77973333D01*
X136882381Y-78068571D01*
X136834762Y-78211429D01*
X136739524Y-78306667D01*
X136644286Y-78354286D01*
X136453810Y-78401905D01*
X136310952Y-78401905D01*
X136120476Y-78354286D01*
X136025238Y-78306667D01*
X135930000Y-78211429D01*
X135882381Y-78068571D01*
X135882381Y-77973333D01*
X135930000Y-77830476D01*
X135977619Y-77782857D01*
X136882381Y-76830476D02*
X136882381Y-77401905D01*
X136882381Y-77116191D02*
X135882381Y-77116191D01*
X136025238Y-77211429D01*
X136120476Y-77306667D01*
X136168095Y-77401905D01*
X136215714Y-75973333D02*
X136882381Y-75973333D01*
X135834762Y-76211429D02*
X136549048Y-76449524D01*
X136549048Y-75830476D01*
D10*
X118520953Y-68646190D02*
X118520953Y-68146190D01*
X118640000Y-68146190D01*
X118711429Y-68170000D01*
X118759048Y-68217619D01*
X118782857Y-68265238D01*
X118806667Y-68360476D01*
X118806667Y-68431905D01*
X118782857Y-68527143D01*
X118759048Y-68574762D01*
X118711429Y-68622381D01*
X118640000Y-68646190D01*
X118520953Y-68646190D01*
X119282857Y-68646190D02*
X118997143Y-68646190D01*
X119140000Y-68646190D02*
X119140000Y-68146190D01*
X119092381Y-68217619D01*
X119044762Y-68265238D01*
X118997143Y-68289048D01*
D16*
X132151905Y-72872381D02*
X132151905Y-71872381D01*
X132390000Y-71872381D01*
X132532858Y-71920000D01*
X132628096Y-72015238D01*
X132675715Y-72110476D01*
X132723334Y-72300952D01*
X132723334Y-72443810D01*
X132675715Y-72634286D01*
X132628096Y-72729524D01*
X132532858Y-72824762D01*
X132390000Y-72872381D01*
X132151905Y-72872381D01*
X133104286Y-71967619D02*
X133151905Y-71920000D01*
X133247143Y-71872381D01*
X133485239Y-71872381D01*
X133580477Y-71920000D01*
X133628096Y-71967619D01*
X133675715Y-72062857D01*
X133675715Y-72158095D01*
X133628096Y-72300952D01*
X133056667Y-72872381D01*
X133675715Y-72872381D01*
X180812381Y-107438095D02*
X179812381Y-107438095D01*
X179812381Y-107057142D01*
X179860000Y-106961904D01*
X179907619Y-106914285D01*
X180002857Y-106866666D01*
X180145714Y-106866666D01*
X180240952Y-106914285D01*
X180288571Y-106961904D01*
X180336190Y-107057142D01*
X180336190Y-107438095D01*
X180812381Y-105914285D02*
X180812381Y-106485714D01*
X180812381Y-106200000D02*
X179812381Y-106200000D01*
X179955238Y-106295238D01*
X180050476Y-106390476D01*
X180098095Y-106485714D01*
X137412381Y-113638095D02*
X136412381Y-113638095D01*
X136412381Y-113257142D01*
X136460000Y-113161904D01*
X136507619Y-113114285D01*
X136602857Y-113066666D01*
X136745714Y-113066666D01*
X136840952Y-113114285D01*
X136888571Y-113161904D01*
X136936190Y-113257142D01*
X136936190Y-113638095D01*
X136507619Y-112685714D02*
X136460000Y-112638095D01*
X136412381Y-112542857D01*
X136412381Y-112304761D01*
X136460000Y-112209523D01*
X136507619Y-112161904D01*
X136602857Y-112114285D01*
X136698095Y-112114285D01*
X136840952Y-112161904D01*
X137412381Y-112733333D01*
X137412381Y-112114285D01*
D10*
X140880953Y-79716190D02*
X140880953Y-79216190D01*
X141071429Y-79216190D01*
X141119048Y-79240000D01*
X141142857Y-79263810D01*
X141166667Y-79311429D01*
X141166667Y-79382857D01*
X141142857Y-79430476D01*
X141119048Y-79454286D01*
X141071429Y-79478095D01*
X140880953Y-79478095D01*
X141333334Y-79216190D02*
X141642857Y-79216190D01*
X141476191Y-79406667D01*
X141547619Y-79406667D01*
X141595238Y-79430476D01*
X141619048Y-79454286D01*
X141642857Y-79501905D01*
X141642857Y-79620952D01*
X141619048Y-79668571D01*
X141595238Y-79692381D01*
X141547619Y-79716190D01*
X141404762Y-79716190D01*
X141357143Y-79692381D01*
X141333334Y-79668571D01*
D16*
X108452381Y-112498095D02*
X107452381Y-112498095D01*
X107452381Y-112117142D01*
X107500000Y-112021904D01*
X107547619Y-111974285D01*
X107642857Y-111926666D01*
X107785714Y-111926666D01*
X107880952Y-111974285D01*
X107928571Y-112021904D01*
X107976190Y-112117142D01*
X107976190Y-112498095D01*
X107880952Y-111355238D02*
X107833333Y-111450476D01*
X107785714Y-111498095D01*
X107690476Y-111545714D01*
X107642857Y-111545714D01*
X107547619Y-111498095D01*
X107500000Y-111450476D01*
X107452381Y-111355238D01*
X107452381Y-111164761D01*
X107500000Y-111069523D01*
X107547619Y-111021904D01*
X107642857Y-110974285D01*
X107690476Y-110974285D01*
X107785714Y-111021904D01*
X107833333Y-111069523D01*
X107880952Y-111164761D01*
X107880952Y-111355238D01*
X107928571Y-111450476D01*
X107976190Y-111498095D01*
X108071429Y-111545714D01*
X108261905Y-111545714D01*
X108357143Y-111498095D01*
X108404762Y-111450476D01*
X108452381Y-111355238D01*
X108452381Y-111164761D01*
X108404762Y-111069523D01*
X108357143Y-111021904D01*
X108261905Y-110974285D01*
X108071429Y-110974285D01*
X107976190Y-111021904D01*
X107928571Y-111069523D01*
X107880952Y-111164761D01*
D10*
X135286190Y-86587142D02*
X134786190Y-86587142D01*
X134786190Y-86396666D01*
X134810000Y-86349047D01*
X134833810Y-86325238D01*
X134881429Y-86301428D01*
X134952857Y-86301428D01*
X135000476Y-86325238D01*
X135024286Y-86349047D01*
X135048095Y-86396666D01*
X135048095Y-86587142D01*
X135286190Y-85825238D02*
X135286190Y-86110952D01*
X135286190Y-85968095D02*
X134786190Y-85968095D01*
X134857619Y-86015714D01*
X134905238Y-86063333D01*
X134929048Y-86110952D01*
X134786190Y-85515714D02*
X134786190Y-85468095D01*
X134810000Y-85420476D01*
X134833810Y-85396667D01*
X134881429Y-85372857D01*
X134976667Y-85349048D01*
X135095714Y-85349048D01*
X135190952Y-85372857D01*
X135238571Y-85396667D01*
X135262381Y-85420476D01*
X135286190Y-85468095D01*
X135286190Y-85515714D01*
X135262381Y-85563333D01*
X135238571Y-85587143D01*
X135190952Y-85610952D01*
X135095714Y-85634762D01*
X134976667Y-85634762D01*
X134881429Y-85610952D01*
X134833810Y-85587143D01*
X134810000Y-85563333D01*
X134786190Y-85515714D01*
D16*
X181092381Y-79994286D02*
X180092381Y-79994286D01*
X180092381Y-79613333D01*
X180140000Y-79518095D01*
X180187619Y-79470476D01*
X180282857Y-79422857D01*
X180425714Y-79422857D01*
X180520952Y-79470476D01*
X180568571Y-79518095D01*
X180616190Y-79613333D01*
X180616190Y-79994286D01*
X181092381Y-78470476D02*
X181092381Y-79041905D01*
X181092381Y-78756191D02*
X180092381Y-78756191D01*
X180235238Y-78851429D01*
X180330476Y-78946667D01*
X180378095Y-79041905D01*
X181092381Y-77518095D02*
X181092381Y-78089524D01*
X181092381Y-77803810D02*
X180092381Y-77803810D01*
X180235238Y-77899048D01*
X180330476Y-77994286D01*
X180378095Y-78089524D01*
D10*
X167456190Y-102553333D02*
X167218095Y-102720000D01*
X167456190Y-102839047D02*
X166956190Y-102839047D01*
X166956190Y-102648571D01*
X166980000Y-102600952D01*
X167003810Y-102577143D01*
X167051429Y-102553333D01*
X167122857Y-102553333D01*
X167170476Y-102577143D01*
X167194286Y-102600952D01*
X167218095Y-102648571D01*
X167218095Y-102839047D01*
X167456190Y-102077143D02*
X167456190Y-102362857D01*
X167456190Y-102220000D02*
X166956190Y-102220000D01*
X167027619Y-102267619D01*
X167075238Y-102315238D01*
X167099048Y-102362857D01*
D16*
X173003334Y-92712381D02*
X172670000Y-92236190D01*
X172431905Y-92712381D02*
X172431905Y-91712381D01*
X172812858Y-91712381D01*
X172908096Y-91760000D01*
X172955715Y-91807619D01*
X173003334Y-91902857D01*
X173003334Y-92045714D01*
X172955715Y-92140952D01*
X172908096Y-92188571D01*
X172812858Y-92236190D01*
X172431905Y-92236190D01*
X173384286Y-91807619D02*
X173431905Y-91760000D01*
X173527143Y-91712381D01*
X173765239Y-91712381D01*
X173860477Y-91760000D01*
X173908096Y-91807619D01*
X173955715Y-91902857D01*
X173955715Y-91998095D01*
X173908096Y-92140952D01*
X173336667Y-92712381D01*
X173955715Y-92712381D01*
D10*
X123106667Y-68726190D02*
X122940000Y-68488095D01*
X122820953Y-68726190D02*
X122820953Y-68226190D01*
X123011429Y-68226190D01*
X123059048Y-68250000D01*
X123082857Y-68273810D01*
X123106667Y-68321429D01*
X123106667Y-68392857D01*
X123082857Y-68440476D01*
X123059048Y-68464286D01*
X123011429Y-68488095D01*
X122820953Y-68488095D01*
X123273334Y-68226190D02*
X123582857Y-68226190D01*
X123416191Y-68416667D01*
X123487619Y-68416667D01*
X123535238Y-68440476D01*
X123559048Y-68464286D01*
X123582857Y-68511905D01*
X123582857Y-68630952D01*
X123559048Y-68678571D01*
X123535238Y-68702381D01*
X123487619Y-68726190D01*
X123344762Y-68726190D01*
X123297143Y-68702381D01*
X123273334Y-68678571D01*
D16*
X126893334Y-72782381D02*
X126560000Y-72306190D01*
X126321905Y-72782381D02*
X126321905Y-71782381D01*
X126702858Y-71782381D01*
X126798096Y-71830000D01*
X126845715Y-71877619D01*
X126893334Y-71972857D01*
X126893334Y-72115714D01*
X126845715Y-72210952D01*
X126798096Y-72258571D01*
X126702858Y-72306190D01*
X126321905Y-72306190D01*
X127750477Y-72115714D02*
X127750477Y-72782381D01*
X127512381Y-71734762D02*
X127274286Y-72449048D01*
X127893334Y-72449048D01*
X186433334Y-74552381D02*
X186100000Y-74076190D01*
X185861905Y-74552381D02*
X185861905Y-73552381D01*
X186242858Y-73552381D01*
X186338096Y-73600000D01*
X186385715Y-73647619D01*
X186433334Y-73742857D01*
X186433334Y-73885714D01*
X186385715Y-73980952D01*
X186338096Y-74028571D01*
X186242858Y-74076190D01*
X185861905Y-74076190D01*
X187338096Y-73552381D02*
X186861905Y-73552381D01*
X186814286Y-74028571D01*
X186861905Y-73980952D01*
X186957143Y-73933333D01*
X187195239Y-73933333D01*
X187290477Y-73980952D01*
X187338096Y-74028571D01*
X187385715Y-74123810D01*
X187385715Y-74361905D01*
X187338096Y-74457143D01*
X187290477Y-74504762D01*
X187195239Y-74552381D01*
X186957143Y-74552381D01*
X186861905Y-74504762D01*
X186814286Y-74457143D01*
X169772381Y-101851905D02*
X170581905Y-101851905D01*
X170677143Y-101804286D01*
X170724762Y-101756667D01*
X170772381Y-101661429D01*
X170772381Y-101470952D01*
X170724762Y-101375714D01*
X170677143Y-101328095D01*
X170581905Y-101280476D01*
X169772381Y-101280476D01*
X169867619Y-100851905D02*
X169820000Y-100804286D01*
X169772381Y-100709048D01*
X169772381Y-100470952D01*
X169820000Y-100375714D01*
X169867619Y-100328095D01*
X169962857Y-100280476D01*
X170058095Y-100280476D01*
X170200952Y-100328095D01*
X170772381Y-100899524D01*
X170772381Y-100280476D01*
X147952381Y-95081905D02*
X148761905Y-95081905D01*
X148857143Y-95034286D01*
X148904762Y-94986667D01*
X148952381Y-94891429D01*
X148952381Y-94700952D01*
X148904762Y-94605714D01*
X148857143Y-94558095D01*
X148761905Y-94510476D01*
X147952381Y-94510476D01*
X148285714Y-93605714D02*
X148952381Y-93605714D01*
X147904762Y-93843810D02*
X148619048Y-94081905D01*
X148619048Y-93462857D01*
X170582381Y-86561905D02*
X171391905Y-86561905D01*
X171487143Y-86514286D01*
X171534762Y-86466667D01*
X171582381Y-86371429D01*
X171582381Y-86180952D01*
X171534762Y-86085714D01*
X171487143Y-86038095D01*
X171391905Y-85990476D01*
X170582381Y-85990476D01*
X170582381Y-85038095D02*
X170582381Y-85514286D01*
X171058571Y-85561905D01*
X171010952Y-85514286D01*
X170963333Y-85419048D01*
X170963333Y-85180952D01*
X171010952Y-85085714D01*
X171058571Y-85038095D01*
X171153810Y-84990476D01*
X171391905Y-84990476D01*
X171487143Y-85038095D01*
X171534762Y-85085714D01*
X171582381Y-85180952D01*
X171582381Y-85419048D01*
X171534762Y-85514286D01*
X171487143Y-85561905D01*
X120858095Y-75972381D02*
X120858095Y-76781905D01*
X120905714Y-76877143D01*
X120953333Y-76924762D01*
X121048571Y-76972381D01*
X121239048Y-76972381D01*
X121334286Y-76924762D01*
X121381905Y-76877143D01*
X121429524Y-76781905D01*
X121429524Y-75972381D01*
X122334286Y-75972381D02*
X122143809Y-75972381D01*
X122048571Y-76020000D01*
X122000952Y-76067619D01*
X121905714Y-76210476D01*
X121858095Y-76400952D01*
X121858095Y-76781905D01*
X121905714Y-76877143D01*
X121953333Y-76924762D01*
X122048571Y-76972381D01*
X122239048Y-76972381D01*
X122334286Y-76924762D01*
X122381905Y-76877143D01*
X122429524Y-76781905D01*
X122429524Y-76543810D01*
X122381905Y-76448571D01*
X122334286Y-76400952D01*
X122239048Y-76353333D01*
X122048571Y-76353333D01*
X121953333Y-76400952D01*
X121905714Y-76448571D01*
X121858095Y-76543810D01*
X129128095Y-79472381D02*
X129128095Y-80281905D01*
X129175714Y-80377143D01*
X129223333Y-80424762D01*
X129318571Y-80472381D01*
X129509048Y-80472381D01*
X129604286Y-80424762D01*
X129651905Y-80377143D01*
X129699524Y-80281905D01*
X129699524Y-79472381D01*
X130080476Y-79472381D02*
X130747143Y-79472381D01*
X130318571Y-80472381D01*
M02*
