G04 #@! TF.FileFunction,Paste,Top*
%FSLAX46Y46*%
G04 Gerber Fmt 4.6, Leading zero omitted, Abs format (unit mm)*
G04 Created by KiCad (PCBNEW 4.0.4-stable) date 04/28/17 11:07:38*
%MOMM*%
%LPD*%
G01*
G04 APERTURE LIST*
%ADD10C,0.100000*%
%ADD11R,1.500000X1.300000*%
%ADD12R,1.250000X1.500000*%
%ADD13R,1.500000X1.250000*%
%ADD14R,1.200000X1.200000*%
%ADD15R,1.300000X1.500000*%
%ADD16R,0.250000X1.550000*%
%ADD17R,3.800000X2.000000*%
%ADD18R,1.500000X2.000000*%
G04 APERTURE END LIST*
D10*
D11*
X177650000Y-74800000D03*
X174950000Y-74800000D03*
D12*
X165320000Y-100730000D03*
X165320000Y-98230000D03*
D13*
X143560000Y-108390000D03*
X146060000Y-108390000D03*
X169700000Y-90540000D03*
X167200000Y-90540000D03*
D12*
X134720000Y-83050000D03*
X134720000Y-80550000D03*
D13*
X122040000Y-81600000D03*
X124540000Y-81600000D03*
X119940000Y-81590000D03*
X117440000Y-81590000D03*
D12*
X134740000Y-75920000D03*
X134740000Y-78420000D03*
D14*
X117610000Y-69790000D03*
X119810000Y-69790000D03*
X134020000Y-73920000D03*
X131820000Y-73920000D03*
D15*
X167220000Y-100920000D03*
X167220000Y-98220000D03*
D11*
X174520000Y-90560000D03*
X171820000Y-90560000D03*
X121810000Y-69820000D03*
X124510000Y-69820000D03*
X129830000Y-73920000D03*
X127130000Y-73920000D03*
X181980000Y-73970000D03*
X184680000Y-73970000D03*
D16*
X169035000Y-103590000D03*
X169685000Y-103590000D03*
X170335000Y-103590000D03*
X170985000Y-103590000D03*
X171635000Y-103590000D03*
X172285000Y-103590000D03*
X172935000Y-103590000D03*
X173585000Y-103590000D03*
X174235000Y-103590000D03*
X174885000Y-103590000D03*
X174885000Y-97990000D03*
X174235000Y-97990000D03*
X173585000Y-97990000D03*
X172935000Y-97990000D03*
X172285000Y-97990000D03*
X171635000Y-97990000D03*
X170985000Y-97990000D03*
X170335000Y-97990000D03*
X169685000Y-97990000D03*
X169035000Y-97990000D03*
X169065000Y-88660000D03*
X169715000Y-88660000D03*
X170365000Y-88660000D03*
X171015000Y-88660000D03*
X171665000Y-88660000D03*
X172315000Y-88660000D03*
X172965000Y-88660000D03*
X173615000Y-88660000D03*
X174265000Y-88660000D03*
X174915000Y-88660000D03*
X174915000Y-83060000D03*
X174265000Y-83060000D03*
X173615000Y-83060000D03*
X172965000Y-83060000D03*
X172315000Y-83060000D03*
X171665000Y-83060000D03*
X171015000Y-83060000D03*
X170365000Y-83060000D03*
X169715000Y-83060000D03*
X169065000Y-83060000D03*
D17*
X121530000Y-72980000D03*
D18*
X121530000Y-79280000D03*
X123830000Y-79280000D03*
X119230000Y-79280000D03*
D17*
X129630000Y-76520000D03*
D18*
X129630000Y-82820000D03*
X131930000Y-82820000D03*
X127330000Y-82820000D03*
M02*
