G04 #@! TF.FileFunction,Other,Fab,Top*
%FSLAX46Y46*%
G04 Gerber Fmt 4.6, Leading zero omitted, Abs format (unit mm)*
G04 Created by KiCad (PCBNEW 4.0.4-stable) date 04/28/17 11:07:38*
%MOMM*%
%LPD*%
G01*
G04 APERTURE LIST*
%ADD10C,0.100000*%
%ADD11C,0.150000*%
%ADD12C,0.075000*%
%ADD13C,0.120000*%
G04 APERTURE END LIST*
D10*
X177300000Y-74180000D02*
X177300000Y-75420000D01*
X175300000Y-74180000D02*
X177300000Y-74180000D01*
X175300000Y-75420000D02*
X175300000Y-74180000D01*
X177300000Y-75420000D02*
X175300000Y-75420000D01*
X165940000Y-100480000D02*
X164700000Y-100480000D01*
X165940000Y-98480000D02*
X165940000Y-100480000D01*
X164700000Y-98480000D02*
X165940000Y-98480000D01*
X164700000Y-100480000D02*
X164700000Y-98480000D01*
X143810000Y-109010000D02*
X143810000Y-107770000D01*
X145810000Y-109010000D02*
X143810000Y-109010000D01*
X145810000Y-107770000D02*
X145810000Y-109010000D01*
X143810000Y-107770000D02*
X145810000Y-107770000D01*
X169450000Y-89920000D02*
X169450000Y-91160000D01*
X167450000Y-89920000D02*
X169450000Y-89920000D01*
X167450000Y-91160000D02*
X167450000Y-89920000D01*
X169450000Y-91160000D02*
X167450000Y-91160000D01*
X135340000Y-82800000D02*
X134100000Y-82800000D01*
X135340000Y-80800000D02*
X135340000Y-82800000D01*
X134100000Y-80800000D02*
X135340000Y-80800000D01*
X134100000Y-82800000D02*
X134100000Y-80800000D01*
X122290000Y-82220000D02*
X122290000Y-80980000D01*
X124290000Y-82220000D02*
X122290000Y-82220000D01*
X124290000Y-80980000D02*
X124290000Y-82220000D01*
X122290000Y-80980000D02*
X124290000Y-80980000D01*
X119690000Y-80970000D02*
X119690000Y-82210000D01*
X117690000Y-80970000D02*
X119690000Y-80970000D01*
X117690000Y-82210000D02*
X117690000Y-80970000D01*
X119690000Y-82210000D02*
X117690000Y-82210000D01*
X134120000Y-76170000D02*
X135360000Y-76170000D01*
X134120000Y-78170000D02*
X134120000Y-76170000D01*
X135360000Y-78170000D02*
X134120000Y-78170000D01*
X135360000Y-76170000D02*
X135360000Y-78170000D01*
X119110000Y-70190000D02*
X119110000Y-69390000D01*
X119110000Y-69790000D02*
X118510000Y-70190000D01*
X118510000Y-69390000D02*
X119110000Y-69790000D01*
X118510000Y-70190000D02*
X118510000Y-69390000D01*
X117710000Y-69190000D02*
X119710000Y-69190000D01*
X117710000Y-70390000D02*
X117710000Y-69190000D01*
X119710000Y-70390000D02*
X117710000Y-70390000D01*
X119710000Y-69190000D02*
X119710000Y-70390000D01*
X132520000Y-73520000D02*
X132520000Y-74320000D01*
X132520000Y-73920000D02*
X133120000Y-73520000D01*
X133120000Y-74320000D02*
X132520000Y-73920000D01*
X133120000Y-73520000D02*
X133120000Y-74320000D01*
X133920000Y-74520000D02*
X131920000Y-74520000D01*
X133920000Y-73320000D02*
X133920000Y-74520000D01*
X131920000Y-73320000D02*
X133920000Y-73320000D01*
X131920000Y-74520000D02*
X131920000Y-73320000D01*
X181680000Y-109240000D02*
X202000000Y-109240000D01*
X202000000Y-109240000D02*
X202000000Y-104160000D01*
X202000000Y-104160000D02*
X181680000Y-104160000D01*
X181680000Y-104160000D02*
X181680000Y-109240000D01*
X138390000Y-115310000D02*
X143470000Y-115310000D01*
X143470000Y-115310000D02*
X143470000Y-110230000D01*
X143470000Y-110230000D02*
X138390000Y-110230000D01*
X138390000Y-110230000D02*
X138390000Y-115310000D01*
X143630000Y-73080000D02*
X138550000Y-73080000D01*
X138550000Y-73080000D02*
X138550000Y-78160000D01*
X138550000Y-78160000D02*
X143630000Y-78160000D01*
X143630000Y-78160000D02*
X143630000Y-73080000D01*
X117740000Y-87430000D02*
X125360000Y-87430000D01*
X125360000Y-87430000D02*
X125360000Y-84890000D01*
X125360000Y-84890000D02*
X117740000Y-84890000D01*
X117740000Y-84890000D02*
X117740000Y-87430000D01*
X126530000Y-87480000D02*
X134150000Y-87480000D01*
X134150000Y-87480000D02*
X134150000Y-84940000D01*
X134150000Y-84940000D02*
X126530000Y-84940000D01*
X126530000Y-84940000D02*
X126530000Y-87480000D01*
X181700000Y-81320000D02*
X202020000Y-81320000D01*
X202020000Y-81320000D02*
X202020000Y-76240000D01*
X202020000Y-76240000D02*
X181700000Y-76240000D01*
X181700000Y-76240000D02*
X181700000Y-81320000D01*
X167840000Y-100570000D02*
X166600000Y-100570000D01*
X167840000Y-98570000D02*
X167840000Y-100570000D01*
X166600000Y-98570000D02*
X167840000Y-98570000D01*
X166600000Y-100570000D02*
X166600000Y-98570000D01*
X174170000Y-89940000D02*
X174170000Y-91180000D01*
X172170000Y-89940000D02*
X174170000Y-89940000D01*
X172170000Y-91180000D02*
X172170000Y-89940000D01*
X174170000Y-91180000D02*
X172170000Y-91180000D01*
X122160000Y-70440000D02*
X122160000Y-69200000D01*
X124160000Y-70440000D02*
X122160000Y-70440000D01*
X124160000Y-69200000D02*
X124160000Y-70440000D01*
X122160000Y-69200000D02*
X124160000Y-69200000D01*
X129480000Y-73300000D02*
X129480000Y-74540000D01*
X127480000Y-73300000D02*
X129480000Y-73300000D01*
X127480000Y-74540000D02*
X127480000Y-73300000D01*
X129480000Y-74540000D02*
X127480000Y-74540000D01*
X182330000Y-74590000D02*
X182330000Y-73350000D01*
X184330000Y-74590000D02*
X182330000Y-74590000D01*
X184330000Y-73350000D02*
X184330000Y-74590000D01*
X182330000Y-73350000D02*
X184330000Y-73350000D01*
D11*
X168710000Y-101990000D02*
X168710000Y-98590000D01*
X168710000Y-98590000D02*
X175210000Y-98590000D01*
X175210000Y-98590000D02*
X175210000Y-102990000D01*
X175210000Y-102990000D02*
X169710000Y-102990000D01*
X169710000Y-102990000D02*
X168710000Y-101990000D01*
X168740000Y-87060000D02*
X168740000Y-83660000D01*
X168740000Y-83660000D02*
X175240000Y-83660000D01*
X175240000Y-83660000D02*
X175240000Y-88060000D01*
X175240000Y-88060000D02*
X169740000Y-88060000D01*
X169740000Y-88060000D02*
X168740000Y-87060000D01*
D10*
X119230000Y-77980000D02*
X118180000Y-76930000D01*
X119230000Y-77980000D02*
X124880000Y-77980000D01*
X118180000Y-76930000D02*
X118180000Y-74280000D01*
X124880000Y-77980000D02*
X124880000Y-74280000D01*
X118180000Y-74280000D02*
X124880000Y-74280000D01*
X127330000Y-81520000D02*
X126280000Y-80470000D01*
X127330000Y-81520000D02*
X132980000Y-81520000D01*
X126280000Y-80470000D02*
X126280000Y-77820000D01*
X132980000Y-81520000D02*
X132980000Y-77820000D01*
X126280000Y-77820000D02*
X132980000Y-77820000D01*
D11*
X175800000Y-72502381D02*
X175895239Y-72502381D01*
X175990477Y-72550000D01*
X176038096Y-72597619D01*
X176085715Y-72692857D01*
X176133334Y-72883333D01*
X176133334Y-73121429D01*
X176085715Y-73311905D01*
X176038096Y-73407143D01*
X175990477Y-73454762D01*
X175895239Y-73502381D01*
X175800000Y-73502381D01*
X175704762Y-73454762D01*
X175657143Y-73407143D01*
X175609524Y-73311905D01*
X175561905Y-73121429D01*
X175561905Y-72883333D01*
X175609524Y-72692857D01*
X175657143Y-72597619D01*
X175704762Y-72550000D01*
X175800000Y-72502381D01*
X176561905Y-72978571D02*
X176895239Y-72978571D01*
X177038096Y-73502381D02*
X176561905Y-73502381D01*
X176561905Y-72502381D01*
X177038096Y-72502381D01*
D12*
X176216667Y-75026190D02*
X176050000Y-74788095D01*
X175930953Y-75026190D02*
X175930953Y-74526190D01*
X176121429Y-74526190D01*
X176169048Y-74550000D01*
X176192857Y-74573810D01*
X176216667Y-74621429D01*
X176216667Y-74692857D01*
X176192857Y-74740476D01*
X176169048Y-74764286D01*
X176121429Y-74788095D01*
X175930953Y-74788095D01*
X176645238Y-74526190D02*
X176550000Y-74526190D01*
X176502381Y-74550000D01*
X176478572Y-74573810D01*
X176430953Y-74645238D01*
X176407143Y-74740476D01*
X176407143Y-74930952D01*
X176430953Y-74978571D01*
X176454762Y-75002381D01*
X176502381Y-75026190D01*
X176597619Y-75026190D01*
X176645238Y-75002381D01*
X176669048Y-74978571D01*
X176692857Y-74930952D01*
X176692857Y-74811905D01*
X176669048Y-74764286D01*
X176645238Y-74740476D01*
X176597619Y-74716667D01*
X176502381Y-74716667D01*
X176454762Y-74740476D01*
X176430953Y-74764286D01*
X176407143Y-74811905D01*
D11*
X166522381Y-101122857D02*
X166522381Y-101027618D01*
X166570000Y-100932380D01*
X166617619Y-100884761D01*
X166712857Y-100837142D01*
X166903333Y-100789523D01*
X167141429Y-100789523D01*
X167331905Y-100837142D01*
X167427143Y-100884761D01*
X167474762Y-100932380D01*
X167522381Y-101027618D01*
X167522381Y-101122857D01*
X167474762Y-101218095D01*
X167427143Y-101265714D01*
X167331905Y-101313333D01*
X167141429Y-101360952D01*
X166903333Y-101360952D01*
X166712857Y-101313333D01*
X166617619Y-101265714D01*
X166570000Y-101218095D01*
X166522381Y-101122857D01*
X167427143Y-100360952D02*
X167474762Y-100313333D01*
X167522381Y-100360952D01*
X167474762Y-100408571D01*
X167427143Y-100360952D01*
X167522381Y-100360952D01*
X167522381Y-99360952D02*
X167522381Y-99932381D01*
X167522381Y-99646667D02*
X166522381Y-99646667D01*
X166665238Y-99741905D01*
X166760476Y-99837143D01*
X166808095Y-99932381D01*
X166855714Y-98503809D02*
X167522381Y-98503809D01*
X166855714Y-98932381D02*
X167379524Y-98932381D01*
X167474762Y-98884762D01*
X167522381Y-98789524D01*
X167522381Y-98646666D01*
X167474762Y-98551428D01*
X167427143Y-98503809D01*
X166998571Y-97694285D02*
X166998571Y-98027619D01*
X167522381Y-98027619D02*
X166522381Y-98027619D01*
X166522381Y-97551428D01*
X163927143Y-99646666D02*
X163974762Y-99694285D01*
X164022381Y-99837142D01*
X164022381Y-99932380D01*
X163974762Y-100075238D01*
X163879524Y-100170476D01*
X163784286Y-100218095D01*
X163593810Y-100265714D01*
X163450952Y-100265714D01*
X163260476Y-100218095D01*
X163165238Y-100170476D01*
X163070000Y-100075238D01*
X163022381Y-99932380D01*
X163022381Y-99837142D01*
X163070000Y-99694285D01*
X163117619Y-99646666D01*
X163117619Y-99265714D02*
X163070000Y-99218095D01*
X163022381Y-99122857D01*
X163022381Y-98884761D01*
X163070000Y-98789523D01*
X163117619Y-98741904D01*
X163212857Y-98694285D01*
X163308095Y-98694285D01*
X163450952Y-98741904D01*
X164022381Y-99313333D01*
X164022381Y-98694285D01*
X144454762Y-108832381D02*
X143883333Y-108832381D01*
X144169047Y-108832381D02*
X144169047Y-107832381D01*
X144073809Y-107975238D01*
X143978571Y-108070476D01*
X143883333Y-108118095D01*
X145311905Y-108165714D02*
X145311905Y-108832381D01*
X144883333Y-108165714D02*
X144883333Y-108689524D01*
X144930952Y-108784762D01*
X145026190Y-108832381D01*
X145169048Y-108832381D01*
X145264286Y-108784762D01*
X145311905Y-108737143D01*
X146121429Y-108308571D02*
X145788095Y-108308571D01*
X145788095Y-108832381D02*
X145788095Y-107832381D01*
X146264286Y-107832381D01*
D10*
X144726667Y-106818571D02*
X144702857Y-106842381D01*
X144631429Y-106866190D01*
X144583810Y-106866190D01*
X144512381Y-106842381D01*
X144464762Y-106794762D01*
X144440953Y-106747143D01*
X144417143Y-106651905D01*
X144417143Y-106580476D01*
X144440953Y-106485238D01*
X144464762Y-106437619D01*
X144512381Y-106390000D01*
X144583810Y-106366190D01*
X144631429Y-106366190D01*
X144702857Y-106390000D01*
X144726667Y-106413810D01*
X145155238Y-106532857D02*
X145155238Y-106866190D01*
X145036191Y-106342381D02*
X144917143Y-106699524D01*
X145226667Y-106699524D01*
D11*
X166807143Y-88242381D02*
X166902382Y-88242381D01*
X166997620Y-88290000D01*
X167045239Y-88337619D01*
X167092858Y-88432857D01*
X167140477Y-88623333D01*
X167140477Y-88861429D01*
X167092858Y-89051905D01*
X167045239Y-89147143D01*
X166997620Y-89194762D01*
X166902382Y-89242381D01*
X166807143Y-89242381D01*
X166711905Y-89194762D01*
X166664286Y-89147143D01*
X166616667Y-89051905D01*
X166569048Y-88861429D01*
X166569048Y-88623333D01*
X166616667Y-88432857D01*
X166664286Y-88337619D01*
X166711905Y-88290000D01*
X166807143Y-88242381D01*
X167569048Y-89147143D02*
X167616667Y-89194762D01*
X167569048Y-89242381D01*
X167521429Y-89194762D01*
X167569048Y-89147143D01*
X167569048Y-89242381D01*
X168569048Y-89242381D02*
X167997619Y-89242381D01*
X168283333Y-89242381D02*
X168283333Y-88242381D01*
X168188095Y-88385238D01*
X168092857Y-88480476D01*
X167997619Y-88528095D01*
X169426191Y-88575714D02*
X169426191Y-89242381D01*
X168997619Y-88575714D02*
X168997619Y-89099524D01*
X169045238Y-89194762D01*
X169140476Y-89242381D01*
X169283334Y-89242381D01*
X169378572Y-89194762D01*
X169426191Y-89147143D01*
X170235715Y-88718571D02*
X169902381Y-88718571D01*
X169902381Y-89242381D02*
X169902381Y-88242381D01*
X170378572Y-88242381D01*
X168223334Y-90897143D02*
X168175715Y-90944762D01*
X168032858Y-90992381D01*
X167937620Y-90992381D01*
X167794762Y-90944762D01*
X167699524Y-90849524D01*
X167651905Y-90754286D01*
X167604286Y-90563810D01*
X167604286Y-90420952D01*
X167651905Y-90230476D01*
X167699524Y-90135238D01*
X167794762Y-90040000D01*
X167937620Y-89992381D01*
X168032858Y-89992381D01*
X168175715Y-90040000D01*
X168223334Y-90087619D01*
X169080477Y-89992381D02*
X168890000Y-89992381D01*
X168794762Y-90040000D01*
X168747143Y-90087619D01*
X168651905Y-90230476D01*
X168604286Y-90420952D01*
X168604286Y-90801905D01*
X168651905Y-90897143D01*
X168699524Y-90944762D01*
X168794762Y-90992381D01*
X168985239Y-90992381D01*
X169080477Y-90944762D01*
X169128096Y-90897143D01*
X169175715Y-90801905D01*
X169175715Y-90563810D01*
X169128096Y-90468571D01*
X169080477Y-90420952D01*
X168985239Y-90373333D01*
X168794762Y-90373333D01*
X168699524Y-90420952D01*
X168651905Y-90468571D01*
X168604286Y-90563810D01*
X135152381Y-82841428D02*
X135152381Y-83412857D01*
X135152381Y-83127143D02*
X134152381Y-83127143D01*
X134295238Y-83222381D01*
X134390476Y-83317619D01*
X134438095Y-83412857D01*
X134152381Y-82222381D02*
X134152381Y-82127142D01*
X134200000Y-82031904D01*
X134247619Y-81984285D01*
X134342857Y-81936666D01*
X134533333Y-81889047D01*
X134771429Y-81889047D01*
X134961905Y-81936666D01*
X135057143Y-81984285D01*
X135104762Y-82031904D01*
X135152381Y-82127142D01*
X135152381Y-82222381D01*
X135104762Y-82317619D01*
X135057143Y-82365238D01*
X134961905Y-82412857D01*
X134771429Y-82460476D01*
X134533333Y-82460476D01*
X134342857Y-82412857D01*
X134247619Y-82365238D01*
X134200000Y-82317619D01*
X134152381Y-82222381D01*
X134485714Y-81031904D02*
X135152381Y-81031904D01*
X134485714Y-81460476D02*
X135009524Y-81460476D01*
X135104762Y-81412857D01*
X135152381Y-81317619D01*
X135152381Y-81174761D01*
X135104762Y-81079523D01*
X135057143Y-81031904D01*
X134628571Y-80222380D02*
X134628571Y-80555714D01*
X135152381Y-80555714D02*
X134152381Y-80555714D01*
X134152381Y-80079523D01*
X133327143Y-82442857D02*
X133374762Y-82490476D01*
X133422381Y-82633333D01*
X133422381Y-82728571D01*
X133374762Y-82871429D01*
X133279524Y-82966667D01*
X133184286Y-83014286D01*
X132993810Y-83061905D01*
X132850952Y-83061905D01*
X132660476Y-83014286D01*
X132565238Y-82966667D01*
X132470000Y-82871429D01*
X132422381Y-82728571D01*
X132422381Y-82633333D01*
X132470000Y-82490476D01*
X132517619Y-82442857D01*
X133422381Y-81490476D02*
X133422381Y-82061905D01*
X133422381Y-81776191D02*
X132422381Y-81776191D01*
X132565238Y-81871429D01*
X132660476Y-81966667D01*
X132708095Y-82061905D01*
X133422381Y-80538095D02*
X133422381Y-81109524D01*
X133422381Y-80823810D02*
X132422381Y-80823810D01*
X132565238Y-80919048D01*
X132660476Y-81014286D01*
X132708095Y-81109524D01*
X122198572Y-82042381D02*
X121627143Y-82042381D01*
X121912857Y-82042381D02*
X121912857Y-81042381D01*
X121817619Y-81185238D01*
X121722381Y-81280476D01*
X121627143Y-81328095D01*
X122817619Y-81042381D02*
X122912858Y-81042381D01*
X123008096Y-81090000D01*
X123055715Y-81137619D01*
X123103334Y-81232857D01*
X123150953Y-81423333D01*
X123150953Y-81661429D01*
X123103334Y-81851905D01*
X123055715Y-81947143D01*
X123008096Y-81994762D01*
X122912858Y-82042381D01*
X122817619Y-82042381D01*
X122722381Y-81994762D01*
X122674762Y-81947143D01*
X122627143Y-81851905D01*
X122579524Y-81661429D01*
X122579524Y-81423333D01*
X122627143Y-81232857D01*
X122674762Y-81137619D01*
X122722381Y-81090000D01*
X122817619Y-81042381D01*
X124008096Y-81375714D02*
X124008096Y-82042381D01*
X123579524Y-81375714D02*
X123579524Y-81899524D01*
X123627143Y-81994762D01*
X123722381Y-82042381D01*
X123865239Y-82042381D01*
X123960477Y-81994762D01*
X124008096Y-81947143D01*
X124817620Y-81518571D02*
X124484286Y-81518571D01*
X124484286Y-82042381D02*
X124484286Y-81042381D01*
X124960477Y-81042381D01*
X122647143Y-80207143D02*
X122599524Y-80254762D01*
X122456667Y-80302381D01*
X122361429Y-80302381D01*
X122218571Y-80254762D01*
X122123333Y-80159524D01*
X122075714Y-80064286D01*
X122028095Y-79873810D01*
X122028095Y-79730952D01*
X122075714Y-79540476D01*
X122123333Y-79445238D01*
X122218571Y-79350000D01*
X122361429Y-79302381D01*
X122456667Y-79302381D01*
X122599524Y-79350000D01*
X122647143Y-79397619D01*
X123599524Y-80302381D02*
X123028095Y-80302381D01*
X123313809Y-80302381D02*
X123313809Y-79302381D01*
X123218571Y-79445238D01*
X123123333Y-79540476D01*
X123028095Y-79588095D01*
X123980476Y-79397619D02*
X124028095Y-79350000D01*
X124123333Y-79302381D01*
X124361429Y-79302381D01*
X124456667Y-79350000D01*
X124504286Y-79397619D01*
X124551905Y-79492857D01*
X124551905Y-79588095D01*
X124504286Y-79730952D01*
X123932857Y-80302381D01*
X124551905Y-80302381D01*
X117508572Y-82062381D02*
X116937143Y-82062381D01*
X117222857Y-82062381D02*
X117222857Y-81062381D01*
X117127619Y-81205238D01*
X117032381Y-81300476D01*
X116937143Y-81348095D01*
X118127619Y-81062381D02*
X118222858Y-81062381D01*
X118318096Y-81110000D01*
X118365715Y-81157619D01*
X118413334Y-81252857D01*
X118460953Y-81443333D01*
X118460953Y-81681429D01*
X118413334Y-81871905D01*
X118365715Y-81967143D01*
X118318096Y-82014762D01*
X118222858Y-82062381D01*
X118127619Y-82062381D01*
X118032381Y-82014762D01*
X117984762Y-81967143D01*
X117937143Y-81871905D01*
X117889524Y-81681429D01*
X117889524Y-81443333D01*
X117937143Y-81252857D01*
X117984762Y-81157619D01*
X118032381Y-81110000D01*
X118127619Y-81062381D01*
X119318096Y-81395714D02*
X119318096Y-82062381D01*
X118889524Y-81395714D02*
X118889524Y-81919524D01*
X118937143Y-82014762D01*
X119032381Y-82062381D01*
X119175239Y-82062381D01*
X119270477Y-82014762D01*
X119318096Y-81967143D01*
X120127620Y-81538571D02*
X119794286Y-81538571D01*
X119794286Y-82062381D02*
X119794286Y-81062381D01*
X120270477Y-81062381D01*
X118047143Y-83697143D02*
X117999524Y-83744762D01*
X117856667Y-83792381D01*
X117761429Y-83792381D01*
X117618571Y-83744762D01*
X117523333Y-83649524D01*
X117475714Y-83554286D01*
X117428095Y-83363810D01*
X117428095Y-83220952D01*
X117475714Y-83030476D01*
X117523333Y-82935238D01*
X117618571Y-82840000D01*
X117761429Y-82792381D01*
X117856667Y-82792381D01*
X117999524Y-82840000D01*
X118047143Y-82887619D01*
X118999524Y-83792381D02*
X118428095Y-83792381D01*
X118713809Y-83792381D02*
X118713809Y-82792381D01*
X118618571Y-82935238D01*
X118523333Y-83030476D01*
X118428095Y-83078095D01*
X119332857Y-82792381D02*
X119951905Y-82792381D01*
X119618571Y-83173333D01*
X119761429Y-83173333D01*
X119856667Y-83220952D01*
X119904286Y-83268571D01*
X119951905Y-83363810D01*
X119951905Y-83601905D01*
X119904286Y-83697143D01*
X119856667Y-83744762D01*
X119761429Y-83792381D01*
X119475714Y-83792381D01*
X119380476Y-83744762D01*
X119332857Y-83697143D01*
X135212381Y-78131428D02*
X135212381Y-78702857D01*
X135212381Y-78417143D02*
X134212381Y-78417143D01*
X134355238Y-78512381D01*
X134450476Y-78607619D01*
X134498095Y-78702857D01*
X134212381Y-77512381D02*
X134212381Y-77417142D01*
X134260000Y-77321904D01*
X134307619Y-77274285D01*
X134402857Y-77226666D01*
X134593333Y-77179047D01*
X134831429Y-77179047D01*
X135021905Y-77226666D01*
X135117143Y-77274285D01*
X135164762Y-77321904D01*
X135212381Y-77417142D01*
X135212381Y-77512381D01*
X135164762Y-77607619D01*
X135117143Y-77655238D01*
X135021905Y-77702857D01*
X134831429Y-77750476D01*
X134593333Y-77750476D01*
X134402857Y-77702857D01*
X134307619Y-77655238D01*
X134260000Y-77607619D01*
X134212381Y-77512381D01*
X134545714Y-76321904D02*
X135212381Y-76321904D01*
X134545714Y-76750476D02*
X135069524Y-76750476D01*
X135164762Y-76702857D01*
X135212381Y-76607619D01*
X135212381Y-76464761D01*
X135164762Y-76369523D01*
X135117143Y-76321904D01*
X134688571Y-75512380D02*
X134688571Y-75845714D01*
X135212381Y-75845714D02*
X134212381Y-75845714D01*
X134212381Y-75369523D01*
X136847143Y-77812857D02*
X136894762Y-77860476D01*
X136942381Y-78003333D01*
X136942381Y-78098571D01*
X136894762Y-78241429D01*
X136799524Y-78336667D01*
X136704286Y-78384286D01*
X136513810Y-78431905D01*
X136370952Y-78431905D01*
X136180476Y-78384286D01*
X136085238Y-78336667D01*
X135990000Y-78241429D01*
X135942381Y-78098571D01*
X135942381Y-78003333D01*
X135990000Y-77860476D01*
X136037619Y-77812857D01*
X136942381Y-76860476D02*
X136942381Y-77431905D01*
X136942381Y-77146191D02*
X135942381Y-77146191D01*
X136085238Y-77241429D01*
X136180476Y-77336667D01*
X136228095Y-77431905D01*
X136275714Y-76003333D02*
X136942381Y-76003333D01*
X135894762Y-76241429D02*
X136609048Y-76479524D01*
X136609048Y-75860476D01*
X117676667Y-68922381D02*
X117676667Y-67922381D01*
X118057620Y-67922381D01*
X118152858Y-67970000D01*
X118200477Y-68017619D01*
X118248096Y-68112857D01*
X118248096Y-68255714D01*
X118200477Y-68350952D01*
X118152858Y-68398571D01*
X118057620Y-68446190D01*
X117676667Y-68446190D01*
X118581429Y-67922381D02*
X118819524Y-68922381D01*
X119010001Y-68208095D01*
X119200477Y-68922381D01*
X119438572Y-67922381D01*
X120390953Y-68922381D02*
X120057619Y-68446190D01*
X119819524Y-68922381D02*
X119819524Y-67922381D01*
X120200477Y-67922381D01*
X120295715Y-67970000D01*
X120343334Y-68017619D01*
X120390953Y-68112857D01*
X120390953Y-68255714D01*
X120343334Y-68350952D01*
X120295715Y-68398571D01*
X120200477Y-68446190D01*
X119819524Y-68446190D01*
X131626667Y-74362381D02*
X131626667Y-73362381D01*
X132007620Y-73362381D01*
X132102858Y-73410000D01*
X132150477Y-73457619D01*
X132198096Y-73552857D01*
X132198096Y-73695714D01*
X132150477Y-73790952D01*
X132102858Y-73838571D01*
X132007620Y-73886190D01*
X131626667Y-73886190D01*
X132531429Y-73362381D02*
X132769524Y-74362381D01*
X132960001Y-73648095D01*
X133150477Y-74362381D01*
X133388572Y-73362381D01*
X134340953Y-74362381D02*
X134007619Y-73886190D01*
X133769524Y-74362381D02*
X133769524Y-73362381D01*
X134150477Y-73362381D01*
X134245715Y-73410000D01*
X134293334Y-73457619D01*
X134340953Y-73552857D01*
X134340953Y-73695714D01*
X134293334Y-73790952D01*
X134245715Y-73838571D01*
X134150477Y-73886190D01*
X133769524Y-73886190D01*
X187423333Y-111532381D02*
X186947142Y-111532381D01*
X186947142Y-110532381D01*
X187756666Y-111008571D02*
X188090000Y-111008571D01*
X188232857Y-111532381D02*
X187756666Y-111532381D01*
X187756666Y-110532381D01*
X188232857Y-110532381D01*
X188994762Y-111008571D02*
X188661428Y-111008571D01*
X188661428Y-111532381D02*
X188661428Y-110532381D01*
X189137619Y-110532381D01*
X189375714Y-110532381D02*
X189947143Y-110532381D01*
X189661428Y-111532381D02*
X189661428Y-110532381D01*
X190042381Y-111627619D02*
X190804286Y-111627619D01*
X191613810Y-111437143D02*
X191566191Y-111484762D01*
X191423334Y-111532381D01*
X191328096Y-111532381D01*
X191185238Y-111484762D01*
X191090000Y-111389524D01*
X191042381Y-111294286D01*
X190994762Y-111103810D01*
X190994762Y-110960952D01*
X191042381Y-110770476D01*
X191090000Y-110675238D01*
X191185238Y-110580000D01*
X191328096Y-110532381D01*
X191423334Y-110532381D01*
X191566191Y-110580000D01*
X191613810Y-110627619D01*
X192232857Y-110532381D02*
X192423334Y-110532381D01*
X192518572Y-110580000D01*
X192613810Y-110675238D01*
X192661429Y-110865714D01*
X192661429Y-111199048D01*
X192613810Y-111389524D01*
X192518572Y-111484762D01*
X192423334Y-111532381D01*
X192232857Y-111532381D01*
X192137619Y-111484762D01*
X192042381Y-111389524D01*
X191994762Y-111199048D01*
X191994762Y-110865714D01*
X192042381Y-110675238D01*
X192137619Y-110580000D01*
X192232857Y-110532381D01*
X193090000Y-111532381D02*
X193090000Y-110532381D01*
X193661429Y-111532381D01*
X193661429Y-110532381D01*
X194137619Y-111532381D02*
X194137619Y-110532381D01*
X194709048Y-111532381D01*
X194709048Y-110532381D01*
X194947143Y-111627619D02*
X195709048Y-111627619D01*
X196137619Y-110532381D02*
X196232858Y-110532381D01*
X196328096Y-110580000D01*
X196375715Y-110627619D01*
X196423334Y-110722857D01*
X196470953Y-110913333D01*
X196470953Y-111151429D01*
X196423334Y-111341905D01*
X196375715Y-111437143D01*
X196328096Y-111484762D01*
X196232858Y-111532381D01*
X196137619Y-111532381D01*
X196042381Y-111484762D01*
X195994762Y-111437143D01*
X195947143Y-111341905D01*
X195899524Y-111151429D01*
X195899524Y-110913333D01*
X195947143Y-110722857D01*
X195994762Y-110627619D01*
X196042381Y-110580000D01*
X196137619Y-110532381D01*
X196851905Y-110627619D02*
X196899524Y-110580000D01*
X196994762Y-110532381D01*
X197232858Y-110532381D01*
X197328096Y-110580000D01*
X197375715Y-110627619D01*
X197423334Y-110722857D01*
X197423334Y-110818095D01*
X197375715Y-110960952D01*
X196804286Y-111532381D01*
X197423334Y-111532381D01*
X197756667Y-110532381D02*
X198423334Y-111532381D01*
X198423334Y-110532381D02*
X197756667Y-111532381D01*
X198994762Y-110532381D02*
X199090001Y-110532381D01*
X199185239Y-110580000D01*
X199232858Y-110627619D01*
X199280477Y-110722857D01*
X199328096Y-110913333D01*
X199328096Y-111151429D01*
X199280477Y-111341905D01*
X199232858Y-111437143D01*
X199185239Y-111484762D01*
X199090001Y-111532381D01*
X198994762Y-111532381D01*
X198899524Y-111484762D01*
X198851905Y-111437143D01*
X198804286Y-111341905D01*
X198756667Y-111151429D01*
X198756667Y-110913333D01*
X198804286Y-110722857D01*
X198851905Y-110627619D01*
X198899524Y-110580000D01*
X198994762Y-110532381D01*
X199899524Y-110960952D02*
X199804286Y-110913333D01*
X199756667Y-110865714D01*
X199709048Y-110770476D01*
X199709048Y-110722857D01*
X199756667Y-110627619D01*
X199804286Y-110580000D01*
X199899524Y-110532381D01*
X200090001Y-110532381D01*
X200185239Y-110580000D01*
X200232858Y-110627619D01*
X200280477Y-110722857D01*
X200280477Y-110770476D01*
X200232858Y-110865714D01*
X200185239Y-110913333D01*
X200090001Y-110960952D01*
X199899524Y-110960952D01*
X199804286Y-111008571D01*
X199756667Y-111056190D01*
X199709048Y-111151429D01*
X199709048Y-111341905D01*
X199756667Y-111437143D01*
X199804286Y-111484762D01*
X199899524Y-111532381D01*
X200090001Y-111532381D01*
X200185239Y-111484762D01*
X200232858Y-111437143D01*
X200280477Y-111341905D01*
X200280477Y-111151429D01*
X200232858Y-111056190D01*
X200185239Y-111008571D01*
X200090001Y-110960952D01*
X181072381Y-107438095D02*
X180072381Y-107438095D01*
X180072381Y-107057142D01*
X180120000Y-106961904D01*
X180167619Y-106914285D01*
X180262857Y-106866666D01*
X180405714Y-106866666D01*
X180500952Y-106914285D01*
X180548571Y-106961904D01*
X180596190Y-107057142D01*
X180596190Y-107438095D01*
X181072381Y-105914285D02*
X181072381Y-106485714D01*
X181072381Y-106200000D02*
X180072381Y-106200000D01*
X180215238Y-106295238D01*
X180310476Y-106390476D01*
X180358095Y-106485714D01*
X136142381Y-116585714D02*
X135666190Y-116919048D01*
X136142381Y-117157143D02*
X135142381Y-117157143D01*
X135142381Y-116776190D01*
X135190000Y-116680952D01*
X135237619Y-116633333D01*
X135332857Y-116585714D01*
X135475714Y-116585714D01*
X135570952Y-116633333D01*
X135618571Y-116680952D01*
X135666190Y-116776190D01*
X135666190Y-117157143D01*
X136094762Y-116204762D02*
X136142381Y-116061905D01*
X136142381Y-115823809D01*
X136094762Y-115728571D01*
X136047143Y-115680952D01*
X135951905Y-115633333D01*
X135856667Y-115633333D01*
X135761429Y-115680952D01*
X135713810Y-115728571D01*
X135666190Y-115823809D01*
X135618571Y-116014286D01*
X135570952Y-116109524D01*
X135523333Y-116157143D01*
X135428095Y-116204762D01*
X135332857Y-116204762D01*
X135237619Y-116157143D01*
X135190000Y-116109524D01*
X135142381Y-116014286D01*
X135142381Y-115776190D01*
X135190000Y-115633333D01*
X135237619Y-115252381D02*
X135190000Y-115204762D01*
X135142381Y-115109524D01*
X135142381Y-114871428D01*
X135190000Y-114776190D01*
X135237619Y-114728571D01*
X135332857Y-114680952D01*
X135428095Y-114680952D01*
X135570952Y-114728571D01*
X136142381Y-115300000D01*
X136142381Y-114680952D01*
X135142381Y-114347619D02*
X135142381Y-113728571D01*
X135523333Y-114061905D01*
X135523333Y-113919047D01*
X135570952Y-113823809D01*
X135618571Y-113776190D01*
X135713810Y-113728571D01*
X135951905Y-113728571D01*
X136047143Y-113776190D01*
X136094762Y-113823809D01*
X136142381Y-113919047D01*
X136142381Y-114204762D01*
X136094762Y-114300000D01*
X136047143Y-114347619D01*
X135237619Y-113347619D02*
X135190000Y-113300000D01*
X135142381Y-113204762D01*
X135142381Y-112966666D01*
X135190000Y-112871428D01*
X135237619Y-112823809D01*
X135332857Y-112776190D01*
X135428095Y-112776190D01*
X135570952Y-112823809D01*
X136142381Y-113395238D01*
X136142381Y-112776190D01*
X136237619Y-112585714D02*
X136237619Y-111823809D01*
X135142381Y-111299999D02*
X135856667Y-111299999D01*
X135999524Y-111347619D01*
X136094762Y-111442857D01*
X136142381Y-111585714D01*
X136142381Y-111680952D01*
X136142381Y-110823809D02*
X135142381Y-110823809D01*
X135856667Y-110490475D01*
X135142381Y-110157142D01*
X136142381Y-110157142D01*
X136142381Y-109680952D02*
X135142381Y-109680952D01*
X135142381Y-109299999D01*
X135190000Y-109204761D01*
X135237619Y-109157142D01*
X135332857Y-109109523D01*
X135475714Y-109109523D01*
X135570952Y-109157142D01*
X135618571Y-109204761D01*
X135666190Y-109299999D01*
X135666190Y-109680952D01*
X136142381Y-108109523D02*
X135666190Y-108442857D01*
X136142381Y-108680952D02*
X135142381Y-108680952D01*
X135142381Y-108299999D01*
X135190000Y-108204761D01*
X135237619Y-108157142D01*
X135332857Y-108109523D01*
X135475714Y-108109523D01*
X135570952Y-108157142D01*
X135618571Y-108204761D01*
X135666190Y-108299999D01*
X135666190Y-108680952D01*
X136237619Y-107919047D02*
X136237619Y-107157142D01*
X135237619Y-106966666D02*
X135190000Y-106919047D01*
X135142381Y-106823809D01*
X135142381Y-106585713D01*
X135190000Y-106490475D01*
X135237619Y-106442856D01*
X135332857Y-106395237D01*
X135428095Y-106395237D01*
X135570952Y-106442856D01*
X136142381Y-107014285D01*
X136142381Y-106395237D01*
X137782381Y-113508095D02*
X136782381Y-113508095D01*
X136782381Y-113127142D01*
X136830000Y-113031904D01*
X136877619Y-112984285D01*
X136972857Y-112936666D01*
X137115714Y-112936666D01*
X137210952Y-112984285D01*
X137258571Y-113031904D01*
X137306190Y-113127142D01*
X137306190Y-113508095D01*
X136877619Y-112555714D02*
X136830000Y-112508095D01*
X136782381Y-112412857D01*
X136782381Y-112174761D01*
X136830000Y-112079523D01*
X136877619Y-112031904D01*
X136972857Y-111984285D01*
X137068095Y-111984285D01*
X137210952Y-112031904D01*
X137782381Y-112603333D01*
X137782381Y-111984285D01*
X137942381Y-80405714D02*
X137466190Y-80739048D01*
X137942381Y-80977143D02*
X136942381Y-80977143D01*
X136942381Y-80596190D01*
X136990000Y-80500952D01*
X137037619Y-80453333D01*
X137132857Y-80405714D01*
X137275714Y-80405714D01*
X137370952Y-80453333D01*
X137418571Y-80500952D01*
X137466190Y-80596190D01*
X137466190Y-80977143D01*
X137894762Y-80024762D02*
X137942381Y-79881905D01*
X137942381Y-79643809D01*
X137894762Y-79548571D01*
X137847143Y-79500952D01*
X137751905Y-79453333D01*
X137656667Y-79453333D01*
X137561429Y-79500952D01*
X137513810Y-79548571D01*
X137466190Y-79643809D01*
X137418571Y-79834286D01*
X137370952Y-79929524D01*
X137323333Y-79977143D01*
X137228095Y-80024762D01*
X137132857Y-80024762D01*
X137037619Y-79977143D01*
X136990000Y-79929524D01*
X136942381Y-79834286D01*
X136942381Y-79596190D01*
X136990000Y-79453333D01*
X137037619Y-79072381D02*
X136990000Y-79024762D01*
X136942381Y-78929524D01*
X136942381Y-78691428D01*
X136990000Y-78596190D01*
X137037619Y-78548571D01*
X137132857Y-78500952D01*
X137228095Y-78500952D01*
X137370952Y-78548571D01*
X137942381Y-79120000D01*
X137942381Y-78500952D01*
X136942381Y-78167619D02*
X136942381Y-77548571D01*
X137323333Y-77881905D01*
X137323333Y-77739047D01*
X137370952Y-77643809D01*
X137418571Y-77596190D01*
X137513810Y-77548571D01*
X137751905Y-77548571D01*
X137847143Y-77596190D01*
X137894762Y-77643809D01*
X137942381Y-77739047D01*
X137942381Y-78024762D01*
X137894762Y-78120000D01*
X137847143Y-78167619D01*
X137037619Y-77167619D02*
X136990000Y-77120000D01*
X136942381Y-77024762D01*
X136942381Y-76786666D01*
X136990000Y-76691428D01*
X137037619Y-76643809D01*
X137132857Y-76596190D01*
X137228095Y-76596190D01*
X137370952Y-76643809D01*
X137942381Y-77215238D01*
X137942381Y-76596190D01*
X138037619Y-76405714D02*
X138037619Y-75643809D01*
X136942381Y-75119999D02*
X137656667Y-75119999D01*
X137799524Y-75167619D01*
X137894762Y-75262857D01*
X137942381Y-75405714D01*
X137942381Y-75500952D01*
X137942381Y-74643809D02*
X136942381Y-74643809D01*
X137656667Y-74310475D01*
X136942381Y-73977142D01*
X137942381Y-73977142D01*
X137942381Y-73500952D02*
X136942381Y-73500952D01*
X136942381Y-73119999D01*
X136990000Y-73024761D01*
X137037619Y-72977142D01*
X137132857Y-72929523D01*
X137275714Y-72929523D01*
X137370952Y-72977142D01*
X137418571Y-73024761D01*
X137466190Y-73119999D01*
X137466190Y-73500952D01*
X137942381Y-71929523D02*
X137466190Y-72262857D01*
X137942381Y-72500952D02*
X136942381Y-72500952D01*
X136942381Y-72119999D01*
X136990000Y-72024761D01*
X137037619Y-71977142D01*
X137132857Y-71929523D01*
X137275714Y-71929523D01*
X137370952Y-71977142D01*
X137418571Y-72024761D01*
X137466190Y-72119999D01*
X137466190Y-72500952D01*
X138037619Y-71739047D02*
X138037619Y-70977142D01*
X137942381Y-70215237D02*
X137942381Y-70786666D01*
X137942381Y-70500952D02*
X136942381Y-70500952D01*
X137085238Y-70596190D01*
X137180476Y-70691428D01*
X137228095Y-70786666D01*
X145142381Y-76358095D02*
X144142381Y-76358095D01*
X144142381Y-75977142D01*
X144190000Y-75881904D01*
X144237619Y-75834285D01*
X144332857Y-75786666D01*
X144475714Y-75786666D01*
X144570952Y-75834285D01*
X144618571Y-75881904D01*
X144666190Y-75977142D01*
X144666190Y-76358095D01*
X144142381Y-75453333D02*
X144142381Y-74834285D01*
X144523333Y-75167619D01*
X144523333Y-75024761D01*
X144570952Y-74929523D01*
X144618571Y-74881904D01*
X144713810Y-74834285D01*
X144951905Y-74834285D01*
X145047143Y-74881904D01*
X145094762Y-74929523D01*
X145142381Y-75024761D01*
X145142381Y-75310476D01*
X145094762Y-75405714D01*
X145047143Y-75453333D01*
X125872381Y-89350476D02*
X126586667Y-89350476D01*
X126729524Y-89398096D01*
X126824762Y-89493334D01*
X126872381Y-89636191D01*
X126872381Y-89731429D01*
X126872381Y-88874286D02*
X125872381Y-88874286D01*
X126586667Y-88540952D01*
X125872381Y-88207619D01*
X126872381Y-88207619D01*
X126872381Y-87731429D02*
X125872381Y-87731429D01*
X125872381Y-87350476D01*
X125920000Y-87255238D01*
X125967619Y-87207619D01*
X126062857Y-87160000D01*
X126205714Y-87160000D01*
X126300952Y-87207619D01*
X126348571Y-87255238D01*
X126396190Y-87350476D01*
X126396190Y-87731429D01*
X126872381Y-86160000D02*
X126396190Y-86493334D01*
X126872381Y-86731429D02*
X125872381Y-86731429D01*
X125872381Y-86350476D01*
X125920000Y-86255238D01*
X125967619Y-86207619D01*
X126062857Y-86160000D01*
X126205714Y-86160000D01*
X126300952Y-86207619D01*
X126348571Y-86255238D01*
X126396190Y-86350476D01*
X126396190Y-86731429D01*
X126967619Y-85969524D02*
X126967619Y-85207619D01*
X125872381Y-85064762D02*
X125872381Y-84445714D01*
X126253333Y-84779048D01*
X126253333Y-84636190D01*
X126300952Y-84540952D01*
X126348571Y-84493333D01*
X126443810Y-84445714D01*
X126681905Y-84445714D01*
X126777143Y-84493333D01*
X126824762Y-84540952D01*
X126872381Y-84636190D01*
X126872381Y-84921905D01*
X126824762Y-85017143D01*
X126777143Y-85064762D01*
X125872381Y-84160000D02*
X126872381Y-83826667D01*
X125872381Y-83493333D01*
X125872381Y-83255238D02*
X125872381Y-82636190D01*
X126253333Y-82969524D01*
X126253333Y-82826666D01*
X126300952Y-82731428D01*
X126348571Y-82683809D01*
X126443810Y-82636190D01*
X126681905Y-82636190D01*
X126777143Y-82683809D01*
X126824762Y-82731428D01*
X126872381Y-82826666D01*
X126872381Y-83112381D01*
X126824762Y-83207619D01*
X126777143Y-83255238D01*
X117132381Y-86898095D02*
X116132381Y-86898095D01*
X116132381Y-86517142D01*
X116180000Y-86421904D01*
X116227619Y-86374285D01*
X116322857Y-86326666D01*
X116465714Y-86326666D01*
X116560952Y-86374285D01*
X116608571Y-86421904D01*
X116656190Y-86517142D01*
X116656190Y-86898095D01*
X116132381Y-85469523D02*
X116132381Y-85660000D01*
X116180000Y-85755238D01*
X116227619Y-85802857D01*
X116370476Y-85898095D01*
X116560952Y-85945714D01*
X116941905Y-85945714D01*
X117037143Y-85898095D01*
X117084762Y-85850476D01*
X117132381Y-85755238D01*
X117132381Y-85564761D01*
X117084762Y-85469523D01*
X117037143Y-85421904D01*
X116941905Y-85374285D01*
X116703810Y-85374285D01*
X116608571Y-85421904D01*
X116560952Y-85469523D01*
X116513333Y-85564761D01*
X116513333Y-85755238D01*
X116560952Y-85850476D01*
X116608571Y-85898095D01*
X116703810Y-85945714D01*
X102457143Y-117302857D02*
X102504762Y-117350476D01*
X102552381Y-117493333D01*
X102552381Y-117588571D01*
X102504762Y-117731429D01*
X102409524Y-117826667D01*
X102314286Y-117874286D01*
X102123810Y-117921905D01*
X101980952Y-117921905D01*
X101790476Y-117874286D01*
X101695238Y-117826667D01*
X101600000Y-117731429D01*
X101552381Y-117588571D01*
X101552381Y-117493333D01*
X101600000Y-117350476D01*
X101647619Y-117302857D01*
X102552381Y-116874286D02*
X101552381Y-116874286D01*
X102552381Y-116302857D01*
X101552381Y-116302857D01*
X101552381Y-115969524D02*
X101552381Y-115398095D01*
X102552381Y-115683810D02*
X101552381Y-115683810D01*
X102171429Y-115064762D02*
X102171429Y-114302857D01*
X102552381Y-113255238D02*
X102076190Y-113588572D01*
X102552381Y-113826667D02*
X101552381Y-113826667D01*
X101552381Y-113445714D01*
X101600000Y-113350476D01*
X101647619Y-113302857D01*
X101742857Y-113255238D01*
X101885714Y-113255238D01*
X101980952Y-113302857D01*
X102028571Y-113350476D01*
X102076190Y-113445714D01*
X102076190Y-113826667D01*
X101552381Y-112540952D02*
X102266667Y-112540952D01*
X102409524Y-112588572D01*
X102504762Y-112683810D01*
X102552381Y-112826667D01*
X102552381Y-112921905D01*
X101885714Y-111636190D02*
X102552381Y-111636190D01*
X101504762Y-111874286D02*
X102219048Y-112112381D01*
X102219048Y-111493333D01*
X101552381Y-110636190D02*
X101552381Y-111112381D01*
X102028571Y-111160000D01*
X101980952Y-111112381D01*
X101933333Y-111017143D01*
X101933333Y-110779047D01*
X101980952Y-110683809D01*
X102028571Y-110636190D01*
X102123810Y-110588571D01*
X102361905Y-110588571D01*
X102457143Y-110636190D01*
X102504762Y-110683809D01*
X102552381Y-110779047D01*
X102552381Y-111017143D01*
X102504762Y-111112381D01*
X102457143Y-111160000D01*
X102647619Y-110398095D02*
X102647619Y-109636190D01*
X102552381Y-108874285D02*
X102552381Y-109445714D01*
X102552381Y-109160000D02*
X101552381Y-109160000D01*
X101695238Y-109255238D01*
X101790476Y-109350476D01*
X101838095Y-109445714D01*
X101552381Y-108255238D02*
X101552381Y-108159999D01*
X101600000Y-108064761D01*
X101647619Y-108017142D01*
X101742857Y-107969523D01*
X101933333Y-107921904D01*
X102171429Y-107921904D01*
X102361905Y-107969523D01*
X102457143Y-108017142D01*
X102504762Y-108064761D01*
X102552381Y-108159999D01*
X102552381Y-108255238D01*
X102504762Y-108350476D01*
X102457143Y-108398095D01*
X102361905Y-108445714D01*
X102171429Y-108493333D01*
X101933333Y-108493333D01*
X101742857Y-108445714D01*
X101647619Y-108398095D01*
X101600000Y-108350476D01*
X101552381Y-108255238D01*
X102552381Y-107493333D02*
X101552381Y-107493333D01*
X101552381Y-107112380D01*
X101600000Y-107017142D01*
X101647619Y-106969523D01*
X101742857Y-106921904D01*
X101885714Y-106921904D01*
X101980952Y-106969523D01*
X102028571Y-107017142D01*
X102076190Y-107112380D01*
X102076190Y-107493333D01*
X102552381Y-106493333D02*
X101552381Y-106493333D01*
X102552381Y-106017143D02*
X101552381Y-106017143D01*
X102552381Y-105445714D01*
X101552381Y-105445714D01*
X128255715Y-85052381D02*
X128255715Y-85766667D01*
X128208095Y-85909524D01*
X128112857Y-86004762D01*
X127970000Y-86052381D01*
X127874762Y-86052381D01*
X128731905Y-86052381D02*
X128731905Y-85052381D01*
X129065239Y-85766667D01*
X129398572Y-85052381D01*
X129398572Y-86052381D01*
X129874762Y-86052381D02*
X129874762Y-85052381D01*
X130255715Y-85052381D01*
X130350953Y-85100000D01*
X130398572Y-85147619D01*
X130446191Y-85242857D01*
X130446191Y-85385714D01*
X130398572Y-85480952D01*
X130350953Y-85528571D01*
X130255715Y-85576190D01*
X129874762Y-85576190D01*
X131446191Y-86052381D02*
X131112857Y-85576190D01*
X130874762Y-86052381D02*
X130874762Y-85052381D01*
X131255715Y-85052381D01*
X131350953Y-85100000D01*
X131398572Y-85147619D01*
X131446191Y-85242857D01*
X131446191Y-85385714D01*
X131398572Y-85480952D01*
X131350953Y-85528571D01*
X131255715Y-85576190D01*
X130874762Y-85576190D01*
X131636667Y-86147619D02*
X132398572Y-86147619D01*
X133112858Y-85052381D02*
X132636667Y-85052381D01*
X132589048Y-85528571D01*
X132636667Y-85480952D01*
X132731905Y-85433333D01*
X132970001Y-85433333D01*
X133065239Y-85480952D01*
X133112858Y-85528571D01*
X133160477Y-85623810D01*
X133160477Y-85861905D01*
X133112858Y-85957143D01*
X133065239Y-86004762D01*
X132970001Y-86052381D01*
X132731905Y-86052381D01*
X132636667Y-86004762D01*
X132589048Y-85957143D01*
X133446191Y-85052381D02*
X133779524Y-86052381D01*
X134112858Y-85052381D01*
X125922381Y-87424286D02*
X124922381Y-87424286D01*
X124922381Y-87043333D01*
X124970000Y-86948095D01*
X125017619Y-86900476D01*
X125112857Y-86852857D01*
X125255714Y-86852857D01*
X125350952Y-86900476D01*
X125398571Y-86948095D01*
X125446190Y-87043333D01*
X125446190Y-87424286D01*
X125922381Y-85900476D02*
X125922381Y-86471905D01*
X125922381Y-86186191D02*
X124922381Y-86186191D01*
X125065238Y-86281429D01*
X125160476Y-86376667D01*
X125208095Y-86471905D01*
X124922381Y-85281429D02*
X124922381Y-85186190D01*
X124970000Y-85090952D01*
X125017619Y-85043333D01*
X125112857Y-84995714D01*
X125303333Y-84948095D01*
X125541429Y-84948095D01*
X125731905Y-84995714D01*
X125827143Y-85043333D01*
X125874762Y-85090952D01*
X125922381Y-85186190D01*
X125922381Y-85281429D01*
X125874762Y-85376667D01*
X125827143Y-85424286D01*
X125731905Y-85471905D01*
X125541429Y-85519524D01*
X125303333Y-85519524D01*
X125112857Y-85471905D01*
X125017619Y-85424286D01*
X124970000Y-85376667D01*
X124922381Y-85281429D01*
X203532381Y-85327619D02*
X203056190Y-85660953D01*
X203532381Y-85899048D02*
X202532381Y-85899048D01*
X202532381Y-85518095D01*
X202580000Y-85422857D01*
X202627619Y-85375238D01*
X202722857Y-85327619D01*
X202865714Y-85327619D01*
X202960952Y-85375238D01*
X203008571Y-85422857D01*
X203056190Y-85518095D01*
X203056190Y-85899048D01*
X203532381Y-84899048D02*
X202532381Y-84899048D01*
X202580000Y-83899048D02*
X202532381Y-83994286D01*
X202532381Y-84137143D01*
X202580000Y-84280001D01*
X202675238Y-84375239D01*
X202770476Y-84422858D01*
X202960952Y-84470477D01*
X203103810Y-84470477D01*
X203294286Y-84422858D01*
X203389524Y-84375239D01*
X203484762Y-84280001D01*
X203532381Y-84137143D01*
X203532381Y-84041905D01*
X203484762Y-83899048D01*
X203437143Y-83851429D01*
X203103810Y-83851429D01*
X203103810Y-84041905D01*
X203532381Y-83422858D02*
X202532381Y-83422858D01*
X203008571Y-83422858D02*
X203008571Y-82851429D01*
X203532381Y-82851429D02*
X202532381Y-82851429D01*
X202532381Y-82518096D02*
X202532381Y-81946667D01*
X203532381Y-82232382D02*
X202532381Y-82232382D01*
X203627619Y-81851429D02*
X203627619Y-81089524D01*
X203437143Y-80280000D02*
X203484762Y-80327619D01*
X203532381Y-80470476D01*
X203532381Y-80565714D01*
X203484762Y-80708572D01*
X203389524Y-80803810D01*
X203294286Y-80851429D01*
X203103810Y-80899048D01*
X202960952Y-80899048D01*
X202770476Y-80851429D01*
X202675238Y-80803810D01*
X202580000Y-80708572D01*
X202532381Y-80565714D01*
X202532381Y-80470476D01*
X202580000Y-80327619D01*
X202627619Y-80280000D01*
X202532381Y-79660953D02*
X202532381Y-79470476D01*
X202580000Y-79375238D01*
X202675238Y-79280000D01*
X202865714Y-79232381D01*
X203199048Y-79232381D01*
X203389524Y-79280000D01*
X203484762Y-79375238D01*
X203532381Y-79470476D01*
X203532381Y-79660953D01*
X203484762Y-79756191D01*
X203389524Y-79851429D01*
X203199048Y-79899048D01*
X202865714Y-79899048D01*
X202675238Y-79851429D01*
X202580000Y-79756191D01*
X202532381Y-79660953D01*
X203532381Y-78803810D02*
X202532381Y-78803810D01*
X203532381Y-78232381D01*
X202532381Y-78232381D01*
X203532381Y-77756191D02*
X202532381Y-77756191D01*
X203532381Y-77184762D01*
X202532381Y-77184762D01*
X203627619Y-76946667D02*
X203627619Y-76184762D01*
X202532381Y-75756191D02*
X202532381Y-75660952D01*
X202580000Y-75565714D01*
X202627619Y-75518095D01*
X202722857Y-75470476D01*
X202913333Y-75422857D01*
X203151429Y-75422857D01*
X203341905Y-75470476D01*
X203437143Y-75518095D01*
X203484762Y-75565714D01*
X203532381Y-75660952D01*
X203532381Y-75756191D01*
X203484762Y-75851429D01*
X203437143Y-75899048D01*
X203341905Y-75946667D01*
X203151429Y-75994286D01*
X202913333Y-75994286D01*
X202722857Y-75946667D01*
X202627619Y-75899048D01*
X202580000Y-75851429D01*
X202532381Y-75756191D01*
X202627619Y-75041905D02*
X202580000Y-74994286D01*
X202532381Y-74899048D01*
X202532381Y-74660952D01*
X202580000Y-74565714D01*
X202627619Y-74518095D01*
X202722857Y-74470476D01*
X202818095Y-74470476D01*
X202960952Y-74518095D01*
X203532381Y-75089524D01*
X203532381Y-74470476D01*
X202532381Y-74137143D02*
X203532381Y-73470476D01*
X202532381Y-73470476D02*
X203532381Y-74137143D01*
X202532381Y-72899048D02*
X202532381Y-72803809D01*
X202580000Y-72708571D01*
X202627619Y-72660952D01*
X202722857Y-72613333D01*
X202913333Y-72565714D01*
X203151429Y-72565714D01*
X203341905Y-72613333D01*
X203437143Y-72660952D01*
X203484762Y-72708571D01*
X203532381Y-72803809D01*
X203532381Y-72899048D01*
X203484762Y-72994286D01*
X203437143Y-73041905D01*
X203341905Y-73089524D01*
X203151429Y-73137143D01*
X202913333Y-73137143D01*
X202722857Y-73089524D01*
X202627619Y-73041905D01*
X202580000Y-72994286D01*
X202532381Y-72899048D01*
X202960952Y-71994286D02*
X202913333Y-72089524D01*
X202865714Y-72137143D01*
X202770476Y-72184762D01*
X202722857Y-72184762D01*
X202627619Y-72137143D01*
X202580000Y-72089524D01*
X202532381Y-71994286D01*
X202532381Y-71803809D01*
X202580000Y-71708571D01*
X202627619Y-71660952D01*
X202722857Y-71613333D01*
X202770476Y-71613333D01*
X202865714Y-71660952D01*
X202913333Y-71708571D01*
X202960952Y-71803809D01*
X202960952Y-71994286D01*
X203008571Y-72089524D01*
X203056190Y-72137143D01*
X203151429Y-72184762D01*
X203341905Y-72184762D01*
X203437143Y-72137143D01*
X203484762Y-72089524D01*
X203532381Y-71994286D01*
X203532381Y-71803809D01*
X203484762Y-71708571D01*
X203437143Y-71660952D01*
X203341905Y-71613333D01*
X203151429Y-71613333D01*
X203056190Y-71660952D01*
X203008571Y-71708571D01*
X202960952Y-71803809D01*
X181092381Y-79994286D02*
X180092381Y-79994286D01*
X180092381Y-79613333D01*
X180140000Y-79518095D01*
X180187619Y-79470476D01*
X180282857Y-79422857D01*
X180425714Y-79422857D01*
X180520952Y-79470476D01*
X180568571Y-79518095D01*
X180616190Y-79613333D01*
X180616190Y-79994286D01*
X181092381Y-78470476D02*
X181092381Y-79041905D01*
X181092381Y-78756191D02*
X180092381Y-78756191D01*
X180235238Y-78851429D01*
X180330476Y-78946667D01*
X180378095Y-79041905D01*
X181092381Y-77518095D02*
X181092381Y-78089524D01*
X181092381Y-77803810D02*
X180092381Y-77803810D01*
X180235238Y-77899048D01*
X180330476Y-77994286D01*
X180378095Y-78089524D01*
X167742381Y-100130476D02*
X167742381Y-100701905D01*
X167742381Y-100416191D02*
X166742381Y-100416191D01*
X166885238Y-100511429D01*
X166980476Y-100606667D01*
X167028095Y-100701905D01*
X166742381Y-99511429D02*
X166742381Y-99416190D01*
X166790000Y-99320952D01*
X166837619Y-99273333D01*
X166932857Y-99225714D01*
X167123333Y-99178095D01*
X167361429Y-99178095D01*
X167551905Y-99225714D01*
X167647143Y-99273333D01*
X167694762Y-99320952D01*
X167742381Y-99416190D01*
X167742381Y-99511429D01*
X167694762Y-99606667D01*
X167647143Y-99654286D01*
X167551905Y-99701905D01*
X167361429Y-99749524D01*
X167123333Y-99749524D01*
X166932857Y-99701905D01*
X166837619Y-99654286D01*
X166790000Y-99606667D01*
X166742381Y-99511429D01*
X167742381Y-98749524D02*
X166742381Y-98749524D01*
X167742381Y-98178095D02*
X167170952Y-98606667D01*
X166742381Y-98178095D02*
X167313810Y-98749524D01*
D12*
X167446190Y-99653333D02*
X167208095Y-99820000D01*
X167446190Y-99939047D02*
X166946190Y-99939047D01*
X166946190Y-99748571D01*
X166970000Y-99700952D01*
X166993810Y-99677143D01*
X167041429Y-99653333D01*
X167112857Y-99653333D01*
X167160476Y-99677143D01*
X167184286Y-99700952D01*
X167208095Y-99748571D01*
X167208095Y-99939047D01*
X167446190Y-99177143D02*
X167446190Y-99462857D01*
X167446190Y-99320000D02*
X166946190Y-99320000D01*
X167017619Y-99367619D01*
X167065238Y-99415238D01*
X167089048Y-99462857D01*
D11*
X168739524Y-91012381D02*
X168168095Y-91012381D01*
X168453809Y-91012381D02*
X168453809Y-90012381D01*
X168358571Y-90155238D01*
X168263333Y-90250476D01*
X168168095Y-90298095D01*
X169358571Y-90012381D02*
X169453810Y-90012381D01*
X169549048Y-90060000D01*
X169596667Y-90107619D01*
X169644286Y-90202857D01*
X169691905Y-90393333D01*
X169691905Y-90631429D01*
X169644286Y-90821905D01*
X169596667Y-90917143D01*
X169549048Y-90964762D01*
X169453810Y-91012381D01*
X169358571Y-91012381D01*
X169263333Y-90964762D01*
X169215714Y-90917143D01*
X169168095Y-90821905D01*
X169120476Y-90631429D01*
X169120476Y-90393333D01*
X169168095Y-90202857D01*
X169215714Y-90107619D01*
X169263333Y-90060000D01*
X169358571Y-90012381D01*
X170120476Y-91012381D02*
X170120476Y-90012381D01*
X170691905Y-91012381D02*
X170263333Y-90440952D01*
X170691905Y-90012381D02*
X170120476Y-90583810D01*
D12*
X173086667Y-90786190D02*
X172920000Y-90548095D01*
X172800953Y-90786190D02*
X172800953Y-90286190D01*
X172991429Y-90286190D01*
X173039048Y-90310000D01*
X173062857Y-90333810D01*
X173086667Y-90381429D01*
X173086667Y-90452857D01*
X173062857Y-90500476D01*
X173039048Y-90524286D01*
X172991429Y-90548095D01*
X172800953Y-90548095D01*
X173277143Y-90333810D02*
X173300953Y-90310000D01*
X173348572Y-90286190D01*
X173467619Y-90286190D01*
X173515238Y-90310000D01*
X173539048Y-90333810D01*
X173562857Y-90381429D01*
X173562857Y-90429048D01*
X173539048Y-90500476D01*
X173253334Y-90786190D01*
X173562857Y-90786190D01*
D11*
X122945715Y-72022381D02*
X122374286Y-72022381D01*
X122660000Y-72022381D02*
X122660000Y-71022381D01*
X122564762Y-71165238D01*
X122469524Y-71260476D01*
X122374286Y-71308095D01*
X123374286Y-72022381D02*
X123374286Y-71022381D01*
X123945715Y-72022381D02*
X123517143Y-71450952D01*
X123945715Y-71022381D02*
X123374286Y-71593810D01*
D12*
X123076667Y-70046190D02*
X122910000Y-69808095D01*
X122790953Y-70046190D02*
X122790953Y-69546190D01*
X122981429Y-69546190D01*
X123029048Y-69570000D01*
X123052857Y-69593810D01*
X123076667Y-69641429D01*
X123076667Y-69712857D01*
X123052857Y-69760476D01*
X123029048Y-69784286D01*
X122981429Y-69808095D01*
X122790953Y-69808095D01*
X123243334Y-69546190D02*
X123552857Y-69546190D01*
X123386191Y-69736667D01*
X123457619Y-69736667D01*
X123505238Y-69760476D01*
X123529048Y-69784286D01*
X123552857Y-69831905D01*
X123552857Y-69950952D01*
X123529048Y-69998571D01*
X123505238Y-70022381D01*
X123457619Y-70046190D01*
X123314762Y-70046190D01*
X123267143Y-70022381D01*
X123243334Y-69998571D01*
D11*
X128265715Y-73582381D02*
X127694286Y-73582381D01*
X127980000Y-73582381D02*
X127980000Y-72582381D01*
X127884762Y-72725238D01*
X127789524Y-72820476D01*
X127694286Y-72868095D01*
X128694286Y-73582381D02*
X128694286Y-72582381D01*
X129265715Y-73582381D02*
X128837143Y-73010952D01*
X129265715Y-72582381D02*
X128694286Y-73153810D01*
D12*
X128396667Y-74146190D02*
X128230000Y-73908095D01*
X128110953Y-74146190D02*
X128110953Y-73646190D01*
X128301429Y-73646190D01*
X128349048Y-73670000D01*
X128372857Y-73693810D01*
X128396667Y-73741429D01*
X128396667Y-73812857D01*
X128372857Y-73860476D01*
X128349048Y-73884286D01*
X128301429Y-73908095D01*
X128110953Y-73908095D01*
X128825238Y-73812857D02*
X128825238Y-74146190D01*
X128706191Y-73622381D02*
X128587143Y-73979524D01*
X128896667Y-73979524D01*
D11*
X186060000Y-73312381D02*
X186155239Y-73312381D01*
X186250477Y-73360000D01*
X186298096Y-73407619D01*
X186345715Y-73502857D01*
X186393334Y-73693333D01*
X186393334Y-73931429D01*
X186345715Y-74121905D01*
X186298096Y-74217143D01*
X186250477Y-74264762D01*
X186155239Y-74312381D01*
X186060000Y-74312381D01*
X185964762Y-74264762D01*
X185917143Y-74217143D01*
X185869524Y-74121905D01*
X185821905Y-73931429D01*
X185821905Y-73693333D01*
X185869524Y-73502857D01*
X185917143Y-73407619D01*
X185964762Y-73360000D01*
X186060000Y-73312381D01*
X186821905Y-73788571D02*
X187155239Y-73788571D01*
X187298096Y-74312381D02*
X186821905Y-74312381D01*
X186821905Y-73312381D01*
X187298096Y-73312381D01*
D12*
X183246667Y-74196190D02*
X183080000Y-73958095D01*
X182960953Y-74196190D02*
X182960953Y-73696190D01*
X183151429Y-73696190D01*
X183199048Y-73720000D01*
X183222857Y-73743810D01*
X183246667Y-73791429D01*
X183246667Y-73862857D01*
X183222857Y-73910476D01*
X183199048Y-73934286D01*
X183151429Y-73958095D01*
X182960953Y-73958095D01*
X183699048Y-73696190D02*
X183460953Y-73696190D01*
X183437143Y-73934286D01*
X183460953Y-73910476D01*
X183508572Y-73886667D01*
X183627619Y-73886667D01*
X183675238Y-73910476D01*
X183699048Y-73934286D01*
X183722857Y-73981905D01*
X183722857Y-74100952D01*
X183699048Y-74148571D01*
X183675238Y-74172381D01*
X183627619Y-74196190D01*
X183508572Y-74196190D01*
X183460953Y-74172381D01*
X183437143Y-74148571D01*
D11*
X175712381Y-103956667D02*
X175712381Y-103385238D01*
X176712381Y-103670953D02*
X175712381Y-103670953D01*
X175712381Y-103147143D02*
X176712381Y-102480476D01*
X175712381Y-102480476D02*
X176712381Y-103147143D01*
X176188571Y-101766190D02*
X176236190Y-101623333D01*
X176283810Y-101575714D01*
X176379048Y-101528095D01*
X176521905Y-101528095D01*
X176617143Y-101575714D01*
X176664762Y-101623333D01*
X176712381Y-101718571D01*
X176712381Y-102099524D01*
X175712381Y-102099524D01*
X175712381Y-101766190D01*
X175760000Y-101670952D01*
X175807619Y-101623333D01*
X175902857Y-101575714D01*
X175998095Y-101575714D01*
X176093333Y-101623333D01*
X176140952Y-101670952D01*
X176188571Y-101766190D01*
X176188571Y-102099524D01*
X175712381Y-100909048D02*
X175712381Y-100813809D01*
X175760000Y-100718571D01*
X175807619Y-100670952D01*
X175902857Y-100623333D01*
X176093333Y-100575714D01*
X176331429Y-100575714D01*
X176521905Y-100623333D01*
X176617143Y-100670952D01*
X176664762Y-100718571D01*
X176712381Y-100813809D01*
X176712381Y-100909048D01*
X176664762Y-101004286D01*
X176617143Y-101051905D01*
X176521905Y-101099524D01*
X176331429Y-101147143D01*
X176093333Y-101147143D01*
X175902857Y-101099524D01*
X175807619Y-101051905D01*
X175760000Y-101004286D01*
X175712381Y-100909048D01*
X176712381Y-99623333D02*
X176712381Y-100194762D01*
X176712381Y-99909048D02*
X175712381Y-99909048D01*
X175855238Y-100004286D01*
X175950476Y-100099524D01*
X175998095Y-100194762D01*
X175712381Y-99004286D02*
X175712381Y-98909047D01*
X175760000Y-98813809D01*
X175807619Y-98766190D01*
X175902857Y-98718571D01*
X176093333Y-98670952D01*
X176331429Y-98670952D01*
X176521905Y-98718571D01*
X176617143Y-98766190D01*
X176664762Y-98813809D01*
X176712381Y-98909047D01*
X176712381Y-99004286D01*
X176664762Y-99099524D01*
X176617143Y-99147143D01*
X176521905Y-99194762D01*
X176331429Y-99242381D01*
X176093333Y-99242381D01*
X175902857Y-99194762D01*
X175807619Y-99147143D01*
X175760000Y-99099524D01*
X175712381Y-99004286D01*
X176140952Y-98099524D02*
X176093333Y-98194762D01*
X176045714Y-98242381D01*
X175950476Y-98290000D01*
X175902857Y-98290000D01*
X175807619Y-98242381D01*
X175760000Y-98194762D01*
X175712381Y-98099524D01*
X175712381Y-97909047D01*
X175760000Y-97813809D01*
X175807619Y-97766190D01*
X175902857Y-97718571D01*
X175950476Y-97718571D01*
X176045714Y-97766190D01*
X176093333Y-97813809D01*
X176140952Y-97909047D01*
X176140952Y-98099524D01*
X176188571Y-98194762D01*
X176236190Y-98242381D01*
X176331429Y-98290000D01*
X176521905Y-98290000D01*
X176617143Y-98242381D01*
X176664762Y-98194762D01*
X176712381Y-98099524D01*
X176712381Y-97909047D01*
X176664762Y-97813809D01*
X176617143Y-97766190D01*
X176521905Y-97718571D01*
X176331429Y-97718571D01*
X176236190Y-97766190D01*
X176188571Y-97813809D01*
X176140952Y-97909047D01*
X171521905Y-101399524D02*
X172169524Y-101399524D01*
X172245714Y-101361429D01*
X172283810Y-101323333D01*
X172321905Y-101247143D01*
X172321905Y-101094762D01*
X172283810Y-101018571D01*
X172245714Y-100980476D01*
X172169524Y-100942381D01*
X171521905Y-100942381D01*
X171598095Y-100599524D02*
X171560000Y-100561429D01*
X171521905Y-100485238D01*
X171521905Y-100294762D01*
X171560000Y-100218572D01*
X171598095Y-100180476D01*
X171674286Y-100142381D01*
X171750476Y-100142381D01*
X171864762Y-100180476D01*
X172321905Y-100637619D01*
X172321905Y-100142381D01*
X145952381Y-99415238D02*
X146952381Y-98748571D01*
X145952381Y-98748571D02*
X146952381Y-99415238D01*
X146428571Y-98034285D02*
X146476190Y-97891428D01*
X146523810Y-97843809D01*
X146619048Y-97796190D01*
X146761905Y-97796190D01*
X146857143Y-97843809D01*
X146904762Y-97891428D01*
X146952381Y-97986666D01*
X146952381Y-98367619D01*
X145952381Y-98367619D01*
X145952381Y-98034285D01*
X146000000Y-97939047D01*
X146047619Y-97891428D01*
X146142857Y-97843809D01*
X146238095Y-97843809D01*
X146333333Y-97891428D01*
X146380952Y-97939047D01*
X146428571Y-98034285D01*
X146428571Y-98367619D01*
X146428571Y-97367619D02*
X146428571Y-97034285D01*
X146952381Y-96891428D02*
X146952381Y-97367619D01*
X145952381Y-97367619D01*
X145952381Y-96891428D01*
X146428571Y-96462857D02*
X146428571Y-96129523D01*
X146952381Y-95986666D02*
X146952381Y-96462857D01*
X145952381Y-96462857D01*
X145952381Y-95986666D01*
X147047619Y-95796190D02*
X147047619Y-95034285D01*
X146952381Y-94796190D02*
X145952381Y-94796190D01*
X146666667Y-94462856D01*
X145952381Y-94129523D01*
X146952381Y-94129523D01*
X145952381Y-93462857D02*
X145952381Y-93272380D01*
X146000000Y-93177142D01*
X146095238Y-93081904D01*
X146285714Y-93034285D01*
X146619048Y-93034285D01*
X146809524Y-93081904D01*
X146904762Y-93177142D01*
X146952381Y-93272380D01*
X146952381Y-93462857D01*
X146904762Y-93558095D01*
X146809524Y-93653333D01*
X146619048Y-93700952D01*
X146285714Y-93700952D01*
X146095238Y-93653333D01*
X146000000Y-93558095D01*
X145952381Y-93462857D01*
X146952381Y-92605714D02*
X145952381Y-92605714D01*
X145952381Y-92367619D01*
X146000000Y-92224761D01*
X146095238Y-92129523D01*
X146190476Y-92081904D01*
X146380952Y-92034285D01*
X146523810Y-92034285D01*
X146714286Y-92081904D01*
X146809524Y-92129523D01*
X146904762Y-92224761D01*
X146952381Y-92367619D01*
X146952381Y-92605714D01*
X145952381Y-91605714D02*
X146761905Y-91605714D01*
X146857143Y-91558095D01*
X146904762Y-91510476D01*
X146952381Y-91415238D01*
X146952381Y-91224761D01*
X146904762Y-91129523D01*
X146857143Y-91081904D01*
X146761905Y-91034285D01*
X145952381Y-91034285D01*
X146952381Y-90081904D02*
X146952381Y-90558095D01*
X145952381Y-90558095D01*
X146428571Y-89748571D02*
X146428571Y-89415237D01*
X146952381Y-89272380D02*
X146952381Y-89748571D01*
X145952381Y-89748571D01*
X145952381Y-89272380D01*
X175742381Y-89026667D02*
X175742381Y-88455238D01*
X176742381Y-88740953D02*
X175742381Y-88740953D01*
X175742381Y-88217143D02*
X176742381Y-87550476D01*
X175742381Y-87550476D02*
X176742381Y-88217143D01*
X176218571Y-86836190D02*
X176266190Y-86693333D01*
X176313810Y-86645714D01*
X176409048Y-86598095D01*
X176551905Y-86598095D01*
X176647143Y-86645714D01*
X176694762Y-86693333D01*
X176742381Y-86788571D01*
X176742381Y-87169524D01*
X175742381Y-87169524D01*
X175742381Y-86836190D01*
X175790000Y-86740952D01*
X175837619Y-86693333D01*
X175932857Y-86645714D01*
X176028095Y-86645714D01*
X176123333Y-86693333D01*
X176170952Y-86740952D01*
X176218571Y-86836190D01*
X176218571Y-87169524D01*
X175742381Y-85979048D02*
X175742381Y-85883809D01*
X175790000Y-85788571D01*
X175837619Y-85740952D01*
X175932857Y-85693333D01*
X176123333Y-85645714D01*
X176361429Y-85645714D01*
X176551905Y-85693333D01*
X176647143Y-85740952D01*
X176694762Y-85788571D01*
X176742381Y-85883809D01*
X176742381Y-85979048D01*
X176694762Y-86074286D01*
X176647143Y-86121905D01*
X176551905Y-86169524D01*
X176361429Y-86217143D01*
X176123333Y-86217143D01*
X175932857Y-86169524D01*
X175837619Y-86121905D01*
X175790000Y-86074286D01*
X175742381Y-85979048D01*
X176742381Y-84693333D02*
X176742381Y-85264762D01*
X176742381Y-84979048D02*
X175742381Y-84979048D01*
X175885238Y-85074286D01*
X175980476Y-85169524D01*
X176028095Y-85264762D01*
X175742381Y-84074286D02*
X175742381Y-83979047D01*
X175790000Y-83883809D01*
X175837619Y-83836190D01*
X175932857Y-83788571D01*
X176123333Y-83740952D01*
X176361429Y-83740952D01*
X176551905Y-83788571D01*
X176647143Y-83836190D01*
X176694762Y-83883809D01*
X176742381Y-83979047D01*
X176742381Y-84074286D01*
X176694762Y-84169524D01*
X176647143Y-84217143D01*
X176551905Y-84264762D01*
X176361429Y-84312381D01*
X176123333Y-84312381D01*
X175932857Y-84264762D01*
X175837619Y-84217143D01*
X175790000Y-84169524D01*
X175742381Y-84074286D01*
X176170952Y-83169524D02*
X176123333Y-83264762D01*
X176075714Y-83312381D01*
X175980476Y-83360000D01*
X175932857Y-83360000D01*
X175837619Y-83312381D01*
X175790000Y-83264762D01*
X175742381Y-83169524D01*
X175742381Y-82979047D01*
X175790000Y-82883809D01*
X175837619Y-82836190D01*
X175932857Y-82788571D01*
X175980476Y-82788571D01*
X176075714Y-82836190D01*
X176123333Y-82883809D01*
X176170952Y-82979047D01*
X176170952Y-83169524D01*
X176218571Y-83264762D01*
X176266190Y-83312381D01*
X176361429Y-83360000D01*
X176551905Y-83360000D01*
X176647143Y-83312381D01*
X176694762Y-83264762D01*
X176742381Y-83169524D01*
X176742381Y-82979047D01*
X176694762Y-82883809D01*
X176647143Y-82836190D01*
X176551905Y-82788571D01*
X176361429Y-82788571D01*
X176266190Y-82836190D01*
X176218571Y-82883809D01*
X176170952Y-82979047D01*
X171931905Y-86099524D02*
X172579524Y-86099524D01*
X172655714Y-86061429D01*
X172693810Y-86023333D01*
X172731905Y-85947143D01*
X172731905Y-85794762D01*
X172693810Y-85718571D01*
X172655714Y-85680476D01*
X172579524Y-85642381D01*
X171931905Y-85642381D01*
X171931905Y-84880476D02*
X171931905Y-85261429D01*
X172312857Y-85299524D01*
X172274762Y-85261429D01*
X172236667Y-85185238D01*
X172236667Y-84994762D01*
X172274762Y-84918572D01*
X172312857Y-84880476D01*
X172389048Y-84842381D01*
X172579524Y-84842381D01*
X172655714Y-84880476D01*
X172693810Y-84918572D01*
X172731905Y-84994762D01*
X172731905Y-85185238D01*
X172693810Y-85261429D01*
X172655714Y-85299524D01*
X118163810Y-75332381D02*
X117687619Y-75332381D01*
X117687619Y-74332381D01*
X118497143Y-75332381D02*
X118497143Y-74332381D01*
X118830477Y-75046667D01*
X119163810Y-74332381D01*
X119163810Y-75332381D01*
X120163810Y-75332381D02*
X119592381Y-75332381D01*
X119878095Y-75332381D02*
X119878095Y-74332381D01*
X119782857Y-74475238D01*
X119687619Y-74570476D01*
X119592381Y-74618095D01*
X121116191Y-75332381D02*
X120544762Y-75332381D01*
X120830476Y-75332381D02*
X120830476Y-74332381D01*
X120735238Y-74475238D01*
X120640000Y-74570476D01*
X120544762Y-74618095D01*
X122068572Y-75332381D02*
X121497143Y-75332381D01*
X121782857Y-75332381D02*
X121782857Y-74332381D01*
X121687619Y-74475238D01*
X121592381Y-74570476D01*
X121497143Y-74618095D01*
X122401905Y-74332381D02*
X123068572Y-74332381D01*
X122640000Y-75332381D01*
X123449524Y-74951429D02*
X124211429Y-74951429D01*
X124592381Y-74332381D02*
X125211429Y-74332381D01*
X124878095Y-74713333D01*
X125020953Y-74713333D01*
X125116191Y-74760952D01*
X125163810Y-74808571D01*
X125211429Y-74903810D01*
X125211429Y-75141905D01*
X125163810Y-75237143D01*
X125116191Y-75284762D01*
X125020953Y-75332381D01*
X124735238Y-75332381D01*
X124640000Y-75284762D01*
X124592381Y-75237143D01*
X125640000Y-75237143D02*
X125687619Y-75284762D01*
X125640000Y-75332381D01*
X125592381Y-75284762D01*
X125640000Y-75237143D01*
X125640000Y-75332381D01*
X126020952Y-74332381D02*
X126640000Y-74332381D01*
X126306666Y-74713333D01*
X126449524Y-74713333D01*
X126544762Y-74760952D01*
X126592381Y-74808571D01*
X126640000Y-74903810D01*
X126640000Y-75141905D01*
X126592381Y-75237143D01*
X126544762Y-75284762D01*
X126449524Y-75332381D01*
X126163809Y-75332381D01*
X126068571Y-75284762D01*
X126020952Y-75237143D01*
D13*
X121091905Y-76739524D02*
X121739524Y-76739524D01*
X121815714Y-76701429D01*
X121853810Y-76663333D01*
X121891905Y-76587143D01*
X121891905Y-76434762D01*
X121853810Y-76358571D01*
X121815714Y-76320476D01*
X121739524Y-76282381D01*
X121091905Y-76282381D01*
X121091905Y-75558572D02*
X121091905Y-75710953D01*
X121130000Y-75787143D01*
X121168095Y-75825238D01*
X121282381Y-75901429D01*
X121434762Y-75939524D01*
X121739524Y-75939524D01*
X121815714Y-75901429D01*
X121853810Y-75863334D01*
X121891905Y-75787143D01*
X121891905Y-75634762D01*
X121853810Y-75558572D01*
X121815714Y-75520476D01*
X121739524Y-75482381D01*
X121549048Y-75482381D01*
X121472857Y-75520476D01*
X121434762Y-75558572D01*
X121396667Y-75634762D01*
X121396667Y-75787143D01*
X121434762Y-75863334D01*
X121472857Y-75901429D01*
X121549048Y-75939524D01*
D11*
X125303810Y-79402381D02*
X124827619Y-79402381D01*
X124827619Y-78402381D01*
X125637143Y-79402381D02*
X125637143Y-78402381D01*
X125970477Y-79116667D01*
X126303810Y-78402381D01*
X126303810Y-79402381D01*
X127303810Y-79402381D02*
X126732381Y-79402381D01*
X127018095Y-79402381D02*
X127018095Y-78402381D01*
X126922857Y-78545238D01*
X126827619Y-78640476D01*
X126732381Y-78688095D01*
X128256191Y-79402381D02*
X127684762Y-79402381D01*
X127970476Y-79402381D02*
X127970476Y-78402381D01*
X127875238Y-78545238D01*
X127780000Y-78640476D01*
X127684762Y-78688095D01*
X129208572Y-79402381D02*
X128637143Y-79402381D01*
X128922857Y-79402381D02*
X128922857Y-78402381D01*
X128827619Y-78545238D01*
X128732381Y-78640476D01*
X128637143Y-78688095D01*
X129541905Y-78402381D02*
X130208572Y-78402381D01*
X129780000Y-79402381D01*
X130589524Y-79021429D02*
X131351429Y-79021429D01*
X132303810Y-78402381D02*
X131827619Y-78402381D01*
X131780000Y-78878571D01*
X131827619Y-78830952D01*
X131922857Y-78783333D01*
X132160953Y-78783333D01*
X132256191Y-78830952D01*
X132303810Y-78878571D01*
X132351429Y-78973810D01*
X132351429Y-79211905D01*
X132303810Y-79307143D01*
X132256191Y-79354762D01*
X132160953Y-79402381D01*
X131922857Y-79402381D01*
X131827619Y-79354762D01*
X131780000Y-79307143D01*
X132780000Y-79307143D02*
X132827619Y-79354762D01*
X132780000Y-79402381D01*
X132732381Y-79354762D01*
X132780000Y-79307143D01*
X132780000Y-79402381D01*
X133446666Y-78402381D02*
X133541905Y-78402381D01*
X133637143Y-78450000D01*
X133684762Y-78497619D01*
X133732381Y-78592857D01*
X133780000Y-78783333D01*
X133780000Y-79021429D01*
X133732381Y-79211905D01*
X133684762Y-79307143D01*
X133637143Y-79354762D01*
X133541905Y-79402381D01*
X133446666Y-79402381D01*
X133351428Y-79354762D01*
X133303809Y-79307143D01*
X133256190Y-79211905D01*
X133208571Y-79021429D01*
X133208571Y-78783333D01*
X133256190Y-78592857D01*
X133303809Y-78497619D01*
X133351428Y-78450000D01*
X133446666Y-78402381D01*
D13*
X129191905Y-80279524D02*
X129839524Y-80279524D01*
X129915714Y-80241429D01*
X129953810Y-80203333D01*
X129991905Y-80127143D01*
X129991905Y-79974762D01*
X129953810Y-79898571D01*
X129915714Y-79860476D01*
X129839524Y-79822381D01*
X129191905Y-79822381D01*
X129191905Y-79517619D02*
X129191905Y-78984286D01*
X129991905Y-79327143D01*
D11*
X37123809Y-69328571D02*
X36790475Y-69328571D01*
X36790475Y-69852381D02*
X36790475Y-68852381D01*
X37266666Y-68852381D01*
X38076190Y-69852381D02*
X38076190Y-69328571D01*
X38028571Y-69233333D01*
X37933333Y-69185714D01*
X37742856Y-69185714D01*
X37647618Y-69233333D01*
X38076190Y-69804762D02*
X37980952Y-69852381D01*
X37742856Y-69852381D01*
X37647618Y-69804762D01*
X37599999Y-69709524D01*
X37599999Y-69614286D01*
X37647618Y-69519048D01*
X37742856Y-69471429D01*
X37980952Y-69471429D01*
X38076190Y-69423810D01*
X38552380Y-69852381D02*
X38552380Y-68852381D01*
X38552380Y-69233333D02*
X38647618Y-69185714D01*
X38838095Y-69185714D01*
X38933333Y-69233333D01*
X38980952Y-69280952D01*
X39028571Y-69376190D01*
X39028571Y-69661905D01*
X38980952Y-69757143D01*
X38933333Y-69804762D01*
X38838095Y-69852381D01*
X38647618Y-69852381D01*
X38552380Y-69804762D01*
X40219047Y-69852381D02*
X40219047Y-68852381D01*
X40457142Y-68852381D01*
X40600000Y-68900000D01*
X40695238Y-68995238D01*
X40742857Y-69090476D01*
X40790476Y-69280952D01*
X40790476Y-69423810D01*
X40742857Y-69614286D01*
X40695238Y-69709524D01*
X40600000Y-69804762D01*
X40457142Y-69852381D01*
X40219047Y-69852381D01*
X41600000Y-69804762D02*
X41504762Y-69852381D01*
X41314285Y-69852381D01*
X41219047Y-69804762D01*
X41171428Y-69709524D01*
X41171428Y-69328571D01*
X41219047Y-69233333D01*
X41314285Y-69185714D01*
X41504762Y-69185714D01*
X41600000Y-69233333D01*
X41647619Y-69328571D01*
X41647619Y-69423810D01*
X41171428Y-69519048D01*
X41933333Y-69185714D02*
X42314285Y-69185714D01*
X42076190Y-68852381D02*
X42076190Y-69709524D01*
X42123809Y-69804762D01*
X42219047Y-69852381D01*
X42314285Y-69852381D01*
X43076191Y-69852381D02*
X43076191Y-69328571D01*
X43028572Y-69233333D01*
X42933334Y-69185714D01*
X42742857Y-69185714D01*
X42647619Y-69233333D01*
X43076191Y-69804762D02*
X42980953Y-69852381D01*
X42742857Y-69852381D01*
X42647619Y-69804762D01*
X42600000Y-69709524D01*
X42600000Y-69614286D01*
X42647619Y-69519048D01*
X42742857Y-69471429D01*
X42980953Y-69471429D01*
X43076191Y-69423810D01*
X43552381Y-69852381D02*
X43552381Y-69185714D01*
X43552381Y-68852381D02*
X43504762Y-68900000D01*
X43552381Y-68947619D01*
X43600000Y-68900000D01*
X43552381Y-68852381D01*
X43552381Y-68947619D01*
X44171428Y-69852381D02*
X44076190Y-69804762D01*
X44028571Y-69709524D01*
X44028571Y-68852381D01*
X44504762Y-69804762D02*
X44600000Y-69852381D01*
X44790476Y-69852381D01*
X44885715Y-69804762D01*
X44933334Y-69709524D01*
X44933334Y-69661905D01*
X44885715Y-69566667D01*
X44790476Y-69519048D01*
X44647619Y-69519048D01*
X44552381Y-69471429D01*
X44504762Y-69376190D01*
X44504762Y-69328571D01*
X44552381Y-69233333D01*
X44647619Y-69185714D01*
X44790476Y-69185714D01*
X44885715Y-69233333D01*
X45980953Y-69185714D02*
X46361905Y-69185714D01*
X46123810Y-68852381D02*
X46123810Y-69709524D01*
X46171429Y-69804762D01*
X46266667Y-69852381D01*
X46361905Y-69852381D01*
X47123811Y-69852381D02*
X47123811Y-69328571D01*
X47076192Y-69233333D01*
X46980954Y-69185714D01*
X46790477Y-69185714D01*
X46695239Y-69233333D01*
X47123811Y-69804762D02*
X47028573Y-69852381D01*
X46790477Y-69852381D01*
X46695239Y-69804762D01*
X46647620Y-69709524D01*
X46647620Y-69614286D01*
X46695239Y-69519048D01*
X46790477Y-69471429D01*
X47028573Y-69471429D01*
X47123811Y-69423810D01*
X47600001Y-69852381D02*
X47600001Y-68852381D01*
X47600001Y-69233333D02*
X47695239Y-69185714D01*
X47885716Y-69185714D01*
X47980954Y-69233333D01*
X48028573Y-69280952D01*
X48076192Y-69376190D01*
X48076192Y-69661905D01*
X48028573Y-69757143D01*
X47980954Y-69804762D01*
X47885716Y-69852381D01*
X47695239Y-69852381D01*
X47600001Y-69804762D01*
X48647620Y-69852381D02*
X48552382Y-69804762D01*
X48504763Y-69709524D01*
X48504763Y-68852381D01*
X49409526Y-69804762D02*
X49314288Y-69852381D01*
X49123811Y-69852381D01*
X49028573Y-69804762D01*
X48980954Y-69709524D01*
X48980954Y-69328571D01*
X49028573Y-69233333D01*
X49123811Y-69185714D01*
X49314288Y-69185714D01*
X49409526Y-69233333D01*
X49457145Y-69328571D01*
X49457145Y-69423810D01*
X48980954Y-69519048D01*
M02*
