G04 #@! TF.FileFunction,Legend,Bot*
%FSLAX46Y46*%
G04 Gerber Fmt 4.6, Leading zero omitted, Abs format (unit mm)*
G04 Created by KiCad (PCBNEW 4.0.4-stable) date 04/28/17 11:07:38*
%MOMM*%
%LPD*%
G01*
G04 APERTURE LIST*
%ADD10C,0.100000*%
%ADD11C,0.200000*%
%ADD12C,0.250000*%
%ADD13C,0.120000*%
%ADD14C,0.150000*%
G04 APERTURE END LIST*
D10*
D11*
X127216228Y-94900000D02*
G75*
G03X127216228Y-94900000I-316228J0D01*
G01*
D12*
X123148095Y-117182381D02*
X122529047Y-117182381D01*
X122862381Y-117563333D01*
X122719523Y-117563333D01*
X122624285Y-117610952D01*
X122576666Y-117658571D01*
X122529047Y-117753810D01*
X122529047Y-117991905D01*
X122576666Y-118087143D01*
X122624285Y-118134762D01*
X122719523Y-118182381D01*
X123005238Y-118182381D01*
X123100476Y-118134762D01*
X123148095Y-118087143D01*
X122243333Y-117182381D02*
X121910000Y-118182381D01*
X121576666Y-117182381D01*
X121338571Y-117182381D02*
X120719523Y-117182381D01*
X121052857Y-117563333D01*
X120909999Y-117563333D01*
X120814761Y-117610952D01*
X120767142Y-117658571D01*
X120719523Y-117753810D01*
X120719523Y-117991905D01*
X120767142Y-118087143D01*
X120814761Y-118134762D01*
X120909999Y-118182381D01*
X121195714Y-118182381D01*
X121290952Y-118134762D01*
X121338571Y-118087143D01*
X119000476Y-115912381D02*
X119476667Y-115912381D01*
X119524286Y-116388571D01*
X119476667Y-116340952D01*
X119381429Y-116293333D01*
X119143333Y-116293333D01*
X119048095Y-116340952D01*
X119000476Y-116388571D01*
X118952857Y-116483810D01*
X118952857Y-116721905D01*
X119000476Y-116817143D01*
X119048095Y-116864762D01*
X119143333Y-116912381D01*
X119381429Y-116912381D01*
X119476667Y-116864762D01*
X119524286Y-116817143D01*
X118667143Y-115912381D02*
X118333810Y-116912381D01*
X118000476Y-115912381D01*
X117880000Y-113131904D02*
X117927619Y-113227142D01*
X117927619Y-113369999D01*
X117880000Y-113512857D01*
X117784762Y-113608095D01*
X117689524Y-113655714D01*
X117499048Y-113703333D01*
X117356190Y-113703333D01*
X117165714Y-113655714D01*
X117070476Y-113608095D01*
X116975238Y-113512857D01*
X116927619Y-113369999D01*
X116927619Y-113274761D01*
X116975238Y-113131904D01*
X117022857Y-113084285D01*
X117356190Y-113084285D01*
X117356190Y-113274761D01*
X116927619Y-112655714D02*
X117927619Y-112655714D01*
X116927619Y-112084285D01*
X117927619Y-112084285D01*
X116927619Y-111608095D02*
X117927619Y-111608095D01*
X117927619Y-111370000D01*
X117880000Y-111227142D01*
X117784762Y-111131904D01*
X117689524Y-111084285D01*
X117499048Y-111036666D01*
X117356190Y-111036666D01*
X117165714Y-111084285D01*
X117070476Y-111131904D01*
X116975238Y-111227142D01*
X116927619Y-111370000D01*
X116927619Y-111608095D01*
X122597619Y-113705238D02*
X123073810Y-114038572D01*
X122597619Y-114276667D02*
X123597619Y-114276667D01*
X123597619Y-113895714D01*
X123550000Y-113800476D01*
X123502381Y-113752857D01*
X123407143Y-113705238D01*
X123264286Y-113705238D01*
X123169048Y-113752857D01*
X123121429Y-113800476D01*
X123073810Y-113895714D01*
X123073810Y-114276667D01*
X122597619Y-113371905D02*
X123264286Y-112848095D01*
X123264286Y-113371905D02*
X122597619Y-112848095D01*
X117977619Y-107940476D02*
X117977619Y-107369047D01*
X116977619Y-107654762D02*
X117977619Y-107654762D01*
X116977619Y-107130952D02*
X117644286Y-106607142D01*
X117644286Y-107130952D02*
X116977619Y-106607142D01*
D13*
X165930000Y-94980000D02*
X166930000Y-94980000D01*
X166930000Y-96680000D02*
X165930000Y-96680000D01*
D14*
X127610000Y-97295000D02*
X127635000Y-97295000D01*
X127610000Y-101445000D02*
X127715000Y-101445000D01*
X137760000Y-101445000D02*
X137655000Y-101445000D01*
X137760000Y-97295000D02*
X137655000Y-97295000D01*
X127610000Y-97295000D02*
X127610000Y-101445000D01*
X137760000Y-97295000D02*
X137760000Y-101445000D01*
X127635000Y-97295000D02*
X127635000Y-95920000D01*
D13*
X134050000Y-93490000D02*
X135050000Y-93490000D01*
X135050000Y-95190000D02*
X134050000Y-95190000D01*
X126620000Y-102200000D02*
X126620000Y-103200000D01*
X124920000Y-103200000D02*
X124920000Y-102200000D01*
X129530000Y-104950000D02*
X128530000Y-104950000D01*
X128530000Y-103250000D02*
X129530000Y-103250000D01*
X171320000Y-80340000D02*
X170320000Y-80340000D01*
X170320000Y-78640000D02*
X171320000Y-78640000D01*
X124920000Y-98450000D02*
X124920000Y-97450000D01*
X126620000Y-97450000D02*
X126620000Y-98450000D01*
X130280000Y-95170000D02*
X129280000Y-95170000D01*
X129280000Y-93470000D02*
X130280000Y-93470000D01*
D14*
X166666666Y-98157143D02*
X166714285Y-98204762D01*
X166857142Y-98252381D01*
X166952380Y-98252381D01*
X167095238Y-98204762D01*
X167190476Y-98109524D01*
X167238095Y-98014286D01*
X167285714Y-97823810D01*
X167285714Y-97680952D01*
X167238095Y-97490476D01*
X167190476Y-97395238D01*
X167095238Y-97300000D01*
X166952380Y-97252381D01*
X166857142Y-97252381D01*
X166714285Y-97300000D01*
X166666666Y-97347619D01*
X165714285Y-98252381D02*
X166285714Y-98252381D01*
X166000000Y-98252381D02*
X166000000Y-97252381D01*
X166095238Y-97395238D01*
X166190476Y-97490476D01*
X166285714Y-97538095D01*
X138352381Y-98538095D02*
X139161905Y-98538095D01*
X139257143Y-98585714D01*
X139304762Y-98633333D01*
X139352381Y-98728571D01*
X139352381Y-98919048D01*
X139304762Y-99014286D01*
X139257143Y-99061905D01*
X139161905Y-99109524D01*
X138352381Y-99109524D01*
X138352381Y-99490476D02*
X138352381Y-100109524D01*
X138733333Y-99776190D01*
X138733333Y-99919048D01*
X138780952Y-100014286D01*
X138828571Y-100061905D01*
X138923810Y-100109524D01*
X139161905Y-100109524D01*
X139257143Y-100061905D01*
X139304762Y-100014286D01*
X139352381Y-99919048D01*
X139352381Y-99633333D01*
X139304762Y-99538095D01*
X139257143Y-99490476D01*
X135192857Y-92947143D02*
X135240476Y-92994762D01*
X135383333Y-93042381D01*
X135478571Y-93042381D01*
X135621429Y-92994762D01*
X135716667Y-92899524D01*
X135764286Y-92804286D01*
X135811905Y-92613810D01*
X135811905Y-92470952D01*
X135764286Y-92280476D01*
X135716667Y-92185238D01*
X135621429Y-92090000D01*
X135478571Y-92042381D01*
X135383333Y-92042381D01*
X135240476Y-92090000D01*
X135192857Y-92137619D01*
X134240476Y-93042381D02*
X134811905Y-93042381D01*
X134526191Y-93042381D02*
X134526191Y-92042381D01*
X134621429Y-92185238D01*
X134716667Y-92280476D01*
X134811905Y-92328095D01*
X133621429Y-92042381D02*
X133526190Y-92042381D01*
X133430952Y-92090000D01*
X133383333Y-92137619D01*
X133335714Y-92232857D01*
X133288095Y-92423333D01*
X133288095Y-92661429D01*
X133335714Y-92851905D01*
X133383333Y-92947143D01*
X133430952Y-92994762D01*
X133526190Y-93042381D01*
X133621429Y-93042381D01*
X133716667Y-92994762D01*
X133764286Y-92947143D01*
X133811905Y-92851905D01*
X133859524Y-92661429D01*
X133859524Y-92423333D01*
X133811905Y-92232857D01*
X133764286Y-92137619D01*
X133716667Y-92090000D01*
X133621429Y-92042381D01*
D12*
X124257143Y-102533334D02*
X124304762Y-102485715D01*
X124352381Y-102342858D01*
X124352381Y-102247620D01*
X124304762Y-102104762D01*
X124209524Y-102009524D01*
X124114286Y-101961905D01*
X123923810Y-101914286D01*
X123780952Y-101914286D01*
X123590476Y-101961905D01*
X123495238Y-102009524D01*
X123400000Y-102104762D01*
X123352381Y-102247620D01*
X123352381Y-102342858D01*
X123400000Y-102485715D01*
X123447619Y-102533334D01*
X124352381Y-103009524D02*
X124352381Y-103200000D01*
X124304762Y-103295239D01*
X124257143Y-103342858D01*
X124114286Y-103438096D01*
X123923810Y-103485715D01*
X123542857Y-103485715D01*
X123447619Y-103438096D01*
X123400000Y-103390477D01*
X123352381Y-103295239D01*
X123352381Y-103104762D01*
X123400000Y-103009524D01*
X123447619Y-102961905D01*
X123542857Y-102914286D01*
X123780952Y-102914286D01*
X123876190Y-102961905D01*
X123923810Y-103009524D01*
X123971429Y-103104762D01*
X123971429Y-103295239D01*
X123923810Y-103390477D01*
X123876190Y-103438096D01*
X123780952Y-103485715D01*
D14*
X129156666Y-106227143D02*
X129204285Y-106274762D01*
X129347142Y-106322381D01*
X129442380Y-106322381D01*
X129585238Y-106274762D01*
X129680476Y-106179524D01*
X129728095Y-106084286D01*
X129775714Y-105893810D01*
X129775714Y-105750952D01*
X129728095Y-105560476D01*
X129680476Y-105465238D01*
X129585238Y-105370000D01*
X129442380Y-105322381D01*
X129347142Y-105322381D01*
X129204285Y-105370000D01*
X129156666Y-105417619D01*
X128823333Y-105322381D02*
X128204285Y-105322381D01*
X128537619Y-105703333D01*
X128394761Y-105703333D01*
X128299523Y-105750952D01*
X128251904Y-105798571D01*
X128204285Y-105893810D01*
X128204285Y-106131905D01*
X128251904Y-106227143D01*
X128299523Y-106274762D01*
X128394761Y-106322381D01*
X128680476Y-106322381D01*
X128775714Y-106274762D01*
X128823333Y-106227143D01*
X171336666Y-78127143D02*
X171384285Y-78174762D01*
X171527142Y-78222381D01*
X171622380Y-78222381D01*
X171765238Y-78174762D01*
X171860476Y-78079524D01*
X171908095Y-77984286D01*
X171955714Y-77793810D01*
X171955714Y-77650952D01*
X171908095Y-77460476D01*
X171860476Y-77365238D01*
X171765238Y-77270000D01*
X171622380Y-77222381D01*
X171527142Y-77222381D01*
X171384285Y-77270000D01*
X171336666Y-77317619D01*
X170431904Y-77222381D02*
X170908095Y-77222381D01*
X170955714Y-77698571D01*
X170908095Y-77650952D01*
X170812857Y-77603333D01*
X170574761Y-77603333D01*
X170479523Y-77650952D01*
X170431904Y-77698571D01*
X170384285Y-77793810D01*
X170384285Y-78031905D01*
X170431904Y-78127143D01*
X170479523Y-78174762D01*
X170574761Y-78222381D01*
X170812857Y-78222381D01*
X170908095Y-78174762D01*
X170955714Y-78127143D01*
D12*
X124257143Y-98033334D02*
X124304762Y-97985715D01*
X124352381Y-97842858D01*
X124352381Y-97747620D01*
X124304762Y-97604762D01*
X124209524Y-97509524D01*
X124114286Y-97461905D01*
X123923810Y-97414286D01*
X123780952Y-97414286D01*
X123590476Y-97461905D01*
X123495238Y-97509524D01*
X123400000Y-97604762D01*
X123352381Y-97747620D01*
X123352381Y-97842858D01*
X123400000Y-97985715D01*
X123447619Y-98033334D01*
X123352381Y-98366667D02*
X123352381Y-99033334D01*
X124352381Y-98604762D01*
D14*
X129726666Y-93117143D02*
X129774285Y-93164762D01*
X129917142Y-93212381D01*
X130012380Y-93212381D01*
X130155238Y-93164762D01*
X130250476Y-93069524D01*
X130298095Y-92974286D01*
X130345714Y-92783810D01*
X130345714Y-92640952D01*
X130298095Y-92450476D01*
X130250476Y-92355238D01*
X130155238Y-92260000D01*
X130012380Y-92212381D01*
X129917142Y-92212381D01*
X129774285Y-92260000D01*
X129726666Y-92307619D01*
X129155238Y-92640952D02*
X129250476Y-92593333D01*
X129298095Y-92545714D01*
X129345714Y-92450476D01*
X129345714Y-92402857D01*
X129298095Y-92307619D01*
X129250476Y-92260000D01*
X129155238Y-92212381D01*
X128964761Y-92212381D01*
X128869523Y-92260000D01*
X128821904Y-92307619D01*
X128774285Y-92402857D01*
X128774285Y-92450476D01*
X128821904Y-92545714D01*
X128869523Y-92593333D01*
X128964761Y-92640952D01*
X129155238Y-92640952D01*
X129250476Y-92688571D01*
X129298095Y-92736190D01*
X129345714Y-92831429D01*
X129345714Y-93021905D01*
X129298095Y-93117143D01*
X129250476Y-93164762D01*
X129155238Y-93212381D01*
X128964761Y-93212381D01*
X128869523Y-93164762D01*
X128821904Y-93117143D01*
X128774285Y-93021905D01*
X128774285Y-92831429D01*
X128821904Y-92736190D01*
X128869523Y-92688571D01*
X128964761Y-92640952D01*
M02*
