G04 #@! TF.FileFunction,Other,Fab,Top*
%FSLAX46Y46*%
G04 Gerber Fmt 4.6, Leading zero omitted, Abs format (unit mm)*
G04 Created by KiCad (PCBNEW 4.0.4-stable) date 04/21/17 11:27:43*
%MOMM*%
%LPD*%
G01*
G04 APERTURE LIST*
%ADD10C,0.100000*%
%ADD11C,0.150000*%
%ADD12C,0.075000*%
G04 APERTURE END LIST*
D10*
X153930000Y-52580000D02*
X153930000Y-60200000D01*
X153930000Y-60200000D02*
X156470000Y-60200000D01*
X156470000Y-60200000D02*
X156470000Y-52580000D01*
X156470000Y-52580000D02*
X153930000Y-52580000D01*
X153650000Y-62410000D02*
X153650000Y-61170000D01*
X155650000Y-62410000D02*
X153650000Y-62410000D01*
X155650000Y-61170000D02*
X155650000Y-62410000D01*
X153650000Y-61170000D02*
X155650000Y-61170000D01*
X153650000Y-67430000D02*
X153650000Y-66190000D01*
X155650000Y-67430000D02*
X153650000Y-67430000D01*
X155650000Y-66190000D02*
X155650000Y-67430000D01*
X153650000Y-66190000D02*
X155650000Y-66190000D01*
X153650000Y-103580000D02*
X153650000Y-102340000D01*
X155650000Y-103580000D02*
X153650000Y-103580000D01*
X155650000Y-102340000D02*
X155650000Y-103580000D01*
X153650000Y-102340000D02*
X155650000Y-102340000D01*
X153660000Y-89810000D02*
X153660000Y-88570000D01*
X155660000Y-89810000D02*
X153660000Y-89810000D01*
X155660000Y-88570000D02*
X155660000Y-89810000D01*
X153660000Y-88570000D02*
X155660000Y-88570000D01*
X167590000Y-103060000D02*
X172670000Y-103060000D01*
X172670000Y-103060000D02*
X172670000Y-100520000D01*
X172670000Y-100520000D02*
X167590000Y-100520000D01*
X167590000Y-100520000D02*
X167590000Y-103060000D01*
X153930000Y-68360000D02*
X153930000Y-75980000D01*
X153930000Y-75980000D02*
X156470000Y-75980000D01*
X156470000Y-75980000D02*
X156470000Y-68360000D01*
X156470000Y-68360000D02*
X153930000Y-68360000D01*
X153930000Y-91240000D02*
X153930000Y-101400000D01*
X153930000Y-101400000D02*
X156470000Y-101400000D01*
X156470000Y-101400000D02*
X156470000Y-91240000D01*
X156470000Y-91240000D02*
X153930000Y-91240000D01*
X153930000Y-80050000D02*
X153930000Y-87670000D01*
X153930000Y-87670000D02*
X156470000Y-87670000D01*
X156470000Y-87670000D02*
X156470000Y-80050000D01*
X156470000Y-80050000D02*
X153930000Y-80050000D01*
X151390000Y-52580000D02*
X151390000Y-60200000D01*
X151390000Y-60200000D02*
X153930000Y-60200000D01*
X153930000Y-60200000D02*
X153930000Y-52580000D01*
X153930000Y-52580000D02*
X151390000Y-52580000D01*
X151510000Y-68360000D02*
X151510000Y-75980000D01*
X151510000Y-75980000D02*
X154050000Y-75980000D01*
X154050000Y-75980000D02*
X154050000Y-68360000D01*
X154050000Y-68360000D02*
X151510000Y-68360000D01*
X151390000Y-91240000D02*
X151390000Y-101400000D01*
X151390000Y-101400000D02*
X153930000Y-101400000D01*
X153930000Y-101400000D02*
X153930000Y-91240000D01*
X153930000Y-91240000D02*
X151390000Y-91240000D01*
X151390000Y-80050000D02*
X151390000Y-87670000D01*
X151390000Y-87670000D02*
X153930000Y-87670000D01*
X153930000Y-87670000D02*
X153930000Y-80050000D01*
X153930000Y-80050000D02*
X151390000Y-80050000D01*
X155620000Y-77930000D02*
X155620000Y-79170000D01*
X153620000Y-77930000D02*
X155620000Y-77930000D01*
X153620000Y-79170000D02*
X153620000Y-77930000D01*
X155620000Y-79170000D02*
X153620000Y-79170000D01*
X155650000Y-63080000D02*
X155650000Y-64320000D01*
X153650000Y-63080000D02*
X155650000Y-63080000D01*
X153650000Y-64320000D02*
X153650000Y-63080000D01*
X155650000Y-64320000D02*
X153650000Y-64320000D01*
D11*
X157172381Y-60272380D02*
X157886667Y-60272380D01*
X158029524Y-60320000D01*
X158124762Y-60415238D01*
X158172381Y-60558095D01*
X158172381Y-60653333D01*
X157172381Y-59796190D02*
X157981905Y-59796190D01*
X158077143Y-59748571D01*
X158124762Y-59700952D01*
X158172381Y-59605714D01*
X158172381Y-59415237D01*
X158124762Y-59319999D01*
X158077143Y-59272380D01*
X157981905Y-59224761D01*
X157172381Y-59224761D01*
X158172381Y-58748571D02*
X157172381Y-58748571D01*
X157886667Y-58415237D01*
X157172381Y-58081904D01*
X158172381Y-58081904D01*
X158172381Y-57605714D02*
X157172381Y-57605714D01*
X157172381Y-57224761D01*
X157220000Y-57129523D01*
X157267619Y-57081904D01*
X157362857Y-57034285D01*
X157505714Y-57034285D01*
X157600952Y-57081904D01*
X157648571Y-57129523D01*
X157696190Y-57224761D01*
X157696190Y-57605714D01*
X158172381Y-56081904D02*
X158172381Y-56653333D01*
X158172381Y-56367619D02*
X157172381Y-56367619D01*
X157315238Y-56462857D01*
X157410476Y-56558095D01*
X157458095Y-56653333D01*
X158267619Y-55891428D02*
X158267619Y-55129523D01*
X158077143Y-54319999D02*
X158124762Y-54367618D01*
X158172381Y-54510475D01*
X158172381Y-54605713D01*
X158124762Y-54748571D01*
X158029524Y-54843809D01*
X157934286Y-54891428D01*
X157743810Y-54939047D01*
X157600952Y-54939047D01*
X157410476Y-54891428D01*
X157315238Y-54843809D01*
X157220000Y-54748571D01*
X157172381Y-54605713D01*
X157172381Y-54510475D01*
X157220000Y-54367618D01*
X157267619Y-54319999D01*
X157172381Y-53700952D02*
X157172381Y-53510475D01*
X157220000Y-53415237D01*
X157315238Y-53319999D01*
X157505714Y-53272380D01*
X157839048Y-53272380D01*
X158029524Y-53319999D01*
X158124762Y-53415237D01*
X158172381Y-53510475D01*
X158172381Y-53700952D01*
X158124762Y-53796190D01*
X158029524Y-53891428D01*
X157839048Y-53939047D01*
X157505714Y-53939047D01*
X157315238Y-53891428D01*
X157220000Y-53796190D01*
X157172381Y-53700952D01*
X158172381Y-52843809D02*
X157172381Y-52843809D01*
X158172381Y-52272380D01*
X157172381Y-52272380D01*
X158172381Y-51272380D02*
X158172381Y-51843809D01*
X158172381Y-51558095D02*
X157172381Y-51558095D01*
X157315238Y-51653333D01*
X157410476Y-51748571D01*
X157458095Y-51843809D01*
X158267619Y-51081904D02*
X158267619Y-50319999D01*
X158172381Y-50081904D02*
X157172381Y-50081904D01*
X157172381Y-49700951D01*
X157220000Y-49605713D01*
X157267619Y-49558094D01*
X157362857Y-49510475D01*
X157505714Y-49510475D01*
X157600952Y-49558094D01*
X157648571Y-49605713D01*
X157696190Y-49700951D01*
X157696190Y-50081904D01*
X158172381Y-49081904D02*
X157172381Y-49081904D01*
X158172381Y-48605714D02*
X157172381Y-48605714D01*
X158172381Y-48034285D01*
X157172381Y-48034285D01*
X157172381Y-47653333D02*
X157172381Y-47034285D01*
X157553333Y-47367619D01*
X157553333Y-47224761D01*
X157600952Y-47129523D01*
X157648571Y-47081904D01*
X157743810Y-47034285D01*
X157981905Y-47034285D01*
X158077143Y-47081904D01*
X158124762Y-47129523D01*
X158172381Y-47224761D01*
X158172381Y-47510476D01*
X158124762Y-47605714D01*
X158077143Y-47653333D01*
X154461905Y-51972381D02*
X154461905Y-50972381D01*
X154842858Y-50972381D01*
X154938096Y-51020000D01*
X154985715Y-51067619D01*
X155033334Y-51162857D01*
X155033334Y-51305714D01*
X154985715Y-51400952D01*
X154938096Y-51448571D01*
X154842858Y-51496190D01*
X154461905Y-51496190D01*
X155414286Y-51067619D02*
X155461905Y-51020000D01*
X155557143Y-50972381D01*
X155795239Y-50972381D01*
X155890477Y-51020000D01*
X155938096Y-51067619D01*
X155985715Y-51162857D01*
X155985715Y-51258095D01*
X155938096Y-51400952D01*
X155366667Y-51972381D01*
X155985715Y-51972381D01*
X150049524Y-62422381D02*
X149478095Y-62422381D01*
X149763809Y-62422381D02*
X149763809Y-61422381D01*
X149668571Y-61565238D01*
X149573333Y-61660476D01*
X149478095Y-61708095D01*
X150668571Y-61422381D02*
X150763810Y-61422381D01*
X150859048Y-61470000D01*
X150906667Y-61517619D01*
X150954286Y-61612857D01*
X151001905Y-61803333D01*
X151001905Y-62041429D01*
X150954286Y-62231905D01*
X150906667Y-62327143D01*
X150859048Y-62374762D01*
X150763810Y-62422381D01*
X150668571Y-62422381D01*
X150573333Y-62374762D01*
X150525714Y-62327143D01*
X150478095Y-62231905D01*
X150430476Y-62041429D01*
X150430476Y-61803333D01*
X150478095Y-61612857D01*
X150525714Y-61517619D01*
X150573333Y-61470000D01*
X150668571Y-61422381D01*
X151430476Y-62422381D02*
X151430476Y-61422381D01*
X152001905Y-62422381D02*
X151573333Y-61850952D01*
X152001905Y-61422381D02*
X151430476Y-61993810D01*
D12*
X154566667Y-61806190D02*
X154400000Y-61568095D01*
X154280953Y-61806190D02*
X154280953Y-61306190D01*
X154471429Y-61306190D01*
X154519048Y-61330000D01*
X154542857Y-61353810D01*
X154566667Y-61401429D01*
X154566667Y-61472857D01*
X154542857Y-61520476D01*
X154519048Y-61544286D01*
X154471429Y-61568095D01*
X154280953Y-61568095D01*
X155042857Y-61806190D02*
X154757143Y-61806190D01*
X154900000Y-61806190D02*
X154900000Y-61306190D01*
X154852381Y-61377619D01*
X154804762Y-61425238D01*
X154757143Y-61449048D01*
D11*
X154699524Y-65862381D02*
X154128095Y-65862381D01*
X154413809Y-65862381D02*
X154413809Y-64862381D01*
X154318571Y-65005238D01*
X154223333Y-65100476D01*
X154128095Y-65148095D01*
X155318571Y-64862381D02*
X155413810Y-64862381D01*
X155509048Y-64910000D01*
X155556667Y-64957619D01*
X155604286Y-65052857D01*
X155651905Y-65243333D01*
X155651905Y-65481429D01*
X155604286Y-65671905D01*
X155556667Y-65767143D01*
X155509048Y-65814762D01*
X155413810Y-65862381D01*
X155318571Y-65862381D01*
X155223333Y-65814762D01*
X155175714Y-65767143D01*
X155128095Y-65671905D01*
X155080476Y-65481429D01*
X155080476Y-65243333D01*
X155128095Y-65052857D01*
X155175714Y-64957619D01*
X155223333Y-64910000D01*
X155318571Y-64862381D01*
X156080476Y-65862381D02*
X156080476Y-64862381D01*
X156651905Y-65862381D02*
X156223333Y-65290952D01*
X156651905Y-64862381D02*
X156080476Y-65433810D01*
D12*
X154586667Y-67106190D02*
X154420000Y-66868095D01*
X154300953Y-67106190D02*
X154300953Y-66606190D01*
X154491429Y-66606190D01*
X154539048Y-66630000D01*
X154562857Y-66653810D01*
X154586667Y-66701429D01*
X154586667Y-66772857D01*
X154562857Y-66820476D01*
X154539048Y-66844286D01*
X154491429Y-66868095D01*
X154300953Y-66868095D01*
X154777143Y-66653810D02*
X154800953Y-66630000D01*
X154848572Y-66606190D01*
X154967619Y-66606190D01*
X155015238Y-66630000D01*
X155039048Y-66653810D01*
X155062857Y-66701429D01*
X155062857Y-66749048D01*
X155039048Y-66820476D01*
X154753334Y-67106190D01*
X155062857Y-67106190D01*
D11*
X149799524Y-104162381D02*
X149228095Y-104162381D01*
X149513809Y-104162381D02*
X149513809Y-103162381D01*
X149418571Y-103305238D01*
X149323333Y-103400476D01*
X149228095Y-103448095D01*
X150418571Y-103162381D02*
X150513810Y-103162381D01*
X150609048Y-103210000D01*
X150656667Y-103257619D01*
X150704286Y-103352857D01*
X150751905Y-103543333D01*
X150751905Y-103781429D01*
X150704286Y-103971905D01*
X150656667Y-104067143D01*
X150609048Y-104114762D01*
X150513810Y-104162381D01*
X150418571Y-104162381D01*
X150323333Y-104114762D01*
X150275714Y-104067143D01*
X150228095Y-103971905D01*
X150180476Y-103781429D01*
X150180476Y-103543333D01*
X150228095Y-103352857D01*
X150275714Y-103257619D01*
X150323333Y-103210000D01*
X150418571Y-103162381D01*
X151180476Y-104162381D02*
X151180476Y-103162381D01*
X151751905Y-104162381D02*
X151323333Y-103590952D01*
X151751905Y-103162381D02*
X151180476Y-103733810D01*
D12*
X154596667Y-103346190D02*
X154430000Y-103108095D01*
X154310953Y-103346190D02*
X154310953Y-102846190D01*
X154501429Y-102846190D01*
X154549048Y-102870000D01*
X154572857Y-102893810D01*
X154596667Y-102941429D01*
X154596667Y-103012857D01*
X154572857Y-103060476D01*
X154549048Y-103084286D01*
X154501429Y-103108095D01*
X154310953Y-103108095D01*
X154763334Y-102846190D02*
X155072857Y-102846190D01*
X154906191Y-103036667D01*
X154977619Y-103036667D01*
X155025238Y-103060476D01*
X155049048Y-103084286D01*
X155072857Y-103131905D01*
X155072857Y-103250952D01*
X155049048Y-103298571D01*
X155025238Y-103322381D01*
X154977619Y-103346190D01*
X154834762Y-103346190D01*
X154787143Y-103322381D01*
X154763334Y-103298571D01*
D11*
X157779524Y-89632381D02*
X157208095Y-89632381D01*
X157493809Y-89632381D02*
X157493809Y-88632381D01*
X157398571Y-88775238D01*
X157303333Y-88870476D01*
X157208095Y-88918095D01*
X158398571Y-88632381D02*
X158493810Y-88632381D01*
X158589048Y-88680000D01*
X158636667Y-88727619D01*
X158684286Y-88822857D01*
X158731905Y-89013333D01*
X158731905Y-89251429D01*
X158684286Y-89441905D01*
X158636667Y-89537143D01*
X158589048Y-89584762D01*
X158493810Y-89632381D01*
X158398571Y-89632381D01*
X158303333Y-89584762D01*
X158255714Y-89537143D01*
X158208095Y-89441905D01*
X158160476Y-89251429D01*
X158160476Y-89013333D01*
X158208095Y-88822857D01*
X158255714Y-88727619D01*
X158303333Y-88680000D01*
X158398571Y-88632381D01*
X159160476Y-89632381D02*
X159160476Y-88632381D01*
X159731905Y-89632381D02*
X159303333Y-89060952D01*
X159731905Y-88632381D02*
X159160476Y-89203810D01*
D12*
X154606667Y-89736190D02*
X154440000Y-89498095D01*
X154320953Y-89736190D02*
X154320953Y-89236190D01*
X154511429Y-89236190D01*
X154559048Y-89260000D01*
X154582857Y-89283810D01*
X154606667Y-89331429D01*
X154606667Y-89402857D01*
X154582857Y-89450476D01*
X154559048Y-89474286D01*
X154511429Y-89498095D01*
X154320953Y-89498095D01*
X155035238Y-89402857D02*
X155035238Y-89736190D01*
X154916191Y-89212381D02*
X154797143Y-89569524D01*
X155106667Y-89569524D01*
D11*
X174182381Y-105456667D02*
X173182381Y-105456667D01*
X173182381Y-105075714D01*
X173230000Y-104980476D01*
X173277619Y-104932857D01*
X173372857Y-104885238D01*
X173515714Y-104885238D01*
X173610952Y-104932857D01*
X173658571Y-104980476D01*
X173706190Y-105075714D01*
X173706190Y-105456667D01*
X173182381Y-104551905D02*
X174182381Y-104313810D01*
X173468095Y-104123333D01*
X174182381Y-103932857D01*
X173182381Y-103694762D01*
X174182381Y-102742381D02*
X173706190Y-103075715D01*
X174182381Y-103313810D02*
X173182381Y-103313810D01*
X173182381Y-102932857D01*
X173230000Y-102837619D01*
X173277619Y-102790000D01*
X173372857Y-102742381D01*
X173515714Y-102742381D01*
X173610952Y-102790000D01*
X173658571Y-102837619D01*
X173706190Y-102932857D01*
X173706190Y-103313810D01*
X174277619Y-102551905D02*
X174277619Y-101790000D01*
X173182381Y-101266190D02*
X173896667Y-101266190D01*
X174039524Y-101313810D01*
X174134762Y-101409048D01*
X174182381Y-101551905D01*
X174182381Y-101647143D01*
X174182381Y-100790000D02*
X173182381Y-100790000D01*
X173896667Y-100456666D01*
X173182381Y-100123333D01*
X174182381Y-100123333D01*
X174182381Y-99647143D02*
X173182381Y-99647143D01*
X173182381Y-99266190D01*
X173230000Y-99170952D01*
X173277619Y-99123333D01*
X173372857Y-99075714D01*
X173515714Y-99075714D01*
X173610952Y-99123333D01*
X173658571Y-99170952D01*
X173706190Y-99266190D01*
X173706190Y-99647143D01*
X174182381Y-98075714D02*
X173706190Y-98409048D01*
X174182381Y-98647143D02*
X173182381Y-98647143D01*
X173182381Y-98266190D01*
X173230000Y-98170952D01*
X173277619Y-98123333D01*
X173372857Y-98075714D01*
X173515714Y-98075714D01*
X173610952Y-98123333D01*
X173658571Y-98170952D01*
X173706190Y-98266190D01*
X173706190Y-98647143D01*
X166982381Y-102528095D02*
X165982381Y-102528095D01*
X165982381Y-102147142D01*
X166030000Y-102051904D01*
X166077619Y-102004285D01*
X166172857Y-101956666D01*
X166315714Y-101956666D01*
X166410952Y-102004285D01*
X166458571Y-102051904D01*
X166506190Y-102147142D01*
X166506190Y-102528095D01*
X166982381Y-101004285D02*
X166982381Y-101575714D01*
X166982381Y-101290000D02*
X165982381Y-101290000D01*
X166125238Y-101385238D01*
X166220476Y-101480476D01*
X166268095Y-101575714D01*
X158532381Y-77912380D02*
X159246667Y-77912380D01*
X159389524Y-77960000D01*
X159484762Y-78055238D01*
X159532381Y-78198095D01*
X159532381Y-78293333D01*
X158532381Y-77436190D02*
X159341905Y-77436190D01*
X159437143Y-77388571D01*
X159484762Y-77340952D01*
X159532381Y-77245714D01*
X159532381Y-77055237D01*
X159484762Y-76959999D01*
X159437143Y-76912380D01*
X159341905Y-76864761D01*
X158532381Y-76864761D01*
X159532381Y-76388571D02*
X158532381Y-76388571D01*
X159246667Y-76055237D01*
X158532381Y-75721904D01*
X159532381Y-75721904D01*
X159532381Y-75245714D02*
X158532381Y-75245714D01*
X158532381Y-74864761D01*
X158580000Y-74769523D01*
X158627619Y-74721904D01*
X158722857Y-74674285D01*
X158865714Y-74674285D01*
X158960952Y-74721904D01*
X159008571Y-74769523D01*
X159056190Y-74864761D01*
X159056190Y-75245714D01*
X158627619Y-74293333D02*
X158580000Y-74245714D01*
X158532381Y-74150476D01*
X158532381Y-73912380D01*
X158580000Y-73817142D01*
X158627619Y-73769523D01*
X158722857Y-73721904D01*
X158818095Y-73721904D01*
X158960952Y-73769523D01*
X159532381Y-74340952D01*
X159532381Y-73721904D01*
X159627619Y-73531428D02*
X159627619Y-72769523D01*
X159437143Y-71959999D02*
X159484762Y-72007618D01*
X159532381Y-72150475D01*
X159532381Y-72245713D01*
X159484762Y-72388571D01*
X159389524Y-72483809D01*
X159294286Y-72531428D01*
X159103810Y-72579047D01*
X158960952Y-72579047D01*
X158770476Y-72531428D01*
X158675238Y-72483809D01*
X158580000Y-72388571D01*
X158532381Y-72245713D01*
X158532381Y-72150475D01*
X158580000Y-72007618D01*
X158627619Y-71959999D01*
X158532381Y-71340952D02*
X158532381Y-71150475D01*
X158580000Y-71055237D01*
X158675238Y-70959999D01*
X158865714Y-70912380D01*
X159199048Y-70912380D01*
X159389524Y-70959999D01*
X159484762Y-71055237D01*
X159532381Y-71150475D01*
X159532381Y-71340952D01*
X159484762Y-71436190D01*
X159389524Y-71531428D01*
X159199048Y-71579047D01*
X158865714Y-71579047D01*
X158675238Y-71531428D01*
X158580000Y-71436190D01*
X158532381Y-71340952D01*
X159532381Y-70483809D02*
X158532381Y-70483809D01*
X159532381Y-69912380D01*
X158532381Y-69912380D01*
X158627619Y-69483809D02*
X158580000Y-69436190D01*
X158532381Y-69340952D01*
X158532381Y-69102856D01*
X158580000Y-69007618D01*
X158627619Y-68959999D01*
X158722857Y-68912380D01*
X158818095Y-68912380D01*
X158960952Y-68959999D01*
X159532381Y-69531428D01*
X159532381Y-68912380D01*
X159627619Y-68721904D02*
X159627619Y-67959999D01*
X159532381Y-67721904D02*
X158532381Y-67721904D01*
X158532381Y-67340951D01*
X158580000Y-67245713D01*
X158627619Y-67198094D01*
X158722857Y-67150475D01*
X158865714Y-67150475D01*
X158960952Y-67198094D01*
X159008571Y-67245713D01*
X159056190Y-67340951D01*
X159056190Y-67721904D01*
X159532381Y-66721904D02*
X158532381Y-66721904D01*
X159532381Y-66245714D02*
X158532381Y-66245714D01*
X159532381Y-65674285D01*
X158532381Y-65674285D01*
X158532381Y-65293333D02*
X158532381Y-64674285D01*
X158913333Y-65007619D01*
X158913333Y-64864761D01*
X158960952Y-64769523D01*
X159008571Y-64721904D01*
X159103810Y-64674285D01*
X159341905Y-64674285D01*
X159437143Y-64721904D01*
X159484762Y-64769523D01*
X159532381Y-64864761D01*
X159532381Y-65150476D01*
X159484762Y-65245714D01*
X159437143Y-65293333D01*
X157632381Y-70248095D02*
X156632381Y-70248095D01*
X156632381Y-69867142D01*
X156680000Y-69771904D01*
X156727619Y-69724285D01*
X156822857Y-69676666D01*
X156965714Y-69676666D01*
X157060952Y-69724285D01*
X157108571Y-69771904D01*
X157156190Y-69867142D01*
X157156190Y-70248095D01*
X156632381Y-69343333D02*
X156632381Y-68724285D01*
X157013333Y-69057619D01*
X157013333Y-68914761D01*
X157060952Y-68819523D01*
X157108571Y-68771904D01*
X157203810Y-68724285D01*
X157441905Y-68724285D01*
X157537143Y-68771904D01*
X157584762Y-68819523D01*
X157632381Y-68914761D01*
X157632381Y-69200476D01*
X157584762Y-69295714D01*
X157537143Y-69343333D01*
X158952381Y-103342380D02*
X159666667Y-103342380D01*
X159809524Y-103390000D01*
X159904762Y-103485238D01*
X159952381Y-103628095D01*
X159952381Y-103723333D01*
X158952381Y-102866190D02*
X159761905Y-102866190D01*
X159857143Y-102818571D01*
X159904762Y-102770952D01*
X159952381Y-102675714D01*
X159952381Y-102485237D01*
X159904762Y-102389999D01*
X159857143Y-102342380D01*
X159761905Y-102294761D01*
X158952381Y-102294761D01*
X159952381Y-101818571D02*
X158952381Y-101818571D01*
X159666667Y-101485237D01*
X158952381Y-101151904D01*
X159952381Y-101151904D01*
X159952381Y-100675714D02*
X158952381Y-100675714D01*
X158952381Y-100294761D01*
X159000000Y-100199523D01*
X159047619Y-100151904D01*
X159142857Y-100104285D01*
X159285714Y-100104285D01*
X159380952Y-100151904D01*
X159428571Y-100199523D01*
X159476190Y-100294761D01*
X159476190Y-100675714D01*
X158952381Y-99770952D02*
X158952381Y-99151904D01*
X159333333Y-99485238D01*
X159333333Y-99342380D01*
X159380952Y-99247142D01*
X159428571Y-99199523D01*
X159523810Y-99151904D01*
X159761905Y-99151904D01*
X159857143Y-99199523D01*
X159904762Y-99247142D01*
X159952381Y-99342380D01*
X159952381Y-99628095D01*
X159904762Y-99723333D01*
X159857143Y-99770952D01*
X160047619Y-98961428D02*
X160047619Y-98199523D01*
X159857143Y-97389999D02*
X159904762Y-97437618D01*
X159952381Y-97580475D01*
X159952381Y-97675713D01*
X159904762Y-97818571D01*
X159809524Y-97913809D01*
X159714286Y-97961428D01*
X159523810Y-98009047D01*
X159380952Y-98009047D01*
X159190476Y-97961428D01*
X159095238Y-97913809D01*
X159000000Y-97818571D01*
X158952381Y-97675713D01*
X158952381Y-97580475D01*
X159000000Y-97437618D01*
X159047619Y-97389999D01*
X158952381Y-96770952D02*
X158952381Y-96580475D01*
X159000000Y-96485237D01*
X159095238Y-96389999D01*
X159285714Y-96342380D01*
X159619048Y-96342380D01*
X159809524Y-96389999D01*
X159904762Y-96485237D01*
X159952381Y-96580475D01*
X159952381Y-96770952D01*
X159904762Y-96866190D01*
X159809524Y-96961428D01*
X159619048Y-97009047D01*
X159285714Y-97009047D01*
X159095238Y-96961428D01*
X159000000Y-96866190D01*
X158952381Y-96770952D01*
X159952381Y-95913809D02*
X158952381Y-95913809D01*
X159952381Y-95342380D01*
X158952381Y-95342380D01*
X158952381Y-94961428D02*
X158952381Y-94342380D01*
X159333333Y-94675714D01*
X159333333Y-94532856D01*
X159380952Y-94437618D01*
X159428571Y-94389999D01*
X159523810Y-94342380D01*
X159761905Y-94342380D01*
X159857143Y-94389999D01*
X159904762Y-94437618D01*
X159952381Y-94532856D01*
X159952381Y-94818571D01*
X159904762Y-94913809D01*
X159857143Y-94961428D01*
X160047619Y-94151904D02*
X160047619Y-93389999D01*
X159952381Y-93151904D02*
X158952381Y-93151904D01*
X158952381Y-92770951D01*
X159000000Y-92675713D01*
X159047619Y-92628094D01*
X159142857Y-92580475D01*
X159285714Y-92580475D01*
X159380952Y-92628094D01*
X159428571Y-92675713D01*
X159476190Y-92770951D01*
X159476190Y-93151904D01*
X159952381Y-92151904D02*
X158952381Y-92151904D01*
X159952381Y-91675714D02*
X158952381Y-91675714D01*
X159952381Y-91104285D01*
X158952381Y-91104285D01*
X159952381Y-90104285D02*
X159952381Y-90675714D01*
X159952381Y-90390000D02*
X158952381Y-90390000D01*
X159095238Y-90485238D01*
X159190476Y-90580476D01*
X159238095Y-90675714D01*
X157281905Y-92662381D02*
X157281905Y-91662381D01*
X157662858Y-91662381D01*
X157758096Y-91710000D01*
X157805715Y-91757619D01*
X157853334Y-91852857D01*
X157853334Y-91995714D01*
X157805715Y-92090952D01*
X157758096Y-92138571D01*
X157662858Y-92186190D01*
X157281905Y-92186190D01*
X158710477Y-91995714D02*
X158710477Y-92662381D01*
X158472381Y-91614762D02*
X158234286Y-92329048D01*
X158853334Y-92329048D01*
X160402381Y-89942380D02*
X161116667Y-89942380D01*
X161259524Y-89990000D01*
X161354762Y-90085238D01*
X161402381Y-90228095D01*
X161402381Y-90323333D01*
X160402381Y-89466190D02*
X161211905Y-89466190D01*
X161307143Y-89418571D01*
X161354762Y-89370952D01*
X161402381Y-89275714D01*
X161402381Y-89085237D01*
X161354762Y-88989999D01*
X161307143Y-88942380D01*
X161211905Y-88894761D01*
X160402381Y-88894761D01*
X161402381Y-88418571D02*
X160402381Y-88418571D01*
X161116667Y-88085237D01*
X160402381Y-87751904D01*
X161402381Y-87751904D01*
X161402381Y-87275714D02*
X160402381Y-87275714D01*
X160402381Y-86894761D01*
X160450000Y-86799523D01*
X160497619Y-86751904D01*
X160592857Y-86704285D01*
X160735714Y-86704285D01*
X160830952Y-86751904D01*
X160878571Y-86799523D01*
X160926190Y-86894761D01*
X160926190Y-87275714D01*
X160735714Y-85847142D02*
X161402381Y-85847142D01*
X160354762Y-86085238D02*
X161069048Y-86323333D01*
X161069048Y-85704285D01*
X161497619Y-85561428D02*
X161497619Y-84799523D01*
X161307143Y-83989999D02*
X161354762Y-84037618D01*
X161402381Y-84180475D01*
X161402381Y-84275713D01*
X161354762Y-84418571D01*
X161259524Y-84513809D01*
X161164286Y-84561428D01*
X160973810Y-84609047D01*
X160830952Y-84609047D01*
X160640476Y-84561428D01*
X160545238Y-84513809D01*
X160450000Y-84418571D01*
X160402381Y-84275713D01*
X160402381Y-84180475D01*
X160450000Y-84037618D01*
X160497619Y-83989999D01*
X160402381Y-83370952D02*
X160402381Y-83180475D01*
X160450000Y-83085237D01*
X160545238Y-82989999D01*
X160735714Y-82942380D01*
X161069048Y-82942380D01*
X161259524Y-82989999D01*
X161354762Y-83085237D01*
X161402381Y-83180475D01*
X161402381Y-83370952D01*
X161354762Y-83466190D01*
X161259524Y-83561428D01*
X161069048Y-83609047D01*
X160735714Y-83609047D01*
X160545238Y-83561428D01*
X160450000Y-83466190D01*
X160402381Y-83370952D01*
X161402381Y-82513809D02*
X160402381Y-82513809D01*
X161402381Y-81942380D01*
X160402381Y-81942380D01*
X160402381Y-81561428D02*
X160402381Y-80942380D01*
X160783333Y-81275714D01*
X160783333Y-81132856D01*
X160830952Y-81037618D01*
X160878571Y-80989999D01*
X160973810Y-80942380D01*
X161211905Y-80942380D01*
X161307143Y-80989999D01*
X161354762Y-81037618D01*
X161402381Y-81132856D01*
X161402381Y-81418571D01*
X161354762Y-81513809D01*
X161307143Y-81561428D01*
X161497619Y-80751904D02*
X161497619Y-79989999D01*
X161402381Y-79751904D02*
X160402381Y-79751904D01*
X160402381Y-79370951D01*
X160450000Y-79275713D01*
X160497619Y-79228094D01*
X160592857Y-79180475D01*
X160735714Y-79180475D01*
X160830952Y-79228094D01*
X160878571Y-79275713D01*
X160926190Y-79370951D01*
X160926190Y-79751904D01*
X161402381Y-78751904D02*
X160402381Y-78751904D01*
X161402381Y-78275714D02*
X160402381Y-78275714D01*
X161402381Y-77704285D01*
X160402381Y-77704285D01*
X160402381Y-77323333D02*
X160402381Y-76704285D01*
X160783333Y-77037619D01*
X160783333Y-76894761D01*
X160830952Y-76799523D01*
X160878571Y-76751904D01*
X160973810Y-76704285D01*
X161211905Y-76704285D01*
X161307143Y-76751904D01*
X161354762Y-76799523D01*
X161402381Y-76894761D01*
X161402381Y-77180476D01*
X161354762Y-77275714D01*
X161307143Y-77323333D01*
X158242381Y-82018095D02*
X157242381Y-82018095D01*
X157242381Y-81637142D01*
X157290000Y-81541904D01*
X157337619Y-81494285D01*
X157432857Y-81446666D01*
X157575714Y-81446666D01*
X157670952Y-81494285D01*
X157718571Y-81541904D01*
X157766190Y-81637142D01*
X157766190Y-82018095D01*
X157242381Y-80541904D02*
X157242381Y-81018095D01*
X157718571Y-81065714D01*
X157670952Y-81018095D01*
X157623333Y-80922857D01*
X157623333Y-80684761D01*
X157670952Y-80589523D01*
X157718571Y-80541904D01*
X157813810Y-80494285D01*
X158051905Y-80494285D01*
X158147143Y-80541904D01*
X158194762Y-80589523D01*
X158242381Y-80684761D01*
X158242381Y-80922857D01*
X158194762Y-81018095D01*
X158147143Y-81065714D01*
X150467143Y-59423333D02*
X150514762Y-59470952D01*
X150562381Y-59613809D01*
X150562381Y-59709047D01*
X150514762Y-59851905D01*
X150419524Y-59947143D01*
X150324286Y-59994762D01*
X150133810Y-60042381D01*
X149990952Y-60042381D01*
X149800476Y-59994762D01*
X149705238Y-59947143D01*
X149610000Y-59851905D01*
X149562381Y-59709047D01*
X149562381Y-59613809D01*
X149610000Y-59470952D01*
X149657619Y-59423333D01*
X149562381Y-58804286D02*
X149562381Y-58613809D01*
X149610000Y-58518571D01*
X149705238Y-58423333D01*
X149895714Y-58375714D01*
X150229048Y-58375714D01*
X150419524Y-58423333D01*
X150514762Y-58518571D01*
X150562381Y-58613809D01*
X150562381Y-58804286D01*
X150514762Y-58899524D01*
X150419524Y-58994762D01*
X150229048Y-59042381D01*
X149895714Y-59042381D01*
X149705238Y-58994762D01*
X149610000Y-58899524D01*
X149562381Y-58804286D01*
X150562381Y-57947143D02*
X149562381Y-57947143D01*
X150562381Y-57375714D01*
X149562381Y-57375714D01*
X150562381Y-56375714D02*
X150562381Y-56947143D01*
X150562381Y-56661429D02*
X149562381Y-56661429D01*
X149705238Y-56756667D01*
X149800476Y-56851905D01*
X149848095Y-56947143D01*
X150657619Y-56185238D02*
X150657619Y-55423333D01*
X150562381Y-55185238D02*
X149562381Y-55185238D01*
X149562381Y-54804285D01*
X149610000Y-54709047D01*
X149657619Y-54661428D01*
X149752857Y-54613809D01*
X149895714Y-54613809D01*
X149990952Y-54661428D01*
X150038571Y-54709047D01*
X150086190Y-54804285D01*
X150086190Y-55185238D01*
X150562381Y-54185238D02*
X149562381Y-54185238D01*
X150562381Y-53709048D02*
X149562381Y-53709048D01*
X150562381Y-53137619D01*
X149562381Y-53137619D01*
X149562381Y-52756667D02*
X149562381Y-52137619D01*
X149943333Y-52470953D01*
X149943333Y-52328095D01*
X149990952Y-52232857D01*
X150038571Y-52185238D01*
X150133810Y-52137619D01*
X150371905Y-52137619D01*
X150467143Y-52185238D01*
X150514762Y-52232857D01*
X150562381Y-52328095D01*
X150562381Y-52613810D01*
X150514762Y-52709048D01*
X150467143Y-52756667D01*
X151921905Y-51972381D02*
X151921905Y-50972381D01*
X152302858Y-50972381D01*
X152398096Y-51020000D01*
X152445715Y-51067619D01*
X152493334Y-51162857D01*
X152493334Y-51305714D01*
X152445715Y-51400952D01*
X152398096Y-51448571D01*
X152302858Y-51496190D01*
X151921905Y-51496190D01*
X153350477Y-50972381D02*
X153160000Y-50972381D01*
X153064762Y-51020000D01*
X153017143Y-51067619D01*
X152921905Y-51210476D01*
X152874286Y-51400952D01*
X152874286Y-51781905D01*
X152921905Y-51877143D01*
X152969524Y-51924762D01*
X153064762Y-51972381D01*
X153255239Y-51972381D01*
X153350477Y-51924762D01*
X153398096Y-51877143D01*
X153445715Y-51781905D01*
X153445715Y-51543810D01*
X153398096Y-51448571D01*
X153350477Y-51400952D01*
X153255239Y-51353333D01*
X153064762Y-51353333D01*
X152969524Y-51400952D01*
X152921905Y-51448571D01*
X152874286Y-51543810D01*
X150467143Y-75643333D02*
X150514762Y-75690952D01*
X150562381Y-75833809D01*
X150562381Y-75929047D01*
X150514762Y-76071905D01*
X150419524Y-76167143D01*
X150324286Y-76214762D01*
X150133810Y-76262381D01*
X149990952Y-76262381D01*
X149800476Y-76214762D01*
X149705238Y-76167143D01*
X149610000Y-76071905D01*
X149562381Y-75929047D01*
X149562381Y-75833809D01*
X149610000Y-75690952D01*
X149657619Y-75643333D01*
X149562381Y-75024286D02*
X149562381Y-74833809D01*
X149610000Y-74738571D01*
X149705238Y-74643333D01*
X149895714Y-74595714D01*
X150229048Y-74595714D01*
X150419524Y-74643333D01*
X150514762Y-74738571D01*
X150562381Y-74833809D01*
X150562381Y-75024286D01*
X150514762Y-75119524D01*
X150419524Y-75214762D01*
X150229048Y-75262381D01*
X149895714Y-75262381D01*
X149705238Y-75214762D01*
X149610000Y-75119524D01*
X149562381Y-75024286D01*
X150562381Y-74167143D02*
X149562381Y-74167143D01*
X150562381Y-73595714D01*
X149562381Y-73595714D01*
X149657619Y-73167143D02*
X149610000Y-73119524D01*
X149562381Y-73024286D01*
X149562381Y-72786190D01*
X149610000Y-72690952D01*
X149657619Y-72643333D01*
X149752857Y-72595714D01*
X149848095Y-72595714D01*
X149990952Y-72643333D01*
X150562381Y-73214762D01*
X150562381Y-72595714D01*
X150657619Y-72405238D02*
X150657619Y-71643333D01*
X150562381Y-71405238D02*
X149562381Y-71405238D01*
X149562381Y-71024285D01*
X149610000Y-70929047D01*
X149657619Y-70881428D01*
X149752857Y-70833809D01*
X149895714Y-70833809D01*
X149990952Y-70881428D01*
X150038571Y-70929047D01*
X150086190Y-71024285D01*
X150086190Y-71405238D01*
X150562381Y-70405238D02*
X149562381Y-70405238D01*
X150562381Y-69929048D02*
X149562381Y-69929048D01*
X150562381Y-69357619D01*
X149562381Y-69357619D01*
X149562381Y-68976667D02*
X149562381Y-68357619D01*
X149943333Y-68690953D01*
X149943333Y-68548095D01*
X149990952Y-68452857D01*
X150038571Y-68405238D01*
X150133810Y-68357619D01*
X150371905Y-68357619D01*
X150467143Y-68405238D01*
X150514762Y-68452857D01*
X150562381Y-68548095D01*
X150562381Y-68833810D01*
X150514762Y-68929048D01*
X150467143Y-68976667D01*
X150361905Y-67932381D02*
X150361905Y-66932381D01*
X150742858Y-66932381D01*
X150838096Y-66980000D01*
X150885715Y-67027619D01*
X150933334Y-67122857D01*
X150933334Y-67265714D01*
X150885715Y-67360952D01*
X150838096Y-67408571D01*
X150742858Y-67456190D01*
X150361905Y-67456190D01*
X151266667Y-66932381D02*
X151933334Y-66932381D01*
X151504762Y-67932381D01*
X150817143Y-100543333D02*
X150864762Y-100590952D01*
X150912381Y-100733809D01*
X150912381Y-100829047D01*
X150864762Y-100971905D01*
X150769524Y-101067143D01*
X150674286Y-101114762D01*
X150483810Y-101162381D01*
X150340952Y-101162381D01*
X150150476Y-101114762D01*
X150055238Y-101067143D01*
X149960000Y-100971905D01*
X149912381Y-100829047D01*
X149912381Y-100733809D01*
X149960000Y-100590952D01*
X150007619Y-100543333D01*
X149912381Y-99924286D02*
X149912381Y-99733809D01*
X149960000Y-99638571D01*
X150055238Y-99543333D01*
X150245714Y-99495714D01*
X150579048Y-99495714D01*
X150769524Y-99543333D01*
X150864762Y-99638571D01*
X150912381Y-99733809D01*
X150912381Y-99924286D01*
X150864762Y-100019524D01*
X150769524Y-100114762D01*
X150579048Y-100162381D01*
X150245714Y-100162381D01*
X150055238Y-100114762D01*
X149960000Y-100019524D01*
X149912381Y-99924286D01*
X150912381Y-99067143D02*
X149912381Y-99067143D01*
X150912381Y-98495714D01*
X149912381Y-98495714D01*
X149912381Y-98114762D02*
X149912381Y-97495714D01*
X150293333Y-97829048D01*
X150293333Y-97686190D01*
X150340952Y-97590952D01*
X150388571Y-97543333D01*
X150483810Y-97495714D01*
X150721905Y-97495714D01*
X150817143Y-97543333D01*
X150864762Y-97590952D01*
X150912381Y-97686190D01*
X150912381Y-97971905D01*
X150864762Y-98067143D01*
X150817143Y-98114762D01*
X151007619Y-97305238D02*
X151007619Y-96543333D01*
X150912381Y-96305238D02*
X149912381Y-96305238D01*
X149912381Y-95924285D01*
X149960000Y-95829047D01*
X150007619Y-95781428D01*
X150102857Y-95733809D01*
X150245714Y-95733809D01*
X150340952Y-95781428D01*
X150388571Y-95829047D01*
X150436190Y-95924285D01*
X150436190Y-96305238D01*
X150912381Y-95305238D02*
X149912381Y-95305238D01*
X150912381Y-94829048D02*
X149912381Y-94829048D01*
X150912381Y-94257619D01*
X149912381Y-94257619D01*
X150912381Y-93257619D02*
X150912381Y-93829048D01*
X150912381Y-93543334D02*
X149912381Y-93543334D01*
X150055238Y-93638572D01*
X150150476Y-93733810D01*
X150198095Y-93829048D01*
X149511905Y-92602381D02*
X149511905Y-91602381D01*
X149892858Y-91602381D01*
X149988096Y-91650000D01*
X150035715Y-91697619D01*
X150083334Y-91792857D01*
X150083334Y-91935714D01*
X150035715Y-92030952D01*
X149988096Y-92078571D01*
X149892858Y-92126190D01*
X149511905Y-92126190D01*
X150654762Y-92030952D02*
X150559524Y-91983333D01*
X150511905Y-91935714D01*
X150464286Y-91840476D01*
X150464286Y-91792857D01*
X150511905Y-91697619D01*
X150559524Y-91650000D01*
X150654762Y-91602381D01*
X150845239Y-91602381D01*
X150940477Y-91650000D01*
X150988096Y-91697619D01*
X151035715Y-91792857D01*
X151035715Y-91840476D01*
X150988096Y-91935714D01*
X150940477Y-91983333D01*
X150845239Y-92030952D01*
X150654762Y-92030952D01*
X150559524Y-92078571D01*
X150511905Y-92126190D01*
X150464286Y-92221429D01*
X150464286Y-92411905D01*
X150511905Y-92507143D01*
X150559524Y-92554762D01*
X150654762Y-92602381D01*
X150845239Y-92602381D01*
X150940477Y-92554762D01*
X150988096Y-92507143D01*
X151035715Y-92411905D01*
X151035715Y-92221429D01*
X150988096Y-92126190D01*
X150940477Y-92078571D01*
X150845239Y-92030952D01*
X150527143Y-88673333D02*
X150574762Y-88720952D01*
X150622381Y-88863809D01*
X150622381Y-88959047D01*
X150574762Y-89101905D01*
X150479524Y-89197143D01*
X150384286Y-89244762D01*
X150193810Y-89292381D01*
X150050952Y-89292381D01*
X149860476Y-89244762D01*
X149765238Y-89197143D01*
X149670000Y-89101905D01*
X149622381Y-88959047D01*
X149622381Y-88863809D01*
X149670000Y-88720952D01*
X149717619Y-88673333D01*
X149622381Y-88054286D02*
X149622381Y-87863809D01*
X149670000Y-87768571D01*
X149765238Y-87673333D01*
X149955714Y-87625714D01*
X150289048Y-87625714D01*
X150479524Y-87673333D01*
X150574762Y-87768571D01*
X150622381Y-87863809D01*
X150622381Y-88054286D01*
X150574762Y-88149524D01*
X150479524Y-88244762D01*
X150289048Y-88292381D01*
X149955714Y-88292381D01*
X149765238Y-88244762D01*
X149670000Y-88149524D01*
X149622381Y-88054286D01*
X150622381Y-87197143D02*
X149622381Y-87197143D01*
X150622381Y-86625714D01*
X149622381Y-86625714D01*
X149622381Y-86244762D02*
X149622381Y-85625714D01*
X150003333Y-85959048D01*
X150003333Y-85816190D01*
X150050952Y-85720952D01*
X150098571Y-85673333D01*
X150193810Y-85625714D01*
X150431905Y-85625714D01*
X150527143Y-85673333D01*
X150574762Y-85720952D01*
X150622381Y-85816190D01*
X150622381Y-86101905D01*
X150574762Y-86197143D01*
X150527143Y-86244762D01*
X150717619Y-85435238D02*
X150717619Y-84673333D01*
X150622381Y-84435238D02*
X149622381Y-84435238D01*
X149622381Y-84054285D01*
X149670000Y-83959047D01*
X149717619Y-83911428D01*
X149812857Y-83863809D01*
X149955714Y-83863809D01*
X150050952Y-83911428D01*
X150098571Y-83959047D01*
X150146190Y-84054285D01*
X150146190Y-84435238D01*
X150622381Y-83435238D02*
X149622381Y-83435238D01*
X150622381Y-82959048D02*
X149622381Y-82959048D01*
X150622381Y-82387619D01*
X149622381Y-82387619D01*
X149622381Y-82006667D02*
X149622381Y-81387619D01*
X150003333Y-81720953D01*
X150003333Y-81578095D01*
X150050952Y-81482857D01*
X150098571Y-81435238D01*
X150193810Y-81387619D01*
X150431905Y-81387619D01*
X150527143Y-81435238D01*
X150574762Y-81482857D01*
X150622381Y-81578095D01*
X150622381Y-81863810D01*
X150574762Y-81959048D01*
X150527143Y-82006667D01*
X149281905Y-81162381D02*
X149281905Y-80162381D01*
X149662858Y-80162381D01*
X149758096Y-80210000D01*
X149805715Y-80257619D01*
X149853334Y-80352857D01*
X149853334Y-80495714D01*
X149805715Y-80590952D01*
X149758096Y-80638571D01*
X149662858Y-80686190D01*
X149281905Y-80686190D01*
X150329524Y-81162381D02*
X150520000Y-81162381D01*
X150615239Y-81114762D01*
X150662858Y-81067143D01*
X150758096Y-80924286D01*
X150805715Y-80733810D01*
X150805715Y-80352857D01*
X150758096Y-80257619D01*
X150710477Y-80210000D01*
X150615239Y-80162381D01*
X150424762Y-80162381D01*
X150329524Y-80210000D01*
X150281905Y-80257619D01*
X150234286Y-80352857D01*
X150234286Y-80590952D01*
X150281905Y-80686190D01*
X150329524Y-80733810D01*
X150424762Y-80781429D01*
X150615239Y-80781429D01*
X150710477Y-80733810D01*
X150758096Y-80686190D01*
X150805715Y-80590952D01*
X153979524Y-77492381D02*
X153408095Y-77492381D01*
X153693809Y-77492381D02*
X153693809Y-76492381D01*
X153598571Y-76635238D01*
X153503333Y-76730476D01*
X153408095Y-76778095D01*
X154598571Y-76492381D02*
X154693810Y-76492381D01*
X154789048Y-76540000D01*
X154836667Y-76587619D01*
X154884286Y-76682857D01*
X154931905Y-76873333D01*
X154931905Y-77111429D01*
X154884286Y-77301905D01*
X154836667Y-77397143D01*
X154789048Y-77444762D01*
X154693810Y-77492381D01*
X154598571Y-77492381D01*
X154503333Y-77444762D01*
X154455714Y-77397143D01*
X154408095Y-77301905D01*
X154360476Y-77111429D01*
X154360476Y-76873333D01*
X154408095Y-76682857D01*
X154455714Y-76587619D01*
X154503333Y-76540000D01*
X154598571Y-76492381D01*
X155360476Y-77492381D02*
X155360476Y-76492381D01*
X155931905Y-77492381D02*
X155503333Y-76920952D01*
X155931905Y-76492381D02*
X155360476Y-77063810D01*
D12*
X154536667Y-78776190D02*
X154370000Y-78538095D01*
X154250953Y-78776190D02*
X154250953Y-78276190D01*
X154441429Y-78276190D01*
X154489048Y-78300000D01*
X154512857Y-78323810D01*
X154536667Y-78371429D01*
X154536667Y-78442857D01*
X154512857Y-78490476D01*
X154489048Y-78514286D01*
X154441429Y-78538095D01*
X154250953Y-78538095D01*
X154989048Y-78276190D02*
X154750953Y-78276190D01*
X154727143Y-78514286D01*
X154750953Y-78490476D01*
X154798572Y-78466667D01*
X154917619Y-78466667D01*
X154965238Y-78490476D01*
X154989048Y-78514286D01*
X155012857Y-78561905D01*
X155012857Y-78680952D01*
X154989048Y-78728571D01*
X154965238Y-78752381D01*
X154917619Y-78776190D01*
X154798572Y-78776190D01*
X154750953Y-78752381D01*
X154727143Y-78728571D01*
D11*
X150129524Y-64272381D02*
X149558095Y-64272381D01*
X149843809Y-64272381D02*
X149843809Y-63272381D01*
X149748571Y-63415238D01*
X149653333Y-63510476D01*
X149558095Y-63558095D01*
X150748571Y-63272381D02*
X150843810Y-63272381D01*
X150939048Y-63320000D01*
X150986667Y-63367619D01*
X151034286Y-63462857D01*
X151081905Y-63653333D01*
X151081905Y-63891429D01*
X151034286Y-64081905D01*
X150986667Y-64177143D01*
X150939048Y-64224762D01*
X150843810Y-64272381D01*
X150748571Y-64272381D01*
X150653333Y-64224762D01*
X150605714Y-64177143D01*
X150558095Y-64081905D01*
X150510476Y-63891429D01*
X150510476Y-63653333D01*
X150558095Y-63462857D01*
X150605714Y-63367619D01*
X150653333Y-63320000D01*
X150748571Y-63272381D01*
X151510476Y-64272381D02*
X151510476Y-63272381D01*
X152081905Y-64272381D02*
X151653333Y-63700952D01*
X152081905Y-63272381D02*
X151510476Y-63843810D01*
D12*
X154566667Y-63926190D02*
X154400000Y-63688095D01*
X154280953Y-63926190D02*
X154280953Y-63426190D01*
X154471429Y-63426190D01*
X154519048Y-63450000D01*
X154542857Y-63473810D01*
X154566667Y-63521429D01*
X154566667Y-63592857D01*
X154542857Y-63640476D01*
X154519048Y-63664286D01*
X154471429Y-63688095D01*
X154280953Y-63688095D01*
X154995238Y-63426190D02*
X154900000Y-63426190D01*
X154852381Y-63450000D01*
X154828572Y-63473810D01*
X154780953Y-63545238D01*
X154757143Y-63640476D01*
X154757143Y-63830952D01*
X154780953Y-63878571D01*
X154804762Y-63902381D01*
X154852381Y-63926190D01*
X154947619Y-63926190D01*
X154995238Y-63902381D01*
X155019048Y-63878571D01*
X155042857Y-63830952D01*
X155042857Y-63711905D01*
X155019048Y-63664286D01*
X154995238Y-63640476D01*
X154947619Y-63616667D01*
X154852381Y-63616667D01*
X154804762Y-63640476D01*
X154780953Y-63664286D01*
X154757143Y-63711905D01*
D11*
X85003809Y-59928571D02*
X84670475Y-59928571D01*
X84670475Y-60452381D02*
X84670475Y-59452381D01*
X85146666Y-59452381D01*
X85956190Y-60452381D02*
X85956190Y-59928571D01*
X85908571Y-59833333D01*
X85813333Y-59785714D01*
X85622856Y-59785714D01*
X85527618Y-59833333D01*
X85956190Y-60404762D02*
X85860952Y-60452381D01*
X85622856Y-60452381D01*
X85527618Y-60404762D01*
X85479999Y-60309524D01*
X85479999Y-60214286D01*
X85527618Y-60119048D01*
X85622856Y-60071429D01*
X85860952Y-60071429D01*
X85956190Y-60023810D01*
X86432380Y-60452381D02*
X86432380Y-59452381D01*
X86432380Y-59833333D02*
X86527618Y-59785714D01*
X86718095Y-59785714D01*
X86813333Y-59833333D01*
X86860952Y-59880952D01*
X86908571Y-59976190D01*
X86908571Y-60261905D01*
X86860952Y-60357143D01*
X86813333Y-60404762D01*
X86718095Y-60452381D01*
X86527618Y-60452381D01*
X86432380Y-60404762D01*
X88099047Y-60452381D02*
X88099047Y-59452381D01*
X88337142Y-59452381D01*
X88480000Y-59500000D01*
X88575238Y-59595238D01*
X88622857Y-59690476D01*
X88670476Y-59880952D01*
X88670476Y-60023810D01*
X88622857Y-60214286D01*
X88575238Y-60309524D01*
X88480000Y-60404762D01*
X88337142Y-60452381D01*
X88099047Y-60452381D01*
X89480000Y-60404762D02*
X89384762Y-60452381D01*
X89194285Y-60452381D01*
X89099047Y-60404762D01*
X89051428Y-60309524D01*
X89051428Y-59928571D01*
X89099047Y-59833333D01*
X89194285Y-59785714D01*
X89384762Y-59785714D01*
X89480000Y-59833333D01*
X89527619Y-59928571D01*
X89527619Y-60023810D01*
X89051428Y-60119048D01*
X89813333Y-59785714D02*
X90194285Y-59785714D01*
X89956190Y-59452381D02*
X89956190Y-60309524D01*
X90003809Y-60404762D01*
X90099047Y-60452381D01*
X90194285Y-60452381D01*
X90956191Y-60452381D02*
X90956191Y-59928571D01*
X90908572Y-59833333D01*
X90813334Y-59785714D01*
X90622857Y-59785714D01*
X90527619Y-59833333D01*
X90956191Y-60404762D02*
X90860953Y-60452381D01*
X90622857Y-60452381D01*
X90527619Y-60404762D01*
X90480000Y-60309524D01*
X90480000Y-60214286D01*
X90527619Y-60119048D01*
X90622857Y-60071429D01*
X90860953Y-60071429D01*
X90956191Y-60023810D01*
X91432381Y-60452381D02*
X91432381Y-59785714D01*
X91432381Y-59452381D02*
X91384762Y-59500000D01*
X91432381Y-59547619D01*
X91480000Y-59500000D01*
X91432381Y-59452381D01*
X91432381Y-59547619D01*
X92051428Y-60452381D02*
X91956190Y-60404762D01*
X91908571Y-60309524D01*
X91908571Y-59452381D01*
X92384762Y-60404762D02*
X92480000Y-60452381D01*
X92670476Y-60452381D01*
X92765715Y-60404762D01*
X92813334Y-60309524D01*
X92813334Y-60261905D01*
X92765715Y-60166667D01*
X92670476Y-60119048D01*
X92527619Y-60119048D01*
X92432381Y-60071429D01*
X92384762Y-59976190D01*
X92384762Y-59928571D01*
X92432381Y-59833333D01*
X92527619Y-59785714D01*
X92670476Y-59785714D01*
X92765715Y-59833333D01*
X93860953Y-59785714D02*
X94241905Y-59785714D01*
X94003810Y-59452381D02*
X94003810Y-60309524D01*
X94051429Y-60404762D01*
X94146667Y-60452381D01*
X94241905Y-60452381D01*
X95003811Y-60452381D02*
X95003811Y-59928571D01*
X94956192Y-59833333D01*
X94860954Y-59785714D01*
X94670477Y-59785714D01*
X94575239Y-59833333D01*
X95003811Y-60404762D02*
X94908573Y-60452381D01*
X94670477Y-60452381D01*
X94575239Y-60404762D01*
X94527620Y-60309524D01*
X94527620Y-60214286D01*
X94575239Y-60119048D01*
X94670477Y-60071429D01*
X94908573Y-60071429D01*
X95003811Y-60023810D01*
X95480001Y-60452381D02*
X95480001Y-59452381D01*
X95480001Y-59833333D02*
X95575239Y-59785714D01*
X95765716Y-59785714D01*
X95860954Y-59833333D01*
X95908573Y-59880952D01*
X95956192Y-59976190D01*
X95956192Y-60261905D01*
X95908573Y-60357143D01*
X95860954Y-60404762D01*
X95765716Y-60452381D01*
X95575239Y-60452381D01*
X95480001Y-60404762D01*
X96527620Y-60452381D02*
X96432382Y-60404762D01*
X96384763Y-60309524D01*
X96384763Y-59452381D01*
X97289526Y-60404762D02*
X97194288Y-60452381D01*
X97003811Y-60452381D01*
X96908573Y-60404762D01*
X96860954Y-60309524D01*
X96860954Y-59928571D01*
X96908573Y-59833333D01*
X97003811Y-59785714D01*
X97194288Y-59785714D01*
X97289526Y-59833333D01*
X97337145Y-59928571D01*
X97337145Y-60023810D01*
X96860954Y-60119048D01*
M02*
