G04 #@! TF.FileFunction,Drawing*
%FSLAX46Y46*%
G04 Gerber Fmt 4.6, Leading zero omitted, Abs format (unit mm)*
G04 Created by KiCad (PCBNEW 4.0.4-stable) date 04/21/17 11:27:43*
%MOMM*%
%LPD*%
G01*
G04 APERTURE LIST*
%ADD10C,0.100000*%
%ADD11C,0.300000*%
%ADD12C,0.200000*%
%ADD13C,0.150000*%
G04 APERTURE END LIST*
D10*
D11*
X127791430Y-73100716D02*
X127791430Y-72386430D01*
X127077144Y-72315001D01*
X127148572Y-72386430D01*
X127220001Y-72529287D01*
X127220001Y-72886430D01*
X127148572Y-73029287D01*
X127077144Y-73100716D01*
X126934287Y-73172144D01*
X126577144Y-73172144D01*
X126434287Y-73100716D01*
X126362858Y-73029287D01*
X126291430Y-72886430D01*
X126291430Y-72529287D01*
X126362858Y-72386430D01*
X126434287Y-72315001D01*
X127791430Y-73672144D02*
X127791430Y-74600715D01*
X127220001Y-74100715D01*
X127220001Y-74315001D01*
X127148572Y-74457858D01*
X127077144Y-74529287D01*
X126934287Y-74600715D01*
X126577144Y-74600715D01*
X126434287Y-74529287D01*
X126362858Y-74457858D01*
X126291430Y-74315001D01*
X126291430Y-73886429D01*
X126362858Y-73743572D01*
X126434287Y-73672144D01*
X126434287Y-75243572D02*
X126362858Y-75315000D01*
X126291430Y-75243572D01*
X126362858Y-75172143D01*
X126434287Y-75243572D01*
X126291430Y-75243572D01*
X127791430Y-75815001D02*
X127791430Y-76743572D01*
X127220001Y-76243572D01*
X127220001Y-76457858D01*
X127148572Y-76600715D01*
X127077144Y-76672144D01*
X126934287Y-76743572D01*
X126577144Y-76743572D01*
X126434287Y-76672144D01*
X126362858Y-76600715D01*
X126291430Y-76457858D01*
X126291430Y-76029286D01*
X126362858Y-75886429D01*
X126434287Y-75815001D01*
X127791430Y-77672143D02*
X127791430Y-77815000D01*
X127720001Y-77957857D01*
X127648572Y-78029286D01*
X127505715Y-78100715D01*
X127220001Y-78172143D01*
X126862858Y-78172143D01*
X126577144Y-78100715D01*
X126434287Y-78029286D01*
X126362858Y-77957857D01*
X126291430Y-77815000D01*
X126291430Y-77672143D01*
X126362858Y-77529286D01*
X126434287Y-77457857D01*
X126577144Y-77386429D01*
X126862858Y-77315000D01*
X127220001Y-77315000D01*
X127505715Y-77386429D01*
X127648572Y-77457857D01*
X127720001Y-77529286D01*
X127791430Y-77672143D01*
X126291430Y-79957857D02*
X127291430Y-79957857D01*
X127148572Y-79957857D02*
X127220001Y-80029285D01*
X127291430Y-80172143D01*
X127291430Y-80386428D01*
X127220001Y-80529285D01*
X127077144Y-80600714D01*
X126291430Y-80600714D01*
X127077144Y-80600714D02*
X127220001Y-80672143D01*
X127291430Y-80815000D01*
X127291430Y-81029285D01*
X127220001Y-81172143D01*
X127077144Y-81243571D01*
X126291430Y-81243571D01*
X126291430Y-81957857D02*
X127291430Y-81957857D01*
X127148572Y-81957857D02*
X127220001Y-82029285D01*
X127291430Y-82172143D01*
X127291430Y-82386428D01*
X127220001Y-82529285D01*
X127077144Y-82600714D01*
X126291430Y-82600714D01*
X127077144Y-82600714D02*
X127220001Y-82672143D01*
X127291430Y-82815000D01*
X127291430Y-83029285D01*
X127220001Y-83172143D01*
X127077144Y-83243571D01*
X126291430Y-83243571D01*
X128320001Y-51160000D02*
X128320001Y-104470000D01*
X135860000Y-51160000D02*
X125620001Y-51160000D01*
X135860000Y-104470000D02*
X125620001Y-104470000D01*
X128320001Y-104470000D02*
X127733580Y-103343496D01*
X128320001Y-104470000D02*
X128906422Y-103343496D01*
X128320001Y-51160000D02*
X127733580Y-52286504D01*
X128320001Y-51160000D02*
X128906422Y-52286504D01*
X186454976Y-120383857D02*
X185597833Y-120383932D01*
X186026405Y-120383894D02*
X186026273Y-118883894D01*
X185883434Y-119098193D01*
X185740589Y-119241063D01*
X185597738Y-119312504D01*
X187883547Y-120383731D02*
X187026404Y-120383806D01*
X187454976Y-120383768D02*
X187454844Y-118883768D01*
X187312005Y-119098067D01*
X187169160Y-119240937D01*
X187026309Y-119312378D01*
X188383415Y-118883686D02*
X189311986Y-118883605D01*
X188812036Y-119455078D01*
X189026322Y-119455059D01*
X189169185Y-119526475D01*
X189240621Y-119597897D01*
X189312061Y-119740748D01*
X189312093Y-120097891D01*
X189240677Y-120240754D01*
X189169255Y-120312189D01*
X189026404Y-120383630D01*
X188597832Y-120383668D01*
X188454969Y-120312252D01*
X188383534Y-120240829D01*
X189954962Y-120240691D02*
X190026397Y-120312114D01*
X189954975Y-120383548D01*
X189883540Y-120312126D01*
X189954962Y-120240691D01*
X189954975Y-120383548D01*
X190526272Y-118883497D02*
X191454843Y-118883416D01*
X190954893Y-119454889D01*
X191169179Y-119454870D01*
X191312042Y-119526286D01*
X191383478Y-119597708D01*
X191454918Y-119740559D01*
X191454950Y-120097702D01*
X191383534Y-120240565D01*
X191312112Y-120312000D01*
X191169261Y-120383441D01*
X190740689Y-120383479D01*
X190597826Y-120312063D01*
X190526391Y-120240640D01*
X192312042Y-119526198D02*
X192169178Y-119454782D01*
X192097744Y-119383359D01*
X192026302Y-119240508D01*
X192026296Y-119169080D01*
X192097712Y-119026217D01*
X192169134Y-118954782D01*
X192311986Y-118883340D01*
X192597700Y-118883315D01*
X192740563Y-118954731D01*
X192811998Y-119026154D01*
X192883439Y-119169004D01*
X192883445Y-119240432D01*
X192812030Y-119383296D01*
X192740607Y-119454731D01*
X192597756Y-119526173D01*
X192312042Y-119526198D01*
X192169191Y-119597639D01*
X192097769Y-119669074D01*
X192026352Y-119811937D01*
X192026378Y-120097651D01*
X192097819Y-120240502D01*
X192169254Y-120311925D01*
X192312118Y-120383340D01*
X192597832Y-120383315D01*
X192740683Y-120311874D01*
X192812105Y-120240439D01*
X192883521Y-120097575D01*
X192883495Y-119811861D01*
X192812055Y-119669011D01*
X192740620Y-119597588D01*
X192597756Y-119526173D01*
X193811985Y-118883208D02*
X193954842Y-118883195D01*
X194097705Y-118954611D01*
X194169140Y-119026034D01*
X194240582Y-119168885D01*
X194312035Y-119454592D01*
X194312066Y-119811735D01*
X194240664Y-120097456D01*
X194169247Y-120240319D01*
X194097825Y-120311754D01*
X193954974Y-120383195D01*
X193812117Y-120383208D01*
X193669254Y-120311792D01*
X193597818Y-120240369D01*
X193526378Y-120097519D01*
X193454923Y-119811811D01*
X193454892Y-119454668D01*
X193526296Y-119168948D01*
X193597711Y-119026084D01*
X193669134Y-118954649D01*
X193811985Y-118883208D01*
X196097831Y-120383006D02*
X196097743Y-119383006D01*
X196097755Y-119525864D02*
X196169177Y-119454429D01*
X196312029Y-119382987D01*
X196526314Y-119382968D01*
X196669177Y-119454385D01*
X196740619Y-119597235D01*
X196740688Y-120382949D01*
X196740619Y-119597235D02*
X196812035Y-119454372D01*
X196954886Y-119382930D01*
X197169171Y-119382911D01*
X197312035Y-119454328D01*
X197383476Y-119597178D01*
X197383545Y-120382892D01*
X198097831Y-120382829D02*
X198097743Y-119382829D01*
X198097755Y-119525687D02*
X198169177Y-119454252D01*
X198312029Y-119382811D01*
X198526314Y-119382792D01*
X198669177Y-119454208D01*
X198740619Y-119597059D01*
X198740688Y-120382773D01*
X198740619Y-119597059D02*
X198812035Y-119454195D01*
X198954886Y-119382754D01*
X199169171Y-119382735D01*
X199312035Y-119454151D01*
X199383476Y-119597002D01*
X199383545Y-120382716D01*
X249201224Y-118349750D02*
X135851224Y-118359750D01*
X249200000Y-104480000D02*
X249201462Y-121049750D01*
X135850000Y-104490000D02*
X135851462Y-121059750D01*
X135851224Y-118359750D02*
X136977676Y-117773230D01*
X135851224Y-118359750D02*
X136977779Y-118946071D01*
X249201224Y-118349750D02*
X248074669Y-117763429D01*
X249201224Y-118349750D02*
X248074772Y-118936270D01*
D12*
X103701905Y-66502381D02*
X103130476Y-66502381D01*
X103416190Y-66502381D02*
X103416190Y-65502381D01*
X103320952Y-65645238D01*
X103225714Y-65740476D01*
X103130476Y-65788095D01*
X104654286Y-66502381D02*
X104082857Y-66502381D01*
X104368571Y-66502381D02*
X104368571Y-65502381D01*
X104273333Y-65645238D01*
X104178095Y-65740476D01*
X104082857Y-65788095D01*
X104987619Y-65502381D02*
X105606667Y-65502381D01*
X105273333Y-65883333D01*
X105416191Y-65883333D01*
X105511429Y-65930952D01*
X105559048Y-65978571D01*
X105606667Y-66073810D01*
X105606667Y-66311905D01*
X105559048Y-66407143D01*
X105511429Y-66454762D01*
X105416191Y-66502381D01*
X105130476Y-66502381D01*
X105035238Y-66454762D01*
X104987619Y-66407143D01*
X106035238Y-66407143D02*
X106082857Y-66454762D01*
X106035238Y-66502381D01*
X105987619Y-66454762D01*
X106035238Y-66407143D01*
X106035238Y-66502381D01*
X106416190Y-65502381D02*
X107035238Y-65502381D01*
X106701904Y-65883333D01*
X106844762Y-65883333D01*
X106940000Y-65930952D01*
X106987619Y-65978571D01*
X107035238Y-66073810D01*
X107035238Y-66311905D01*
X106987619Y-66407143D01*
X106940000Y-66454762D01*
X106844762Y-66502381D01*
X106559047Y-66502381D01*
X106463809Y-66454762D01*
X106416190Y-66407143D01*
X107606666Y-65930952D02*
X107511428Y-65883333D01*
X107463809Y-65835714D01*
X107416190Y-65740476D01*
X107416190Y-65692857D01*
X107463809Y-65597619D01*
X107511428Y-65550000D01*
X107606666Y-65502381D01*
X107797143Y-65502381D01*
X107892381Y-65550000D01*
X107940000Y-65597619D01*
X107987619Y-65692857D01*
X107987619Y-65740476D01*
X107940000Y-65835714D01*
X107892381Y-65883333D01*
X107797143Y-65930952D01*
X107606666Y-65930952D01*
X107511428Y-65978571D01*
X107463809Y-66026190D01*
X107416190Y-66121429D01*
X107416190Y-66311905D01*
X107463809Y-66407143D01*
X107511428Y-66454762D01*
X107606666Y-66502381D01*
X107797143Y-66502381D01*
X107892381Y-66454762D01*
X107940000Y-66407143D01*
X107987619Y-66311905D01*
X107987619Y-66121429D01*
X107940000Y-66026190D01*
X107892381Y-65978571D01*
X107797143Y-65930952D01*
X109082857Y-65502381D02*
X109749524Y-66502381D01*
X109749524Y-65502381D02*
X109082857Y-66502381D01*
X111368572Y-65502381D02*
X110892381Y-65502381D01*
X110844762Y-65978571D01*
X110892381Y-65930952D01*
X110987619Y-65883333D01*
X111225715Y-65883333D01*
X111320953Y-65930952D01*
X111368572Y-65978571D01*
X111416191Y-66073810D01*
X111416191Y-66311905D01*
X111368572Y-66407143D01*
X111320953Y-66454762D01*
X111225715Y-66502381D01*
X110987619Y-66502381D01*
X110892381Y-66454762D01*
X110844762Y-66407143D01*
X111749524Y-65502381D02*
X112368572Y-65502381D01*
X112035238Y-65883333D01*
X112178096Y-65883333D01*
X112273334Y-65930952D01*
X112320953Y-65978571D01*
X112368572Y-66073810D01*
X112368572Y-66311905D01*
X112320953Y-66407143D01*
X112273334Y-66454762D01*
X112178096Y-66502381D01*
X111892381Y-66502381D01*
X111797143Y-66454762D01*
X111749524Y-66407143D01*
X112797143Y-66407143D02*
X112844762Y-66454762D01*
X112797143Y-66502381D01*
X112749524Y-66454762D01*
X112797143Y-66407143D01*
X112797143Y-66502381D01*
X113178095Y-65502381D02*
X113797143Y-65502381D01*
X113463809Y-65883333D01*
X113606667Y-65883333D01*
X113701905Y-65930952D01*
X113749524Y-65978571D01*
X113797143Y-66073810D01*
X113797143Y-66311905D01*
X113749524Y-66407143D01*
X113701905Y-66454762D01*
X113606667Y-66502381D01*
X113320952Y-66502381D01*
X113225714Y-66454762D01*
X113178095Y-66407143D01*
X114130476Y-65502381D02*
X114749524Y-65502381D01*
X114416190Y-65883333D01*
X114559048Y-65883333D01*
X114654286Y-65930952D01*
X114701905Y-65978571D01*
X114749524Y-66073810D01*
X114749524Y-66311905D01*
X114701905Y-66407143D01*
X114654286Y-66454762D01*
X114559048Y-66502381D01*
X114273333Y-66502381D01*
X114178095Y-66454762D01*
X114130476Y-66407143D01*
D11*
X190545727Y-46020406D02*
X190831442Y-46020288D01*
X190974269Y-45948801D01*
X191045667Y-45877342D01*
X191188437Y-45662998D01*
X191259746Y-45377253D01*
X191259509Y-44805825D01*
X191188022Y-44662998D01*
X191116564Y-44591599D01*
X190973677Y-44520229D01*
X190687963Y-44520347D01*
X190545135Y-44591835D01*
X190473736Y-44663294D01*
X190402366Y-44806181D01*
X190402514Y-45163324D01*
X190474003Y-45306151D01*
X190545460Y-45377549D01*
X190688348Y-45448919D01*
X190974062Y-45448801D01*
X191116889Y-45377313D01*
X191188289Y-45305855D01*
X191259657Y-45162968D01*
X192545105Y-44519577D02*
X192259391Y-44519696D01*
X192116563Y-44591184D01*
X192045164Y-44662643D01*
X191902396Y-44876987D01*
X191831085Y-45162731D01*
X191831322Y-45734159D01*
X191902810Y-45876987D01*
X191974268Y-45948386D01*
X192117156Y-46019755D01*
X192402870Y-46019637D01*
X192545697Y-45948149D01*
X192617096Y-45876691D01*
X192688465Y-45733804D01*
X192688317Y-45376661D01*
X192616830Y-45233834D01*
X192545371Y-45162435D01*
X192402485Y-45091066D01*
X192116771Y-45091184D01*
X191973942Y-45162672D01*
X191902544Y-45234130D01*
X191831174Y-45377016D01*
X193331381Y-45876395D02*
X193402839Y-45947794D01*
X193331440Y-46019252D01*
X193259982Y-45947853D01*
X193331381Y-45876395D01*
X193331440Y-46019252D01*
X194759391Y-44518660D02*
X194045105Y-44518956D01*
X193973972Y-45233271D01*
X194045371Y-45161814D01*
X194188199Y-45090326D01*
X194545342Y-45090178D01*
X194688228Y-45161547D01*
X194759687Y-45232946D01*
X194831174Y-45375773D01*
X194831322Y-45732916D01*
X194759953Y-45875803D01*
X194688554Y-45947261D01*
X194545726Y-46018748D01*
X194188583Y-46018896D01*
X194045697Y-45947528D01*
X193974238Y-45876128D01*
X195402306Y-44661251D02*
X195473705Y-44589793D01*
X195616533Y-44518304D01*
X195973676Y-44518156D01*
X196116562Y-44589526D01*
X196188021Y-44660926D01*
X196259508Y-44803753D01*
X196259567Y-44946610D01*
X196188228Y-45160926D01*
X195331440Y-46018423D01*
X196260011Y-46018038D01*
X198045725Y-46017298D02*
X198045311Y-45017298D01*
X198045370Y-45160156D02*
X198116768Y-45088697D01*
X198259597Y-45017209D01*
X198473882Y-45017120D01*
X198616768Y-45088490D01*
X198688256Y-45231317D01*
X198688582Y-46017031D01*
X198688256Y-45231317D02*
X198759626Y-45088431D01*
X198902454Y-45016943D01*
X199116739Y-45016854D01*
X199259626Y-45088224D01*
X199331113Y-45231051D01*
X199331439Y-46016765D01*
X200045725Y-46016469D02*
X200045310Y-45016469D01*
X200045370Y-45159327D02*
X200116768Y-45087868D01*
X200259596Y-45016380D01*
X200473881Y-45016291D01*
X200616768Y-45087661D01*
X200688256Y-45230488D01*
X200688582Y-46016202D01*
X200688256Y-45230488D02*
X200759626Y-45087602D01*
X200902453Y-45016114D01*
X201116738Y-45016025D01*
X201259626Y-45087395D01*
X201331113Y-45230222D01*
X201331439Y-46015936D01*
X147648147Y-46709615D02*
X244158147Y-46669615D01*
X147650000Y-51180000D02*
X147647028Y-44009615D01*
X244160000Y-51140000D02*
X244157028Y-43969615D01*
X244158147Y-46669615D02*
X243031886Y-47256503D01*
X244158147Y-46669615D02*
X243031400Y-46083661D01*
X147648147Y-46709615D02*
X148774894Y-47295569D01*
X147648147Y-46709615D02*
X148774408Y-46122727D01*
X258886951Y-60363328D02*
X258878834Y-61220433D01*
X258882892Y-60791880D02*
X257382960Y-60777674D01*
X257595883Y-60922554D01*
X257737381Y-61066759D01*
X257807454Y-61210286D01*
X257535282Y-59779073D02*
X257464533Y-59706970D01*
X257394460Y-59563443D01*
X257397842Y-59206316D01*
X257470621Y-59064142D01*
X257542723Y-58993393D01*
X257686250Y-58923321D01*
X257829101Y-58924674D01*
X258042701Y-58998128D01*
X258891687Y-59863351D01*
X258900481Y-58934821D01*
X258763719Y-58290640D02*
X258835821Y-58219892D01*
X258906569Y-58291993D01*
X258834468Y-58362743D01*
X258763719Y-58290640D01*
X258906569Y-58291993D01*
X257412048Y-57706384D02*
X257421519Y-56706429D01*
X258915364Y-57363463D01*
X257429637Y-55849325D02*
X257430990Y-55706474D01*
X257503769Y-55564300D01*
X257575871Y-55493551D01*
X257719398Y-55423478D01*
X258005776Y-55354759D01*
X258362903Y-55358142D01*
X258647927Y-55432272D01*
X258790102Y-55505051D01*
X258860851Y-55577153D01*
X258930923Y-55720681D01*
X258929570Y-55863531D01*
X258856792Y-56005705D01*
X258784690Y-56076455D01*
X258641163Y-56146526D01*
X258354785Y-56215246D01*
X257997658Y-56211864D01*
X257712633Y-56137732D01*
X257570459Y-56064954D01*
X257499710Y-55992852D01*
X257429637Y-55849325D01*
X257443167Y-54420818D02*
X257444520Y-54277967D01*
X257517298Y-54135793D01*
X257589401Y-54065044D01*
X257732928Y-53994971D01*
X258019305Y-53926252D01*
X258376432Y-53929635D01*
X258661457Y-54003766D01*
X258803631Y-54076544D01*
X258874381Y-54148647D01*
X258944452Y-54292174D01*
X258943099Y-54435024D01*
X258870322Y-54577198D01*
X258798219Y-54647948D01*
X258654692Y-54718019D01*
X258368315Y-54786739D01*
X258011188Y-54783357D01*
X257726163Y-54709225D01*
X257583989Y-54636447D01*
X257513240Y-54564345D01*
X257443167Y-54420818D01*
X258964747Y-52149413D02*
X257964792Y-52139942D01*
X258107643Y-52141295D02*
X258036894Y-52069194D01*
X257966821Y-51925666D01*
X257968851Y-51711390D01*
X258041629Y-51569216D01*
X258185156Y-51499143D01*
X258970835Y-51506585D01*
X258185156Y-51499143D02*
X258042982Y-51426364D01*
X257972910Y-51282837D01*
X257974939Y-51068562D01*
X258047718Y-50926387D01*
X258191245Y-50856315D01*
X258976924Y-50863756D01*
X258983688Y-50149502D02*
X257983733Y-50140032D01*
X258126585Y-50141385D02*
X258055836Y-50069283D01*
X257985763Y-49925755D01*
X257987792Y-49711480D01*
X258060571Y-49569306D01*
X258204098Y-49499233D01*
X258989777Y-49506674D01*
X258204098Y-49499233D02*
X258061924Y-49426454D01*
X257991851Y-49282927D01*
X257993881Y-49068652D01*
X258066659Y-48926477D01*
X258210186Y-48856405D01*
X258995865Y-48863846D01*
X256849208Y-63926030D02*
X256969208Y-51256030D01*
X246710000Y-63830000D02*
X259549087Y-63951601D01*
X246830000Y-51160000D02*
X259669087Y-51281601D01*
X256969208Y-51256030D02*
X257544934Y-52388037D01*
X256969208Y-51256030D02*
X256372145Y-52376929D01*
X256849208Y-63926030D02*
X257446271Y-62805131D01*
X256849208Y-63926030D02*
X256273482Y-62794023D01*
X257459079Y-91702220D02*
X257459812Y-90773649D01*
X258030846Y-91274100D01*
X258031016Y-91059814D01*
X258102557Y-90917013D01*
X258174042Y-90845641D01*
X258316955Y-90774326D01*
X258674098Y-90774607D01*
X258816898Y-90846148D01*
X258888271Y-90917633D01*
X258959586Y-91060547D01*
X258959248Y-91489119D01*
X258887707Y-91631919D01*
X258816222Y-91703291D01*
X258103346Y-89917014D02*
X258031805Y-90059815D01*
X257960319Y-90131187D01*
X257817406Y-90202503D01*
X257745978Y-90202447D01*
X257603177Y-90130905D01*
X257531805Y-90059421D01*
X257460488Y-89916506D01*
X257460714Y-89630793D01*
X257532256Y-89487992D01*
X257603741Y-89416619D01*
X257746654Y-89345304D01*
X257818082Y-89345360D01*
X257960883Y-89416901D01*
X258032255Y-89488386D01*
X258103572Y-89631300D01*
X258103346Y-89917014D01*
X258174662Y-90059928D01*
X258246034Y-90131412D01*
X258388835Y-90202954D01*
X258674549Y-90203179D01*
X258817462Y-90131863D01*
X258888947Y-90060492D01*
X258960488Y-89917690D01*
X258960713Y-89631976D01*
X258889398Y-89489063D01*
X258818026Y-89417577D01*
X258675225Y-89346037D01*
X258389511Y-89345811D01*
X258246598Y-89417127D01*
X258175112Y-89488499D01*
X258103572Y-89631300D01*
X258818589Y-88703293D02*
X258890075Y-88631921D01*
X258961446Y-88703405D01*
X258889962Y-88774778D01*
X258818589Y-88703293D01*
X258961446Y-88703405D01*
X258962630Y-87203406D02*
X258961953Y-88060549D01*
X258962292Y-87631977D02*
X257462292Y-87630793D01*
X257676465Y-87773819D01*
X257819209Y-87916790D01*
X257890526Y-88059703D01*
X257463363Y-86273652D02*
X257463476Y-86130795D01*
X257535017Y-85987994D01*
X257606503Y-85916621D01*
X257749416Y-85845305D01*
X258035186Y-85774103D01*
X258392329Y-85774384D01*
X258677987Y-85846038D01*
X258820787Y-85917580D01*
X258892160Y-85989065D01*
X258963475Y-86131978D01*
X258963362Y-86274835D01*
X258891822Y-86417636D01*
X258820336Y-86489008D01*
X258677423Y-86560324D01*
X258391653Y-86631527D01*
X258034510Y-86631245D01*
X257748852Y-86559591D01*
X257606052Y-86488050D01*
X257534679Y-86416565D01*
X257463363Y-86273652D01*
X257464490Y-84845081D02*
X257464603Y-84702224D01*
X257536145Y-84559423D01*
X257607630Y-84488051D01*
X257750543Y-84416735D01*
X258036313Y-84345532D01*
X258393456Y-84345814D01*
X258679114Y-84417467D01*
X258821915Y-84489009D01*
X258893287Y-84560494D01*
X258964602Y-84703408D01*
X258964490Y-84846265D01*
X258892949Y-84989065D01*
X258821464Y-85060438D01*
X258678550Y-85131753D01*
X258392780Y-85202957D01*
X258035637Y-85202675D01*
X257749980Y-85131020D01*
X257607179Y-85059480D01*
X257535806Y-84987994D01*
X257464490Y-84845081D01*
X258966293Y-82560551D02*
X257966294Y-82559762D01*
X258109152Y-82559875D02*
X258037779Y-82488391D01*
X257966463Y-82345476D01*
X257966632Y-82131191D01*
X258038173Y-81988391D01*
X258181087Y-81917075D01*
X258966800Y-81917695D01*
X258181087Y-81917075D02*
X258038286Y-81845533D01*
X257966970Y-81702620D01*
X257967139Y-81488335D01*
X258038681Y-81345533D01*
X258181594Y-81274218D01*
X258967308Y-81274838D01*
X258967871Y-80560552D02*
X257967872Y-80559763D01*
X258110730Y-80559876D02*
X258039357Y-80488391D01*
X257968041Y-80345477D01*
X257968210Y-80131192D01*
X258039752Y-79988391D01*
X258182665Y-79917075D01*
X258968379Y-79917695D01*
X258182665Y-79917075D02*
X258039864Y-79845533D01*
X257968548Y-79702620D01*
X257968717Y-79488335D01*
X258040259Y-79345534D01*
X258183172Y-79274218D01*
X258968886Y-79274838D01*
X256920469Y-104426092D02*
X256950469Y-66406092D01*
X249200000Y-104420000D02*
X259620468Y-104428222D01*
X249230000Y-66400000D02*
X259650468Y-66408222D01*
X256950469Y-66406092D02*
X257536001Y-67533058D01*
X256950469Y-66406092D02*
X256363160Y-67532133D01*
X256920469Y-104426092D02*
X257507778Y-103300051D01*
X256920469Y-104426092D02*
X256334937Y-103299126D01*
X255424318Y-92420235D02*
X255434092Y-93348755D01*
X254857432Y-92854797D01*
X254859687Y-93069072D01*
X254789766Y-93212673D01*
X254719094Y-93284849D01*
X254576997Y-93357777D01*
X254219873Y-93361536D01*
X254076272Y-93291616D01*
X254004095Y-93220943D01*
X253931168Y-93078845D01*
X253926657Y-92650297D01*
X253996577Y-92506696D01*
X254067250Y-92434520D01*
X254083791Y-94005861D02*
X254013118Y-94078037D01*
X253940942Y-94007365D01*
X254011614Y-93935188D01*
X254083791Y-94005861D01*
X253940942Y-94007365D01*
X254807810Y-94926864D02*
X254877731Y-94783262D01*
X254948405Y-94711086D01*
X255090502Y-94638157D01*
X255161926Y-94637405D01*
X255305527Y-94707327D01*
X255377704Y-94777999D01*
X255450632Y-94920097D01*
X255453640Y-95205795D01*
X255383718Y-95349396D01*
X255313045Y-95421573D01*
X255170948Y-95494501D01*
X255099524Y-95495253D01*
X254955923Y-95425332D01*
X254883746Y-95354659D01*
X254810817Y-95212562D01*
X254807810Y-94926864D01*
X254734882Y-94784765D01*
X254662705Y-94714093D01*
X254519105Y-94644172D01*
X254233406Y-94647179D01*
X254091309Y-94720108D01*
X254020636Y-94792284D01*
X253950716Y-94935886D01*
X253953723Y-95221584D01*
X254026651Y-95363681D01*
X254098828Y-95434354D01*
X254242428Y-95504275D01*
X254528127Y-95501267D01*
X254670224Y-95428340D01*
X254740897Y-95356163D01*
X254810817Y-95212562D01*
X253971767Y-96935774D02*
X253962745Y-96078678D01*
X253967256Y-96507227D02*
X255467173Y-96491438D01*
X255251395Y-96350844D01*
X255107042Y-96209498D01*
X255034114Y-96067401D01*
X255481458Y-97848505D02*
X255482961Y-97991354D01*
X255413040Y-98134955D01*
X255342367Y-98207132D01*
X255200270Y-98280060D01*
X254915323Y-98354492D01*
X254558200Y-98358251D01*
X254271750Y-98289834D01*
X254128149Y-98219913D01*
X254055972Y-98149240D01*
X253983045Y-98007142D01*
X253981541Y-97864293D01*
X254051461Y-97720692D01*
X254122134Y-97648516D01*
X254264232Y-97575588D01*
X254549178Y-97501155D01*
X254906301Y-97497396D01*
X255192751Y-97565814D01*
X255336352Y-97635734D01*
X255408529Y-97706408D01*
X255481458Y-97848505D01*
X254005600Y-100149881D02*
X255005544Y-100139355D01*
X254862694Y-100140859D02*
X254934871Y-100211531D01*
X255007800Y-100353629D01*
X255010055Y-100567902D01*
X254940134Y-100711503D01*
X254798037Y-100784432D01*
X254012366Y-100792702D01*
X254798037Y-100784432D02*
X254941638Y-100854353D01*
X255014566Y-100996451D01*
X255016822Y-101210724D01*
X254946901Y-101354326D01*
X254804803Y-101427253D01*
X254019133Y-101435524D01*
X254026651Y-102149770D02*
X255026596Y-102139244D01*
X254883746Y-102140748D02*
X254955923Y-102211420D01*
X255028851Y-102353518D01*
X255031107Y-102567791D01*
X254961185Y-102711392D01*
X254819088Y-102784321D01*
X254033418Y-102792591D01*
X254819088Y-102784321D02*
X254962689Y-102854242D01*
X255035618Y-102996340D01*
X255037873Y-103210613D01*
X254967952Y-103354215D01*
X254825855Y-103427143D01*
X254040184Y-103435413D01*
X253331653Y-104457035D02*
X253291653Y-100657035D01*
X249250000Y-104500000D02*
X256031503Y-104428616D01*
X249210000Y-100700000D02*
X255991503Y-100628616D01*
X253291653Y-100657035D02*
X253889899Y-101777304D01*
X253291653Y-100657035D02*
X252717122Y-101789649D01*
X253331653Y-104457035D02*
X253906184Y-103324421D01*
X253331653Y-104457035D02*
X252733407Y-103336766D01*
X249839521Y-106368691D02*
X249825698Y-105511660D01*
X249832610Y-105940176D02*
X251332415Y-105915985D01*
X251115853Y-105776603D01*
X250970710Y-105636067D01*
X250896987Y-105494381D01*
X249992727Y-107009161D02*
X249922459Y-107081731D01*
X249849889Y-107011464D01*
X249920155Y-106938893D01*
X249992727Y-107009161D01*
X249849889Y-107011464D01*
X251217221Y-107632351D02*
X251289793Y-107702619D01*
X251363517Y-107844306D01*
X251369276Y-108201402D01*
X251300160Y-108345392D01*
X251229893Y-108417964D01*
X251088206Y-108491687D01*
X250945368Y-108493991D01*
X250729958Y-108426028D01*
X249859104Y-107582819D01*
X249874079Y-108511269D01*
X251381947Y-108987014D02*
X251398074Y-109986884D01*
X249887902Y-109368301D01*
X251411897Y-110843914D02*
X251414201Y-110986753D01*
X251345085Y-111130743D01*
X251274818Y-111203315D01*
X251133131Y-111277038D01*
X250848606Y-111353065D01*
X250491510Y-111358824D01*
X250204681Y-111292013D01*
X250060690Y-111222898D01*
X249988119Y-111152630D01*
X249914396Y-111010943D01*
X249912092Y-110868105D01*
X249981207Y-110724115D01*
X250051475Y-110651543D01*
X250193162Y-110577820D01*
X250477686Y-110501793D01*
X250834783Y-110496033D01*
X251121612Y-110562845D01*
X251265602Y-110631960D01*
X251338174Y-110702228D01*
X251411897Y-110843914D01*
X249948954Y-113153522D02*
X250948824Y-113137395D01*
X250805984Y-113139699D02*
X250878556Y-113209965D01*
X250952280Y-113351653D01*
X250955735Y-113565910D01*
X250886620Y-113709900D01*
X250744933Y-113783624D01*
X249959321Y-113796295D01*
X250744933Y-113783624D02*
X250888923Y-113852740D01*
X250962647Y-113994426D01*
X250966103Y-114208683D01*
X250896987Y-114352675D01*
X250755300Y-114426397D01*
X249969689Y-114439068D01*
X249981208Y-115153262D02*
X250981078Y-115137135D01*
X250838238Y-115139438D02*
X250910810Y-115209705D01*
X250984534Y-115351393D01*
X250987989Y-115565650D01*
X250918873Y-115709640D01*
X250777187Y-115783364D01*
X249991575Y-115796035D01*
X250777187Y-115783364D02*
X250921177Y-115852480D01*
X250994901Y-115994166D01*
X250998357Y-116208423D01*
X250929241Y-116352415D01*
X250787554Y-116426137D01*
X250001942Y-116438808D01*
X249253055Y-104409467D02*
X249233055Y-103169467D01*
X246740000Y-104450000D02*
X251952704Y-104365924D01*
X246720000Y-103210000D02*
X251932704Y-103125924D01*
X249233055Y-103169467D02*
X249837567Y-104286367D01*
X249233055Y-103169467D02*
X248664878Y-104305281D01*
X249253055Y-104409467D02*
X249821232Y-103273653D01*
X249253055Y-104409467D02*
X248648543Y-103292567D01*
X269459458Y-84492047D02*
X269459036Y-85206333D01*
X270173279Y-85278185D01*
X270101894Y-85206713D01*
X270030549Y-85063814D01*
X270030760Y-84706671D01*
X270102274Y-84563856D01*
X270173744Y-84492470D01*
X270316643Y-84421126D01*
X270673786Y-84421337D01*
X270816601Y-84492850D01*
X270887988Y-84564321D01*
X270959331Y-84707220D01*
X270959120Y-85064363D01*
X270887608Y-85207178D01*
X270816136Y-85278565D01*
X269460050Y-83492048D02*
X269460134Y-83349191D01*
X269531648Y-83206377D01*
X269603119Y-83134990D01*
X269746018Y-83063645D01*
X270031774Y-82992386D01*
X270388917Y-82992598D01*
X270674589Y-83064195D01*
X270817404Y-83135708D01*
X270888790Y-83207179D01*
X270960134Y-83350079D01*
X270960049Y-83492936D01*
X270888537Y-83635750D01*
X270817066Y-83707137D01*
X270674167Y-83778481D01*
X270388410Y-83849741D01*
X270031267Y-83849529D01*
X269745596Y-83777931D01*
X269602781Y-83706419D01*
X269531394Y-83634948D01*
X269460050Y-83492048D01*
X270817868Y-82349994D02*
X270889340Y-82278609D01*
X270960725Y-82350079D01*
X270889255Y-82421466D01*
X270817868Y-82349994D01*
X270960725Y-82350079D01*
X270104133Y-81421000D02*
X270032619Y-81563816D01*
X269961148Y-81635201D01*
X269818249Y-81706546D01*
X269746821Y-81706504D01*
X269604006Y-81634990D01*
X269532619Y-81563520D01*
X269461275Y-81420620D01*
X269461444Y-81134906D01*
X269532957Y-80992091D01*
X269604429Y-80920704D01*
X269747328Y-80849361D01*
X269818756Y-80849403D01*
X269961571Y-80920916D01*
X270032957Y-80992387D01*
X270104302Y-81135286D01*
X270104133Y-81421000D01*
X270175476Y-81563900D01*
X270246863Y-81635370D01*
X270389678Y-81706884D01*
X270675392Y-81707053D01*
X270818291Y-81635708D01*
X270889762Y-81564323D01*
X270961275Y-81421507D01*
X270961444Y-81135793D01*
X270890100Y-80992894D01*
X270818713Y-80921423D01*
X270675899Y-80849910D01*
X270390185Y-80849741D01*
X270247286Y-80921085D01*
X270175814Y-80992471D01*
X270104302Y-81135286D01*
X269462162Y-79920621D02*
X269462247Y-79777764D01*
X269533760Y-79634949D01*
X269605231Y-79563563D01*
X269748131Y-79492218D01*
X270033887Y-79420959D01*
X270391030Y-79421170D01*
X270676701Y-79492767D01*
X270819516Y-79564281D01*
X270890903Y-79635752D01*
X270962246Y-79778651D01*
X270962162Y-79921508D01*
X270890649Y-80064323D01*
X270819178Y-80135710D01*
X270676279Y-80207053D01*
X270390523Y-80278313D01*
X270033380Y-80278102D01*
X269747708Y-80206504D01*
X269604893Y-80134991D01*
X269533507Y-80063520D01*
X269462162Y-79920621D01*
X269463007Y-78492050D02*
X269463092Y-78349193D01*
X269534605Y-78206379D01*
X269606076Y-78134992D01*
X269748976Y-78063647D01*
X270034732Y-77992388D01*
X270391875Y-77992600D01*
X270677546Y-78064197D01*
X270820361Y-78135710D01*
X270891748Y-78207181D01*
X270963091Y-78350080D01*
X270963007Y-78492937D01*
X270891494Y-78635752D01*
X270820023Y-78707139D01*
X270677124Y-78778482D01*
X270391368Y-78849742D01*
X270034225Y-78849531D01*
X269748553Y-78777933D01*
X269605738Y-78706421D01*
X269534352Y-78634949D01*
X269463007Y-78492050D01*
X270964359Y-76207224D02*
X269964359Y-76206632D01*
X270107217Y-76206717D02*
X270035830Y-76135247D01*
X269964486Y-75992346D01*
X269964612Y-75778061D01*
X270036126Y-75635247D01*
X270179025Y-75563902D01*
X270964739Y-75564367D01*
X270179025Y-75563902D02*
X270036210Y-75492389D01*
X269964866Y-75349490D01*
X269964993Y-75135205D01*
X270036506Y-74992389D01*
X270179405Y-74921045D01*
X270965119Y-74921510D01*
X270965542Y-74207224D02*
X269965542Y-74206633D01*
X270108400Y-74206717D02*
X270037013Y-74135247D01*
X269965669Y-73992347D01*
X269965795Y-73778062D01*
X270037309Y-73635247D01*
X270180208Y-73563903D01*
X270965922Y-73564367D01*
X270180208Y-73563903D02*
X270037393Y-73492389D01*
X269966049Y-73349490D01*
X269966176Y-73135205D01*
X270037689Y-72992389D01*
X270180588Y-72921046D01*
X270966302Y-72921510D01*
X268919098Y-104423166D02*
X268949098Y-53703166D01*
X246660000Y-104410000D02*
X271619098Y-104424763D01*
X246690000Y-53690000D02*
X271649098Y-53704763D01*
X268949098Y-53703166D02*
X269534852Y-54830016D01*
X268949098Y-53703166D02*
X268362011Y-54829323D01*
X268919098Y-104423166D02*
X269506185Y-103297009D01*
X268919098Y-104423166D02*
X268333344Y-103296316D01*
X191108572Y-111358571D02*
X191394287Y-111358571D01*
X191537144Y-111287143D01*
X191608572Y-111215714D01*
X191751430Y-111001429D01*
X191822858Y-110715714D01*
X191822858Y-110144286D01*
X191751430Y-110001429D01*
X191680001Y-109930000D01*
X191537144Y-109858571D01*
X191251430Y-109858571D01*
X191108572Y-109930000D01*
X191037144Y-110001429D01*
X190965715Y-110144286D01*
X190965715Y-110501429D01*
X191037144Y-110644286D01*
X191108572Y-110715714D01*
X191251430Y-110787143D01*
X191537144Y-110787143D01*
X191680001Y-110715714D01*
X191751430Y-110644286D01*
X191822858Y-110501429D01*
X192537143Y-111358571D02*
X192822858Y-111358571D01*
X192965715Y-111287143D01*
X193037143Y-111215714D01*
X193180001Y-111001429D01*
X193251429Y-110715714D01*
X193251429Y-110144286D01*
X193180001Y-110001429D01*
X193108572Y-109930000D01*
X192965715Y-109858571D01*
X192680001Y-109858571D01*
X192537143Y-109930000D01*
X192465715Y-110001429D01*
X192394286Y-110144286D01*
X192394286Y-110501429D01*
X192465715Y-110644286D01*
X192537143Y-110715714D01*
X192680001Y-110787143D01*
X192965715Y-110787143D01*
X193108572Y-110715714D01*
X193180001Y-110644286D01*
X193251429Y-110501429D01*
X193894286Y-111215714D02*
X193965714Y-111287143D01*
X193894286Y-111358571D01*
X193822857Y-111287143D01*
X193894286Y-111215714D01*
X193894286Y-111358571D01*
X194894286Y-109858571D02*
X195037143Y-109858571D01*
X195180000Y-109930000D01*
X195251429Y-110001429D01*
X195322858Y-110144286D01*
X195394286Y-110430000D01*
X195394286Y-110787143D01*
X195322858Y-111072857D01*
X195251429Y-111215714D01*
X195180000Y-111287143D01*
X195037143Y-111358571D01*
X194894286Y-111358571D01*
X194751429Y-111287143D01*
X194680000Y-111215714D01*
X194608572Y-111072857D01*
X194537143Y-110787143D01*
X194537143Y-110430000D01*
X194608572Y-110144286D01*
X194680000Y-110001429D01*
X194751429Y-109930000D01*
X194894286Y-109858571D01*
X196680000Y-109858571D02*
X196394286Y-109858571D01*
X196251429Y-109930000D01*
X196180000Y-110001429D01*
X196037143Y-110215714D01*
X195965714Y-110501429D01*
X195965714Y-111072857D01*
X196037143Y-111215714D01*
X196108571Y-111287143D01*
X196251429Y-111358571D01*
X196537143Y-111358571D01*
X196680000Y-111287143D01*
X196751429Y-111215714D01*
X196822857Y-111072857D01*
X196822857Y-110715714D01*
X196751429Y-110572857D01*
X196680000Y-110501429D01*
X196537143Y-110430000D01*
X196251429Y-110430000D01*
X196108571Y-110501429D01*
X196037143Y-110572857D01*
X195965714Y-110715714D01*
X197751428Y-109858571D02*
X197894285Y-109858571D01*
X198037142Y-109930000D01*
X198108571Y-110001429D01*
X198180000Y-110144286D01*
X198251428Y-110430000D01*
X198251428Y-110787143D01*
X198180000Y-111072857D01*
X198108571Y-111215714D01*
X198037142Y-111287143D01*
X197894285Y-111358571D01*
X197751428Y-111358571D01*
X197608571Y-111287143D01*
X197537142Y-111215714D01*
X197465714Y-111072857D01*
X197394285Y-110787143D01*
X197394285Y-110430000D01*
X197465714Y-110144286D01*
X197537142Y-110001429D01*
X197608571Y-109930000D01*
X197751428Y-109858571D01*
X200037142Y-111358571D02*
X200037142Y-110358571D01*
X200037142Y-110501429D02*
X200108570Y-110430000D01*
X200251428Y-110358571D01*
X200465713Y-110358571D01*
X200608570Y-110430000D01*
X200679999Y-110572857D01*
X200679999Y-111358571D01*
X200679999Y-110572857D02*
X200751428Y-110430000D01*
X200894285Y-110358571D01*
X201108570Y-110358571D01*
X201251428Y-110430000D01*
X201322856Y-110572857D01*
X201322856Y-111358571D01*
X202037142Y-111358571D02*
X202037142Y-110358571D01*
X202037142Y-110501429D02*
X202108570Y-110430000D01*
X202251428Y-110358571D01*
X202465713Y-110358571D01*
X202608570Y-110430000D01*
X202679999Y-110572857D01*
X202679999Y-111358571D01*
X202679999Y-110572857D02*
X202751428Y-110430000D01*
X202894285Y-110358571D01*
X203108570Y-110358571D01*
X203251428Y-110430000D01*
X203322856Y-110572857D01*
X203322856Y-111358571D01*
X147670000Y-109330000D02*
X246690000Y-109330000D01*
X147670000Y-104470000D02*
X147670000Y-112030000D01*
X246690000Y-104470000D02*
X246690000Y-112030000D01*
X246690000Y-109330000D02*
X245563496Y-109916421D01*
X246690000Y-109330000D02*
X245563496Y-108743579D01*
X147670000Y-109330000D02*
X148796504Y-109916421D01*
X147670000Y-109330000D02*
X148796504Y-108743579D01*
D10*
X84980000Y-62000000D02*
X84980000Y-105000000D01*
X84980000Y-103000000D02*
X114980000Y-103000000D01*
X114980000Y-62000000D02*
X114980000Y-105000000D01*
X84980000Y-65000000D02*
X114980000Y-65000000D01*
X84980000Y-62000000D02*
X114980000Y-62000000D01*
X84980000Y-67000000D02*
X114980000Y-67000000D01*
X84980000Y-69000000D02*
X114980000Y-69000000D01*
X84980000Y-71000000D02*
X114980000Y-71000000D01*
X84980000Y-75000000D02*
X114980000Y-75000000D01*
X84980000Y-73000000D02*
X114980000Y-73000000D01*
X84980000Y-77000000D02*
X114980000Y-77000000D01*
X84980000Y-79000000D02*
X114980000Y-79000000D01*
X84980000Y-81000000D02*
X114980000Y-81000000D01*
X84980000Y-83000000D02*
X114980000Y-83000000D01*
X84980000Y-85000000D02*
X114980000Y-85000000D01*
X84980000Y-87000000D02*
X114980000Y-87000000D01*
X84980000Y-89000000D02*
X114980000Y-89000000D01*
X84980000Y-91000000D02*
X114980000Y-91000000D01*
X84980000Y-93000000D02*
X114980000Y-93000000D01*
X84980000Y-95000000D02*
X114980000Y-95000000D01*
X84980000Y-97000000D02*
X114980000Y-97000000D01*
X84980000Y-99000000D02*
X114980000Y-99000000D01*
X84980000Y-101000000D02*
X114980000Y-101000000D01*
X102980000Y-105000000D02*
X102980000Y-65000000D01*
X84980000Y-105000000D02*
X114980000Y-105000000D01*
D13*
X85408571Y-66452381D02*
X85408571Y-65452381D01*
X85789524Y-65452381D01*
X85884762Y-65500000D01*
X85932381Y-65547619D01*
X85980000Y-65642857D01*
X85980000Y-65785714D01*
X85932381Y-65880952D01*
X85884762Y-65928571D01*
X85789524Y-65976190D01*
X85408571Y-65976190D01*
X86980000Y-66357143D02*
X86932381Y-66404762D01*
X86789524Y-66452381D01*
X86694286Y-66452381D01*
X86551428Y-66404762D01*
X86456190Y-66309524D01*
X86408571Y-66214286D01*
X86360952Y-66023810D01*
X86360952Y-65880952D01*
X86408571Y-65690476D01*
X86456190Y-65595238D01*
X86551428Y-65500000D01*
X86694286Y-65452381D01*
X86789524Y-65452381D01*
X86932381Y-65500000D01*
X86980000Y-65547619D01*
X87741905Y-65928571D02*
X87884762Y-65976190D01*
X87932381Y-66023810D01*
X87980000Y-66119048D01*
X87980000Y-66261905D01*
X87932381Y-66357143D01*
X87884762Y-66404762D01*
X87789524Y-66452381D01*
X87408571Y-66452381D01*
X87408571Y-65452381D01*
X87741905Y-65452381D01*
X87837143Y-65500000D01*
X87884762Y-65547619D01*
X87932381Y-65642857D01*
X87932381Y-65738095D01*
X87884762Y-65833333D01*
X87837143Y-65880952D01*
X87741905Y-65928571D01*
X87408571Y-65928571D01*
X89122857Y-66404762D02*
X89265714Y-66452381D01*
X89503810Y-66452381D01*
X89599048Y-66404762D01*
X89646667Y-66357143D01*
X89694286Y-66261905D01*
X89694286Y-66166667D01*
X89646667Y-66071429D01*
X89599048Y-66023810D01*
X89503810Y-65976190D01*
X89313333Y-65928571D01*
X89218095Y-65880952D01*
X89170476Y-65833333D01*
X89122857Y-65738095D01*
X89122857Y-65642857D01*
X89170476Y-65547619D01*
X89218095Y-65500000D01*
X89313333Y-65452381D01*
X89551429Y-65452381D01*
X89694286Y-65500000D01*
X90122857Y-66452381D02*
X90122857Y-65785714D01*
X90122857Y-65452381D02*
X90075238Y-65500000D01*
X90122857Y-65547619D01*
X90170476Y-65500000D01*
X90122857Y-65452381D01*
X90122857Y-65547619D01*
X90503809Y-65785714D02*
X91027619Y-65785714D01*
X90503809Y-66452381D01*
X91027619Y-66452381D01*
X91789524Y-66404762D02*
X91694286Y-66452381D01*
X91503809Y-66452381D01*
X91408571Y-66404762D01*
X91360952Y-66309524D01*
X91360952Y-65928571D01*
X91408571Y-65833333D01*
X91503809Y-65785714D01*
X91694286Y-65785714D01*
X91789524Y-65833333D01*
X91837143Y-65928571D01*
X91837143Y-66023810D01*
X91360952Y-66119048D01*
X93313334Y-66833333D02*
X93265714Y-66785714D01*
X93170476Y-66642857D01*
X93122857Y-66547619D01*
X93075238Y-66404762D01*
X93027619Y-66166667D01*
X93027619Y-65976190D01*
X93075238Y-65738095D01*
X93122857Y-65595238D01*
X93170476Y-65500000D01*
X93265714Y-65357143D01*
X93313334Y-65309524D01*
X93694286Y-66452381D02*
X93694286Y-65785714D01*
X93694286Y-65880952D02*
X93741905Y-65833333D01*
X93837143Y-65785714D01*
X93980001Y-65785714D01*
X94075239Y-65833333D01*
X94122858Y-65928571D01*
X94122858Y-66452381D01*
X94122858Y-65928571D02*
X94170477Y-65833333D01*
X94265715Y-65785714D01*
X94408572Y-65785714D01*
X94503810Y-65833333D01*
X94551429Y-65928571D01*
X94551429Y-66452381D01*
X95027619Y-66452381D02*
X95027619Y-65785714D01*
X95027619Y-65880952D02*
X95075238Y-65833333D01*
X95170476Y-65785714D01*
X95313334Y-65785714D01*
X95408572Y-65833333D01*
X95456191Y-65928571D01*
X95456191Y-66452381D01*
X95456191Y-65928571D02*
X95503810Y-65833333D01*
X95599048Y-65785714D01*
X95741905Y-65785714D01*
X95837143Y-65833333D01*
X95884762Y-65928571D01*
X95884762Y-66452381D01*
X96265714Y-66833333D02*
X96313333Y-66785714D01*
X96408571Y-66642857D01*
X96456190Y-66547619D01*
X96503809Y-66404762D01*
X96551428Y-66166667D01*
X96551428Y-65976190D01*
X96503809Y-65738095D01*
X96456190Y-65595238D01*
X96408571Y-65500000D01*
X96313333Y-65357143D01*
X96265714Y-65309524D01*
X86094287Y-63914286D02*
X85694287Y-63914286D01*
X85694287Y-64542857D02*
X85694287Y-63342857D01*
X86265716Y-63342857D01*
X87237144Y-64542857D02*
X87237144Y-63914286D01*
X87180001Y-63800000D01*
X87065715Y-63742857D01*
X86837144Y-63742857D01*
X86722858Y-63800000D01*
X87237144Y-64485714D02*
X87122858Y-64542857D01*
X86837144Y-64542857D01*
X86722858Y-64485714D01*
X86665715Y-64371429D01*
X86665715Y-64257143D01*
X86722858Y-64142857D01*
X86837144Y-64085714D01*
X87122858Y-64085714D01*
X87237144Y-64028571D01*
X87808572Y-64542857D02*
X87808572Y-63342857D01*
X87808572Y-63800000D02*
X87922858Y-63742857D01*
X88151429Y-63742857D01*
X88265715Y-63800000D01*
X88322858Y-63857143D01*
X88380001Y-63971429D01*
X88380001Y-64314286D01*
X88322858Y-64428571D01*
X88265715Y-64485714D01*
X88151429Y-64542857D01*
X87922858Y-64542857D01*
X87808572Y-64485714D01*
X88894286Y-64542857D02*
X88894286Y-63742857D01*
X88894286Y-63971429D02*
X88951429Y-63857143D01*
X89008572Y-63800000D01*
X89122858Y-63742857D01*
X89237143Y-63742857D01*
X89637143Y-64542857D02*
X89637143Y-63742857D01*
X89637143Y-63342857D02*
X89580000Y-63400000D01*
X89637143Y-63457143D01*
X89694286Y-63400000D01*
X89637143Y-63342857D01*
X89637143Y-63457143D01*
X90722858Y-64485714D02*
X90608572Y-64542857D01*
X90380001Y-64542857D01*
X90265715Y-64485714D01*
X90208572Y-64428571D01*
X90151429Y-64314286D01*
X90151429Y-63971429D01*
X90208572Y-63857143D01*
X90265715Y-63800000D01*
X90380001Y-63742857D01*
X90608572Y-63742857D01*
X90722858Y-63800000D01*
X91751429Y-64542857D02*
X91751429Y-63914286D01*
X91694286Y-63800000D01*
X91580000Y-63742857D01*
X91351429Y-63742857D01*
X91237143Y-63800000D01*
X91751429Y-64485714D02*
X91637143Y-64542857D01*
X91351429Y-64542857D01*
X91237143Y-64485714D01*
X91180000Y-64371429D01*
X91180000Y-64257143D01*
X91237143Y-64142857D01*
X91351429Y-64085714D01*
X91637143Y-64085714D01*
X91751429Y-64028571D01*
X92151429Y-63742857D02*
X92608572Y-63742857D01*
X92322857Y-63342857D02*
X92322857Y-64371429D01*
X92380000Y-64485714D01*
X92494286Y-64542857D01*
X92608572Y-64542857D01*
X93008571Y-64542857D02*
X93008571Y-63742857D01*
X93008571Y-63342857D02*
X92951428Y-63400000D01*
X93008571Y-63457143D01*
X93065714Y-63400000D01*
X93008571Y-63342857D01*
X93008571Y-63457143D01*
X93751429Y-64542857D02*
X93637143Y-64485714D01*
X93580000Y-64428571D01*
X93522857Y-64314286D01*
X93522857Y-63971429D01*
X93580000Y-63857143D01*
X93637143Y-63800000D01*
X93751429Y-63742857D01*
X93922857Y-63742857D01*
X94037143Y-63800000D01*
X94094286Y-63857143D01*
X94151429Y-63971429D01*
X94151429Y-64314286D01*
X94094286Y-64428571D01*
X94037143Y-64485714D01*
X93922857Y-64542857D01*
X93751429Y-64542857D01*
X94665714Y-63742857D02*
X94665714Y-64542857D01*
X94665714Y-63857143D02*
X94722857Y-63800000D01*
X94837143Y-63742857D01*
X95008571Y-63742857D01*
X95122857Y-63800000D01*
X95180000Y-63914286D01*
X95180000Y-64542857D01*
X96665714Y-64542857D02*
X96665714Y-63342857D01*
X96951429Y-63342857D01*
X97122857Y-63400000D01*
X97237143Y-63514286D01*
X97294286Y-63628571D01*
X97351429Y-63857143D01*
X97351429Y-64028571D01*
X97294286Y-64257143D01*
X97237143Y-64371429D01*
X97122857Y-64485714D01*
X96951429Y-64542857D01*
X96665714Y-64542857D01*
X98322857Y-64485714D02*
X98208571Y-64542857D01*
X97980000Y-64542857D01*
X97865714Y-64485714D01*
X97808571Y-64371429D01*
X97808571Y-63914286D01*
X97865714Y-63800000D01*
X97980000Y-63742857D01*
X98208571Y-63742857D01*
X98322857Y-63800000D01*
X98380000Y-63914286D01*
X98380000Y-64028571D01*
X97808571Y-64142857D01*
X98722857Y-63742857D02*
X99180000Y-63742857D01*
X98894285Y-63342857D02*
X98894285Y-64371429D01*
X98951428Y-64485714D01*
X99065714Y-64542857D01*
X99180000Y-64542857D01*
X100094285Y-64542857D02*
X100094285Y-63914286D01*
X100037142Y-63800000D01*
X99922856Y-63742857D01*
X99694285Y-63742857D01*
X99579999Y-63800000D01*
X100094285Y-64485714D02*
X99979999Y-64542857D01*
X99694285Y-64542857D01*
X99579999Y-64485714D01*
X99522856Y-64371429D01*
X99522856Y-64257143D01*
X99579999Y-64142857D01*
X99694285Y-64085714D01*
X99979999Y-64085714D01*
X100094285Y-64028571D01*
X100665713Y-64542857D02*
X100665713Y-63742857D01*
X100665713Y-63342857D02*
X100608570Y-63400000D01*
X100665713Y-63457143D01*
X100722856Y-63400000D01*
X100665713Y-63342857D01*
X100665713Y-63457143D01*
X101408571Y-64542857D02*
X101294285Y-64485714D01*
X101237142Y-64371429D01*
X101237142Y-63342857D01*
X101808570Y-64485714D02*
X101922856Y-64542857D01*
X102151428Y-64542857D01*
X102265713Y-64485714D01*
X102322856Y-64371429D01*
X102322856Y-64314286D01*
X102265713Y-64200000D01*
X102151428Y-64142857D01*
X101979999Y-64142857D01*
X101865713Y-64085714D01*
X101808570Y-63971429D01*
X101808570Y-63914286D01*
X101865713Y-63800000D01*
X101979999Y-63742857D01*
X102151428Y-63742857D01*
X102265713Y-63800000D01*
X85660951Y-68452381D02*
X85660951Y-67452381D01*
X86232380Y-68452381D01*
X86232380Y-67452381D01*
X86851427Y-68452381D02*
X86756189Y-68404762D01*
X86708570Y-68357143D01*
X86660951Y-68261905D01*
X86660951Y-67976190D01*
X86708570Y-67880952D01*
X86756189Y-67833333D01*
X86851427Y-67785714D01*
X86994285Y-67785714D01*
X87089523Y-67833333D01*
X87137142Y-67880952D01*
X87184761Y-67976190D01*
X87184761Y-68261905D01*
X87137142Y-68357143D01*
X87089523Y-68404762D01*
X86994285Y-68452381D01*
X86851427Y-68452381D01*
X88518094Y-68452381D02*
X88422856Y-68404762D01*
X88375237Y-68357143D01*
X88327618Y-68261905D01*
X88327618Y-67976190D01*
X88375237Y-67880952D01*
X88422856Y-67833333D01*
X88518094Y-67785714D01*
X88660952Y-67785714D01*
X88756190Y-67833333D01*
X88803809Y-67880952D01*
X88851428Y-67976190D01*
X88851428Y-68261905D01*
X88803809Y-68357143D01*
X88756190Y-68404762D01*
X88660952Y-68452381D01*
X88518094Y-68452381D01*
X89137142Y-67785714D02*
X89518094Y-67785714D01*
X89279999Y-68452381D02*
X89279999Y-67595238D01*
X89327618Y-67500000D01*
X89422856Y-67452381D01*
X89518094Y-67452381D01*
X91089524Y-68452381D02*
X90613333Y-68452381D01*
X90613333Y-67452381D01*
X91851429Y-68452381D02*
X91851429Y-67928571D01*
X91803810Y-67833333D01*
X91708572Y-67785714D01*
X91518095Y-67785714D01*
X91422857Y-67833333D01*
X91851429Y-68404762D02*
X91756191Y-68452381D01*
X91518095Y-68452381D01*
X91422857Y-68404762D01*
X91375238Y-68309524D01*
X91375238Y-68214286D01*
X91422857Y-68119048D01*
X91518095Y-68071429D01*
X91756191Y-68071429D01*
X91851429Y-68023810D01*
X92232381Y-67785714D02*
X92470476Y-68452381D01*
X92708572Y-67785714D02*
X92470476Y-68452381D01*
X92375238Y-68690476D01*
X92327619Y-68738095D01*
X92232381Y-68785714D01*
X93470477Y-68404762D02*
X93375239Y-68452381D01*
X93184762Y-68452381D01*
X93089524Y-68404762D01*
X93041905Y-68309524D01*
X93041905Y-67928571D01*
X93089524Y-67833333D01*
X93184762Y-67785714D01*
X93375239Y-67785714D01*
X93470477Y-67833333D01*
X93518096Y-67928571D01*
X93518096Y-68023810D01*
X93041905Y-68119048D01*
X93946667Y-68452381D02*
X93946667Y-67785714D01*
X93946667Y-67976190D02*
X93994286Y-67880952D01*
X94041905Y-67833333D01*
X94137143Y-67785714D01*
X94232382Y-67785714D01*
X94518096Y-68404762D02*
X94613334Y-68452381D01*
X94803810Y-68452381D01*
X94899049Y-68404762D01*
X94946668Y-68309524D01*
X94946668Y-68261905D01*
X94899049Y-68166667D01*
X94803810Y-68119048D01*
X94660953Y-68119048D01*
X94565715Y-68071429D01*
X94518096Y-67976190D01*
X94518096Y-67928571D01*
X94565715Y-67833333D01*
X94660953Y-67785714D01*
X94803810Y-67785714D01*
X94899049Y-67833333D01*
X85670476Y-70452381D02*
X85670476Y-69452381D01*
X86003810Y-70166667D01*
X86337143Y-69452381D01*
X86337143Y-70452381D01*
X86813333Y-70452381D02*
X86813333Y-69785714D01*
X86813333Y-69452381D02*
X86765714Y-69500000D01*
X86813333Y-69547619D01*
X86860952Y-69500000D01*
X86813333Y-69452381D01*
X86813333Y-69547619D01*
X87289523Y-69785714D02*
X87289523Y-70452381D01*
X87289523Y-69880952D02*
X87337142Y-69833333D01*
X87432380Y-69785714D01*
X87575238Y-69785714D01*
X87670476Y-69833333D01*
X87718095Y-69928571D01*
X87718095Y-70452381D01*
X89432381Y-70452381D02*
X88956190Y-70452381D01*
X88956190Y-69452381D01*
X89765714Y-70452381D02*
X89765714Y-69785714D01*
X89765714Y-69452381D02*
X89718095Y-69500000D01*
X89765714Y-69547619D01*
X89813333Y-69500000D01*
X89765714Y-69452381D01*
X89765714Y-69547619D01*
X90241904Y-69785714D02*
X90241904Y-70452381D01*
X90241904Y-69880952D02*
X90289523Y-69833333D01*
X90384761Y-69785714D01*
X90527619Y-69785714D01*
X90622857Y-69833333D01*
X90670476Y-69928571D01*
X90670476Y-70452381D01*
X91527619Y-70404762D02*
X91432381Y-70452381D01*
X91241904Y-70452381D01*
X91146666Y-70404762D01*
X91099047Y-70309524D01*
X91099047Y-69928571D01*
X91146666Y-69833333D01*
X91241904Y-69785714D01*
X91432381Y-69785714D01*
X91527619Y-69833333D01*
X91575238Y-69928571D01*
X91575238Y-70023810D01*
X91099047Y-70119048D01*
X92670476Y-69452381D02*
X92908571Y-70452381D01*
X93099048Y-69738095D01*
X93289524Y-70452381D01*
X93527619Y-69452381D01*
X93908571Y-70452381D02*
X93908571Y-69785714D01*
X93908571Y-69452381D02*
X93860952Y-69500000D01*
X93908571Y-69547619D01*
X93956190Y-69500000D01*
X93908571Y-69452381D01*
X93908571Y-69547619D01*
X94813333Y-70452381D02*
X94813333Y-69452381D01*
X94813333Y-70404762D02*
X94718095Y-70452381D01*
X94527618Y-70452381D01*
X94432380Y-70404762D01*
X94384761Y-70357143D01*
X94337142Y-70261905D01*
X94337142Y-69976190D01*
X94384761Y-69880952D01*
X94432380Y-69833333D01*
X94527618Y-69785714D01*
X94718095Y-69785714D01*
X94813333Y-69833333D01*
X95146666Y-69785714D02*
X95527618Y-69785714D01*
X95289523Y-69452381D02*
X95289523Y-70309524D01*
X95337142Y-70404762D01*
X95432380Y-70452381D01*
X95527618Y-70452381D01*
X95860952Y-70452381D02*
X95860952Y-69452381D01*
X96289524Y-70452381D02*
X96289524Y-69928571D01*
X96241905Y-69833333D01*
X96146667Y-69785714D01*
X96003809Y-69785714D01*
X95908571Y-69833333D01*
X95860952Y-69880952D01*
X85722857Y-72452381D02*
X85722857Y-71452381D01*
X86056191Y-72166667D01*
X86389524Y-71452381D01*
X86389524Y-72452381D01*
X86865714Y-72452381D02*
X86865714Y-71785714D01*
X86865714Y-71452381D02*
X86818095Y-71500000D01*
X86865714Y-71547619D01*
X86913333Y-71500000D01*
X86865714Y-71452381D01*
X86865714Y-71547619D01*
X87341904Y-71785714D02*
X87341904Y-72452381D01*
X87341904Y-71880952D02*
X87389523Y-71833333D01*
X87484761Y-71785714D01*
X87627619Y-71785714D01*
X87722857Y-71833333D01*
X87770476Y-71928571D01*
X87770476Y-72452381D01*
X88960952Y-72404762D02*
X89103809Y-72452381D01*
X89341905Y-72452381D01*
X89437143Y-72404762D01*
X89484762Y-72357143D01*
X89532381Y-72261905D01*
X89532381Y-72166667D01*
X89484762Y-72071429D01*
X89437143Y-72023810D01*
X89341905Y-71976190D01*
X89151428Y-71928571D01*
X89056190Y-71880952D01*
X89008571Y-71833333D01*
X88960952Y-71738095D01*
X88960952Y-71642857D01*
X89008571Y-71547619D01*
X89056190Y-71500000D01*
X89151428Y-71452381D01*
X89389524Y-71452381D01*
X89532381Y-71500000D01*
X89960952Y-71785714D02*
X89960952Y-72785714D01*
X89960952Y-71833333D02*
X90056190Y-71785714D01*
X90246667Y-71785714D01*
X90341905Y-71833333D01*
X90389524Y-71880952D01*
X90437143Y-71976190D01*
X90437143Y-72261905D01*
X90389524Y-72357143D01*
X90341905Y-72404762D01*
X90246667Y-72452381D01*
X90056190Y-72452381D01*
X89960952Y-72404762D01*
X91294286Y-72452381D02*
X91294286Y-71928571D01*
X91246667Y-71833333D01*
X91151429Y-71785714D01*
X90960952Y-71785714D01*
X90865714Y-71833333D01*
X91294286Y-72404762D02*
X91199048Y-72452381D01*
X90960952Y-72452381D01*
X90865714Y-72404762D01*
X90818095Y-72309524D01*
X90818095Y-72214286D01*
X90865714Y-72119048D01*
X90960952Y-72071429D01*
X91199048Y-72071429D01*
X91294286Y-72023810D01*
X92199048Y-72404762D02*
X92103810Y-72452381D01*
X91913333Y-72452381D01*
X91818095Y-72404762D01*
X91770476Y-72357143D01*
X91722857Y-72261905D01*
X91722857Y-71976190D01*
X91770476Y-71880952D01*
X91818095Y-71833333D01*
X91913333Y-71785714D01*
X92103810Y-71785714D01*
X92199048Y-71833333D01*
X92627619Y-72452381D02*
X92627619Y-71785714D01*
X92627619Y-71452381D02*
X92580000Y-71500000D01*
X92627619Y-71547619D01*
X92675238Y-71500000D01*
X92627619Y-71452381D01*
X92627619Y-71547619D01*
X93103809Y-71785714D02*
X93103809Y-72452381D01*
X93103809Y-71880952D02*
X93151428Y-71833333D01*
X93246666Y-71785714D01*
X93389524Y-71785714D01*
X93484762Y-71833333D01*
X93532381Y-71928571D01*
X93532381Y-72452381D01*
X94437143Y-71785714D02*
X94437143Y-72595238D01*
X94389524Y-72690476D01*
X94341905Y-72738095D01*
X94246666Y-72785714D01*
X94103809Y-72785714D01*
X94008571Y-72738095D01*
X94437143Y-72404762D02*
X94341905Y-72452381D01*
X94151428Y-72452381D01*
X94056190Y-72404762D01*
X94008571Y-72357143D01*
X93960952Y-72261905D01*
X93960952Y-71976190D01*
X94008571Y-71880952D01*
X94056190Y-71833333D01*
X94151428Y-71785714D01*
X94341905Y-71785714D01*
X94437143Y-71833333D01*
X85603808Y-74204762D02*
X85746665Y-74252381D01*
X85984761Y-74252381D01*
X86079999Y-74204762D01*
X86127618Y-74157143D01*
X86175237Y-74061905D01*
X86175237Y-73966667D01*
X86127618Y-73871429D01*
X86079999Y-73823810D01*
X85984761Y-73776190D01*
X85794284Y-73728571D01*
X85699046Y-73680952D01*
X85651427Y-73633333D01*
X85603808Y-73538095D01*
X85603808Y-73442857D01*
X85651427Y-73347619D01*
X85699046Y-73300000D01*
X85794284Y-73252381D01*
X86032380Y-73252381D01*
X86175237Y-73300000D01*
X86746665Y-74252381D02*
X86651427Y-74204762D01*
X86603808Y-74109524D01*
X86603808Y-73252381D01*
X87270475Y-74252381D02*
X87175237Y-74204762D01*
X87127618Y-74157143D01*
X87079999Y-74061905D01*
X87079999Y-73776190D01*
X87127618Y-73680952D01*
X87175237Y-73633333D01*
X87270475Y-73585714D01*
X87413333Y-73585714D01*
X87508571Y-73633333D01*
X87556190Y-73680952D01*
X87603809Y-73776190D01*
X87603809Y-74061905D01*
X87556190Y-74157143D01*
X87508571Y-74204762D01*
X87413333Y-74252381D01*
X87270475Y-74252381D01*
X87889523Y-73585714D02*
X88270475Y-73585714D01*
X88032380Y-73252381D02*
X88032380Y-74109524D01*
X88079999Y-74204762D01*
X88175237Y-74252381D01*
X88270475Y-74252381D01*
X89365714Y-74252381D02*
X89365714Y-73252381D01*
X89746667Y-73252381D01*
X89841905Y-73300000D01*
X89889524Y-73347619D01*
X89937143Y-73442857D01*
X89937143Y-73585714D01*
X89889524Y-73680952D01*
X89841905Y-73728571D01*
X89746667Y-73776190D01*
X89365714Y-73776190D01*
X90365714Y-74252381D02*
X90365714Y-73585714D01*
X90365714Y-73776190D02*
X90413333Y-73680952D01*
X90460952Y-73633333D01*
X90556190Y-73585714D01*
X90651429Y-73585714D01*
X91365715Y-74204762D02*
X91270477Y-74252381D01*
X91080000Y-74252381D01*
X90984762Y-74204762D01*
X90937143Y-74109524D01*
X90937143Y-73728571D01*
X90984762Y-73633333D01*
X91080000Y-73585714D01*
X91270477Y-73585714D01*
X91365715Y-73633333D01*
X91413334Y-73728571D01*
X91413334Y-73823810D01*
X90937143Y-73919048D01*
X91794286Y-74204762D02*
X91889524Y-74252381D01*
X92080000Y-74252381D01*
X92175239Y-74204762D01*
X92222858Y-74109524D01*
X92222858Y-74061905D01*
X92175239Y-73966667D01*
X92080000Y-73919048D01*
X91937143Y-73919048D01*
X91841905Y-73871429D01*
X91794286Y-73776190D01*
X91794286Y-73728571D01*
X91841905Y-73633333D01*
X91937143Y-73585714D01*
X92080000Y-73585714D01*
X92175239Y-73633333D01*
X93032382Y-74204762D02*
X92937144Y-74252381D01*
X92746667Y-74252381D01*
X92651429Y-74204762D01*
X92603810Y-74109524D01*
X92603810Y-73728571D01*
X92651429Y-73633333D01*
X92746667Y-73585714D01*
X92937144Y-73585714D01*
X93032382Y-73633333D01*
X93080001Y-73728571D01*
X93080001Y-73823810D01*
X92603810Y-73919048D01*
X93508572Y-73585714D02*
X93508572Y-74252381D01*
X93508572Y-73680952D02*
X93556191Y-73633333D01*
X93651429Y-73585714D01*
X93794287Y-73585714D01*
X93889525Y-73633333D01*
X93937144Y-73728571D01*
X93937144Y-74252381D01*
X94270477Y-73585714D02*
X94651429Y-73585714D01*
X94413334Y-73252381D02*
X94413334Y-74109524D01*
X94460953Y-74204762D01*
X94556191Y-74252381D01*
X94651429Y-74252381D01*
X85532380Y-76404762D02*
X85675237Y-76452381D01*
X85913333Y-76452381D01*
X86008571Y-76404762D01*
X86056190Y-76357143D01*
X86103809Y-76261905D01*
X86103809Y-76166667D01*
X86056190Y-76071429D01*
X86008571Y-76023810D01*
X85913333Y-75976190D01*
X85722856Y-75928571D01*
X85627618Y-75880952D01*
X85579999Y-75833333D01*
X85532380Y-75738095D01*
X85532380Y-75642857D01*
X85579999Y-75547619D01*
X85627618Y-75500000D01*
X85722856Y-75452381D01*
X85960952Y-75452381D01*
X86103809Y-75500000D01*
X86532380Y-76452381D02*
X86532380Y-75452381D01*
X86865714Y-76166667D01*
X87199047Y-75452381D01*
X87199047Y-76452381D01*
X87675237Y-76452381D02*
X87675237Y-75452381D01*
X87913332Y-75452381D01*
X88056190Y-75500000D01*
X88151428Y-75595238D01*
X88199047Y-75690476D01*
X88246666Y-75880952D01*
X88246666Y-76023810D01*
X88199047Y-76214286D01*
X88151428Y-76309524D01*
X88056190Y-76404762D01*
X87913332Y-76452381D01*
X87675237Y-76452381D01*
X89437142Y-76452381D02*
X89437142Y-75452381D01*
X89818095Y-75452381D01*
X89913333Y-75500000D01*
X89960952Y-75547619D01*
X90008571Y-75642857D01*
X90008571Y-75785714D01*
X89960952Y-75880952D01*
X89913333Y-75928571D01*
X89818095Y-75976190D01*
X89437142Y-75976190D01*
X90437142Y-76452381D02*
X90437142Y-75785714D01*
X90437142Y-75976190D02*
X90484761Y-75880952D01*
X90532380Y-75833333D01*
X90627618Y-75785714D01*
X90722857Y-75785714D01*
X91437143Y-76404762D02*
X91341905Y-76452381D01*
X91151428Y-76452381D01*
X91056190Y-76404762D01*
X91008571Y-76309524D01*
X91008571Y-75928571D01*
X91056190Y-75833333D01*
X91151428Y-75785714D01*
X91341905Y-75785714D01*
X91437143Y-75833333D01*
X91484762Y-75928571D01*
X91484762Y-76023810D01*
X91008571Y-76119048D01*
X91865714Y-76404762D02*
X91960952Y-76452381D01*
X92151428Y-76452381D01*
X92246667Y-76404762D01*
X92294286Y-76309524D01*
X92294286Y-76261905D01*
X92246667Y-76166667D01*
X92151428Y-76119048D01*
X92008571Y-76119048D01*
X91913333Y-76071429D01*
X91865714Y-75976190D01*
X91865714Y-75928571D01*
X91913333Y-75833333D01*
X92008571Y-75785714D01*
X92151428Y-75785714D01*
X92246667Y-75833333D01*
X93103810Y-76404762D02*
X93008572Y-76452381D01*
X92818095Y-76452381D01*
X92722857Y-76404762D01*
X92675238Y-76309524D01*
X92675238Y-75928571D01*
X92722857Y-75833333D01*
X92818095Y-75785714D01*
X93008572Y-75785714D01*
X93103810Y-75833333D01*
X93151429Y-75928571D01*
X93151429Y-76023810D01*
X92675238Y-76119048D01*
X93580000Y-75785714D02*
X93580000Y-76452381D01*
X93580000Y-75880952D02*
X93627619Y-75833333D01*
X93722857Y-75785714D01*
X93865715Y-75785714D01*
X93960953Y-75833333D01*
X94008572Y-75928571D01*
X94008572Y-76452381D01*
X94341905Y-75785714D02*
X94722857Y-75785714D01*
X94484762Y-75452381D02*
X94484762Y-76309524D01*
X94532381Y-76404762D01*
X94627619Y-76452381D01*
X94722857Y-76452381D01*
X85537142Y-78452381D02*
X85537142Y-77452381D01*
X85870476Y-78166667D01*
X86203809Y-77452381D01*
X86203809Y-78452381D01*
X87108571Y-78452381D02*
X87108571Y-77928571D01*
X87060952Y-77833333D01*
X86965714Y-77785714D01*
X86775237Y-77785714D01*
X86679999Y-77833333D01*
X87108571Y-78404762D02*
X87013333Y-78452381D01*
X86775237Y-78452381D01*
X86679999Y-78404762D01*
X86632380Y-78309524D01*
X86632380Y-78214286D01*
X86679999Y-78119048D01*
X86775237Y-78071429D01*
X87013333Y-78071429D01*
X87108571Y-78023810D01*
X87537142Y-78404762D02*
X87632380Y-78452381D01*
X87822856Y-78452381D01*
X87918095Y-78404762D01*
X87965714Y-78309524D01*
X87965714Y-78261905D01*
X87918095Y-78166667D01*
X87822856Y-78119048D01*
X87679999Y-78119048D01*
X87584761Y-78071429D01*
X87537142Y-77976190D01*
X87537142Y-77928571D01*
X87584761Y-77833333D01*
X87679999Y-77785714D01*
X87822856Y-77785714D01*
X87918095Y-77833333D01*
X88394285Y-78452381D02*
X88394285Y-77452381D01*
X88489523Y-78071429D02*
X88775238Y-78452381D01*
X88775238Y-77785714D02*
X88394285Y-78166667D01*
X90537143Y-78357143D02*
X90489524Y-78404762D01*
X90346667Y-78452381D01*
X90251429Y-78452381D01*
X90108571Y-78404762D01*
X90013333Y-78309524D01*
X89965714Y-78214286D01*
X89918095Y-78023810D01*
X89918095Y-77880952D01*
X89965714Y-77690476D01*
X90013333Y-77595238D01*
X90108571Y-77500000D01*
X90251429Y-77452381D01*
X90346667Y-77452381D01*
X90489524Y-77500000D01*
X90537143Y-77547619D01*
X91108571Y-78452381D02*
X91013333Y-78404762D01*
X90965714Y-78357143D01*
X90918095Y-78261905D01*
X90918095Y-77976190D01*
X90965714Y-77880952D01*
X91013333Y-77833333D01*
X91108571Y-77785714D01*
X91251429Y-77785714D01*
X91346667Y-77833333D01*
X91394286Y-77880952D01*
X91441905Y-77976190D01*
X91441905Y-78261905D01*
X91394286Y-78357143D01*
X91346667Y-78404762D01*
X91251429Y-78452381D01*
X91108571Y-78452381D01*
X91775238Y-77785714D02*
X92013333Y-78452381D01*
X92251429Y-77785714D01*
X93013334Y-78404762D02*
X92918096Y-78452381D01*
X92727619Y-78452381D01*
X92632381Y-78404762D01*
X92584762Y-78309524D01*
X92584762Y-77928571D01*
X92632381Y-77833333D01*
X92727619Y-77785714D01*
X92918096Y-77785714D01*
X93013334Y-77833333D01*
X93060953Y-77928571D01*
X93060953Y-78023810D01*
X92584762Y-78119048D01*
X93489524Y-78452381D02*
X93489524Y-77785714D01*
X93489524Y-77976190D02*
X93537143Y-77880952D01*
X93584762Y-77833333D01*
X93680000Y-77785714D01*
X93775239Y-77785714D01*
X94108572Y-78452381D02*
X94108572Y-77785714D01*
X94108572Y-77452381D02*
X94060953Y-77500000D01*
X94108572Y-77547619D01*
X94156191Y-77500000D01*
X94108572Y-77452381D01*
X94108572Y-77547619D01*
X94584762Y-77785714D02*
X94584762Y-78452381D01*
X94584762Y-77880952D02*
X94632381Y-77833333D01*
X94727619Y-77785714D01*
X94870477Y-77785714D01*
X94965715Y-77833333D01*
X95013334Y-77928571D01*
X95013334Y-78452381D01*
X95918096Y-77785714D02*
X95918096Y-78595238D01*
X95870477Y-78690476D01*
X95822858Y-78738095D01*
X95727619Y-78785714D01*
X95584762Y-78785714D01*
X95489524Y-78738095D01*
X95918096Y-78404762D02*
X95822858Y-78452381D01*
X95632381Y-78452381D01*
X95537143Y-78404762D01*
X95489524Y-78357143D01*
X95441905Y-78261905D01*
X95441905Y-77976190D01*
X95489524Y-77880952D01*
X95537143Y-77833333D01*
X95632381Y-77785714D01*
X95822858Y-77785714D01*
X95918096Y-77833333D01*
X97013334Y-77452381D02*
X97346667Y-78452381D01*
X97680001Y-77452381D01*
X98013334Y-78452381D02*
X98013334Y-77452381D01*
X98441905Y-78166667D02*
X98918096Y-78166667D01*
X98346667Y-78452381D02*
X98680000Y-77452381D01*
X99013334Y-78452381D01*
X99299048Y-78404762D02*
X99441905Y-78452381D01*
X99680001Y-78452381D01*
X99775239Y-78404762D01*
X99822858Y-78357143D01*
X99870477Y-78261905D01*
X99870477Y-78166667D01*
X99822858Y-78071429D01*
X99775239Y-78023810D01*
X99680001Y-77976190D01*
X99489524Y-77928571D01*
X99394286Y-77880952D01*
X99346667Y-77833333D01*
X99299048Y-77738095D01*
X99299048Y-77642857D01*
X99346667Y-77547619D01*
X99394286Y-77500000D01*
X99489524Y-77452381D01*
X99727620Y-77452381D01*
X99870477Y-77500000D01*
X85460951Y-79452381D02*
X85460951Y-80261905D01*
X85508570Y-80357143D01*
X85556189Y-80404762D01*
X85651427Y-80452381D01*
X85841904Y-80452381D01*
X85937142Y-80404762D01*
X85984761Y-80357143D01*
X86032380Y-80261905D01*
X86032380Y-79452381D01*
X86508570Y-79785714D02*
X86508570Y-80452381D01*
X86508570Y-79880952D02*
X86556189Y-79833333D01*
X86651427Y-79785714D01*
X86794285Y-79785714D01*
X86889523Y-79833333D01*
X86937142Y-79928571D01*
X86937142Y-80452381D01*
X87270475Y-79785714D02*
X87651427Y-79785714D01*
X87413332Y-79452381D02*
X87413332Y-80309524D01*
X87460951Y-80404762D01*
X87556189Y-80452381D01*
X87651427Y-80452381D01*
X88365714Y-80404762D02*
X88270476Y-80452381D01*
X88079999Y-80452381D01*
X87984761Y-80404762D01*
X87937142Y-80309524D01*
X87937142Y-79928571D01*
X87984761Y-79833333D01*
X88079999Y-79785714D01*
X88270476Y-79785714D01*
X88365714Y-79833333D01*
X88413333Y-79928571D01*
X88413333Y-80023810D01*
X87937142Y-80119048D01*
X88841904Y-80452381D02*
X88841904Y-79785714D01*
X88841904Y-79976190D02*
X88889523Y-79880952D01*
X88937142Y-79833333D01*
X89032380Y-79785714D01*
X89127619Y-79785714D01*
X89460952Y-80452381D02*
X89460952Y-79785714D01*
X89460952Y-79880952D02*
X89508571Y-79833333D01*
X89603809Y-79785714D01*
X89746667Y-79785714D01*
X89841905Y-79833333D01*
X89889524Y-79928571D01*
X89889524Y-80452381D01*
X89889524Y-79928571D02*
X89937143Y-79833333D01*
X90032381Y-79785714D01*
X90175238Y-79785714D01*
X90270476Y-79833333D01*
X90318095Y-79928571D01*
X90318095Y-80452381D01*
X90794285Y-80452381D02*
X90794285Y-79785714D01*
X90794285Y-79452381D02*
X90746666Y-79500000D01*
X90794285Y-79547619D01*
X90841904Y-79500000D01*
X90794285Y-79452381D01*
X90794285Y-79547619D01*
X91270475Y-79785714D02*
X91270475Y-80452381D01*
X91270475Y-79880952D02*
X91318094Y-79833333D01*
X91413332Y-79785714D01*
X91556190Y-79785714D01*
X91651428Y-79833333D01*
X91699047Y-79928571D01*
X91699047Y-80452381D01*
X92603809Y-80452381D02*
X92603809Y-79928571D01*
X92556190Y-79833333D01*
X92460952Y-79785714D01*
X92270475Y-79785714D01*
X92175237Y-79833333D01*
X92603809Y-80404762D02*
X92508571Y-80452381D01*
X92270475Y-80452381D01*
X92175237Y-80404762D01*
X92127618Y-80309524D01*
X92127618Y-80214286D01*
X92175237Y-80119048D01*
X92270475Y-80071429D01*
X92508571Y-80071429D01*
X92603809Y-80023810D01*
X92937142Y-79785714D02*
X93318094Y-79785714D01*
X93079999Y-79452381D02*
X93079999Y-80309524D01*
X93127618Y-80404762D01*
X93222856Y-80452381D01*
X93318094Y-80452381D01*
X94032381Y-80404762D02*
X93937143Y-80452381D01*
X93746666Y-80452381D01*
X93651428Y-80404762D01*
X93603809Y-80309524D01*
X93603809Y-79928571D01*
X93651428Y-79833333D01*
X93746666Y-79785714D01*
X93937143Y-79785714D01*
X94032381Y-79833333D01*
X94080000Y-79928571D01*
X94080000Y-80023810D01*
X93603809Y-80119048D01*
X94937143Y-80452381D02*
X94937143Y-79452381D01*
X94937143Y-80404762D02*
X94841905Y-80452381D01*
X94651428Y-80452381D01*
X94556190Y-80404762D01*
X94508571Y-80357143D01*
X94460952Y-80261905D01*
X94460952Y-79976190D01*
X94508571Y-79880952D01*
X94556190Y-79833333D01*
X94651428Y-79785714D01*
X94841905Y-79785714D01*
X94937143Y-79833333D01*
X96032381Y-79452381D02*
X96603810Y-79452381D01*
X96318095Y-80452381D02*
X96318095Y-79452381D01*
X96937143Y-80452381D02*
X96937143Y-79785714D01*
X96937143Y-79976190D02*
X96984762Y-79880952D01*
X97032381Y-79833333D01*
X97127619Y-79785714D01*
X97222858Y-79785714D01*
X97984763Y-80452381D02*
X97984763Y-79928571D01*
X97937144Y-79833333D01*
X97841906Y-79785714D01*
X97651429Y-79785714D01*
X97556191Y-79833333D01*
X97984763Y-80404762D02*
X97889525Y-80452381D01*
X97651429Y-80452381D01*
X97556191Y-80404762D01*
X97508572Y-80309524D01*
X97508572Y-80214286D01*
X97556191Y-80119048D01*
X97651429Y-80071429D01*
X97889525Y-80071429D01*
X97984763Y-80023810D01*
X98889525Y-80404762D02*
X98794287Y-80452381D01*
X98603810Y-80452381D01*
X98508572Y-80404762D01*
X98460953Y-80357143D01*
X98413334Y-80261905D01*
X98413334Y-79976190D01*
X98460953Y-79880952D01*
X98508572Y-79833333D01*
X98603810Y-79785714D01*
X98794287Y-79785714D01*
X98889525Y-79833333D01*
X99699049Y-80404762D02*
X99603811Y-80452381D01*
X99413334Y-80452381D01*
X99318096Y-80404762D01*
X99270477Y-80309524D01*
X99270477Y-79928571D01*
X99318096Y-79833333D01*
X99413334Y-79785714D01*
X99603811Y-79785714D01*
X99699049Y-79833333D01*
X99746668Y-79928571D01*
X99746668Y-80023810D01*
X99270477Y-80119048D01*
X85413332Y-82452381D02*
X85413332Y-81452381D01*
X85746666Y-82166667D01*
X86079999Y-81452381D01*
X86079999Y-82452381D01*
X86984761Y-82452381D02*
X86984761Y-81928571D01*
X86937142Y-81833333D01*
X86841904Y-81785714D01*
X86651427Y-81785714D01*
X86556189Y-81833333D01*
X86984761Y-82404762D02*
X86889523Y-82452381D01*
X86651427Y-82452381D01*
X86556189Y-82404762D01*
X86508570Y-82309524D01*
X86508570Y-82214286D01*
X86556189Y-82119048D01*
X86651427Y-82071429D01*
X86889523Y-82071429D01*
X86984761Y-82023810D01*
X87413332Y-82404762D02*
X87508570Y-82452381D01*
X87699046Y-82452381D01*
X87794285Y-82404762D01*
X87841904Y-82309524D01*
X87841904Y-82261905D01*
X87794285Y-82166667D01*
X87699046Y-82119048D01*
X87556189Y-82119048D01*
X87460951Y-82071429D01*
X87413332Y-81976190D01*
X87413332Y-81928571D01*
X87460951Y-81833333D01*
X87556189Y-81785714D01*
X87699046Y-81785714D01*
X87794285Y-81833333D01*
X88270475Y-82452381D02*
X88270475Y-81452381D01*
X88365713Y-82071429D02*
X88651428Y-82452381D01*
X88651428Y-81785714D02*
X88270475Y-82166667D01*
X90413333Y-82357143D02*
X90365714Y-82404762D01*
X90222857Y-82452381D01*
X90127619Y-82452381D01*
X89984761Y-82404762D01*
X89889523Y-82309524D01*
X89841904Y-82214286D01*
X89794285Y-82023810D01*
X89794285Y-81880952D01*
X89841904Y-81690476D01*
X89889523Y-81595238D01*
X89984761Y-81500000D01*
X90127619Y-81452381D01*
X90222857Y-81452381D01*
X90365714Y-81500000D01*
X90413333Y-81547619D01*
X90984761Y-82452381D02*
X90889523Y-82404762D01*
X90841904Y-82309524D01*
X90841904Y-81452381D01*
X91746667Y-82404762D02*
X91651429Y-82452381D01*
X91460952Y-82452381D01*
X91365714Y-82404762D01*
X91318095Y-82309524D01*
X91318095Y-81928571D01*
X91365714Y-81833333D01*
X91460952Y-81785714D01*
X91651429Y-81785714D01*
X91746667Y-81833333D01*
X91794286Y-81928571D01*
X91794286Y-82023810D01*
X91318095Y-82119048D01*
X92651429Y-82452381D02*
X92651429Y-81928571D01*
X92603810Y-81833333D01*
X92508572Y-81785714D01*
X92318095Y-81785714D01*
X92222857Y-81833333D01*
X92651429Y-82404762D02*
X92556191Y-82452381D01*
X92318095Y-82452381D01*
X92222857Y-82404762D01*
X92175238Y-82309524D01*
X92175238Y-82214286D01*
X92222857Y-82119048D01*
X92318095Y-82071429D01*
X92556191Y-82071429D01*
X92651429Y-82023810D01*
X93127619Y-82452381D02*
X93127619Y-81785714D01*
X93127619Y-81976190D02*
X93175238Y-81880952D01*
X93222857Y-81833333D01*
X93318095Y-81785714D01*
X93413334Y-81785714D01*
X94127620Y-82404762D02*
X94032382Y-82452381D01*
X93841905Y-82452381D01*
X93746667Y-82404762D01*
X93699048Y-82309524D01*
X93699048Y-81928571D01*
X93746667Y-81833333D01*
X93841905Y-81785714D01*
X94032382Y-81785714D01*
X94127620Y-81833333D01*
X94175239Y-81928571D01*
X94175239Y-82023810D01*
X93699048Y-82119048D01*
X94603810Y-81785714D02*
X94603810Y-82452381D01*
X94603810Y-81880952D02*
X94651429Y-81833333D01*
X94746667Y-81785714D01*
X94889525Y-81785714D01*
X94984763Y-81833333D01*
X95032382Y-81928571D01*
X95032382Y-82452381D01*
X95937144Y-82404762D02*
X95841906Y-82452381D01*
X95651429Y-82452381D01*
X95556191Y-82404762D01*
X95508572Y-82357143D01*
X95460953Y-82261905D01*
X95460953Y-81976190D01*
X95508572Y-81880952D01*
X95556191Y-81833333D01*
X95651429Y-81785714D01*
X95841906Y-81785714D01*
X95937144Y-81833333D01*
X96746668Y-82404762D02*
X96651430Y-82452381D01*
X96460953Y-82452381D01*
X96365715Y-82404762D01*
X96318096Y-82309524D01*
X96318096Y-81928571D01*
X96365715Y-81833333D01*
X96460953Y-81785714D01*
X96651430Y-81785714D01*
X96746668Y-81833333D01*
X96794287Y-81928571D01*
X96794287Y-82023810D01*
X96318096Y-82119048D01*
X85899047Y-84452381D02*
X85422856Y-84452381D01*
X85422856Y-83452381D01*
X86613333Y-84404762D02*
X86518095Y-84452381D01*
X86327618Y-84452381D01*
X86232380Y-84404762D01*
X86184761Y-84309524D01*
X86184761Y-83928571D01*
X86232380Y-83833333D01*
X86327618Y-83785714D01*
X86518095Y-83785714D01*
X86613333Y-83833333D01*
X86660952Y-83928571D01*
X86660952Y-84023810D01*
X86184761Y-84119048D01*
X87518095Y-83785714D02*
X87518095Y-84595238D01*
X87470476Y-84690476D01*
X87422857Y-84738095D01*
X87327618Y-84785714D01*
X87184761Y-84785714D01*
X87089523Y-84738095D01*
X87518095Y-84404762D02*
X87422857Y-84452381D01*
X87232380Y-84452381D01*
X87137142Y-84404762D01*
X87089523Y-84357143D01*
X87041904Y-84261905D01*
X87041904Y-83976190D01*
X87089523Y-83880952D01*
X87137142Y-83833333D01*
X87232380Y-83785714D01*
X87422857Y-83785714D01*
X87518095Y-83833333D01*
X88375238Y-84404762D02*
X88280000Y-84452381D01*
X88089523Y-84452381D01*
X87994285Y-84404762D01*
X87946666Y-84309524D01*
X87946666Y-83928571D01*
X87994285Y-83833333D01*
X88089523Y-83785714D01*
X88280000Y-83785714D01*
X88375238Y-83833333D01*
X88422857Y-83928571D01*
X88422857Y-84023810D01*
X87946666Y-84119048D01*
X88851428Y-83785714D02*
X88851428Y-84452381D01*
X88851428Y-83880952D02*
X88899047Y-83833333D01*
X88994285Y-83785714D01*
X89137143Y-83785714D01*
X89232381Y-83833333D01*
X89280000Y-83928571D01*
X89280000Y-84452381D01*
X90184762Y-84452381D02*
X90184762Y-83452381D01*
X90184762Y-84404762D02*
X90089524Y-84452381D01*
X89899047Y-84452381D01*
X89803809Y-84404762D01*
X89756190Y-84357143D01*
X89708571Y-84261905D01*
X89708571Y-83976190D01*
X89756190Y-83880952D01*
X89803809Y-83833333D01*
X89899047Y-83785714D01*
X90089524Y-83785714D01*
X90184762Y-83833333D01*
X91565714Y-84452381D02*
X91470476Y-84404762D01*
X91422857Y-84357143D01*
X91375238Y-84261905D01*
X91375238Y-83976190D01*
X91422857Y-83880952D01*
X91470476Y-83833333D01*
X91565714Y-83785714D01*
X91708572Y-83785714D01*
X91803810Y-83833333D01*
X91851429Y-83880952D01*
X91899048Y-83976190D01*
X91899048Y-84261905D01*
X91851429Y-84357143D01*
X91803810Y-84404762D01*
X91708572Y-84452381D01*
X91565714Y-84452381D01*
X92327619Y-83785714D02*
X92327619Y-84452381D01*
X92327619Y-83880952D02*
X92375238Y-83833333D01*
X92470476Y-83785714D01*
X92613334Y-83785714D01*
X92708572Y-83833333D01*
X92756191Y-83928571D01*
X92756191Y-84452381D01*
X93994286Y-84452381D02*
X93994286Y-83452381D01*
X94375239Y-83452381D01*
X94470477Y-83500000D01*
X94518096Y-83547619D01*
X94565715Y-83642857D01*
X94565715Y-83785714D01*
X94518096Y-83880952D01*
X94470477Y-83928571D01*
X94375239Y-83976190D01*
X93994286Y-83976190D01*
X95422858Y-84452381D02*
X95422858Y-83928571D01*
X95375239Y-83833333D01*
X95280001Y-83785714D01*
X95089524Y-83785714D01*
X94994286Y-83833333D01*
X95422858Y-84404762D02*
X95327620Y-84452381D01*
X95089524Y-84452381D01*
X94994286Y-84404762D01*
X94946667Y-84309524D01*
X94946667Y-84214286D01*
X94994286Y-84119048D01*
X95089524Y-84071429D01*
X95327620Y-84071429D01*
X95422858Y-84023810D01*
X96327620Y-84452381D02*
X96327620Y-83452381D01*
X96327620Y-84404762D02*
X96232382Y-84452381D01*
X96041905Y-84452381D01*
X95946667Y-84404762D01*
X95899048Y-84357143D01*
X95851429Y-84261905D01*
X95851429Y-83976190D01*
X95899048Y-83880952D01*
X95946667Y-83833333D01*
X96041905Y-83785714D01*
X96232382Y-83785714D01*
X96327620Y-83833333D01*
X96756191Y-84404762D02*
X96851429Y-84452381D01*
X97041905Y-84452381D01*
X97137144Y-84404762D01*
X97184763Y-84309524D01*
X97184763Y-84261905D01*
X97137144Y-84166667D01*
X97041905Y-84119048D01*
X96899048Y-84119048D01*
X96803810Y-84071429D01*
X96756191Y-83976190D01*
X96756191Y-83928571D01*
X96803810Y-83833333D01*
X96899048Y-83785714D01*
X97041905Y-83785714D01*
X97137144Y-83833333D01*
X85708571Y-85928571D02*
X85851428Y-85976190D01*
X85899047Y-86023810D01*
X85946666Y-86119048D01*
X85946666Y-86261905D01*
X85899047Y-86357143D01*
X85851428Y-86404762D01*
X85756190Y-86452381D01*
X85375237Y-86452381D01*
X85375237Y-85452381D01*
X85708571Y-85452381D01*
X85803809Y-85500000D01*
X85851428Y-85547619D01*
X85899047Y-85642857D01*
X85899047Y-85738095D01*
X85851428Y-85833333D01*
X85803809Y-85880952D01*
X85708571Y-85928571D01*
X85375237Y-85928571D01*
X86518094Y-86452381D02*
X86422856Y-86404762D01*
X86375237Y-86357143D01*
X86327618Y-86261905D01*
X86327618Y-85976190D01*
X86375237Y-85880952D01*
X86422856Y-85833333D01*
X86518094Y-85785714D01*
X86660952Y-85785714D01*
X86756190Y-85833333D01*
X86803809Y-85880952D01*
X86851428Y-85976190D01*
X86851428Y-86261905D01*
X86803809Y-86357143D01*
X86756190Y-86404762D01*
X86660952Y-86452381D01*
X86518094Y-86452381D01*
X87708571Y-86452381D02*
X87708571Y-85928571D01*
X87660952Y-85833333D01*
X87565714Y-85785714D01*
X87375237Y-85785714D01*
X87279999Y-85833333D01*
X87708571Y-86404762D02*
X87613333Y-86452381D01*
X87375237Y-86452381D01*
X87279999Y-86404762D01*
X87232380Y-86309524D01*
X87232380Y-86214286D01*
X87279999Y-86119048D01*
X87375237Y-86071429D01*
X87613333Y-86071429D01*
X87708571Y-86023810D01*
X88184761Y-86452381D02*
X88184761Y-85785714D01*
X88184761Y-85976190D02*
X88232380Y-85880952D01*
X88279999Y-85833333D01*
X88375237Y-85785714D01*
X88470476Y-85785714D01*
X89232381Y-86452381D02*
X89232381Y-85452381D01*
X89232381Y-86404762D02*
X89137143Y-86452381D01*
X88946666Y-86452381D01*
X88851428Y-86404762D01*
X88803809Y-86357143D01*
X88756190Y-86261905D01*
X88756190Y-85976190D01*
X88803809Y-85880952D01*
X88851428Y-85833333D01*
X88946666Y-85785714D01*
X89137143Y-85785714D01*
X89232381Y-85833333D01*
X90327619Y-85452381D02*
X90899048Y-85452381D01*
X90613333Y-86452381D02*
X90613333Y-85452381D01*
X91232381Y-86452381D02*
X91232381Y-85452381D01*
X91660953Y-86452381D02*
X91660953Y-85928571D01*
X91613334Y-85833333D01*
X91518096Y-85785714D01*
X91375238Y-85785714D01*
X91280000Y-85833333D01*
X91232381Y-85880952D01*
X92137143Y-86452381D02*
X92137143Y-85785714D01*
X92137143Y-85452381D02*
X92089524Y-85500000D01*
X92137143Y-85547619D01*
X92184762Y-85500000D01*
X92137143Y-85452381D01*
X92137143Y-85547619D01*
X93041905Y-86404762D02*
X92946667Y-86452381D01*
X92756190Y-86452381D01*
X92660952Y-86404762D01*
X92613333Y-86357143D01*
X92565714Y-86261905D01*
X92565714Y-85976190D01*
X92613333Y-85880952D01*
X92660952Y-85833333D01*
X92756190Y-85785714D01*
X92946667Y-85785714D01*
X93041905Y-85833333D01*
X93470476Y-86452381D02*
X93470476Y-85452381D01*
X93565714Y-86071429D02*
X93851429Y-86452381D01*
X93851429Y-85785714D02*
X93470476Y-86166667D01*
X94280000Y-85785714D02*
X94280000Y-86452381D01*
X94280000Y-85880952D02*
X94327619Y-85833333D01*
X94422857Y-85785714D01*
X94565715Y-85785714D01*
X94660953Y-85833333D01*
X94708572Y-85928571D01*
X94708572Y-86452381D01*
X95565715Y-86404762D02*
X95470477Y-86452381D01*
X95280000Y-86452381D01*
X95184762Y-86404762D01*
X95137143Y-86309524D01*
X95137143Y-85928571D01*
X95184762Y-85833333D01*
X95280000Y-85785714D01*
X95470477Y-85785714D01*
X95565715Y-85833333D01*
X95613334Y-85928571D01*
X95613334Y-86023810D01*
X95137143Y-86119048D01*
X95994286Y-86404762D02*
X96089524Y-86452381D01*
X96280000Y-86452381D01*
X96375239Y-86404762D01*
X96422858Y-86309524D01*
X96422858Y-86261905D01*
X96375239Y-86166667D01*
X96280000Y-86119048D01*
X96137143Y-86119048D01*
X96041905Y-86071429D01*
X95994286Y-85976190D01*
X95994286Y-85928571D01*
X96041905Y-85833333D01*
X96137143Y-85785714D01*
X96280000Y-85785714D01*
X96375239Y-85833333D01*
X96803810Y-86404762D02*
X96899048Y-86452381D01*
X97089524Y-86452381D01*
X97184763Y-86404762D01*
X97232382Y-86309524D01*
X97232382Y-86261905D01*
X97184763Y-86166667D01*
X97089524Y-86119048D01*
X96946667Y-86119048D01*
X96851429Y-86071429D01*
X96803810Y-85976190D01*
X96803810Y-85928571D01*
X96851429Y-85833333D01*
X96946667Y-85785714D01*
X97089524Y-85785714D01*
X97184763Y-85833333D01*
X85418095Y-88652381D02*
X85418095Y-87652381D01*
X85751429Y-88366667D01*
X86084762Y-87652381D01*
X86084762Y-88652381D01*
X86989524Y-88652381D02*
X86989524Y-88128571D01*
X86941905Y-88033333D01*
X86846667Y-87985714D01*
X86656190Y-87985714D01*
X86560952Y-88033333D01*
X86989524Y-88604762D02*
X86894286Y-88652381D01*
X86656190Y-88652381D01*
X86560952Y-88604762D01*
X86513333Y-88509524D01*
X86513333Y-88414286D01*
X86560952Y-88319048D01*
X86656190Y-88271429D01*
X86894286Y-88271429D01*
X86989524Y-88223810D01*
X87322857Y-87985714D02*
X87703809Y-87985714D01*
X87465714Y-87652381D02*
X87465714Y-88509524D01*
X87513333Y-88604762D01*
X87608571Y-88652381D01*
X87703809Y-88652381D01*
X88418096Y-88604762D02*
X88322858Y-88652381D01*
X88132381Y-88652381D01*
X88037143Y-88604762D01*
X87989524Y-88509524D01*
X87989524Y-88128571D01*
X88037143Y-88033333D01*
X88132381Y-87985714D01*
X88322858Y-87985714D01*
X88418096Y-88033333D01*
X88465715Y-88128571D01*
X88465715Y-88223810D01*
X87989524Y-88319048D01*
X88894286Y-88652381D02*
X88894286Y-87985714D01*
X88894286Y-88176190D02*
X88941905Y-88080952D01*
X88989524Y-88033333D01*
X89084762Y-87985714D01*
X89180001Y-87985714D01*
X89513334Y-88652381D02*
X89513334Y-87985714D01*
X89513334Y-87652381D02*
X89465715Y-87700000D01*
X89513334Y-87747619D01*
X89560953Y-87700000D01*
X89513334Y-87652381D01*
X89513334Y-87747619D01*
X90418096Y-88652381D02*
X90418096Y-88128571D01*
X90370477Y-88033333D01*
X90275239Y-87985714D01*
X90084762Y-87985714D01*
X89989524Y-88033333D01*
X90418096Y-88604762D02*
X90322858Y-88652381D01*
X90084762Y-88652381D01*
X89989524Y-88604762D01*
X89941905Y-88509524D01*
X89941905Y-88414286D01*
X89989524Y-88319048D01*
X90084762Y-88271429D01*
X90322858Y-88271429D01*
X90418096Y-88223810D01*
X91037143Y-88652381D02*
X90941905Y-88604762D01*
X90894286Y-88509524D01*
X90894286Y-87652381D01*
X85937142Y-90552381D02*
X85460951Y-90552381D01*
X85460951Y-89552381D01*
X86651428Y-90504762D02*
X86556190Y-90552381D01*
X86365713Y-90552381D01*
X86270475Y-90504762D01*
X86222856Y-90409524D01*
X86222856Y-90028571D01*
X86270475Y-89933333D01*
X86365713Y-89885714D01*
X86556190Y-89885714D01*
X86651428Y-89933333D01*
X86699047Y-90028571D01*
X86699047Y-90123810D01*
X86222856Y-90219048D01*
X87556190Y-89885714D02*
X87556190Y-90695238D01*
X87508571Y-90790476D01*
X87460952Y-90838095D01*
X87365713Y-90885714D01*
X87222856Y-90885714D01*
X87127618Y-90838095D01*
X87556190Y-90504762D02*
X87460952Y-90552381D01*
X87270475Y-90552381D01*
X87175237Y-90504762D01*
X87127618Y-90457143D01*
X87079999Y-90361905D01*
X87079999Y-90076190D01*
X87127618Y-89980952D01*
X87175237Y-89933333D01*
X87270475Y-89885714D01*
X87460952Y-89885714D01*
X87556190Y-89933333D01*
X88413333Y-90504762D02*
X88318095Y-90552381D01*
X88127618Y-90552381D01*
X88032380Y-90504762D01*
X87984761Y-90409524D01*
X87984761Y-90028571D01*
X88032380Y-89933333D01*
X88127618Y-89885714D01*
X88318095Y-89885714D01*
X88413333Y-89933333D01*
X88460952Y-90028571D01*
X88460952Y-90123810D01*
X87984761Y-90219048D01*
X88889523Y-89885714D02*
X88889523Y-90552381D01*
X88889523Y-89980952D02*
X88937142Y-89933333D01*
X89032380Y-89885714D01*
X89175238Y-89885714D01*
X89270476Y-89933333D01*
X89318095Y-90028571D01*
X89318095Y-90552381D01*
X90222857Y-90552381D02*
X90222857Y-89552381D01*
X90222857Y-90504762D02*
X90127619Y-90552381D01*
X89937142Y-90552381D01*
X89841904Y-90504762D01*
X89794285Y-90457143D01*
X89746666Y-90361905D01*
X89746666Y-90076190D01*
X89794285Y-89980952D01*
X89841904Y-89933333D01*
X89937142Y-89885714D01*
X90127619Y-89885714D01*
X90222857Y-89933333D01*
X91603809Y-90552381D02*
X91508571Y-90504762D01*
X91460952Y-90457143D01*
X91413333Y-90361905D01*
X91413333Y-90076190D01*
X91460952Y-89980952D01*
X91508571Y-89933333D01*
X91603809Y-89885714D01*
X91746667Y-89885714D01*
X91841905Y-89933333D01*
X91889524Y-89980952D01*
X91937143Y-90076190D01*
X91937143Y-90361905D01*
X91889524Y-90457143D01*
X91841905Y-90504762D01*
X91746667Y-90552381D01*
X91603809Y-90552381D01*
X92365714Y-89885714D02*
X92365714Y-90552381D01*
X92365714Y-89980952D02*
X92413333Y-89933333D01*
X92508571Y-89885714D01*
X92651429Y-89885714D01*
X92746667Y-89933333D01*
X92794286Y-90028571D01*
X92794286Y-90552381D01*
X94365715Y-90028571D02*
X94508572Y-90076190D01*
X94556191Y-90123810D01*
X94603810Y-90219048D01*
X94603810Y-90361905D01*
X94556191Y-90457143D01*
X94508572Y-90504762D01*
X94413334Y-90552381D01*
X94032381Y-90552381D01*
X94032381Y-89552381D01*
X94365715Y-89552381D01*
X94460953Y-89600000D01*
X94508572Y-89647619D01*
X94556191Y-89742857D01*
X94556191Y-89838095D01*
X94508572Y-89933333D01*
X94460953Y-89980952D01*
X94365715Y-90028571D01*
X94032381Y-90028571D01*
X95175238Y-90552381D02*
X95080000Y-90504762D01*
X95032381Y-90457143D01*
X94984762Y-90361905D01*
X94984762Y-90076190D01*
X95032381Y-89980952D01*
X95080000Y-89933333D01*
X95175238Y-89885714D01*
X95318096Y-89885714D01*
X95413334Y-89933333D01*
X95460953Y-89980952D01*
X95508572Y-90076190D01*
X95508572Y-90361905D01*
X95460953Y-90457143D01*
X95413334Y-90504762D01*
X95318096Y-90552381D01*
X95175238Y-90552381D01*
X95794286Y-89885714D02*
X96175238Y-89885714D01*
X95937143Y-89552381D02*
X95937143Y-90409524D01*
X95984762Y-90504762D01*
X96080000Y-90552381D01*
X96175238Y-90552381D01*
X96508572Y-90552381D02*
X96508572Y-89552381D01*
X96937144Y-90552381D02*
X96937144Y-90028571D01*
X96889525Y-89933333D01*
X96794287Y-89885714D01*
X96651429Y-89885714D01*
X96556191Y-89933333D01*
X96508572Y-89980952D01*
X98127620Y-90504762D02*
X98270477Y-90552381D01*
X98508573Y-90552381D01*
X98603811Y-90504762D01*
X98651430Y-90457143D01*
X98699049Y-90361905D01*
X98699049Y-90266667D01*
X98651430Y-90171429D01*
X98603811Y-90123810D01*
X98508573Y-90076190D01*
X98318096Y-90028571D01*
X98222858Y-89980952D01*
X98175239Y-89933333D01*
X98127620Y-89838095D01*
X98127620Y-89742857D01*
X98175239Y-89647619D01*
X98222858Y-89600000D01*
X98318096Y-89552381D01*
X98556192Y-89552381D01*
X98699049Y-89600000D01*
X99127620Y-90552381D02*
X99127620Y-89885714D01*
X99127620Y-89552381D02*
X99080001Y-89600000D01*
X99127620Y-89647619D01*
X99175239Y-89600000D01*
X99127620Y-89552381D01*
X99127620Y-89647619D01*
X100032382Y-90552381D02*
X100032382Y-89552381D01*
X100032382Y-90504762D02*
X99937144Y-90552381D01*
X99746667Y-90552381D01*
X99651429Y-90504762D01*
X99603810Y-90457143D01*
X99556191Y-90361905D01*
X99556191Y-90076190D01*
X99603810Y-89980952D01*
X99651429Y-89933333D01*
X99746667Y-89885714D01*
X99937144Y-89885714D01*
X100032382Y-89933333D01*
X100889525Y-90504762D02*
X100794287Y-90552381D01*
X100603810Y-90552381D01*
X100508572Y-90504762D01*
X100460953Y-90409524D01*
X100460953Y-90028571D01*
X100508572Y-89933333D01*
X100603810Y-89885714D01*
X100794287Y-89885714D01*
X100889525Y-89933333D01*
X100937144Y-90028571D01*
X100937144Y-90123810D01*
X100460953Y-90219048D01*
X101318096Y-90504762D02*
X101413334Y-90552381D01*
X101603810Y-90552381D01*
X101699049Y-90504762D01*
X101746668Y-90409524D01*
X101746668Y-90361905D01*
X101699049Y-90266667D01*
X101603810Y-90219048D01*
X101460953Y-90219048D01*
X101365715Y-90171429D01*
X101318096Y-90076190D01*
X101318096Y-90028571D01*
X101365715Y-89933333D01*
X101460953Y-89885714D01*
X101603810Y-89885714D01*
X101699049Y-89933333D01*
X85446666Y-92552381D02*
X85446666Y-91552381D01*
X85780000Y-92266667D01*
X86113333Y-91552381D01*
X86113333Y-92552381D01*
X87018095Y-92552381D02*
X87018095Y-92028571D01*
X86970476Y-91933333D01*
X86875238Y-91885714D01*
X86684761Y-91885714D01*
X86589523Y-91933333D01*
X87018095Y-92504762D02*
X86922857Y-92552381D01*
X86684761Y-92552381D01*
X86589523Y-92504762D01*
X86541904Y-92409524D01*
X86541904Y-92314286D01*
X86589523Y-92219048D01*
X86684761Y-92171429D01*
X86922857Y-92171429D01*
X87018095Y-92123810D01*
X87446666Y-92504762D02*
X87541904Y-92552381D01*
X87732380Y-92552381D01*
X87827619Y-92504762D01*
X87875238Y-92409524D01*
X87875238Y-92361905D01*
X87827619Y-92266667D01*
X87732380Y-92219048D01*
X87589523Y-92219048D01*
X87494285Y-92171429D01*
X87446666Y-92076190D01*
X87446666Y-92028571D01*
X87494285Y-91933333D01*
X87589523Y-91885714D01*
X87732380Y-91885714D01*
X87827619Y-91933333D01*
X88303809Y-92552381D02*
X88303809Y-91552381D01*
X88399047Y-92171429D02*
X88684762Y-92552381D01*
X88684762Y-91885714D02*
X88303809Y-92266667D01*
X90018095Y-92552381D02*
X89922857Y-92504762D01*
X89875238Y-92457143D01*
X89827619Y-92361905D01*
X89827619Y-92076190D01*
X89875238Y-91980952D01*
X89922857Y-91933333D01*
X90018095Y-91885714D01*
X90160953Y-91885714D01*
X90256191Y-91933333D01*
X90303810Y-91980952D01*
X90351429Y-92076190D01*
X90351429Y-92361905D01*
X90303810Y-92457143D01*
X90256191Y-92504762D01*
X90160953Y-92552381D01*
X90018095Y-92552381D01*
X90780000Y-91885714D02*
X90780000Y-92552381D01*
X90780000Y-91980952D02*
X90827619Y-91933333D01*
X90922857Y-91885714D01*
X91065715Y-91885714D01*
X91160953Y-91933333D01*
X91208572Y-92028571D01*
X91208572Y-92552381D01*
X92780001Y-92028571D02*
X92922858Y-92076190D01*
X92970477Y-92123810D01*
X93018096Y-92219048D01*
X93018096Y-92361905D01*
X92970477Y-92457143D01*
X92922858Y-92504762D01*
X92827620Y-92552381D01*
X92446667Y-92552381D01*
X92446667Y-91552381D01*
X92780001Y-91552381D01*
X92875239Y-91600000D01*
X92922858Y-91647619D01*
X92970477Y-91742857D01*
X92970477Y-91838095D01*
X92922858Y-91933333D01*
X92875239Y-91980952D01*
X92780001Y-92028571D01*
X92446667Y-92028571D01*
X93589524Y-92552381D02*
X93494286Y-92504762D01*
X93446667Y-92457143D01*
X93399048Y-92361905D01*
X93399048Y-92076190D01*
X93446667Y-91980952D01*
X93494286Y-91933333D01*
X93589524Y-91885714D01*
X93732382Y-91885714D01*
X93827620Y-91933333D01*
X93875239Y-91980952D01*
X93922858Y-92076190D01*
X93922858Y-92361905D01*
X93875239Y-92457143D01*
X93827620Y-92504762D01*
X93732382Y-92552381D01*
X93589524Y-92552381D01*
X94208572Y-91885714D02*
X94589524Y-91885714D01*
X94351429Y-91552381D02*
X94351429Y-92409524D01*
X94399048Y-92504762D01*
X94494286Y-92552381D01*
X94589524Y-92552381D01*
X94922858Y-92552381D02*
X94922858Y-91552381D01*
X95351430Y-92552381D02*
X95351430Y-92028571D01*
X95303811Y-91933333D01*
X95208573Y-91885714D01*
X95065715Y-91885714D01*
X94970477Y-91933333D01*
X94922858Y-91980952D01*
X96541906Y-92504762D02*
X96684763Y-92552381D01*
X96922859Y-92552381D01*
X97018097Y-92504762D01*
X97065716Y-92457143D01*
X97113335Y-92361905D01*
X97113335Y-92266667D01*
X97065716Y-92171429D01*
X97018097Y-92123810D01*
X96922859Y-92076190D01*
X96732382Y-92028571D01*
X96637144Y-91980952D01*
X96589525Y-91933333D01*
X96541906Y-91838095D01*
X96541906Y-91742857D01*
X96589525Y-91647619D01*
X96637144Y-91600000D01*
X96732382Y-91552381D01*
X96970478Y-91552381D01*
X97113335Y-91600000D01*
X97541906Y-92552381D02*
X97541906Y-91885714D01*
X97541906Y-91552381D02*
X97494287Y-91600000D01*
X97541906Y-91647619D01*
X97589525Y-91600000D01*
X97541906Y-91552381D01*
X97541906Y-91647619D01*
X98446668Y-92552381D02*
X98446668Y-91552381D01*
X98446668Y-92504762D02*
X98351430Y-92552381D01*
X98160953Y-92552381D01*
X98065715Y-92504762D01*
X98018096Y-92457143D01*
X97970477Y-92361905D01*
X97970477Y-92076190D01*
X98018096Y-91980952D01*
X98065715Y-91933333D01*
X98160953Y-91885714D01*
X98351430Y-91885714D01*
X98446668Y-91933333D01*
X99303811Y-92504762D02*
X99208573Y-92552381D01*
X99018096Y-92552381D01*
X98922858Y-92504762D01*
X98875239Y-92409524D01*
X98875239Y-92028571D01*
X98922858Y-91933333D01*
X99018096Y-91885714D01*
X99208573Y-91885714D01*
X99303811Y-91933333D01*
X99351430Y-92028571D01*
X99351430Y-92123810D01*
X98875239Y-92219048D01*
X99732382Y-92504762D02*
X99827620Y-92552381D01*
X100018096Y-92552381D01*
X100113335Y-92504762D01*
X100160954Y-92409524D01*
X100160954Y-92361905D01*
X100113335Y-92266667D01*
X100018096Y-92219048D01*
X99875239Y-92219048D01*
X99780001Y-92171429D01*
X99732382Y-92076190D01*
X99732382Y-92028571D01*
X99780001Y-91933333D01*
X99875239Y-91885714D01*
X100018096Y-91885714D01*
X100113335Y-91933333D01*
X85446666Y-94452381D02*
X85446666Y-93452381D01*
X85922856Y-94452381D02*
X85922856Y-93785714D01*
X85922856Y-93880952D02*
X85970475Y-93833333D01*
X86065713Y-93785714D01*
X86208571Y-93785714D01*
X86303809Y-93833333D01*
X86351428Y-93928571D01*
X86351428Y-94452381D01*
X86351428Y-93928571D02*
X86399047Y-93833333D01*
X86494285Y-93785714D01*
X86637142Y-93785714D01*
X86732380Y-93833333D01*
X86779999Y-93928571D01*
X86779999Y-94452381D01*
X87256189Y-93785714D02*
X87256189Y-94785714D01*
X87256189Y-93833333D02*
X87351427Y-93785714D01*
X87541904Y-93785714D01*
X87637142Y-93833333D01*
X87684761Y-93880952D01*
X87732380Y-93976190D01*
X87732380Y-94261905D01*
X87684761Y-94357143D01*
X87637142Y-94404762D01*
X87541904Y-94452381D01*
X87351427Y-94452381D01*
X87256189Y-94404762D01*
X88541904Y-94404762D02*
X88446666Y-94452381D01*
X88256189Y-94452381D01*
X88160951Y-94404762D01*
X88113332Y-94309524D01*
X88113332Y-93928571D01*
X88160951Y-93833333D01*
X88256189Y-93785714D01*
X88446666Y-93785714D01*
X88541904Y-93833333D01*
X88589523Y-93928571D01*
X88589523Y-94023810D01*
X88113332Y-94119048D01*
X89446666Y-94452381D02*
X89446666Y-93452381D01*
X89446666Y-94404762D02*
X89351428Y-94452381D01*
X89160951Y-94452381D01*
X89065713Y-94404762D01*
X89018094Y-94357143D01*
X88970475Y-94261905D01*
X88970475Y-93976190D01*
X89018094Y-93880952D01*
X89065713Y-93833333D01*
X89160951Y-93785714D01*
X89351428Y-93785714D01*
X89446666Y-93833333D01*
X90303809Y-94404762D02*
X90208571Y-94452381D01*
X90018094Y-94452381D01*
X89922856Y-94404762D01*
X89875237Y-94309524D01*
X89875237Y-93928571D01*
X89922856Y-93833333D01*
X90018094Y-93785714D01*
X90208571Y-93785714D01*
X90303809Y-93833333D01*
X90351428Y-93928571D01*
X90351428Y-94023810D01*
X89875237Y-94119048D01*
X90779999Y-93785714D02*
X90779999Y-94452381D01*
X90779999Y-93880952D02*
X90827618Y-93833333D01*
X90922856Y-93785714D01*
X91065714Y-93785714D01*
X91160952Y-93833333D01*
X91208571Y-93928571D01*
X91208571Y-94452381D01*
X92113333Y-94404762D02*
X92018095Y-94452381D01*
X91827618Y-94452381D01*
X91732380Y-94404762D01*
X91684761Y-94357143D01*
X91637142Y-94261905D01*
X91637142Y-93976190D01*
X91684761Y-93880952D01*
X91732380Y-93833333D01*
X91827618Y-93785714D01*
X92018095Y-93785714D01*
X92113333Y-93833333D01*
X92922857Y-94404762D02*
X92827619Y-94452381D01*
X92637142Y-94452381D01*
X92541904Y-94404762D01*
X92494285Y-94309524D01*
X92494285Y-93928571D01*
X92541904Y-93833333D01*
X92637142Y-93785714D01*
X92827619Y-93785714D01*
X92922857Y-93833333D01*
X92970476Y-93928571D01*
X92970476Y-94023810D01*
X92494285Y-94119048D01*
X94732381Y-94357143D02*
X94684762Y-94404762D01*
X94541905Y-94452381D01*
X94446667Y-94452381D01*
X94303809Y-94404762D01*
X94208571Y-94309524D01*
X94160952Y-94214286D01*
X94113333Y-94023810D01*
X94113333Y-93880952D01*
X94160952Y-93690476D01*
X94208571Y-93595238D01*
X94303809Y-93500000D01*
X94446667Y-93452381D01*
X94541905Y-93452381D01*
X94684762Y-93500000D01*
X94732381Y-93547619D01*
X95303809Y-94452381D02*
X95208571Y-94404762D01*
X95160952Y-94357143D01*
X95113333Y-94261905D01*
X95113333Y-93976190D01*
X95160952Y-93880952D01*
X95208571Y-93833333D01*
X95303809Y-93785714D01*
X95446667Y-93785714D01*
X95541905Y-93833333D01*
X95589524Y-93880952D01*
X95637143Y-93976190D01*
X95637143Y-94261905D01*
X95589524Y-94357143D01*
X95541905Y-94404762D01*
X95446667Y-94452381D01*
X95303809Y-94452381D01*
X96065714Y-93785714D02*
X96065714Y-94452381D01*
X96065714Y-93880952D02*
X96113333Y-93833333D01*
X96208571Y-93785714D01*
X96351429Y-93785714D01*
X96446667Y-93833333D01*
X96494286Y-93928571D01*
X96494286Y-94452381D01*
X96827619Y-93785714D02*
X97208571Y-93785714D01*
X96970476Y-93452381D02*
X96970476Y-94309524D01*
X97018095Y-94404762D01*
X97113333Y-94452381D01*
X97208571Y-94452381D01*
X97541905Y-94452381D02*
X97541905Y-93785714D01*
X97541905Y-93976190D02*
X97589524Y-93880952D01*
X97637143Y-93833333D01*
X97732381Y-93785714D01*
X97827620Y-93785714D01*
X98303810Y-94452381D02*
X98208572Y-94404762D01*
X98160953Y-94357143D01*
X98113334Y-94261905D01*
X98113334Y-93976190D01*
X98160953Y-93880952D01*
X98208572Y-93833333D01*
X98303810Y-93785714D01*
X98446668Y-93785714D01*
X98541906Y-93833333D01*
X98589525Y-93880952D01*
X98637144Y-93976190D01*
X98637144Y-94261905D01*
X98589525Y-94357143D01*
X98541906Y-94404762D01*
X98446668Y-94452381D01*
X98303810Y-94452381D01*
X99208572Y-94452381D02*
X99113334Y-94404762D01*
X99065715Y-94309524D01*
X99065715Y-93452381D01*
X86018095Y-96257143D02*
X85970476Y-96304762D01*
X85827619Y-96352381D01*
X85732381Y-96352381D01*
X85589523Y-96304762D01*
X85494285Y-96209524D01*
X85446666Y-96114286D01*
X85399047Y-95923810D01*
X85399047Y-95780952D01*
X85446666Y-95590476D01*
X85494285Y-95495238D01*
X85589523Y-95400000D01*
X85732381Y-95352381D01*
X85827619Y-95352381D01*
X85970476Y-95400000D01*
X86018095Y-95447619D01*
X86589523Y-96352381D02*
X86494285Y-96304762D01*
X86446666Y-96257143D01*
X86399047Y-96161905D01*
X86399047Y-95876190D01*
X86446666Y-95780952D01*
X86494285Y-95733333D01*
X86589523Y-95685714D01*
X86732381Y-95685714D01*
X86827619Y-95733333D01*
X86875238Y-95780952D01*
X86922857Y-95876190D01*
X86922857Y-96161905D01*
X86875238Y-96257143D01*
X86827619Y-96304762D01*
X86732381Y-96352381D01*
X86589523Y-96352381D01*
X87351428Y-95685714D02*
X87351428Y-96685714D01*
X87351428Y-95733333D02*
X87446666Y-95685714D01*
X87637143Y-95685714D01*
X87732381Y-95733333D01*
X87780000Y-95780952D01*
X87827619Y-95876190D01*
X87827619Y-96161905D01*
X87780000Y-96257143D01*
X87732381Y-96304762D01*
X87637143Y-96352381D01*
X87446666Y-96352381D01*
X87351428Y-96304762D01*
X88256190Y-95685714D02*
X88256190Y-96685714D01*
X88256190Y-95733333D02*
X88351428Y-95685714D01*
X88541905Y-95685714D01*
X88637143Y-95733333D01*
X88684762Y-95780952D01*
X88732381Y-95876190D01*
X88732381Y-96161905D01*
X88684762Y-96257143D01*
X88637143Y-96304762D01*
X88541905Y-96352381D01*
X88351428Y-96352381D01*
X88256190Y-96304762D01*
X89541905Y-96304762D02*
X89446667Y-96352381D01*
X89256190Y-96352381D01*
X89160952Y-96304762D01*
X89113333Y-96209524D01*
X89113333Y-95828571D01*
X89160952Y-95733333D01*
X89256190Y-95685714D01*
X89446667Y-95685714D01*
X89541905Y-95733333D01*
X89589524Y-95828571D01*
X89589524Y-95923810D01*
X89113333Y-96019048D01*
X90018095Y-96352381D02*
X90018095Y-95685714D01*
X90018095Y-95876190D02*
X90065714Y-95780952D01*
X90113333Y-95733333D01*
X90208571Y-95685714D01*
X90303810Y-95685714D01*
X91256191Y-95352381D02*
X91827620Y-95352381D01*
X91541905Y-96352381D02*
X91541905Y-95352381D01*
X92160953Y-96352381D02*
X92160953Y-95352381D01*
X92589525Y-96352381D02*
X92589525Y-95828571D01*
X92541906Y-95733333D01*
X92446668Y-95685714D01*
X92303810Y-95685714D01*
X92208572Y-95733333D01*
X92160953Y-95780952D01*
X93065715Y-96352381D02*
X93065715Y-95685714D01*
X93065715Y-95352381D02*
X93018096Y-95400000D01*
X93065715Y-95447619D01*
X93113334Y-95400000D01*
X93065715Y-95352381D01*
X93065715Y-95447619D01*
X93970477Y-96304762D02*
X93875239Y-96352381D01*
X93684762Y-96352381D01*
X93589524Y-96304762D01*
X93541905Y-96257143D01*
X93494286Y-96161905D01*
X93494286Y-95876190D01*
X93541905Y-95780952D01*
X93589524Y-95733333D01*
X93684762Y-95685714D01*
X93875239Y-95685714D01*
X93970477Y-95733333D01*
X94399048Y-96352381D02*
X94399048Y-95352381D01*
X94494286Y-95971429D02*
X94780001Y-96352381D01*
X94780001Y-95685714D02*
X94399048Y-96066667D01*
X95208572Y-95685714D02*
X95208572Y-96352381D01*
X95208572Y-95780952D02*
X95256191Y-95733333D01*
X95351429Y-95685714D01*
X95494287Y-95685714D01*
X95589525Y-95733333D01*
X95637144Y-95828571D01*
X95637144Y-96352381D01*
X96494287Y-96304762D02*
X96399049Y-96352381D01*
X96208572Y-96352381D01*
X96113334Y-96304762D01*
X96065715Y-96209524D01*
X96065715Y-95828571D01*
X96113334Y-95733333D01*
X96208572Y-95685714D01*
X96399049Y-95685714D01*
X96494287Y-95733333D01*
X96541906Y-95828571D01*
X96541906Y-95923810D01*
X96065715Y-96019048D01*
X96922858Y-96304762D02*
X97018096Y-96352381D01*
X97208572Y-96352381D01*
X97303811Y-96304762D01*
X97351430Y-96209524D01*
X97351430Y-96161905D01*
X97303811Y-96066667D01*
X97208572Y-96019048D01*
X97065715Y-96019048D01*
X96970477Y-95971429D01*
X96922858Y-95876190D01*
X96922858Y-95828571D01*
X96970477Y-95733333D01*
X97065715Y-95685714D01*
X97208572Y-95685714D01*
X97303811Y-95733333D01*
X97732382Y-96304762D02*
X97827620Y-96352381D01*
X98018096Y-96352381D01*
X98113335Y-96304762D01*
X98160954Y-96209524D01*
X98160954Y-96161905D01*
X98113335Y-96066667D01*
X98018096Y-96019048D01*
X97875239Y-96019048D01*
X97780001Y-95971429D01*
X97732382Y-95876190D01*
X97732382Y-95828571D01*
X97780001Y-95733333D01*
X97875239Y-95685714D01*
X98018096Y-95685714D01*
X98113335Y-95733333D01*
X85837144Y-98028571D02*
X85503810Y-98028571D01*
X85503810Y-98552381D02*
X85503810Y-97552381D01*
X85980001Y-97552381D01*
X86360953Y-98552381D02*
X86360953Y-97885714D01*
X86360953Y-97552381D02*
X86313334Y-97600000D01*
X86360953Y-97647619D01*
X86408572Y-97600000D01*
X86360953Y-97552381D01*
X86360953Y-97647619D01*
X86837143Y-97885714D02*
X86837143Y-98552381D01*
X86837143Y-97980952D02*
X86884762Y-97933333D01*
X86980000Y-97885714D01*
X87122858Y-97885714D01*
X87218096Y-97933333D01*
X87265715Y-98028571D01*
X87265715Y-98552381D01*
X87741905Y-98552381D02*
X87741905Y-97885714D01*
X87741905Y-97552381D02*
X87694286Y-97600000D01*
X87741905Y-97647619D01*
X87789524Y-97600000D01*
X87741905Y-97552381D01*
X87741905Y-97647619D01*
X88170476Y-98504762D02*
X88265714Y-98552381D01*
X88456190Y-98552381D01*
X88551429Y-98504762D01*
X88599048Y-98409524D01*
X88599048Y-98361905D01*
X88551429Y-98266667D01*
X88456190Y-98219048D01*
X88313333Y-98219048D01*
X88218095Y-98171429D01*
X88170476Y-98076190D01*
X88170476Y-98028571D01*
X88218095Y-97933333D01*
X88313333Y-97885714D01*
X88456190Y-97885714D01*
X88551429Y-97933333D01*
X89027619Y-98552381D02*
X89027619Y-97552381D01*
X89456191Y-98552381D02*
X89456191Y-98028571D01*
X89408572Y-97933333D01*
X89313334Y-97885714D01*
X89170476Y-97885714D01*
X89075238Y-97933333D01*
X89027619Y-97980952D01*
X85770477Y-99928571D02*
X85913334Y-99976190D01*
X85960953Y-100023810D01*
X86008572Y-100119048D01*
X86008572Y-100261905D01*
X85960953Y-100357143D01*
X85913334Y-100404762D01*
X85818096Y-100452381D01*
X85437143Y-100452381D01*
X85437143Y-99452381D01*
X85770477Y-99452381D01*
X85865715Y-99500000D01*
X85913334Y-99547619D01*
X85960953Y-99642857D01*
X85960953Y-99738095D01*
X85913334Y-99833333D01*
X85865715Y-99880952D01*
X85770477Y-99928571D01*
X85437143Y-99928571D01*
X86770477Y-99928571D02*
X86913334Y-99976190D01*
X86960953Y-100023810D01*
X87008572Y-100119048D01*
X87008572Y-100261905D01*
X86960953Y-100357143D01*
X86913334Y-100404762D01*
X86818096Y-100452381D01*
X86437143Y-100452381D01*
X86437143Y-99452381D01*
X86770477Y-99452381D01*
X86865715Y-99500000D01*
X86913334Y-99547619D01*
X86960953Y-99642857D01*
X86960953Y-99738095D01*
X86913334Y-99833333D01*
X86865715Y-99880952D01*
X86770477Y-99928571D01*
X86437143Y-99928571D01*
X87294286Y-99452381D02*
X87865715Y-99452381D01*
X87580000Y-100452381D02*
X87580000Y-99452381D01*
X85841905Y-102028571D02*
X85508571Y-102028571D01*
X85508571Y-102552381D02*
X85508571Y-101552381D01*
X85984762Y-101552381D01*
X86699048Y-102028571D02*
X86841905Y-102076190D01*
X86889524Y-102123810D01*
X86937143Y-102219048D01*
X86937143Y-102361905D01*
X86889524Y-102457143D01*
X86841905Y-102504762D01*
X86746667Y-102552381D01*
X86365714Y-102552381D01*
X86365714Y-101552381D01*
X86699048Y-101552381D01*
X86794286Y-101600000D01*
X86841905Y-101647619D01*
X86889524Y-101742857D01*
X86889524Y-101838095D01*
X86841905Y-101933333D01*
X86794286Y-101980952D01*
X86699048Y-102028571D01*
X86365714Y-102028571D01*
X87222857Y-101552381D02*
X87794286Y-101552381D01*
X87508571Y-102552381D02*
X87508571Y-101552381D01*
X85318094Y-104204762D02*
X85460951Y-104252381D01*
X85699047Y-104252381D01*
X85794285Y-104204762D01*
X85841904Y-104157143D01*
X85889523Y-104061905D01*
X85889523Y-103966667D01*
X85841904Y-103871429D01*
X85794285Y-103823810D01*
X85699047Y-103776190D01*
X85508570Y-103728571D01*
X85413332Y-103680952D01*
X85365713Y-103633333D01*
X85318094Y-103538095D01*
X85318094Y-103442857D01*
X85365713Y-103347619D01*
X85413332Y-103300000D01*
X85508570Y-103252381D01*
X85746666Y-103252381D01*
X85889523Y-103300000D01*
X86460951Y-104252381D02*
X86365713Y-104204762D01*
X86318094Y-104157143D01*
X86270475Y-104061905D01*
X86270475Y-103776190D01*
X86318094Y-103680952D01*
X86365713Y-103633333D01*
X86460951Y-103585714D01*
X86603809Y-103585714D01*
X86699047Y-103633333D01*
X86746666Y-103680952D01*
X86794285Y-103776190D01*
X86794285Y-104061905D01*
X86746666Y-104157143D01*
X86699047Y-104204762D01*
X86603809Y-104252381D01*
X86460951Y-104252381D01*
X87365713Y-104252381D02*
X87270475Y-104204762D01*
X87222856Y-104109524D01*
X87222856Y-103252381D01*
X88175238Y-104252381D02*
X88175238Y-103252381D01*
X88175238Y-104204762D02*
X88080000Y-104252381D01*
X87889523Y-104252381D01*
X87794285Y-104204762D01*
X87746666Y-104157143D01*
X87699047Y-104061905D01*
X87699047Y-103776190D01*
X87746666Y-103680952D01*
X87794285Y-103633333D01*
X87889523Y-103585714D01*
X88080000Y-103585714D01*
X88175238Y-103633333D01*
X89032381Y-104204762D02*
X88937143Y-104252381D01*
X88746666Y-104252381D01*
X88651428Y-104204762D01*
X88603809Y-104109524D01*
X88603809Y-103728571D01*
X88651428Y-103633333D01*
X88746666Y-103585714D01*
X88937143Y-103585714D01*
X89032381Y-103633333D01*
X89080000Y-103728571D01*
X89080000Y-103823810D01*
X88603809Y-103919048D01*
X89508571Y-104252381D02*
X89508571Y-103585714D01*
X89508571Y-103776190D02*
X89556190Y-103680952D01*
X89603809Y-103633333D01*
X89699047Y-103585714D01*
X89794286Y-103585714D01*
X90889524Y-104252381D02*
X90889524Y-103252381D01*
X91222858Y-103966667D01*
X91556191Y-103252381D01*
X91556191Y-104252381D01*
X92460953Y-104252381D02*
X92460953Y-103728571D01*
X92413334Y-103633333D01*
X92318096Y-103585714D01*
X92127619Y-103585714D01*
X92032381Y-103633333D01*
X92460953Y-104204762D02*
X92365715Y-104252381D01*
X92127619Y-104252381D01*
X92032381Y-104204762D01*
X91984762Y-104109524D01*
X91984762Y-104014286D01*
X92032381Y-103919048D01*
X92127619Y-103871429D01*
X92365715Y-103871429D01*
X92460953Y-103823810D01*
X92889524Y-104204762D02*
X92984762Y-104252381D01*
X93175238Y-104252381D01*
X93270477Y-104204762D01*
X93318096Y-104109524D01*
X93318096Y-104061905D01*
X93270477Y-103966667D01*
X93175238Y-103919048D01*
X93032381Y-103919048D01*
X92937143Y-103871429D01*
X92889524Y-103776190D01*
X92889524Y-103728571D01*
X92937143Y-103633333D01*
X93032381Y-103585714D01*
X93175238Y-103585714D01*
X93270477Y-103633333D01*
X93746667Y-104252381D02*
X93746667Y-103252381D01*
X93841905Y-103871429D02*
X94127620Y-104252381D01*
X94127620Y-103585714D02*
X93746667Y-103966667D01*
X95889525Y-104157143D02*
X95841906Y-104204762D01*
X95699049Y-104252381D01*
X95603811Y-104252381D01*
X95460953Y-104204762D01*
X95365715Y-104109524D01*
X95318096Y-104014286D01*
X95270477Y-103823810D01*
X95270477Y-103680952D01*
X95318096Y-103490476D01*
X95365715Y-103395238D01*
X95460953Y-103300000D01*
X95603811Y-103252381D01*
X95699049Y-103252381D01*
X95841906Y-103300000D01*
X95889525Y-103347619D01*
X96460953Y-104252381D02*
X96365715Y-104204762D01*
X96318096Y-104157143D01*
X96270477Y-104061905D01*
X96270477Y-103776190D01*
X96318096Y-103680952D01*
X96365715Y-103633333D01*
X96460953Y-103585714D01*
X96603811Y-103585714D01*
X96699049Y-103633333D01*
X96746668Y-103680952D01*
X96794287Y-103776190D01*
X96794287Y-104061905D01*
X96746668Y-104157143D01*
X96699049Y-104204762D01*
X96603811Y-104252381D01*
X96460953Y-104252381D01*
X97365715Y-104252381D02*
X97270477Y-104204762D01*
X97222858Y-104109524D01*
X97222858Y-103252381D01*
X97889525Y-104252381D02*
X97794287Y-104204762D01*
X97746668Y-104157143D01*
X97699049Y-104061905D01*
X97699049Y-103776190D01*
X97746668Y-103680952D01*
X97794287Y-103633333D01*
X97889525Y-103585714D01*
X98032383Y-103585714D01*
X98127621Y-103633333D01*
X98175240Y-103680952D01*
X98222859Y-103776190D01*
X98222859Y-104061905D01*
X98175240Y-104157143D01*
X98127621Y-104204762D01*
X98032383Y-104252381D01*
X97889525Y-104252381D01*
X98651430Y-104252381D02*
X98651430Y-103585714D01*
X98651430Y-103776190D02*
X98699049Y-103680952D01*
X98746668Y-103633333D01*
X98841906Y-103585714D01*
X98937145Y-103585714D01*
X105492380Y-67457619D02*
X105539999Y-67410000D01*
X105635237Y-67362381D01*
X105873333Y-67362381D01*
X105968571Y-67410000D01*
X106016190Y-67457619D01*
X106063809Y-67552857D01*
X106063809Y-67648095D01*
X106016190Y-67790952D01*
X105444761Y-68362381D01*
X106063809Y-68362381D01*
X107730476Y-68362381D02*
X107254285Y-68362381D01*
X107254285Y-67362381D01*
X108492381Y-68362381D02*
X108492381Y-67838571D01*
X108444762Y-67743333D01*
X108349524Y-67695714D01*
X108159047Y-67695714D01*
X108063809Y-67743333D01*
X108492381Y-68314762D02*
X108397143Y-68362381D01*
X108159047Y-68362381D01*
X108063809Y-68314762D01*
X108016190Y-68219524D01*
X108016190Y-68124286D01*
X108063809Y-68029048D01*
X108159047Y-67981429D01*
X108397143Y-67981429D01*
X108492381Y-67933810D01*
X108873333Y-67695714D02*
X109111428Y-68362381D01*
X109349524Y-67695714D02*
X109111428Y-68362381D01*
X109016190Y-68600476D01*
X108968571Y-68648095D01*
X108873333Y-68695714D01*
X110111429Y-68314762D02*
X110016191Y-68362381D01*
X109825714Y-68362381D01*
X109730476Y-68314762D01*
X109682857Y-68219524D01*
X109682857Y-67838571D01*
X109730476Y-67743333D01*
X109825714Y-67695714D01*
X110016191Y-67695714D01*
X110111429Y-67743333D01*
X110159048Y-67838571D01*
X110159048Y-67933810D01*
X109682857Y-68029048D01*
X110587619Y-68362381D02*
X110587619Y-67695714D01*
X110587619Y-67886190D02*
X110635238Y-67790952D01*
X110682857Y-67743333D01*
X110778095Y-67695714D01*
X110873334Y-67695714D01*
X111159048Y-68314762D02*
X111254286Y-68362381D01*
X111444762Y-68362381D01*
X111540001Y-68314762D01*
X111587620Y-68219524D01*
X111587620Y-68171905D01*
X111540001Y-68076667D01*
X111444762Y-68029048D01*
X111301905Y-68029048D01*
X111206667Y-67981429D01*
X111159048Y-67886190D01*
X111159048Y-67838571D01*
X111206667Y-67743333D01*
X111301905Y-67695714D01*
X111444762Y-67695714D01*
X111540001Y-67743333D01*
X105932381Y-69880952D02*
X105837143Y-69833333D01*
X105789524Y-69785714D01*
X105741905Y-69690476D01*
X105741905Y-69642857D01*
X105789524Y-69547619D01*
X105837143Y-69500000D01*
X105932381Y-69452381D01*
X106122858Y-69452381D01*
X106218096Y-69500000D01*
X106265715Y-69547619D01*
X106313334Y-69642857D01*
X106313334Y-69690476D01*
X106265715Y-69785714D01*
X106218096Y-69833333D01*
X106122858Y-69880952D01*
X105932381Y-69880952D01*
X105837143Y-69928571D01*
X105789524Y-69976190D01*
X105741905Y-70071429D01*
X105741905Y-70261905D01*
X105789524Y-70357143D01*
X105837143Y-70404762D01*
X105932381Y-70452381D01*
X106122858Y-70452381D01*
X106218096Y-70404762D01*
X106265715Y-70357143D01*
X106313334Y-70261905D01*
X106313334Y-70071429D01*
X106265715Y-69976190D01*
X106218096Y-69928571D01*
X106122858Y-69880952D01*
X107503810Y-70452381D02*
X107503810Y-69785714D01*
X107503810Y-69880952D02*
X107551429Y-69833333D01*
X107646667Y-69785714D01*
X107789525Y-69785714D01*
X107884763Y-69833333D01*
X107932382Y-69928571D01*
X107932382Y-70452381D01*
X107932382Y-69928571D02*
X107980001Y-69833333D01*
X108075239Y-69785714D01*
X108218096Y-69785714D01*
X108313334Y-69833333D01*
X108360953Y-69928571D01*
X108360953Y-70452381D01*
X108837143Y-70452381D02*
X108837143Y-69785714D01*
X108837143Y-69452381D02*
X108789524Y-69500000D01*
X108837143Y-69547619D01*
X108884762Y-69500000D01*
X108837143Y-69452381D01*
X108837143Y-69547619D01*
X109456190Y-70452381D02*
X109360952Y-70404762D01*
X109313333Y-70309524D01*
X109313333Y-69452381D01*
X109789524Y-70404762D02*
X109884762Y-70452381D01*
X110075238Y-70452381D01*
X110170477Y-70404762D01*
X110218096Y-70309524D01*
X110218096Y-70261905D01*
X110170477Y-70166667D01*
X110075238Y-70119048D01*
X109932381Y-70119048D01*
X109837143Y-70071429D01*
X109789524Y-69976190D01*
X109789524Y-69928571D01*
X109837143Y-69833333D01*
X109932381Y-69785714D01*
X110075238Y-69785714D01*
X110170477Y-69833333D01*
X105932381Y-71880952D02*
X105837143Y-71833333D01*
X105789524Y-71785714D01*
X105741905Y-71690476D01*
X105741905Y-71642857D01*
X105789524Y-71547619D01*
X105837143Y-71500000D01*
X105932381Y-71452381D01*
X106122858Y-71452381D01*
X106218096Y-71500000D01*
X106265715Y-71547619D01*
X106313334Y-71642857D01*
X106313334Y-71690476D01*
X106265715Y-71785714D01*
X106218096Y-71833333D01*
X106122858Y-71880952D01*
X105932381Y-71880952D01*
X105837143Y-71928571D01*
X105789524Y-71976190D01*
X105741905Y-72071429D01*
X105741905Y-72261905D01*
X105789524Y-72357143D01*
X105837143Y-72404762D01*
X105932381Y-72452381D01*
X106122858Y-72452381D01*
X106218096Y-72404762D01*
X106265715Y-72357143D01*
X106313334Y-72261905D01*
X106313334Y-72071429D01*
X106265715Y-71976190D01*
X106218096Y-71928571D01*
X106122858Y-71880952D01*
X107503810Y-72452381D02*
X107503810Y-71785714D01*
X107503810Y-71880952D02*
X107551429Y-71833333D01*
X107646667Y-71785714D01*
X107789525Y-71785714D01*
X107884763Y-71833333D01*
X107932382Y-71928571D01*
X107932382Y-72452381D01*
X107932382Y-71928571D02*
X107980001Y-71833333D01*
X108075239Y-71785714D01*
X108218096Y-71785714D01*
X108313334Y-71833333D01*
X108360953Y-71928571D01*
X108360953Y-72452381D01*
X108837143Y-72452381D02*
X108837143Y-71785714D01*
X108837143Y-71452381D02*
X108789524Y-71500000D01*
X108837143Y-71547619D01*
X108884762Y-71500000D01*
X108837143Y-71452381D01*
X108837143Y-71547619D01*
X109456190Y-72452381D02*
X109360952Y-72404762D01*
X109313333Y-72309524D01*
X109313333Y-71452381D01*
X109789524Y-72404762D02*
X109884762Y-72452381D01*
X110075238Y-72452381D01*
X110170477Y-72404762D01*
X110218096Y-72309524D01*
X110218096Y-72261905D01*
X110170477Y-72166667D01*
X110075238Y-72119048D01*
X109932381Y-72119048D01*
X109837143Y-72071429D01*
X109789524Y-71976190D01*
X109789524Y-71928571D01*
X109837143Y-71833333D01*
X109932381Y-71785714D01*
X110075238Y-71785714D01*
X110170477Y-71833333D01*
X106241905Y-74452381D02*
X106241905Y-73452381D01*
X106813334Y-74452381D01*
X106813334Y-73452381D01*
X107432381Y-74452381D02*
X107337143Y-74404762D01*
X107289524Y-74357143D01*
X107241905Y-74261905D01*
X107241905Y-73976190D01*
X107289524Y-73880952D01*
X107337143Y-73833333D01*
X107432381Y-73785714D01*
X107575239Y-73785714D01*
X107670477Y-73833333D01*
X107718096Y-73880952D01*
X107765715Y-73976190D01*
X107765715Y-74261905D01*
X107718096Y-74357143D01*
X107670477Y-74404762D01*
X107575239Y-74452381D01*
X107432381Y-74452381D01*
X106146666Y-75976190D02*
X106146666Y-76452381D01*
X105813333Y-75452381D02*
X106146666Y-75976190D01*
X106480000Y-75452381D01*
X107194286Y-76404762D02*
X107099048Y-76452381D01*
X106908571Y-76452381D01*
X106813333Y-76404762D01*
X106765714Y-76309524D01*
X106765714Y-75928571D01*
X106813333Y-75833333D01*
X106908571Y-75785714D01*
X107099048Y-75785714D01*
X107194286Y-75833333D01*
X107241905Y-75928571D01*
X107241905Y-76023810D01*
X106765714Y-76119048D01*
X107622857Y-76404762D02*
X107718095Y-76452381D01*
X107908571Y-76452381D01*
X108003810Y-76404762D01*
X108051429Y-76309524D01*
X108051429Y-76261905D01*
X108003810Y-76166667D01*
X107908571Y-76119048D01*
X107765714Y-76119048D01*
X107670476Y-76071429D01*
X107622857Y-75976190D01*
X107622857Y-75928571D01*
X107670476Y-75833333D01*
X107765714Y-75785714D01*
X107908571Y-75785714D01*
X108003810Y-75833333D01*
X106146666Y-77976190D02*
X106146666Y-78452381D01*
X105813333Y-77452381D02*
X106146666Y-77976190D01*
X106480000Y-77452381D01*
X107194286Y-78404762D02*
X107099048Y-78452381D01*
X106908571Y-78452381D01*
X106813333Y-78404762D01*
X106765714Y-78309524D01*
X106765714Y-77928571D01*
X106813333Y-77833333D01*
X106908571Y-77785714D01*
X107099048Y-77785714D01*
X107194286Y-77833333D01*
X107241905Y-77928571D01*
X107241905Y-78023810D01*
X106765714Y-78119048D01*
X107622857Y-78404762D02*
X107718095Y-78452381D01*
X107908571Y-78452381D01*
X108003810Y-78404762D01*
X108051429Y-78309524D01*
X108051429Y-78261905D01*
X108003810Y-78166667D01*
X107908571Y-78119048D01*
X107765714Y-78119048D01*
X107670476Y-78071429D01*
X107622857Y-77976190D01*
X107622857Y-77928571D01*
X107670476Y-77833333D01*
X107765714Y-77785714D01*
X107908571Y-77785714D01*
X108003810Y-77833333D01*
X106241905Y-80452381D02*
X106241905Y-79452381D01*
X106813334Y-80452381D01*
X106813334Y-79452381D01*
X107432381Y-80452381D02*
X107337143Y-80404762D01*
X107289524Y-80357143D01*
X107241905Y-80261905D01*
X107241905Y-79976190D01*
X107289524Y-79880952D01*
X107337143Y-79833333D01*
X107432381Y-79785714D01*
X107575239Y-79785714D01*
X107670477Y-79833333D01*
X107718096Y-79880952D01*
X107765715Y-79976190D01*
X107765715Y-80261905D01*
X107718096Y-80357143D01*
X107670477Y-80404762D01*
X107575239Y-80452381D01*
X107432381Y-80452381D01*
X106218096Y-81452381D02*
X106027619Y-81452381D01*
X105932381Y-81500000D01*
X105884762Y-81547619D01*
X105789524Y-81690476D01*
X105741905Y-81880952D01*
X105741905Y-82261905D01*
X105789524Y-82357143D01*
X105837143Y-82404762D01*
X105932381Y-82452381D01*
X106122858Y-82452381D01*
X106218096Y-82404762D01*
X106265715Y-82357143D01*
X106313334Y-82261905D01*
X106313334Y-82023810D01*
X106265715Y-81928571D01*
X106218096Y-81880952D01*
X106122858Y-81833333D01*
X105932381Y-81833333D01*
X105837143Y-81880952D01*
X105789524Y-81928571D01*
X105741905Y-82023810D01*
X107503810Y-82452381D02*
X107503810Y-81785714D01*
X107503810Y-81880952D02*
X107551429Y-81833333D01*
X107646667Y-81785714D01*
X107789525Y-81785714D01*
X107884763Y-81833333D01*
X107932382Y-81928571D01*
X107932382Y-82452381D01*
X107932382Y-81928571D02*
X107980001Y-81833333D01*
X108075239Y-81785714D01*
X108218096Y-81785714D01*
X108313334Y-81833333D01*
X108360953Y-81928571D01*
X108360953Y-82452381D01*
X108837143Y-82452381D02*
X108837143Y-81785714D01*
X108837143Y-81452381D02*
X108789524Y-81500000D01*
X108837143Y-81547619D01*
X108884762Y-81500000D01*
X108837143Y-81452381D01*
X108837143Y-81547619D01*
X109456190Y-82452381D02*
X109360952Y-82404762D01*
X109313333Y-82309524D01*
X109313333Y-81452381D01*
X109789524Y-82404762D02*
X109884762Y-82452381D01*
X110075238Y-82452381D01*
X110170477Y-82404762D01*
X110218096Y-82309524D01*
X110218096Y-82261905D01*
X110170477Y-82166667D01*
X110075238Y-82119048D01*
X109932381Y-82119048D01*
X109837143Y-82071429D01*
X109789524Y-81976190D01*
X109789524Y-81928571D01*
X109837143Y-81833333D01*
X109932381Y-81785714D01*
X110075238Y-81785714D01*
X110170477Y-81833333D01*
X106241905Y-84452381D02*
X106241905Y-83452381D01*
X106813334Y-84452381D01*
X106813334Y-83452381D01*
X107432381Y-84452381D02*
X107337143Y-84404762D01*
X107289524Y-84357143D01*
X107241905Y-84261905D01*
X107241905Y-83976190D01*
X107289524Y-83880952D01*
X107337143Y-83833333D01*
X107432381Y-83785714D01*
X107575239Y-83785714D01*
X107670477Y-83833333D01*
X107718096Y-83880952D01*
X107765715Y-83976190D01*
X107765715Y-84261905D01*
X107718096Y-84357143D01*
X107670477Y-84404762D01*
X107575239Y-84452381D01*
X107432381Y-84452381D01*
X105837144Y-86452381D02*
X105265715Y-86452381D01*
X105551429Y-86452381D02*
X105551429Y-85452381D01*
X105456191Y-85595238D01*
X105360953Y-85690476D01*
X105265715Y-85738095D01*
X106265715Y-86357143D02*
X106313334Y-86404762D01*
X106265715Y-86452381D01*
X106218096Y-86404762D01*
X106265715Y-86357143D01*
X106265715Y-86452381D01*
X107170477Y-85452381D02*
X106980000Y-85452381D01*
X106884762Y-85500000D01*
X106837143Y-85547619D01*
X106741905Y-85690476D01*
X106694286Y-85880952D01*
X106694286Y-86261905D01*
X106741905Y-86357143D01*
X106789524Y-86404762D01*
X106884762Y-86452381D01*
X107075239Y-86452381D01*
X107170477Y-86404762D01*
X107218096Y-86357143D01*
X107265715Y-86261905D01*
X107265715Y-86023810D01*
X107218096Y-85928571D01*
X107170477Y-85880952D01*
X107075239Y-85833333D01*
X106884762Y-85833333D01*
X106789524Y-85880952D01*
X106741905Y-85928571D01*
X106694286Y-86023810D01*
X108456191Y-86452381D02*
X108456191Y-85785714D01*
X108456191Y-85880952D02*
X108503810Y-85833333D01*
X108599048Y-85785714D01*
X108741906Y-85785714D01*
X108837144Y-85833333D01*
X108884763Y-85928571D01*
X108884763Y-86452381D01*
X108884763Y-85928571D02*
X108932382Y-85833333D01*
X109027620Y-85785714D01*
X109170477Y-85785714D01*
X109265715Y-85833333D01*
X109313334Y-85928571D01*
X109313334Y-86452381D01*
X109789524Y-86452381D02*
X109789524Y-85785714D01*
X109789524Y-85880952D02*
X109837143Y-85833333D01*
X109932381Y-85785714D01*
X110075239Y-85785714D01*
X110170477Y-85833333D01*
X110218096Y-85928571D01*
X110218096Y-86452381D01*
X110218096Y-85928571D02*
X110265715Y-85833333D01*
X110360953Y-85785714D01*
X110503810Y-85785714D01*
X110599048Y-85833333D01*
X110646667Y-85928571D01*
X110646667Y-86452381D01*
X106146667Y-87928571D02*
X105813333Y-87928571D01*
X105813333Y-88452381D02*
X105813333Y-87452381D01*
X106289524Y-87452381D01*
X107241905Y-88452381D02*
X106908571Y-87976190D01*
X106670476Y-88452381D02*
X106670476Y-87452381D01*
X107051429Y-87452381D01*
X107146667Y-87500000D01*
X107194286Y-87547619D01*
X107241905Y-87642857D01*
X107241905Y-87785714D01*
X107194286Y-87880952D01*
X107146667Y-87928571D01*
X107051429Y-87976190D01*
X106670476Y-87976190D01*
X108099048Y-87785714D02*
X108099048Y-88452381D01*
X107860952Y-87404762D02*
X107622857Y-88119048D01*
X108241905Y-88119048D01*
X105946666Y-90076190D02*
X105946666Y-90552381D01*
X105613333Y-89552381D02*
X105946666Y-90076190D01*
X106280000Y-89552381D01*
X106994286Y-90504762D02*
X106899048Y-90552381D01*
X106708571Y-90552381D01*
X106613333Y-90504762D01*
X106565714Y-90409524D01*
X106565714Y-90028571D01*
X106613333Y-89933333D01*
X106708571Y-89885714D01*
X106899048Y-89885714D01*
X106994286Y-89933333D01*
X107041905Y-90028571D01*
X107041905Y-90123810D01*
X106565714Y-90219048D01*
X107422857Y-90504762D02*
X107518095Y-90552381D01*
X107708571Y-90552381D01*
X107803810Y-90504762D01*
X107851429Y-90409524D01*
X107851429Y-90361905D01*
X107803810Y-90266667D01*
X107708571Y-90219048D01*
X107565714Y-90219048D01*
X107470476Y-90171429D01*
X107422857Y-90076190D01*
X107422857Y-90028571D01*
X107470476Y-89933333D01*
X107565714Y-89885714D01*
X107708571Y-89885714D01*
X107803810Y-89933333D01*
X106146666Y-91976190D02*
X106146666Y-92452381D01*
X105813333Y-91452381D02*
X106146666Y-91976190D01*
X106480000Y-91452381D01*
X107194286Y-92404762D02*
X107099048Y-92452381D01*
X106908571Y-92452381D01*
X106813333Y-92404762D01*
X106765714Y-92309524D01*
X106765714Y-91928571D01*
X106813333Y-91833333D01*
X106908571Y-91785714D01*
X107099048Y-91785714D01*
X107194286Y-91833333D01*
X107241905Y-91928571D01*
X107241905Y-92023810D01*
X106765714Y-92119048D01*
X107622857Y-92404762D02*
X107718095Y-92452381D01*
X107908571Y-92452381D01*
X108003810Y-92404762D01*
X108051429Y-92309524D01*
X108051429Y-92261905D01*
X108003810Y-92166667D01*
X107908571Y-92119048D01*
X107765714Y-92119048D01*
X107670476Y-92071429D01*
X107622857Y-91976190D01*
X107622857Y-91928571D01*
X107670476Y-91833333D01*
X107765714Y-91785714D01*
X107908571Y-91785714D01*
X108003810Y-91833333D01*
X106241905Y-94452381D02*
X106241905Y-93452381D01*
X106813334Y-94452381D01*
X106813334Y-93452381D01*
X107432381Y-94452381D02*
X107337143Y-94404762D01*
X107289524Y-94357143D01*
X107241905Y-94261905D01*
X107241905Y-93976190D01*
X107289524Y-93880952D01*
X107337143Y-93833333D01*
X107432381Y-93785714D01*
X107575239Y-93785714D01*
X107670477Y-93833333D01*
X107718096Y-93880952D01*
X107765715Y-93976190D01*
X107765715Y-94261905D01*
X107718096Y-94357143D01*
X107670477Y-94404762D01*
X107575239Y-94452381D01*
X107432381Y-94452381D01*
X106456191Y-96552381D02*
X105884762Y-96552381D01*
X106170476Y-96552381D02*
X106170476Y-95552381D01*
X106075238Y-95695238D01*
X105980000Y-95790476D01*
X105884762Y-95838095D01*
X107837143Y-95552381D02*
X108027620Y-95552381D01*
X108122858Y-95600000D01*
X108218096Y-95695238D01*
X108265715Y-95885714D01*
X108265715Y-96219048D01*
X108218096Y-96409524D01*
X108122858Y-96504762D01*
X108027620Y-96552381D01*
X107837143Y-96552381D01*
X107741905Y-96504762D01*
X107646667Y-96409524D01*
X107599048Y-96219048D01*
X107599048Y-95885714D01*
X107646667Y-95695238D01*
X107741905Y-95600000D01*
X107837143Y-95552381D01*
X108599048Y-95885714D02*
X109122858Y-95885714D01*
X108599048Y-96552381D01*
X109122858Y-96552381D01*
X105789524Y-98452381D02*
X105789524Y-97452381D01*
X105789524Y-97928571D02*
X106360953Y-97928571D01*
X106360953Y-98452381D02*
X106360953Y-97452381D01*
X106789524Y-98166667D02*
X107265715Y-98166667D01*
X106694286Y-98452381D02*
X107027619Y-97452381D01*
X107360953Y-98452381D01*
X107646667Y-98404762D02*
X107789524Y-98452381D01*
X108027620Y-98452381D01*
X108122858Y-98404762D01*
X108170477Y-98357143D01*
X108218096Y-98261905D01*
X108218096Y-98166667D01*
X108170477Y-98071429D01*
X108122858Y-98023810D01*
X108027620Y-97976190D01*
X107837143Y-97928571D01*
X107741905Y-97880952D01*
X107694286Y-97833333D01*
X107646667Y-97738095D01*
X107646667Y-97642857D01*
X107694286Y-97547619D01*
X107741905Y-97500000D01*
X107837143Y-97452381D01*
X108075239Y-97452381D01*
X108218096Y-97500000D01*
X109122858Y-98452381D02*
X108646667Y-98452381D01*
X108646667Y-97452381D01*
X110551430Y-97928571D02*
X110218096Y-97928571D01*
X110218096Y-98452381D02*
X110218096Y-97452381D01*
X110694287Y-97452381D01*
X111075239Y-98452381D02*
X111075239Y-97785714D01*
X111075239Y-97452381D02*
X111027620Y-97500000D01*
X111075239Y-97547619D01*
X111122858Y-97500000D01*
X111075239Y-97452381D01*
X111075239Y-97547619D01*
X111551429Y-97785714D02*
X111551429Y-98452381D01*
X111551429Y-97880952D02*
X111599048Y-97833333D01*
X111694286Y-97785714D01*
X111837144Y-97785714D01*
X111932382Y-97833333D01*
X111980001Y-97928571D01*
X111980001Y-98452381D01*
X112456191Y-98452381D02*
X112456191Y-97785714D01*
X112456191Y-97452381D02*
X112408572Y-97500000D01*
X112456191Y-97547619D01*
X112503810Y-97500000D01*
X112456191Y-97452381D01*
X112456191Y-97547619D01*
X112884762Y-98404762D02*
X112980000Y-98452381D01*
X113170476Y-98452381D01*
X113265715Y-98404762D01*
X113313334Y-98309524D01*
X113313334Y-98261905D01*
X113265715Y-98166667D01*
X113170476Y-98119048D01*
X113027619Y-98119048D01*
X112932381Y-98071429D01*
X112884762Y-97976190D01*
X112884762Y-97928571D01*
X112932381Y-97833333D01*
X113027619Y-97785714D01*
X113170476Y-97785714D01*
X113265715Y-97833333D01*
X113741905Y-98452381D02*
X113741905Y-97452381D01*
X114170477Y-98452381D02*
X114170477Y-97928571D01*
X114122858Y-97833333D01*
X114027620Y-97785714D01*
X113884762Y-97785714D01*
X113789524Y-97833333D01*
X113741905Y-97880952D01*
X106146666Y-99976190D02*
X106146666Y-100452381D01*
X105813333Y-99452381D02*
X106146666Y-99976190D01*
X106480000Y-99452381D01*
X107194286Y-100404762D02*
X107099048Y-100452381D01*
X106908571Y-100452381D01*
X106813333Y-100404762D01*
X106765714Y-100309524D01*
X106765714Y-99928571D01*
X106813333Y-99833333D01*
X106908571Y-99785714D01*
X107099048Y-99785714D01*
X107194286Y-99833333D01*
X107241905Y-99928571D01*
X107241905Y-100023810D01*
X106765714Y-100119048D01*
X107622857Y-100404762D02*
X107718095Y-100452381D01*
X107908571Y-100452381D01*
X108003810Y-100404762D01*
X108051429Y-100309524D01*
X108051429Y-100261905D01*
X108003810Y-100166667D01*
X107908571Y-100119048D01*
X107765714Y-100119048D01*
X107670476Y-100071429D01*
X107622857Y-99976190D01*
X107622857Y-99928571D01*
X107670476Y-99833333D01*
X107765714Y-99785714D01*
X107908571Y-99785714D01*
X108003810Y-99833333D01*
X106146666Y-101976190D02*
X106146666Y-102452381D01*
X105813333Y-101452381D02*
X106146666Y-101976190D01*
X106480000Y-101452381D01*
X107194286Y-102404762D02*
X107099048Y-102452381D01*
X106908571Y-102452381D01*
X106813333Y-102404762D01*
X106765714Y-102309524D01*
X106765714Y-101928571D01*
X106813333Y-101833333D01*
X106908571Y-101785714D01*
X107099048Y-101785714D01*
X107194286Y-101833333D01*
X107241905Y-101928571D01*
X107241905Y-102023810D01*
X106765714Y-102119048D01*
X107622857Y-102404762D02*
X107718095Y-102452381D01*
X107908571Y-102452381D01*
X108003810Y-102404762D01*
X108051429Y-102309524D01*
X108051429Y-102261905D01*
X108003810Y-102166667D01*
X107908571Y-102119048D01*
X107765714Y-102119048D01*
X107670476Y-102071429D01*
X107622857Y-101976190D01*
X107622857Y-101928571D01*
X107670476Y-101833333D01*
X107765714Y-101785714D01*
X107908571Y-101785714D01*
X108003810Y-101833333D01*
X106322857Y-103600000D02*
X106227619Y-103552381D01*
X106084762Y-103552381D01*
X105941904Y-103600000D01*
X105846666Y-103695238D01*
X105799047Y-103790476D01*
X105751428Y-103980952D01*
X105751428Y-104123810D01*
X105799047Y-104314286D01*
X105846666Y-104409524D01*
X105941904Y-104504762D01*
X106084762Y-104552381D01*
X106180000Y-104552381D01*
X106322857Y-104504762D01*
X106370476Y-104457143D01*
X106370476Y-104123810D01*
X106180000Y-104123810D01*
X106799047Y-104552381D02*
X106799047Y-103885714D01*
X106799047Y-104076190D02*
X106846666Y-103980952D01*
X106894285Y-103933333D01*
X106989523Y-103885714D01*
X107084762Y-103885714D01*
X107799048Y-104504762D02*
X107703810Y-104552381D01*
X107513333Y-104552381D01*
X107418095Y-104504762D01*
X107370476Y-104409524D01*
X107370476Y-104028571D01*
X107418095Y-103933333D01*
X107513333Y-103885714D01*
X107703810Y-103885714D01*
X107799048Y-103933333D01*
X107846667Y-104028571D01*
X107846667Y-104123810D01*
X107370476Y-104219048D01*
X108656191Y-104504762D02*
X108560953Y-104552381D01*
X108370476Y-104552381D01*
X108275238Y-104504762D01*
X108227619Y-104409524D01*
X108227619Y-104028571D01*
X108275238Y-103933333D01*
X108370476Y-103885714D01*
X108560953Y-103885714D01*
X108656191Y-103933333D01*
X108703810Y-104028571D01*
X108703810Y-104123810D01*
X108227619Y-104219048D01*
X109132381Y-103885714D02*
X109132381Y-104552381D01*
X109132381Y-103980952D02*
X109180000Y-103933333D01*
X109275238Y-103885714D01*
X109418096Y-103885714D01*
X109513334Y-103933333D01*
X109560953Y-104028571D01*
X109560953Y-104552381D01*
M02*
