M48
;DRILL file {KiCad 4.0.4-stable} date 04/21/17 11:27:46
;FORMAT={-:-/ absolute / inch / decimal}
FMAT,2
INCH,TZ
T1C0.012
T2C0.016
T3C0.032
T4C0.039
T5C0.040
T6C0.051
%
G90
G05
M72
T1
X6.7425Y-3.4933
X6.7425Y-3.6508
X6.7425Y-3.8083
X6.9Y-3.4933
X6.9Y-3.6508
X6.9Y-3.8083
X7.026Y-3.2425
X7.0575Y-3.4933
X7.0575Y-3.6508
X7.0575Y-3.8083
X7.1335Y-3.1209
X7.2287Y-3.2433
X7.2291Y-3.0319
X7.4244Y-2.813
X7.4303Y-3.0358
X7.4402Y-3.2425
X7.5638Y-2.6886
X7.6098Y-3.0354
X7.6102Y-2.8126
T2
X5.902Y-2.5224
X5.9134Y-3.0516
X7.4256Y-2.3622
T3
X8.3122Y-2.9134
X8.3122Y-3.0134
X8.3122Y-3.1134
X8.4122Y-2.9134
X8.4122Y-3.0134
X8.4122Y-3.1134
T4
X6.0102Y-2.1201
X6.0102Y-2.2201
X6.0102Y-2.3201
X6.0102Y-3.2016
X6.0102Y-3.3016
X6.0102Y-3.4016
X6.0102Y-3.6421
X6.0102Y-3.7421
X6.0102Y-3.8421
X6.0102Y-3.9421
X6.015Y-2.7413
X6.015Y-2.8413
X6.015Y-2.9413
X6.1102Y-2.1201
X6.1102Y-2.2201
X6.1102Y-2.3201
X6.1102Y-2.7413
X6.1102Y-2.8413
X6.1102Y-2.9413
X6.1102Y-3.2016
X6.1102Y-3.3016
X6.1102Y-3.4016
X6.1102Y-3.6421
X6.1102Y-3.7421
X6.1102Y-3.8421
X6.1102Y-3.9421
X6.648Y-4.0075
X6.748Y-4.0075
T5
X6.5522Y-2.1134
X6.6522Y-2.1134
X6.7522Y-2.1134
X6.8522Y-2.1134
X6.9122Y-4.0134
X6.9522Y-2.1134
X7.0122Y-4.0134
X7.0522Y-2.1134
X7.1122Y-4.0134
X7.1522Y-2.1134
X7.2122Y-4.0134
X7.2522Y-2.1134
X7.3122Y-4.0134
X7.3522Y-2.1134
X7.4122Y-4.0134
X7.4522Y-2.1134
X7.5122Y-4.0134
X7.6122Y-2.1134
X7.6122Y-4.0134
X7.7122Y-2.1134
X7.8122Y-2.1134
X7.8122Y-4.0134
X7.9122Y-2.1134
X7.9122Y-4.0134
X8.0122Y-2.1134
X8.0122Y-4.0134
X8.1122Y-2.1134
X8.1122Y-4.0134
X8.2122Y-2.1134
X8.2122Y-4.0134
X8.3122Y-2.1134
X8.3122Y-4.0134
X8.4122Y-4.0134
X8.5122Y-2.1134
X8.5122Y-4.0134
X8.6122Y-2.1134
X8.7122Y-2.1134
X8.7122Y-4.0134
X8.8122Y-2.1134
X8.8122Y-4.0134
X8.9122Y-2.1134
X8.9122Y-4.0134
X9.0122Y-2.1134
X9.0122Y-4.0134
X9.1122Y-2.1134
X9.1122Y-4.0134
X9.2122Y-2.1134
X9.2122Y-4.0134
X9.3122Y-4.0134
X9.4122Y-4.0134
X9.5122Y-2.1134
X9.5122Y-2.2134
X9.5122Y-2.3134
X9.5122Y-2.4134
X9.5122Y-2.5134
X9.5122Y-2.6134
X9.5122Y-2.7134
X9.5122Y-2.8134
X9.5122Y-2.9134
X9.5122Y-3.0134
X9.5122Y-3.1134
X9.5122Y-3.2134
X9.5122Y-3.3134
X9.5122Y-3.4134
X9.5122Y-3.5134
X9.5122Y-3.6134
X9.5122Y-3.7134
X9.5122Y-3.8134
X9.6122Y-2.1134
X9.6122Y-2.2134
X9.6122Y-2.3134
X9.6122Y-2.4134
X9.6122Y-2.5134
X9.6122Y-2.6134
X9.6122Y-2.7134
X9.6122Y-2.8134
X9.6122Y-2.9134
X9.6122Y-3.0134
X9.6122Y-3.1134
X9.6122Y-3.2134
X9.6122Y-3.3134
X9.6122Y-3.4134
X9.6122Y-3.5134
X9.6122Y-3.6134
X9.6122Y-3.7134
X9.6122Y-3.8134
T6
X5.5925Y-3.5047
X5.5925Y-3.7047
X5.5925Y-3.9047
X5.5945Y-2.8323
X5.5945Y-3.0323
X5.5945Y-3.2323
X5.5957Y-2.1567
X5.5957Y-2.3567
X5.5957Y-2.5567
T0
M30
