G04 #@! TF.FileFunction,Copper,L1,Top,Signal*
%FSLAX46Y46*%
G04 Gerber Fmt 4.6, Leading zero omitted, Abs format (unit mm)*
G04 Created by KiCad (PCBNEW 4.0.4-stable) date 05/31/17 10:55:34*
%MOMM*%
%LPD*%
G01*
G04 APERTURE LIST*
%ADD10C,0.100000*%
%ADD11C,0.600000*%
%ADD12R,1.500000X1.300000*%
%ADD13O,1.524000X2.540000*%
%ADD14C,1.524000*%
%ADD15R,1.500000X1.250000*%
%ADD16R,1.250000X1.500000*%
%ADD17R,1.200000X1.200000*%
%ADD18R,1.700000X1.700000*%
%ADD19O,1.700000X1.700000*%
%ADD20C,2.600000*%
%ADD21C,3.500000*%
%ADD22C,2.000000*%
%ADD23C,1.500000*%
%ADD24C,1.400000*%
%ADD25R,3.800000X2.000000*%
%ADD26R,1.500000X2.000000*%
%ADD27R,0.900000X0.800000*%
%ADD28R,1.300000X1.500000*%
%ADD29C,0.300000*%
%ADD30C,0.250000*%
%ADD31C,0.254000*%
G04 APERTURE END LIST*
D10*
D11*
X201800000Y-114700000D03*
X197800000Y-114700000D03*
X193800000Y-114700000D03*
X189800000Y-114700000D03*
X185800000Y-114700000D03*
X137500000Y-79800000D03*
X139000000Y-82200000D03*
X139000000Y-79800000D03*
X140100000Y-91200000D03*
X140100000Y-88800000D03*
X138400000Y-88800000D03*
X145000000Y-101800000D03*
X145000000Y-99500000D03*
X145600000Y-97100000D03*
X145600000Y-95200000D03*
X175400000Y-105100000D03*
X173900000Y-105100000D03*
X172200000Y-105100000D03*
X175400000Y-103500000D03*
X172200000Y-103500000D03*
D12*
X177650000Y-74800000D03*
X174950000Y-74800000D03*
D13*
X182710000Y-70180000D03*
X185250000Y-70180000D03*
X187790000Y-70180000D03*
X190330000Y-70180000D03*
X192870000Y-70180000D03*
X195410000Y-70180000D03*
X197950000Y-70180000D03*
X200490000Y-70180000D03*
X205570000Y-118440000D03*
X203030000Y-118440000D03*
X200490000Y-118440000D03*
X197950000Y-118440000D03*
X187790000Y-118440000D03*
X182710000Y-118440000D03*
X180170000Y-118440000D03*
X190330000Y-118440000D03*
X192870000Y-118440000D03*
X195410000Y-118440000D03*
X177630000Y-118440000D03*
X175090000Y-118440000D03*
X172550000Y-118440000D03*
X164930000Y-118440000D03*
X167470000Y-118440000D03*
X170010000Y-118440000D03*
X159850000Y-118440000D03*
X157310000Y-118440000D03*
X154770000Y-118440000D03*
X149690000Y-118440000D03*
X147150000Y-118440000D03*
X177630000Y-70180000D03*
X175090000Y-70180000D03*
X172550000Y-70180000D03*
X170010000Y-70180000D03*
X167470000Y-70180000D03*
X164930000Y-70180000D03*
X162390000Y-70180000D03*
X159850000Y-70180000D03*
X155786000Y-70180000D03*
X153246000Y-70180000D03*
X150706000Y-70180000D03*
X148166000Y-70180000D03*
X145626000Y-70180000D03*
X143086000Y-70180000D03*
X140546000Y-70180000D03*
X138006000Y-70180000D03*
X152230000Y-118440000D03*
D14*
X208110000Y-72720000D03*
X210650000Y-72720000D03*
X208110000Y-75260000D03*
X210650000Y-75260000D03*
X208110000Y-77800000D03*
X210650000Y-77800000D03*
X208110000Y-80340000D03*
X210650000Y-80340000D03*
X208110000Y-70180000D03*
X210650000Y-70180000D03*
X210650000Y-82880000D03*
X208110000Y-82880000D03*
X208110000Y-85420000D03*
X210650000Y-85420000D03*
X208110000Y-87960000D03*
X210650000Y-87960000D03*
X208110000Y-90500000D03*
X210650000Y-90500000D03*
X208110000Y-93040000D03*
X210650000Y-93040000D03*
X208110000Y-95580000D03*
X210650000Y-95580000D03*
X208110000Y-98120000D03*
X210650000Y-98120000D03*
X208110000Y-100660000D03*
X210650000Y-100660000D03*
X208110000Y-103200000D03*
X210650000Y-103200000D03*
X208110000Y-105740000D03*
X210650000Y-105740000D03*
X208110000Y-108280000D03*
X210650000Y-108280000D03*
X208110000Y-110820000D03*
X210650000Y-110820000D03*
X208110000Y-113360000D03*
X210650000Y-113360000D03*
X177630000Y-90500000D03*
X180170000Y-90500000D03*
X177630000Y-93040000D03*
X180170000Y-93040000D03*
X177630000Y-95580000D03*
X180170000Y-95580000D03*
D13*
X144610000Y-118440000D03*
X142070000Y-118440000D03*
X135466000Y-70180000D03*
X132926000Y-70180000D03*
D15*
X143560000Y-108390000D03*
X146060000Y-108390000D03*
D16*
X134720000Y-83050000D03*
X134720000Y-80550000D03*
D15*
X122040000Y-81600000D03*
X124540000Y-81600000D03*
X119940000Y-81590000D03*
X117440000Y-81590000D03*
D16*
X134740000Y-75920000D03*
X134740000Y-78420000D03*
D17*
X117610000Y-69790000D03*
X119810000Y-69790000D03*
X134020000Y-73920000D03*
X131820000Y-73920000D03*
D18*
X182950000Y-107970000D03*
D19*
X182950000Y-105430000D03*
X185490000Y-107970000D03*
X185490000Y-105430000D03*
X188030000Y-107970000D03*
X188030000Y-105430000D03*
X190570000Y-107970000D03*
X190570000Y-105430000D03*
X193110000Y-107970000D03*
X193110000Y-105430000D03*
X195650000Y-107970000D03*
X195650000Y-105430000D03*
X198190000Y-107970000D03*
X198190000Y-105430000D03*
X200730000Y-107970000D03*
X200730000Y-105430000D03*
D18*
X139660000Y-114040000D03*
D19*
X139660000Y-111500000D03*
X142200000Y-114040000D03*
X142200000Y-111500000D03*
D18*
X142360000Y-74350000D03*
D19*
X142360000Y-76890000D03*
X139820000Y-74350000D03*
X139820000Y-76890000D03*
D20*
X110370000Y-89560000D03*
X110370000Y-84480000D03*
X110370000Y-94640000D03*
D18*
X127800000Y-108000000D03*
D19*
X130340000Y-108000000D03*
X132880000Y-108000000D03*
D20*
X110280000Y-71910000D03*
X110280000Y-76990000D03*
D21*
X112630000Y-105910000D03*
X112630000Y-117410000D03*
D22*
X109580000Y-103860000D03*
X109580000Y-119460000D03*
D23*
X121520000Y-116105000D03*
X121520000Y-113565000D03*
X121520000Y-111025000D03*
X121520000Y-108485000D03*
X118980000Y-114835000D03*
X118980000Y-112295000D03*
X118980000Y-109755000D03*
X118980000Y-107215000D03*
D18*
X132320000Y-85900000D03*
D19*
X134860000Y-85900000D03*
X137400000Y-85900000D03*
D18*
X182970000Y-80050000D03*
D19*
X182970000Y-77510000D03*
X185510000Y-80050000D03*
X185510000Y-77510000D03*
X188050000Y-80050000D03*
X188050000Y-77510000D03*
X190590000Y-80050000D03*
X190590000Y-77510000D03*
X193130000Y-80050000D03*
X193130000Y-77510000D03*
X195670000Y-80050000D03*
X195670000Y-77510000D03*
X198210000Y-80050000D03*
X198210000Y-77510000D03*
X200750000Y-80050000D03*
X200750000Y-77510000D03*
D12*
X174950000Y-96900000D03*
X172250000Y-96900000D03*
X160800000Y-96800000D03*
X158100000Y-96800000D03*
X121810000Y-69820000D03*
X124510000Y-69820000D03*
X129830000Y-73920000D03*
X127130000Y-73920000D03*
X181980000Y-73970000D03*
X184680000Y-73970000D03*
D24*
X146500000Y-83320000D03*
X148500000Y-83320000D03*
X150500000Y-83320000D03*
X152500000Y-83320000D03*
X154500000Y-83320000D03*
X156500000Y-83320000D03*
X158500000Y-83320000D03*
X160500000Y-83320000D03*
X162500000Y-83320000D03*
X164500000Y-83320000D03*
X164500000Y-105320000D03*
X162500000Y-105320000D03*
X160500000Y-105320000D03*
X158500000Y-105320000D03*
X156500000Y-105320000D03*
X154500000Y-105320000D03*
X152500000Y-105320000D03*
X150500000Y-105320000D03*
X148500000Y-105320000D03*
X146500000Y-105320000D03*
D25*
X121530000Y-72980000D03*
D26*
X121530000Y-79280000D03*
X123830000Y-79280000D03*
X119230000Y-79280000D03*
D25*
X129630000Y-76520000D03*
D26*
X129630000Y-82820000D03*
X131930000Y-82820000D03*
X127330000Y-82820000D03*
D27*
X172000000Y-98700000D03*
X172000000Y-100600000D03*
X174000000Y-99650000D03*
X157800000Y-98650000D03*
X157800000Y-100550000D03*
X159800000Y-99600000D03*
X164700000Y-98600000D03*
X164700000Y-100500000D03*
X166700000Y-99550000D03*
X150900000Y-98650000D03*
X150900000Y-100550000D03*
X152900000Y-99600000D03*
X149400000Y-88800000D03*
X149400000Y-86900000D03*
X147400000Y-87850000D03*
X156500000Y-88950000D03*
X156500000Y-87050000D03*
X154500000Y-88000000D03*
X163800000Y-88950000D03*
X163800000Y-87050000D03*
X161800000Y-88000000D03*
X171100000Y-89000000D03*
X171100000Y-87100000D03*
X169100000Y-88050000D03*
D12*
X167700000Y-96800000D03*
X165000000Y-96800000D03*
X153900000Y-96800000D03*
X151200000Y-96800000D03*
D28*
X170300000Y-99700000D03*
X170300000Y-97000000D03*
X156100000Y-99600000D03*
X156100000Y-96900000D03*
X163000000Y-99600000D03*
X163000000Y-96900000D03*
X149100000Y-99600000D03*
X149100000Y-96900000D03*
X151100000Y-87900000D03*
X151100000Y-90600000D03*
X158200000Y-87900000D03*
X158200000Y-90600000D03*
X165400000Y-88000000D03*
X165400000Y-90700000D03*
X172800000Y-88000000D03*
X172800000Y-90700000D03*
D12*
X149100000Y-90700000D03*
X146400000Y-90700000D03*
X156200000Y-90700000D03*
X153500000Y-90700000D03*
X160800000Y-90800000D03*
X163500000Y-90800000D03*
X170800000Y-90800000D03*
X168100000Y-90800000D03*
D11*
X173900000Y-103500000D03*
X125300000Y-93800000D03*
X171600000Y-113900000D03*
X164400000Y-114000000D03*
X158000000Y-114000000D03*
X150900000Y-113900000D03*
X143400000Y-87700000D03*
X137800000Y-108400000D03*
X147300000Y-94200000D03*
X151900000Y-93500000D03*
X129560000Y-98120000D03*
X128500000Y-100110000D03*
X136570000Y-82600000D03*
X121110000Y-83440000D03*
X185300000Y-88700000D03*
X182400000Y-83600000D03*
X185000000Y-85000000D03*
X186500000Y-88700000D03*
X155700000Y-94600000D03*
X163000000Y-95100000D03*
X170000000Y-94900000D03*
X177000000Y-97800000D03*
X178300000Y-72900000D03*
X150500000Y-75000000D03*
X158800000Y-74700000D03*
X164900000Y-74300000D03*
X177700000Y-78500000D03*
X150500000Y-92800000D03*
X157000000Y-92600000D03*
X161200000Y-93200000D03*
X180200006Y-74800000D03*
X180200000Y-74800000D03*
D29*
X134860000Y-85900000D02*
X136260000Y-84500000D01*
X136260000Y-84500000D02*
X140200000Y-84500000D01*
X140200000Y-84500000D02*
X143100001Y-87400001D01*
X143100001Y-87400001D02*
X143400000Y-87700000D01*
X134860000Y-85900000D02*
X134860000Y-86240000D01*
X134860000Y-86240000D02*
X127300000Y-93800000D01*
X127300000Y-93800000D02*
X125300000Y-93800000D01*
X164400000Y-114000000D02*
X171500000Y-114000000D01*
X171500000Y-114000000D02*
X171600000Y-113900000D01*
X158000000Y-114000000D02*
X164400000Y-114000000D01*
X150900000Y-113900000D02*
X157900000Y-113900000D01*
X157900000Y-113900000D02*
X158000000Y-114000000D01*
X143300000Y-87700000D02*
X143400000Y-87700000D01*
X146400000Y-90700000D02*
X146300000Y-90700000D01*
X146300000Y-90700000D02*
X143300000Y-87700000D01*
X153500000Y-90700000D02*
X154200000Y-91400000D01*
X154200000Y-91400000D02*
X154200000Y-93900000D01*
X154200000Y-93900000D02*
X153500000Y-94600000D01*
X158100000Y-95500000D02*
X159600000Y-94000000D01*
X159600000Y-94000000D02*
X164300000Y-94000000D01*
X164300000Y-94000000D02*
X165000000Y-94700000D01*
X158100000Y-96800000D02*
X158100000Y-96100000D01*
X158100000Y-95500000D02*
X158100000Y-96100000D01*
X156400000Y-93800000D02*
X158100000Y-95500000D01*
X153500000Y-94600000D02*
X154300000Y-93800000D01*
X154300000Y-93800000D02*
X156400000Y-93800000D01*
X163500000Y-90800000D02*
X163500000Y-93200000D01*
X163500000Y-93200000D02*
X164500000Y-94200000D01*
X164500000Y-94200000D02*
X165000000Y-94700000D01*
X165000000Y-94700000D02*
X165000000Y-96800000D01*
X168100000Y-90800000D02*
X168100000Y-91750000D01*
X168100000Y-91750000D02*
X172250000Y-95900000D01*
X172250000Y-95900000D02*
X172250000Y-95950000D01*
X172250000Y-95950000D02*
X172250000Y-96900000D01*
X151200000Y-96800000D02*
X151200000Y-96200000D01*
X151200000Y-96200000D02*
X146400000Y-91400000D01*
X146400000Y-91400000D02*
X146400000Y-90700000D01*
X153500000Y-94600000D02*
X151300000Y-96800000D01*
X151300000Y-96800000D02*
X151200000Y-96800000D01*
X163500000Y-90800000D02*
X163500000Y-91750000D01*
X163500000Y-91750000D02*
X164250000Y-92500000D01*
X164250000Y-92500000D02*
X167100000Y-92500000D01*
X167100000Y-92500000D02*
X168100000Y-91500000D01*
X168100000Y-91500000D02*
X168100000Y-90800000D01*
D30*
X157310000Y-118440000D02*
X157310000Y-119960000D01*
X157310000Y-119960000D02*
X157650000Y-120300000D01*
X157650000Y-120300000D02*
X183800000Y-120300000D01*
X183800000Y-120300000D02*
X184900000Y-119200000D01*
X154770000Y-118440000D02*
X155782000Y-118440000D01*
X155782000Y-118440000D02*
X157310000Y-118440000D01*
X153632990Y-120085010D02*
X154770000Y-118948000D01*
X154770000Y-118948000D02*
X154770000Y-118440000D01*
X136640000Y-119540000D02*
X137185010Y-120085010D01*
X137185010Y-120085010D02*
X153632990Y-120085010D01*
X118980000Y-112295000D02*
X120250000Y-111025000D01*
X120250000Y-111025000D02*
X121520000Y-111025000D01*
D29*
X126045001Y-114954999D02*
X130340000Y-110660000D01*
X130340000Y-110660000D02*
X130340000Y-108000000D01*
X121520000Y-116105000D02*
X122670001Y-114954999D01*
X122670001Y-114954999D02*
X126045001Y-114954999D01*
X137810000Y-108390000D02*
X137800000Y-108400000D01*
X143560000Y-108390000D02*
X137810000Y-108390000D01*
X146500000Y-105320000D02*
X146500000Y-99600000D01*
X146500000Y-99600000D02*
X149100000Y-97000000D01*
X149100000Y-97000000D02*
X149100000Y-96900000D01*
X149100000Y-96800000D02*
X147300000Y-95000000D01*
X147300000Y-94624264D02*
X147300000Y-94200000D01*
X147300000Y-95000000D02*
X147300000Y-94624264D01*
X149100000Y-96900000D02*
X149100000Y-96800000D01*
X151900000Y-93500000D02*
X151900000Y-91400000D01*
X151900000Y-91400000D02*
X151100000Y-90600000D01*
X149350000Y-88800000D02*
X149400000Y-88800000D01*
X163800000Y-88950000D02*
X163800000Y-88600000D01*
X163800000Y-88600000D02*
X162650001Y-87450001D01*
X162650001Y-87450001D02*
X162650001Y-87279999D01*
X162650001Y-87279999D02*
X162170002Y-86800000D01*
X162170002Y-86800000D02*
X161100000Y-86800000D01*
X161100000Y-86800000D02*
X160400000Y-87500000D01*
X160400000Y-87500000D02*
X160400000Y-88300000D01*
X160400000Y-88300000D02*
X158200000Y-90500000D01*
X158200000Y-90500000D02*
X158200000Y-90600000D01*
X171100000Y-89000000D02*
X171100000Y-88600000D01*
X171100000Y-88600000D02*
X169400000Y-86900000D01*
X169400000Y-86900000D02*
X168700000Y-86900000D01*
X168700000Y-86900000D02*
X167800000Y-87800000D01*
X167800000Y-87800000D02*
X167800000Y-88100000D01*
X167800000Y-88100000D02*
X165400000Y-90500000D01*
X165400000Y-90500000D02*
X165400000Y-90700000D01*
X171100000Y-89000000D02*
X172800000Y-90700000D01*
X163800000Y-88950000D02*
X163800000Y-89100000D01*
X163800000Y-89100000D02*
X165400000Y-90700000D01*
X156500000Y-88950000D02*
X156450000Y-88950000D01*
X155100000Y-86600000D02*
X154100000Y-86600000D01*
X156450000Y-88950000D02*
X155350001Y-87850001D01*
X153300000Y-88600000D02*
X151300000Y-90600000D01*
X155350001Y-87850001D02*
X155350001Y-86850001D01*
X155350001Y-86850001D02*
X155100000Y-86600000D01*
X154100000Y-86600000D02*
X153300000Y-87400000D01*
X153300000Y-87400000D02*
X153300000Y-88600000D01*
X151300000Y-90600000D02*
X151100000Y-90600000D01*
X156500000Y-88950000D02*
X156550000Y-88950000D01*
X156550000Y-88950000D02*
X158200000Y-90600000D01*
X149400000Y-88800000D02*
X149400000Y-88900000D01*
X149400000Y-88900000D02*
X151100000Y-90600000D01*
X164700000Y-98600000D02*
X164750000Y-98600000D01*
X164750000Y-98600000D02*
X165849999Y-99699999D01*
X165849999Y-99699999D02*
X165849999Y-100270001D01*
X165849999Y-100270001D02*
X166479998Y-100900000D01*
X166479998Y-100900000D02*
X167200000Y-100900000D01*
X167200000Y-100900000D02*
X168000000Y-100100000D01*
X169900000Y-97000000D02*
X170300000Y-97000000D01*
X168000000Y-100100000D02*
X168000000Y-98900000D01*
X168000000Y-98900000D02*
X169900000Y-97000000D01*
X157800000Y-98650000D02*
X157850000Y-98650000D01*
X159629998Y-101000000D02*
X160200000Y-101000000D01*
X157850000Y-98650000D02*
X158650001Y-99450001D01*
X158650001Y-99450001D02*
X158650001Y-100020003D01*
X163000000Y-97000000D02*
X163000000Y-96900000D01*
X158650001Y-100020003D02*
X159629998Y-101000000D01*
X160200000Y-101000000D02*
X161500000Y-99700000D01*
X161500000Y-99700000D02*
X161500000Y-98500000D01*
X161500000Y-98500000D02*
X163000000Y-97000000D01*
X150900000Y-98650000D02*
X150900000Y-99100000D01*
X150900000Y-99100000D02*
X152600000Y-100800000D01*
X154700000Y-98400000D02*
X156100000Y-97000000D01*
X152600000Y-100800000D02*
X153500000Y-100800000D01*
X153500000Y-100800000D02*
X154700000Y-99600000D01*
X154700000Y-99600000D02*
X154700000Y-98400000D01*
X156100000Y-97000000D02*
X156100000Y-96900000D01*
X170300000Y-97000000D02*
X172000000Y-98700000D01*
X163000000Y-96900000D02*
X164700000Y-98600000D01*
X156100000Y-96900000D02*
X156100000Y-96950000D01*
X156100000Y-96950000D02*
X157800000Y-98650000D01*
X150900000Y-98650000D02*
X150850000Y-98650000D01*
X150850000Y-98650000D02*
X149100000Y-96900000D01*
X143685000Y-108390000D02*
X146500000Y-105575000D01*
X146500000Y-105575000D02*
X146500000Y-105320000D01*
X143560000Y-108390000D02*
X143685000Y-108390000D01*
D30*
X129260001Y-98419999D02*
X129560000Y-98120000D01*
X128500000Y-99180000D02*
X129260001Y-98419999D01*
X128500000Y-100110000D02*
X128500000Y-99180000D01*
D29*
X131930000Y-82820000D02*
X134490000Y-82820000D01*
X134490000Y-82820000D02*
X134720000Y-83050000D01*
X136570000Y-82600000D02*
X135170000Y-82600000D01*
X135170000Y-82600000D02*
X134720000Y-83050000D01*
X122040000Y-81600000D02*
X122165000Y-81600000D01*
X122165000Y-81600000D02*
X123830000Y-79935000D01*
X123830000Y-79935000D02*
X123830000Y-79280000D01*
X121110000Y-83440000D02*
X121110000Y-82530000D01*
X121110000Y-82530000D02*
X122040000Y-81600000D01*
X119940000Y-102840000D02*
X125100000Y-108000000D01*
X125100000Y-108000000D02*
X127800000Y-108000000D01*
X119940000Y-81590000D02*
X119940000Y-102840000D01*
X121530000Y-72980000D02*
X119900000Y-72980000D01*
X119900000Y-72980000D02*
X117610000Y-70690000D01*
X117610000Y-70690000D02*
X117610000Y-69790000D01*
X121530000Y-79280000D02*
X121530000Y-72980000D01*
X119940000Y-81590000D02*
X120065000Y-81590000D01*
X120065000Y-81590000D02*
X121530000Y-80125000D01*
X121530000Y-80125000D02*
X121530000Y-79280000D01*
X129630000Y-82820000D02*
X129630000Y-84360000D01*
X129630000Y-84360000D02*
X131170000Y-85900000D01*
X131170000Y-85900000D02*
X132320000Y-85900000D01*
X129630000Y-76520000D02*
X129910000Y-76240000D01*
X129910000Y-76240000D02*
X134420000Y-76240000D01*
X134420000Y-76240000D02*
X134740000Y-75920000D01*
X134020000Y-73920000D02*
X134920000Y-73920000D01*
X134920000Y-73920000D02*
X135140000Y-74140000D01*
X135140000Y-74140000D02*
X135140000Y-75520000D01*
X135140000Y-75520000D02*
X134740000Y-75920000D01*
X129630000Y-82820000D02*
X129630000Y-81520000D01*
X129630000Y-81520000D02*
X129630000Y-76520000D01*
X129630000Y-83070000D02*
X129630000Y-82820000D01*
D30*
X119810000Y-69790000D02*
X121780000Y-69790000D01*
X121780000Y-69790000D02*
X121810000Y-69820000D01*
X131820000Y-73920000D02*
X129830000Y-73920000D01*
X185300000Y-88700000D02*
X185300000Y-94100000D01*
X180600000Y-98800000D02*
X180600000Y-106800000D01*
X185300000Y-94100000D02*
X180600000Y-98800000D01*
X180600000Y-106800000D02*
X181770000Y-107970000D01*
X181770000Y-107970000D02*
X182950000Y-107970000D01*
X182950000Y-107970000D02*
X178750000Y-107970000D01*
X178750000Y-107970000D02*
X172020000Y-114700000D01*
X172020000Y-114700000D02*
X142859999Y-114700000D01*
X142859999Y-114700000D02*
X142259999Y-114100000D01*
X185250000Y-70180000D02*
X185250000Y-70688000D01*
X185000000Y-85000000D02*
X183600000Y-83600000D01*
X183600000Y-83600000D02*
X182400000Y-83600000D01*
X185490000Y-107970000D02*
X184314999Y-106794999D01*
X184314999Y-106794999D02*
X184314999Y-104865999D01*
X184314999Y-104865999D02*
X186500000Y-102680998D01*
X186500000Y-102680998D02*
X186500000Y-88700000D01*
X139660000Y-114040000D02*
X139660000Y-115140000D01*
X173010000Y-115400000D02*
X178140000Y-110270000D01*
X184530000Y-110270000D02*
X185490000Y-109310000D01*
X139660000Y-115140000D02*
X139920000Y-115400000D01*
X139920000Y-115400000D02*
X173010000Y-115400000D01*
X178140000Y-110270000D02*
X184530000Y-110270000D01*
X185490000Y-109310000D02*
X185490000Y-107970000D01*
X188030000Y-107970000D02*
X189205001Y-106794999D01*
X197625999Y-106794999D02*
X198754001Y-106794999D01*
X200160998Y-106800000D02*
X200165999Y-106794999D01*
X189205001Y-106794999D02*
X191134001Y-106794999D01*
X191134001Y-106794999D02*
X191139002Y-106800000D01*
X201299002Y-106800000D02*
X202630000Y-106800000D01*
X191139002Y-106800000D02*
X192540998Y-106800000D01*
X201294001Y-106794999D02*
X201299002Y-106800000D01*
X192540998Y-106800000D02*
X192545999Y-106794999D01*
X198759002Y-106800000D02*
X200160998Y-106800000D01*
X195080998Y-106800000D02*
X195085999Y-106794999D01*
X192545999Y-106794999D02*
X193674001Y-106794999D01*
X204110000Y-108280000D02*
X208110000Y-108280000D01*
X193674001Y-106794999D02*
X193679002Y-106800000D01*
X195085999Y-106794999D02*
X196214001Y-106794999D01*
X193679002Y-106800000D02*
X195080998Y-106800000D01*
X196214001Y-106794999D02*
X196219002Y-106800000D01*
X196219002Y-106800000D02*
X197620998Y-106800000D01*
X197620998Y-106800000D02*
X197625999Y-106794999D01*
X198754001Y-106794999D02*
X198759002Y-106800000D01*
X200165999Y-106794999D02*
X201294001Y-106794999D01*
X202630000Y-106800000D02*
X204110000Y-108280000D01*
X152900000Y-99600000D02*
X153900000Y-98600000D01*
X153900000Y-98600000D02*
X153900000Y-96900000D01*
X153900000Y-96900000D02*
X153800000Y-96800000D01*
X153800000Y-96800000D02*
X153900000Y-96800000D01*
X155700000Y-94600000D02*
X154700000Y-94600000D01*
X154700000Y-94600000D02*
X153900000Y-95400000D01*
X153900000Y-95400000D02*
X153900000Y-96800000D01*
X210650000Y-110820000D02*
X209270000Y-112200000D01*
X209270000Y-112200000D02*
X196700000Y-112200000D01*
X196700000Y-112200000D02*
X195600000Y-111100000D01*
X195600000Y-111100000D02*
X195600000Y-108020000D01*
X195600000Y-108020000D02*
X195650000Y-107970000D01*
X163000000Y-95100000D02*
X162700000Y-94800000D01*
X162700000Y-94800000D02*
X161400000Y-94800000D01*
X161400000Y-94800000D02*
X160800000Y-95400000D01*
X160800000Y-95400000D02*
X160800000Y-96800000D01*
X159800000Y-99600000D02*
X159800000Y-97700000D01*
X159800000Y-97700000D02*
X160700000Y-96800000D01*
X160700000Y-96800000D02*
X160800000Y-96800000D01*
X166700000Y-97800000D02*
X167700000Y-96800000D01*
X166700000Y-99550000D02*
X166700000Y-97800000D01*
X167700000Y-96800000D02*
X167700000Y-95500000D01*
X167700000Y-95500000D02*
X168300000Y-94900000D01*
X168300000Y-94900000D02*
X170000000Y-94900000D01*
X177000000Y-97800000D02*
X175850000Y-97800000D01*
X175850000Y-97800000D02*
X174950000Y-96900000D01*
X174000000Y-99650000D02*
X174050000Y-99650000D01*
X174050000Y-99650000D02*
X174950000Y-98750000D01*
X174950000Y-98750000D02*
X174950000Y-97800000D01*
X174950000Y-97800000D02*
X174950000Y-96900000D01*
X175050000Y-97000000D02*
X174950000Y-96900000D01*
X185070000Y-72900000D02*
X178724264Y-72900000D01*
X186778000Y-71700000D02*
X186270000Y-71700000D01*
X187790000Y-70688000D02*
X186778000Y-71700000D01*
X187790000Y-70180000D02*
X187790000Y-70688000D01*
X178724264Y-72900000D02*
X178300000Y-72900000D01*
X186270000Y-71700000D02*
X185070000Y-72900000D01*
D29*
X149690000Y-118440000D02*
X149690000Y-117932000D01*
X149690000Y-117932000D02*
X148358000Y-116600000D01*
X148358000Y-116600000D02*
X136300000Y-116600000D01*
X136300000Y-116600000D02*
X133600000Y-113900000D01*
X133600000Y-113900000D02*
X133600000Y-108600000D01*
X133600000Y-108600000D02*
X133000000Y-108000000D01*
X133000000Y-108000000D02*
X132880000Y-108000000D01*
X152230000Y-117932000D02*
X150223011Y-115925011D01*
X150223011Y-115925011D02*
X137095011Y-115925011D01*
X137095011Y-115925011D02*
X135100000Y-113930000D01*
X135100000Y-113930000D02*
X135100000Y-88200000D01*
X135100000Y-88200000D02*
X137400000Y-85900000D01*
X152230000Y-117932000D02*
X153562000Y-116600000D01*
X153562000Y-116600000D02*
X180800000Y-116600000D01*
X180800000Y-116600000D02*
X186779999Y-110620001D01*
X188509998Y-103100000D02*
X202600000Y-103100000D01*
X186779999Y-110620001D02*
X186779999Y-104829999D01*
X186779999Y-104829999D02*
X188509998Y-103100000D01*
X202600000Y-103100000D02*
X206400000Y-99300000D01*
X206400000Y-99300000D02*
X206400000Y-71890000D01*
X206400000Y-71890000D02*
X208110000Y-70180000D01*
X208110000Y-70180000D02*
X210650000Y-70180000D01*
X152230000Y-118440000D02*
X152230000Y-117932000D01*
D30*
X172550000Y-70180000D02*
X172550000Y-73550000D01*
X172550000Y-73550000D02*
X173800000Y-74800000D01*
X173800000Y-74800000D02*
X174950000Y-74800000D01*
X172550000Y-70688000D02*
X172550000Y-70180000D01*
X163474998Y-73800000D02*
X151700000Y-73800000D01*
X151700000Y-73800000D02*
X150500000Y-75000000D01*
X170400000Y-75600000D02*
X165274998Y-75600000D01*
X165274998Y-75600000D02*
X163474998Y-73800000D01*
X171600000Y-76800000D02*
X170400000Y-75600000D01*
X181057919Y-76800000D02*
X171600000Y-76800000D01*
X182970000Y-77510000D02*
X181767919Y-77510000D01*
X181767919Y-77510000D02*
X181057919Y-76800000D01*
X185510000Y-80050000D02*
X186874999Y-78685001D01*
X186874999Y-78685001D02*
X188614001Y-78685001D01*
X189414999Y-76385001D02*
X191100000Y-74700000D01*
X188614001Y-78685001D02*
X189414999Y-77884003D01*
X189414999Y-77884003D02*
X189414999Y-76385001D01*
X191100000Y-74700000D02*
X197700000Y-74700000D01*
X197700000Y-74700000D02*
X200490000Y-71910000D01*
X200490000Y-71910000D02*
X200490000Y-70180000D01*
X164800000Y-77700000D02*
X161800000Y-74700000D01*
X161800000Y-74700000D02*
X158800000Y-74700000D01*
X179400000Y-77700000D02*
X164800000Y-77700000D01*
X180385001Y-78685001D02*
X179400000Y-77700000D01*
X185510000Y-77510000D02*
X184334999Y-78685001D01*
X184334999Y-78685001D02*
X180385001Y-78685001D01*
X188050000Y-77510000D02*
X186540000Y-76000000D01*
X165000000Y-74400000D02*
X164900000Y-74300000D01*
X186540000Y-76000000D02*
X186500000Y-76000000D01*
X186500000Y-76000000D02*
X186000000Y-75500000D01*
X186000000Y-75500000D02*
X180900000Y-75500000D01*
X180900000Y-75500000D02*
X180300000Y-76100000D01*
X180300000Y-76100000D02*
X173500000Y-76100000D01*
X173500000Y-76100000D02*
X171800000Y-74400000D01*
X171800000Y-74400000D02*
X165000000Y-74400000D01*
X190590000Y-77510000D02*
X190590000Y-77910000D01*
X190590000Y-77910000D02*
X189400000Y-79100000D01*
X189400000Y-79100000D02*
X189400000Y-80439002D01*
X189400000Y-80439002D02*
X187439002Y-82400000D01*
X187439002Y-82400000D02*
X180200000Y-82400000D01*
X180200000Y-82400000D02*
X179300000Y-81500000D01*
X179300000Y-81500000D02*
X179300000Y-80100000D01*
X179300000Y-80100000D02*
X177700000Y-78500000D01*
X147400000Y-87850000D02*
X147400000Y-89100000D01*
X147400000Y-89100000D02*
X149000000Y-90700000D01*
X149000000Y-90700000D02*
X149100000Y-90700000D01*
X149100000Y-90700000D02*
X149100000Y-91900000D01*
X149100000Y-91900000D02*
X150000000Y-92800000D01*
X150000000Y-92800000D02*
X150500000Y-92800000D01*
X154500000Y-88000000D02*
X154500000Y-89100000D01*
X154500000Y-89100000D02*
X156100000Y-90700000D01*
X156100000Y-90700000D02*
X156200000Y-90700000D01*
X157000000Y-92600000D02*
X156600000Y-92600000D01*
X156600000Y-92600000D02*
X156200000Y-92200000D01*
X156200000Y-92200000D02*
X156200000Y-90700000D01*
X161800000Y-88000000D02*
X161800000Y-89900000D01*
X161800000Y-89900000D02*
X160900000Y-90800000D01*
X160900000Y-90800000D02*
X160800000Y-90800000D01*
X161200000Y-93200000D02*
X160800000Y-92800000D01*
X160800000Y-92800000D02*
X160800000Y-90800000D01*
X200750000Y-77510000D02*
X199460000Y-78800000D01*
X199460000Y-78800000D02*
X195180998Y-78800000D01*
X195180998Y-78800000D02*
X194400000Y-79580998D01*
X193400000Y-82000000D02*
X192600000Y-82000000D01*
X194400000Y-79580998D02*
X194400000Y-81000000D01*
X170900000Y-90800000D02*
X170800000Y-90800000D01*
X194400000Y-81000000D02*
X193400000Y-82000000D01*
X178000000Y-88000000D02*
X173700000Y-92300000D01*
X192600000Y-82000000D02*
X186600000Y-88000000D01*
X186600000Y-88000000D02*
X178000000Y-88000000D01*
X173700000Y-92300000D02*
X172400000Y-92300000D01*
X172400000Y-92300000D02*
X170900000Y-90800000D01*
X170800000Y-90800000D02*
X170700000Y-90800000D01*
X170700000Y-90800000D02*
X169100000Y-89200000D01*
X169100000Y-89200000D02*
X169100000Y-88700000D01*
X169100000Y-88700000D02*
X169100000Y-88050000D01*
X184680000Y-73970000D02*
X185530000Y-73970000D01*
X185530000Y-73970000D02*
X186600000Y-72900000D01*
X197950000Y-71650000D02*
X197950000Y-70180000D01*
X186600000Y-72900000D02*
X196700000Y-72900000D01*
X196700000Y-72900000D02*
X197950000Y-71650000D01*
X180200006Y-74749994D02*
X180200006Y-74800000D01*
X180980000Y-73970000D02*
X180200006Y-74749994D01*
X181980000Y-73970000D02*
X180980000Y-73970000D01*
X180200000Y-74800000D02*
X180200006Y-74800000D01*
X177650000Y-74800000D02*
X180200000Y-74800000D01*
X181980000Y-73970000D02*
X181880000Y-73970000D01*
X170300000Y-99700000D02*
X171100000Y-99700000D01*
X171100000Y-99700000D02*
X172000000Y-100600000D01*
X168500000Y-102600000D02*
X170300000Y-100800000D01*
X170300000Y-100800000D02*
X170300000Y-99700000D01*
X165220000Y-102600000D02*
X168500000Y-102600000D01*
X162500000Y-105320000D02*
X165220000Y-102600000D01*
X157800000Y-100550000D02*
X157850000Y-100550000D01*
X157850000Y-100550000D02*
X157800000Y-100600000D01*
X157800000Y-100600000D02*
X157800000Y-103630051D01*
X157800000Y-103630051D02*
X158500000Y-104330051D01*
X158500000Y-104330051D02*
X158500000Y-105320000D01*
X156100000Y-99600000D02*
X156850000Y-99600000D01*
X156850000Y-99600000D02*
X157800000Y-100550000D01*
X163000000Y-99600000D02*
X163800000Y-99600000D01*
X163800000Y-99600000D02*
X164700000Y-100500000D01*
X163000000Y-99600000D02*
X160500000Y-102100000D01*
X160500000Y-102100000D02*
X160500000Y-105320000D01*
X150900000Y-100550000D02*
X150900000Y-101000000D01*
X150900000Y-101000000D02*
X153600000Y-103700000D01*
X153600000Y-103700000D02*
X154880000Y-103700000D01*
X154880000Y-103700000D02*
X155800001Y-104620001D01*
X155800001Y-104620001D02*
X156500000Y-105320000D01*
X149100000Y-99600000D02*
X149950000Y-99600000D01*
X149950000Y-99600000D02*
X150900000Y-100550000D01*
X151100000Y-87900000D02*
X151100000Y-86720000D01*
X151100000Y-86720000D02*
X154500000Y-83320000D01*
X149400000Y-86900000D02*
X150100000Y-86900000D01*
X150100000Y-86900000D02*
X151100000Y-87900000D01*
X156500000Y-87050000D02*
X156500000Y-86400000D01*
X156500000Y-86400000D02*
X156500000Y-83320000D01*
X156500000Y-87050000D02*
X157350000Y-87050000D01*
X157350000Y-87050000D02*
X158200000Y-87900000D01*
X161843590Y-85300000D02*
X160480000Y-85300000D01*
X160480000Y-85300000D02*
X158500000Y-83320000D01*
X163800000Y-86300000D02*
X162843590Y-86300000D01*
X162843590Y-86300000D02*
X161843590Y-85300000D01*
X163800000Y-87050000D02*
X163800000Y-86300000D01*
X165400000Y-88000000D02*
X164750000Y-88000000D01*
X164750000Y-88000000D02*
X163800000Y-87050000D01*
X171100000Y-87100000D02*
X171050000Y-87100000D01*
X171050000Y-87100000D02*
X168850000Y-84900000D01*
X168850000Y-84900000D02*
X162080000Y-84900000D01*
X162080000Y-84900000D02*
X160500000Y-83320000D01*
X172800000Y-88000000D02*
X172000000Y-88000000D01*
X172000000Y-88000000D02*
X171100000Y-87100000D01*
D31*
G36*
X212515000Y-70473736D02*
X212515000Y-80350000D01*
X212540967Y-80480543D01*
X212566627Y-80610889D01*
X212567009Y-80611463D01*
X212567143Y-80612138D01*
X212640924Y-80722559D01*
X212714677Y-80833412D01*
X215045000Y-83172946D01*
X215045000Y-116897054D01*
X212733606Y-119217584D01*
X212872113Y-118884022D01*
X212872885Y-117999857D01*
X212535242Y-117182700D01*
X211910589Y-116556955D01*
X211094022Y-116217887D01*
X210209857Y-116217115D01*
X209392700Y-116554758D01*
X208766955Y-117179411D01*
X208427887Y-117995978D01*
X208427115Y-118880143D01*
X208764758Y-119697300D01*
X209371397Y-120305000D01*
X205958720Y-120305000D01*
X206104609Y-120275981D01*
X206557828Y-119973149D01*
X206860660Y-119519930D01*
X206967000Y-118985321D01*
X206967000Y-117894679D01*
X206860660Y-117360070D01*
X206557828Y-116906851D01*
X206104609Y-116604019D01*
X205570000Y-116497679D01*
X205035391Y-116604019D01*
X204582172Y-116906851D01*
X204300000Y-117329150D01*
X204017828Y-116906851D01*
X203564609Y-116604019D01*
X203030000Y-116497679D01*
X202495391Y-116604019D01*
X202042172Y-116906851D01*
X201760000Y-117329150D01*
X201477828Y-116906851D01*
X201024609Y-116604019D01*
X200490000Y-116497679D01*
X199955391Y-116604019D01*
X199502172Y-116906851D01*
X199220000Y-117329150D01*
X198937828Y-116906851D01*
X198484609Y-116604019D01*
X197950000Y-116497679D01*
X197415391Y-116604019D01*
X196962172Y-116906851D01*
X196680000Y-117329150D01*
X196397828Y-116906851D01*
X195944609Y-116604019D01*
X195410000Y-116497679D01*
X194875391Y-116604019D01*
X194422172Y-116906851D01*
X194140000Y-117329150D01*
X193857828Y-116906851D01*
X193404609Y-116604019D01*
X192870000Y-116497679D01*
X192335391Y-116604019D01*
X191882172Y-116906851D01*
X191600000Y-117329150D01*
X191317828Y-116906851D01*
X190864609Y-116604019D01*
X190330000Y-116497679D01*
X189795391Y-116604019D01*
X189342172Y-116906851D01*
X189060000Y-117329150D01*
X188777828Y-116906851D01*
X188324609Y-116604019D01*
X187790000Y-116497679D01*
X187255391Y-116604019D01*
X186802172Y-116906851D01*
X186499340Y-117360070D01*
X186393000Y-117894679D01*
X186393000Y-118985321D01*
X186499340Y-119519930D01*
X186802172Y-119973149D01*
X187255391Y-120275981D01*
X187401280Y-120305000D01*
X183098720Y-120305000D01*
X183244609Y-120275981D01*
X183697828Y-119973149D01*
X184000660Y-119519930D01*
X184107000Y-118985321D01*
X184107000Y-117894679D01*
X184000660Y-117360070D01*
X183697828Y-116906851D01*
X183244609Y-116604019D01*
X182710000Y-116497679D01*
X182175391Y-116604019D01*
X181722172Y-116906851D01*
X181440000Y-117329150D01*
X181333378Y-117169579D01*
X181355079Y-117155079D01*
X184169945Y-114340213D01*
X207309392Y-114340213D01*
X207378857Y-114582397D01*
X207902302Y-114769144D01*
X208457368Y-114741362D01*
X208841143Y-114582397D01*
X208910608Y-114340213D01*
X209849392Y-114340213D01*
X209918857Y-114582397D01*
X210442302Y-114769144D01*
X210997368Y-114741362D01*
X211381143Y-114582397D01*
X211450608Y-114340213D01*
X210650000Y-113539605D01*
X209849392Y-114340213D01*
X208910608Y-114340213D01*
X208110000Y-113539605D01*
X207309392Y-114340213D01*
X184169945Y-114340213D01*
X187335078Y-111175080D01*
X187505244Y-110920407D01*
X187564999Y-110620001D01*
X187564999Y-109391598D01*
X188030000Y-109484093D01*
X188598285Y-109371054D01*
X189080054Y-109049147D01*
X189300000Y-108719974D01*
X189519946Y-109049147D01*
X190001715Y-109371054D01*
X190570000Y-109484093D01*
X191138285Y-109371054D01*
X191620054Y-109049147D01*
X191840000Y-108719974D01*
X192059946Y-109049147D01*
X192541715Y-109371054D01*
X193110000Y-109484093D01*
X193678285Y-109371054D01*
X194160054Y-109049147D01*
X194380000Y-108719974D01*
X194599946Y-109049147D01*
X194840000Y-109209546D01*
X194840000Y-111100000D01*
X194897852Y-111390839D01*
X195062599Y-111637401D01*
X196162599Y-112737401D01*
X196409161Y-112902148D01*
X196700000Y-112960000D01*
X206769463Y-112960000D01*
X206700856Y-113152302D01*
X206728638Y-113707368D01*
X206887603Y-114091143D01*
X207129787Y-114160608D01*
X207930395Y-113360000D01*
X207916253Y-113345858D01*
X208095858Y-113166253D01*
X208110000Y-113180395D01*
X208124143Y-113166253D01*
X208303748Y-113345858D01*
X208289605Y-113360000D01*
X209090213Y-114160608D01*
X209332397Y-114091143D01*
X209376453Y-113967656D01*
X209427603Y-114091143D01*
X209669787Y-114160608D01*
X210470395Y-113360000D01*
X210829605Y-113360000D01*
X211630213Y-114160608D01*
X211872397Y-114091143D01*
X212059144Y-113567698D01*
X212031362Y-113012632D01*
X211872397Y-112628857D01*
X211630213Y-112559392D01*
X210829605Y-113360000D01*
X210470395Y-113360000D01*
X210456253Y-113345858D01*
X210635858Y-113166253D01*
X210650000Y-113180395D01*
X211450608Y-112379787D01*
X211381143Y-112137603D01*
X211240682Y-112087491D01*
X211440303Y-112005010D01*
X211833629Y-111612370D01*
X212046757Y-111099100D01*
X212047242Y-110543339D01*
X211835010Y-110029697D01*
X211442370Y-109636371D01*
X211234488Y-109550051D01*
X211440303Y-109465010D01*
X211833629Y-109072370D01*
X212046757Y-108559100D01*
X212047242Y-108003339D01*
X211835010Y-107489697D01*
X211442370Y-107096371D01*
X211234488Y-107010051D01*
X211440303Y-106925010D01*
X211833629Y-106532370D01*
X212046757Y-106019100D01*
X212047242Y-105463339D01*
X211835010Y-104949697D01*
X211442370Y-104556371D01*
X211234488Y-104470051D01*
X211440303Y-104385010D01*
X211833629Y-103992370D01*
X212046757Y-103479100D01*
X212047242Y-102923339D01*
X211835010Y-102409697D01*
X211442370Y-102016371D01*
X211234488Y-101930051D01*
X211440303Y-101845010D01*
X211833629Y-101452370D01*
X212046757Y-100939100D01*
X212047242Y-100383339D01*
X211835010Y-99869697D01*
X211442370Y-99476371D01*
X211234488Y-99390051D01*
X211440303Y-99305010D01*
X211833629Y-98912370D01*
X212046757Y-98399100D01*
X212047242Y-97843339D01*
X211835010Y-97329697D01*
X211442370Y-96936371D01*
X211234488Y-96850051D01*
X211440303Y-96765010D01*
X211833629Y-96372370D01*
X212046757Y-95859100D01*
X212047242Y-95303339D01*
X211835010Y-94789697D01*
X211442370Y-94396371D01*
X211234488Y-94310051D01*
X211440303Y-94225010D01*
X211833629Y-93832370D01*
X212046757Y-93319100D01*
X212047242Y-92763339D01*
X211835010Y-92249697D01*
X211442370Y-91856371D01*
X211234488Y-91770051D01*
X211440303Y-91685010D01*
X211833629Y-91292370D01*
X212046757Y-90779100D01*
X212047242Y-90223339D01*
X211835010Y-89709697D01*
X211442370Y-89316371D01*
X211234488Y-89230051D01*
X211440303Y-89145010D01*
X211833629Y-88752370D01*
X212046757Y-88239100D01*
X212047242Y-87683339D01*
X211835010Y-87169697D01*
X211442370Y-86776371D01*
X211234488Y-86690051D01*
X211440303Y-86605010D01*
X211833629Y-86212370D01*
X212046757Y-85699100D01*
X212047242Y-85143339D01*
X211835010Y-84629697D01*
X211442370Y-84236371D01*
X211234488Y-84150051D01*
X211440303Y-84065010D01*
X211833629Y-83672370D01*
X212046757Y-83159100D01*
X212047242Y-82603339D01*
X211835010Y-82089697D01*
X211442370Y-81696371D01*
X211234488Y-81610051D01*
X211440303Y-81525010D01*
X211833629Y-81132370D01*
X212046757Y-80619100D01*
X212047242Y-80063339D01*
X211835010Y-79549697D01*
X211442370Y-79156371D01*
X211234488Y-79070051D01*
X211440303Y-78985010D01*
X211833629Y-78592370D01*
X212046757Y-78079100D01*
X212047242Y-77523339D01*
X211835010Y-77009697D01*
X211442370Y-76616371D01*
X211234488Y-76530051D01*
X211440303Y-76445010D01*
X211833629Y-76052370D01*
X212046757Y-75539100D01*
X212047242Y-74983339D01*
X211835010Y-74469697D01*
X211442370Y-74076371D01*
X211234488Y-73990051D01*
X211440303Y-73905010D01*
X211833629Y-73512370D01*
X212046757Y-72999100D01*
X212047242Y-72443339D01*
X211835010Y-71929697D01*
X211442370Y-71536371D01*
X211234488Y-71450051D01*
X211440303Y-71365010D01*
X211833629Y-70972370D01*
X212046757Y-70459100D01*
X212047153Y-70005889D01*
X212515000Y-70473736D01*
X212515000Y-70473736D01*
G37*
X212515000Y-70473736D02*
X212515000Y-80350000D01*
X212540967Y-80480543D01*
X212566627Y-80610889D01*
X212567009Y-80611463D01*
X212567143Y-80612138D01*
X212640924Y-80722559D01*
X212714677Y-80833412D01*
X215045000Y-83172946D01*
X215045000Y-116897054D01*
X212733606Y-119217584D01*
X212872113Y-118884022D01*
X212872885Y-117999857D01*
X212535242Y-117182700D01*
X211910589Y-116556955D01*
X211094022Y-116217887D01*
X210209857Y-116217115D01*
X209392700Y-116554758D01*
X208766955Y-117179411D01*
X208427887Y-117995978D01*
X208427115Y-118880143D01*
X208764758Y-119697300D01*
X209371397Y-120305000D01*
X205958720Y-120305000D01*
X206104609Y-120275981D01*
X206557828Y-119973149D01*
X206860660Y-119519930D01*
X206967000Y-118985321D01*
X206967000Y-117894679D01*
X206860660Y-117360070D01*
X206557828Y-116906851D01*
X206104609Y-116604019D01*
X205570000Y-116497679D01*
X205035391Y-116604019D01*
X204582172Y-116906851D01*
X204300000Y-117329150D01*
X204017828Y-116906851D01*
X203564609Y-116604019D01*
X203030000Y-116497679D01*
X202495391Y-116604019D01*
X202042172Y-116906851D01*
X201760000Y-117329150D01*
X201477828Y-116906851D01*
X201024609Y-116604019D01*
X200490000Y-116497679D01*
X199955391Y-116604019D01*
X199502172Y-116906851D01*
X199220000Y-117329150D01*
X198937828Y-116906851D01*
X198484609Y-116604019D01*
X197950000Y-116497679D01*
X197415391Y-116604019D01*
X196962172Y-116906851D01*
X196680000Y-117329150D01*
X196397828Y-116906851D01*
X195944609Y-116604019D01*
X195410000Y-116497679D01*
X194875391Y-116604019D01*
X194422172Y-116906851D01*
X194140000Y-117329150D01*
X193857828Y-116906851D01*
X193404609Y-116604019D01*
X192870000Y-116497679D01*
X192335391Y-116604019D01*
X191882172Y-116906851D01*
X191600000Y-117329150D01*
X191317828Y-116906851D01*
X190864609Y-116604019D01*
X190330000Y-116497679D01*
X189795391Y-116604019D01*
X189342172Y-116906851D01*
X189060000Y-117329150D01*
X188777828Y-116906851D01*
X188324609Y-116604019D01*
X187790000Y-116497679D01*
X187255391Y-116604019D01*
X186802172Y-116906851D01*
X186499340Y-117360070D01*
X186393000Y-117894679D01*
X186393000Y-118985321D01*
X186499340Y-119519930D01*
X186802172Y-119973149D01*
X187255391Y-120275981D01*
X187401280Y-120305000D01*
X183098720Y-120305000D01*
X183244609Y-120275981D01*
X183697828Y-119973149D01*
X184000660Y-119519930D01*
X184107000Y-118985321D01*
X184107000Y-117894679D01*
X184000660Y-117360070D01*
X183697828Y-116906851D01*
X183244609Y-116604019D01*
X182710000Y-116497679D01*
X182175391Y-116604019D01*
X181722172Y-116906851D01*
X181440000Y-117329150D01*
X181333378Y-117169579D01*
X181355079Y-117155079D01*
X184169945Y-114340213D01*
X207309392Y-114340213D01*
X207378857Y-114582397D01*
X207902302Y-114769144D01*
X208457368Y-114741362D01*
X208841143Y-114582397D01*
X208910608Y-114340213D01*
X209849392Y-114340213D01*
X209918857Y-114582397D01*
X210442302Y-114769144D01*
X210997368Y-114741362D01*
X211381143Y-114582397D01*
X211450608Y-114340213D01*
X210650000Y-113539605D01*
X209849392Y-114340213D01*
X208910608Y-114340213D01*
X208110000Y-113539605D01*
X207309392Y-114340213D01*
X184169945Y-114340213D01*
X187335078Y-111175080D01*
X187505244Y-110920407D01*
X187564999Y-110620001D01*
X187564999Y-109391598D01*
X188030000Y-109484093D01*
X188598285Y-109371054D01*
X189080054Y-109049147D01*
X189300000Y-108719974D01*
X189519946Y-109049147D01*
X190001715Y-109371054D01*
X190570000Y-109484093D01*
X191138285Y-109371054D01*
X191620054Y-109049147D01*
X191840000Y-108719974D01*
X192059946Y-109049147D01*
X192541715Y-109371054D01*
X193110000Y-109484093D01*
X193678285Y-109371054D01*
X194160054Y-109049147D01*
X194380000Y-108719974D01*
X194599946Y-109049147D01*
X194840000Y-109209546D01*
X194840000Y-111100000D01*
X194897852Y-111390839D01*
X195062599Y-111637401D01*
X196162599Y-112737401D01*
X196409161Y-112902148D01*
X196700000Y-112960000D01*
X206769463Y-112960000D01*
X206700856Y-113152302D01*
X206728638Y-113707368D01*
X206887603Y-114091143D01*
X207129787Y-114160608D01*
X207930395Y-113360000D01*
X207916253Y-113345858D01*
X208095858Y-113166253D01*
X208110000Y-113180395D01*
X208124143Y-113166253D01*
X208303748Y-113345858D01*
X208289605Y-113360000D01*
X209090213Y-114160608D01*
X209332397Y-114091143D01*
X209376453Y-113967656D01*
X209427603Y-114091143D01*
X209669787Y-114160608D01*
X210470395Y-113360000D01*
X210829605Y-113360000D01*
X211630213Y-114160608D01*
X211872397Y-114091143D01*
X212059144Y-113567698D01*
X212031362Y-113012632D01*
X211872397Y-112628857D01*
X211630213Y-112559392D01*
X210829605Y-113360000D01*
X210470395Y-113360000D01*
X210456253Y-113345858D01*
X210635858Y-113166253D01*
X210650000Y-113180395D01*
X211450608Y-112379787D01*
X211381143Y-112137603D01*
X211240682Y-112087491D01*
X211440303Y-112005010D01*
X211833629Y-111612370D01*
X212046757Y-111099100D01*
X212047242Y-110543339D01*
X211835010Y-110029697D01*
X211442370Y-109636371D01*
X211234488Y-109550051D01*
X211440303Y-109465010D01*
X211833629Y-109072370D01*
X212046757Y-108559100D01*
X212047242Y-108003339D01*
X211835010Y-107489697D01*
X211442370Y-107096371D01*
X211234488Y-107010051D01*
X211440303Y-106925010D01*
X211833629Y-106532370D01*
X212046757Y-106019100D01*
X212047242Y-105463339D01*
X211835010Y-104949697D01*
X211442370Y-104556371D01*
X211234488Y-104470051D01*
X211440303Y-104385010D01*
X211833629Y-103992370D01*
X212046757Y-103479100D01*
X212047242Y-102923339D01*
X211835010Y-102409697D01*
X211442370Y-102016371D01*
X211234488Y-101930051D01*
X211440303Y-101845010D01*
X211833629Y-101452370D01*
X212046757Y-100939100D01*
X212047242Y-100383339D01*
X211835010Y-99869697D01*
X211442370Y-99476371D01*
X211234488Y-99390051D01*
X211440303Y-99305010D01*
X211833629Y-98912370D01*
X212046757Y-98399100D01*
X212047242Y-97843339D01*
X211835010Y-97329697D01*
X211442370Y-96936371D01*
X211234488Y-96850051D01*
X211440303Y-96765010D01*
X211833629Y-96372370D01*
X212046757Y-95859100D01*
X212047242Y-95303339D01*
X211835010Y-94789697D01*
X211442370Y-94396371D01*
X211234488Y-94310051D01*
X211440303Y-94225010D01*
X211833629Y-93832370D01*
X212046757Y-93319100D01*
X212047242Y-92763339D01*
X211835010Y-92249697D01*
X211442370Y-91856371D01*
X211234488Y-91770051D01*
X211440303Y-91685010D01*
X211833629Y-91292370D01*
X212046757Y-90779100D01*
X212047242Y-90223339D01*
X211835010Y-89709697D01*
X211442370Y-89316371D01*
X211234488Y-89230051D01*
X211440303Y-89145010D01*
X211833629Y-88752370D01*
X212046757Y-88239100D01*
X212047242Y-87683339D01*
X211835010Y-87169697D01*
X211442370Y-86776371D01*
X211234488Y-86690051D01*
X211440303Y-86605010D01*
X211833629Y-86212370D01*
X212046757Y-85699100D01*
X212047242Y-85143339D01*
X211835010Y-84629697D01*
X211442370Y-84236371D01*
X211234488Y-84150051D01*
X211440303Y-84065010D01*
X211833629Y-83672370D01*
X212046757Y-83159100D01*
X212047242Y-82603339D01*
X211835010Y-82089697D01*
X211442370Y-81696371D01*
X211234488Y-81610051D01*
X211440303Y-81525010D01*
X211833629Y-81132370D01*
X212046757Y-80619100D01*
X212047242Y-80063339D01*
X211835010Y-79549697D01*
X211442370Y-79156371D01*
X211234488Y-79070051D01*
X211440303Y-78985010D01*
X211833629Y-78592370D01*
X212046757Y-78079100D01*
X212047242Y-77523339D01*
X211835010Y-77009697D01*
X211442370Y-76616371D01*
X211234488Y-76530051D01*
X211440303Y-76445010D01*
X211833629Y-76052370D01*
X212046757Y-75539100D01*
X212047242Y-74983339D01*
X211835010Y-74469697D01*
X211442370Y-74076371D01*
X211234488Y-73990051D01*
X211440303Y-73905010D01*
X211833629Y-73512370D01*
X212046757Y-72999100D01*
X212047242Y-72443339D01*
X211835010Y-71929697D01*
X211442370Y-71536371D01*
X211234488Y-71450051D01*
X211440303Y-71365010D01*
X211833629Y-70972370D01*
X212046757Y-70459100D01*
X212047153Y-70005889D01*
X212515000Y-70473736D01*
G36*
X127486955Y-68919411D02*
X127147887Y-69735978D01*
X127147115Y-70620143D01*
X127484758Y-71437300D01*
X128109411Y-72063045D01*
X128925978Y-72402113D01*
X129810143Y-72402885D01*
X130627300Y-72065242D01*
X131253045Y-71440589D01*
X131535818Y-70759596D01*
X131635340Y-71259930D01*
X131938172Y-71713149D01*
X132391391Y-72015981D01*
X132926000Y-72122321D01*
X133460609Y-72015981D01*
X133913828Y-71713149D01*
X134196000Y-71290850D01*
X134478172Y-71713149D01*
X134931391Y-72015981D01*
X135466000Y-72122321D01*
X136000609Y-72015981D01*
X136453828Y-71713149D01*
X136736000Y-71290850D01*
X137018172Y-71713149D01*
X137471391Y-72015981D01*
X138006000Y-72122321D01*
X138540609Y-72015981D01*
X138993828Y-71713149D01*
X139285330Y-71276887D01*
X139303941Y-71339941D01*
X139647974Y-71765630D01*
X140128723Y-72027260D01*
X140202930Y-72042220D01*
X140419000Y-71919720D01*
X140419000Y-70307000D01*
X140399000Y-70307000D01*
X140399000Y-70053000D01*
X140419000Y-70053000D01*
X140419000Y-70033000D01*
X140673000Y-70033000D01*
X140673000Y-70053000D01*
X140693000Y-70053000D01*
X140693000Y-70307000D01*
X140673000Y-70307000D01*
X140673000Y-71919720D01*
X140889070Y-72042220D01*
X140963277Y-72027260D01*
X141444026Y-71765630D01*
X141788059Y-71339941D01*
X141806670Y-71276887D01*
X142098172Y-71713149D01*
X142551391Y-72015981D01*
X143086000Y-72122321D01*
X143620609Y-72015981D01*
X144073828Y-71713149D01*
X144356000Y-71290850D01*
X144638172Y-71713149D01*
X145091391Y-72015981D01*
X145626000Y-72122321D01*
X146160609Y-72015981D01*
X146613828Y-71713149D01*
X146896000Y-71290850D01*
X147178172Y-71713149D01*
X147631391Y-72015981D01*
X148166000Y-72122321D01*
X148700609Y-72015981D01*
X149153828Y-71713149D01*
X149436000Y-71290850D01*
X149718172Y-71713149D01*
X150171391Y-72015981D01*
X150706000Y-72122321D01*
X151240609Y-72015981D01*
X151693828Y-71713149D01*
X151976000Y-71290850D01*
X152258172Y-71713149D01*
X152711391Y-72015981D01*
X153246000Y-72122321D01*
X153780609Y-72015981D01*
X154233828Y-71713149D01*
X154516000Y-71290850D01*
X154798172Y-71713149D01*
X155251391Y-72015981D01*
X155786000Y-72122321D01*
X156320609Y-72015981D01*
X156773828Y-71713149D01*
X157076660Y-71259930D01*
X157183000Y-70725321D01*
X157183000Y-69634679D01*
X157076660Y-69100070D01*
X156773828Y-68646851D01*
X156320609Y-68344019D01*
X156275267Y-68335000D01*
X159360733Y-68335000D01*
X159315391Y-68344019D01*
X158862172Y-68646851D01*
X158559340Y-69100070D01*
X158453000Y-69634679D01*
X158453000Y-70725321D01*
X158559340Y-71259930D01*
X158862172Y-71713149D01*
X159315391Y-72015981D01*
X159850000Y-72122321D01*
X160384609Y-72015981D01*
X160837828Y-71713149D01*
X161120000Y-71290850D01*
X161402172Y-71713149D01*
X161855391Y-72015981D01*
X162390000Y-72122321D01*
X162924609Y-72015981D01*
X163377828Y-71713149D01*
X163660000Y-71290850D01*
X163942172Y-71713149D01*
X164395391Y-72015981D01*
X164930000Y-72122321D01*
X165464609Y-72015981D01*
X165917828Y-71713149D01*
X166200000Y-71290850D01*
X166482172Y-71713149D01*
X166935391Y-72015981D01*
X167470000Y-72122321D01*
X168004609Y-72015981D01*
X168457828Y-71713149D01*
X168740000Y-71290850D01*
X169022172Y-71713149D01*
X169475391Y-72015981D01*
X170010000Y-72122321D01*
X170544609Y-72015981D01*
X170997828Y-71713149D01*
X171280000Y-71290850D01*
X171562172Y-71713149D01*
X171790000Y-71865379D01*
X171790000Y-73550000D01*
X171808228Y-73641637D01*
X171800000Y-73640000D01*
X165562289Y-73640000D01*
X165430327Y-73507808D01*
X165086799Y-73365162D01*
X164714833Y-73364838D01*
X164371057Y-73506883D01*
X164313820Y-73564020D01*
X164012399Y-73262599D01*
X163765837Y-73097852D01*
X163474998Y-73040000D01*
X151700000Y-73040000D01*
X151409160Y-73097852D01*
X151162599Y-73262599D01*
X150360320Y-74064878D01*
X150314833Y-74064838D01*
X149971057Y-74206883D01*
X149707808Y-74469673D01*
X149565162Y-74813201D01*
X149564838Y-75185167D01*
X149706883Y-75528943D01*
X149969673Y-75792192D01*
X150313201Y-75934838D01*
X150685167Y-75935162D01*
X151028943Y-75793117D01*
X151292192Y-75530327D01*
X151434838Y-75186799D01*
X151434879Y-75139923D01*
X152014802Y-74560000D01*
X157865121Y-74560000D01*
X157864838Y-74885167D01*
X158006883Y-75228943D01*
X158269673Y-75492192D01*
X158613201Y-75634838D01*
X158985167Y-75635162D01*
X159328943Y-75493117D01*
X159362118Y-75460000D01*
X161485198Y-75460000D01*
X164262599Y-78237401D01*
X164509161Y-78402148D01*
X164800000Y-78460000D01*
X176765034Y-78460000D01*
X176764838Y-78685167D01*
X176906883Y-79028943D01*
X177169673Y-79292192D01*
X177513201Y-79434838D01*
X177560077Y-79434879D01*
X178540000Y-80414802D01*
X178540000Y-81500000D01*
X178597852Y-81790839D01*
X178762599Y-82037401D01*
X179662599Y-82937401D01*
X179909160Y-83102148D01*
X180200000Y-83160000D01*
X181570301Y-83160000D01*
X181465162Y-83413201D01*
X181464838Y-83785167D01*
X181493419Y-83854339D01*
X181176589Y-83536955D01*
X180360022Y-83197887D01*
X179475857Y-83197115D01*
X178658700Y-83534758D01*
X178032955Y-84159411D01*
X177693887Y-84975978D01*
X177693115Y-85860143D01*
X178030758Y-86677300D01*
X178592476Y-87240000D01*
X178000000Y-87240000D01*
X177709160Y-87297852D01*
X177462599Y-87462599D01*
X174097440Y-90827758D01*
X174097440Y-89950000D01*
X174053162Y-89714683D01*
X173914090Y-89498559D01*
X173701890Y-89353569D01*
X173688803Y-89350919D01*
X173901441Y-89214090D01*
X174046431Y-89001890D01*
X174097440Y-88750000D01*
X174097440Y-87250000D01*
X174053162Y-87014683D01*
X173914090Y-86798559D01*
X173701890Y-86653569D01*
X173450000Y-86602560D01*
X172179105Y-86602560D01*
X172153162Y-86464683D01*
X172014090Y-86248559D01*
X171801890Y-86103569D01*
X171550000Y-86052560D01*
X171077362Y-86052560D01*
X169387401Y-84362599D01*
X169140839Y-84197852D01*
X168850000Y-84140000D01*
X165568192Y-84140000D01*
X165631098Y-84077204D01*
X165834768Y-83586713D01*
X165835231Y-83055617D01*
X165632418Y-82564771D01*
X165257204Y-82188902D01*
X164766713Y-81985232D01*
X164235617Y-81984769D01*
X163744771Y-82187582D01*
X163499902Y-82432024D01*
X163257204Y-82188902D01*
X162766713Y-81985232D01*
X162235617Y-81984769D01*
X161744771Y-82187582D01*
X161499902Y-82432024D01*
X161257204Y-82188902D01*
X160766713Y-81985232D01*
X160235617Y-81984769D01*
X159744771Y-82187582D01*
X159499902Y-82432024D01*
X159257204Y-82188902D01*
X158766713Y-81985232D01*
X158235617Y-81984769D01*
X157744771Y-82187582D01*
X157499902Y-82432024D01*
X157257204Y-82188902D01*
X156766713Y-81985232D01*
X156235617Y-81984769D01*
X155744771Y-82187582D01*
X155499902Y-82432024D01*
X155257204Y-82188902D01*
X154766713Y-81985232D01*
X154235617Y-81984769D01*
X153744771Y-82187582D01*
X153499902Y-82432024D01*
X153257204Y-82188902D01*
X152766713Y-81985232D01*
X152235617Y-81984769D01*
X151744771Y-82187582D01*
X151499902Y-82432024D01*
X151257204Y-82188902D01*
X150766713Y-81985232D01*
X150235617Y-81984769D01*
X149744771Y-82187582D01*
X149499902Y-82432024D01*
X149257204Y-82188902D01*
X148766713Y-81985232D01*
X148235617Y-81984769D01*
X147744771Y-82187582D01*
X147499902Y-82432024D01*
X147257204Y-82188902D01*
X146766713Y-81985232D01*
X146235617Y-81984769D01*
X145744771Y-82187582D01*
X145368902Y-82562796D01*
X145165232Y-83053287D01*
X145164769Y-83584383D01*
X145202971Y-83676838D01*
X140474280Y-83769558D01*
X140200000Y-83715000D01*
X136260000Y-83715000D01*
X135992440Y-83768221D01*
X135992440Y-83385000D01*
X136032494Y-83385000D01*
X136039673Y-83392192D01*
X136383201Y-83534838D01*
X136755167Y-83535162D01*
X137098943Y-83393117D01*
X137362192Y-83130327D01*
X137504838Y-82786799D01*
X137505162Y-82414833D01*
X137363117Y-82071057D01*
X137100327Y-81807808D01*
X136756799Y-81665162D01*
X136384833Y-81664838D01*
X136041057Y-81806883D01*
X136032926Y-81815000D01*
X135759975Y-81815000D01*
X135740994Y-81802031D01*
X135883327Y-81659698D01*
X135980000Y-81426309D01*
X135980000Y-80835750D01*
X135821250Y-80677000D01*
X134847000Y-80677000D01*
X134847000Y-80697000D01*
X134593000Y-80697000D01*
X134593000Y-80677000D01*
X134573000Y-80677000D01*
X134573000Y-80423000D01*
X134593000Y-80423000D01*
X134593000Y-79666250D01*
X134613000Y-79646250D01*
X134613000Y-79323750D01*
X134847000Y-79323750D01*
X134847000Y-80423000D01*
X135821250Y-80423000D01*
X135980000Y-80264250D01*
X135980000Y-79673691D01*
X135911842Y-79509142D01*
X136000000Y-79296309D01*
X136000000Y-78705750D01*
X135841250Y-78547000D01*
X134867000Y-78547000D01*
X134867000Y-79303750D01*
X134847000Y-79323750D01*
X134613000Y-79323750D01*
X134613000Y-78547000D01*
X134593000Y-78547000D01*
X134593000Y-78293000D01*
X134613000Y-78293000D01*
X134613000Y-78273000D01*
X134867000Y-78273000D01*
X134867000Y-78293000D01*
X135841250Y-78293000D01*
X136000000Y-78134250D01*
X136000000Y-77543691D01*
X135903327Y-77310302D01*
X135762090Y-77169064D01*
X135816441Y-77134090D01*
X135961431Y-76921890D01*
X136012440Y-76670000D01*
X136012440Y-75170000D01*
X135968162Y-74934683D01*
X135925000Y-74867607D01*
X135925000Y-74320907D01*
X138335000Y-74320907D01*
X138335000Y-74379093D01*
X138448039Y-74947378D01*
X138769946Y-75429147D01*
X139055578Y-75620000D01*
X138769946Y-75810853D01*
X138448039Y-76292622D01*
X138335000Y-76860907D01*
X138335000Y-76919093D01*
X138448039Y-77487378D01*
X138769946Y-77969147D01*
X139251715Y-78291054D01*
X139820000Y-78404093D01*
X140388285Y-78291054D01*
X140870054Y-77969147D01*
X141090000Y-77639974D01*
X141309946Y-77969147D01*
X141791715Y-78291054D01*
X142360000Y-78404093D01*
X142928285Y-78291054D01*
X143410054Y-77969147D01*
X143731961Y-77487378D01*
X143845000Y-76919093D01*
X143845000Y-76860907D01*
X143731961Y-76292622D01*
X143410054Y-75810853D01*
X143408821Y-75810029D01*
X143445317Y-75803162D01*
X143661441Y-75664090D01*
X143806431Y-75451890D01*
X143857440Y-75200000D01*
X143857440Y-73500000D01*
X143813162Y-73264683D01*
X143674090Y-73048559D01*
X143461890Y-72903569D01*
X143210000Y-72852560D01*
X141510000Y-72852560D01*
X141274683Y-72896838D01*
X141058559Y-73035910D01*
X140913569Y-73248110D01*
X140899914Y-73315541D01*
X140870054Y-73270853D01*
X140388285Y-72948946D01*
X139820000Y-72835907D01*
X139251715Y-72948946D01*
X138769946Y-73270853D01*
X138448039Y-73752622D01*
X138335000Y-74320907D01*
X135925000Y-74320907D01*
X135925000Y-74140000D01*
X135918866Y-74109161D01*
X135865245Y-73839593D01*
X135695079Y-73584921D01*
X135475079Y-73364921D01*
X135247248Y-73212690D01*
X135223162Y-73084683D01*
X135084090Y-72868559D01*
X134871890Y-72723569D01*
X134620000Y-72672560D01*
X133420000Y-72672560D01*
X133184683Y-72716838D01*
X132968559Y-72855910D01*
X132920866Y-72925711D01*
X132884090Y-72868559D01*
X132671890Y-72723569D01*
X132420000Y-72672560D01*
X131220000Y-72672560D01*
X130984683Y-72716838D01*
X130938608Y-72746486D01*
X130831890Y-72673569D01*
X130580000Y-72622560D01*
X129080000Y-72622560D01*
X128844683Y-72666838D01*
X128628559Y-72805910D01*
X128483569Y-73018110D01*
X128476809Y-73051490D01*
X128418327Y-72910301D01*
X128239698Y-72731673D01*
X128006309Y-72635000D01*
X127415750Y-72635000D01*
X127257000Y-72793750D01*
X127257000Y-73793000D01*
X127277000Y-73793000D01*
X127277000Y-74047000D01*
X127257000Y-74047000D01*
X127257000Y-75046250D01*
X127273729Y-75062979D01*
X127133569Y-75268110D01*
X127082560Y-75520000D01*
X127082560Y-77520000D01*
X127126838Y-77755317D01*
X127265910Y-77971441D01*
X127478110Y-78116431D01*
X127730000Y-78167440D01*
X128845000Y-78167440D01*
X128845000Y-81179146D01*
X128644683Y-81216838D01*
X128480508Y-81322482D01*
X128439699Y-81281673D01*
X128206310Y-81185000D01*
X127615750Y-81185000D01*
X127457000Y-81343750D01*
X127457000Y-82693000D01*
X127477000Y-82693000D01*
X127477000Y-82947000D01*
X127457000Y-82947000D01*
X127457000Y-82967000D01*
X127203000Y-82967000D01*
X127203000Y-82947000D01*
X126103750Y-82947000D01*
X125945000Y-83105750D01*
X125945000Y-83251270D01*
X124885619Y-82860000D01*
X125416309Y-82860000D01*
X125649698Y-82763327D01*
X125828327Y-82584699D01*
X125925000Y-82351310D01*
X125925000Y-81885750D01*
X125766250Y-81727000D01*
X124667000Y-81727000D01*
X124667000Y-81747000D01*
X124413000Y-81747000D01*
X124413000Y-81727000D01*
X124393000Y-81727000D01*
X124393000Y-81693691D01*
X125945000Y-81693691D01*
X125945000Y-82534250D01*
X126103750Y-82693000D01*
X127203000Y-82693000D01*
X127203000Y-81343750D01*
X127044250Y-81185000D01*
X126453690Y-81185000D01*
X126220301Y-81281673D01*
X126041673Y-81460302D01*
X125945000Y-81693691D01*
X124393000Y-81693691D01*
X124393000Y-81473000D01*
X124413000Y-81473000D01*
X124413000Y-81453000D01*
X124667000Y-81453000D01*
X124667000Y-81473000D01*
X125766250Y-81473000D01*
X125925000Y-81314250D01*
X125925000Y-80848690D01*
X125828327Y-80615301D01*
X125649698Y-80436673D01*
X125625080Y-80426476D01*
X125555961Y-74205750D01*
X125745000Y-74205750D01*
X125745000Y-74696310D01*
X125841673Y-74929699D01*
X126020302Y-75108327D01*
X126253691Y-75205000D01*
X126844250Y-75205000D01*
X127003000Y-75046250D01*
X127003000Y-74047000D01*
X125903750Y-74047000D01*
X125745000Y-74205750D01*
X125555961Y-74205750D01*
X125544160Y-73143690D01*
X125745000Y-73143690D01*
X125745000Y-73634250D01*
X125903750Y-73793000D01*
X127003000Y-73793000D01*
X127003000Y-72793750D01*
X126844250Y-72635000D01*
X126253691Y-72635000D01*
X126020302Y-72731673D01*
X125841673Y-72910301D01*
X125745000Y-73143690D01*
X125544160Y-73143690D01*
X125529507Y-71824965D01*
X125613592Y-71656796D01*
X125627000Y-71600000D01*
X125627000Y-71001025D01*
X125798327Y-70829699D01*
X125895000Y-70596310D01*
X125895000Y-70105750D01*
X125736250Y-69947000D01*
X124637000Y-69947000D01*
X124637000Y-69967000D01*
X124383000Y-69967000D01*
X124383000Y-69947000D01*
X124363000Y-69947000D01*
X124363000Y-69693000D01*
X124383000Y-69693000D01*
X124383000Y-68693750D01*
X124637000Y-68693750D01*
X124637000Y-69693000D01*
X125736250Y-69693000D01*
X125895000Y-69534250D01*
X125895000Y-69043690D01*
X125798327Y-68810301D01*
X125619698Y-68631673D01*
X125386309Y-68535000D01*
X124795750Y-68535000D01*
X124637000Y-68693750D01*
X124383000Y-68693750D01*
X124224250Y-68535000D01*
X123633691Y-68535000D01*
X123400302Y-68631673D01*
X123221673Y-68810301D01*
X123165346Y-68946287D01*
X123163162Y-68934683D01*
X123024090Y-68718559D01*
X122811890Y-68573569D01*
X122560000Y-68522560D01*
X121060000Y-68522560D01*
X120824683Y-68566838D01*
X120720698Y-68633751D01*
X120661890Y-68593569D01*
X120410000Y-68542560D01*
X119210000Y-68542560D01*
X118974683Y-68586838D01*
X118758559Y-68725910D01*
X118710866Y-68795711D01*
X118674090Y-68738559D01*
X118461890Y-68593569D01*
X118210000Y-68542560D01*
X117010000Y-68542560D01*
X116774683Y-68586838D01*
X116558559Y-68725910D01*
X116413569Y-68938110D01*
X116362560Y-69190000D01*
X116362560Y-70390000D01*
X116373606Y-70448705D01*
X116473010Y-78301607D01*
X116481685Y-78346159D01*
X116508965Y-78388553D01*
X116550590Y-78416994D01*
X116600000Y-78427000D01*
X117845000Y-78427000D01*
X117845000Y-78994250D01*
X118003750Y-79153000D01*
X119103000Y-79153000D01*
X119103000Y-79133000D01*
X119357000Y-79133000D01*
X119357000Y-79153000D01*
X119377000Y-79153000D01*
X119377000Y-79407000D01*
X119357000Y-79407000D01*
X119357000Y-79427000D01*
X119103000Y-79427000D01*
X119103000Y-79407000D01*
X118003750Y-79407000D01*
X117845000Y-79565750D01*
X117845000Y-80330000D01*
X117725750Y-80330000D01*
X117567000Y-80488750D01*
X117567000Y-81463000D01*
X117587000Y-81463000D01*
X117587000Y-81717000D01*
X117567000Y-81717000D01*
X117567000Y-82691250D01*
X117725750Y-82850000D01*
X118316309Y-82850000D01*
X118549698Y-82753327D01*
X118690936Y-82612090D01*
X118725910Y-82666441D01*
X118938110Y-82811431D01*
X119155000Y-82855352D01*
X119155000Y-102840000D01*
X119214755Y-103140407D01*
X119384921Y-103395079D01*
X124544921Y-108555079D01*
X124799593Y-108725245D01*
X125100000Y-108785000D01*
X126302560Y-108785000D01*
X126302560Y-108850000D01*
X126346838Y-109085317D01*
X126485910Y-109301441D01*
X126698110Y-109446431D01*
X126950000Y-109497440D01*
X128650000Y-109497440D01*
X128885317Y-109453162D01*
X129101441Y-109314090D01*
X129246431Y-109101890D01*
X129260086Y-109034459D01*
X129289946Y-109079147D01*
X129555000Y-109256250D01*
X129555000Y-110334842D01*
X125719843Y-114169999D01*
X122768438Y-114169999D01*
X122904759Y-113841702D01*
X122905240Y-113290715D01*
X122694831Y-112781485D01*
X122305564Y-112391539D01*
X122089021Y-112301623D01*
X122243923Y-112237460D01*
X122311912Y-111996517D01*
X121527000Y-111211605D01*
X121527000Y-111025000D01*
X121699605Y-111025000D01*
X122491517Y-111816912D01*
X122732460Y-111748923D01*
X122917201Y-111229829D01*
X122889230Y-110679552D01*
X122732460Y-110301077D01*
X122491517Y-110233088D01*
X121699605Y-111025000D01*
X121527000Y-111025000D01*
X121527000Y-110838395D01*
X122311912Y-110053483D01*
X122243923Y-109812540D01*
X122077379Y-109753268D01*
X122303515Y-109659831D01*
X122693461Y-109270564D01*
X122904759Y-108761702D01*
X122905240Y-108210715D01*
X122694831Y-107701485D01*
X122305564Y-107311539D01*
X121796702Y-107100241D01*
X121245715Y-107099760D01*
X120736485Y-107310169D01*
X120346539Y-107699436D01*
X120135241Y-108208298D01*
X120134878Y-108624113D01*
X119938653Y-108754930D01*
X119765564Y-108581539D01*
X119533130Y-108485024D01*
X119763515Y-108389831D01*
X120153461Y-108000564D01*
X120364759Y-107491702D01*
X120365240Y-106940715D01*
X120154831Y-106431485D01*
X119765564Y-106041539D01*
X119256702Y-105830241D01*
X118705715Y-105829760D01*
X118196485Y-106040169D01*
X117806539Y-106429436D01*
X117595241Y-106938298D01*
X117594760Y-107489285D01*
X117805169Y-107998515D01*
X118194436Y-108388461D01*
X118426870Y-108484976D01*
X118196485Y-108580169D01*
X117806539Y-108969436D01*
X117595241Y-109478298D01*
X117594760Y-110029285D01*
X117805169Y-110538515D01*
X118194436Y-110928461D01*
X118410979Y-111018377D01*
X118256077Y-111082540D01*
X118188088Y-111323483D01*
X118980000Y-112115395D01*
X118994143Y-112101253D01*
X119173748Y-112280858D01*
X119159605Y-112295000D01*
X119173748Y-112309143D01*
X118994143Y-112488748D01*
X118980000Y-112474605D01*
X118188088Y-113266517D01*
X118256077Y-113507460D01*
X118422621Y-113566732D01*
X118196485Y-113660169D01*
X117806539Y-114049436D01*
X117595241Y-114558298D01*
X117594760Y-115109285D01*
X117805169Y-115618515D01*
X118194436Y-116008461D01*
X118703298Y-116219759D01*
X119254285Y-116220240D01*
X119763515Y-116009831D01*
X120153461Y-115620564D01*
X120364759Y-115111702D01*
X120365240Y-114560715D01*
X120154831Y-114051485D01*
X119765564Y-113661539D01*
X119665196Y-113619863D01*
X119698857Y-113626995D01*
X119748355Y-113617434D01*
X120135093Y-113458189D01*
X120134760Y-113839285D01*
X120345169Y-114348515D01*
X120734436Y-114738461D01*
X120966870Y-114834976D01*
X120736485Y-114930169D01*
X120346539Y-115319436D01*
X120135241Y-115828298D01*
X120134760Y-116379285D01*
X120345169Y-116888515D01*
X120734436Y-117278461D01*
X121243298Y-117489759D01*
X121794285Y-117490240D01*
X122303515Y-117279831D01*
X122693461Y-116890564D01*
X122904759Y-116381702D01*
X122905240Y-115830715D01*
X122905007Y-115830151D01*
X122995159Y-115739999D01*
X126045001Y-115739999D01*
X126345408Y-115680244D01*
X126600080Y-115510078D01*
X130895079Y-111215079D01*
X131065245Y-110960406D01*
X131125000Y-110660000D01*
X131125000Y-109256250D01*
X131390054Y-109079147D01*
X131610000Y-108749974D01*
X131829946Y-109079147D01*
X132311715Y-109401054D01*
X132815000Y-109501164D01*
X132815000Y-113900000D01*
X132874755Y-114200407D01*
X133044921Y-114455079D01*
X135744921Y-117155079D01*
X135999594Y-117325245D01*
X136300000Y-117385001D01*
X136300005Y-117385000D01*
X140774381Y-117385000D01*
X140673000Y-117894679D01*
X140673000Y-118985321D01*
X140779340Y-119519930D01*
X141082172Y-119973149D01*
X141535391Y-120275981D01*
X141681280Y-120305000D01*
X129377577Y-120305000D01*
X129983045Y-119700589D01*
X130322113Y-118884022D01*
X130322885Y-117999857D01*
X129985242Y-117182700D01*
X129360589Y-116556955D01*
X128544022Y-116217887D01*
X127659857Y-116217115D01*
X126842700Y-116554758D01*
X126216955Y-117179411D01*
X125877887Y-117995978D01*
X125877115Y-118880143D01*
X126214758Y-119697300D01*
X126821397Y-120305000D01*
X111010259Y-120305000D01*
X111225908Y-119724539D01*
X111212641Y-119366013D01*
X111277242Y-119430726D01*
X112153513Y-119794585D01*
X113102325Y-119795413D01*
X113979229Y-119433084D01*
X114650726Y-118762758D01*
X115014585Y-117886487D01*
X115015413Y-116937675D01*
X114653084Y-116060771D01*
X113982758Y-115389274D01*
X113106487Y-115025415D01*
X112157675Y-115024587D01*
X111280771Y-115386916D01*
X110609274Y-116057242D01*
X110245415Y-116933513D01*
X110244587Y-117882325D01*
X110283827Y-117977293D01*
X109844539Y-117814092D01*
X109194540Y-117838144D01*
X108705736Y-118040613D01*
X108607073Y-118307468D01*
X109580000Y-119280395D01*
X109594143Y-119266253D01*
X109773748Y-119445858D01*
X109759605Y-119460000D01*
X109773748Y-119474143D01*
X109594143Y-119653748D01*
X109580000Y-119639605D01*
X109565858Y-119653748D01*
X109386253Y-119474143D01*
X109400395Y-119460000D01*
X108427468Y-118487073D01*
X108160613Y-118585736D01*
X107934092Y-119195461D01*
X107958144Y-119845460D01*
X108148491Y-120305000D01*
X104815000Y-120305000D01*
X104815000Y-112090171D01*
X117582799Y-112090171D01*
X117610770Y-112640448D01*
X117767540Y-113018923D01*
X118008483Y-113086912D01*
X118800395Y-112295000D01*
X118008483Y-111503088D01*
X117767540Y-111571077D01*
X117582799Y-112090171D01*
X104815000Y-112090171D01*
X104815000Y-105012532D01*
X108607073Y-105012532D01*
X108705736Y-105279387D01*
X109315461Y-105505908D01*
X109965460Y-105481856D01*
X110279325Y-105351849D01*
X110245415Y-105433513D01*
X110244587Y-106382325D01*
X110606916Y-107259229D01*
X111277242Y-107930726D01*
X112153513Y-108294585D01*
X113102325Y-108295413D01*
X113979229Y-107933084D01*
X114650726Y-107262758D01*
X115014585Y-106386487D01*
X115015413Y-105437675D01*
X114653084Y-104560771D01*
X113982758Y-103889274D01*
X113106487Y-103525415D01*
X112157675Y-103524587D01*
X111280771Y-103886916D01*
X111219383Y-103948197D01*
X111201856Y-103474540D01*
X110999387Y-102985736D01*
X110732532Y-102887073D01*
X109759605Y-103860000D01*
X109773748Y-103874143D01*
X109594143Y-104053748D01*
X109580000Y-104039605D01*
X108607073Y-105012532D01*
X104815000Y-105012532D01*
X104815000Y-103595461D01*
X107934092Y-103595461D01*
X107958144Y-104245460D01*
X108160613Y-104734264D01*
X108427468Y-104832927D01*
X109400395Y-103860000D01*
X108427468Y-102887073D01*
X108160613Y-102985736D01*
X107934092Y-103595461D01*
X104815000Y-103595461D01*
X104815000Y-102707468D01*
X108607073Y-102707468D01*
X109580000Y-103680395D01*
X110552927Y-102707468D01*
X110454264Y-102440613D01*
X109844539Y-102214092D01*
X109194540Y-102238144D01*
X108705736Y-102440613D01*
X108607073Y-102707468D01*
X104815000Y-102707468D01*
X104815000Y-95023207D01*
X108434665Y-95023207D01*
X108728630Y-95734658D01*
X109272479Y-96279457D01*
X109983416Y-96574663D01*
X110753207Y-96575335D01*
X111464658Y-96281370D01*
X112009457Y-95737521D01*
X112304663Y-95026584D01*
X112305335Y-94256793D01*
X112011370Y-93545342D01*
X111467521Y-93000543D01*
X110756584Y-92705337D01*
X109986793Y-92704665D01*
X109275342Y-92998630D01*
X108730543Y-93542479D01*
X108435337Y-94253416D01*
X108434665Y-95023207D01*
X104815000Y-95023207D01*
X104815000Y-90929459D01*
X109180146Y-90929459D01*
X109315504Y-91227455D01*
X110033880Y-91504066D01*
X110803427Y-91484710D01*
X111424496Y-91227455D01*
X111559854Y-90929459D01*
X110370000Y-89739605D01*
X109180146Y-90929459D01*
X104815000Y-90929459D01*
X104815000Y-89223880D01*
X108425934Y-89223880D01*
X108445290Y-89993427D01*
X108702545Y-90614496D01*
X109000541Y-90749854D01*
X110190395Y-89560000D01*
X110549605Y-89560000D01*
X111739459Y-90749854D01*
X112037455Y-90614496D01*
X112314066Y-89896120D01*
X112294710Y-89126573D01*
X112037455Y-88505504D01*
X111739459Y-88370146D01*
X110549605Y-89560000D01*
X110190395Y-89560000D01*
X109000541Y-88370146D01*
X108702545Y-88505504D01*
X108425934Y-89223880D01*
X104815000Y-89223880D01*
X104815000Y-88190541D01*
X109180146Y-88190541D01*
X110370000Y-89380395D01*
X111559854Y-88190541D01*
X111424496Y-87892545D01*
X110706120Y-87615934D01*
X109936573Y-87635290D01*
X109315504Y-87892545D01*
X109180146Y-88190541D01*
X104815000Y-88190541D01*
X104815000Y-84863207D01*
X108434665Y-84863207D01*
X108728630Y-85574658D01*
X109272479Y-86119457D01*
X109983416Y-86414663D01*
X110753207Y-86415335D01*
X111464658Y-86121370D01*
X112009457Y-85577521D01*
X112304663Y-84866584D01*
X112305335Y-84096793D01*
X112011370Y-83385342D01*
X111467521Y-82840543D01*
X110756584Y-82545337D01*
X109986793Y-82544665D01*
X109275342Y-82838630D01*
X108730543Y-83382479D01*
X108435337Y-84093416D01*
X108434665Y-84863207D01*
X104815000Y-84863207D01*
X104815000Y-81875750D01*
X116055000Y-81875750D01*
X116055000Y-82341310D01*
X116151673Y-82574699D01*
X116330302Y-82753327D01*
X116563691Y-82850000D01*
X117154250Y-82850000D01*
X117313000Y-82691250D01*
X117313000Y-81717000D01*
X116213750Y-81717000D01*
X116055000Y-81875750D01*
X104815000Y-81875750D01*
X104815000Y-80838690D01*
X116055000Y-80838690D01*
X116055000Y-81304250D01*
X116213750Y-81463000D01*
X117313000Y-81463000D01*
X117313000Y-80488750D01*
X117154250Y-80330000D01*
X116563691Y-80330000D01*
X116330302Y-80426673D01*
X116151673Y-80605301D01*
X116055000Y-80838690D01*
X104815000Y-80838690D01*
X104815000Y-77373207D01*
X108344665Y-77373207D01*
X108638630Y-78084658D01*
X109182479Y-78629457D01*
X109893416Y-78924663D01*
X110663207Y-78925335D01*
X111374658Y-78631370D01*
X111919457Y-78087521D01*
X112214663Y-77376584D01*
X112215335Y-76606793D01*
X111921370Y-75895342D01*
X111377521Y-75350543D01*
X110666584Y-75055337D01*
X109896793Y-75054665D01*
X109185342Y-75348630D01*
X108640543Y-75892479D01*
X108345337Y-76603416D01*
X108344665Y-77373207D01*
X104815000Y-77373207D01*
X104815000Y-73279459D01*
X109090146Y-73279459D01*
X109225504Y-73577455D01*
X109943880Y-73854066D01*
X110713427Y-73834710D01*
X111334496Y-73577455D01*
X111469854Y-73279459D01*
X110280000Y-72089605D01*
X109090146Y-73279459D01*
X104815000Y-73279459D01*
X104815000Y-71573880D01*
X108335934Y-71573880D01*
X108355290Y-72343427D01*
X108612545Y-72964496D01*
X108910541Y-73099854D01*
X110100395Y-71910000D01*
X110459605Y-71910000D01*
X111649459Y-73099854D01*
X111947455Y-72964496D01*
X112224066Y-72246120D01*
X112204710Y-71476573D01*
X111947455Y-70855504D01*
X111649459Y-70720146D01*
X110459605Y-71910000D01*
X110100395Y-71910000D01*
X108910541Y-70720146D01*
X108612545Y-70855504D01*
X108335934Y-71573880D01*
X104815000Y-71573880D01*
X104815000Y-70540541D01*
X109090146Y-70540541D01*
X110280000Y-71730395D01*
X111469854Y-70540541D01*
X111334496Y-70242545D01*
X110616120Y-69965934D01*
X109846573Y-69985290D01*
X109225504Y-70242545D01*
X109090146Y-70540541D01*
X104815000Y-70540541D01*
X104815000Y-68335000D01*
X128072388Y-68335000D01*
X127486955Y-68919411D01*
X127486955Y-68919411D01*
G37*
X127486955Y-68919411D02*
X127147887Y-69735978D01*
X127147115Y-70620143D01*
X127484758Y-71437300D01*
X128109411Y-72063045D01*
X128925978Y-72402113D01*
X129810143Y-72402885D01*
X130627300Y-72065242D01*
X131253045Y-71440589D01*
X131535818Y-70759596D01*
X131635340Y-71259930D01*
X131938172Y-71713149D01*
X132391391Y-72015981D01*
X132926000Y-72122321D01*
X133460609Y-72015981D01*
X133913828Y-71713149D01*
X134196000Y-71290850D01*
X134478172Y-71713149D01*
X134931391Y-72015981D01*
X135466000Y-72122321D01*
X136000609Y-72015981D01*
X136453828Y-71713149D01*
X136736000Y-71290850D01*
X137018172Y-71713149D01*
X137471391Y-72015981D01*
X138006000Y-72122321D01*
X138540609Y-72015981D01*
X138993828Y-71713149D01*
X139285330Y-71276887D01*
X139303941Y-71339941D01*
X139647974Y-71765630D01*
X140128723Y-72027260D01*
X140202930Y-72042220D01*
X140419000Y-71919720D01*
X140419000Y-70307000D01*
X140399000Y-70307000D01*
X140399000Y-70053000D01*
X140419000Y-70053000D01*
X140419000Y-70033000D01*
X140673000Y-70033000D01*
X140673000Y-70053000D01*
X140693000Y-70053000D01*
X140693000Y-70307000D01*
X140673000Y-70307000D01*
X140673000Y-71919720D01*
X140889070Y-72042220D01*
X140963277Y-72027260D01*
X141444026Y-71765630D01*
X141788059Y-71339941D01*
X141806670Y-71276887D01*
X142098172Y-71713149D01*
X142551391Y-72015981D01*
X143086000Y-72122321D01*
X143620609Y-72015981D01*
X144073828Y-71713149D01*
X144356000Y-71290850D01*
X144638172Y-71713149D01*
X145091391Y-72015981D01*
X145626000Y-72122321D01*
X146160609Y-72015981D01*
X146613828Y-71713149D01*
X146896000Y-71290850D01*
X147178172Y-71713149D01*
X147631391Y-72015981D01*
X148166000Y-72122321D01*
X148700609Y-72015981D01*
X149153828Y-71713149D01*
X149436000Y-71290850D01*
X149718172Y-71713149D01*
X150171391Y-72015981D01*
X150706000Y-72122321D01*
X151240609Y-72015981D01*
X151693828Y-71713149D01*
X151976000Y-71290850D01*
X152258172Y-71713149D01*
X152711391Y-72015981D01*
X153246000Y-72122321D01*
X153780609Y-72015981D01*
X154233828Y-71713149D01*
X154516000Y-71290850D01*
X154798172Y-71713149D01*
X155251391Y-72015981D01*
X155786000Y-72122321D01*
X156320609Y-72015981D01*
X156773828Y-71713149D01*
X157076660Y-71259930D01*
X157183000Y-70725321D01*
X157183000Y-69634679D01*
X157076660Y-69100070D01*
X156773828Y-68646851D01*
X156320609Y-68344019D01*
X156275267Y-68335000D01*
X159360733Y-68335000D01*
X159315391Y-68344019D01*
X158862172Y-68646851D01*
X158559340Y-69100070D01*
X158453000Y-69634679D01*
X158453000Y-70725321D01*
X158559340Y-71259930D01*
X158862172Y-71713149D01*
X159315391Y-72015981D01*
X159850000Y-72122321D01*
X160384609Y-72015981D01*
X160837828Y-71713149D01*
X161120000Y-71290850D01*
X161402172Y-71713149D01*
X161855391Y-72015981D01*
X162390000Y-72122321D01*
X162924609Y-72015981D01*
X163377828Y-71713149D01*
X163660000Y-71290850D01*
X163942172Y-71713149D01*
X164395391Y-72015981D01*
X164930000Y-72122321D01*
X165464609Y-72015981D01*
X165917828Y-71713149D01*
X166200000Y-71290850D01*
X166482172Y-71713149D01*
X166935391Y-72015981D01*
X167470000Y-72122321D01*
X168004609Y-72015981D01*
X168457828Y-71713149D01*
X168740000Y-71290850D01*
X169022172Y-71713149D01*
X169475391Y-72015981D01*
X170010000Y-72122321D01*
X170544609Y-72015981D01*
X170997828Y-71713149D01*
X171280000Y-71290850D01*
X171562172Y-71713149D01*
X171790000Y-71865379D01*
X171790000Y-73550000D01*
X171808228Y-73641637D01*
X171800000Y-73640000D01*
X165562289Y-73640000D01*
X165430327Y-73507808D01*
X165086799Y-73365162D01*
X164714833Y-73364838D01*
X164371057Y-73506883D01*
X164313820Y-73564020D01*
X164012399Y-73262599D01*
X163765837Y-73097852D01*
X163474998Y-73040000D01*
X151700000Y-73040000D01*
X151409160Y-73097852D01*
X151162599Y-73262599D01*
X150360320Y-74064878D01*
X150314833Y-74064838D01*
X149971057Y-74206883D01*
X149707808Y-74469673D01*
X149565162Y-74813201D01*
X149564838Y-75185167D01*
X149706883Y-75528943D01*
X149969673Y-75792192D01*
X150313201Y-75934838D01*
X150685167Y-75935162D01*
X151028943Y-75793117D01*
X151292192Y-75530327D01*
X151434838Y-75186799D01*
X151434879Y-75139923D01*
X152014802Y-74560000D01*
X157865121Y-74560000D01*
X157864838Y-74885167D01*
X158006883Y-75228943D01*
X158269673Y-75492192D01*
X158613201Y-75634838D01*
X158985167Y-75635162D01*
X159328943Y-75493117D01*
X159362118Y-75460000D01*
X161485198Y-75460000D01*
X164262599Y-78237401D01*
X164509161Y-78402148D01*
X164800000Y-78460000D01*
X176765034Y-78460000D01*
X176764838Y-78685167D01*
X176906883Y-79028943D01*
X177169673Y-79292192D01*
X177513201Y-79434838D01*
X177560077Y-79434879D01*
X178540000Y-80414802D01*
X178540000Y-81500000D01*
X178597852Y-81790839D01*
X178762599Y-82037401D01*
X179662599Y-82937401D01*
X179909160Y-83102148D01*
X180200000Y-83160000D01*
X181570301Y-83160000D01*
X181465162Y-83413201D01*
X181464838Y-83785167D01*
X181493419Y-83854339D01*
X181176589Y-83536955D01*
X180360022Y-83197887D01*
X179475857Y-83197115D01*
X178658700Y-83534758D01*
X178032955Y-84159411D01*
X177693887Y-84975978D01*
X177693115Y-85860143D01*
X178030758Y-86677300D01*
X178592476Y-87240000D01*
X178000000Y-87240000D01*
X177709160Y-87297852D01*
X177462599Y-87462599D01*
X174097440Y-90827758D01*
X174097440Y-89950000D01*
X174053162Y-89714683D01*
X173914090Y-89498559D01*
X173701890Y-89353569D01*
X173688803Y-89350919D01*
X173901441Y-89214090D01*
X174046431Y-89001890D01*
X174097440Y-88750000D01*
X174097440Y-87250000D01*
X174053162Y-87014683D01*
X173914090Y-86798559D01*
X173701890Y-86653569D01*
X173450000Y-86602560D01*
X172179105Y-86602560D01*
X172153162Y-86464683D01*
X172014090Y-86248559D01*
X171801890Y-86103569D01*
X171550000Y-86052560D01*
X171077362Y-86052560D01*
X169387401Y-84362599D01*
X169140839Y-84197852D01*
X168850000Y-84140000D01*
X165568192Y-84140000D01*
X165631098Y-84077204D01*
X165834768Y-83586713D01*
X165835231Y-83055617D01*
X165632418Y-82564771D01*
X165257204Y-82188902D01*
X164766713Y-81985232D01*
X164235617Y-81984769D01*
X163744771Y-82187582D01*
X163499902Y-82432024D01*
X163257204Y-82188902D01*
X162766713Y-81985232D01*
X162235617Y-81984769D01*
X161744771Y-82187582D01*
X161499902Y-82432024D01*
X161257204Y-82188902D01*
X160766713Y-81985232D01*
X160235617Y-81984769D01*
X159744771Y-82187582D01*
X159499902Y-82432024D01*
X159257204Y-82188902D01*
X158766713Y-81985232D01*
X158235617Y-81984769D01*
X157744771Y-82187582D01*
X157499902Y-82432024D01*
X157257204Y-82188902D01*
X156766713Y-81985232D01*
X156235617Y-81984769D01*
X155744771Y-82187582D01*
X155499902Y-82432024D01*
X155257204Y-82188902D01*
X154766713Y-81985232D01*
X154235617Y-81984769D01*
X153744771Y-82187582D01*
X153499902Y-82432024D01*
X153257204Y-82188902D01*
X152766713Y-81985232D01*
X152235617Y-81984769D01*
X151744771Y-82187582D01*
X151499902Y-82432024D01*
X151257204Y-82188902D01*
X150766713Y-81985232D01*
X150235617Y-81984769D01*
X149744771Y-82187582D01*
X149499902Y-82432024D01*
X149257204Y-82188902D01*
X148766713Y-81985232D01*
X148235617Y-81984769D01*
X147744771Y-82187582D01*
X147499902Y-82432024D01*
X147257204Y-82188902D01*
X146766713Y-81985232D01*
X146235617Y-81984769D01*
X145744771Y-82187582D01*
X145368902Y-82562796D01*
X145165232Y-83053287D01*
X145164769Y-83584383D01*
X145202971Y-83676838D01*
X140474280Y-83769558D01*
X140200000Y-83715000D01*
X136260000Y-83715000D01*
X135992440Y-83768221D01*
X135992440Y-83385000D01*
X136032494Y-83385000D01*
X136039673Y-83392192D01*
X136383201Y-83534838D01*
X136755167Y-83535162D01*
X137098943Y-83393117D01*
X137362192Y-83130327D01*
X137504838Y-82786799D01*
X137505162Y-82414833D01*
X137363117Y-82071057D01*
X137100327Y-81807808D01*
X136756799Y-81665162D01*
X136384833Y-81664838D01*
X136041057Y-81806883D01*
X136032926Y-81815000D01*
X135759975Y-81815000D01*
X135740994Y-81802031D01*
X135883327Y-81659698D01*
X135980000Y-81426309D01*
X135980000Y-80835750D01*
X135821250Y-80677000D01*
X134847000Y-80677000D01*
X134847000Y-80697000D01*
X134593000Y-80697000D01*
X134593000Y-80677000D01*
X134573000Y-80677000D01*
X134573000Y-80423000D01*
X134593000Y-80423000D01*
X134593000Y-79666250D01*
X134613000Y-79646250D01*
X134613000Y-79323750D01*
X134847000Y-79323750D01*
X134847000Y-80423000D01*
X135821250Y-80423000D01*
X135980000Y-80264250D01*
X135980000Y-79673691D01*
X135911842Y-79509142D01*
X136000000Y-79296309D01*
X136000000Y-78705750D01*
X135841250Y-78547000D01*
X134867000Y-78547000D01*
X134867000Y-79303750D01*
X134847000Y-79323750D01*
X134613000Y-79323750D01*
X134613000Y-78547000D01*
X134593000Y-78547000D01*
X134593000Y-78293000D01*
X134613000Y-78293000D01*
X134613000Y-78273000D01*
X134867000Y-78273000D01*
X134867000Y-78293000D01*
X135841250Y-78293000D01*
X136000000Y-78134250D01*
X136000000Y-77543691D01*
X135903327Y-77310302D01*
X135762090Y-77169064D01*
X135816441Y-77134090D01*
X135961431Y-76921890D01*
X136012440Y-76670000D01*
X136012440Y-75170000D01*
X135968162Y-74934683D01*
X135925000Y-74867607D01*
X135925000Y-74320907D01*
X138335000Y-74320907D01*
X138335000Y-74379093D01*
X138448039Y-74947378D01*
X138769946Y-75429147D01*
X139055578Y-75620000D01*
X138769946Y-75810853D01*
X138448039Y-76292622D01*
X138335000Y-76860907D01*
X138335000Y-76919093D01*
X138448039Y-77487378D01*
X138769946Y-77969147D01*
X139251715Y-78291054D01*
X139820000Y-78404093D01*
X140388285Y-78291054D01*
X140870054Y-77969147D01*
X141090000Y-77639974D01*
X141309946Y-77969147D01*
X141791715Y-78291054D01*
X142360000Y-78404093D01*
X142928285Y-78291054D01*
X143410054Y-77969147D01*
X143731961Y-77487378D01*
X143845000Y-76919093D01*
X143845000Y-76860907D01*
X143731961Y-76292622D01*
X143410054Y-75810853D01*
X143408821Y-75810029D01*
X143445317Y-75803162D01*
X143661441Y-75664090D01*
X143806431Y-75451890D01*
X143857440Y-75200000D01*
X143857440Y-73500000D01*
X143813162Y-73264683D01*
X143674090Y-73048559D01*
X143461890Y-72903569D01*
X143210000Y-72852560D01*
X141510000Y-72852560D01*
X141274683Y-72896838D01*
X141058559Y-73035910D01*
X140913569Y-73248110D01*
X140899914Y-73315541D01*
X140870054Y-73270853D01*
X140388285Y-72948946D01*
X139820000Y-72835907D01*
X139251715Y-72948946D01*
X138769946Y-73270853D01*
X138448039Y-73752622D01*
X138335000Y-74320907D01*
X135925000Y-74320907D01*
X135925000Y-74140000D01*
X135918866Y-74109161D01*
X135865245Y-73839593D01*
X135695079Y-73584921D01*
X135475079Y-73364921D01*
X135247248Y-73212690D01*
X135223162Y-73084683D01*
X135084090Y-72868559D01*
X134871890Y-72723569D01*
X134620000Y-72672560D01*
X133420000Y-72672560D01*
X133184683Y-72716838D01*
X132968559Y-72855910D01*
X132920866Y-72925711D01*
X132884090Y-72868559D01*
X132671890Y-72723569D01*
X132420000Y-72672560D01*
X131220000Y-72672560D01*
X130984683Y-72716838D01*
X130938608Y-72746486D01*
X130831890Y-72673569D01*
X130580000Y-72622560D01*
X129080000Y-72622560D01*
X128844683Y-72666838D01*
X128628559Y-72805910D01*
X128483569Y-73018110D01*
X128476809Y-73051490D01*
X128418327Y-72910301D01*
X128239698Y-72731673D01*
X128006309Y-72635000D01*
X127415750Y-72635000D01*
X127257000Y-72793750D01*
X127257000Y-73793000D01*
X127277000Y-73793000D01*
X127277000Y-74047000D01*
X127257000Y-74047000D01*
X127257000Y-75046250D01*
X127273729Y-75062979D01*
X127133569Y-75268110D01*
X127082560Y-75520000D01*
X127082560Y-77520000D01*
X127126838Y-77755317D01*
X127265910Y-77971441D01*
X127478110Y-78116431D01*
X127730000Y-78167440D01*
X128845000Y-78167440D01*
X128845000Y-81179146D01*
X128644683Y-81216838D01*
X128480508Y-81322482D01*
X128439699Y-81281673D01*
X128206310Y-81185000D01*
X127615750Y-81185000D01*
X127457000Y-81343750D01*
X127457000Y-82693000D01*
X127477000Y-82693000D01*
X127477000Y-82947000D01*
X127457000Y-82947000D01*
X127457000Y-82967000D01*
X127203000Y-82967000D01*
X127203000Y-82947000D01*
X126103750Y-82947000D01*
X125945000Y-83105750D01*
X125945000Y-83251270D01*
X124885619Y-82860000D01*
X125416309Y-82860000D01*
X125649698Y-82763327D01*
X125828327Y-82584699D01*
X125925000Y-82351310D01*
X125925000Y-81885750D01*
X125766250Y-81727000D01*
X124667000Y-81727000D01*
X124667000Y-81747000D01*
X124413000Y-81747000D01*
X124413000Y-81727000D01*
X124393000Y-81727000D01*
X124393000Y-81693691D01*
X125945000Y-81693691D01*
X125945000Y-82534250D01*
X126103750Y-82693000D01*
X127203000Y-82693000D01*
X127203000Y-81343750D01*
X127044250Y-81185000D01*
X126453690Y-81185000D01*
X126220301Y-81281673D01*
X126041673Y-81460302D01*
X125945000Y-81693691D01*
X124393000Y-81693691D01*
X124393000Y-81473000D01*
X124413000Y-81473000D01*
X124413000Y-81453000D01*
X124667000Y-81453000D01*
X124667000Y-81473000D01*
X125766250Y-81473000D01*
X125925000Y-81314250D01*
X125925000Y-80848690D01*
X125828327Y-80615301D01*
X125649698Y-80436673D01*
X125625080Y-80426476D01*
X125555961Y-74205750D01*
X125745000Y-74205750D01*
X125745000Y-74696310D01*
X125841673Y-74929699D01*
X126020302Y-75108327D01*
X126253691Y-75205000D01*
X126844250Y-75205000D01*
X127003000Y-75046250D01*
X127003000Y-74047000D01*
X125903750Y-74047000D01*
X125745000Y-74205750D01*
X125555961Y-74205750D01*
X125544160Y-73143690D01*
X125745000Y-73143690D01*
X125745000Y-73634250D01*
X125903750Y-73793000D01*
X127003000Y-73793000D01*
X127003000Y-72793750D01*
X126844250Y-72635000D01*
X126253691Y-72635000D01*
X126020302Y-72731673D01*
X125841673Y-72910301D01*
X125745000Y-73143690D01*
X125544160Y-73143690D01*
X125529507Y-71824965D01*
X125613592Y-71656796D01*
X125627000Y-71600000D01*
X125627000Y-71001025D01*
X125798327Y-70829699D01*
X125895000Y-70596310D01*
X125895000Y-70105750D01*
X125736250Y-69947000D01*
X124637000Y-69947000D01*
X124637000Y-69967000D01*
X124383000Y-69967000D01*
X124383000Y-69947000D01*
X124363000Y-69947000D01*
X124363000Y-69693000D01*
X124383000Y-69693000D01*
X124383000Y-68693750D01*
X124637000Y-68693750D01*
X124637000Y-69693000D01*
X125736250Y-69693000D01*
X125895000Y-69534250D01*
X125895000Y-69043690D01*
X125798327Y-68810301D01*
X125619698Y-68631673D01*
X125386309Y-68535000D01*
X124795750Y-68535000D01*
X124637000Y-68693750D01*
X124383000Y-68693750D01*
X124224250Y-68535000D01*
X123633691Y-68535000D01*
X123400302Y-68631673D01*
X123221673Y-68810301D01*
X123165346Y-68946287D01*
X123163162Y-68934683D01*
X123024090Y-68718559D01*
X122811890Y-68573569D01*
X122560000Y-68522560D01*
X121060000Y-68522560D01*
X120824683Y-68566838D01*
X120720698Y-68633751D01*
X120661890Y-68593569D01*
X120410000Y-68542560D01*
X119210000Y-68542560D01*
X118974683Y-68586838D01*
X118758559Y-68725910D01*
X118710866Y-68795711D01*
X118674090Y-68738559D01*
X118461890Y-68593569D01*
X118210000Y-68542560D01*
X117010000Y-68542560D01*
X116774683Y-68586838D01*
X116558559Y-68725910D01*
X116413569Y-68938110D01*
X116362560Y-69190000D01*
X116362560Y-70390000D01*
X116373606Y-70448705D01*
X116473010Y-78301607D01*
X116481685Y-78346159D01*
X116508965Y-78388553D01*
X116550590Y-78416994D01*
X116600000Y-78427000D01*
X117845000Y-78427000D01*
X117845000Y-78994250D01*
X118003750Y-79153000D01*
X119103000Y-79153000D01*
X119103000Y-79133000D01*
X119357000Y-79133000D01*
X119357000Y-79153000D01*
X119377000Y-79153000D01*
X119377000Y-79407000D01*
X119357000Y-79407000D01*
X119357000Y-79427000D01*
X119103000Y-79427000D01*
X119103000Y-79407000D01*
X118003750Y-79407000D01*
X117845000Y-79565750D01*
X117845000Y-80330000D01*
X117725750Y-80330000D01*
X117567000Y-80488750D01*
X117567000Y-81463000D01*
X117587000Y-81463000D01*
X117587000Y-81717000D01*
X117567000Y-81717000D01*
X117567000Y-82691250D01*
X117725750Y-82850000D01*
X118316309Y-82850000D01*
X118549698Y-82753327D01*
X118690936Y-82612090D01*
X118725910Y-82666441D01*
X118938110Y-82811431D01*
X119155000Y-82855352D01*
X119155000Y-102840000D01*
X119214755Y-103140407D01*
X119384921Y-103395079D01*
X124544921Y-108555079D01*
X124799593Y-108725245D01*
X125100000Y-108785000D01*
X126302560Y-108785000D01*
X126302560Y-108850000D01*
X126346838Y-109085317D01*
X126485910Y-109301441D01*
X126698110Y-109446431D01*
X126950000Y-109497440D01*
X128650000Y-109497440D01*
X128885317Y-109453162D01*
X129101441Y-109314090D01*
X129246431Y-109101890D01*
X129260086Y-109034459D01*
X129289946Y-109079147D01*
X129555000Y-109256250D01*
X129555000Y-110334842D01*
X125719843Y-114169999D01*
X122768438Y-114169999D01*
X122904759Y-113841702D01*
X122905240Y-113290715D01*
X122694831Y-112781485D01*
X122305564Y-112391539D01*
X122089021Y-112301623D01*
X122243923Y-112237460D01*
X122311912Y-111996517D01*
X121527000Y-111211605D01*
X121527000Y-111025000D01*
X121699605Y-111025000D01*
X122491517Y-111816912D01*
X122732460Y-111748923D01*
X122917201Y-111229829D01*
X122889230Y-110679552D01*
X122732460Y-110301077D01*
X122491517Y-110233088D01*
X121699605Y-111025000D01*
X121527000Y-111025000D01*
X121527000Y-110838395D01*
X122311912Y-110053483D01*
X122243923Y-109812540D01*
X122077379Y-109753268D01*
X122303515Y-109659831D01*
X122693461Y-109270564D01*
X122904759Y-108761702D01*
X122905240Y-108210715D01*
X122694831Y-107701485D01*
X122305564Y-107311539D01*
X121796702Y-107100241D01*
X121245715Y-107099760D01*
X120736485Y-107310169D01*
X120346539Y-107699436D01*
X120135241Y-108208298D01*
X120134878Y-108624113D01*
X119938653Y-108754930D01*
X119765564Y-108581539D01*
X119533130Y-108485024D01*
X119763515Y-108389831D01*
X120153461Y-108000564D01*
X120364759Y-107491702D01*
X120365240Y-106940715D01*
X120154831Y-106431485D01*
X119765564Y-106041539D01*
X119256702Y-105830241D01*
X118705715Y-105829760D01*
X118196485Y-106040169D01*
X117806539Y-106429436D01*
X117595241Y-106938298D01*
X117594760Y-107489285D01*
X117805169Y-107998515D01*
X118194436Y-108388461D01*
X118426870Y-108484976D01*
X118196485Y-108580169D01*
X117806539Y-108969436D01*
X117595241Y-109478298D01*
X117594760Y-110029285D01*
X117805169Y-110538515D01*
X118194436Y-110928461D01*
X118410979Y-111018377D01*
X118256077Y-111082540D01*
X118188088Y-111323483D01*
X118980000Y-112115395D01*
X118994143Y-112101253D01*
X119173748Y-112280858D01*
X119159605Y-112295000D01*
X119173748Y-112309143D01*
X118994143Y-112488748D01*
X118980000Y-112474605D01*
X118188088Y-113266517D01*
X118256077Y-113507460D01*
X118422621Y-113566732D01*
X118196485Y-113660169D01*
X117806539Y-114049436D01*
X117595241Y-114558298D01*
X117594760Y-115109285D01*
X117805169Y-115618515D01*
X118194436Y-116008461D01*
X118703298Y-116219759D01*
X119254285Y-116220240D01*
X119763515Y-116009831D01*
X120153461Y-115620564D01*
X120364759Y-115111702D01*
X120365240Y-114560715D01*
X120154831Y-114051485D01*
X119765564Y-113661539D01*
X119665196Y-113619863D01*
X119698857Y-113626995D01*
X119748355Y-113617434D01*
X120135093Y-113458189D01*
X120134760Y-113839285D01*
X120345169Y-114348515D01*
X120734436Y-114738461D01*
X120966870Y-114834976D01*
X120736485Y-114930169D01*
X120346539Y-115319436D01*
X120135241Y-115828298D01*
X120134760Y-116379285D01*
X120345169Y-116888515D01*
X120734436Y-117278461D01*
X121243298Y-117489759D01*
X121794285Y-117490240D01*
X122303515Y-117279831D01*
X122693461Y-116890564D01*
X122904759Y-116381702D01*
X122905240Y-115830715D01*
X122905007Y-115830151D01*
X122995159Y-115739999D01*
X126045001Y-115739999D01*
X126345408Y-115680244D01*
X126600080Y-115510078D01*
X130895079Y-111215079D01*
X131065245Y-110960406D01*
X131125000Y-110660000D01*
X131125000Y-109256250D01*
X131390054Y-109079147D01*
X131610000Y-108749974D01*
X131829946Y-109079147D01*
X132311715Y-109401054D01*
X132815000Y-109501164D01*
X132815000Y-113900000D01*
X132874755Y-114200407D01*
X133044921Y-114455079D01*
X135744921Y-117155079D01*
X135999594Y-117325245D01*
X136300000Y-117385001D01*
X136300005Y-117385000D01*
X140774381Y-117385000D01*
X140673000Y-117894679D01*
X140673000Y-118985321D01*
X140779340Y-119519930D01*
X141082172Y-119973149D01*
X141535391Y-120275981D01*
X141681280Y-120305000D01*
X129377577Y-120305000D01*
X129983045Y-119700589D01*
X130322113Y-118884022D01*
X130322885Y-117999857D01*
X129985242Y-117182700D01*
X129360589Y-116556955D01*
X128544022Y-116217887D01*
X127659857Y-116217115D01*
X126842700Y-116554758D01*
X126216955Y-117179411D01*
X125877887Y-117995978D01*
X125877115Y-118880143D01*
X126214758Y-119697300D01*
X126821397Y-120305000D01*
X111010259Y-120305000D01*
X111225908Y-119724539D01*
X111212641Y-119366013D01*
X111277242Y-119430726D01*
X112153513Y-119794585D01*
X113102325Y-119795413D01*
X113979229Y-119433084D01*
X114650726Y-118762758D01*
X115014585Y-117886487D01*
X115015413Y-116937675D01*
X114653084Y-116060771D01*
X113982758Y-115389274D01*
X113106487Y-115025415D01*
X112157675Y-115024587D01*
X111280771Y-115386916D01*
X110609274Y-116057242D01*
X110245415Y-116933513D01*
X110244587Y-117882325D01*
X110283827Y-117977293D01*
X109844539Y-117814092D01*
X109194540Y-117838144D01*
X108705736Y-118040613D01*
X108607073Y-118307468D01*
X109580000Y-119280395D01*
X109594143Y-119266253D01*
X109773748Y-119445858D01*
X109759605Y-119460000D01*
X109773748Y-119474143D01*
X109594143Y-119653748D01*
X109580000Y-119639605D01*
X109565858Y-119653748D01*
X109386253Y-119474143D01*
X109400395Y-119460000D01*
X108427468Y-118487073D01*
X108160613Y-118585736D01*
X107934092Y-119195461D01*
X107958144Y-119845460D01*
X108148491Y-120305000D01*
X104815000Y-120305000D01*
X104815000Y-112090171D01*
X117582799Y-112090171D01*
X117610770Y-112640448D01*
X117767540Y-113018923D01*
X118008483Y-113086912D01*
X118800395Y-112295000D01*
X118008483Y-111503088D01*
X117767540Y-111571077D01*
X117582799Y-112090171D01*
X104815000Y-112090171D01*
X104815000Y-105012532D01*
X108607073Y-105012532D01*
X108705736Y-105279387D01*
X109315461Y-105505908D01*
X109965460Y-105481856D01*
X110279325Y-105351849D01*
X110245415Y-105433513D01*
X110244587Y-106382325D01*
X110606916Y-107259229D01*
X111277242Y-107930726D01*
X112153513Y-108294585D01*
X113102325Y-108295413D01*
X113979229Y-107933084D01*
X114650726Y-107262758D01*
X115014585Y-106386487D01*
X115015413Y-105437675D01*
X114653084Y-104560771D01*
X113982758Y-103889274D01*
X113106487Y-103525415D01*
X112157675Y-103524587D01*
X111280771Y-103886916D01*
X111219383Y-103948197D01*
X111201856Y-103474540D01*
X110999387Y-102985736D01*
X110732532Y-102887073D01*
X109759605Y-103860000D01*
X109773748Y-103874143D01*
X109594143Y-104053748D01*
X109580000Y-104039605D01*
X108607073Y-105012532D01*
X104815000Y-105012532D01*
X104815000Y-103595461D01*
X107934092Y-103595461D01*
X107958144Y-104245460D01*
X108160613Y-104734264D01*
X108427468Y-104832927D01*
X109400395Y-103860000D01*
X108427468Y-102887073D01*
X108160613Y-102985736D01*
X107934092Y-103595461D01*
X104815000Y-103595461D01*
X104815000Y-102707468D01*
X108607073Y-102707468D01*
X109580000Y-103680395D01*
X110552927Y-102707468D01*
X110454264Y-102440613D01*
X109844539Y-102214092D01*
X109194540Y-102238144D01*
X108705736Y-102440613D01*
X108607073Y-102707468D01*
X104815000Y-102707468D01*
X104815000Y-95023207D01*
X108434665Y-95023207D01*
X108728630Y-95734658D01*
X109272479Y-96279457D01*
X109983416Y-96574663D01*
X110753207Y-96575335D01*
X111464658Y-96281370D01*
X112009457Y-95737521D01*
X112304663Y-95026584D01*
X112305335Y-94256793D01*
X112011370Y-93545342D01*
X111467521Y-93000543D01*
X110756584Y-92705337D01*
X109986793Y-92704665D01*
X109275342Y-92998630D01*
X108730543Y-93542479D01*
X108435337Y-94253416D01*
X108434665Y-95023207D01*
X104815000Y-95023207D01*
X104815000Y-90929459D01*
X109180146Y-90929459D01*
X109315504Y-91227455D01*
X110033880Y-91504066D01*
X110803427Y-91484710D01*
X111424496Y-91227455D01*
X111559854Y-90929459D01*
X110370000Y-89739605D01*
X109180146Y-90929459D01*
X104815000Y-90929459D01*
X104815000Y-89223880D01*
X108425934Y-89223880D01*
X108445290Y-89993427D01*
X108702545Y-90614496D01*
X109000541Y-90749854D01*
X110190395Y-89560000D01*
X110549605Y-89560000D01*
X111739459Y-90749854D01*
X112037455Y-90614496D01*
X112314066Y-89896120D01*
X112294710Y-89126573D01*
X112037455Y-88505504D01*
X111739459Y-88370146D01*
X110549605Y-89560000D01*
X110190395Y-89560000D01*
X109000541Y-88370146D01*
X108702545Y-88505504D01*
X108425934Y-89223880D01*
X104815000Y-89223880D01*
X104815000Y-88190541D01*
X109180146Y-88190541D01*
X110370000Y-89380395D01*
X111559854Y-88190541D01*
X111424496Y-87892545D01*
X110706120Y-87615934D01*
X109936573Y-87635290D01*
X109315504Y-87892545D01*
X109180146Y-88190541D01*
X104815000Y-88190541D01*
X104815000Y-84863207D01*
X108434665Y-84863207D01*
X108728630Y-85574658D01*
X109272479Y-86119457D01*
X109983416Y-86414663D01*
X110753207Y-86415335D01*
X111464658Y-86121370D01*
X112009457Y-85577521D01*
X112304663Y-84866584D01*
X112305335Y-84096793D01*
X112011370Y-83385342D01*
X111467521Y-82840543D01*
X110756584Y-82545337D01*
X109986793Y-82544665D01*
X109275342Y-82838630D01*
X108730543Y-83382479D01*
X108435337Y-84093416D01*
X108434665Y-84863207D01*
X104815000Y-84863207D01*
X104815000Y-81875750D01*
X116055000Y-81875750D01*
X116055000Y-82341310D01*
X116151673Y-82574699D01*
X116330302Y-82753327D01*
X116563691Y-82850000D01*
X117154250Y-82850000D01*
X117313000Y-82691250D01*
X117313000Y-81717000D01*
X116213750Y-81717000D01*
X116055000Y-81875750D01*
X104815000Y-81875750D01*
X104815000Y-80838690D01*
X116055000Y-80838690D01*
X116055000Y-81304250D01*
X116213750Y-81463000D01*
X117313000Y-81463000D01*
X117313000Y-80488750D01*
X117154250Y-80330000D01*
X116563691Y-80330000D01*
X116330302Y-80426673D01*
X116151673Y-80605301D01*
X116055000Y-80838690D01*
X104815000Y-80838690D01*
X104815000Y-77373207D01*
X108344665Y-77373207D01*
X108638630Y-78084658D01*
X109182479Y-78629457D01*
X109893416Y-78924663D01*
X110663207Y-78925335D01*
X111374658Y-78631370D01*
X111919457Y-78087521D01*
X112214663Y-77376584D01*
X112215335Y-76606793D01*
X111921370Y-75895342D01*
X111377521Y-75350543D01*
X110666584Y-75055337D01*
X109896793Y-75054665D01*
X109185342Y-75348630D01*
X108640543Y-75892479D01*
X108345337Y-76603416D01*
X108344665Y-77373207D01*
X104815000Y-77373207D01*
X104815000Y-73279459D01*
X109090146Y-73279459D01*
X109225504Y-73577455D01*
X109943880Y-73854066D01*
X110713427Y-73834710D01*
X111334496Y-73577455D01*
X111469854Y-73279459D01*
X110280000Y-72089605D01*
X109090146Y-73279459D01*
X104815000Y-73279459D01*
X104815000Y-71573880D01*
X108335934Y-71573880D01*
X108355290Y-72343427D01*
X108612545Y-72964496D01*
X108910541Y-73099854D01*
X110100395Y-71910000D01*
X110459605Y-71910000D01*
X111649459Y-73099854D01*
X111947455Y-72964496D01*
X112224066Y-72246120D01*
X112204710Y-71476573D01*
X111947455Y-70855504D01*
X111649459Y-70720146D01*
X110459605Y-71910000D01*
X110100395Y-71910000D01*
X108910541Y-70720146D01*
X108612545Y-70855504D01*
X108335934Y-71573880D01*
X104815000Y-71573880D01*
X104815000Y-70540541D01*
X109090146Y-70540541D01*
X110280000Y-71730395D01*
X111469854Y-70540541D01*
X111334496Y-70242545D01*
X110616120Y-69965934D01*
X109846573Y-69985290D01*
X109225504Y-70242545D01*
X109090146Y-70540541D01*
X104815000Y-70540541D01*
X104815000Y-68335000D01*
X128072388Y-68335000D01*
X127486955Y-68919411D01*
G36*
X154897000Y-118313000D02*
X157183000Y-118313000D01*
X157183000Y-118293000D01*
X157437000Y-118293000D01*
X157437000Y-118313000D01*
X157457000Y-118313000D01*
X157457000Y-118567000D01*
X157437000Y-118567000D01*
X157437000Y-118587000D01*
X157183000Y-118587000D01*
X157183000Y-118567000D01*
X154897000Y-118567000D01*
X154897000Y-118587000D01*
X154643000Y-118587000D01*
X154643000Y-118567000D01*
X154623000Y-118567000D01*
X154623000Y-118313000D01*
X154643000Y-118313000D01*
X154643000Y-118293000D01*
X154897000Y-118293000D01*
X154897000Y-118313000D01*
X154897000Y-118313000D01*
G37*
X154897000Y-118313000D02*
X157183000Y-118313000D01*
X157183000Y-118293000D01*
X157437000Y-118293000D01*
X157437000Y-118313000D01*
X157457000Y-118313000D01*
X157457000Y-118567000D01*
X157437000Y-118567000D01*
X157437000Y-118587000D01*
X157183000Y-118587000D01*
X157183000Y-118567000D01*
X154897000Y-118567000D01*
X154897000Y-118587000D01*
X154643000Y-118587000D01*
X154643000Y-118567000D01*
X154623000Y-118567000D01*
X154623000Y-118313000D01*
X154643000Y-118313000D01*
X154643000Y-118293000D01*
X154897000Y-118293000D01*
X154897000Y-118313000D01*
G36*
X142464847Y-87875005D02*
X142464838Y-87885167D01*
X142606883Y-88228943D01*
X142869673Y-88492192D01*
X143061821Y-88571979D01*
X145002560Y-90512718D01*
X145002560Y-91350000D01*
X145046838Y-91585317D01*
X145185910Y-91801441D01*
X145398110Y-91946431D01*
X145650000Y-91997440D01*
X145887282Y-91997440D01*
X147154715Y-93264873D01*
X147114833Y-93264838D01*
X146771057Y-93406883D01*
X146507808Y-93669673D01*
X146365162Y-94013201D01*
X146364838Y-94385167D01*
X146506883Y-94728943D01*
X146515000Y-94737074D01*
X146515000Y-95000000D01*
X146574755Y-95300407D01*
X146744921Y-95555079D01*
X147802560Y-96612718D01*
X147802560Y-97187282D01*
X145944921Y-99044921D01*
X145774755Y-99299593D01*
X145737875Y-99485000D01*
X145715000Y-99600000D01*
X145715000Y-104217301D01*
X145368902Y-104562796D01*
X145165232Y-105053287D01*
X145164769Y-105584383D01*
X145227833Y-105737009D01*
X143847282Y-107117560D01*
X142810000Y-107117560D01*
X142574683Y-107161838D01*
X142358559Y-107300910D01*
X142213569Y-107513110D01*
X142194961Y-107605000D01*
X138323565Y-107605000D01*
X137986799Y-107465162D01*
X137614833Y-107464838D01*
X137271057Y-107606883D01*
X137007808Y-107869673D01*
X136865162Y-108213201D01*
X136864838Y-108585167D01*
X137006883Y-108928943D01*
X137269673Y-109192192D01*
X137613201Y-109334838D01*
X137985167Y-109335162D01*
X138328943Y-109193117D01*
X138347092Y-109175000D01*
X142192666Y-109175000D01*
X142206838Y-109250317D01*
X142345910Y-109466441D01*
X142558110Y-109611431D01*
X142810000Y-109662440D01*
X144310000Y-109662440D01*
X144545317Y-109618162D01*
X144761441Y-109479090D01*
X144807969Y-109410994D01*
X144950302Y-109553327D01*
X145183691Y-109650000D01*
X145774250Y-109650000D01*
X145933000Y-109491250D01*
X145933000Y-108517000D01*
X146187000Y-108517000D01*
X146187000Y-109491250D01*
X146345750Y-109650000D01*
X146936309Y-109650000D01*
X147169698Y-109553327D01*
X147348327Y-109374699D01*
X147445000Y-109141310D01*
X147445000Y-108675750D01*
X147286250Y-108517000D01*
X146187000Y-108517000D01*
X145933000Y-108517000D01*
X145913000Y-108517000D01*
X145913000Y-108263000D01*
X145933000Y-108263000D01*
X145933000Y-107288750D01*
X146187000Y-107288750D01*
X146187000Y-108263000D01*
X147286250Y-108263000D01*
X147445000Y-108104250D01*
X147445000Y-107638690D01*
X147348327Y-107405301D01*
X147169698Y-107226673D01*
X146936309Y-107130000D01*
X146345750Y-107130000D01*
X146187000Y-107288750D01*
X145933000Y-107288750D01*
X145914704Y-107270454D01*
X146530131Y-106655027D01*
X146764383Y-106655231D01*
X147255229Y-106452418D01*
X147500098Y-106207976D01*
X147742796Y-106451098D01*
X148233287Y-106654768D01*
X148764383Y-106655231D01*
X149255229Y-106452418D01*
X149500098Y-106207976D01*
X149742796Y-106451098D01*
X150233287Y-106654768D01*
X150764383Y-106655231D01*
X151255229Y-106452418D01*
X151500098Y-106207976D01*
X151742796Y-106451098D01*
X152233287Y-106654768D01*
X152764383Y-106655231D01*
X153255229Y-106452418D01*
X153500098Y-106207976D01*
X153742796Y-106451098D01*
X154233287Y-106654768D01*
X154764383Y-106655231D01*
X155255229Y-106452418D01*
X155500098Y-106207976D01*
X155742796Y-106451098D01*
X156233287Y-106654768D01*
X156764383Y-106655231D01*
X157255229Y-106452418D01*
X157500098Y-106207976D01*
X157742796Y-106451098D01*
X158233287Y-106654768D01*
X158764383Y-106655231D01*
X159255229Y-106452418D01*
X159500098Y-106207976D01*
X159742796Y-106451098D01*
X160233287Y-106654768D01*
X160764383Y-106655231D01*
X161255229Y-106452418D01*
X161500098Y-106207976D01*
X161742796Y-106451098D01*
X162233287Y-106654768D01*
X162764383Y-106655231D01*
X163255229Y-106452418D01*
X163452716Y-106255275D01*
X163744331Y-106255275D01*
X163806169Y-106491042D01*
X164307122Y-106667419D01*
X164837440Y-106638664D01*
X165193831Y-106491042D01*
X165255669Y-106255275D01*
X164500000Y-105499605D01*
X163744331Y-106255275D01*
X163452716Y-106255275D01*
X163631098Y-106077204D01*
X163679319Y-105961075D01*
X164320395Y-105320000D01*
X164679605Y-105320000D01*
X165435275Y-106075669D01*
X165671042Y-106013831D01*
X165847419Y-105512878D01*
X165818664Y-104982560D01*
X165671042Y-104626169D01*
X165435275Y-104564331D01*
X164679605Y-105320000D01*
X164320395Y-105320000D01*
X164306252Y-105305858D01*
X164485858Y-105126252D01*
X164500000Y-105140395D01*
X165255669Y-104384725D01*
X165193831Y-104148958D01*
X164862500Y-104032302D01*
X165534802Y-103360000D01*
X168500000Y-103360000D01*
X168790839Y-103302148D01*
X169037401Y-103137401D01*
X170837401Y-101337401D01*
X170937779Y-101187174D01*
X170946838Y-101235317D01*
X171085910Y-101451441D01*
X171298110Y-101596431D01*
X171550000Y-101647440D01*
X172450000Y-101647440D01*
X172685317Y-101603162D01*
X172901441Y-101464090D01*
X173046431Y-101251890D01*
X173097440Y-101000000D01*
X173097440Y-100627000D01*
X173269672Y-100627000D01*
X173298110Y-100646431D01*
X173550000Y-100697440D01*
X174450000Y-100697440D01*
X174685317Y-100653162D01*
X174725974Y-100627000D01*
X179840000Y-100627000D01*
X179840000Y-106800000D01*
X179897852Y-107090839D01*
X179977473Y-107210000D01*
X178750000Y-107210000D01*
X178459160Y-107267852D01*
X178212599Y-107432599D01*
X172333681Y-113311517D01*
X172130327Y-113107808D01*
X171786799Y-112965162D01*
X171414833Y-112964838D01*
X171071057Y-113106883D01*
X170962751Y-113215000D01*
X164937506Y-113215000D01*
X164930327Y-113207808D01*
X164586799Y-113065162D01*
X164214833Y-113064838D01*
X163871057Y-113206883D01*
X163862926Y-113215000D01*
X158537506Y-113215000D01*
X158530327Y-113207808D01*
X158186799Y-113065162D01*
X157814833Y-113064838D01*
X157693431Y-113115000D01*
X151437506Y-113115000D01*
X151430327Y-113107808D01*
X151086799Y-112965162D01*
X150714833Y-112964838D01*
X150371057Y-113106883D01*
X150107808Y-113369673D01*
X149965162Y-113713201D01*
X149964964Y-113940000D01*
X143670896Y-113940000D01*
X143571961Y-113442622D01*
X143250054Y-112960853D01*
X142964422Y-112770000D01*
X143250054Y-112579147D01*
X143571961Y-112097378D01*
X143685000Y-111529093D01*
X143685000Y-111470907D01*
X143571961Y-110902622D01*
X143250054Y-110420853D01*
X142768285Y-110098946D01*
X142200000Y-109985907D01*
X141631715Y-110098946D01*
X141149946Y-110420853D01*
X140930000Y-110750026D01*
X140710054Y-110420853D01*
X140228285Y-110098946D01*
X139660000Y-109985907D01*
X139091715Y-110098946D01*
X138609946Y-110420853D01*
X138288039Y-110902622D01*
X138175000Y-111470907D01*
X138175000Y-111529093D01*
X138288039Y-112097378D01*
X138609946Y-112579147D01*
X138611179Y-112579971D01*
X138574683Y-112586838D01*
X138358559Y-112725910D01*
X138213569Y-112938110D01*
X138162560Y-113190000D01*
X138162560Y-114890000D01*
X138206838Y-115125317D01*
X138216293Y-115140011D01*
X137420169Y-115140011D01*
X135885000Y-113604842D01*
X135885000Y-88525158D01*
X137063082Y-87347076D01*
X137400000Y-87414093D01*
X137968285Y-87301054D01*
X138450054Y-86979147D01*
X138771961Y-86497378D01*
X138885000Y-85929093D01*
X138885000Y-85870907D01*
X138771961Y-85302622D01*
X138760186Y-85285000D01*
X139874842Y-85285000D01*
X142464847Y-87875005D01*
X142464847Y-87875005D01*
G37*
X142464847Y-87875005D02*
X142464838Y-87885167D01*
X142606883Y-88228943D01*
X142869673Y-88492192D01*
X143061821Y-88571979D01*
X145002560Y-90512718D01*
X145002560Y-91350000D01*
X145046838Y-91585317D01*
X145185910Y-91801441D01*
X145398110Y-91946431D01*
X145650000Y-91997440D01*
X145887282Y-91997440D01*
X147154715Y-93264873D01*
X147114833Y-93264838D01*
X146771057Y-93406883D01*
X146507808Y-93669673D01*
X146365162Y-94013201D01*
X146364838Y-94385167D01*
X146506883Y-94728943D01*
X146515000Y-94737074D01*
X146515000Y-95000000D01*
X146574755Y-95300407D01*
X146744921Y-95555079D01*
X147802560Y-96612718D01*
X147802560Y-97187282D01*
X145944921Y-99044921D01*
X145774755Y-99299593D01*
X145737875Y-99485000D01*
X145715000Y-99600000D01*
X145715000Y-104217301D01*
X145368902Y-104562796D01*
X145165232Y-105053287D01*
X145164769Y-105584383D01*
X145227833Y-105737009D01*
X143847282Y-107117560D01*
X142810000Y-107117560D01*
X142574683Y-107161838D01*
X142358559Y-107300910D01*
X142213569Y-107513110D01*
X142194961Y-107605000D01*
X138323565Y-107605000D01*
X137986799Y-107465162D01*
X137614833Y-107464838D01*
X137271057Y-107606883D01*
X137007808Y-107869673D01*
X136865162Y-108213201D01*
X136864838Y-108585167D01*
X137006883Y-108928943D01*
X137269673Y-109192192D01*
X137613201Y-109334838D01*
X137985167Y-109335162D01*
X138328943Y-109193117D01*
X138347092Y-109175000D01*
X142192666Y-109175000D01*
X142206838Y-109250317D01*
X142345910Y-109466441D01*
X142558110Y-109611431D01*
X142810000Y-109662440D01*
X144310000Y-109662440D01*
X144545317Y-109618162D01*
X144761441Y-109479090D01*
X144807969Y-109410994D01*
X144950302Y-109553327D01*
X145183691Y-109650000D01*
X145774250Y-109650000D01*
X145933000Y-109491250D01*
X145933000Y-108517000D01*
X146187000Y-108517000D01*
X146187000Y-109491250D01*
X146345750Y-109650000D01*
X146936309Y-109650000D01*
X147169698Y-109553327D01*
X147348327Y-109374699D01*
X147445000Y-109141310D01*
X147445000Y-108675750D01*
X147286250Y-108517000D01*
X146187000Y-108517000D01*
X145933000Y-108517000D01*
X145913000Y-108517000D01*
X145913000Y-108263000D01*
X145933000Y-108263000D01*
X145933000Y-107288750D01*
X146187000Y-107288750D01*
X146187000Y-108263000D01*
X147286250Y-108263000D01*
X147445000Y-108104250D01*
X147445000Y-107638690D01*
X147348327Y-107405301D01*
X147169698Y-107226673D01*
X146936309Y-107130000D01*
X146345750Y-107130000D01*
X146187000Y-107288750D01*
X145933000Y-107288750D01*
X145914704Y-107270454D01*
X146530131Y-106655027D01*
X146764383Y-106655231D01*
X147255229Y-106452418D01*
X147500098Y-106207976D01*
X147742796Y-106451098D01*
X148233287Y-106654768D01*
X148764383Y-106655231D01*
X149255229Y-106452418D01*
X149500098Y-106207976D01*
X149742796Y-106451098D01*
X150233287Y-106654768D01*
X150764383Y-106655231D01*
X151255229Y-106452418D01*
X151500098Y-106207976D01*
X151742796Y-106451098D01*
X152233287Y-106654768D01*
X152764383Y-106655231D01*
X153255229Y-106452418D01*
X153500098Y-106207976D01*
X153742796Y-106451098D01*
X154233287Y-106654768D01*
X154764383Y-106655231D01*
X155255229Y-106452418D01*
X155500098Y-106207976D01*
X155742796Y-106451098D01*
X156233287Y-106654768D01*
X156764383Y-106655231D01*
X157255229Y-106452418D01*
X157500098Y-106207976D01*
X157742796Y-106451098D01*
X158233287Y-106654768D01*
X158764383Y-106655231D01*
X159255229Y-106452418D01*
X159500098Y-106207976D01*
X159742796Y-106451098D01*
X160233287Y-106654768D01*
X160764383Y-106655231D01*
X161255229Y-106452418D01*
X161500098Y-106207976D01*
X161742796Y-106451098D01*
X162233287Y-106654768D01*
X162764383Y-106655231D01*
X163255229Y-106452418D01*
X163452716Y-106255275D01*
X163744331Y-106255275D01*
X163806169Y-106491042D01*
X164307122Y-106667419D01*
X164837440Y-106638664D01*
X165193831Y-106491042D01*
X165255669Y-106255275D01*
X164500000Y-105499605D01*
X163744331Y-106255275D01*
X163452716Y-106255275D01*
X163631098Y-106077204D01*
X163679319Y-105961075D01*
X164320395Y-105320000D01*
X164679605Y-105320000D01*
X165435275Y-106075669D01*
X165671042Y-106013831D01*
X165847419Y-105512878D01*
X165818664Y-104982560D01*
X165671042Y-104626169D01*
X165435275Y-104564331D01*
X164679605Y-105320000D01*
X164320395Y-105320000D01*
X164306252Y-105305858D01*
X164485858Y-105126252D01*
X164500000Y-105140395D01*
X165255669Y-104384725D01*
X165193831Y-104148958D01*
X164862500Y-104032302D01*
X165534802Y-103360000D01*
X168500000Y-103360000D01*
X168790839Y-103302148D01*
X169037401Y-103137401D01*
X170837401Y-101337401D01*
X170937779Y-101187174D01*
X170946838Y-101235317D01*
X171085910Y-101451441D01*
X171298110Y-101596431D01*
X171550000Y-101647440D01*
X172450000Y-101647440D01*
X172685317Y-101603162D01*
X172901441Y-101464090D01*
X173046431Y-101251890D01*
X173097440Y-101000000D01*
X173097440Y-100627000D01*
X173269672Y-100627000D01*
X173298110Y-100646431D01*
X173550000Y-100697440D01*
X174450000Y-100697440D01*
X174685317Y-100653162D01*
X174725974Y-100627000D01*
X179840000Y-100627000D01*
X179840000Y-106800000D01*
X179897852Y-107090839D01*
X179977473Y-107210000D01*
X178750000Y-107210000D01*
X178459160Y-107267852D01*
X178212599Y-107432599D01*
X172333681Y-113311517D01*
X172130327Y-113107808D01*
X171786799Y-112965162D01*
X171414833Y-112964838D01*
X171071057Y-113106883D01*
X170962751Y-113215000D01*
X164937506Y-113215000D01*
X164930327Y-113207808D01*
X164586799Y-113065162D01*
X164214833Y-113064838D01*
X163871057Y-113206883D01*
X163862926Y-113215000D01*
X158537506Y-113215000D01*
X158530327Y-113207808D01*
X158186799Y-113065162D01*
X157814833Y-113064838D01*
X157693431Y-113115000D01*
X151437506Y-113115000D01*
X151430327Y-113107808D01*
X151086799Y-112965162D01*
X150714833Y-112964838D01*
X150371057Y-113106883D01*
X150107808Y-113369673D01*
X149965162Y-113713201D01*
X149964964Y-113940000D01*
X143670896Y-113940000D01*
X143571961Y-113442622D01*
X143250054Y-112960853D01*
X142964422Y-112770000D01*
X143250054Y-112579147D01*
X143571961Y-112097378D01*
X143685000Y-111529093D01*
X143685000Y-111470907D01*
X143571961Y-110902622D01*
X143250054Y-110420853D01*
X142768285Y-110098946D01*
X142200000Y-109985907D01*
X141631715Y-110098946D01*
X141149946Y-110420853D01*
X140930000Y-110750026D01*
X140710054Y-110420853D01*
X140228285Y-110098946D01*
X139660000Y-109985907D01*
X139091715Y-110098946D01*
X138609946Y-110420853D01*
X138288039Y-110902622D01*
X138175000Y-111470907D01*
X138175000Y-111529093D01*
X138288039Y-112097378D01*
X138609946Y-112579147D01*
X138611179Y-112579971D01*
X138574683Y-112586838D01*
X138358559Y-112725910D01*
X138213569Y-112938110D01*
X138162560Y-113190000D01*
X138162560Y-114890000D01*
X138206838Y-115125317D01*
X138216293Y-115140011D01*
X137420169Y-115140011D01*
X135885000Y-113604842D01*
X135885000Y-88525158D01*
X137063082Y-87347076D01*
X137400000Y-87414093D01*
X137968285Y-87301054D01*
X138450054Y-86979147D01*
X138771961Y-86497378D01*
X138885000Y-85929093D01*
X138885000Y-85870907D01*
X138771961Y-85302622D01*
X138760186Y-85285000D01*
X139874842Y-85285000D01*
X142464847Y-87875005D01*
M02*
