G04 #@! TF.FileFunction,Other,Fab,Bot*
%FSLAX46Y46*%
G04 Gerber Fmt 4.6, Leading zero omitted, Abs format (unit mm)*
G04 Created by KiCad (PCBNEW 4.0.4-stable) date 05/31/17 10:55:34*
%MOMM*%
%LPD*%
G01*
G04 APERTURE LIST*
%ADD10C,0.100000*%
%ADD11C,0.150000*%
%ADD12C,0.075000*%
%ADD13C,0.135000*%
G04 APERTURE END LIST*
D10*
X150200000Y-110600000D02*
X150200000Y-108150000D01*
X150750000Y-111170000D02*
X151600000Y-111170000D01*
X150200000Y-110600000D02*
X150750000Y-111170000D01*
X151600000Y-111170000D02*
X151600000Y-108130000D01*
X150200000Y-108130000D02*
X151600000Y-108130000D01*
D11*
X127735000Y-98420000D02*
X127735000Y-101320000D01*
X127735000Y-101320000D02*
X137635000Y-101320000D01*
X137635000Y-101320000D02*
X137635000Y-97420000D01*
X137635000Y-97420000D02*
X128735000Y-97420000D01*
X128735000Y-97420000D02*
X127735000Y-98420000D01*
D10*
X135550000Y-94960000D02*
X135550000Y-93720000D01*
X133550000Y-94960000D02*
X135550000Y-94960000D01*
X133550000Y-93720000D02*
X133550000Y-94960000D01*
X135550000Y-93720000D02*
X133550000Y-93720000D01*
X125150000Y-103700000D02*
X126390000Y-103700000D01*
X125150000Y-101700000D02*
X125150000Y-103700000D01*
X126390000Y-101700000D02*
X125150000Y-101700000D01*
X126390000Y-103700000D02*
X126390000Y-101700000D01*
X128030000Y-103480000D02*
X128030000Y-104720000D01*
X130030000Y-103480000D02*
X128030000Y-103480000D01*
X130030000Y-104720000D02*
X130030000Y-103480000D01*
X128030000Y-104720000D02*
X130030000Y-104720000D01*
X126390000Y-96950000D02*
X125150000Y-96950000D01*
X126390000Y-98950000D02*
X126390000Y-96950000D01*
X125150000Y-98950000D02*
X126390000Y-98950000D01*
X125150000Y-96950000D02*
X125150000Y-98950000D01*
X128780000Y-93700000D02*
X128780000Y-94940000D01*
X130780000Y-93700000D02*
X128780000Y-93700000D01*
X130780000Y-94940000D02*
X130780000Y-93700000D01*
X128780000Y-94940000D02*
X130780000Y-94940000D01*
X157700000Y-110500000D02*
X157700000Y-108050000D01*
X158250000Y-111070000D02*
X159100000Y-111070000D01*
X157700000Y-110500000D02*
X158250000Y-111070000D01*
X159100000Y-111070000D02*
X159100000Y-108030000D01*
X157700000Y-108030000D02*
X159100000Y-108030000D01*
X171700000Y-110350000D02*
X171700000Y-107900000D01*
X172250000Y-110920000D02*
X173100000Y-110920000D01*
X171700000Y-110350000D02*
X172250000Y-110920000D01*
X173100000Y-110920000D02*
X173100000Y-107880000D01*
X171700000Y-107880000D02*
X173100000Y-107880000D01*
X164500000Y-110550000D02*
X164500000Y-108100000D01*
X165050000Y-111120000D02*
X165900000Y-111120000D01*
X164500000Y-110550000D02*
X165050000Y-111120000D01*
X165900000Y-111120000D02*
X165900000Y-108080000D01*
X164500000Y-108080000D02*
X165900000Y-108080000D01*
X149900000Y-78400000D02*
X149900000Y-80850000D01*
X149350000Y-77830000D02*
X148500000Y-77830000D01*
X149900000Y-78400000D02*
X149350000Y-77830000D01*
X148500000Y-77830000D02*
X148500000Y-80870000D01*
X149900000Y-80870000D02*
X148500000Y-80870000D01*
X157100000Y-78450000D02*
X157100000Y-80900000D01*
X156550000Y-77880000D02*
X155700000Y-77880000D01*
X157100000Y-78450000D02*
X156550000Y-77880000D01*
X155700000Y-77880000D02*
X155700000Y-80920000D01*
X157100000Y-80920000D02*
X155700000Y-80920000D01*
X164100000Y-78450000D02*
X164100000Y-80900000D01*
X163550000Y-77880000D02*
X162700000Y-77880000D01*
X164100000Y-78450000D02*
X163550000Y-77880000D01*
X162700000Y-77880000D02*
X162700000Y-80920000D01*
X164100000Y-80920000D02*
X162700000Y-80920000D01*
X170900000Y-78450000D02*
X170900000Y-80900000D01*
X170350000Y-77880000D02*
X169500000Y-77880000D01*
X170900000Y-78450000D02*
X170350000Y-77880000D01*
X169500000Y-77880000D02*
X169500000Y-80920000D01*
X170900000Y-80920000D02*
X169500000Y-80920000D01*
X152600000Y-113020000D02*
X152600000Y-111780000D01*
X150600000Y-113020000D02*
X152600000Y-113020000D01*
X150600000Y-111780000D02*
X150600000Y-113020000D01*
X152600000Y-111780000D02*
X150600000Y-111780000D01*
X160100000Y-112920000D02*
X160100000Y-111680000D01*
X158100000Y-112920000D02*
X160100000Y-112920000D01*
X158100000Y-111680000D02*
X158100000Y-112920000D01*
X160100000Y-111680000D02*
X158100000Y-111680000D01*
X174050000Y-112820000D02*
X174050000Y-111580000D01*
X172050000Y-112820000D02*
X174050000Y-112820000D01*
X172050000Y-111580000D02*
X172050000Y-112820000D01*
X174050000Y-111580000D02*
X172050000Y-111580000D01*
X166850000Y-112920000D02*
X166850000Y-111680000D01*
X164850000Y-112920000D02*
X166850000Y-112920000D01*
X164850000Y-111680000D02*
X164850000Y-112920000D01*
X166850000Y-111680000D02*
X164850000Y-111680000D01*
X148820000Y-109250000D02*
X147580000Y-109250000D01*
X148820000Y-111250000D02*
X148820000Y-109250000D01*
X147580000Y-111250000D02*
X148820000Y-111250000D01*
X147580000Y-109250000D02*
X147580000Y-111250000D01*
X156320000Y-109150000D02*
X155080000Y-109150000D01*
X156320000Y-111150000D02*
X156320000Y-109150000D01*
X155080000Y-111150000D02*
X156320000Y-111150000D01*
X155080000Y-109150000D02*
X155080000Y-111150000D01*
X170320000Y-109050000D02*
X169080000Y-109050000D01*
X170320000Y-111050000D02*
X170320000Y-109050000D01*
X169080000Y-111050000D02*
X170320000Y-111050000D01*
X169080000Y-109050000D02*
X169080000Y-111050000D01*
X163120000Y-109150000D02*
X161880000Y-109150000D01*
X163120000Y-111150000D02*
X163120000Y-109150000D01*
X161880000Y-111150000D02*
X163120000Y-111150000D01*
X161880000Y-109150000D02*
X161880000Y-111150000D01*
X151280000Y-79050000D02*
X152520000Y-79050000D01*
X151280000Y-77050000D02*
X151280000Y-79050000D01*
X152520000Y-77050000D02*
X151280000Y-77050000D01*
X152520000Y-79050000D02*
X152520000Y-77050000D01*
X158480000Y-79050000D02*
X159720000Y-79050000D01*
X158480000Y-77050000D02*
X158480000Y-79050000D01*
X159720000Y-77050000D02*
X158480000Y-77050000D01*
X159720000Y-79050000D02*
X159720000Y-77050000D01*
X165480000Y-79050000D02*
X166720000Y-79050000D01*
X165480000Y-77050000D02*
X165480000Y-79050000D01*
X166720000Y-77050000D02*
X165480000Y-77050000D01*
X166720000Y-79050000D02*
X166720000Y-77050000D01*
X172280000Y-79050000D02*
X173520000Y-79050000D01*
X172280000Y-77050000D02*
X172280000Y-79050000D01*
X173520000Y-77050000D02*
X172280000Y-77050000D01*
X173520000Y-79050000D02*
X173520000Y-77050000D01*
X149550000Y-77220000D02*
X149550000Y-75980000D01*
X147550000Y-77220000D02*
X149550000Y-77220000D01*
X147550000Y-75980000D02*
X147550000Y-77220000D01*
X149550000Y-75980000D02*
X147550000Y-75980000D01*
X156750000Y-77220000D02*
X156750000Y-75980000D01*
X154750000Y-77220000D02*
X156750000Y-77220000D01*
X154750000Y-75980000D02*
X154750000Y-77220000D01*
X156750000Y-75980000D02*
X154750000Y-75980000D01*
X163750000Y-77220000D02*
X163750000Y-75980000D01*
X161750000Y-77220000D02*
X163750000Y-77220000D01*
X161750000Y-75980000D02*
X161750000Y-77220000D01*
X163750000Y-75980000D02*
X161750000Y-75980000D01*
X170550000Y-77220000D02*
X170550000Y-75980000D01*
X168550000Y-77220000D02*
X170550000Y-77220000D01*
X168550000Y-75980000D02*
X168550000Y-77220000D01*
X170550000Y-75980000D02*
X168550000Y-75980000D01*
D11*
X153209523Y-107078571D02*
X153066666Y-107126190D01*
X153019047Y-107173810D01*
X152971428Y-107269048D01*
X152971428Y-107411905D01*
X153019047Y-107507143D01*
X153066666Y-107554762D01*
X153161904Y-107602381D01*
X153542857Y-107602381D01*
X153542857Y-106602381D01*
X153209523Y-106602381D01*
X153114285Y-106650000D01*
X153066666Y-106697619D01*
X153019047Y-106792857D01*
X153019047Y-106888095D01*
X153066666Y-106983333D01*
X153114285Y-107030952D01*
X153209523Y-107078571D01*
X153542857Y-107078571D01*
X152590476Y-107554762D02*
X152447619Y-107602381D01*
X152209523Y-107602381D01*
X152114285Y-107554762D01*
X152066666Y-107507143D01*
X152019047Y-107411905D01*
X152019047Y-107316667D01*
X152066666Y-107221429D01*
X152114285Y-107173810D01*
X152209523Y-107126190D01*
X152400000Y-107078571D01*
X152495238Y-107030952D01*
X152542857Y-106983333D01*
X152590476Y-106888095D01*
X152590476Y-106792857D01*
X152542857Y-106697619D01*
X152495238Y-106650000D01*
X152400000Y-106602381D01*
X152161904Y-106602381D01*
X152019047Y-106650000D01*
X151638095Y-107554762D02*
X151495238Y-107602381D01*
X151257142Y-107602381D01*
X151161904Y-107554762D01*
X151114285Y-107507143D01*
X151066666Y-107411905D01*
X151066666Y-107316667D01*
X151114285Y-107221429D01*
X151161904Y-107173810D01*
X151257142Y-107126190D01*
X151447619Y-107078571D01*
X151542857Y-107030952D01*
X151590476Y-106983333D01*
X151638095Y-106888095D01*
X151638095Y-106792857D01*
X151590476Y-106697619D01*
X151542857Y-106650000D01*
X151447619Y-106602381D01*
X151209523Y-106602381D01*
X151066666Y-106650000D01*
X150114285Y-107602381D02*
X150685714Y-107602381D01*
X150400000Y-107602381D02*
X150400000Y-106602381D01*
X150495238Y-106745238D01*
X150590476Y-106840476D01*
X150685714Y-106888095D01*
X149780952Y-106602381D02*
X149161904Y-106602381D01*
X149495238Y-106983333D01*
X149352380Y-106983333D01*
X149257142Y-107030952D01*
X149209523Y-107078571D01*
X149161904Y-107173810D01*
X149161904Y-107411905D01*
X149209523Y-107507143D01*
X149257142Y-107554762D01*
X149352380Y-107602381D01*
X149638095Y-107602381D01*
X149733333Y-107554762D01*
X149780952Y-107507143D01*
X148590476Y-107030952D02*
X148685714Y-106983333D01*
X148733333Y-106935714D01*
X148780952Y-106840476D01*
X148780952Y-106792857D01*
X148733333Y-106697619D01*
X148685714Y-106650000D01*
X148590476Y-106602381D01*
X148399999Y-106602381D01*
X148304761Y-106650000D01*
X148257142Y-106697619D01*
X148209523Y-106792857D01*
X148209523Y-106840476D01*
X148257142Y-106935714D01*
X148304761Y-106983333D01*
X148399999Y-107030952D01*
X148590476Y-107030952D01*
X148685714Y-107078571D01*
X148733333Y-107126190D01*
X148780952Y-107221429D01*
X148780952Y-107411905D01*
X148733333Y-107507143D01*
X148685714Y-107554762D01*
X148590476Y-107602381D01*
X148399999Y-107602381D01*
X148304761Y-107554762D01*
X148257142Y-107507143D01*
X148209523Y-107411905D01*
X148209523Y-107221429D01*
X148257142Y-107126190D01*
X148304761Y-107078571D01*
X148399999Y-107030952D01*
D12*
X150947619Y-109923810D02*
X150995238Y-109900000D01*
X151042857Y-109852381D01*
X151114286Y-109780952D01*
X151161905Y-109757143D01*
X151209524Y-109757143D01*
X151185714Y-109876190D02*
X151233333Y-109852381D01*
X151280952Y-109804762D01*
X151304762Y-109709524D01*
X151304762Y-109542857D01*
X151280952Y-109447619D01*
X151233333Y-109400000D01*
X151185714Y-109376190D01*
X151090476Y-109376190D01*
X151042857Y-109400000D01*
X150995238Y-109447619D01*
X150971429Y-109542857D01*
X150971429Y-109709524D01*
X150995238Y-109804762D01*
X151042857Y-109852381D01*
X151090476Y-109876190D01*
X151185714Y-109876190D01*
X150542857Y-109542857D02*
X150542857Y-109876190D01*
X150661904Y-109352381D02*
X150780952Y-109709524D01*
X150471428Y-109709524D01*
D11*
X134876667Y-100252381D02*
X134876667Y-99252381D01*
X134543333Y-99966667D01*
X134210000Y-99252381D01*
X134210000Y-100252381D01*
X133781429Y-99966667D02*
X133305238Y-99966667D01*
X133876667Y-100252381D02*
X133543334Y-99252381D01*
X133210000Y-100252381D01*
X132971905Y-99252381D02*
X132305238Y-100252381D01*
X132305238Y-99252381D02*
X132971905Y-100252381D01*
X131971905Y-99347619D02*
X131924286Y-99300000D01*
X131829048Y-99252381D01*
X131590952Y-99252381D01*
X131495714Y-99300000D01*
X131448095Y-99347619D01*
X131400476Y-99442857D01*
X131400476Y-99538095D01*
X131448095Y-99680952D01*
X132019524Y-100252381D01*
X131400476Y-100252381D01*
X131067143Y-99252381D02*
X130448095Y-99252381D01*
X130781429Y-99633333D01*
X130638571Y-99633333D01*
X130543333Y-99680952D01*
X130495714Y-99728571D01*
X130448095Y-99823810D01*
X130448095Y-100061905D01*
X130495714Y-100157143D01*
X130543333Y-100204762D01*
X130638571Y-100252381D01*
X130924286Y-100252381D01*
X131019524Y-100204762D01*
X131067143Y-100157143D01*
X130067143Y-99347619D02*
X130019524Y-99300000D01*
X129924286Y-99252381D01*
X129686190Y-99252381D01*
X129590952Y-99300000D01*
X129543333Y-99347619D01*
X129495714Y-99442857D01*
X129495714Y-99538095D01*
X129543333Y-99680952D01*
X130114762Y-100252381D01*
X129495714Y-100252381D01*
D13*
X131867143Y-97694286D02*
X132595714Y-97694286D01*
X132681429Y-97737143D01*
X132724286Y-97780000D01*
X132767143Y-97865714D01*
X132767143Y-98037143D01*
X132724286Y-98122857D01*
X132681429Y-98165714D01*
X132595714Y-98208571D01*
X131867143Y-98208571D01*
X131867143Y-98551428D02*
X131867143Y-99108571D01*
X132210000Y-98808571D01*
X132210000Y-98937143D01*
X132252857Y-99022857D01*
X132295714Y-99065714D01*
X132381429Y-99108571D01*
X132595714Y-99108571D01*
X132681429Y-99065714D01*
X132724286Y-99022857D01*
X132767143Y-98937143D01*
X132767143Y-98680000D01*
X132724286Y-98594286D01*
X132681429Y-98551428D01*
D11*
X135145238Y-96542381D02*
X135716667Y-96542381D01*
X135430953Y-96542381D02*
X135430953Y-95542381D01*
X135526191Y-95685238D01*
X135621429Y-95780476D01*
X135716667Y-95828095D01*
X134288095Y-95875714D02*
X134288095Y-96542381D01*
X134716667Y-95875714D02*
X134716667Y-96399524D01*
X134669048Y-96494762D01*
X134573810Y-96542381D01*
X134430952Y-96542381D01*
X134335714Y-96494762D01*
X134288095Y-96447143D01*
X133478571Y-96018571D02*
X133811905Y-96018571D01*
X133811905Y-96542381D02*
X133811905Y-95542381D01*
X133335714Y-95542381D01*
X135192857Y-92947143D02*
X135240476Y-92994762D01*
X135383333Y-93042381D01*
X135478571Y-93042381D01*
X135621429Y-92994762D01*
X135716667Y-92899524D01*
X135764286Y-92804286D01*
X135811905Y-92613810D01*
X135811905Y-92470952D01*
X135764286Y-92280476D01*
X135716667Y-92185238D01*
X135621429Y-92090000D01*
X135478571Y-92042381D01*
X135383333Y-92042381D01*
X135240476Y-92090000D01*
X135192857Y-92137619D01*
X134240476Y-93042381D02*
X134811905Y-93042381D01*
X134526191Y-93042381D02*
X134526191Y-92042381D01*
X134621429Y-92185238D01*
X134716667Y-92280476D01*
X134811905Y-92328095D01*
X133621429Y-92042381D02*
X133526190Y-92042381D01*
X133430952Y-92090000D01*
X133383333Y-92137619D01*
X133335714Y-92232857D01*
X133288095Y-92423333D01*
X133288095Y-92661429D01*
X133335714Y-92851905D01*
X133383333Y-92947143D01*
X133430952Y-92994762D01*
X133526190Y-93042381D01*
X133621429Y-93042381D01*
X133716667Y-92994762D01*
X133764286Y-92947143D01*
X133811905Y-92851905D01*
X133859524Y-92661429D01*
X133859524Y-92423333D01*
X133811905Y-92232857D01*
X133764286Y-92137619D01*
X133716667Y-92090000D01*
X133621429Y-92042381D01*
X126222381Y-98494762D02*
X126222381Y-97923333D01*
X126222381Y-98209047D02*
X125222381Y-98209047D01*
X125365238Y-98113809D01*
X125460476Y-98018571D01*
X125508095Y-97923333D01*
X125555714Y-99351905D02*
X126222381Y-99351905D01*
X125555714Y-98923333D02*
X126079524Y-98923333D01*
X126174762Y-98970952D01*
X126222381Y-99066190D01*
X126222381Y-99209048D01*
X126174762Y-99304286D01*
X126127143Y-99351905D01*
X125698571Y-100161429D02*
X125698571Y-99828095D01*
X126222381Y-99828095D02*
X125222381Y-99828095D01*
X125222381Y-100304286D01*
X126037143Y-102443334D02*
X126084762Y-102395715D01*
X126132381Y-102252858D01*
X126132381Y-102157620D01*
X126084762Y-102014762D01*
X125989524Y-101919524D01*
X125894286Y-101871905D01*
X125703810Y-101824286D01*
X125560952Y-101824286D01*
X125370476Y-101871905D01*
X125275238Y-101919524D01*
X125180000Y-102014762D01*
X125132381Y-102157620D01*
X125132381Y-102252858D01*
X125180000Y-102395715D01*
X125227619Y-102443334D01*
X126132381Y-102919524D02*
X126132381Y-103110000D01*
X126084762Y-103205239D01*
X126037143Y-103252858D01*
X125894286Y-103348096D01*
X125703810Y-103395715D01*
X125322857Y-103395715D01*
X125227619Y-103348096D01*
X125180000Y-103300477D01*
X125132381Y-103205239D01*
X125132381Y-103014762D01*
X125180000Y-102919524D01*
X125227619Y-102871905D01*
X125322857Y-102824286D01*
X125560952Y-102824286D01*
X125656190Y-102871905D01*
X125703810Y-102919524D01*
X125751429Y-103014762D01*
X125751429Y-103205239D01*
X125703810Y-103300477D01*
X125656190Y-103348096D01*
X125560952Y-103395715D01*
X129625238Y-102802381D02*
X130196667Y-102802381D01*
X129910953Y-102802381D02*
X129910953Y-101802381D01*
X130006191Y-101945238D01*
X130101429Y-102040476D01*
X130196667Y-102088095D01*
X128768095Y-102135714D02*
X128768095Y-102802381D01*
X129196667Y-102135714D02*
X129196667Y-102659524D01*
X129149048Y-102754762D01*
X129053810Y-102802381D01*
X128910952Y-102802381D01*
X128815714Y-102754762D01*
X128768095Y-102707143D01*
X127958571Y-102278571D02*
X128291905Y-102278571D01*
X128291905Y-102802381D02*
X128291905Y-101802381D01*
X127815714Y-101802381D01*
X129196666Y-106207143D02*
X129244285Y-106254762D01*
X129387142Y-106302381D01*
X129482380Y-106302381D01*
X129625238Y-106254762D01*
X129720476Y-106159524D01*
X129768095Y-106064286D01*
X129815714Y-105873810D01*
X129815714Y-105730952D01*
X129768095Y-105540476D01*
X129720476Y-105445238D01*
X129625238Y-105350000D01*
X129482380Y-105302381D01*
X129387142Y-105302381D01*
X129244285Y-105350000D01*
X129196666Y-105397619D01*
X128863333Y-105302381D02*
X128244285Y-105302381D01*
X128577619Y-105683333D01*
X128434761Y-105683333D01*
X128339523Y-105730952D01*
X128291904Y-105778571D01*
X128244285Y-105873810D01*
X128244285Y-106111905D01*
X128291904Y-106207143D01*
X128339523Y-106254762D01*
X128434761Y-106302381D01*
X128720476Y-106302381D01*
X128815714Y-106254762D01*
X128863333Y-106207143D01*
X127972381Y-97354762D02*
X127972381Y-96783333D01*
X127972381Y-97069047D02*
X126972381Y-97069047D01*
X127115238Y-96973809D01*
X127210476Y-96878571D01*
X127258095Y-96783333D01*
X127305714Y-98211905D02*
X127972381Y-98211905D01*
X127305714Y-97783333D02*
X127829524Y-97783333D01*
X127924762Y-97830952D01*
X127972381Y-97926190D01*
X127972381Y-98069048D01*
X127924762Y-98164286D01*
X127877143Y-98211905D01*
X127448571Y-99021429D02*
X127448571Y-98688095D01*
X127972381Y-98688095D02*
X126972381Y-98688095D01*
X126972381Y-99164286D01*
X128957143Y-97763334D02*
X129004762Y-97715715D01*
X129052381Y-97572858D01*
X129052381Y-97477620D01*
X129004762Y-97334762D01*
X128909524Y-97239524D01*
X128814286Y-97191905D01*
X128623810Y-97144286D01*
X128480952Y-97144286D01*
X128290476Y-97191905D01*
X128195238Y-97239524D01*
X128100000Y-97334762D01*
X128052381Y-97477620D01*
X128052381Y-97572858D01*
X128100000Y-97715715D01*
X128147619Y-97763334D01*
X128052381Y-98096667D02*
X128052381Y-98763334D01*
X129052381Y-98334762D01*
X130455238Y-94722381D02*
X131026667Y-94722381D01*
X130740953Y-94722381D02*
X130740953Y-93722381D01*
X130836191Y-93865238D01*
X130931429Y-93960476D01*
X131026667Y-94008095D01*
X129598095Y-94055714D02*
X129598095Y-94722381D01*
X130026667Y-94055714D02*
X130026667Y-94579524D01*
X129979048Y-94674762D01*
X129883810Y-94722381D01*
X129740952Y-94722381D01*
X129645714Y-94674762D01*
X129598095Y-94627143D01*
X128788571Y-94198571D02*
X129121905Y-94198571D01*
X129121905Y-94722381D02*
X129121905Y-93722381D01*
X128645714Y-93722381D01*
X130106666Y-93057143D02*
X130154285Y-93104762D01*
X130297142Y-93152381D01*
X130392380Y-93152381D01*
X130535238Y-93104762D01*
X130630476Y-93009524D01*
X130678095Y-92914286D01*
X130725714Y-92723810D01*
X130725714Y-92580952D01*
X130678095Y-92390476D01*
X130630476Y-92295238D01*
X130535238Y-92200000D01*
X130392380Y-92152381D01*
X130297142Y-92152381D01*
X130154285Y-92200000D01*
X130106666Y-92247619D01*
X129535238Y-92580952D02*
X129630476Y-92533333D01*
X129678095Y-92485714D01*
X129725714Y-92390476D01*
X129725714Y-92342857D01*
X129678095Y-92247619D01*
X129630476Y-92200000D01*
X129535238Y-92152381D01*
X129344761Y-92152381D01*
X129249523Y-92200000D01*
X129201904Y-92247619D01*
X129154285Y-92342857D01*
X129154285Y-92390476D01*
X129201904Y-92485714D01*
X129249523Y-92533333D01*
X129344761Y-92580952D01*
X129535238Y-92580952D01*
X129630476Y-92628571D01*
X129678095Y-92676190D01*
X129725714Y-92771429D01*
X129725714Y-92961905D01*
X129678095Y-93057143D01*
X129630476Y-93104762D01*
X129535238Y-93152381D01*
X129344761Y-93152381D01*
X129249523Y-93104762D01*
X129201904Y-93057143D01*
X129154285Y-92961905D01*
X129154285Y-92771429D01*
X129201904Y-92676190D01*
X129249523Y-92628571D01*
X129344761Y-92580952D01*
X160709523Y-106978571D02*
X160566666Y-107026190D01*
X160519047Y-107073810D01*
X160471428Y-107169048D01*
X160471428Y-107311905D01*
X160519047Y-107407143D01*
X160566666Y-107454762D01*
X160661904Y-107502381D01*
X161042857Y-107502381D01*
X161042857Y-106502381D01*
X160709523Y-106502381D01*
X160614285Y-106550000D01*
X160566666Y-106597619D01*
X160519047Y-106692857D01*
X160519047Y-106788095D01*
X160566666Y-106883333D01*
X160614285Y-106930952D01*
X160709523Y-106978571D01*
X161042857Y-106978571D01*
X160090476Y-107454762D02*
X159947619Y-107502381D01*
X159709523Y-107502381D01*
X159614285Y-107454762D01*
X159566666Y-107407143D01*
X159519047Y-107311905D01*
X159519047Y-107216667D01*
X159566666Y-107121429D01*
X159614285Y-107073810D01*
X159709523Y-107026190D01*
X159900000Y-106978571D01*
X159995238Y-106930952D01*
X160042857Y-106883333D01*
X160090476Y-106788095D01*
X160090476Y-106692857D01*
X160042857Y-106597619D01*
X159995238Y-106550000D01*
X159900000Y-106502381D01*
X159661904Y-106502381D01*
X159519047Y-106550000D01*
X159138095Y-107454762D02*
X158995238Y-107502381D01*
X158757142Y-107502381D01*
X158661904Y-107454762D01*
X158614285Y-107407143D01*
X158566666Y-107311905D01*
X158566666Y-107216667D01*
X158614285Y-107121429D01*
X158661904Y-107073810D01*
X158757142Y-107026190D01*
X158947619Y-106978571D01*
X159042857Y-106930952D01*
X159090476Y-106883333D01*
X159138095Y-106788095D01*
X159138095Y-106692857D01*
X159090476Y-106597619D01*
X159042857Y-106550000D01*
X158947619Y-106502381D01*
X158709523Y-106502381D01*
X158566666Y-106550000D01*
X157614285Y-107502381D02*
X158185714Y-107502381D01*
X157900000Y-107502381D02*
X157900000Y-106502381D01*
X157995238Y-106645238D01*
X158090476Y-106740476D01*
X158185714Y-106788095D01*
X157280952Y-106502381D02*
X156661904Y-106502381D01*
X156995238Y-106883333D01*
X156852380Y-106883333D01*
X156757142Y-106930952D01*
X156709523Y-106978571D01*
X156661904Y-107073810D01*
X156661904Y-107311905D01*
X156709523Y-107407143D01*
X156757142Y-107454762D01*
X156852380Y-107502381D01*
X157138095Y-107502381D01*
X157233333Y-107454762D01*
X157280952Y-107407143D01*
X156090476Y-106930952D02*
X156185714Y-106883333D01*
X156233333Y-106835714D01*
X156280952Y-106740476D01*
X156280952Y-106692857D01*
X156233333Y-106597619D01*
X156185714Y-106550000D01*
X156090476Y-106502381D01*
X155899999Y-106502381D01*
X155804761Y-106550000D01*
X155757142Y-106597619D01*
X155709523Y-106692857D01*
X155709523Y-106740476D01*
X155757142Y-106835714D01*
X155804761Y-106883333D01*
X155899999Y-106930952D01*
X156090476Y-106930952D01*
X156185714Y-106978571D01*
X156233333Y-107026190D01*
X156280952Y-107121429D01*
X156280952Y-107311905D01*
X156233333Y-107407143D01*
X156185714Y-107454762D01*
X156090476Y-107502381D01*
X155899999Y-107502381D01*
X155804761Y-107454762D01*
X155757142Y-107407143D01*
X155709523Y-107311905D01*
X155709523Y-107121429D01*
X155757142Y-107026190D01*
X155804761Y-106978571D01*
X155899999Y-106930952D01*
D12*
X158447619Y-109823810D02*
X158495238Y-109800000D01*
X158542857Y-109752381D01*
X158614286Y-109680952D01*
X158661905Y-109657143D01*
X158709524Y-109657143D01*
X158685714Y-109776190D02*
X158733333Y-109752381D01*
X158780952Y-109704762D01*
X158804762Y-109609524D01*
X158804762Y-109442857D01*
X158780952Y-109347619D01*
X158733333Y-109300000D01*
X158685714Y-109276190D01*
X158590476Y-109276190D01*
X158542857Y-109300000D01*
X158495238Y-109347619D01*
X158471429Y-109442857D01*
X158471429Y-109609524D01*
X158495238Y-109704762D01*
X158542857Y-109752381D01*
X158590476Y-109776190D01*
X158685714Y-109776190D01*
X158019047Y-109276190D02*
X158257142Y-109276190D01*
X158280952Y-109514286D01*
X158257142Y-109490476D01*
X158209523Y-109466667D01*
X158090476Y-109466667D01*
X158042857Y-109490476D01*
X158019047Y-109514286D01*
X157995238Y-109561905D01*
X157995238Y-109680952D01*
X158019047Y-109728571D01*
X158042857Y-109752381D01*
X158090476Y-109776190D01*
X158209523Y-109776190D01*
X158257142Y-109752381D01*
X158280952Y-109728571D01*
D11*
X174709523Y-106828571D02*
X174566666Y-106876190D01*
X174519047Y-106923810D01*
X174471428Y-107019048D01*
X174471428Y-107161905D01*
X174519047Y-107257143D01*
X174566666Y-107304762D01*
X174661904Y-107352381D01*
X175042857Y-107352381D01*
X175042857Y-106352381D01*
X174709523Y-106352381D01*
X174614285Y-106400000D01*
X174566666Y-106447619D01*
X174519047Y-106542857D01*
X174519047Y-106638095D01*
X174566666Y-106733333D01*
X174614285Y-106780952D01*
X174709523Y-106828571D01*
X175042857Y-106828571D01*
X174090476Y-107304762D02*
X173947619Y-107352381D01*
X173709523Y-107352381D01*
X173614285Y-107304762D01*
X173566666Y-107257143D01*
X173519047Y-107161905D01*
X173519047Y-107066667D01*
X173566666Y-106971429D01*
X173614285Y-106923810D01*
X173709523Y-106876190D01*
X173900000Y-106828571D01*
X173995238Y-106780952D01*
X174042857Y-106733333D01*
X174090476Y-106638095D01*
X174090476Y-106542857D01*
X174042857Y-106447619D01*
X173995238Y-106400000D01*
X173900000Y-106352381D01*
X173661904Y-106352381D01*
X173519047Y-106400000D01*
X173138095Y-107304762D02*
X172995238Y-107352381D01*
X172757142Y-107352381D01*
X172661904Y-107304762D01*
X172614285Y-107257143D01*
X172566666Y-107161905D01*
X172566666Y-107066667D01*
X172614285Y-106971429D01*
X172661904Y-106923810D01*
X172757142Y-106876190D01*
X172947619Y-106828571D01*
X173042857Y-106780952D01*
X173090476Y-106733333D01*
X173138095Y-106638095D01*
X173138095Y-106542857D01*
X173090476Y-106447619D01*
X173042857Y-106400000D01*
X172947619Y-106352381D01*
X172709523Y-106352381D01*
X172566666Y-106400000D01*
X171614285Y-107352381D02*
X172185714Y-107352381D01*
X171900000Y-107352381D02*
X171900000Y-106352381D01*
X171995238Y-106495238D01*
X172090476Y-106590476D01*
X172185714Y-106638095D01*
X171280952Y-106352381D02*
X170661904Y-106352381D01*
X170995238Y-106733333D01*
X170852380Y-106733333D01*
X170757142Y-106780952D01*
X170709523Y-106828571D01*
X170661904Y-106923810D01*
X170661904Y-107161905D01*
X170709523Y-107257143D01*
X170757142Y-107304762D01*
X170852380Y-107352381D01*
X171138095Y-107352381D01*
X171233333Y-107304762D01*
X171280952Y-107257143D01*
X170090476Y-106780952D02*
X170185714Y-106733333D01*
X170233333Y-106685714D01*
X170280952Y-106590476D01*
X170280952Y-106542857D01*
X170233333Y-106447619D01*
X170185714Y-106400000D01*
X170090476Y-106352381D01*
X169899999Y-106352381D01*
X169804761Y-106400000D01*
X169757142Y-106447619D01*
X169709523Y-106542857D01*
X169709523Y-106590476D01*
X169757142Y-106685714D01*
X169804761Y-106733333D01*
X169899999Y-106780952D01*
X170090476Y-106780952D01*
X170185714Y-106828571D01*
X170233333Y-106876190D01*
X170280952Y-106971429D01*
X170280952Y-107161905D01*
X170233333Y-107257143D01*
X170185714Y-107304762D01*
X170090476Y-107352381D01*
X169899999Y-107352381D01*
X169804761Y-107304762D01*
X169757142Y-107257143D01*
X169709523Y-107161905D01*
X169709523Y-106971429D01*
X169757142Y-106876190D01*
X169804761Y-106828571D01*
X169899999Y-106780952D01*
D12*
X172447619Y-109673810D02*
X172495238Y-109650000D01*
X172542857Y-109602381D01*
X172614286Y-109530952D01*
X172661905Y-109507143D01*
X172709524Y-109507143D01*
X172685714Y-109626190D02*
X172733333Y-109602381D01*
X172780952Y-109554762D01*
X172804762Y-109459524D01*
X172804762Y-109292857D01*
X172780952Y-109197619D01*
X172733333Y-109150000D01*
X172685714Y-109126190D01*
X172590476Y-109126190D01*
X172542857Y-109150000D01*
X172495238Y-109197619D01*
X172471429Y-109292857D01*
X172471429Y-109459524D01*
X172495238Y-109554762D01*
X172542857Y-109602381D01*
X172590476Y-109626190D01*
X172685714Y-109626190D01*
X172042857Y-109126190D02*
X172138095Y-109126190D01*
X172185714Y-109150000D01*
X172209523Y-109173810D01*
X172257142Y-109245238D01*
X172280952Y-109340476D01*
X172280952Y-109530952D01*
X172257142Y-109578571D01*
X172233333Y-109602381D01*
X172185714Y-109626190D01*
X172090476Y-109626190D01*
X172042857Y-109602381D01*
X172019047Y-109578571D01*
X171995238Y-109530952D01*
X171995238Y-109411905D01*
X172019047Y-109364286D01*
X172042857Y-109340476D01*
X172090476Y-109316667D01*
X172185714Y-109316667D01*
X172233333Y-109340476D01*
X172257142Y-109364286D01*
X172280952Y-109411905D01*
D11*
X167509523Y-107028571D02*
X167366666Y-107076190D01*
X167319047Y-107123810D01*
X167271428Y-107219048D01*
X167271428Y-107361905D01*
X167319047Y-107457143D01*
X167366666Y-107504762D01*
X167461904Y-107552381D01*
X167842857Y-107552381D01*
X167842857Y-106552381D01*
X167509523Y-106552381D01*
X167414285Y-106600000D01*
X167366666Y-106647619D01*
X167319047Y-106742857D01*
X167319047Y-106838095D01*
X167366666Y-106933333D01*
X167414285Y-106980952D01*
X167509523Y-107028571D01*
X167842857Y-107028571D01*
X166890476Y-107504762D02*
X166747619Y-107552381D01*
X166509523Y-107552381D01*
X166414285Y-107504762D01*
X166366666Y-107457143D01*
X166319047Y-107361905D01*
X166319047Y-107266667D01*
X166366666Y-107171429D01*
X166414285Y-107123810D01*
X166509523Y-107076190D01*
X166700000Y-107028571D01*
X166795238Y-106980952D01*
X166842857Y-106933333D01*
X166890476Y-106838095D01*
X166890476Y-106742857D01*
X166842857Y-106647619D01*
X166795238Y-106600000D01*
X166700000Y-106552381D01*
X166461904Y-106552381D01*
X166319047Y-106600000D01*
X165938095Y-107504762D02*
X165795238Y-107552381D01*
X165557142Y-107552381D01*
X165461904Y-107504762D01*
X165414285Y-107457143D01*
X165366666Y-107361905D01*
X165366666Y-107266667D01*
X165414285Y-107171429D01*
X165461904Y-107123810D01*
X165557142Y-107076190D01*
X165747619Y-107028571D01*
X165842857Y-106980952D01*
X165890476Y-106933333D01*
X165938095Y-106838095D01*
X165938095Y-106742857D01*
X165890476Y-106647619D01*
X165842857Y-106600000D01*
X165747619Y-106552381D01*
X165509523Y-106552381D01*
X165366666Y-106600000D01*
X164414285Y-107552381D02*
X164985714Y-107552381D01*
X164700000Y-107552381D02*
X164700000Y-106552381D01*
X164795238Y-106695238D01*
X164890476Y-106790476D01*
X164985714Y-106838095D01*
X164080952Y-106552381D02*
X163461904Y-106552381D01*
X163795238Y-106933333D01*
X163652380Y-106933333D01*
X163557142Y-106980952D01*
X163509523Y-107028571D01*
X163461904Y-107123810D01*
X163461904Y-107361905D01*
X163509523Y-107457143D01*
X163557142Y-107504762D01*
X163652380Y-107552381D01*
X163938095Y-107552381D01*
X164033333Y-107504762D01*
X164080952Y-107457143D01*
X162890476Y-106980952D02*
X162985714Y-106933333D01*
X163033333Y-106885714D01*
X163080952Y-106790476D01*
X163080952Y-106742857D01*
X163033333Y-106647619D01*
X162985714Y-106600000D01*
X162890476Y-106552381D01*
X162699999Y-106552381D01*
X162604761Y-106600000D01*
X162557142Y-106647619D01*
X162509523Y-106742857D01*
X162509523Y-106790476D01*
X162557142Y-106885714D01*
X162604761Y-106933333D01*
X162699999Y-106980952D01*
X162890476Y-106980952D01*
X162985714Y-107028571D01*
X163033333Y-107076190D01*
X163080952Y-107171429D01*
X163080952Y-107361905D01*
X163033333Y-107457143D01*
X162985714Y-107504762D01*
X162890476Y-107552381D01*
X162699999Y-107552381D01*
X162604761Y-107504762D01*
X162557142Y-107457143D01*
X162509523Y-107361905D01*
X162509523Y-107171429D01*
X162557142Y-107076190D01*
X162604761Y-107028571D01*
X162699999Y-106980952D01*
D12*
X165247619Y-109873810D02*
X165295238Y-109850000D01*
X165342857Y-109802381D01*
X165414286Y-109730952D01*
X165461905Y-109707143D01*
X165509524Y-109707143D01*
X165485714Y-109826190D02*
X165533333Y-109802381D01*
X165580952Y-109754762D01*
X165604762Y-109659524D01*
X165604762Y-109492857D01*
X165580952Y-109397619D01*
X165533333Y-109350000D01*
X165485714Y-109326190D01*
X165390476Y-109326190D01*
X165342857Y-109350000D01*
X165295238Y-109397619D01*
X165271429Y-109492857D01*
X165271429Y-109659524D01*
X165295238Y-109754762D01*
X165342857Y-109802381D01*
X165390476Y-109826190D01*
X165485714Y-109826190D01*
X164985714Y-109540476D02*
X165033333Y-109516667D01*
X165057142Y-109492857D01*
X165080952Y-109445238D01*
X165080952Y-109421429D01*
X165057142Y-109373810D01*
X165033333Y-109350000D01*
X164985714Y-109326190D01*
X164890476Y-109326190D01*
X164842857Y-109350000D01*
X164819047Y-109373810D01*
X164795238Y-109421429D01*
X164795238Y-109445238D01*
X164819047Y-109492857D01*
X164842857Y-109516667D01*
X164890476Y-109540476D01*
X164985714Y-109540476D01*
X165033333Y-109564286D01*
X165057142Y-109588095D01*
X165080952Y-109635714D01*
X165080952Y-109730952D01*
X165057142Y-109778571D01*
X165033333Y-109802381D01*
X164985714Y-109826190D01*
X164890476Y-109826190D01*
X164842857Y-109802381D01*
X164819047Y-109778571D01*
X164795238Y-109730952D01*
X164795238Y-109635714D01*
X164819047Y-109588095D01*
X164842857Y-109564286D01*
X164890476Y-109540476D01*
D11*
X151509523Y-81778571D02*
X151366666Y-81826190D01*
X151319047Y-81873810D01*
X151271428Y-81969048D01*
X151271428Y-82111905D01*
X151319047Y-82207143D01*
X151366666Y-82254762D01*
X151461904Y-82302381D01*
X151842857Y-82302381D01*
X151842857Y-81302381D01*
X151509523Y-81302381D01*
X151414285Y-81350000D01*
X151366666Y-81397619D01*
X151319047Y-81492857D01*
X151319047Y-81588095D01*
X151366666Y-81683333D01*
X151414285Y-81730952D01*
X151509523Y-81778571D01*
X151842857Y-81778571D01*
X150890476Y-82254762D02*
X150747619Y-82302381D01*
X150509523Y-82302381D01*
X150414285Y-82254762D01*
X150366666Y-82207143D01*
X150319047Y-82111905D01*
X150319047Y-82016667D01*
X150366666Y-81921429D01*
X150414285Y-81873810D01*
X150509523Y-81826190D01*
X150700000Y-81778571D01*
X150795238Y-81730952D01*
X150842857Y-81683333D01*
X150890476Y-81588095D01*
X150890476Y-81492857D01*
X150842857Y-81397619D01*
X150795238Y-81350000D01*
X150700000Y-81302381D01*
X150461904Y-81302381D01*
X150319047Y-81350000D01*
X149938095Y-82254762D02*
X149795238Y-82302381D01*
X149557142Y-82302381D01*
X149461904Y-82254762D01*
X149414285Y-82207143D01*
X149366666Y-82111905D01*
X149366666Y-82016667D01*
X149414285Y-81921429D01*
X149461904Y-81873810D01*
X149557142Y-81826190D01*
X149747619Y-81778571D01*
X149842857Y-81730952D01*
X149890476Y-81683333D01*
X149938095Y-81588095D01*
X149938095Y-81492857D01*
X149890476Y-81397619D01*
X149842857Y-81350000D01*
X149747619Y-81302381D01*
X149509523Y-81302381D01*
X149366666Y-81350000D01*
X148414285Y-82302381D02*
X148985714Y-82302381D01*
X148700000Y-82302381D02*
X148700000Y-81302381D01*
X148795238Y-81445238D01*
X148890476Y-81540476D01*
X148985714Y-81588095D01*
X148080952Y-81302381D02*
X147461904Y-81302381D01*
X147795238Y-81683333D01*
X147652380Y-81683333D01*
X147557142Y-81730952D01*
X147509523Y-81778571D01*
X147461904Y-81873810D01*
X147461904Y-82111905D01*
X147509523Y-82207143D01*
X147557142Y-82254762D01*
X147652380Y-82302381D01*
X147938095Y-82302381D01*
X148033333Y-82254762D01*
X148080952Y-82207143D01*
X146890476Y-81730952D02*
X146985714Y-81683333D01*
X147033333Y-81635714D01*
X147080952Y-81540476D01*
X147080952Y-81492857D01*
X147033333Y-81397619D01*
X146985714Y-81350000D01*
X146890476Y-81302381D01*
X146699999Y-81302381D01*
X146604761Y-81350000D01*
X146557142Y-81397619D01*
X146509523Y-81492857D01*
X146509523Y-81540476D01*
X146557142Y-81635714D01*
X146604761Y-81683333D01*
X146699999Y-81730952D01*
X146890476Y-81730952D01*
X146985714Y-81778571D01*
X147033333Y-81826190D01*
X147080952Y-81921429D01*
X147080952Y-82111905D01*
X147033333Y-82207143D01*
X146985714Y-82254762D01*
X146890476Y-82302381D01*
X146699999Y-82302381D01*
X146604761Y-82254762D01*
X146557142Y-82207143D01*
X146509523Y-82111905D01*
X146509523Y-81921429D01*
X146557142Y-81826190D01*
X146604761Y-81778571D01*
X146699999Y-81730952D01*
D12*
X149247619Y-79623810D02*
X149295238Y-79600000D01*
X149342857Y-79552381D01*
X149414286Y-79480952D01*
X149461905Y-79457143D01*
X149509524Y-79457143D01*
X149485714Y-79576190D02*
X149533333Y-79552381D01*
X149580952Y-79504762D01*
X149604762Y-79409524D01*
X149604762Y-79242857D01*
X149580952Y-79147619D01*
X149533333Y-79100000D01*
X149485714Y-79076190D01*
X149390476Y-79076190D01*
X149342857Y-79100000D01*
X149295238Y-79147619D01*
X149271429Y-79242857D01*
X149271429Y-79409524D01*
X149295238Y-79504762D01*
X149342857Y-79552381D01*
X149390476Y-79576190D01*
X149485714Y-79576190D01*
X149033333Y-79576190D02*
X148938095Y-79576190D01*
X148890476Y-79552381D01*
X148866666Y-79528571D01*
X148819047Y-79457143D01*
X148795238Y-79361905D01*
X148795238Y-79171429D01*
X148819047Y-79123810D01*
X148842857Y-79100000D01*
X148890476Y-79076190D01*
X148985714Y-79076190D01*
X149033333Y-79100000D01*
X149057142Y-79123810D01*
X149080952Y-79171429D01*
X149080952Y-79290476D01*
X149057142Y-79338095D01*
X149033333Y-79361905D01*
X148985714Y-79385714D01*
X148890476Y-79385714D01*
X148842857Y-79361905D01*
X148819047Y-79338095D01*
X148795238Y-79290476D01*
D11*
X158709523Y-81828571D02*
X158566666Y-81876190D01*
X158519047Y-81923810D01*
X158471428Y-82019048D01*
X158471428Y-82161905D01*
X158519047Y-82257143D01*
X158566666Y-82304762D01*
X158661904Y-82352381D01*
X159042857Y-82352381D01*
X159042857Y-81352381D01*
X158709523Y-81352381D01*
X158614285Y-81400000D01*
X158566666Y-81447619D01*
X158519047Y-81542857D01*
X158519047Y-81638095D01*
X158566666Y-81733333D01*
X158614285Y-81780952D01*
X158709523Y-81828571D01*
X159042857Y-81828571D01*
X158090476Y-82304762D02*
X157947619Y-82352381D01*
X157709523Y-82352381D01*
X157614285Y-82304762D01*
X157566666Y-82257143D01*
X157519047Y-82161905D01*
X157519047Y-82066667D01*
X157566666Y-81971429D01*
X157614285Y-81923810D01*
X157709523Y-81876190D01*
X157900000Y-81828571D01*
X157995238Y-81780952D01*
X158042857Y-81733333D01*
X158090476Y-81638095D01*
X158090476Y-81542857D01*
X158042857Y-81447619D01*
X157995238Y-81400000D01*
X157900000Y-81352381D01*
X157661904Y-81352381D01*
X157519047Y-81400000D01*
X157138095Y-82304762D02*
X156995238Y-82352381D01*
X156757142Y-82352381D01*
X156661904Y-82304762D01*
X156614285Y-82257143D01*
X156566666Y-82161905D01*
X156566666Y-82066667D01*
X156614285Y-81971429D01*
X156661904Y-81923810D01*
X156757142Y-81876190D01*
X156947619Y-81828571D01*
X157042857Y-81780952D01*
X157090476Y-81733333D01*
X157138095Y-81638095D01*
X157138095Y-81542857D01*
X157090476Y-81447619D01*
X157042857Y-81400000D01*
X156947619Y-81352381D01*
X156709523Y-81352381D01*
X156566666Y-81400000D01*
X155614285Y-82352381D02*
X156185714Y-82352381D01*
X155900000Y-82352381D02*
X155900000Y-81352381D01*
X155995238Y-81495238D01*
X156090476Y-81590476D01*
X156185714Y-81638095D01*
X155280952Y-81352381D02*
X154661904Y-81352381D01*
X154995238Y-81733333D01*
X154852380Y-81733333D01*
X154757142Y-81780952D01*
X154709523Y-81828571D01*
X154661904Y-81923810D01*
X154661904Y-82161905D01*
X154709523Y-82257143D01*
X154757142Y-82304762D01*
X154852380Y-82352381D01*
X155138095Y-82352381D01*
X155233333Y-82304762D01*
X155280952Y-82257143D01*
X154090476Y-81780952D02*
X154185714Y-81733333D01*
X154233333Y-81685714D01*
X154280952Y-81590476D01*
X154280952Y-81542857D01*
X154233333Y-81447619D01*
X154185714Y-81400000D01*
X154090476Y-81352381D01*
X153899999Y-81352381D01*
X153804761Y-81400000D01*
X153757142Y-81447619D01*
X153709523Y-81542857D01*
X153709523Y-81590476D01*
X153757142Y-81685714D01*
X153804761Y-81733333D01*
X153899999Y-81780952D01*
X154090476Y-81780952D01*
X154185714Y-81828571D01*
X154233333Y-81876190D01*
X154280952Y-81971429D01*
X154280952Y-82161905D01*
X154233333Y-82257143D01*
X154185714Y-82304762D01*
X154090476Y-82352381D01*
X153899999Y-82352381D01*
X153804761Y-82304762D01*
X153757142Y-82257143D01*
X153709523Y-82161905D01*
X153709523Y-81971429D01*
X153757142Y-81876190D01*
X153804761Y-81828571D01*
X153899999Y-81780952D01*
D12*
X156685714Y-79673810D02*
X156733333Y-79650000D01*
X156780952Y-79602381D01*
X156852381Y-79530952D01*
X156900000Y-79507143D01*
X156947619Y-79507143D01*
X156923809Y-79626190D02*
X156971428Y-79602381D01*
X157019047Y-79554762D01*
X157042857Y-79459524D01*
X157042857Y-79292857D01*
X157019047Y-79197619D01*
X156971428Y-79150000D01*
X156923809Y-79126190D01*
X156828571Y-79126190D01*
X156780952Y-79150000D01*
X156733333Y-79197619D01*
X156709524Y-79292857D01*
X156709524Y-79459524D01*
X156733333Y-79554762D01*
X156780952Y-79602381D01*
X156828571Y-79626190D01*
X156923809Y-79626190D01*
X156233333Y-79626190D02*
X156519047Y-79626190D01*
X156376190Y-79626190D02*
X156376190Y-79126190D01*
X156423809Y-79197619D01*
X156471428Y-79245238D01*
X156519047Y-79269048D01*
X155923809Y-79126190D02*
X155876190Y-79126190D01*
X155828571Y-79150000D01*
X155804762Y-79173810D01*
X155780952Y-79221429D01*
X155757143Y-79316667D01*
X155757143Y-79435714D01*
X155780952Y-79530952D01*
X155804762Y-79578571D01*
X155828571Y-79602381D01*
X155876190Y-79626190D01*
X155923809Y-79626190D01*
X155971428Y-79602381D01*
X155995238Y-79578571D01*
X156019047Y-79530952D01*
X156042857Y-79435714D01*
X156042857Y-79316667D01*
X156019047Y-79221429D01*
X155995238Y-79173810D01*
X155971428Y-79150000D01*
X155923809Y-79126190D01*
D11*
X165709523Y-81828571D02*
X165566666Y-81876190D01*
X165519047Y-81923810D01*
X165471428Y-82019048D01*
X165471428Y-82161905D01*
X165519047Y-82257143D01*
X165566666Y-82304762D01*
X165661904Y-82352381D01*
X166042857Y-82352381D01*
X166042857Y-81352381D01*
X165709523Y-81352381D01*
X165614285Y-81400000D01*
X165566666Y-81447619D01*
X165519047Y-81542857D01*
X165519047Y-81638095D01*
X165566666Y-81733333D01*
X165614285Y-81780952D01*
X165709523Y-81828571D01*
X166042857Y-81828571D01*
X165090476Y-82304762D02*
X164947619Y-82352381D01*
X164709523Y-82352381D01*
X164614285Y-82304762D01*
X164566666Y-82257143D01*
X164519047Y-82161905D01*
X164519047Y-82066667D01*
X164566666Y-81971429D01*
X164614285Y-81923810D01*
X164709523Y-81876190D01*
X164900000Y-81828571D01*
X164995238Y-81780952D01*
X165042857Y-81733333D01*
X165090476Y-81638095D01*
X165090476Y-81542857D01*
X165042857Y-81447619D01*
X164995238Y-81400000D01*
X164900000Y-81352381D01*
X164661904Y-81352381D01*
X164519047Y-81400000D01*
X164138095Y-82304762D02*
X163995238Y-82352381D01*
X163757142Y-82352381D01*
X163661904Y-82304762D01*
X163614285Y-82257143D01*
X163566666Y-82161905D01*
X163566666Y-82066667D01*
X163614285Y-81971429D01*
X163661904Y-81923810D01*
X163757142Y-81876190D01*
X163947619Y-81828571D01*
X164042857Y-81780952D01*
X164090476Y-81733333D01*
X164138095Y-81638095D01*
X164138095Y-81542857D01*
X164090476Y-81447619D01*
X164042857Y-81400000D01*
X163947619Y-81352381D01*
X163709523Y-81352381D01*
X163566666Y-81400000D01*
X162614285Y-82352381D02*
X163185714Y-82352381D01*
X162900000Y-82352381D02*
X162900000Y-81352381D01*
X162995238Y-81495238D01*
X163090476Y-81590476D01*
X163185714Y-81638095D01*
X162280952Y-81352381D02*
X161661904Y-81352381D01*
X161995238Y-81733333D01*
X161852380Y-81733333D01*
X161757142Y-81780952D01*
X161709523Y-81828571D01*
X161661904Y-81923810D01*
X161661904Y-82161905D01*
X161709523Y-82257143D01*
X161757142Y-82304762D01*
X161852380Y-82352381D01*
X162138095Y-82352381D01*
X162233333Y-82304762D01*
X162280952Y-82257143D01*
X161090476Y-81780952D02*
X161185714Y-81733333D01*
X161233333Y-81685714D01*
X161280952Y-81590476D01*
X161280952Y-81542857D01*
X161233333Y-81447619D01*
X161185714Y-81400000D01*
X161090476Y-81352381D01*
X160899999Y-81352381D01*
X160804761Y-81400000D01*
X160757142Y-81447619D01*
X160709523Y-81542857D01*
X160709523Y-81590476D01*
X160757142Y-81685714D01*
X160804761Y-81733333D01*
X160899999Y-81780952D01*
X161090476Y-81780952D01*
X161185714Y-81828571D01*
X161233333Y-81876190D01*
X161280952Y-81971429D01*
X161280952Y-82161905D01*
X161233333Y-82257143D01*
X161185714Y-82304762D01*
X161090476Y-82352381D01*
X160899999Y-82352381D01*
X160804761Y-82304762D01*
X160757142Y-82257143D01*
X160709523Y-82161905D01*
X160709523Y-81971429D01*
X160757142Y-81876190D01*
X160804761Y-81828571D01*
X160899999Y-81780952D01*
D12*
X163685714Y-79673810D02*
X163733333Y-79650000D01*
X163780952Y-79602381D01*
X163852381Y-79530952D01*
X163900000Y-79507143D01*
X163947619Y-79507143D01*
X163923809Y-79626190D02*
X163971428Y-79602381D01*
X164019047Y-79554762D01*
X164042857Y-79459524D01*
X164042857Y-79292857D01*
X164019047Y-79197619D01*
X163971428Y-79150000D01*
X163923809Y-79126190D01*
X163828571Y-79126190D01*
X163780952Y-79150000D01*
X163733333Y-79197619D01*
X163709524Y-79292857D01*
X163709524Y-79459524D01*
X163733333Y-79554762D01*
X163780952Y-79602381D01*
X163828571Y-79626190D01*
X163923809Y-79626190D01*
X163233333Y-79626190D02*
X163519047Y-79626190D01*
X163376190Y-79626190D02*
X163376190Y-79126190D01*
X163423809Y-79197619D01*
X163471428Y-79245238D01*
X163519047Y-79269048D01*
X162757143Y-79626190D02*
X163042857Y-79626190D01*
X162900000Y-79626190D02*
X162900000Y-79126190D01*
X162947619Y-79197619D01*
X162995238Y-79245238D01*
X163042857Y-79269048D01*
D11*
X172509523Y-81828571D02*
X172366666Y-81876190D01*
X172319047Y-81923810D01*
X172271428Y-82019048D01*
X172271428Y-82161905D01*
X172319047Y-82257143D01*
X172366666Y-82304762D01*
X172461904Y-82352381D01*
X172842857Y-82352381D01*
X172842857Y-81352381D01*
X172509523Y-81352381D01*
X172414285Y-81400000D01*
X172366666Y-81447619D01*
X172319047Y-81542857D01*
X172319047Y-81638095D01*
X172366666Y-81733333D01*
X172414285Y-81780952D01*
X172509523Y-81828571D01*
X172842857Y-81828571D01*
X171890476Y-82304762D02*
X171747619Y-82352381D01*
X171509523Y-82352381D01*
X171414285Y-82304762D01*
X171366666Y-82257143D01*
X171319047Y-82161905D01*
X171319047Y-82066667D01*
X171366666Y-81971429D01*
X171414285Y-81923810D01*
X171509523Y-81876190D01*
X171700000Y-81828571D01*
X171795238Y-81780952D01*
X171842857Y-81733333D01*
X171890476Y-81638095D01*
X171890476Y-81542857D01*
X171842857Y-81447619D01*
X171795238Y-81400000D01*
X171700000Y-81352381D01*
X171461904Y-81352381D01*
X171319047Y-81400000D01*
X170938095Y-82304762D02*
X170795238Y-82352381D01*
X170557142Y-82352381D01*
X170461904Y-82304762D01*
X170414285Y-82257143D01*
X170366666Y-82161905D01*
X170366666Y-82066667D01*
X170414285Y-81971429D01*
X170461904Y-81923810D01*
X170557142Y-81876190D01*
X170747619Y-81828571D01*
X170842857Y-81780952D01*
X170890476Y-81733333D01*
X170938095Y-81638095D01*
X170938095Y-81542857D01*
X170890476Y-81447619D01*
X170842857Y-81400000D01*
X170747619Y-81352381D01*
X170509523Y-81352381D01*
X170366666Y-81400000D01*
X169414285Y-82352381D02*
X169985714Y-82352381D01*
X169700000Y-82352381D02*
X169700000Y-81352381D01*
X169795238Y-81495238D01*
X169890476Y-81590476D01*
X169985714Y-81638095D01*
X169080952Y-81352381D02*
X168461904Y-81352381D01*
X168795238Y-81733333D01*
X168652380Y-81733333D01*
X168557142Y-81780952D01*
X168509523Y-81828571D01*
X168461904Y-81923810D01*
X168461904Y-82161905D01*
X168509523Y-82257143D01*
X168557142Y-82304762D01*
X168652380Y-82352381D01*
X168938095Y-82352381D01*
X169033333Y-82304762D01*
X169080952Y-82257143D01*
X167890476Y-81780952D02*
X167985714Y-81733333D01*
X168033333Y-81685714D01*
X168080952Y-81590476D01*
X168080952Y-81542857D01*
X168033333Y-81447619D01*
X167985714Y-81400000D01*
X167890476Y-81352381D01*
X167699999Y-81352381D01*
X167604761Y-81400000D01*
X167557142Y-81447619D01*
X167509523Y-81542857D01*
X167509523Y-81590476D01*
X167557142Y-81685714D01*
X167604761Y-81733333D01*
X167699999Y-81780952D01*
X167890476Y-81780952D01*
X167985714Y-81828571D01*
X168033333Y-81876190D01*
X168080952Y-81971429D01*
X168080952Y-82161905D01*
X168033333Y-82257143D01*
X167985714Y-82304762D01*
X167890476Y-82352381D01*
X167699999Y-82352381D01*
X167604761Y-82304762D01*
X167557142Y-82257143D01*
X167509523Y-82161905D01*
X167509523Y-81971429D01*
X167557142Y-81876190D01*
X167604761Y-81828571D01*
X167699999Y-81780952D01*
D12*
X170485714Y-79673810D02*
X170533333Y-79650000D01*
X170580952Y-79602381D01*
X170652381Y-79530952D01*
X170700000Y-79507143D01*
X170747619Y-79507143D01*
X170723809Y-79626190D02*
X170771428Y-79602381D01*
X170819047Y-79554762D01*
X170842857Y-79459524D01*
X170842857Y-79292857D01*
X170819047Y-79197619D01*
X170771428Y-79150000D01*
X170723809Y-79126190D01*
X170628571Y-79126190D01*
X170580952Y-79150000D01*
X170533333Y-79197619D01*
X170509524Y-79292857D01*
X170509524Y-79459524D01*
X170533333Y-79554762D01*
X170580952Y-79602381D01*
X170628571Y-79626190D01*
X170723809Y-79626190D01*
X170033333Y-79626190D02*
X170319047Y-79626190D01*
X170176190Y-79626190D02*
X170176190Y-79126190D01*
X170223809Y-79197619D01*
X170271428Y-79245238D01*
X170319047Y-79269048D01*
X169842857Y-79173810D02*
X169819047Y-79150000D01*
X169771428Y-79126190D01*
X169652381Y-79126190D01*
X169604762Y-79150000D01*
X169580952Y-79173810D01*
X169557143Y-79221429D01*
X169557143Y-79269048D01*
X169580952Y-79340476D01*
X169866666Y-79626190D01*
X169557143Y-79626190D01*
D11*
X152290476Y-114602381D02*
X152861905Y-114602381D01*
X152576191Y-114602381D02*
X152576191Y-113602381D01*
X152671429Y-113745238D01*
X152766667Y-113840476D01*
X152861905Y-113888095D01*
X151671429Y-113602381D02*
X151576190Y-113602381D01*
X151480952Y-113650000D01*
X151433333Y-113697619D01*
X151385714Y-113792857D01*
X151338095Y-113983333D01*
X151338095Y-114221429D01*
X151385714Y-114411905D01*
X151433333Y-114507143D01*
X151480952Y-114554762D01*
X151576190Y-114602381D01*
X151671429Y-114602381D01*
X151766667Y-114554762D01*
X151814286Y-114507143D01*
X151861905Y-114411905D01*
X151909524Y-114221429D01*
X151909524Y-113983333D01*
X151861905Y-113792857D01*
X151814286Y-113697619D01*
X151766667Y-113650000D01*
X151671429Y-113602381D01*
X150909524Y-114602381D02*
X150909524Y-113602381D01*
X150338095Y-114602381D02*
X150766667Y-114030952D01*
X150338095Y-113602381D02*
X150909524Y-114173810D01*
D12*
X151683333Y-112626190D02*
X151850000Y-112388095D01*
X151969047Y-112626190D02*
X151969047Y-112126190D01*
X151778571Y-112126190D01*
X151730952Y-112150000D01*
X151707143Y-112173810D01*
X151683333Y-112221429D01*
X151683333Y-112292857D01*
X151707143Y-112340476D01*
X151730952Y-112364286D01*
X151778571Y-112388095D01*
X151969047Y-112388095D01*
X151397619Y-112340476D02*
X151445238Y-112316667D01*
X151469047Y-112292857D01*
X151492857Y-112245238D01*
X151492857Y-112221429D01*
X151469047Y-112173810D01*
X151445238Y-112150000D01*
X151397619Y-112126190D01*
X151302381Y-112126190D01*
X151254762Y-112150000D01*
X151230952Y-112173810D01*
X151207143Y-112221429D01*
X151207143Y-112245238D01*
X151230952Y-112292857D01*
X151254762Y-112316667D01*
X151302381Y-112340476D01*
X151397619Y-112340476D01*
X151445238Y-112364286D01*
X151469047Y-112388095D01*
X151492857Y-112435714D01*
X151492857Y-112530952D01*
X151469047Y-112578571D01*
X151445238Y-112602381D01*
X151397619Y-112626190D01*
X151302381Y-112626190D01*
X151254762Y-112602381D01*
X151230952Y-112578571D01*
X151207143Y-112530952D01*
X151207143Y-112435714D01*
X151230952Y-112388095D01*
X151254762Y-112364286D01*
X151302381Y-112340476D01*
D11*
X159790476Y-114502381D02*
X160361905Y-114502381D01*
X160076191Y-114502381D02*
X160076191Y-113502381D01*
X160171429Y-113645238D01*
X160266667Y-113740476D01*
X160361905Y-113788095D01*
X159171429Y-113502381D02*
X159076190Y-113502381D01*
X158980952Y-113550000D01*
X158933333Y-113597619D01*
X158885714Y-113692857D01*
X158838095Y-113883333D01*
X158838095Y-114121429D01*
X158885714Y-114311905D01*
X158933333Y-114407143D01*
X158980952Y-114454762D01*
X159076190Y-114502381D01*
X159171429Y-114502381D01*
X159266667Y-114454762D01*
X159314286Y-114407143D01*
X159361905Y-114311905D01*
X159409524Y-114121429D01*
X159409524Y-113883333D01*
X159361905Y-113692857D01*
X159314286Y-113597619D01*
X159266667Y-113550000D01*
X159171429Y-113502381D01*
X158409524Y-114502381D02*
X158409524Y-113502381D01*
X157838095Y-114502381D02*
X158266667Y-113930952D01*
X157838095Y-113502381D02*
X158409524Y-114073810D01*
D12*
X159183333Y-112526190D02*
X159350000Y-112288095D01*
X159469047Y-112526190D02*
X159469047Y-112026190D01*
X159278571Y-112026190D01*
X159230952Y-112050000D01*
X159207143Y-112073810D01*
X159183333Y-112121429D01*
X159183333Y-112192857D01*
X159207143Y-112240476D01*
X159230952Y-112264286D01*
X159278571Y-112288095D01*
X159469047Y-112288095D01*
X158945238Y-112526190D02*
X158850000Y-112526190D01*
X158802381Y-112502381D01*
X158778571Y-112478571D01*
X158730952Y-112407143D01*
X158707143Y-112311905D01*
X158707143Y-112121429D01*
X158730952Y-112073810D01*
X158754762Y-112050000D01*
X158802381Y-112026190D01*
X158897619Y-112026190D01*
X158945238Y-112050000D01*
X158969047Y-112073810D01*
X158992857Y-112121429D01*
X158992857Y-112240476D01*
X158969047Y-112288095D01*
X158945238Y-112311905D01*
X158897619Y-112335714D01*
X158802381Y-112335714D01*
X158754762Y-112311905D01*
X158730952Y-112288095D01*
X158707143Y-112240476D01*
D11*
X173740476Y-114402381D02*
X174311905Y-114402381D01*
X174026191Y-114402381D02*
X174026191Y-113402381D01*
X174121429Y-113545238D01*
X174216667Y-113640476D01*
X174311905Y-113688095D01*
X173121429Y-113402381D02*
X173026190Y-113402381D01*
X172930952Y-113450000D01*
X172883333Y-113497619D01*
X172835714Y-113592857D01*
X172788095Y-113783333D01*
X172788095Y-114021429D01*
X172835714Y-114211905D01*
X172883333Y-114307143D01*
X172930952Y-114354762D01*
X173026190Y-114402381D01*
X173121429Y-114402381D01*
X173216667Y-114354762D01*
X173264286Y-114307143D01*
X173311905Y-114211905D01*
X173359524Y-114021429D01*
X173359524Y-113783333D01*
X173311905Y-113592857D01*
X173264286Y-113497619D01*
X173216667Y-113450000D01*
X173121429Y-113402381D01*
X172359524Y-114402381D02*
X172359524Y-113402381D01*
X171788095Y-114402381D02*
X172216667Y-113830952D01*
X171788095Y-113402381D02*
X172359524Y-113973810D01*
D12*
X173371428Y-112426190D02*
X173538095Y-112188095D01*
X173657142Y-112426190D02*
X173657142Y-111926190D01*
X173466666Y-111926190D01*
X173419047Y-111950000D01*
X173395238Y-111973810D01*
X173371428Y-112021429D01*
X173371428Y-112092857D01*
X173395238Y-112140476D01*
X173419047Y-112164286D01*
X173466666Y-112188095D01*
X173657142Y-112188095D01*
X172895238Y-112426190D02*
X173180952Y-112426190D01*
X173038095Y-112426190D02*
X173038095Y-111926190D01*
X173085714Y-111997619D01*
X173133333Y-112045238D01*
X173180952Y-112069048D01*
X172585714Y-111926190D02*
X172538095Y-111926190D01*
X172490476Y-111950000D01*
X172466667Y-111973810D01*
X172442857Y-112021429D01*
X172419048Y-112116667D01*
X172419048Y-112235714D01*
X172442857Y-112330952D01*
X172466667Y-112378571D01*
X172490476Y-112402381D01*
X172538095Y-112426190D01*
X172585714Y-112426190D01*
X172633333Y-112402381D01*
X172657143Y-112378571D01*
X172680952Y-112330952D01*
X172704762Y-112235714D01*
X172704762Y-112116667D01*
X172680952Y-112021429D01*
X172657143Y-111973810D01*
X172633333Y-111950000D01*
X172585714Y-111926190D01*
D11*
X166540476Y-114502381D02*
X167111905Y-114502381D01*
X166826191Y-114502381D02*
X166826191Y-113502381D01*
X166921429Y-113645238D01*
X167016667Y-113740476D01*
X167111905Y-113788095D01*
X165921429Y-113502381D02*
X165826190Y-113502381D01*
X165730952Y-113550000D01*
X165683333Y-113597619D01*
X165635714Y-113692857D01*
X165588095Y-113883333D01*
X165588095Y-114121429D01*
X165635714Y-114311905D01*
X165683333Y-114407143D01*
X165730952Y-114454762D01*
X165826190Y-114502381D01*
X165921429Y-114502381D01*
X166016667Y-114454762D01*
X166064286Y-114407143D01*
X166111905Y-114311905D01*
X166159524Y-114121429D01*
X166159524Y-113883333D01*
X166111905Y-113692857D01*
X166064286Y-113597619D01*
X166016667Y-113550000D01*
X165921429Y-113502381D01*
X165159524Y-114502381D02*
X165159524Y-113502381D01*
X164588095Y-114502381D02*
X165016667Y-113930952D01*
X164588095Y-113502381D02*
X165159524Y-114073810D01*
D12*
X166171428Y-112526190D02*
X166338095Y-112288095D01*
X166457142Y-112526190D02*
X166457142Y-112026190D01*
X166266666Y-112026190D01*
X166219047Y-112050000D01*
X166195238Y-112073810D01*
X166171428Y-112121429D01*
X166171428Y-112192857D01*
X166195238Y-112240476D01*
X166219047Y-112264286D01*
X166266666Y-112288095D01*
X166457142Y-112288095D01*
X165695238Y-112526190D02*
X165980952Y-112526190D01*
X165838095Y-112526190D02*
X165838095Y-112026190D01*
X165885714Y-112097619D01*
X165933333Y-112145238D01*
X165980952Y-112169048D01*
X165504762Y-112073810D02*
X165480952Y-112050000D01*
X165433333Y-112026190D01*
X165314286Y-112026190D01*
X165266667Y-112050000D01*
X165242857Y-112073810D01*
X165219048Y-112121429D01*
X165219048Y-112169048D01*
X165242857Y-112240476D01*
X165528571Y-112526190D01*
X165219048Y-112526190D01*
D11*
X150402381Y-109559524D02*
X150402381Y-108988095D01*
X150402381Y-109273809D02*
X149402381Y-109273809D01*
X149545238Y-109178571D01*
X149640476Y-109083333D01*
X149688095Y-108988095D01*
X149402381Y-110178571D02*
X149402381Y-110273810D01*
X149450000Y-110369048D01*
X149497619Y-110416667D01*
X149592857Y-110464286D01*
X149783333Y-110511905D01*
X150021429Y-110511905D01*
X150211905Y-110464286D01*
X150307143Y-110416667D01*
X150354762Y-110369048D01*
X150402381Y-110273810D01*
X150402381Y-110178571D01*
X150354762Y-110083333D01*
X150307143Y-110035714D01*
X150211905Y-109988095D01*
X150021429Y-109940476D01*
X149783333Y-109940476D01*
X149592857Y-109988095D01*
X149497619Y-110035714D01*
X149450000Y-110083333D01*
X149402381Y-110178571D01*
X150402381Y-110940476D02*
X149402381Y-110940476D01*
X150402381Y-111511905D02*
X149830952Y-111083333D01*
X149402381Y-111511905D02*
X149973810Y-110940476D01*
D12*
X148426190Y-109928572D02*
X148188095Y-109761905D01*
X148426190Y-109642858D02*
X147926190Y-109642858D01*
X147926190Y-109833334D01*
X147950000Y-109880953D01*
X147973810Y-109904762D01*
X148021429Y-109928572D01*
X148092857Y-109928572D01*
X148140476Y-109904762D01*
X148164286Y-109880953D01*
X148188095Y-109833334D01*
X148188095Y-109642858D01*
X148426190Y-110404762D02*
X148426190Y-110119048D01*
X148426190Y-110261905D02*
X147926190Y-110261905D01*
X147997619Y-110214286D01*
X148045238Y-110166667D01*
X148069048Y-110119048D01*
X147926190Y-110833333D02*
X147926190Y-110738095D01*
X147950000Y-110690476D01*
X147973810Y-110666667D01*
X148045238Y-110619048D01*
X148140476Y-110595238D01*
X148330952Y-110595238D01*
X148378571Y-110619048D01*
X148402381Y-110642857D01*
X148426190Y-110690476D01*
X148426190Y-110785714D01*
X148402381Y-110833333D01*
X148378571Y-110857143D01*
X148330952Y-110880952D01*
X148211905Y-110880952D01*
X148164286Y-110857143D01*
X148140476Y-110833333D01*
X148116667Y-110785714D01*
X148116667Y-110690476D01*
X148140476Y-110642857D01*
X148164286Y-110619048D01*
X148211905Y-110595238D01*
D11*
X157902381Y-109459524D02*
X157902381Y-108888095D01*
X157902381Y-109173809D02*
X156902381Y-109173809D01*
X157045238Y-109078571D01*
X157140476Y-108983333D01*
X157188095Y-108888095D01*
X156902381Y-110078571D02*
X156902381Y-110173810D01*
X156950000Y-110269048D01*
X156997619Y-110316667D01*
X157092857Y-110364286D01*
X157283333Y-110411905D01*
X157521429Y-110411905D01*
X157711905Y-110364286D01*
X157807143Y-110316667D01*
X157854762Y-110269048D01*
X157902381Y-110173810D01*
X157902381Y-110078571D01*
X157854762Y-109983333D01*
X157807143Y-109935714D01*
X157711905Y-109888095D01*
X157521429Y-109840476D01*
X157283333Y-109840476D01*
X157092857Y-109888095D01*
X156997619Y-109935714D01*
X156950000Y-109983333D01*
X156902381Y-110078571D01*
X157902381Y-110840476D02*
X156902381Y-110840476D01*
X157902381Y-111411905D02*
X157330952Y-110983333D01*
X156902381Y-111411905D02*
X157473810Y-110840476D01*
D12*
X155926190Y-109828572D02*
X155688095Y-109661905D01*
X155926190Y-109542858D02*
X155426190Y-109542858D01*
X155426190Y-109733334D01*
X155450000Y-109780953D01*
X155473810Y-109804762D01*
X155521429Y-109828572D01*
X155592857Y-109828572D01*
X155640476Y-109804762D01*
X155664286Y-109780953D01*
X155688095Y-109733334D01*
X155688095Y-109542858D01*
X155926190Y-110304762D02*
X155926190Y-110019048D01*
X155926190Y-110161905D02*
X155426190Y-110161905D01*
X155497619Y-110114286D01*
X155545238Y-110066667D01*
X155569048Y-110019048D01*
X155426190Y-110471429D02*
X155426190Y-110804762D01*
X155926190Y-110590476D01*
D11*
X171902381Y-109359524D02*
X171902381Y-108788095D01*
X171902381Y-109073809D02*
X170902381Y-109073809D01*
X171045238Y-108978571D01*
X171140476Y-108883333D01*
X171188095Y-108788095D01*
X170902381Y-109978571D02*
X170902381Y-110073810D01*
X170950000Y-110169048D01*
X170997619Y-110216667D01*
X171092857Y-110264286D01*
X171283333Y-110311905D01*
X171521429Y-110311905D01*
X171711905Y-110264286D01*
X171807143Y-110216667D01*
X171854762Y-110169048D01*
X171902381Y-110073810D01*
X171902381Y-109978571D01*
X171854762Y-109883333D01*
X171807143Y-109835714D01*
X171711905Y-109788095D01*
X171521429Y-109740476D01*
X171283333Y-109740476D01*
X171092857Y-109788095D01*
X170997619Y-109835714D01*
X170950000Y-109883333D01*
X170902381Y-109978571D01*
X171902381Y-110740476D02*
X170902381Y-110740476D01*
X171902381Y-111311905D02*
X171330952Y-110883333D01*
X170902381Y-111311905D02*
X171473810Y-110740476D01*
D12*
X169926190Y-109728572D02*
X169688095Y-109561905D01*
X169926190Y-109442858D02*
X169426190Y-109442858D01*
X169426190Y-109633334D01*
X169450000Y-109680953D01*
X169473810Y-109704762D01*
X169521429Y-109728572D01*
X169592857Y-109728572D01*
X169640476Y-109704762D01*
X169664286Y-109680953D01*
X169688095Y-109633334D01*
X169688095Y-109442858D01*
X169926190Y-110204762D02*
X169926190Y-109919048D01*
X169926190Y-110061905D02*
X169426190Y-110061905D01*
X169497619Y-110014286D01*
X169545238Y-109966667D01*
X169569048Y-109919048D01*
X169640476Y-110490476D02*
X169616667Y-110442857D01*
X169592857Y-110419048D01*
X169545238Y-110395238D01*
X169521429Y-110395238D01*
X169473810Y-110419048D01*
X169450000Y-110442857D01*
X169426190Y-110490476D01*
X169426190Y-110585714D01*
X169450000Y-110633333D01*
X169473810Y-110657143D01*
X169521429Y-110680952D01*
X169545238Y-110680952D01*
X169592857Y-110657143D01*
X169616667Y-110633333D01*
X169640476Y-110585714D01*
X169640476Y-110490476D01*
X169664286Y-110442857D01*
X169688095Y-110419048D01*
X169735714Y-110395238D01*
X169830952Y-110395238D01*
X169878571Y-110419048D01*
X169902381Y-110442857D01*
X169926190Y-110490476D01*
X169926190Y-110585714D01*
X169902381Y-110633333D01*
X169878571Y-110657143D01*
X169830952Y-110680952D01*
X169735714Y-110680952D01*
X169688095Y-110657143D01*
X169664286Y-110633333D01*
X169640476Y-110585714D01*
D11*
X164702381Y-109459524D02*
X164702381Y-108888095D01*
X164702381Y-109173809D02*
X163702381Y-109173809D01*
X163845238Y-109078571D01*
X163940476Y-108983333D01*
X163988095Y-108888095D01*
X163702381Y-110078571D02*
X163702381Y-110173810D01*
X163750000Y-110269048D01*
X163797619Y-110316667D01*
X163892857Y-110364286D01*
X164083333Y-110411905D01*
X164321429Y-110411905D01*
X164511905Y-110364286D01*
X164607143Y-110316667D01*
X164654762Y-110269048D01*
X164702381Y-110173810D01*
X164702381Y-110078571D01*
X164654762Y-109983333D01*
X164607143Y-109935714D01*
X164511905Y-109888095D01*
X164321429Y-109840476D01*
X164083333Y-109840476D01*
X163892857Y-109888095D01*
X163797619Y-109935714D01*
X163750000Y-109983333D01*
X163702381Y-110078571D01*
X164702381Y-110840476D02*
X163702381Y-110840476D01*
X164702381Y-111411905D02*
X164130952Y-110983333D01*
X163702381Y-111411905D02*
X164273810Y-110840476D01*
D12*
X162726190Y-109828572D02*
X162488095Y-109661905D01*
X162726190Y-109542858D02*
X162226190Y-109542858D01*
X162226190Y-109733334D01*
X162250000Y-109780953D01*
X162273810Y-109804762D01*
X162321429Y-109828572D01*
X162392857Y-109828572D01*
X162440476Y-109804762D01*
X162464286Y-109780953D01*
X162488095Y-109733334D01*
X162488095Y-109542858D01*
X162273810Y-110019048D02*
X162250000Y-110042858D01*
X162226190Y-110090477D01*
X162226190Y-110209524D01*
X162250000Y-110257143D01*
X162273810Y-110280953D01*
X162321429Y-110304762D01*
X162369048Y-110304762D01*
X162440476Y-110280953D01*
X162726190Y-109995239D01*
X162726190Y-110304762D01*
X162226190Y-110614286D02*
X162226190Y-110661905D01*
X162250000Y-110709524D01*
X162273810Y-110733333D01*
X162321429Y-110757143D01*
X162416667Y-110780952D01*
X162535714Y-110780952D01*
X162630952Y-110757143D01*
X162678571Y-110733333D01*
X162702381Y-110709524D01*
X162726190Y-110661905D01*
X162726190Y-110614286D01*
X162702381Y-110566667D01*
X162678571Y-110542857D01*
X162630952Y-110519048D01*
X162535714Y-110495238D01*
X162416667Y-110495238D01*
X162321429Y-110519048D01*
X162273810Y-110542857D01*
X162250000Y-110566667D01*
X162226190Y-110614286D01*
D11*
X150602381Y-77359524D02*
X150602381Y-76788095D01*
X150602381Y-77073809D02*
X149602381Y-77073809D01*
X149745238Y-76978571D01*
X149840476Y-76883333D01*
X149888095Y-76788095D01*
X149602381Y-77978571D02*
X149602381Y-78073810D01*
X149650000Y-78169048D01*
X149697619Y-78216667D01*
X149792857Y-78264286D01*
X149983333Y-78311905D01*
X150221429Y-78311905D01*
X150411905Y-78264286D01*
X150507143Y-78216667D01*
X150554762Y-78169048D01*
X150602381Y-78073810D01*
X150602381Y-77978571D01*
X150554762Y-77883333D01*
X150507143Y-77835714D01*
X150411905Y-77788095D01*
X150221429Y-77740476D01*
X149983333Y-77740476D01*
X149792857Y-77788095D01*
X149697619Y-77835714D01*
X149650000Y-77883333D01*
X149602381Y-77978571D01*
X150602381Y-78740476D02*
X149602381Y-78740476D01*
X150602381Y-79311905D02*
X150030952Y-78883333D01*
X149602381Y-79311905D02*
X150173810Y-78740476D01*
D12*
X152126190Y-77728572D02*
X151888095Y-77561905D01*
X152126190Y-77442858D02*
X151626190Y-77442858D01*
X151626190Y-77633334D01*
X151650000Y-77680953D01*
X151673810Y-77704762D01*
X151721429Y-77728572D01*
X151792857Y-77728572D01*
X151840476Y-77704762D01*
X151864286Y-77680953D01*
X151888095Y-77633334D01*
X151888095Y-77442858D01*
X151673810Y-77919048D02*
X151650000Y-77942858D01*
X151626190Y-77990477D01*
X151626190Y-78109524D01*
X151650000Y-78157143D01*
X151673810Y-78180953D01*
X151721429Y-78204762D01*
X151769048Y-78204762D01*
X151840476Y-78180953D01*
X152126190Y-77895239D01*
X152126190Y-78204762D01*
X152126190Y-78680952D02*
X152126190Y-78395238D01*
X152126190Y-78538095D02*
X151626190Y-78538095D01*
X151697619Y-78490476D01*
X151745238Y-78442857D01*
X151769048Y-78395238D01*
D11*
X157802381Y-77359524D02*
X157802381Y-76788095D01*
X157802381Y-77073809D02*
X156802381Y-77073809D01*
X156945238Y-76978571D01*
X157040476Y-76883333D01*
X157088095Y-76788095D01*
X156802381Y-77978571D02*
X156802381Y-78073810D01*
X156850000Y-78169048D01*
X156897619Y-78216667D01*
X156992857Y-78264286D01*
X157183333Y-78311905D01*
X157421429Y-78311905D01*
X157611905Y-78264286D01*
X157707143Y-78216667D01*
X157754762Y-78169048D01*
X157802381Y-78073810D01*
X157802381Y-77978571D01*
X157754762Y-77883333D01*
X157707143Y-77835714D01*
X157611905Y-77788095D01*
X157421429Y-77740476D01*
X157183333Y-77740476D01*
X156992857Y-77788095D01*
X156897619Y-77835714D01*
X156850000Y-77883333D01*
X156802381Y-77978571D01*
X157802381Y-78740476D02*
X156802381Y-78740476D01*
X157802381Y-79311905D02*
X157230952Y-78883333D01*
X156802381Y-79311905D02*
X157373810Y-78740476D01*
D12*
X159326190Y-77728572D02*
X159088095Y-77561905D01*
X159326190Y-77442858D02*
X158826190Y-77442858D01*
X158826190Y-77633334D01*
X158850000Y-77680953D01*
X158873810Y-77704762D01*
X158921429Y-77728572D01*
X158992857Y-77728572D01*
X159040476Y-77704762D01*
X159064286Y-77680953D01*
X159088095Y-77633334D01*
X159088095Y-77442858D01*
X158873810Y-77919048D02*
X158850000Y-77942858D01*
X158826190Y-77990477D01*
X158826190Y-78109524D01*
X158850000Y-78157143D01*
X158873810Y-78180953D01*
X158921429Y-78204762D01*
X158969048Y-78204762D01*
X159040476Y-78180953D01*
X159326190Y-77895239D01*
X159326190Y-78204762D01*
X158873810Y-78395238D02*
X158850000Y-78419048D01*
X158826190Y-78466667D01*
X158826190Y-78585714D01*
X158850000Y-78633333D01*
X158873810Y-78657143D01*
X158921429Y-78680952D01*
X158969048Y-78680952D01*
X159040476Y-78657143D01*
X159326190Y-78371429D01*
X159326190Y-78680952D01*
D11*
X164802381Y-77359524D02*
X164802381Y-76788095D01*
X164802381Y-77073809D02*
X163802381Y-77073809D01*
X163945238Y-76978571D01*
X164040476Y-76883333D01*
X164088095Y-76788095D01*
X163802381Y-77978571D02*
X163802381Y-78073810D01*
X163850000Y-78169048D01*
X163897619Y-78216667D01*
X163992857Y-78264286D01*
X164183333Y-78311905D01*
X164421429Y-78311905D01*
X164611905Y-78264286D01*
X164707143Y-78216667D01*
X164754762Y-78169048D01*
X164802381Y-78073810D01*
X164802381Y-77978571D01*
X164754762Y-77883333D01*
X164707143Y-77835714D01*
X164611905Y-77788095D01*
X164421429Y-77740476D01*
X164183333Y-77740476D01*
X163992857Y-77788095D01*
X163897619Y-77835714D01*
X163850000Y-77883333D01*
X163802381Y-77978571D01*
X164802381Y-78740476D02*
X163802381Y-78740476D01*
X164802381Y-79311905D02*
X164230952Y-78883333D01*
X163802381Y-79311905D02*
X164373810Y-78740476D01*
D12*
X166326190Y-77728572D02*
X166088095Y-77561905D01*
X166326190Y-77442858D02*
X165826190Y-77442858D01*
X165826190Y-77633334D01*
X165850000Y-77680953D01*
X165873810Y-77704762D01*
X165921429Y-77728572D01*
X165992857Y-77728572D01*
X166040476Y-77704762D01*
X166064286Y-77680953D01*
X166088095Y-77633334D01*
X166088095Y-77442858D01*
X165873810Y-77919048D02*
X165850000Y-77942858D01*
X165826190Y-77990477D01*
X165826190Y-78109524D01*
X165850000Y-78157143D01*
X165873810Y-78180953D01*
X165921429Y-78204762D01*
X165969048Y-78204762D01*
X166040476Y-78180953D01*
X166326190Y-77895239D01*
X166326190Y-78204762D01*
X165826190Y-78371429D02*
X165826190Y-78680952D01*
X166016667Y-78514286D01*
X166016667Y-78585714D01*
X166040476Y-78633333D01*
X166064286Y-78657143D01*
X166111905Y-78680952D01*
X166230952Y-78680952D01*
X166278571Y-78657143D01*
X166302381Y-78633333D01*
X166326190Y-78585714D01*
X166326190Y-78442857D01*
X166302381Y-78395238D01*
X166278571Y-78371429D01*
D11*
X171602381Y-77359524D02*
X171602381Y-76788095D01*
X171602381Y-77073809D02*
X170602381Y-77073809D01*
X170745238Y-76978571D01*
X170840476Y-76883333D01*
X170888095Y-76788095D01*
X170602381Y-77978571D02*
X170602381Y-78073810D01*
X170650000Y-78169048D01*
X170697619Y-78216667D01*
X170792857Y-78264286D01*
X170983333Y-78311905D01*
X171221429Y-78311905D01*
X171411905Y-78264286D01*
X171507143Y-78216667D01*
X171554762Y-78169048D01*
X171602381Y-78073810D01*
X171602381Y-77978571D01*
X171554762Y-77883333D01*
X171507143Y-77835714D01*
X171411905Y-77788095D01*
X171221429Y-77740476D01*
X170983333Y-77740476D01*
X170792857Y-77788095D01*
X170697619Y-77835714D01*
X170650000Y-77883333D01*
X170602381Y-77978571D01*
X171602381Y-78740476D02*
X170602381Y-78740476D01*
X171602381Y-79311905D02*
X171030952Y-78883333D01*
X170602381Y-79311905D02*
X171173810Y-78740476D01*
D12*
X173126190Y-77728572D02*
X172888095Y-77561905D01*
X173126190Y-77442858D02*
X172626190Y-77442858D01*
X172626190Y-77633334D01*
X172650000Y-77680953D01*
X172673810Y-77704762D01*
X172721429Y-77728572D01*
X172792857Y-77728572D01*
X172840476Y-77704762D01*
X172864286Y-77680953D01*
X172888095Y-77633334D01*
X172888095Y-77442858D01*
X172673810Y-77919048D02*
X172650000Y-77942858D01*
X172626190Y-77990477D01*
X172626190Y-78109524D01*
X172650000Y-78157143D01*
X172673810Y-78180953D01*
X172721429Y-78204762D01*
X172769048Y-78204762D01*
X172840476Y-78180953D01*
X173126190Y-77895239D01*
X173126190Y-78204762D01*
X172792857Y-78633333D02*
X173126190Y-78633333D01*
X172602381Y-78514286D02*
X172959524Y-78395238D01*
X172959524Y-78704762D01*
D11*
X149240476Y-78802381D02*
X149811905Y-78802381D01*
X149526191Y-78802381D02*
X149526191Y-77802381D01*
X149621429Y-77945238D01*
X149716667Y-78040476D01*
X149811905Y-78088095D01*
X148621429Y-77802381D02*
X148526190Y-77802381D01*
X148430952Y-77850000D01*
X148383333Y-77897619D01*
X148335714Y-77992857D01*
X148288095Y-78183333D01*
X148288095Y-78421429D01*
X148335714Y-78611905D01*
X148383333Y-78707143D01*
X148430952Y-78754762D01*
X148526190Y-78802381D01*
X148621429Y-78802381D01*
X148716667Y-78754762D01*
X148764286Y-78707143D01*
X148811905Y-78611905D01*
X148859524Y-78421429D01*
X148859524Y-78183333D01*
X148811905Y-77992857D01*
X148764286Y-77897619D01*
X148716667Y-77850000D01*
X148621429Y-77802381D01*
X147859524Y-78802381D02*
X147859524Y-77802381D01*
X147288095Y-78802381D02*
X147716667Y-78230952D01*
X147288095Y-77802381D02*
X147859524Y-78373810D01*
D12*
X148871428Y-76826190D02*
X149038095Y-76588095D01*
X149157142Y-76826190D02*
X149157142Y-76326190D01*
X148966666Y-76326190D01*
X148919047Y-76350000D01*
X148895238Y-76373810D01*
X148871428Y-76421429D01*
X148871428Y-76492857D01*
X148895238Y-76540476D01*
X148919047Y-76564286D01*
X148966666Y-76588095D01*
X149157142Y-76588095D01*
X148680952Y-76373810D02*
X148657142Y-76350000D01*
X148609523Y-76326190D01*
X148490476Y-76326190D01*
X148442857Y-76350000D01*
X148419047Y-76373810D01*
X148395238Y-76421429D01*
X148395238Y-76469048D01*
X148419047Y-76540476D01*
X148704761Y-76826190D01*
X148395238Y-76826190D01*
X148157143Y-76826190D02*
X148061905Y-76826190D01*
X148014286Y-76802381D01*
X147990476Y-76778571D01*
X147942857Y-76707143D01*
X147919048Y-76611905D01*
X147919048Y-76421429D01*
X147942857Y-76373810D01*
X147966667Y-76350000D01*
X148014286Y-76326190D01*
X148109524Y-76326190D01*
X148157143Y-76350000D01*
X148180952Y-76373810D01*
X148204762Y-76421429D01*
X148204762Y-76540476D01*
X148180952Y-76588095D01*
X148157143Y-76611905D01*
X148109524Y-76635714D01*
X148014286Y-76635714D01*
X147966667Y-76611905D01*
X147942857Y-76588095D01*
X147919048Y-76540476D01*
D11*
X156440476Y-78802381D02*
X157011905Y-78802381D01*
X156726191Y-78802381D02*
X156726191Y-77802381D01*
X156821429Y-77945238D01*
X156916667Y-78040476D01*
X157011905Y-78088095D01*
X155821429Y-77802381D02*
X155726190Y-77802381D01*
X155630952Y-77850000D01*
X155583333Y-77897619D01*
X155535714Y-77992857D01*
X155488095Y-78183333D01*
X155488095Y-78421429D01*
X155535714Y-78611905D01*
X155583333Y-78707143D01*
X155630952Y-78754762D01*
X155726190Y-78802381D01*
X155821429Y-78802381D01*
X155916667Y-78754762D01*
X155964286Y-78707143D01*
X156011905Y-78611905D01*
X156059524Y-78421429D01*
X156059524Y-78183333D01*
X156011905Y-77992857D01*
X155964286Y-77897619D01*
X155916667Y-77850000D01*
X155821429Y-77802381D01*
X155059524Y-78802381D02*
X155059524Y-77802381D01*
X154488095Y-78802381D02*
X154916667Y-78230952D01*
X154488095Y-77802381D02*
X155059524Y-78373810D01*
D12*
X156071428Y-76826190D02*
X156238095Y-76588095D01*
X156357142Y-76826190D02*
X156357142Y-76326190D01*
X156166666Y-76326190D01*
X156119047Y-76350000D01*
X156095238Y-76373810D01*
X156071428Y-76421429D01*
X156071428Y-76492857D01*
X156095238Y-76540476D01*
X156119047Y-76564286D01*
X156166666Y-76588095D01*
X156357142Y-76588095D01*
X155904761Y-76326190D02*
X155595238Y-76326190D01*
X155761904Y-76516667D01*
X155690476Y-76516667D01*
X155642857Y-76540476D01*
X155619047Y-76564286D01*
X155595238Y-76611905D01*
X155595238Y-76730952D01*
X155619047Y-76778571D01*
X155642857Y-76802381D01*
X155690476Y-76826190D01*
X155833333Y-76826190D01*
X155880952Y-76802381D01*
X155904761Y-76778571D01*
X155285714Y-76326190D02*
X155238095Y-76326190D01*
X155190476Y-76350000D01*
X155166667Y-76373810D01*
X155142857Y-76421429D01*
X155119048Y-76516667D01*
X155119048Y-76635714D01*
X155142857Y-76730952D01*
X155166667Y-76778571D01*
X155190476Y-76802381D01*
X155238095Y-76826190D01*
X155285714Y-76826190D01*
X155333333Y-76802381D01*
X155357143Y-76778571D01*
X155380952Y-76730952D01*
X155404762Y-76635714D01*
X155404762Y-76516667D01*
X155380952Y-76421429D01*
X155357143Y-76373810D01*
X155333333Y-76350000D01*
X155285714Y-76326190D01*
D11*
X163440476Y-78802381D02*
X164011905Y-78802381D01*
X163726191Y-78802381D02*
X163726191Y-77802381D01*
X163821429Y-77945238D01*
X163916667Y-78040476D01*
X164011905Y-78088095D01*
X162821429Y-77802381D02*
X162726190Y-77802381D01*
X162630952Y-77850000D01*
X162583333Y-77897619D01*
X162535714Y-77992857D01*
X162488095Y-78183333D01*
X162488095Y-78421429D01*
X162535714Y-78611905D01*
X162583333Y-78707143D01*
X162630952Y-78754762D01*
X162726190Y-78802381D01*
X162821429Y-78802381D01*
X162916667Y-78754762D01*
X162964286Y-78707143D01*
X163011905Y-78611905D01*
X163059524Y-78421429D01*
X163059524Y-78183333D01*
X163011905Y-77992857D01*
X162964286Y-77897619D01*
X162916667Y-77850000D01*
X162821429Y-77802381D01*
X162059524Y-78802381D02*
X162059524Y-77802381D01*
X161488095Y-78802381D02*
X161916667Y-78230952D01*
X161488095Y-77802381D02*
X162059524Y-78373810D01*
D12*
X163071428Y-76826190D02*
X163238095Y-76588095D01*
X163357142Y-76826190D02*
X163357142Y-76326190D01*
X163166666Y-76326190D01*
X163119047Y-76350000D01*
X163095238Y-76373810D01*
X163071428Y-76421429D01*
X163071428Y-76492857D01*
X163095238Y-76540476D01*
X163119047Y-76564286D01*
X163166666Y-76588095D01*
X163357142Y-76588095D01*
X162904761Y-76326190D02*
X162595238Y-76326190D01*
X162761904Y-76516667D01*
X162690476Y-76516667D01*
X162642857Y-76540476D01*
X162619047Y-76564286D01*
X162595238Y-76611905D01*
X162595238Y-76730952D01*
X162619047Y-76778571D01*
X162642857Y-76802381D01*
X162690476Y-76826190D01*
X162833333Y-76826190D01*
X162880952Y-76802381D01*
X162904761Y-76778571D01*
X162119048Y-76826190D02*
X162404762Y-76826190D01*
X162261905Y-76826190D02*
X162261905Y-76326190D01*
X162309524Y-76397619D01*
X162357143Y-76445238D01*
X162404762Y-76469048D01*
D11*
X170240476Y-78802381D02*
X170811905Y-78802381D01*
X170526191Y-78802381D02*
X170526191Y-77802381D01*
X170621429Y-77945238D01*
X170716667Y-78040476D01*
X170811905Y-78088095D01*
X169621429Y-77802381D02*
X169526190Y-77802381D01*
X169430952Y-77850000D01*
X169383333Y-77897619D01*
X169335714Y-77992857D01*
X169288095Y-78183333D01*
X169288095Y-78421429D01*
X169335714Y-78611905D01*
X169383333Y-78707143D01*
X169430952Y-78754762D01*
X169526190Y-78802381D01*
X169621429Y-78802381D01*
X169716667Y-78754762D01*
X169764286Y-78707143D01*
X169811905Y-78611905D01*
X169859524Y-78421429D01*
X169859524Y-78183333D01*
X169811905Y-77992857D01*
X169764286Y-77897619D01*
X169716667Y-77850000D01*
X169621429Y-77802381D01*
X168859524Y-78802381D02*
X168859524Y-77802381D01*
X168288095Y-78802381D02*
X168716667Y-78230952D01*
X168288095Y-77802381D02*
X168859524Y-78373810D01*
D12*
X169871428Y-76826190D02*
X170038095Y-76588095D01*
X170157142Y-76826190D02*
X170157142Y-76326190D01*
X169966666Y-76326190D01*
X169919047Y-76350000D01*
X169895238Y-76373810D01*
X169871428Y-76421429D01*
X169871428Y-76492857D01*
X169895238Y-76540476D01*
X169919047Y-76564286D01*
X169966666Y-76588095D01*
X170157142Y-76588095D01*
X169704761Y-76326190D02*
X169395238Y-76326190D01*
X169561904Y-76516667D01*
X169490476Y-76516667D01*
X169442857Y-76540476D01*
X169419047Y-76564286D01*
X169395238Y-76611905D01*
X169395238Y-76730952D01*
X169419047Y-76778571D01*
X169442857Y-76802381D01*
X169490476Y-76826190D01*
X169633333Y-76826190D01*
X169680952Y-76802381D01*
X169704761Y-76778571D01*
X169204762Y-76373810D02*
X169180952Y-76350000D01*
X169133333Y-76326190D01*
X169014286Y-76326190D01*
X168966667Y-76350000D01*
X168942857Y-76373810D01*
X168919048Y-76421429D01*
X168919048Y-76469048D01*
X168942857Y-76540476D01*
X169228571Y-76826190D01*
X168919048Y-76826190D01*
M02*
