G04 #@! TF.FileFunction,Other,Fab,Top*
%FSLAX46Y46*%
G04 Gerber Fmt 4.6, Leading zero omitted, Abs format (unit mm)*
G04 Created by KiCad (PCBNEW 4.0.4-stable) date 05/31/17 10:55:34*
%MOMM*%
%LPD*%
G01*
G04 APERTURE LIST*
%ADD10C,0.100000*%
%ADD11C,0.150000*%
%ADD12C,0.075000*%
%ADD13C,0.120000*%
G04 APERTURE END LIST*
D10*
X177300000Y-74180000D02*
X177300000Y-75420000D01*
X175300000Y-74180000D02*
X177300000Y-74180000D01*
X175300000Y-75420000D02*
X175300000Y-74180000D01*
X177300000Y-75420000D02*
X175300000Y-75420000D01*
X143810000Y-109010000D02*
X143810000Y-107770000D01*
X145810000Y-109010000D02*
X143810000Y-109010000D01*
X145810000Y-107770000D02*
X145810000Y-109010000D01*
X143810000Y-107770000D02*
X145810000Y-107770000D01*
X135340000Y-82800000D02*
X134100000Y-82800000D01*
X135340000Y-80800000D02*
X135340000Y-82800000D01*
X134100000Y-80800000D02*
X135340000Y-80800000D01*
X134100000Y-82800000D02*
X134100000Y-80800000D01*
X122290000Y-82220000D02*
X122290000Y-80980000D01*
X124290000Y-82220000D02*
X122290000Y-82220000D01*
X124290000Y-80980000D02*
X124290000Y-82220000D01*
X122290000Y-80980000D02*
X124290000Y-80980000D01*
X119690000Y-80970000D02*
X119690000Y-82210000D01*
X117690000Y-80970000D02*
X119690000Y-80970000D01*
X117690000Y-82210000D02*
X117690000Y-80970000D01*
X119690000Y-82210000D02*
X117690000Y-82210000D01*
X134120000Y-76170000D02*
X135360000Y-76170000D01*
X134120000Y-78170000D02*
X134120000Y-76170000D01*
X135360000Y-78170000D02*
X134120000Y-78170000D01*
X135360000Y-76170000D02*
X135360000Y-78170000D01*
X119110000Y-70190000D02*
X119110000Y-69390000D01*
X119110000Y-69790000D02*
X118510000Y-70190000D01*
X118510000Y-69390000D02*
X119110000Y-69790000D01*
X118510000Y-70190000D02*
X118510000Y-69390000D01*
X117710000Y-69190000D02*
X119710000Y-69190000D01*
X117710000Y-70390000D02*
X117710000Y-69190000D01*
X119710000Y-70390000D02*
X117710000Y-70390000D01*
X119710000Y-69190000D02*
X119710000Y-70390000D01*
X132520000Y-73520000D02*
X132520000Y-74320000D01*
X132520000Y-73920000D02*
X133120000Y-73520000D01*
X133120000Y-74320000D02*
X132520000Y-73920000D01*
X133120000Y-73520000D02*
X133120000Y-74320000D01*
X133920000Y-74520000D02*
X131920000Y-74520000D01*
X133920000Y-73320000D02*
X133920000Y-74520000D01*
X131920000Y-73320000D02*
X133920000Y-73320000D01*
X131920000Y-74520000D02*
X131920000Y-73320000D01*
X181680000Y-109240000D02*
X202000000Y-109240000D01*
X202000000Y-109240000D02*
X202000000Y-104160000D01*
X202000000Y-104160000D02*
X181680000Y-104160000D01*
X181680000Y-104160000D02*
X181680000Y-109240000D01*
X138390000Y-115310000D02*
X143470000Y-115310000D01*
X143470000Y-115310000D02*
X143470000Y-110230000D01*
X143470000Y-110230000D02*
X138390000Y-110230000D01*
X138390000Y-110230000D02*
X138390000Y-115310000D01*
X143630000Y-73080000D02*
X138550000Y-73080000D01*
X138550000Y-73080000D02*
X138550000Y-78160000D01*
X138550000Y-78160000D02*
X143630000Y-78160000D01*
X143630000Y-78160000D02*
X143630000Y-73080000D01*
X126530000Y-109270000D02*
X134150000Y-109270000D01*
X134150000Y-109270000D02*
X134150000Y-106730000D01*
X134150000Y-106730000D02*
X126530000Y-106730000D01*
X126530000Y-106730000D02*
X126530000Y-109270000D01*
X131050000Y-87170000D02*
X138670000Y-87170000D01*
X138670000Y-87170000D02*
X138670000Y-84630000D01*
X138670000Y-84630000D02*
X131050000Y-84630000D01*
X131050000Y-84630000D02*
X131050000Y-87170000D01*
X181700000Y-81320000D02*
X202020000Y-81320000D01*
X202020000Y-81320000D02*
X202020000Y-76240000D01*
X202020000Y-76240000D02*
X181700000Y-76240000D01*
X181700000Y-76240000D02*
X181700000Y-81320000D01*
X174600000Y-96280000D02*
X174600000Y-97520000D01*
X172600000Y-96280000D02*
X174600000Y-96280000D01*
X172600000Y-97520000D02*
X172600000Y-96280000D01*
X174600000Y-97520000D02*
X172600000Y-97520000D01*
X160450000Y-96180000D02*
X160450000Y-97420000D01*
X158450000Y-96180000D02*
X160450000Y-96180000D01*
X158450000Y-97420000D02*
X158450000Y-96180000D01*
X160450000Y-97420000D02*
X158450000Y-97420000D01*
X122160000Y-70440000D02*
X122160000Y-69200000D01*
X124160000Y-70440000D02*
X122160000Y-70440000D01*
X124160000Y-69200000D02*
X124160000Y-70440000D01*
X122160000Y-69200000D02*
X124160000Y-69200000D01*
X129480000Y-73300000D02*
X129480000Y-74540000D01*
X127480000Y-73300000D02*
X129480000Y-73300000D01*
X127480000Y-74540000D02*
X127480000Y-73300000D01*
X129480000Y-74540000D02*
X127480000Y-74540000D01*
X182330000Y-74590000D02*
X182330000Y-73350000D01*
X184330000Y-74590000D02*
X182330000Y-74590000D01*
X184330000Y-73350000D02*
X184330000Y-74590000D01*
X182330000Y-73350000D02*
X184330000Y-73350000D01*
X119230000Y-77980000D02*
X118180000Y-76930000D01*
X119230000Y-77980000D02*
X124880000Y-77980000D01*
X118180000Y-76930000D02*
X118180000Y-74280000D01*
X124880000Y-77980000D02*
X124880000Y-74280000D01*
X118180000Y-74280000D02*
X124880000Y-74280000D01*
X127330000Y-81520000D02*
X126280000Y-80470000D01*
X127330000Y-81520000D02*
X132980000Y-81520000D01*
X126280000Y-80470000D02*
X126280000Y-77820000D01*
X132980000Y-81520000D02*
X132980000Y-77820000D01*
X126280000Y-77820000D02*
X132980000Y-77820000D01*
X172300000Y-98700000D02*
X172300000Y-101150000D01*
X172850000Y-98130000D02*
X173700000Y-98130000D01*
X172300000Y-98700000D02*
X172850000Y-98130000D01*
X173700000Y-98130000D02*
X173700000Y-101170000D01*
X172300000Y-101170000D02*
X173700000Y-101170000D01*
X158100000Y-98650000D02*
X158100000Y-101100000D01*
X158650000Y-98080000D02*
X159500000Y-98080000D01*
X158100000Y-98650000D02*
X158650000Y-98080000D01*
X159500000Y-98080000D02*
X159500000Y-101120000D01*
X158100000Y-101120000D02*
X159500000Y-101120000D01*
X165000000Y-98600000D02*
X165000000Y-101050000D01*
X165550000Y-98030000D02*
X166400000Y-98030000D01*
X165000000Y-98600000D02*
X165550000Y-98030000D01*
X166400000Y-98030000D02*
X166400000Y-101070000D01*
X165000000Y-101070000D02*
X166400000Y-101070000D01*
X151200000Y-98650000D02*
X151200000Y-101100000D01*
X151750000Y-98080000D02*
X152600000Y-98080000D01*
X151200000Y-98650000D02*
X151750000Y-98080000D01*
X152600000Y-98080000D02*
X152600000Y-101120000D01*
X151200000Y-101120000D02*
X152600000Y-101120000D01*
X149100000Y-88800000D02*
X149100000Y-86350000D01*
X148550000Y-89370000D02*
X147700000Y-89370000D01*
X149100000Y-88800000D02*
X148550000Y-89370000D01*
X147700000Y-89370000D02*
X147700000Y-86330000D01*
X149100000Y-86330000D02*
X147700000Y-86330000D01*
X156200000Y-88950000D02*
X156200000Y-86500000D01*
X155650000Y-89520000D02*
X154800000Y-89520000D01*
X156200000Y-88950000D02*
X155650000Y-89520000D01*
X154800000Y-89520000D02*
X154800000Y-86480000D01*
X156200000Y-86480000D02*
X154800000Y-86480000D01*
X163500000Y-88950000D02*
X163500000Y-86500000D01*
X162950000Y-89520000D02*
X162100000Y-89520000D01*
X163500000Y-88950000D02*
X162950000Y-89520000D01*
X162100000Y-89520000D02*
X162100000Y-86480000D01*
X163500000Y-86480000D02*
X162100000Y-86480000D01*
X170800000Y-89000000D02*
X170800000Y-86550000D01*
X170250000Y-89570000D02*
X169400000Y-89570000D01*
X170800000Y-89000000D02*
X170250000Y-89570000D01*
X169400000Y-89570000D02*
X169400000Y-86530000D01*
X170800000Y-86530000D02*
X169400000Y-86530000D01*
X167350000Y-96180000D02*
X167350000Y-97420000D01*
X165350000Y-96180000D02*
X167350000Y-96180000D01*
X165350000Y-97420000D02*
X165350000Y-96180000D01*
X167350000Y-97420000D02*
X165350000Y-97420000D01*
X153550000Y-96180000D02*
X153550000Y-97420000D01*
X151550000Y-96180000D02*
X153550000Y-96180000D01*
X151550000Y-97420000D02*
X151550000Y-96180000D01*
X153550000Y-97420000D02*
X151550000Y-97420000D01*
X170920000Y-99350000D02*
X169680000Y-99350000D01*
X170920000Y-97350000D02*
X170920000Y-99350000D01*
X169680000Y-97350000D02*
X170920000Y-97350000D01*
X169680000Y-99350000D02*
X169680000Y-97350000D01*
X156720000Y-99250000D02*
X155480000Y-99250000D01*
X156720000Y-97250000D02*
X156720000Y-99250000D01*
X155480000Y-97250000D02*
X156720000Y-97250000D01*
X155480000Y-99250000D02*
X155480000Y-97250000D01*
X163620000Y-99250000D02*
X162380000Y-99250000D01*
X163620000Y-97250000D02*
X163620000Y-99250000D01*
X162380000Y-97250000D02*
X163620000Y-97250000D01*
X162380000Y-99250000D02*
X162380000Y-97250000D01*
X149720000Y-99250000D02*
X148480000Y-99250000D01*
X149720000Y-97250000D02*
X149720000Y-99250000D01*
X148480000Y-97250000D02*
X149720000Y-97250000D01*
X148480000Y-99250000D02*
X148480000Y-97250000D01*
X150480000Y-88250000D02*
X151720000Y-88250000D01*
X150480000Y-90250000D02*
X150480000Y-88250000D01*
X151720000Y-90250000D02*
X150480000Y-90250000D01*
X151720000Y-88250000D02*
X151720000Y-90250000D01*
X157580000Y-88250000D02*
X158820000Y-88250000D01*
X157580000Y-90250000D02*
X157580000Y-88250000D01*
X158820000Y-90250000D02*
X157580000Y-90250000D01*
X158820000Y-88250000D02*
X158820000Y-90250000D01*
X164780000Y-88350000D02*
X166020000Y-88350000D01*
X164780000Y-90350000D02*
X164780000Y-88350000D01*
X166020000Y-90350000D02*
X164780000Y-90350000D01*
X166020000Y-88350000D02*
X166020000Y-90350000D01*
X172180000Y-88350000D02*
X173420000Y-88350000D01*
X172180000Y-90350000D02*
X172180000Y-88350000D01*
X173420000Y-90350000D02*
X172180000Y-90350000D01*
X173420000Y-88350000D02*
X173420000Y-90350000D01*
X148750000Y-90080000D02*
X148750000Y-91320000D01*
X146750000Y-90080000D02*
X148750000Y-90080000D01*
X146750000Y-91320000D02*
X146750000Y-90080000D01*
X148750000Y-91320000D02*
X146750000Y-91320000D01*
X155850000Y-90080000D02*
X155850000Y-91320000D01*
X153850000Y-90080000D02*
X155850000Y-90080000D01*
X153850000Y-91320000D02*
X153850000Y-90080000D01*
X155850000Y-91320000D02*
X153850000Y-91320000D01*
X161150000Y-91420000D02*
X161150000Y-90180000D01*
X163150000Y-91420000D02*
X161150000Y-91420000D01*
X163150000Y-90180000D02*
X163150000Y-91420000D01*
X161150000Y-90180000D02*
X163150000Y-90180000D01*
X170450000Y-90180000D02*
X170450000Y-91420000D01*
X168450000Y-90180000D02*
X170450000Y-90180000D01*
X168450000Y-91420000D02*
X168450000Y-90180000D01*
X170450000Y-91420000D02*
X168450000Y-91420000D01*
D11*
X175800000Y-72502381D02*
X175895239Y-72502381D01*
X175990477Y-72550000D01*
X176038096Y-72597619D01*
X176085715Y-72692857D01*
X176133334Y-72883333D01*
X176133334Y-73121429D01*
X176085715Y-73311905D01*
X176038096Y-73407143D01*
X175990477Y-73454762D01*
X175895239Y-73502381D01*
X175800000Y-73502381D01*
X175704762Y-73454762D01*
X175657143Y-73407143D01*
X175609524Y-73311905D01*
X175561905Y-73121429D01*
X175561905Y-72883333D01*
X175609524Y-72692857D01*
X175657143Y-72597619D01*
X175704762Y-72550000D01*
X175800000Y-72502381D01*
X176561905Y-72978571D02*
X176895239Y-72978571D01*
X177038096Y-73502381D02*
X176561905Y-73502381D01*
X176561905Y-72502381D01*
X177038096Y-72502381D01*
D12*
X176216667Y-75026190D02*
X176050000Y-74788095D01*
X175930953Y-75026190D02*
X175930953Y-74526190D01*
X176121429Y-74526190D01*
X176169048Y-74550000D01*
X176192857Y-74573810D01*
X176216667Y-74621429D01*
X176216667Y-74692857D01*
X176192857Y-74740476D01*
X176169048Y-74764286D01*
X176121429Y-74788095D01*
X175930953Y-74788095D01*
X176645238Y-74526190D02*
X176550000Y-74526190D01*
X176502381Y-74550000D01*
X176478572Y-74573810D01*
X176430953Y-74645238D01*
X176407143Y-74740476D01*
X176407143Y-74930952D01*
X176430953Y-74978571D01*
X176454762Y-75002381D01*
X176502381Y-75026190D01*
X176597619Y-75026190D01*
X176645238Y-75002381D01*
X176669048Y-74978571D01*
X176692857Y-74930952D01*
X176692857Y-74811905D01*
X176669048Y-74764286D01*
X176645238Y-74740476D01*
X176597619Y-74716667D01*
X176502381Y-74716667D01*
X176454762Y-74740476D01*
X176430953Y-74764286D01*
X176407143Y-74811905D01*
D11*
X144454762Y-108832381D02*
X143883333Y-108832381D01*
X144169047Y-108832381D02*
X144169047Y-107832381D01*
X144073809Y-107975238D01*
X143978571Y-108070476D01*
X143883333Y-108118095D01*
X145311905Y-108165714D02*
X145311905Y-108832381D01*
X144883333Y-108165714D02*
X144883333Y-108689524D01*
X144930952Y-108784762D01*
X145026190Y-108832381D01*
X145169048Y-108832381D01*
X145264286Y-108784762D01*
X145311905Y-108737143D01*
X146121429Y-108308571D02*
X145788095Y-108308571D01*
X145788095Y-108832381D02*
X145788095Y-107832381D01*
X146264286Y-107832381D01*
D10*
X144726667Y-106818571D02*
X144702857Y-106842381D01*
X144631429Y-106866190D01*
X144583810Y-106866190D01*
X144512381Y-106842381D01*
X144464762Y-106794762D01*
X144440953Y-106747143D01*
X144417143Y-106651905D01*
X144417143Y-106580476D01*
X144440953Y-106485238D01*
X144464762Y-106437619D01*
X144512381Y-106390000D01*
X144583810Y-106366190D01*
X144631429Y-106366190D01*
X144702857Y-106390000D01*
X144726667Y-106413810D01*
X145155238Y-106532857D02*
X145155238Y-106866190D01*
X145036191Y-106342381D02*
X144917143Y-106699524D01*
X145226667Y-106699524D01*
D11*
X135152381Y-82841428D02*
X135152381Y-83412857D01*
X135152381Y-83127143D02*
X134152381Y-83127143D01*
X134295238Y-83222381D01*
X134390476Y-83317619D01*
X134438095Y-83412857D01*
X134152381Y-82222381D02*
X134152381Y-82127142D01*
X134200000Y-82031904D01*
X134247619Y-81984285D01*
X134342857Y-81936666D01*
X134533333Y-81889047D01*
X134771429Y-81889047D01*
X134961905Y-81936666D01*
X135057143Y-81984285D01*
X135104762Y-82031904D01*
X135152381Y-82127142D01*
X135152381Y-82222381D01*
X135104762Y-82317619D01*
X135057143Y-82365238D01*
X134961905Y-82412857D01*
X134771429Y-82460476D01*
X134533333Y-82460476D01*
X134342857Y-82412857D01*
X134247619Y-82365238D01*
X134200000Y-82317619D01*
X134152381Y-82222381D01*
X134485714Y-81031904D02*
X135152381Y-81031904D01*
X134485714Y-81460476D02*
X135009524Y-81460476D01*
X135104762Y-81412857D01*
X135152381Y-81317619D01*
X135152381Y-81174761D01*
X135104762Y-81079523D01*
X135057143Y-81031904D01*
X134628571Y-80222380D02*
X134628571Y-80555714D01*
X135152381Y-80555714D02*
X134152381Y-80555714D01*
X134152381Y-80079523D01*
X133327143Y-82442857D02*
X133374762Y-82490476D01*
X133422381Y-82633333D01*
X133422381Y-82728571D01*
X133374762Y-82871429D01*
X133279524Y-82966667D01*
X133184286Y-83014286D01*
X132993810Y-83061905D01*
X132850952Y-83061905D01*
X132660476Y-83014286D01*
X132565238Y-82966667D01*
X132470000Y-82871429D01*
X132422381Y-82728571D01*
X132422381Y-82633333D01*
X132470000Y-82490476D01*
X132517619Y-82442857D01*
X133422381Y-81490476D02*
X133422381Y-82061905D01*
X133422381Y-81776191D02*
X132422381Y-81776191D01*
X132565238Y-81871429D01*
X132660476Y-81966667D01*
X132708095Y-82061905D01*
X133422381Y-80538095D02*
X133422381Y-81109524D01*
X133422381Y-80823810D02*
X132422381Y-80823810D01*
X132565238Y-80919048D01*
X132660476Y-81014286D01*
X132708095Y-81109524D01*
X122198572Y-82042381D02*
X121627143Y-82042381D01*
X121912857Y-82042381D02*
X121912857Y-81042381D01*
X121817619Y-81185238D01*
X121722381Y-81280476D01*
X121627143Y-81328095D01*
X122817619Y-81042381D02*
X122912858Y-81042381D01*
X123008096Y-81090000D01*
X123055715Y-81137619D01*
X123103334Y-81232857D01*
X123150953Y-81423333D01*
X123150953Y-81661429D01*
X123103334Y-81851905D01*
X123055715Y-81947143D01*
X123008096Y-81994762D01*
X122912858Y-82042381D01*
X122817619Y-82042381D01*
X122722381Y-81994762D01*
X122674762Y-81947143D01*
X122627143Y-81851905D01*
X122579524Y-81661429D01*
X122579524Y-81423333D01*
X122627143Y-81232857D01*
X122674762Y-81137619D01*
X122722381Y-81090000D01*
X122817619Y-81042381D01*
X124008096Y-81375714D02*
X124008096Y-82042381D01*
X123579524Y-81375714D02*
X123579524Y-81899524D01*
X123627143Y-81994762D01*
X123722381Y-82042381D01*
X123865239Y-82042381D01*
X123960477Y-81994762D01*
X124008096Y-81947143D01*
X124817620Y-81518571D02*
X124484286Y-81518571D01*
X124484286Y-82042381D02*
X124484286Y-81042381D01*
X124960477Y-81042381D01*
X122647143Y-80207143D02*
X122599524Y-80254762D01*
X122456667Y-80302381D01*
X122361429Y-80302381D01*
X122218571Y-80254762D01*
X122123333Y-80159524D01*
X122075714Y-80064286D01*
X122028095Y-79873810D01*
X122028095Y-79730952D01*
X122075714Y-79540476D01*
X122123333Y-79445238D01*
X122218571Y-79350000D01*
X122361429Y-79302381D01*
X122456667Y-79302381D01*
X122599524Y-79350000D01*
X122647143Y-79397619D01*
X123599524Y-80302381D02*
X123028095Y-80302381D01*
X123313809Y-80302381D02*
X123313809Y-79302381D01*
X123218571Y-79445238D01*
X123123333Y-79540476D01*
X123028095Y-79588095D01*
X123980476Y-79397619D02*
X124028095Y-79350000D01*
X124123333Y-79302381D01*
X124361429Y-79302381D01*
X124456667Y-79350000D01*
X124504286Y-79397619D01*
X124551905Y-79492857D01*
X124551905Y-79588095D01*
X124504286Y-79730952D01*
X123932857Y-80302381D01*
X124551905Y-80302381D01*
X117508572Y-82062381D02*
X116937143Y-82062381D01*
X117222857Y-82062381D02*
X117222857Y-81062381D01*
X117127619Y-81205238D01*
X117032381Y-81300476D01*
X116937143Y-81348095D01*
X118127619Y-81062381D02*
X118222858Y-81062381D01*
X118318096Y-81110000D01*
X118365715Y-81157619D01*
X118413334Y-81252857D01*
X118460953Y-81443333D01*
X118460953Y-81681429D01*
X118413334Y-81871905D01*
X118365715Y-81967143D01*
X118318096Y-82014762D01*
X118222858Y-82062381D01*
X118127619Y-82062381D01*
X118032381Y-82014762D01*
X117984762Y-81967143D01*
X117937143Y-81871905D01*
X117889524Y-81681429D01*
X117889524Y-81443333D01*
X117937143Y-81252857D01*
X117984762Y-81157619D01*
X118032381Y-81110000D01*
X118127619Y-81062381D01*
X119318096Y-81395714D02*
X119318096Y-82062381D01*
X118889524Y-81395714D02*
X118889524Y-81919524D01*
X118937143Y-82014762D01*
X119032381Y-82062381D01*
X119175239Y-82062381D01*
X119270477Y-82014762D01*
X119318096Y-81967143D01*
X120127620Y-81538571D02*
X119794286Y-81538571D01*
X119794286Y-82062381D02*
X119794286Y-81062381D01*
X120270477Y-81062381D01*
X118047143Y-83697143D02*
X117999524Y-83744762D01*
X117856667Y-83792381D01*
X117761429Y-83792381D01*
X117618571Y-83744762D01*
X117523333Y-83649524D01*
X117475714Y-83554286D01*
X117428095Y-83363810D01*
X117428095Y-83220952D01*
X117475714Y-83030476D01*
X117523333Y-82935238D01*
X117618571Y-82840000D01*
X117761429Y-82792381D01*
X117856667Y-82792381D01*
X117999524Y-82840000D01*
X118047143Y-82887619D01*
X118999524Y-83792381D02*
X118428095Y-83792381D01*
X118713809Y-83792381D02*
X118713809Y-82792381D01*
X118618571Y-82935238D01*
X118523333Y-83030476D01*
X118428095Y-83078095D01*
X119332857Y-82792381D02*
X119951905Y-82792381D01*
X119618571Y-83173333D01*
X119761429Y-83173333D01*
X119856667Y-83220952D01*
X119904286Y-83268571D01*
X119951905Y-83363810D01*
X119951905Y-83601905D01*
X119904286Y-83697143D01*
X119856667Y-83744762D01*
X119761429Y-83792381D01*
X119475714Y-83792381D01*
X119380476Y-83744762D01*
X119332857Y-83697143D01*
X135212381Y-78131428D02*
X135212381Y-78702857D01*
X135212381Y-78417143D02*
X134212381Y-78417143D01*
X134355238Y-78512381D01*
X134450476Y-78607619D01*
X134498095Y-78702857D01*
X134212381Y-77512381D02*
X134212381Y-77417142D01*
X134260000Y-77321904D01*
X134307619Y-77274285D01*
X134402857Y-77226666D01*
X134593333Y-77179047D01*
X134831429Y-77179047D01*
X135021905Y-77226666D01*
X135117143Y-77274285D01*
X135164762Y-77321904D01*
X135212381Y-77417142D01*
X135212381Y-77512381D01*
X135164762Y-77607619D01*
X135117143Y-77655238D01*
X135021905Y-77702857D01*
X134831429Y-77750476D01*
X134593333Y-77750476D01*
X134402857Y-77702857D01*
X134307619Y-77655238D01*
X134260000Y-77607619D01*
X134212381Y-77512381D01*
X134545714Y-76321904D02*
X135212381Y-76321904D01*
X134545714Y-76750476D02*
X135069524Y-76750476D01*
X135164762Y-76702857D01*
X135212381Y-76607619D01*
X135212381Y-76464761D01*
X135164762Y-76369523D01*
X135117143Y-76321904D01*
X134688571Y-75512380D02*
X134688571Y-75845714D01*
X135212381Y-75845714D02*
X134212381Y-75845714D01*
X134212381Y-75369523D01*
X136847143Y-77812857D02*
X136894762Y-77860476D01*
X136942381Y-78003333D01*
X136942381Y-78098571D01*
X136894762Y-78241429D01*
X136799524Y-78336667D01*
X136704286Y-78384286D01*
X136513810Y-78431905D01*
X136370952Y-78431905D01*
X136180476Y-78384286D01*
X136085238Y-78336667D01*
X135990000Y-78241429D01*
X135942381Y-78098571D01*
X135942381Y-78003333D01*
X135990000Y-77860476D01*
X136037619Y-77812857D01*
X136942381Y-76860476D02*
X136942381Y-77431905D01*
X136942381Y-77146191D02*
X135942381Y-77146191D01*
X136085238Y-77241429D01*
X136180476Y-77336667D01*
X136228095Y-77431905D01*
X136275714Y-76003333D02*
X136942381Y-76003333D01*
X135894762Y-76241429D02*
X136609048Y-76479524D01*
X136609048Y-75860476D01*
X117676667Y-68922381D02*
X117676667Y-67922381D01*
X118057620Y-67922381D01*
X118152858Y-67970000D01*
X118200477Y-68017619D01*
X118248096Y-68112857D01*
X118248096Y-68255714D01*
X118200477Y-68350952D01*
X118152858Y-68398571D01*
X118057620Y-68446190D01*
X117676667Y-68446190D01*
X118581429Y-67922381D02*
X118819524Y-68922381D01*
X119010001Y-68208095D01*
X119200477Y-68922381D01*
X119438572Y-67922381D01*
X120390953Y-68922381D02*
X120057619Y-68446190D01*
X119819524Y-68922381D02*
X119819524Y-67922381D01*
X120200477Y-67922381D01*
X120295715Y-67970000D01*
X120343334Y-68017619D01*
X120390953Y-68112857D01*
X120390953Y-68255714D01*
X120343334Y-68350952D01*
X120295715Y-68398571D01*
X120200477Y-68446190D01*
X119819524Y-68446190D01*
X131626667Y-74362381D02*
X131626667Y-73362381D01*
X132007620Y-73362381D01*
X132102858Y-73410000D01*
X132150477Y-73457619D01*
X132198096Y-73552857D01*
X132198096Y-73695714D01*
X132150477Y-73790952D01*
X132102858Y-73838571D01*
X132007620Y-73886190D01*
X131626667Y-73886190D01*
X132531429Y-73362381D02*
X132769524Y-74362381D01*
X132960001Y-73648095D01*
X133150477Y-74362381D01*
X133388572Y-73362381D01*
X134340953Y-74362381D02*
X134007619Y-73886190D01*
X133769524Y-74362381D02*
X133769524Y-73362381D01*
X134150477Y-73362381D01*
X134245715Y-73410000D01*
X134293334Y-73457619D01*
X134340953Y-73552857D01*
X134340953Y-73695714D01*
X134293334Y-73790952D01*
X134245715Y-73838571D01*
X134150477Y-73886190D01*
X133769524Y-73886190D01*
X187423333Y-111532381D02*
X186947142Y-111532381D01*
X186947142Y-110532381D01*
X187756666Y-111008571D02*
X188090000Y-111008571D01*
X188232857Y-111532381D02*
X187756666Y-111532381D01*
X187756666Y-110532381D01*
X188232857Y-110532381D01*
X188994762Y-111008571D02*
X188661428Y-111008571D01*
X188661428Y-111532381D02*
X188661428Y-110532381D01*
X189137619Y-110532381D01*
X189375714Y-110532381D02*
X189947143Y-110532381D01*
X189661428Y-111532381D02*
X189661428Y-110532381D01*
X190042381Y-111627619D02*
X190804286Y-111627619D01*
X191613810Y-111437143D02*
X191566191Y-111484762D01*
X191423334Y-111532381D01*
X191328096Y-111532381D01*
X191185238Y-111484762D01*
X191090000Y-111389524D01*
X191042381Y-111294286D01*
X190994762Y-111103810D01*
X190994762Y-110960952D01*
X191042381Y-110770476D01*
X191090000Y-110675238D01*
X191185238Y-110580000D01*
X191328096Y-110532381D01*
X191423334Y-110532381D01*
X191566191Y-110580000D01*
X191613810Y-110627619D01*
X192232857Y-110532381D02*
X192423334Y-110532381D01*
X192518572Y-110580000D01*
X192613810Y-110675238D01*
X192661429Y-110865714D01*
X192661429Y-111199048D01*
X192613810Y-111389524D01*
X192518572Y-111484762D01*
X192423334Y-111532381D01*
X192232857Y-111532381D01*
X192137619Y-111484762D01*
X192042381Y-111389524D01*
X191994762Y-111199048D01*
X191994762Y-110865714D01*
X192042381Y-110675238D01*
X192137619Y-110580000D01*
X192232857Y-110532381D01*
X193090000Y-111532381D02*
X193090000Y-110532381D01*
X193661429Y-111532381D01*
X193661429Y-110532381D01*
X194137619Y-111532381D02*
X194137619Y-110532381D01*
X194709048Y-111532381D01*
X194709048Y-110532381D01*
X194947143Y-111627619D02*
X195709048Y-111627619D01*
X196137619Y-110532381D02*
X196232858Y-110532381D01*
X196328096Y-110580000D01*
X196375715Y-110627619D01*
X196423334Y-110722857D01*
X196470953Y-110913333D01*
X196470953Y-111151429D01*
X196423334Y-111341905D01*
X196375715Y-111437143D01*
X196328096Y-111484762D01*
X196232858Y-111532381D01*
X196137619Y-111532381D01*
X196042381Y-111484762D01*
X195994762Y-111437143D01*
X195947143Y-111341905D01*
X195899524Y-111151429D01*
X195899524Y-110913333D01*
X195947143Y-110722857D01*
X195994762Y-110627619D01*
X196042381Y-110580000D01*
X196137619Y-110532381D01*
X196851905Y-110627619D02*
X196899524Y-110580000D01*
X196994762Y-110532381D01*
X197232858Y-110532381D01*
X197328096Y-110580000D01*
X197375715Y-110627619D01*
X197423334Y-110722857D01*
X197423334Y-110818095D01*
X197375715Y-110960952D01*
X196804286Y-111532381D01*
X197423334Y-111532381D01*
X197756667Y-110532381D02*
X198423334Y-111532381D01*
X198423334Y-110532381D02*
X197756667Y-111532381D01*
X198994762Y-110532381D02*
X199090001Y-110532381D01*
X199185239Y-110580000D01*
X199232858Y-110627619D01*
X199280477Y-110722857D01*
X199328096Y-110913333D01*
X199328096Y-111151429D01*
X199280477Y-111341905D01*
X199232858Y-111437143D01*
X199185239Y-111484762D01*
X199090001Y-111532381D01*
X198994762Y-111532381D01*
X198899524Y-111484762D01*
X198851905Y-111437143D01*
X198804286Y-111341905D01*
X198756667Y-111151429D01*
X198756667Y-110913333D01*
X198804286Y-110722857D01*
X198851905Y-110627619D01*
X198899524Y-110580000D01*
X198994762Y-110532381D01*
X199899524Y-110960952D02*
X199804286Y-110913333D01*
X199756667Y-110865714D01*
X199709048Y-110770476D01*
X199709048Y-110722857D01*
X199756667Y-110627619D01*
X199804286Y-110580000D01*
X199899524Y-110532381D01*
X200090001Y-110532381D01*
X200185239Y-110580000D01*
X200232858Y-110627619D01*
X200280477Y-110722857D01*
X200280477Y-110770476D01*
X200232858Y-110865714D01*
X200185239Y-110913333D01*
X200090001Y-110960952D01*
X199899524Y-110960952D01*
X199804286Y-111008571D01*
X199756667Y-111056190D01*
X199709048Y-111151429D01*
X199709048Y-111341905D01*
X199756667Y-111437143D01*
X199804286Y-111484762D01*
X199899524Y-111532381D01*
X200090001Y-111532381D01*
X200185239Y-111484762D01*
X200232858Y-111437143D01*
X200280477Y-111341905D01*
X200280477Y-111151429D01*
X200232858Y-111056190D01*
X200185239Y-111008571D01*
X200090001Y-110960952D01*
X181072381Y-107438095D02*
X180072381Y-107438095D01*
X180072381Y-107057142D01*
X180120000Y-106961904D01*
X180167619Y-106914285D01*
X180262857Y-106866666D01*
X180405714Y-106866666D01*
X180500952Y-106914285D01*
X180548571Y-106961904D01*
X180596190Y-107057142D01*
X180596190Y-107438095D01*
X181072381Y-105914285D02*
X181072381Y-106485714D01*
X181072381Y-106200000D02*
X180072381Y-106200000D01*
X180215238Y-106295238D01*
X180310476Y-106390476D01*
X180358095Y-106485714D01*
X136142381Y-116585714D02*
X135666190Y-116919048D01*
X136142381Y-117157143D02*
X135142381Y-117157143D01*
X135142381Y-116776190D01*
X135190000Y-116680952D01*
X135237619Y-116633333D01*
X135332857Y-116585714D01*
X135475714Y-116585714D01*
X135570952Y-116633333D01*
X135618571Y-116680952D01*
X135666190Y-116776190D01*
X135666190Y-117157143D01*
X136094762Y-116204762D02*
X136142381Y-116061905D01*
X136142381Y-115823809D01*
X136094762Y-115728571D01*
X136047143Y-115680952D01*
X135951905Y-115633333D01*
X135856667Y-115633333D01*
X135761429Y-115680952D01*
X135713810Y-115728571D01*
X135666190Y-115823809D01*
X135618571Y-116014286D01*
X135570952Y-116109524D01*
X135523333Y-116157143D01*
X135428095Y-116204762D01*
X135332857Y-116204762D01*
X135237619Y-116157143D01*
X135190000Y-116109524D01*
X135142381Y-116014286D01*
X135142381Y-115776190D01*
X135190000Y-115633333D01*
X135237619Y-115252381D02*
X135190000Y-115204762D01*
X135142381Y-115109524D01*
X135142381Y-114871428D01*
X135190000Y-114776190D01*
X135237619Y-114728571D01*
X135332857Y-114680952D01*
X135428095Y-114680952D01*
X135570952Y-114728571D01*
X136142381Y-115300000D01*
X136142381Y-114680952D01*
X135142381Y-114347619D02*
X135142381Y-113728571D01*
X135523333Y-114061905D01*
X135523333Y-113919047D01*
X135570952Y-113823809D01*
X135618571Y-113776190D01*
X135713810Y-113728571D01*
X135951905Y-113728571D01*
X136047143Y-113776190D01*
X136094762Y-113823809D01*
X136142381Y-113919047D01*
X136142381Y-114204762D01*
X136094762Y-114300000D01*
X136047143Y-114347619D01*
X135237619Y-113347619D02*
X135190000Y-113300000D01*
X135142381Y-113204762D01*
X135142381Y-112966666D01*
X135190000Y-112871428D01*
X135237619Y-112823809D01*
X135332857Y-112776190D01*
X135428095Y-112776190D01*
X135570952Y-112823809D01*
X136142381Y-113395238D01*
X136142381Y-112776190D01*
X136237619Y-112585714D02*
X136237619Y-111823809D01*
X135142381Y-111299999D02*
X135856667Y-111299999D01*
X135999524Y-111347619D01*
X136094762Y-111442857D01*
X136142381Y-111585714D01*
X136142381Y-111680952D01*
X136142381Y-110823809D02*
X135142381Y-110823809D01*
X135856667Y-110490475D01*
X135142381Y-110157142D01*
X136142381Y-110157142D01*
X136142381Y-109680952D02*
X135142381Y-109680952D01*
X135142381Y-109299999D01*
X135190000Y-109204761D01*
X135237619Y-109157142D01*
X135332857Y-109109523D01*
X135475714Y-109109523D01*
X135570952Y-109157142D01*
X135618571Y-109204761D01*
X135666190Y-109299999D01*
X135666190Y-109680952D01*
X136142381Y-108109523D02*
X135666190Y-108442857D01*
X136142381Y-108680952D02*
X135142381Y-108680952D01*
X135142381Y-108299999D01*
X135190000Y-108204761D01*
X135237619Y-108157142D01*
X135332857Y-108109523D01*
X135475714Y-108109523D01*
X135570952Y-108157142D01*
X135618571Y-108204761D01*
X135666190Y-108299999D01*
X135666190Y-108680952D01*
X136237619Y-107919047D02*
X136237619Y-107157142D01*
X135237619Y-106966666D02*
X135190000Y-106919047D01*
X135142381Y-106823809D01*
X135142381Y-106585713D01*
X135190000Y-106490475D01*
X135237619Y-106442856D01*
X135332857Y-106395237D01*
X135428095Y-106395237D01*
X135570952Y-106442856D01*
X136142381Y-107014285D01*
X136142381Y-106395237D01*
X137782381Y-113508095D02*
X136782381Y-113508095D01*
X136782381Y-113127142D01*
X136830000Y-113031904D01*
X136877619Y-112984285D01*
X136972857Y-112936666D01*
X137115714Y-112936666D01*
X137210952Y-112984285D01*
X137258571Y-113031904D01*
X137306190Y-113127142D01*
X137306190Y-113508095D01*
X136877619Y-112555714D02*
X136830000Y-112508095D01*
X136782381Y-112412857D01*
X136782381Y-112174761D01*
X136830000Y-112079523D01*
X136877619Y-112031904D01*
X136972857Y-111984285D01*
X137068095Y-111984285D01*
X137210952Y-112031904D01*
X137782381Y-112603333D01*
X137782381Y-111984285D01*
X137942381Y-80405714D02*
X137466190Y-80739048D01*
X137942381Y-80977143D02*
X136942381Y-80977143D01*
X136942381Y-80596190D01*
X136990000Y-80500952D01*
X137037619Y-80453333D01*
X137132857Y-80405714D01*
X137275714Y-80405714D01*
X137370952Y-80453333D01*
X137418571Y-80500952D01*
X137466190Y-80596190D01*
X137466190Y-80977143D01*
X137894762Y-80024762D02*
X137942381Y-79881905D01*
X137942381Y-79643809D01*
X137894762Y-79548571D01*
X137847143Y-79500952D01*
X137751905Y-79453333D01*
X137656667Y-79453333D01*
X137561429Y-79500952D01*
X137513810Y-79548571D01*
X137466190Y-79643809D01*
X137418571Y-79834286D01*
X137370952Y-79929524D01*
X137323333Y-79977143D01*
X137228095Y-80024762D01*
X137132857Y-80024762D01*
X137037619Y-79977143D01*
X136990000Y-79929524D01*
X136942381Y-79834286D01*
X136942381Y-79596190D01*
X136990000Y-79453333D01*
X137037619Y-79072381D02*
X136990000Y-79024762D01*
X136942381Y-78929524D01*
X136942381Y-78691428D01*
X136990000Y-78596190D01*
X137037619Y-78548571D01*
X137132857Y-78500952D01*
X137228095Y-78500952D01*
X137370952Y-78548571D01*
X137942381Y-79120000D01*
X137942381Y-78500952D01*
X136942381Y-78167619D02*
X136942381Y-77548571D01*
X137323333Y-77881905D01*
X137323333Y-77739047D01*
X137370952Y-77643809D01*
X137418571Y-77596190D01*
X137513810Y-77548571D01*
X137751905Y-77548571D01*
X137847143Y-77596190D01*
X137894762Y-77643809D01*
X137942381Y-77739047D01*
X137942381Y-78024762D01*
X137894762Y-78120000D01*
X137847143Y-78167619D01*
X137037619Y-77167619D02*
X136990000Y-77120000D01*
X136942381Y-77024762D01*
X136942381Y-76786666D01*
X136990000Y-76691428D01*
X137037619Y-76643809D01*
X137132857Y-76596190D01*
X137228095Y-76596190D01*
X137370952Y-76643809D01*
X137942381Y-77215238D01*
X137942381Y-76596190D01*
X138037619Y-76405714D02*
X138037619Y-75643809D01*
X136942381Y-75119999D02*
X137656667Y-75119999D01*
X137799524Y-75167619D01*
X137894762Y-75262857D01*
X137942381Y-75405714D01*
X137942381Y-75500952D01*
X137942381Y-74643809D02*
X136942381Y-74643809D01*
X137656667Y-74310475D01*
X136942381Y-73977142D01*
X137942381Y-73977142D01*
X137942381Y-73500952D02*
X136942381Y-73500952D01*
X136942381Y-73119999D01*
X136990000Y-73024761D01*
X137037619Y-72977142D01*
X137132857Y-72929523D01*
X137275714Y-72929523D01*
X137370952Y-72977142D01*
X137418571Y-73024761D01*
X137466190Y-73119999D01*
X137466190Y-73500952D01*
X137942381Y-71929523D02*
X137466190Y-72262857D01*
X137942381Y-72500952D02*
X136942381Y-72500952D01*
X136942381Y-72119999D01*
X136990000Y-72024761D01*
X137037619Y-71977142D01*
X137132857Y-71929523D01*
X137275714Y-71929523D01*
X137370952Y-71977142D01*
X137418571Y-72024761D01*
X137466190Y-72119999D01*
X137466190Y-72500952D01*
X138037619Y-71739047D02*
X138037619Y-70977142D01*
X137942381Y-70215237D02*
X137942381Y-70786666D01*
X137942381Y-70500952D02*
X136942381Y-70500952D01*
X137085238Y-70596190D01*
X137180476Y-70691428D01*
X137228095Y-70786666D01*
X145142381Y-76358095D02*
X144142381Y-76358095D01*
X144142381Y-75977142D01*
X144190000Y-75881904D01*
X144237619Y-75834285D01*
X144332857Y-75786666D01*
X144475714Y-75786666D01*
X144570952Y-75834285D01*
X144618571Y-75881904D01*
X144666190Y-75977142D01*
X144666190Y-76358095D01*
X144142381Y-75453333D02*
X144142381Y-74834285D01*
X144523333Y-75167619D01*
X144523333Y-75024761D01*
X144570952Y-74929523D01*
X144618571Y-74881904D01*
X144713810Y-74834285D01*
X144951905Y-74834285D01*
X145047143Y-74881904D01*
X145094762Y-74929523D01*
X145142381Y-75024761D01*
X145142381Y-75310476D01*
X145094762Y-75405714D01*
X145047143Y-75453333D01*
X134662381Y-111190476D02*
X135376667Y-111190476D01*
X135519524Y-111238096D01*
X135614762Y-111333334D01*
X135662381Y-111476191D01*
X135662381Y-111571429D01*
X135662381Y-110714286D02*
X134662381Y-110714286D01*
X135376667Y-110380952D01*
X134662381Y-110047619D01*
X135662381Y-110047619D01*
X135662381Y-109571429D02*
X134662381Y-109571429D01*
X134662381Y-109190476D01*
X134710000Y-109095238D01*
X134757619Y-109047619D01*
X134852857Y-109000000D01*
X134995714Y-109000000D01*
X135090952Y-109047619D01*
X135138571Y-109095238D01*
X135186190Y-109190476D01*
X135186190Y-109571429D01*
X135662381Y-108000000D02*
X135186190Y-108333334D01*
X135662381Y-108571429D02*
X134662381Y-108571429D01*
X134662381Y-108190476D01*
X134710000Y-108095238D01*
X134757619Y-108047619D01*
X134852857Y-108000000D01*
X134995714Y-108000000D01*
X135090952Y-108047619D01*
X135138571Y-108095238D01*
X135186190Y-108190476D01*
X135186190Y-108571429D01*
X135757619Y-107809524D02*
X135757619Y-107047619D01*
X134662381Y-106904762D02*
X134662381Y-106285714D01*
X135043333Y-106619048D01*
X135043333Y-106476190D01*
X135090952Y-106380952D01*
X135138571Y-106333333D01*
X135233810Y-106285714D01*
X135471905Y-106285714D01*
X135567143Y-106333333D01*
X135614762Y-106380952D01*
X135662381Y-106476190D01*
X135662381Y-106761905D01*
X135614762Y-106857143D01*
X135567143Y-106904762D01*
X134662381Y-106000000D02*
X135662381Y-105666667D01*
X134662381Y-105333333D01*
X134662381Y-105095238D02*
X134662381Y-104476190D01*
X135043333Y-104809524D01*
X135043333Y-104666666D01*
X135090952Y-104571428D01*
X135138571Y-104523809D01*
X135233810Y-104476190D01*
X135471905Y-104476190D01*
X135567143Y-104523809D01*
X135614762Y-104571428D01*
X135662381Y-104666666D01*
X135662381Y-104952381D01*
X135614762Y-105047619D01*
X135567143Y-105095238D01*
X125922381Y-108738095D02*
X124922381Y-108738095D01*
X124922381Y-108357142D01*
X124970000Y-108261904D01*
X125017619Y-108214285D01*
X125112857Y-108166666D01*
X125255714Y-108166666D01*
X125350952Y-108214285D01*
X125398571Y-108261904D01*
X125446190Y-108357142D01*
X125446190Y-108738095D01*
X124922381Y-107309523D02*
X124922381Y-107500000D01*
X124970000Y-107595238D01*
X125017619Y-107642857D01*
X125160476Y-107738095D01*
X125350952Y-107785714D01*
X125731905Y-107785714D01*
X125827143Y-107738095D01*
X125874762Y-107690476D01*
X125922381Y-107595238D01*
X125922381Y-107404761D01*
X125874762Y-107309523D01*
X125827143Y-107261904D01*
X125731905Y-107214285D01*
X125493810Y-107214285D01*
X125398571Y-107261904D01*
X125350952Y-107309523D01*
X125303333Y-107404761D01*
X125303333Y-107595238D01*
X125350952Y-107690476D01*
X125398571Y-107738095D01*
X125493810Y-107785714D01*
X102457143Y-117302857D02*
X102504762Y-117350476D01*
X102552381Y-117493333D01*
X102552381Y-117588571D01*
X102504762Y-117731429D01*
X102409524Y-117826667D01*
X102314286Y-117874286D01*
X102123810Y-117921905D01*
X101980952Y-117921905D01*
X101790476Y-117874286D01*
X101695238Y-117826667D01*
X101600000Y-117731429D01*
X101552381Y-117588571D01*
X101552381Y-117493333D01*
X101600000Y-117350476D01*
X101647619Y-117302857D01*
X102552381Y-116874286D02*
X101552381Y-116874286D01*
X102552381Y-116302857D01*
X101552381Y-116302857D01*
X101552381Y-115969524D02*
X101552381Y-115398095D01*
X102552381Y-115683810D02*
X101552381Y-115683810D01*
X102171429Y-115064762D02*
X102171429Y-114302857D01*
X102552381Y-113255238D02*
X102076190Y-113588572D01*
X102552381Y-113826667D02*
X101552381Y-113826667D01*
X101552381Y-113445714D01*
X101600000Y-113350476D01*
X101647619Y-113302857D01*
X101742857Y-113255238D01*
X101885714Y-113255238D01*
X101980952Y-113302857D01*
X102028571Y-113350476D01*
X102076190Y-113445714D01*
X102076190Y-113826667D01*
X101552381Y-112540952D02*
X102266667Y-112540952D01*
X102409524Y-112588572D01*
X102504762Y-112683810D01*
X102552381Y-112826667D01*
X102552381Y-112921905D01*
X101885714Y-111636190D02*
X102552381Y-111636190D01*
X101504762Y-111874286D02*
X102219048Y-112112381D01*
X102219048Y-111493333D01*
X101552381Y-110636190D02*
X101552381Y-111112381D01*
X102028571Y-111160000D01*
X101980952Y-111112381D01*
X101933333Y-111017143D01*
X101933333Y-110779047D01*
X101980952Y-110683809D01*
X102028571Y-110636190D01*
X102123810Y-110588571D01*
X102361905Y-110588571D01*
X102457143Y-110636190D01*
X102504762Y-110683809D01*
X102552381Y-110779047D01*
X102552381Y-111017143D01*
X102504762Y-111112381D01*
X102457143Y-111160000D01*
X102647619Y-110398095D02*
X102647619Y-109636190D01*
X102552381Y-108874285D02*
X102552381Y-109445714D01*
X102552381Y-109160000D02*
X101552381Y-109160000D01*
X101695238Y-109255238D01*
X101790476Y-109350476D01*
X101838095Y-109445714D01*
X101552381Y-108255238D02*
X101552381Y-108159999D01*
X101600000Y-108064761D01*
X101647619Y-108017142D01*
X101742857Y-107969523D01*
X101933333Y-107921904D01*
X102171429Y-107921904D01*
X102361905Y-107969523D01*
X102457143Y-108017142D01*
X102504762Y-108064761D01*
X102552381Y-108159999D01*
X102552381Y-108255238D01*
X102504762Y-108350476D01*
X102457143Y-108398095D01*
X102361905Y-108445714D01*
X102171429Y-108493333D01*
X101933333Y-108493333D01*
X101742857Y-108445714D01*
X101647619Y-108398095D01*
X101600000Y-108350476D01*
X101552381Y-108255238D01*
X102552381Y-107493333D02*
X101552381Y-107493333D01*
X101552381Y-107112380D01*
X101600000Y-107017142D01*
X101647619Y-106969523D01*
X101742857Y-106921904D01*
X101885714Y-106921904D01*
X101980952Y-106969523D01*
X102028571Y-107017142D01*
X102076190Y-107112380D01*
X102076190Y-107493333D01*
X102552381Y-106493333D02*
X101552381Y-106493333D01*
X102552381Y-106017143D02*
X101552381Y-106017143D01*
X102552381Y-105445714D01*
X101552381Y-105445714D01*
X132775715Y-84742381D02*
X132775715Y-85456667D01*
X132728095Y-85599524D01*
X132632857Y-85694762D01*
X132490000Y-85742381D01*
X132394762Y-85742381D01*
X133251905Y-85742381D02*
X133251905Y-84742381D01*
X133585239Y-85456667D01*
X133918572Y-84742381D01*
X133918572Y-85742381D01*
X134394762Y-85742381D02*
X134394762Y-84742381D01*
X134775715Y-84742381D01*
X134870953Y-84790000D01*
X134918572Y-84837619D01*
X134966191Y-84932857D01*
X134966191Y-85075714D01*
X134918572Y-85170952D01*
X134870953Y-85218571D01*
X134775715Y-85266190D01*
X134394762Y-85266190D01*
X135966191Y-85742381D02*
X135632857Y-85266190D01*
X135394762Y-85742381D02*
X135394762Y-84742381D01*
X135775715Y-84742381D01*
X135870953Y-84790000D01*
X135918572Y-84837619D01*
X135966191Y-84932857D01*
X135966191Y-85075714D01*
X135918572Y-85170952D01*
X135870953Y-85218571D01*
X135775715Y-85266190D01*
X135394762Y-85266190D01*
X136156667Y-85837619D02*
X136918572Y-85837619D01*
X137632858Y-84742381D02*
X137156667Y-84742381D01*
X137109048Y-85218571D01*
X137156667Y-85170952D01*
X137251905Y-85123333D01*
X137490001Y-85123333D01*
X137585239Y-85170952D01*
X137632858Y-85218571D01*
X137680477Y-85313810D01*
X137680477Y-85551905D01*
X137632858Y-85647143D01*
X137585239Y-85694762D01*
X137490001Y-85742381D01*
X137251905Y-85742381D01*
X137156667Y-85694762D01*
X137109048Y-85647143D01*
X137966191Y-84742381D02*
X138299524Y-85742381D01*
X138632858Y-84742381D01*
X130442381Y-87114286D02*
X129442381Y-87114286D01*
X129442381Y-86733333D01*
X129490000Y-86638095D01*
X129537619Y-86590476D01*
X129632857Y-86542857D01*
X129775714Y-86542857D01*
X129870952Y-86590476D01*
X129918571Y-86638095D01*
X129966190Y-86733333D01*
X129966190Y-87114286D01*
X130442381Y-85590476D02*
X130442381Y-86161905D01*
X130442381Y-85876191D02*
X129442381Y-85876191D01*
X129585238Y-85971429D01*
X129680476Y-86066667D01*
X129728095Y-86161905D01*
X129442381Y-84971429D02*
X129442381Y-84876190D01*
X129490000Y-84780952D01*
X129537619Y-84733333D01*
X129632857Y-84685714D01*
X129823333Y-84638095D01*
X130061429Y-84638095D01*
X130251905Y-84685714D01*
X130347143Y-84733333D01*
X130394762Y-84780952D01*
X130442381Y-84876190D01*
X130442381Y-84971429D01*
X130394762Y-85066667D01*
X130347143Y-85114286D01*
X130251905Y-85161905D01*
X130061429Y-85209524D01*
X129823333Y-85209524D01*
X129632857Y-85161905D01*
X129537619Y-85114286D01*
X129490000Y-85066667D01*
X129442381Y-84971429D01*
X203532381Y-85327619D02*
X203056190Y-85660953D01*
X203532381Y-85899048D02*
X202532381Y-85899048D01*
X202532381Y-85518095D01*
X202580000Y-85422857D01*
X202627619Y-85375238D01*
X202722857Y-85327619D01*
X202865714Y-85327619D01*
X202960952Y-85375238D01*
X203008571Y-85422857D01*
X203056190Y-85518095D01*
X203056190Y-85899048D01*
X203532381Y-84899048D02*
X202532381Y-84899048D01*
X202580000Y-83899048D02*
X202532381Y-83994286D01*
X202532381Y-84137143D01*
X202580000Y-84280001D01*
X202675238Y-84375239D01*
X202770476Y-84422858D01*
X202960952Y-84470477D01*
X203103810Y-84470477D01*
X203294286Y-84422858D01*
X203389524Y-84375239D01*
X203484762Y-84280001D01*
X203532381Y-84137143D01*
X203532381Y-84041905D01*
X203484762Y-83899048D01*
X203437143Y-83851429D01*
X203103810Y-83851429D01*
X203103810Y-84041905D01*
X203532381Y-83422858D02*
X202532381Y-83422858D01*
X203008571Y-83422858D02*
X203008571Y-82851429D01*
X203532381Y-82851429D02*
X202532381Y-82851429D01*
X202532381Y-82518096D02*
X202532381Y-81946667D01*
X203532381Y-82232382D02*
X202532381Y-82232382D01*
X203627619Y-81851429D02*
X203627619Y-81089524D01*
X203437143Y-80280000D02*
X203484762Y-80327619D01*
X203532381Y-80470476D01*
X203532381Y-80565714D01*
X203484762Y-80708572D01*
X203389524Y-80803810D01*
X203294286Y-80851429D01*
X203103810Y-80899048D01*
X202960952Y-80899048D01*
X202770476Y-80851429D01*
X202675238Y-80803810D01*
X202580000Y-80708572D01*
X202532381Y-80565714D01*
X202532381Y-80470476D01*
X202580000Y-80327619D01*
X202627619Y-80280000D01*
X202532381Y-79660953D02*
X202532381Y-79470476D01*
X202580000Y-79375238D01*
X202675238Y-79280000D01*
X202865714Y-79232381D01*
X203199048Y-79232381D01*
X203389524Y-79280000D01*
X203484762Y-79375238D01*
X203532381Y-79470476D01*
X203532381Y-79660953D01*
X203484762Y-79756191D01*
X203389524Y-79851429D01*
X203199048Y-79899048D01*
X202865714Y-79899048D01*
X202675238Y-79851429D01*
X202580000Y-79756191D01*
X202532381Y-79660953D01*
X203532381Y-78803810D02*
X202532381Y-78803810D01*
X203532381Y-78232381D01*
X202532381Y-78232381D01*
X203532381Y-77756191D02*
X202532381Y-77756191D01*
X203532381Y-77184762D01*
X202532381Y-77184762D01*
X203627619Y-76946667D02*
X203627619Y-76184762D01*
X202532381Y-75756191D02*
X202532381Y-75660952D01*
X202580000Y-75565714D01*
X202627619Y-75518095D01*
X202722857Y-75470476D01*
X202913333Y-75422857D01*
X203151429Y-75422857D01*
X203341905Y-75470476D01*
X203437143Y-75518095D01*
X203484762Y-75565714D01*
X203532381Y-75660952D01*
X203532381Y-75756191D01*
X203484762Y-75851429D01*
X203437143Y-75899048D01*
X203341905Y-75946667D01*
X203151429Y-75994286D01*
X202913333Y-75994286D01*
X202722857Y-75946667D01*
X202627619Y-75899048D01*
X202580000Y-75851429D01*
X202532381Y-75756191D01*
X202627619Y-75041905D02*
X202580000Y-74994286D01*
X202532381Y-74899048D01*
X202532381Y-74660952D01*
X202580000Y-74565714D01*
X202627619Y-74518095D01*
X202722857Y-74470476D01*
X202818095Y-74470476D01*
X202960952Y-74518095D01*
X203532381Y-75089524D01*
X203532381Y-74470476D01*
X202532381Y-74137143D02*
X203532381Y-73470476D01*
X202532381Y-73470476D02*
X203532381Y-74137143D01*
X202532381Y-72899048D02*
X202532381Y-72803809D01*
X202580000Y-72708571D01*
X202627619Y-72660952D01*
X202722857Y-72613333D01*
X202913333Y-72565714D01*
X203151429Y-72565714D01*
X203341905Y-72613333D01*
X203437143Y-72660952D01*
X203484762Y-72708571D01*
X203532381Y-72803809D01*
X203532381Y-72899048D01*
X203484762Y-72994286D01*
X203437143Y-73041905D01*
X203341905Y-73089524D01*
X203151429Y-73137143D01*
X202913333Y-73137143D01*
X202722857Y-73089524D01*
X202627619Y-73041905D01*
X202580000Y-72994286D01*
X202532381Y-72899048D01*
X202960952Y-71994286D02*
X202913333Y-72089524D01*
X202865714Y-72137143D01*
X202770476Y-72184762D01*
X202722857Y-72184762D01*
X202627619Y-72137143D01*
X202580000Y-72089524D01*
X202532381Y-71994286D01*
X202532381Y-71803809D01*
X202580000Y-71708571D01*
X202627619Y-71660952D01*
X202722857Y-71613333D01*
X202770476Y-71613333D01*
X202865714Y-71660952D01*
X202913333Y-71708571D01*
X202960952Y-71803809D01*
X202960952Y-71994286D01*
X203008571Y-72089524D01*
X203056190Y-72137143D01*
X203151429Y-72184762D01*
X203341905Y-72184762D01*
X203437143Y-72137143D01*
X203484762Y-72089524D01*
X203532381Y-71994286D01*
X203532381Y-71803809D01*
X203484762Y-71708571D01*
X203437143Y-71660952D01*
X203341905Y-71613333D01*
X203151429Y-71613333D01*
X203056190Y-71660952D01*
X203008571Y-71708571D01*
X202960952Y-71803809D01*
X181092381Y-79994286D02*
X180092381Y-79994286D01*
X180092381Y-79613333D01*
X180140000Y-79518095D01*
X180187619Y-79470476D01*
X180282857Y-79422857D01*
X180425714Y-79422857D01*
X180520952Y-79470476D01*
X180568571Y-79518095D01*
X180616190Y-79613333D01*
X180616190Y-79994286D01*
X181092381Y-78470476D02*
X181092381Y-79041905D01*
X181092381Y-78756191D02*
X180092381Y-78756191D01*
X180235238Y-78851429D01*
X180330476Y-78946667D01*
X180378095Y-79041905D01*
X181092381Y-77518095D02*
X181092381Y-78089524D01*
X181092381Y-77803810D02*
X180092381Y-77803810D01*
X180235238Y-77899048D01*
X180330476Y-77994286D01*
X180378095Y-78089524D01*
X172779524Y-97282381D02*
X172208095Y-97282381D01*
X172493809Y-97282381D02*
X172493809Y-96282381D01*
X172398571Y-96425238D01*
X172303333Y-96520476D01*
X172208095Y-96568095D01*
X173398571Y-96282381D02*
X173493810Y-96282381D01*
X173589048Y-96330000D01*
X173636667Y-96377619D01*
X173684286Y-96472857D01*
X173731905Y-96663333D01*
X173731905Y-96901429D01*
X173684286Y-97091905D01*
X173636667Y-97187143D01*
X173589048Y-97234762D01*
X173493810Y-97282381D01*
X173398571Y-97282381D01*
X173303333Y-97234762D01*
X173255714Y-97187143D01*
X173208095Y-97091905D01*
X173160476Y-96901429D01*
X173160476Y-96663333D01*
X173208095Y-96472857D01*
X173255714Y-96377619D01*
X173303333Y-96330000D01*
X173398571Y-96282381D01*
X174160476Y-97282381D02*
X174160476Y-96282381D01*
X174731905Y-97282381D02*
X174303333Y-96710952D01*
X174731905Y-96282381D02*
X174160476Y-96853810D01*
D12*
X173516667Y-97126190D02*
X173350000Y-96888095D01*
X173230953Y-97126190D02*
X173230953Y-96626190D01*
X173421429Y-96626190D01*
X173469048Y-96650000D01*
X173492857Y-96673810D01*
X173516667Y-96721429D01*
X173516667Y-96792857D01*
X173492857Y-96840476D01*
X173469048Y-96864286D01*
X173421429Y-96888095D01*
X173230953Y-96888095D01*
X173992857Y-97126190D02*
X173707143Y-97126190D01*
X173850000Y-97126190D02*
X173850000Y-96626190D01*
X173802381Y-96697619D01*
X173754762Y-96745238D01*
X173707143Y-96769048D01*
D11*
X155019524Y-97252381D02*
X154448095Y-97252381D01*
X154733809Y-97252381D02*
X154733809Y-96252381D01*
X154638571Y-96395238D01*
X154543333Y-96490476D01*
X154448095Y-96538095D01*
X155638571Y-96252381D02*
X155733810Y-96252381D01*
X155829048Y-96300000D01*
X155876667Y-96347619D01*
X155924286Y-96442857D01*
X155971905Y-96633333D01*
X155971905Y-96871429D01*
X155924286Y-97061905D01*
X155876667Y-97157143D01*
X155829048Y-97204762D01*
X155733810Y-97252381D01*
X155638571Y-97252381D01*
X155543333Y-97204762D01*
X155495714Y-97157143D01*
X155448095Y-97061905D01*
X155400476Y-96871429D01*
X155400476Y-96633333D01*
X155448095Y-96442857D01*
X155495714Y-96347619D01*
X155543333Y-96300000D01*
X155638571Y-96252381D01*
X156400476Y-97252381D02*
X156400476Y-96252381D01*
X156971905Y-97252381D02*
X156543333Y-96680952D01*
X156971905Y-96252381D02*
X156400476Y-96823810D01*
D12*
X159366667Y-97026190D02*
X159200000Y-96788095D01*
X159080953Y-97026190D02*
X159080953Y-96526190D01*
X159271429Y-96526190D01*
X159319048Y-96550000D01*
X159342857Y-96573810D01*
X159366667Y-96621429D01*
X159366667Y-96692857D01*
X159342857Y-96740476D01*
X159319048Y-96764286D01*
X159271429Y-96788095D01*
X159080953Y-96788095D01*
X159557143Y-96573810D02*
X159580953Y-96550000D01*
X159628572Y-96526190D01*
X159747619Y-96526190D01*
X159795238Y-96550000D01*
X159819048Y-96573810D01*
X159842857Y-96621429D01*
X159842857Y-96669048D01*
X159819048Y-96740476D01*
X159533334Y-97026190D01*
X159842857Y-97026190D01*
D11*
X122945715Y-72022381D02*
X122374286Y-72022381D01*
X122660000Y-72022381D02*
X122660000Y-71022381D01*
X122564762Y-71165238D01*
X122469524Y-71260476D01*
X122374286Y-71308095D01*
X123374286Y-72022381D02*
X123374286Y-71022381D01*
X123945715Y-72022381D02*
X123517143Y-71450952D01*
X123945715Y-71022381D02*
X123374286Y-71593810D01*
D12*
X123076667Y-70046190D02*
X122910000Y-69808095D01*
X122790953Y-70046190D02*
X122790953Y-69546190D01*
X122981429Y-69546190D01*
X123029048Y-69570000D01*
X123052857Y-69593810D01*
X123076667Y-69641429D01*
X123076667Y-69712857D01*
X123052857Y-69760476D01*
X123029048Y-69784286D01*
X122981429Y-69808095D01*
X122790953Y-69808095D01*
X123243334Y-69546190D02*
X123552857Y-69546190D01*
X123386191Y-69736667D01*
X123457619Y-69736667D01*
X123505238Y-69760476D01*
X123529048Y-69784286D01*
X123552857Y-69831905D01*
X123552857Y-69950952D01*
X123529048Y-69998571D01*
X123505238Y-70022381D01*
X123457619Y-70046190D01*
X123314762Y-70046190D01*
X123267143Y-70022381D01*
X123243334Y-69998571D01*
D11*
X128265715Y-73582381D02*
X127694286Y-73582381D01*
X127980000Y-73582381D02*
X127980000Y-72582381D01*
X127884762Y-72725238D01*
X127789524Y-72820476D01*
X127694286Y-72868095D01*
X128694286Y-73582381D02*
X128694286Y-72582381D01*
X129265715Y-73582381D02*
X128837143Y-73010952D01*
X129265715Y-72582381D02*
X128694286Y-73153810D01*
D12*
X128396667Y-74146190D02*
X128230000Y-73908095D01*
X128110953Y-74146190D02*
X128110953Y-73646190D01*
X128301429Y-73646190D01*
X128349048Y-73670000D01*
X128372857Y-73693810D01*
X128396667Y-73741429D01*
X128396667Y-73812857D01*
X128372857Y-73860476D01*
X128349048Y-73884286D01*
X128301429Y-73908095D01*
X128110953Y-73908095D01*
X128825238Y-73812857D02*
X128825238Y-74146190D01*
X128706191Y-73622381D02*
X128587143Y-73979524D01*
X128896667Y-73979524D01*
D11*
X186060000Y-73312381D02*
X186155239Y-73312381D01*
X186250477Y-73360000D01*
X186298096Y-73407619D01*
X186345715Y-73502857D01*
X186393334Y-73693333D01*
X186393334Y-73931429D01*
X186345715Y-74121905D01*
X186298096Y-74217143D01*
X186250477Y-74264762D01*
X186155239Y-74312381D01*
X186060000Y-74312381D01*
X185964762Y-74264762D01*
X185917143Y-74217143D01*
X185869524Y-74121905D01*
X185821905Y-73931429D01*
X185821905Y-73693333D01*
X185869524Y-73502857D01*
X185917143Y-73407619D01*
X185964762Y-73360000D01*
X186060000Y-73312381D01*
X186821905Y-73788571D02*
X187155239Y-73788571D01*
X187298096Y-74312381D02*
X186821905Y-74312381D01*
X186821905Y-73312381D01*
X187298096Y-73312381D01*
D12*
X183246667Y-74196190D02*
X183080000Y-73958095D01*
X182960953Y-74196190D02*
X182960953Y-73696190D01*
X183151429Y-73696190D01*
X183199048Y-73720000D01*
X183222857Y-73743810D01*
X183246667Y-73791429D01*
X183246667Y-73862857D01*
X183222857Y-73910476D01*
X183199048Y-73934286D01*
X183151429Y-73958095D01*
X182960953Y-73958095D01*
X183699048Y-73696190D02*
X183460953Y-73696190D01*
X183437143Y-73934286D01*
X183460953Y-73910476D01*
X183508572Y-73886667D01*
X183627619Y-73886667D01*
X183675238Y-73910476D01*
X183699048Y-73934286D01*
X183722857Y-73981905D01*
X183722857Y-74100952D01*
X183699048Y-74148571D01*
X183675238Y-74172381D01*
X183627619Y-74196190D01*
X183508572Y-74196190D01*
X183460953Y-74172381D01*
X183437143Y-74148571D01*
D11*
X145952381Y-99415238D02*
X146952381Y-98748571D01*
X145952381Y-98748571D02*
X146952381Y-99415238D01*
X146428571Y-98034285D02*
X146476190Y-97891428D01*
X146523810Y-97843809D01*
X146619048Y-97796190D01*
X146761905Y-97796190D01*
X146857143Y-97843809D01*
X146904762Y-97891428D01*
X146952381Y-97986666D01*
X146952381Y-98367619D01*
X145952381Y-98367619D01*
X145952381Y-98034285D01*
X146000000Y-97939047D01*
X146047619Y-97891428D01*
X146142857Y-97843809D01*
X146238095Y-97843809D01*
X146333333Y-97891428D01*
X146380952Y-97939047D01*
X146428571Y-98034285D01*
X146428571Y-98367619D01*
X146428571Y-97367619D02*
X146428571Y-97034285D01*
X146952381Y-96891428D02*
X146952381Y-97367619D01*
X145952381Y-97367619D01*
X145952381Y-96891428D01*
X146428571Y-96462857D02*
X146428571Y-96129523D01*
X146952381Y-95986666D02*
X146952381Y-96462857D01*
X145952381Y-96462857D01*
X145952381Y-95986666D01*
X147047619Y-95796190D02*
X147047619Y-95034285D01*
X146952381Y-94796190D02*
X145952381Y-94796190D01*
X146666667Y-94462856D01*
X145952381Y-94129523D01*
X146952381Y-94129523D01*
X145952381Y-93462857D02*
X145952381Y-93272380D01*
X146000000Y-93177142D01*
X146095238Y-93081904D01*
X146285714Y-93034285D01*
X146619048Y-93034285D01*
X146809524Y-93081904D01*
X146904762Y-93177142D01*
X146952381Y-93272380D01*
X146952381Y-93462857D01*
X146904762Y-93558095D01*
X146809524Y-93653333D01*
X146619048Y-93700952D01*
X146285714Y-93700952D01*
X146095238Y-93653333D01*
X146000000Y-93558095D01*
X145952381Y-93462857D01*
X146952381Y-92605714D02*
X145952381Y-92605714D01*
X145952381Y-92367619D01*
X146000000Y-92224761D01*
X146095238Y-92129523D01*
X146190476Y-92081904D01*
X146380952Y-92034285D01*
X146523810Y-92034285D01*
X146714286Y-92081904D01*
X146809524Y-92129523D01*
X146904762Y-92224761D01*
X146952381Y-92367619D01*
X146952381Y-92605714D01*
X145952381Y-91605714D02*
X146761905Y-91605714D01*
X146857143Y-91558095D01*
X146904762Y-91510476D01*
X146952381Y-91415238D01*
X146952381Y-91224761D01*
X146904762Y-91129523D01*
X146857143Y-91081904D01*
X146761905Y-91034285D01*
X145952381Y-91034285D01*
X146952381Y-90081904D02*
X146952381Y-90558095D01*
X145952381Y-90558095D01*
X146428571Y-89748571D02*
X146428571Y-89415237D01*
X146952381Y-89272380D02*
X146952381Y-89748571D01*
X145952381Y-89748571D01*
X145952381Y-89272380D01*
X118163810Y-75332381D02*
X117687619Y-75332381D01*
X117687619Y-74332381D01*
X118497143Y-75332381D02*
X118497143Y-74332381D01*
X118830477Y-75046667D01*
X119163810Y-74332381D01*
X119163810Y-75332381D01*
X120163810Y-75332381D02*
X119592381Y-75332381D01*
X119878095Y-75332381D02*
X119878095Y-74332381D01*
X119782857Y-74475238D01*
X119687619Y-74570476D01*
X119592381Y-74618095D01*
X121116191Y-75332381D02*
X120544762Y-75332381D01*
X120830476Y-75332381D02*
X120830476Y-74332381D01*
X120735238Y-74475238D01*
X120640000Y-74570476D01*
X120544762Y-74618095D01*
X122068572Y-75332381D02*
X121497143Y-75332381D01*
X121782857Y-75332381D02*
X121782857Y-74332381D01*
X121687619Y-74475238D01*
X121592381Y-74570476D01*
X121497143Y-74618095D01*
X122401905Y-74332381D02*
X123068572Y-74332381D01*
X122640000Y-75332381D01*
X123449524Y-74951429D02*
X124211429Y-74951429D01*
X124592381Y-74332381D02*
X125211429Y-74332381D01*
X124878095Y-74713333D01*
X125020953Y-74713333D01*
X125116191Y-74760952D01*
X125163810Y-74808571D01*
X125211429Y-74903810D01*
X125211429Y-75141905D01*
X125163810Y-75237143D01*
X125116191Y-75284762D01*
X125020953Y-75332381D01*
X124735238Y-75332381D01*
X124640000Y-75284762D01*
X124592381Y-75237143D01*
X125640000Y-75237143D02*
X125687619Y-75284762D01*
X125640000Y-75332381D01*
X125592381Y-75284762D01*
X125640000Y-75237143D01*
X125640000Y-75332381D01*
X126020952Y-74332381D02*
X126640000Y-74332381D01*
X126306666Y-74713333D01*
X126449524Y-74713333D01*
X126544762Y-74760952D01*
X126592381Y-74808571D01*
X126640000Y-74903810D01*
X126640000Y-75141905D01*
X126592381Y-75237143D01*
X126544762Y-75284762D01*
X126449524Y-75332381D01*
X126163809Y-75332381D01*
X126068571Y-75284762D01*
X126020952Y-75237143D01*
D13*
X121091905Y-76739524D02*
X121739524Y-76739524D01*
X121815714Y-76701429D01*
X121853810Y-76663333D01*
X121891905Y-76587143D01*
X121891905Y-76434762D01*
X121853810Y-76358571D01*
X121815714Y-76320476D01*
X121739524Y-76282381D01*
X121091905Y-76282381D01*
X121091905Y-75558572D02*
X121091905Y-75710953D01*
X121130000Y-75787143D01*
X121168095Y-75825238D01*
X121282381Y-75901429D01*
X121434762Y-75939524D01*
X121739524Y-75939524D01*
X121815714Y-75901429D01*
X121853810Y-75863334D01*
X121891905Y-75787143D01*
X121891905Y-75634762D01*
X121853810Y-75558572D01*
X121815714Y-75520476D01*
X121739524Y-75482381D01*
X121549048Y-75482381D01*
X121472857Y-75520476D01*
X121434762Y-75558572D01*
X121396667Y-75634762D01*
X121396667Y-75787143D01*
X121434762Y-75863334D01*
X121472857Y-75901429D01*
X121549048Y-75939524D01*
D11*
X125303810Y-79402381D02*
X124827619Y-79402381D01*
X124827619Y-78402381D01*
X125637143Y-79402381D02*
X125637143Y-78402381D01*
X125970477Y-79116667D01*
X126303810Y-78402381D01*
X126303810Y-79402381D01*
X127303810Y-79402381D02*
X126732381Y-79402381D01*
X127018095Y-79402381D02*
X127018095Y-78402381D01*
X126922857Y-78545238D01*
X126827619Y-78640476D01*
X126732381Y-78688095D01*
X128256191Y-79402381D02*
X127684762Y-79402381D01*
X127970476Y-79402381D02*
X127970476Y-78402381D01*
X127875238Y-78545238D01*
X127780000Y-78640476D01*
X127684762Y-78688095D01*
X129208572Y-79402381D02*
X128637143Y-79402381D01*
X128922857Y-79402381D02*
X128922857Y-78402381D01*
X128827619Y-78545238D01*
X128732381Y-78640476D01*
X128637143Y-78688095D01*
X129541905Y-78402381D02*
X130208572Y-78402381D01*
X129780000Y-79402381D01*
X130589524Y-79021429D02*
X131351429Y-79021429D01*
X132303810Y-78402381D02*
X131827619Y-78402381D01*
X131780000Y-78878571D01*
X131827619Y-78830952D01*
X131922857Y-78783333D01*
X132160953Y-78783333D01*
X132256191Y-78830952D01*
X132303810Y-78878571D01*
X132351429Y-78973810D01*
X132351429Y-79211905D01*
X132303810Y-79307143D01*
X132256191Y-79354762D01*
X132160953Y-79402381D01*
X131922857Y-79402381D01*
X131827619Y-79354762D01*
X131780000Y-79307143D01*
X132780000Y-79307143D02*
X132827619Y-79354762D01*
X132780000Y-79402381D01*
X132732381Y-79354762D01*
X132780000Y-79307143D01*
X132780000Y-79402381D01*
X133446666Y-78402381D02*
X133541905Y-78402381D01*
X133637143Y-78450000D01*
X133684762Y-78497619D01*
X133732381Y-78592857D01*
X133780000Y-78783333D01*
X133780000Y-79021429D01*
X133732381Y-79211905D01*
X133684762Y-79307143D01*
X133637143Y-79354762D01*
X133541905Y-79402381D01*
X133446666Y-79402381D01*
X133351428Y-79354762D01*
X133303809Y-79307143D01*
X133256190Y-79211905D01*
X133208571Y-79021429D01*
X133208571Y-78783333D01*
X133256190Y-78592857D01*
X133303809Y-78497619D01*
X133351428Y-78450000D01*
X133446666Y-78402381D01*
D13*
X129191905Y-80279524D02*
X129839524Y-80279524D01*
X129915714Y-80241429D01*
X129953810Y-80203333D01*
X129991905Y-80127143D01*
X129991905Y-79974762D01*
X129953810Y-79898571D01*
X129915714Y-79860476D01*
X129839524Y-79822381D01*
X129191905Y-79822381D01*
X129191905Y-79517619D02*
X129191905Y-78984286D01*
X129991905Y-79327143D01*
D11*
X170690477Y-102078571D02*
X170833334Y-102126190D01*
X170880953Y-102173810D01*
X170928572Y-102269048D01*
X170928572Y-102411905D01*
X170880953Y-102507143D01*
X170833334Y-102554762D01*
X170738096Y-102602381D01*
X170357143Y-102602381D01*
X170357143Y-101602381D01*
X170690477Y-101602381D01*
X170785715Y-101650000D01*
X170833334Y-101697619D01*
X170880953Y-101792857D01*
X170880953Y-101888095D01*
X170833334Y-101983333D01*
X170785715Y-102030952D01*
X170690477Y-102078571D01*
X170357143Y-102078571D01*
X171309524Y-102554762D02*
X171452381Y-102602381D01*
X171690477Y-102602381D01*
X171785715Y-102554762D01*
X171833334Y-102507143D01*
X171880953Y-102411905D01*
X171880953Y-102316667D01*
X171833334Y-102221429D01*
X171785715Y-102173810D01*
X171690477Y-102126190D01*
X171500000Y-102078571D01*
X171404762Y-102030952D01*
X171357143Y-101983333D01*
X171309524Y-101888095D01*
X171309524Y-101792857D01*
X171357143Y-101697619D01*
X171404762Y-101650000D01*
X171500000Y-101602381D01*
X171738096Y-101602381D01*
X171880953Y-101650000D01*
X172261905Y-102554762D02*
X172404762Y-102602381D01*
X172642858Y-102602381D01*
X172738096Y-102554762D01*
X172785715Y-102507143D01*
X172833334Y-102411905D01*
X172833334Y-102316667D01*
X172785715Y-102221429D01*
X172738096Y-102173810D01*
X172642858Y-102126190D01*
X172452381Y-102078571D01*
X172357143Y-102030952D01*
X172309524Y-101983333D01*
X172261905Y-101888095D01*
X172261905Y-101792857D01*
X172309524Y-101697619D01*
X172357143Y-101650000D01*
X172452381Y-101602381D01*
X172690477Y-101602381D01*
X172833334Y-101650000D01*
X173785715Y-102602381D02*
X173214286Y-102602381D01*
X173500000Y-102602381D02*
X173500000Y-101602381D01*
X173404762Y-101745238D01*
X173309524Y-101840476D01*
X173214286Y-101888095D01*
X174119048Y-101602381D02*
X174738096Y-101602381D01*
X174404762Y-101983333D01*
X174547620Y-101983333D01*
X174642858Y-102030952D01*
X174690477Y-102078571D01*
X174738096Y-102173810D01*
X174738096Y-102411905D01*
X174690477Y-102507143D01*
X174642858Y-102554762D01*
X174547620Y-102602381D01*
X174261905Y-102602381D01*
X174166667Y-102554762D01*
X174119048Y-102507143D01*
X175309524Y-102030952D02*
X175214286Y-101983333D01*
X175166667Y-101935714D01*
X175119048Y-101840476D01*
X175119048Y-101792857D01*
X175166667Y-101697619D01*
X175214286Y-101650000D01*
X175309524Y-101602381D01*
X175500001Y-101602381D01*
X175595239Y-101650000D01*
X175642858Y-101697619D01*
X175690477Y-101792857D01*
X175690477Y-101840476D01*
X175642858Y-101935714D01*
X175595239Y-101983333D01*
X175500001Y-102030952D01*
X175309524Y-102030952D01*
X175214286Y-102078571D01*
X175166667Y-102126190D01*
X175119048Y-102221429D01*
X175119048Y-102411905D01*
X175166667Y-102507143D01*
X175214286Y-102554762D01*
X175309524Y-102602381D01*
X175500001Y-102602381D01*
X175595239Y-102554762D01*
X175642858Y-102507143D01*
X175690477Y-102411905D01*
X175690477Y-102221429D01*
X175642858Y-102126190D01*
X175595239Y-102078571D01*
X175500001Y-102030952D01*
D12*
X172952381Y-99923810D02*
X172904762Y-99900000D01*
X172857143Y-99852381D01*
X172785714Y-99780952D01*
X172738095Y-99757143D01*
X172690476Y-99757143D01*
X172714286Y-99876190D02*
X172666667Y-99852381D01*
X172619048Y-99804762D01*
X172595238Y-99709524D01*
X172595238Y-99542857D01*
X172619048Y-99447619D01*
X172666667Y-99400000D01*
X172714286Y-99376190D01*
X172809524Y-99376190D01*
X172857143Y-99400000D01*
X172904762Y-99447619D01*
X172928571Y-99542857D01*
X172928571Y-99709524D01*
X172904762Y-99804762D01*
X172857143Y-99852381D01*
X172809524Y-99876190D01*
X172714286Y-99876190D01*
X173404762Y-99876190D02*
X173119048Y-99876190D01*
X173261905Y-99876190D02*
X173261905Y-99376190D01*
X173214286Y-99447619D01*
X173166667Y-99495238D01*
X173119048Y-99519048D01*
D11*
X156490477Y-102028571D02*
X156633334Y-102076190D01*
X156680953Y-102123810D01*
X156728572Y-102219048D01*
X156728572Y-102361905D01*
X156680953Y-102457143D01*
X156633334Y-102504762D01*
X156538096Y-102552381D01*
X156157143Y-102552381D01*
X156157143Y-101552381D01*
X156490477Y-101552381D01*
X156585715Y-101600000D01*
X156633334Y-101647619D01*
X156680953Y-101742857D01*
X156680953Y-101838095D01*
X156633334Y-101933333D01*
X156585715Y-101980952D01*
X156490477Y-102028571D01*
X156157143Y-102028571D01*
X157109524Y-102504762D02*
X157252381Y-102552381D01*
X157490477Y-102552381D01*
X157585715Y-102504762D01*
X157633334Y-102457143D01*
X157680953Y-102361905D01*
X157680953Y-102266667D01*
X157633334Y-102171429D01*
X157585715Y-102123810D01*
X157490477Y-102076190D01*
X157300000Y-102028571D01*
X157204762Y-101980952D01*
X157157143Y-101933333D01*
X157109524Y-101838095D01*
X157109524Y-101742857D01*
X157157143Y-101647619D01*
X157204762Y-101600000D01*
X157300000Y-101552381D01*
X157538096Y-101552381D01*
X157680953Y-101600000D01*
X158061905Y-102504762D02*
X158204762Y-102552381D01*
X158442858Y-102552381D01*
X158538096Y-102504762D01*
X158585715Y-102457143D01*
X158633334Y-102361905D01*
X158633334Y-102266667D01*
X158585715Y-102171429D01*
X158538096Y-102123810D01*
X158442858Y-102076190D01*
X158252381Y-102028571D01*
X158157143Y-101980952D01*
X158109524Y-101933333D01*
X158061905Y-101838095D01*
X158061905Y-101742857D01*
X158109524Y-101647619D01*
X158157143Y-101600000D01*
X158252381Y-101552381D01*
X158490477Y-101552381D01*
X158633334Y-101600000D01*
X159585715Y-102552381D02*
X159014286Y-102552381D01*
X159300000Y-102552381D02*
X159300000Y-101552381D01*
X159204762Y-101695238D01*
X159109524Y-101790476D01*
X159014286Y-101838095D01*
X159919048Y-101552381D02*
X160538096Y-101552381D01*
X160204762Y-101933333D01*
X160347620Y-101933333D01*
X160442858Y-101980952D01*
X160490477Y-102028571D01*
X160538096Y-102123810D01*
X160538096Y-102361905D01*
X160490477Y-102457143D01*
X160442858Y-102504762D01*
X160347620Y-102552381D01*
X160061905Y-102552381D01*
X159966667Y-102504762D01*
X159919048Y-102457143D01*
X161109524Y-101980952D02*
X161014286Y-101933333D01*
X160966667Y-101885714D01*
X160919048Y-101790476D01*
X160919048Y-101742857D01*
X160966667Y-101647619D01*
X161014286Y-101600000D01*
X161109524Y-101552381D01*
X161300001Y-101552381D01*
X161395239Y-101600000D01*
X161442858Y-101647619D01*
X161490477Y-101742857D01*
X161490477Y-101790476D01*
X161442858Y-101885714D01*
X161395239Y-101933333D01*
X161300001Y-101980952D01*
X161109524Y-101980952D01*
X161014286Y-102028571D01*
X160966667Y-102076190D01*
X160919048Y-102171429D01*
X160919048Y-102361905D01*
X160966667Y-102457143D01*
X161014286Y-102504762D01*
X161109524Y-102552381D01*
X161300001Y-102552381D01*
X161395239Y-102504762D01*
X161442858Y-102457143D01*
X161490477Y-102361905D01*
X161490477Y-102171429D01*
X161442858Y-102076190D01*
X161395239Y-102028571D01*
X161300001Y-101980952D01*
D12*
X158752381Y-99873810D02*
X158704762Y-99850000D01*
X158657143Y-99802381D01*
X158585714Y-99730952D01*
X158538095Y-99707143D01*
X158490476Y-99707143D01*
X158514286Y-99826190D02*
X158466667Y-99802381D01*
X158419048Y-99754762D01*
X158395238Y-99659524D01*
X158395238Y-99492857D01*
X158419048Y-99397619D01*
X158466667Y-99350000D01*
X158514286Y-99326190D01*
X158609524Y-99326190D01*
X158657143Y-99350000D01*
X158704762Y-99397619D01*
X158728571Y-99492857D01*
X158728571Y-99659524D01*
X158704762Y-99754762D01*
X158657143Y-99802381D01*
X158609524Y-99826190D01*
X158514286Y-99826190D01*
X158919048Y-99373810D02*
X158942858Y-99350000D01*
X158990477Y-99326190D01*
X159109524Y-99326190D01*
X159157143Y-99350000D01*
X159180953Y-99373810D01*
X159204762Y-99421429D01*
X159204762Y-99469048D01*
X159180953Y-99540476D01*
X158895239Y-99826190D01*
X159204762Y-99826190D01*
D11*
X163390477Y-101978571D02*
X163533334Y-102026190D01*
X163580953Y-102073810D01*
X163628572Y-102169048D01*
X163628572Y-102311905D01*
X163580953Y-102407143D01*
X163533334Y-102454762D01*
X163438096Y-102502381D01*
X163057143Y-102502381D01*
X163057143Y-101502381D01*
X163390477Y-101502381D01*
X163485715Y-101550000D01*
X163533334Y-101597619D01*
X163580953Y-101692857D01*
X163580953Y-101788095D01*
X163533334Y-101883333D01*
X163485715Y-101930952D01*
X163390477Y-101978571D01*
X163057143Y-101978571D01*
X164009524Y-102454762D02*
X164152381Y-102502381D01*
X164390477Y-102502381D01*
X164485715Y-102454762D01*
X164533334Y-102407143D01*
X164580953Y-102311905D01*
X164580953Y-102216667D01*
X164533334Y-102121429D01*
X164485715Y-102073810D01*
X164390477Y-102026190D01*
X164200000Y-101978571D01*
X164104762Y-101930952D01*
X164057143Y-101883333D01*
X164009524Y-101788095D01*
X164009524Y-101692857D01*
X164057143Y-101597619D01*
X164104762Y-101550000D01*
X164200000Y-101502381D01*
X164438096Y-101502381D01*
X164580953Y-101550000D01*
X164961905Y-102454762D02*
X165104762Y-102502381D01*
X165342858Y-102502381D01*
X165438096Y-102454762D01*
X165485715Y-102407143D01*
X165533334Y-102311905D01*
X165533334Y-102216667D01*
X165485715Y-102121429D01*
X165438096Y-102073810D01*
X165342858Y-102026190D01*
X165152381Y-101978571D01*
X165057143Y-101930952D01*
X165009524Y-101883333D01*
X164961905Y-101788095D01*
X164961905Y-101692857D01*
X165009524Y-101597619D01*
X165057143Y-101550000D01*
X165152381Y-101502381D01*
X165390477Y-101502381D01*
X165533334Y-101550000D01*
X166485715Y-102502381D02*
X165914286Y-102502381D01*
X166200000Y-102502381D02*
X166200000Y-101502381D01*
X166104762Y-101645238D01*
X166009524Y-101740476D01*
X165914286Y-101788095D01*
X166819048Y-101502381D02*
X167438096Y-101502381D01*
X167104762Y-101883333D01*
X167247620Y-101883333D01*
X167342858Y-101930952D01*
X167390477Y-101978571D01*
X167438096Y-102073810D01*
X167438096Y-102311905D01*
X167390477Y-102407143D01*
X167342858Y-102454762D01*
X167247620Y-102502381D01*
X166961905Y-102502381D01*
X166866667Y-102454762D01*
X166819048Y-102407143D01*
X168009524Y-101930952D02*
X167914286Y-101883333D01*
X167866667Y-101835714D01*
X167819048Y-101740476D01*
X167819048Y-101692857D01*
X167866667Y-101597619D01*
X167914286Y-101550000D01*
X168009524Y-101502381D01*
X168200001Y-101502381D01*
X168295239Y-101550000D01*
X168342858Y-101597619D01*
X168390477Y-101692857D01*
X168390477Y-101740476D01*
X168342858Y-101835714D01*
X168295239Y-101883333D01*
X168200001Y-101930952D01*
X168009524Y-101930952D01*
X167914286Y-101978571D01*
X167866667Y-102026190D01*
X167819048Y-102121429D01*
X167819048Y-102311905D01*
X167866667Y-102407143D01*
X167914286Y-102454762D01*
X168009524Y-102502381D01*
X168200001Y-102502381D01*
X168295239Y-102454762D01*
X168342858Y-102407143D01*
X168390477Y-102311905D01*
X168390477Y-102121429D01*
X168342858Y-102026190D01*
X168295239Y-101978571D01*
X168200001Y-101930952D01*
D12*
X165652381Y-99823810D02*
X165604762Y-99800000D01*
X165557143Y-99752381D01*
X165485714Y-99680952D01*
X165438095Y-99657143D01*
X165390476Y-99657143D01*
X165414286Y-99776190D02*
X165366667Y-99752381D01*
X165319048Y-99704762D01*
X165295238Y-99609524D01*
X165295238Y-99442857D01*
X165319048Y-99347619D01*
X165366667Y-99300000D01*
X165414286Y-99276190D01*
X165509524Y-99276190D01*
X165557143Y-99300000D01*
X165604762Y-99347619D01*
X165628571Y-99442857D01*
X165628571Y-99609524D01*
X165604762Y-99704762D01*
X165557143Y-99752381D01*
X165509524Y-99776190D01*
X165414286Y-99776190D01*
X165795239Y-99276190D02*
X166104762Y-99276190D01*
X165938096Y-99466667D01*
X166009524Y-99466667D01*
X166057143Y-99490476D01*
X166080953Y-99514286D01*
X166104762Y-99561905D01*
X166104762Y-99680952D01*
X166080953Y-99728571D01*
X166057143Y-99752381D01*
X166009524Y-99776190D01*
X165866667Y-99776190D01*
X165819048Y-99752381D01*
X165795239Y-99728571D01*
D11*
X149590477Y-102028571D02*
X149733334Y-102076190D01*
X149780953Y-102123810D01*
X149828572Y-102219048D01*
X149828572Y-102361905D01*
X149780953Y-102457143D01*
X149733334Y-102504762D01*
X149638096Y-102552381D01*
X149257143Y-102552381D01*
X149257143Y-101552381D01*
X149590477Y-101552381D01*
X149685715Y-101600000D01*
X149733334Y-101647619D01*
X149780953Y-101742857D01*
X149780953Y-101838095D01*
X149733334Y-101933333D01*
X149685715Y-101980952D01*
X149590477Y-102028571D01*
X149257143Y-102028571D01*
X150209524Y-102504762D02*
X150352381Y-102552381D01*
X150590477Y-102552381D01*
X150685715Y-102504762D01*
X150733334Y-102457143D01*
X150780953Y-102361905D01*
X150780953Y-102266667D01*
X150733334Y-102171429D01*
X150685715Y-102123810D01*
X150590477Y-102076190D01*
X150400000Y-102028571D01*
X150304762Y-101980952D01*
X150257143Y-101933333D01*
X150209524Y-101838095D01*
X150209524Y-101742857D01*
X150257143Y-101647619D01*
X150304762Y-101600000D01*
X150400000Y-101552381D01*
X150638096Y-101552381D01*
X150780953Y-101600000D01*
X151161905Y-102504762D02*
X151304762Y-102552381D01*
X151542858Y-102552381D01*
X151638096Y-102504762D01*
X151685715Y-102457143D01*
X151733334Y-102361905D01*
X151733334Y-102266667D01*
X151685715Y-102171429D01*
X151638096Y-102123810D01*
X151542858Y-102076190D01*
X151352381Y-102028571D01*
X151257143Y-101980952D01*
X151209524Y-101933333D01*
X151161905Y-101838095D01*
X151161905Y-101742857D01*
X151209524Y-101647619D01*
X151257143Y-101600000D01*
X151352381Y-101552381D01*
X151590477Y-101552381D01*
X151733334Y-101600000D01*
X152685715Y-102552381D02*
X152114286Y-102552381D01*
X152400000Y-102552381D02*
X152400000Y-101552381D01*
X152304762Y-101695238D01*
X152209524Y-101790476D01*
X152114286Y-101838095D01*
X153019048Y-101552381D02*
X153638096Y-101552381D01*
X153304762Y-101933333D01*
X153447620Y-101933333D01*
X153542858Y-101980952D01*
X153590477Y-102028571D01*
X153638096Y-102123810D01*
X153638096Y-102361905D01*
X153590477Y-102457143D01*
X153542858Y-102504762D01*
X153447620Y-102552381D01*
X153161905Y-102552381D01*
X153066667Y-102504762D01*
X153019048Y-102457143D01*
X154209524Y-101980952D02*
X154114286Y-101933333D01*
X154066667Y-101885714D01*
X154019048Y-101790476D01*
X154019048Y-101742857D01*
X154066667Y-101647619D01*
X154114286Y-101600000D01*
X154209524Y-101552381D01*
X154400001Y-101552381D01*
X154495239Y-101600000D01*
X154542858Y-101647619D01*
X154590477Y-101742857D01*
X154590477Y-101790476D01*
X154542858Y-101885714D01*
X154495239Y-101933333D01*
X154400001Y-101980952D01*
X154209524Y-101980952D01*
X154114286Y-102028571D01*
X154066667Y-102076190D01*
X154019048Y-102171429D01*
X154019048Y-102361905D01*
X154066667Y-102457143D01*
X154114286Y-102504762D01*
X154209524Y-102552381D01*
X154400001Y-102552381D01*
X154495239Y-102504762D01*
X154542858Y-102457143D01*
X154590477Y-102361905D01*
X154590477Y-102171429D01*
X154542858Y-102076190D01*
X154495239Y-102028571D01*
X154400001Y-101980952D01*
D12*
X151852381Y-99873810D02*
X151804762Y-99850000D01*
X151757143Y-99802381D01*
X151685714Y-99730952D01*
X151638095Y-99707143D01*
X151590476Y-99707143D01*
X151614286Y-99826190D02*
X151566667Y-99802381D01*
X151519048Y-99754762D01*
X151495238Y-99659524D01*
X151495238Y-99492857D01*
X151519048Y-99397619D01*
X151566667Y-99350000D01*
X151614286Y-99326190D01*
X151709524Y-99326190D01*
X151757143Y-99350000D01*
X151804762Y-99397619D01*
X151828571Y-99492857D01*
X151828571Y-99659524D01*
X151804762Y-99754762D01*
X151757143Y-99802381D01*
X151709524Y-99826190D01*
X151614286Y-99826190D01*
X151995239Y-99326190D02*
X152328572Y-99326190D01*
X152114286Y-99826190D01*
D11*
X146090477Y-85278571D02*
X146233334Y-85326190D01*
X146280953Y-85373810D01*
X146328572Y-85469048D01*
X146328572Y-85611905D01*
X146280953Y-85707143D01*
X146233334Y-85754762D01*
X146138096Y-85802381D01*
X145757143Y-85802381D01*
X145757143Y-84802381D01*
X146090477Y-84802381D01*
X146185715Y-84850000D01*
X146233334Y-84897619D01*
X146280953Y-84992857D01*
X146280953Y-85088095D01*
X146233334Y-85183333D01*
X146185715Y-85230952D01*
X146090477Y-85278571D01*
X145757143Y-85278571D01*
X146709524Y-85754762D02*
X146852381Y-85802381D01*
X147090477Y-85802381D01*
X147185715Y-85754762D01*
X147233334Y-85707143D01*
X147280953Y-85611905D01*
X147280953Y-85516667D01*
X147233334Y-85421429D01*
X147185715Y-85373810D01*
X147090477Y-85326190D01*
X146900000Y-85278571D01*
X146804762Y-85230952D01*
X146757143Y-85183333D01*
X146709524Y-85088095D01*
X146709524Y-84992857D01*
X146757143Y-84897619D01*
X146804762Y-84850000D01*
X146900000Y-84802381D01*
X147138096Y-84802381D01*
X147280953Y-84850000D01*
X147661905Y-85754762D02*
X147804762Y-85802381D01*
X148042858Y-85802381D01*
X148138096Y-85754762D01*
X148185715Y-85707143D01*
X148233334Y-85611905D01*
X148233334Y-85516667D01*
X148185715Y-85421429D01*
X148138096Y-85373810D01*
X148042858Y-85326190D01*
X147852381Y-85278571D01*
X147757143Y-85230952D01*
X147709524Y-85183333D01*
X147661905Y-85088095D01*
X147661905Y-84992857D01*
X147709524Y-84897619D01*
X147757143Y-84850000D01*
X147852381Y-84802381D01*
X148090477Y-84802381D01*
X148233334Y-84850000D01*
X149185715Y-85802381D02*
X148614286Y-85802381D01*
X148900000Y-85802381D02*
X148900000Y-84802381D01*
X148804762Y-84945238D01*
X148709524Y-85040476D01*
X148614286Y-85088095D01*
X149519048Y-84802381D02*
X150138096Y-84802381D01*
X149804762Y-85183333D01*
X149947620Y-85183333D01*
X150042858Y-85230952D01*
X150090477Y-85278571D01*
X150138096Y-85373810D01*
X150138096Y-85611905D01*
X150090477Y-85707143D01*
X150042858Y-85754762D01*
X149947620Y-85802381D01*
X149661905Y-85802381D01*
X149566667Y-85754762D01*
X149519048Y-85707143D01*
X150709524Y-85230952D02*
X150614286Y-85183333D01*
X150566667Y-85135714D01*
X150519048Y-85040476D01*
X150519048Y-84992857D01*
X150566667Y-84897619D01*
X150614286Y-84850000D01*
X150709524Y-84802381D01*
X150900001Y-84802381D01*
X150995239Y-84850000D01*
X151042858Y-84897619D01*
X151090477Y-84992857D01*
X151090477Y-85040476D01*
X151042858Y-85135714D01*
X150995239Y-85183333D01*
X150900001Y-85230952D01*
X150709524Y-85230952D01*
X150614286Y-85278571D01*
X150566667Y-85326190D01*
X150519048Y-85421429D01*
X150519048Y-85611905D01*
X150566667Y-85707143D01*
X150614286Y-85754762D01*
X150709524Y-85802381D01*
X150900001Y-85802381D01*
X150995239Y-85754762D01*
X151042858Y-85707143D01*
X151090477Y-85611905D01*
X151090477Y-85421429D01*
X151042858Y-85326190D01*
X150995239Y-85278571D01*
X150900001Y-85230952D01*
D12*
X148114286Y-88123810D02*
X148066667Y-88100000D01*
X148019048Y-88052381D01*
X147947619Y-87980952D01*
X147900000Y-87957143D01*
X147852381Y-87957143D01*
X147876191Y-88076190D02*
X147828572Y-88052381D01*
X147780953Y-88004762D01*
X147757143Y-87909524D01*
X147757143Y-87742857D01*
X147780953Y-87647619D01*
X147828572Y-87600000D01*
X147876191Y-87576190D01*
X147971429Y-87576190D01*
X148019048Y-87600000D01*
X148066667Y-87647619D01*
X148090476Y-87742857D01*
X148090476Y-87909524D01*
X148066667Y-88004762D01*
X148019048Y-88052381D01*
X147971429Y-88076190D01*
X147876191Y-88076190D01*
X148566667Y-88076190D02*
X148280953Y-88076190D01*
X148423810Y-88076190D02*
X148423810Y-87576190D01*
X148376191Y-87647619D01*
X148328572Y-87695238D01*
X148280953Y-87719048D01*
X148733334Y-87576190D02*
X149042857Y-87576190D01*
X148876191Y-87766667D01*
X148947619Y-87766667D01*
X148995238Y-87790476D01*
X149019048Y-87814286D01*
X149042857Y-87861905D01*
X149042857Y-87980952D01*
X149019048Y-88028571D01*
X148995238Y-88052381D01*
X148947619Y-88076190D01*
X148804762Y-88076190D01*
X148757143Y-88052381D01*
X148733334Y-88028571D01*
D11*
X153190477Y-85428571D02*
X153333334Y-85476190D01*
X153380953Y-85523810D01*
X153428572Y-85619048D01*
X153428572Y-85761905D01*
X153380953Y-85857143D01*
X153333334Y-85904762D01*
X153238096Y-85952381D01*
X152857143Y-85952381D01*
X152857143Y-84952381D01*
X153190477Y-84952381D01*
X153285715Y-85000000D01*
X153333334Y-85047619D01*
X153380953Y-85142857D01*
X153380953Y-85238095D01*
X153333334Y-85333333D01*
X153285715Y-85380952D01*
X153190477Y-85428571D01*
X152857143Y-85428571D01*
X153809524Y-85904762D02*
X153952381Y-85952381D01*
X154190477Y-85952381D01*
X154285715Y-85904762D01*
X154333334Y-85857143D01*
X154380953Y-85761905D01*
X154380953Y-85666667D01*
X154333334Y-85571429D01*
X154285715Y-85523810D01*
X154190477Y-85476190D01*
X154000000Y-85428571D01*
X153904762Y-85380952D01*
X153857143Y-85333333D01*
X153809524Y-85238095D01*
X153809524Y-85142857D01*
X153857143Y-85047619D01*
X153904762Y-85000000D01*
X154000000Y-84952381D01*
X154238096Y-84952381D01*
X154380953Y-85000000D01*
X154761905Y-85904762D02*
X154904762Y-85952381D01*
X155142858Y-85952381D01*
X155238096Y-85904762D01*
X155285715Y-85857143D01*
X155333334Y-85761905D01*
X155333334Y-85666667D01*
X155285715Y-85571429D01*
X155238096Y-85523810D01*
X155142858Y-85476190D01*
X154952381Y-85428571D01*
X154857143Y-85380952D01*
X154809524Y-85333333D01*
X154761905Y-85238095D01*
X154761905Y-85142857D01*
X154809524Y-85047619D01*
X154857143Y-85000000D01*
X154952381Y-84952381D01*
X155190477Y-84952381D01*
X155333334Y-85000000D01*
X156285715Y-85952381D02*
X155714286Y-85952381D01*
X156000000Y-85952381D02*
X156000000Y-84952381D01*
X155904762Y-85095238D01*
X155809524Y-85190476D01*
X155714286Y-85238095D01*
X156619048Y-84952381D02*
X157238096Y-84952381D01*
X156904762Y-85333333D01*
X157047620Y-85333333D01*
X157142858Y-85380952D01*
X157190477Y-85428571D01*
X157238096Y-85523810D01*
X157238096Y-85761905D01*
X157190477Y-85857143D01*
X157142858Y-85904762D01*
X157047620Y-85952381D01*
X156761905Y-85952381D01*
X156666667Y-85904762D01*
X156619048Y-85857143D01*
X157809524Y-85380952D02*
X157714286Y-85333333D01*
X157666667Y-85285714D01*
X157619048Y-85190476D01*
X157619048Y-85142857D01*
X157666667Y-85047619D01*
X157714286Y-85000000D01*
X157809524Y-84952381D01*
X158000001Y-84952381D01*
X158095239Y-85000000D01*
X158142858Y-85047619D01*
X158190477Y-85142857D01*
X158190477Y-85190476D01*
X158142858Y-85285714D01*
X158095239Y-85333333D01*
X158000001Y-85380952D01*
X157809524Y-85380952D01*
X157714286Y-85428571D01*
X157666667Y-85476190D01*
X157619048Y-85571429D01*
X157619048Y-85761905D01*
X157666667Y-85857143D01*
X157714286Y-85904762D01*
X157809524Y-85952381D01*
X158000001Y-85952381D01*
X158095239Y-85904762D01*
X158142858Y-85857143D01*
X158190477Y-85761905D01*
X158190477Y-85571429D01*
X158142858Y-85476190D01*
X158095239Y-85428571D01*
X158000001Y-85380952D01*
D12*
X155214286Y-88273810D02*
X155166667Y-88250000D01*
X155119048Y-88202381D01*
X155047619Y-88130952D01*
X155000000Y-88107143D01*
X154952381Y-88107143D01*
X154976191Y-88226190D02*
X154928572Y-88202381D01*
X154880953Y-88154762D01*
X154857143Y-88059524D01*
X154857143Y-87892857D01*
X154880953Y-87797619D01*
X154928572Y-87750000D01*
X154976191Y-87726190D01*
X155071429Y-87726190D01*
X155119048Y-87750000D01*
X155166667Y-87797619D01*
X155190476Y-87892857D01*
X155190476Y-88059524D01*
X155166667Y-88154762D01*
X155119048Y-88202381D01*
X155071429Y-88226190D01*
X154976191Y-88226190D01*
X155666667Y-88226190D02*
X155380953Y-88226190D01*
X155523810Y-88226190D02*
X155523810Y-87726190D01*
X155476191Y-87797619D01*
X155428572Y-87845238D01*
X155380953Y-87869048D01*
X156095238Y-87892857D02*
X156095238Y-88226190D01*
X155976191Y-87702381D02*
X155857143Y-88059524D01*
X156166667Y-88059524D01*
D11*
X160490477Y-85428571D02*
X160633334Y-85476190D01*
X160680953Y-85523810D01*
X160728572Y-85619048D01*
X160728572Y-85761905D01*
X160680953Y-85857143D01*
X160633334Y-85904762D01*
X160538096Y-85952381D01*
X160157143Y-85952381D01*
X160157143Y-84952381D01*
X160490477Y-84952381D01*
X160585715Y-85000000D01*
X160633334Y-85047619D01*
X160680953Y-85142857D01*
X160680953Y-85238095D01*
X160633334Y-85333333D01*
X160585715Y-85380952D01*
X160490477Y-85428571D01*
X160157143Y-85428571D01*
X161109524Y-85904762D02*
X161252381Y-85952381D01*
X161490477Y-85952381D01*
X161585715Y-85904762D01*
X161633334Y-85857143D01*
X161680953Y-85761905D01*
X161680953Y-85666667D01*
X161633334Y-85571429D01*
X161585715Y-85523810D01*
X161490477Y-85476190D01*
X161300000Y-85428571D01*
X161204762Y-85380952D01*
X161157143Y-85333333D01*
X161109524Y-85238095D01*
X161109524Y-85142857D01*
X161157143Y-85047619D01*
X161204762Y-85000000D01*
X161300000Y-84952381D01*
X161538096Y-84952381D01*
X161680953Y-85000000D01*
X162061905Y-85904762D02*
X162204762Y-85952381D01*
X162442858Y-85952381D01*
X162538096Y-85904762D01*
X162585715Y-85857143D01*
X162633334Y-85761905D01*
X162633334Y-85666667D01*
X162585715Y-85571429D01*
X162538096Y-85523810D01*
X162442858Y-85476190D01*
X162252381Y-85428571D01*
X162157143Y-85380952D01*
X162109524Y-85333333D01*
X162061905Y-85238095D01*
X162061905Y-85142857D01*
X162109524Y-85047619D01*
X162157143Y-85000000D01*
X162252381Y-84952381D01*
X162490477Y-84952381D01*
X162633334Y-85000000D01*
X163585715Y-85952381D02*
X163014286Y-85952381D01*
X163300000Y-85952381D02*
X163300000Y-84952381D01*
X163204762Y-85095238D01*
X163109524Y-85190476D01*
X163014286Y-85238095D01*
X163919048Y-84952381D02*
X164538096Y-84952381D01*
X164204762Y-85333333D01*
X164347620Y-85333333D01*
X164442858Y-85380952D01*
X164490477Y-85428571D01*
X164538096Y-85523810D01*
X164538096Y-85761905D01*
X164490477Y-85857143D01*
X164442858Y-85904762D01*
X164347620Y-85952381D01*
X164061905Y-85952381D01*
X163966667Y-85904762D01*
X163919048Y-85857143D01*
X165109524Y-85380952D02*
X165014286Y-85333333D01*
X164966667Y-85285714D01*
X164919048Y-85190476D01*
X164919048Y-85142857D01*
X164966667Y-85047619D01*
X165014286Y-85000000D01*
X165109524Y-84952381D01*
X165300001Y-84952381D01*
X165395239Y-85000000D01*
X165442858Y-85047619D01*
X165490477Y-85142857D01*
X165490477Y-85190476D01*
X165442858Y-85285714D01*
X165395239Y-85333333D01*
X165300001Y-85380952D01*
X165109524Y-85380952D01*
X165014286Y-85428571D01*
X164966667Y-85476190D01*
X164919048Y-85571429D01*
X164919048Y-85761905D01*
X164966667Y-85857143D01*
X165014286Y-85904762D01*
X165109524Y-85952381D01*
X165300001Y-85952381D01*
X165395239Y-85904762D01*
X165442858Y-85857143D01*
X165490477Y-85761905D01*
X165490477Y-85571429D01*
X165442858Y-85476190D01*
X165395239Y-85428571D01*
X165300001Y-85380952D01*
D12*
X162514286Y-88273810D02*
X162466667Y-88250000D01*
X162419048Y-88202381D01*
X162347619Y-88130952D01*
X162300000Y-88107143D01*
X162252381Y-88107143D01*
X162276191Y-88226190D02*
X162228572Y-88202381D01*
X162180953Y-88154762D01*
X162157143Y-88059524D01*
X162157143Y-87892857D01*
X162180953Y-87797619D01*
X162228572Y-87750000D01*
X162276191Y-87726190D01*
X162371429Y-87726190D01*
X162419048Y-87750000D01*
X162466667Y-87797619D01*
X162490476Y-87892857D01*
X162490476Y-88059524D01*
X162466667Y-88154762D01*
X162419048Y-88202381D01*
X162371429Y-88226190D01*
X162276191Y-88226190D01*
X162966667Y-88226190D02*
X162680953Y-88226190D01*
X162823810Y-88226190D02*
X162823810Y-87726190D01*
X162776191Y-87797619D01*
X162728572Y-87845238D01*
X162680953Y-87869048D01*
X163419048Y-87726190D02*
X163180953Y-87726190D01*
X163157143Y-87964286D01*
X163180953Y-87940476D01*
X163228572Y-87916667D01*
X163347619Y-87916667D01*
X163395238Y-87940476D01*
X163419048Y-87964286D01*
X163442857Y-88011905D01*
X163442857Y-88130952D01*
X163419048Y-88178571D01*
X163395238Y-88202381D01*
X163347619Y-88226190D01*
X163228572Y-88226190D01*
X163180953Y-88202381D01*
X163157143Y-88178571D01*
D11*
X167790477Y-85478571D02*
X167933334Y-85526190D01*
X167980953Y-85573810D01*
X168028572Y-85669048D01*
X168028572Y-85811905D01*
X167980953Y-85907143D01*
X167933334Y-85954762D01*
X167838096Y-86002381D01*
X167457143Y-86002381D01*
X167457143Y-85002381D01*
X167790477Y-85002381D01*
X167885715Y-85050000D01*
X167933334Y-85097619D01*
X167980953Y-85192857D01*
X167980953Y-85288095D01*
X167933334Y-85383333D01*
X167885715Y-85430952D01*
X167790477Y-85478571D01*
X167457143Y-85478571D01*
X168409524Y-85954762D02*
X168552381Y-86002381D01*
X168790477Y-86002381D01*
X168885715Y-85954762D01*
X168933334Y-85907143D01*
X168980953Y-85811905D01*
X168980953Y-85716667D01*
X168933334Y-85621429D01*
X168885715Y-85573810D01*
X168790477Y-85526190D01*
X168600000Y-85478571D01*
X168504762Y-85430952D01*
X168457143Y-85383333D01*
X168409524Y-85288095D01*
X168409524Y-85192857D01*
X168457143Y-85097619D01*
X168504762Y-85050000D01*
X168600000Y-85002381D01*
X168838096Y-85002381D01*
X168980953Y-85050000D01*
X169361905Y-85954762D02*
X169504762Y-86002381D01*
X169742858Y-86002381D01*
X169838096Y-85954762D01*
X169885715Y-85907143D01*
X169933334Y-85811905D01*
X169933334Y-85716667D01*
X169885715Y-85621429D01*
X169838096Y-85573810D01*
X169742858Y-85526190D01*
X169552381Y-85478571D01*
X169457143Y-85430952D01*
X169409524Y-85383333D01*
X169361905Y-85288095D01*
X169361905Y-85192857D01*
X169409524Y-85097619D01*
X169457143Y-85050000D01*
X169552381Y-85002381D01*
X169790477Y-85002381D01*
X169933334Y-85050000D01*
X170885715Y-86002381D02*
X170314286Y-86002381D01*
X170600000Y-86002381D02*
X170600000Y-85002381D01*
X170504762Y-85145238D01*
X170409524Y-85240476D01*
X170314286Y-85288095D01*
X171219048Y-85002381D02*
X171838096Y-85002381D01*
X171504762Y-85383333D01*
X171647620Y-85383333D01*
X171742858Y-85430952D01*
X171790477Y-85478571D01*
X171838096Y-85573810D01*
X171838096Y-85811905D01*
X171790477Y-85907143D01*
X171742858Y-85954762D01*
X171647620Y-86002381D01*
X171361905Y-86002381D01*
X171266667Y-85954762D01*
X171219048Y-85907143D01*
X172409524Y-85430952D02*
X172314286Y-85383333D01*
X172266667Y-85335714D01*
X172219048Y-85240476D01*
X172219048Y-85192857D01*
X172266667Y-85097619D01*
X172314286Y-85050000D01*
X172409524Y-85002381D01*
X172600001Y-85002381D01*
X172695239Y-85050000D01*
X172742858Y-85097619D01*
X172790477Y-85192857D01*
X172790477Y-85240476D01*
X172742858Y-85335714D01*
X172695239Y-85383333D01*
X172600001Y-85430952D01*
X172409524Y-85430952D01*
X172314286Y-85478571D01*
X172266667Y-85526190D01*
X172219048Y-85621429D01*
X172219048Y-85811905D01*
X172266667Y-85907143D01*
X172314286Y-85954762D01*
X172409524Y-86002381D01*
X172600001Y-86002381D01*
X172695239Y-85954762D01*
X172742858Y-85907143D01*
X172790477Y-85811905D01*
X172790477Y-85621429D01*
X172742858Y-85526190D01*
X172695239Y-85478571D01*
X172600001Y-85430952D01*
D12*
X169814286Y-88323810D02*
X169766667Y-88300000D01*
X169719048Y-88252381D01*
X169647619Y-88180952D01*
X169600000Y-88157143D01*
X169552381Y-88157143D01*
X169576191Y-88276190D02*
X169528572Y-88252381D01*
X169480953Y-88204762D01*
X169457143Y-88109524D01*
X169457143Y-87942857D01*
X169480953Y-87847619D01*
X169528572Y-87800000D01*
X169576191Y-87776190D01*
X169671429Y-87776190D01*
X169719048Y-87800000D01*
X169766667Y-87847619D01*
X169790476Y-87942857D01*
X169790476Y-88109524D01*
X169766667Y-88204762D01*
X169719048Y-88252381D01*
X169671429Y-88276190D01*
X169576191Y-88276190D01*
X170266667Y-88276190D02*
X169980953Y-88276190D01*
X170123810Y-88276190D02*
X170123810Y-87776190D01*
X170076191Y-87847619D01*
X170028572Y-87895238D01*
X169980953Y-87919048D01*
X170695238Y-87776190D02*
X170600000Y-87776190D01*
X170552381Y-87800000D01*
X170528572Y-87823810D01*
X170480953Y-87895238D01*
X170457143Y-87990476D01*
X170457143Y-88180952D01*
X170480953Y-88228571D01*
X170504762Y-88252381D01*
X170552381Y-88276190D01*
X170647619Y-88276190D01*
X170695238Y-88252381D01*
X170719048Y-88228571D01*
X170742857Y-88180952D01*
X170742857Y-88061905D01*
X170719048Y-88014286D01*
X170695238Y-87990476D01*
X170647619Y-87966667D01*
X170552381Y-87966667D01*
X170504762Y-87990476D01*
X170480953Y-88014286D01*
X170457143Y-88061905D01*
D11*
X165659524Y-95502381D02*
X165088095Y-95502381D01*
X165373809Y-95502381D02*
X165373809Y-94502381D01*
X165278571Y-94645238D01*
X165183333Y-94740476D01*
X165088095Y-94788095D01*
X166278571Y-94502381D02*
X166373810Y-94502381D01*
X166469048Y-94550000D01*
X166516667Y-94597619D01*
X166564286Y-94692857D01*
X166611905Y-94883333D01*
X166611905Y-95121429D01*
X166564286Y-95311905D01*
X166516667Y-95407143D01*
X166469048Y-95454762D01*
X166373810Y-95502381D01*
X166278571Y-95502381D01*
X166183333Y-95454762D01*
X166135714Y-95407143D01*
X166088095Y-95311905D01*
X166040476Y-95121429D01*
X166040476Y-94883333D01*
X166088095Y-94692857D01*
X166135714Y-94597619D01*
X166183333Y-94550000D01*
X166278571Y-94502381D01*
X167040476Y-95502381D02*
X167040476Y-94502381D01*
X167611905Y-95502381D02*
X167183333Y-94930952D01*
X167611905Y-94502381D02*
X167040476Y-95073810D01*
D12*
X166266667Y-97026190D02*
X166100000Y-96788095D01*
X165980953Y-97026190D02*
X165980953Y-96526190D01*
X166171429Y-96526190D01*
X166219048Y-96550000D01*
X166242857Y-96573810D01*
X166266667Y-96621429D01*
X166266667Y-96692857D01*
X166242857Y-96740476D01*
X166219048Y-96764286D01*
X166171429Y-96788095D01*
X165980953Y-96788095D01*
X166433334Y-96526190D02*
X166766667Y-96526190D01*
X166552381Y-97026190D01*
D11*
X151859524Y-95502381D02*
X151288095Y-95502381D01*
X151573809Y-95502381D02*
X151573809Y-94502381D01*
X151478571Y-94645238D01*
X151383333Y-94740476D01*
X151288095Y-94788095D01*
X152478571Y-94502381D02*
X152573810Y-94502381D01*
X152669048Y-94550000D01*
X152716667Y-94597619D01*
X152764286Y-94692857D01*
X152811905Y-94883333D01*
X152811905Y-95121429D01*
X152764286Y-95311905D01*
X152716667Y-95407143D01*
X152669048Y-95454762D01*
X152573810Y-95502381D01*
X152478571Y-95502381D01*
X152383333Y-95454762D01*
X152335714Y-95407143D01*
X152288095Y-95311905D01*
X152240476Y-95121429D01*
X152240476Y-94883333D01*
X152288095Y-94692857D01*
X152335714Y-94597619D01*
X152383333Y-94550000D01*
X152478571Y-94502381D01*
X153240476Y-95502381D02*
X153240476Y-94502381D01*
X153811905Y-95502381D02*
X153383333Y-94930952D01*
X153811905Y-94502381D02*
X153240476Y-95073810D01*
D12*
X152228572Y-97026190D02*
X152061905Y-96788095D01*
X151942858Y-97026190D02*
X151942858Y-96526190D01*
X152133334Y-96526190D01*
X152180953Y-96550000D01*
X152204762Y-96573810D01*
X152228572Y-96621429D01*
X152228572Y-96692857D01*
X152204762Y-96740476D01*
X152180953Y-96764286D01*
X152133334Y-96788095D01*
X151942858Y-96788095D01*
X152704762Y-97026190D02*
X152419048Y-97026190D01*
X152561905Y-97026190D02*
X152561905Y-96526190D01*
X152514286Y-96597619D01*
X152466667Y-96645238D01*
X152419048Y-96669048D01*
X153180952Y-97026190D02*
X152895238Y-97026190D01*
X153038095Y-97026190D02*
X153038095Y-96526190D01*
X152990476Y-96597619D01*
X152942857Y-96645238D01*
X152895238Y-96669048D01*
D11*
X172502381Y-99040476D02*
X172502381Y-99611905D01*
X172502381Y-99326191D02*
X171502381Y-99326191D01*
X171645238Y-99421429D01*
X171740476Y-99516667D01*
X171788095Y-99611905D01*
X171502381Y-98421429D02*
X171502381Y-98326190D01*
X171550000Y-98230952D01*
X171597619Y-98183333D01*
X171692857Y-98135714D01*
X171883333Y-98088095D01*
X172121429Y-98088095D01*
X172311905Y-98135714D01*
X172407143Y-98183333D01*
X172454762Y-98230952D01*
X172502381Y-98326190D01*
X172502381Y-98421429D01*
X172454762Y-98516667D01*
X172407143Y-98564286D01*
X172311905Y-98611905D01*
X172121429Y-98659524D01*
X171883333Y-98659524D01*
X171692857Y-98611905D01*
X171597619Y-98564286D01*
X171550000Y-98516667D01*
X171502381Y-98421429D01*
X172502381Y-97659524D02*
X171502381Y-97659524D01*
X172502381Y-97088095D02*
X171930952Y-97516667D01*
X171502381Y-97088095D02*
X172073810Y-97659524D01*
D12*
X170526190Y-98671428D02*
X170288095Y-98838095D01*
X170526190Y-98957142D02*
X170026190Y-98957142D01*
X170026190Y-98766666D01*
X170050000Y-98719047D01*
X170073810Y-98695238D01*
X170121429Y-98671428D01*
X170192857Y-98671428D01*
X170240476Y-98695238D01*
X170264286Y-98719047D01*
X170288095Y-98766666D01*
X170288095Y-98957142D01*
X170526190Y-98195238D02*
X170526190Y-98480952D01*
X170526190Y-98338095D02*
X170026190Y-98338095D01*
X170097619Y-98385714D01*
X170145238Y-98433333D01*
X170169048Y-98480952D01*
X170026190Y-98028571D02*
X170026190Y-97719048D01*
X170216667Y-97885714D01*
X170216667Y-97814286D01*
X170240476Y-97766667D01*
X170264286Y-97742857D01*
X170311905Y-97719048D01*
X170430952Y-97719048D01*
X170478571Y-97742857D01*
X170502381Y-97766667D01*
X170526190Y-97814286D01*
X170526190Y-97957143D01*
X170502381Y-98004762D01*
X170478571Y-98028571D01*
D11*
X158302381Y-98940476D02*
X158302381Y-99511905D01*
X158302381Y-99226191D02*
X157302381Y-99226191D01*
X157445238Y-99321429D01*
X157540476Y-99416667D01*
X157588095Y-99511905D01*
X157302381Y-98321429D02*
X157302381Y-98226190D01*
X157350000Y-98130952D01*
X157397619Y-98083333D01*
X157492857Y-98035714D01*
X157683333Y-97988095D01*
X157921429Y-97988095D01*
X158111905Y-98035714D01*
X158207143Y-98083333D01*
X158254762Y-98130952D01*
X158302381Y-98226190D01*
X158302381Y-98321429D01*
X158254762Y-98416667D01*
X158207143Y-98464286D01*
X158111905Y-98511905D01*
X157921429Y-98559524D01*
X157683333Y-98559524D01*
X157492857Y-98511905D01*
X157397619Y-98464286D01*
X157350000Y-98416667D01*
X157302381Y-98321429D01*
X158302381Y-97559524D02*
X157302381Y-97559524D01*
X158302381Y-96988095D02*
X157730952Y-97416667D01*
X157302381Y-96988095D02*
X157873810Y-97559524D01*
D12*
X156326190Y-98571428D02*
X156088095Y-98738095D01*
X156326190Y-98857142D02*
X155826190Y-98857142D01*
X155826190Y-98666666D01*
X155850000Y-98619047D01*
X155873810Y-98595238D01*
X155921429Y-98571428D01*
X155992857Y-98571428D01*
X156040476Y-98595238D01*
X156064286Y-98619047D01*
X156088095Y-98666666D01*
X156088095Y-98857142D01*
X156326190Y-98095238D02*
X156326190Y-98380952D01*
X156326190Y-98238095D02*
X155826190Y-98238095D01*
X155897619Y-98285714D01*
X155945238Y-98333333D01*
X155969048Y-98380952D01*
X155992857Y-97666667D02*
X156326190Y-97666667D01*
X155802381Y-97785714D02*
X156159524Y-97904762D01*
X156159524Y-97595238D01*
D11*
X165202381Y-98940476D02*
X165202381Y-99511905D01*
X165202381Y-99226191D02*
X164202381Y-99226191D01*
X164345238Y-99321429D01*
X164440476Y-99416667D01*
X164488095Y-99511905D01*
X164202381Y-98321429D02*
X164202381Y-98226190D01*
X164250000Y-98130952D01*
X164297619Y-98083333D01*
X164392857Y-98035714D01*
X164583333Y-97988095D01*
X164821429Y-97988095D01*
X165011905Y-98035714D01*
X165107143Y-98083333D01*
X165154762Y-98130952D01*
X165202381Y-98226190D01*
X165202381Y-98321429D01*
X165154762Y-98416667D01*
X165107143Y-98464286D01*
X165011905Y-98511905D01*
X164821429Y-98559524D01*
X164583333Y-98559524D01*
X164392857Y-98511905D01*
X164297619Y-98464286D01*
X164250000Y-98416667D01*
X164202381Y-98321429D01*
X165202381Y-97559524D02*
X164202381Y-97559524D01*
X165202381Y-96988095D02*
X164630952Y-97416667D01*
X164202381Y-96988095D02*
X164773810Y-97559524D01*
D12*
X163226190Y-98571428D02*
X162988095Y-98738095D01*
X163226190Y-98857142D02*
X162726190Y-98857142D01*
X162726190Y-98666666D01*
X162750000Y-98619047D01*
X162773810Y-98595238D01*
X162821429Y-98571428D01*
X162892857Y-98571428D01*
X162940476Y-98595238D01*
X162964286Y-98619047D01*
X162988095Y-98666666D01*
X162988095Y-98857142D01*
X163226190Y-98095238D02*
X163226190Y-98380952D01*
X163226190Y-98238095D02*
X162726190Y-98238095D01*
X162797619Y-98285714D01*
X162845238Y-98333333D01*
X162869048Y-98380952D01*
X162726190Y-97642857D02*
X162726190Y-97880952D01*
X162964286Y-97904762D01*
X162940476Y-97880952D01*
X162916667Y-97833333D01*
X162916667Y-97714286D01*
X162940476Y-97666667D01*
X162964286Y-97642857D01*
X163011905Y-97619048D01*
X163130952Y-97619048D01*
X163178571Y-97642857D01*
X163202381Y-97666667D01*
X163226190Y-97714286D01*
X163226190Y-97833333D01*
X163202381Y-97880952D01*
X163178571Y-97904762D01*
D11*
X151302381Y-98940476D02*
X151302381Y-99511905D01*
X151302381Y-99226191D02*
X150302381Y-99226191D01*
X150445238Y-99321429D01*
X150540476Y-99416667D01*
X150588095Y-99511905D01*
X150302381Y-98321429D02*
X150302381Y-98226190D01*
X150350000Y-98130952D01*
X150397619Y-98083333D01*
X150492857Y-98035714D01*
X150683333Y-97988095D01*
X150921429Y-97988095D01*
X151111905Y-98035714D01*
X151207143Y-98083333D01*
X151254762Y-98130952D01*
X151302381Y-98226190D01*
X151302381Y-98321429D01*
X151254762Y-98416667D01*
X151207143Y-98464286D01*
X151111905Y-98511905D01*
X150921429Y-98559524D01*
X150683333Y-98559524D01*
X150492857Y-98511905D01*
X150397619Y-98464286D01*
X150350000Y-98416667D01*
X150302381Y-98321429D01*
X151302381Y-97559524D02*
X150302381Y-97559524D01*
X151302381Y-96988095D02*
X150730952Y-97416667D01*
X150302381Y-96988095D02*
X150873810Y-97559524D01*
D12*
X149326190Y-98571428D02*
X149088095Y-98738095D01*
X149326190Y-98857142D02*
X148826190Y-98857142D01*
X148826190Y-98666666D01*
X148850000Y-98619047D01*
X148873810Y-98595238D01*
X148921429Y-98571428D01*
X148992857Y-98571428D01*
X149040476Y-98595238D01*
X149064286Y-98619047D01*
X149088095Y-98666666D01*
X149088095Y-98857142D01*
X149326190Y-98095238D02*
X149326190Y-98380952D01*
X149326190Y-98238095D02*
X148826190Y-98238095D01*
X148897619Y-98285714D01*
X148945238Y-98333333D01*
X148969048Y-98380952D01*
X149326190Y-97857143D02*
X149326190Y-97761905D01*
X149302381Y-97714286D01*
X149278571Y-97690476D01*
X149207143Y-97642857D01*
X149111905Y-97619048D01*
X148921429Y-97619048D01*
X148873810Y-97642857D01*
X148850000Y-97666667D01*
X148826190Y-97714286D01*
X148826190Y-97809524D01*
X148850000Y-97857143D01*
X148873810Y-97880952D01*
X148921429Y-97904762D01*
X149040476Y-97904762D01*
X149088095Y-97880952D01*
X149111905Y-97857143D01*
X149135714Y-97809524D01*
X149135714Y-97714286D01*
X149111905Y-97666667D01*
X149088095Y-97642857D01*
X149040476Y-97619048D01*
D11*
X149802381Y-89940476D02*
X149802381Y-90511905D01*
X149802381Y-90226191D02*
X148802381Y-90226191D01*
X148945238Y-90321429D01*
X149040476Y-90416667D01*
X149088095Y-90511905D01*
X148802381Y-89321429D02*
X148802381Y-89226190D01*
X148850000Y-89130952D01*
X148897619Y-89083333D01*
X148992857Y-89035714D01*
X149183333Y-88988095D01*
X149421429Y-88988095D01*
X149611905Y-89035714D01*
X149707143Y-89083333D01*
X149754762Y-89130952D01*
X149802381Y-89226190D01*
X149802381Y-89321429D01*
X149754762Y-89416667D01*
X149707143Y-89464286D01*
X149611905Y-89511905D01*
X149421429Y-89559524D01*
X149183333Y-89559524D01*
X148992857Y-89511905D01*
X148897619Y-89464286D01*
X148850000Y-89416667D01*
X148802381Y-89321429D01*
X149802381Y-88559524D02*
X148802381Y-88559524D01*
X149802381Y-87988095D02*
X149230952Y-88416667D01*
X148802381Y-87988095D02*
X149373810Y-88559524D01*
D12*
X151326190Y-89571428D02*
X151088095Y-89738095D01*
X151326190Y-89857142D02*
X150826190Y-89857142D01*
X150826190Y-89666666D01*
X150850000Y-89619047D01*
X150873810Y-89595238D01*
X150921429Y-89571428D01*
X150992857Y-89571428D01*
X151040476Y-89595238D01*
X151064286Y-89619047D01*
X151088095Y-89666666D01*
X151088095Y-89857142D01*
X150873810Y-89380952D02*
X150850000Y-89357142D01*
X150826190Y-89309523D01*
X150826190Y-89190476D01*
X150850000Y-89142857D01*
X150873810Y-89119047D01*
X150921429Y-89095238D01*
X150969048Y-89095238D01*
X151040476Y-89119047D01*
X151326190Y-89404761D01*
X151326190Y-89095238D01*
X150826190Y-88642857D02*
X150826190Y-88880952D01*
X151064286Y-88904762D01*
X151040476Y-88880952D01*
X151016667Y-88833333D01*
X151016667Y-88714286D01*
X151040476Y-88666667D01*
X151064286Y-88642857D01*
X151111905Y-88619048D01*
X151230952Y-88619048D01*
X151278571Y-88642857D01*
X151302381Y-88666667D01*
X151326190Y-88714286D01*
X151326190Y-88833333D01*
X151302381Y-88880952D01*
X151278571Y-88904762D01*
D11*
X156902381Y-89940476D02*
X156902381Y-90511905D01*
X156902381Y-90226191D02*
X155902381Y-90226191D01*
X156045238Y-90321429D01*
X156140476Y-90416667D01*
X156188095Y-90511905D01*
X155902381Y-89321429D02*
X155902381Y-89226190D01*
X155950000Y-89130952D01*
X155997619Y-89083333D01*
X156092857Y-89035714D01*
X156283333Y-88988095D01*
X156521429Y-88988095D01*
X156711905Y-89035714D01*
X156807143Y-89083333D01*
X156854762Y-89130952D01*
X156902381Y-89226190D01*
X156902381Y-89321429D01*
X156854762Y-89416667D01*
X156807143Y-89464286D01*
X156711905Y-89511905D01*
X156521429Y-89559524D01*
X156283333Y-89559524D01*
X156092857Y-89511905D01*
X155997619Y-89464286D01*
X155950000Y-89416667D01*
X155902381Y-89321429D01*
X156902381Y-88559524D02*
X155902381Y-88559524D01*
X156902381Y-87988095D02*
X156330952Y-88416667D01*
X155902381Y-87988095D02*
X156473810Y-88559524D01*
D12*
X158426190Y-89571428D02*
X158188095Y-89738095D01*
X158426190Y-89857142D02*
X157926190Y-89857142D01*
X157926190Y-89666666D01*
X157950000Y-89619047D01*
X157973810Y-89595238D01*
X158021429Y-89571428D01*
X158092857Y-89571428D01*
X158140476Y-89595238D01*
X158164286Y-89619047D01*
X158188095Y-89666666D01*
X158188095Y-89857142D01*
X157973810Y-89380952D02*
X157950000Y-89357142D01*
X157926190Y-89309523D01*
X157926190Y-89190476D01*
X157950000Y-89142857D01*
X157973810Y-89119047D01*
X158021429Y-89095238D01*
X158069048Y-89095238D01*
X158140476Y-89119047D01*
X158426190Y-89404761D01*
X158426190Y-89095238D01*
X157926190Y-88666667D02*
X157926190Y-88761905D01*
X157950000Y-88809524D01*
X157973810Y-88833333D01*
X158045238Y-88880952D01*
X158140476Y-88904762D01*
X158330952Y-88904762D01*
X158378571Y-88880952D01*
X158402381Y-88857143D01*
X158426190Y-88809524D01*
X158426190Y-88714286D01*
X158402381Y-88666667D01*
X158378571Y-88642857D01*
X158330952Y-88619048D01*
X158211905Y-88619048D01*
X158164286Y-88642857D01*
X158140476Y-88666667D01*
X158116667Y-88714286D01*
X158116667Y-88809524D01*
X158140476Y-88857143D01*
X158164286Y-88880952D01*
X158211905Y-88904762D01*
D11*
X164102381Y-90040476D02*
X164102381Y-90611905D01*
X164102381Y-90326191D02*
X163102381Y-90326191D01*
X163245238Y-90421429D01*
X163340476Y-90516667D01*
X163388095Y-90611905D01*
X163102381Y-89421429D02*
X163102381Y-89326190D01*
X163150000Y-89230952D01*
X163197619Y-89183333D01*
X163292857Y-89135714D01*
X163483333Y-89088095D01*
X163721429Y-89088095D01*
X163911905Y-89135714D01*
X164007143Y-89183333D01*
X164054762Y-89230952D01*
X164102381Y-89326190D01*
X164102381Y-89421429D01*
X164054762Y-89516667D01*
X164007143Y-89564286D01*
X163911905Y-89611905D01*
X163721429Y-89659524D01*
X163483333Y-89659524D01*
X163292857Y-89611905D01*
X163197619Y-89564286D01*
X163150000Y-89516667D01*
X163102381Y-89421429D01*
X164102381Y-88659524D02*
X163102381Y-88659524D01*
X164102381Y-88088095D02*
X163530952Y-88516667D01*
X163102381Y-88088095D02*
X163673810Y-88659524D01*
D12*
X165626190Y-89671428D02*
X165388095Y-89838095D01*
X165626190Y-89957142D02*
X165126190Y-89957142D01*
X165126190Y-89766666D01*
X165150000Y-89719047D01*
X165173810Y-89695238D01*
X165221429Y-89671428D01*
X165292857Y-89671428D01*
X165340476Y-89695238D01*
X165364286Y-89719047D01*
X165388095Y-89766666D01*
X165388095Y-89957142D01*
X165173810Y-89480952D02*
X165150000Y-89457142D01*
X165126190Y-89409523D01*
X165126190Y-89290476D01*
X165150000Y-89242857D01*
X165173810Y-89219047D01*
X165221429Y-89195238D01*
X165269048Y-89195238D01*
X165340476Y-89219047D01*
X165626190Y-89504761D01*
X165626190Y-89195238D01*
X165126190Y-89028571D02*
X165126190Y-88695238D01*
X165626190Y-88909524D01*
D11*
X171502381Y-90040476D02*
X171502381Y-90611905D01*
X171502381Y-90326191D02*
X170502381Y-90326191D01*
X170645238Y-90421429D01*
X170740476Y-90516667D01*
X170788095Y-90611905D01*
X170502381Y-89421429D02*
X170502381Y-89326190D01*
X170550000Y-89230952D01*
X170597619Y-89183333D01*
X170692857Y-89135714D01*
X170883333Y-89088095D01*
X171121429Y-89088095D01*
X171311905Y-89135714D01*
X171407143Y-89183333D01*
X171454762Y-89230952D01*
X171502381Y-89326190D01*
X171502381Y-89421429D01*
X171454762Y-89516667D01*
X171407143Y-89564286D01*
X171311905Y-89611905D01*
X171121429Y-89659524D01*
X170883333Y-89659524D01*
X170692857Y-89611905D01*
X170597619Y-89564286D01*
X170550000Y-89516667D01*
X170502381Y-89421429D01*
X171502381Y-88659524D02*
X170502381Y-88659524D01*
X171502381Y-88088095D02*
X170930952Y-88516667D01*
X170502381Y-88088095D02*
X171073810Y-88659524D01*
D12*
X173026190Y-89671428D02*
X172788095Y-89838095D01*
X173026190Y-89957142D02*
X172526190Y-89957142D01*
X172526190Y-89766666D01*
X172550000Y-89719047D01*
X172573810Y-89695238D01*
X172621429Y-89671428D01*
X172692857Y-89671428D01*
X172740476Y-89695238D01*
X172764286Y-89719047D01*
X172788095Y-89766666D01*
X172788095Y-89957142D01*
X172573810Y-89480952D02*
X172550000Y-89457142D01*
X172526190Y-89409523D01*
X172526190Y-89290476D01*
X172550000Y-89242857D01*
X172573810Y-89219047D01*
X172621429Y-89195238D01*
X172669048Y-89195238D01*
X172740476Y-89219047D01*
X173026190Y-89504761D01*
X173026190Y-89195238D01*
X172740476Y-88909524D02*
X172716667Y-88957143D01*
X172692857Y-88980952D01*
X172645238Y-89004762D01*
X172621429Y-89004762D01*
X172573810Y-88980952D01*
X172550000Y-88957143D01*
X172526190Y-88909524D01*
X172526190Y-88814286D01*
X172550000Y-88766667D01*
X172573810Y-88742857D01*
X172621429Y-88719048D01*
X172645238Y-88719048D01*
X172692857Y-88742857D01*
X172716667Y-88766667D01*
X172740476Y-88814286D01*
X172740476Y-88909524D01*
X172764286Y-88957143D01*
X172788095Y-88980952D01*
X172835714Y-89004762D01*
X172930952Y-89004762D01*
X172978571Y-88980952D01*
X173002381Y-88957143D01*
X173026190Y-88909524D01*
X173026190Y-88814286D01*
X173002381Y-88766667D01*
X172978571Y-88742857D01*
X172930952Y-88719048D01*
X172835714Y-88719048D01*
X172788095Y-88742857D01*
X172764286Y-88766667D01*
X172740476Y-88814286D01*
D11*
X147059524Y-89402381D02*
X146488095Y-89402381D01*
X146773809Y-89402381D02*
X146773809Y-88402381D01*
X146678571Y-88545238D01*
X146583333Y-88640476D01*
X146488095Y-88688095D01*
X147678571Y-88402381D02*
X147773810Y-88402381D01*
X147869048Y-88450000D01*
X147916667Y-88497619D01*
X147964286Y-88592857D01*
X148011905Y-88783333D01*
X148011905Y-89021429D01*
X147964286Y-89211905D01*
X147916667Y-89307143D01*
X147869048Y-89354762D01*
X147773810Y-89402381D01*
X147678571Y-89402381D01*
X147583333Y-89354762D01*
X147535714Y-89307143D01*
X147488095Y-89211905D01*
X147440476Y-89021429D01*
X147440476Y-88783333D01*
X147488095Y-88592857D01*
X147535714Y-88497619D01*
X147583333Y-88450000D01*
X147678571Y-88402381D01*
X148440476Y-89402381D02*
X148440476Y-88402381D01*
X149011905Y-89402381D02*
X148583333Y-88830952D01*
X149011905Y-88402381D02*
X148440476Y-88973810D01*
D12*
X147428572Y-90926190D02*
X147261905Y-90688095D01*
X147142858Y-90926190D02*
X147142858Y-90426190D01*
X147333334Y-90426190D01*
X147380953Y-90450000D01*
X147404762Y-90473810D01*
X147428572Y-90521429D01*
X147428572Y-90592857D01*
X147404762Y-90640476D01*
X147380953Y-90664286D01*
X147333334Y-90688095D01*
X147142858Y-90688095D01*
X147595239Y-90426190D02*
X147904762Y-90426190D01*
X147738096Y-90616667D01*
X147809524Y-90616667D01*
X147857143Y-90640476D01*
X147880953Y-90664286D01*
X147904762Y-90711905D01*
X147904762Y-90830952D01*
X147880953Y-90878571D01*
X147857143Y-90902381D01*
X147809524Y-90926190D01*
X147666667Y-90926190D01*
X147619048Y-90902381D01*
X147595239Y-90878571D01*
X148071429Y-90426190D02*
X148380952Y-90426190D01*
X148214286Y-90616667D01*
X148285714Y-90616667D01*
X148333333Y-90640476D01*
X148357143Y-90664286D01*
X148380952Y-90711905D01*
X148380952Y-90830952D01*
X148357143Y-90878571D01*
X148333333Y-90902381D01*
X148285714Y-90926190D01*
X148142857Y-90926190D01*
X148095238Y-90902381D01*
X148071429Y-90878571D01*
D11*
X154159524Y-89402381D02*
X153588095Y-89402381D01*
X153873809Y-89402381D02*
X153873809Y-88402381D01*
X153778571Y-88545238D01*
X153683333Y-88640476D01*
X153588095Y-88688095D01*
X154778571Y-88402381D02*
X154873810Y-88402381D01*
X154969048Y-88450000D01*
X155016667Y-88497619D01*
X155064286Y-88592857D01*
X155111905Y-88783333D01*
X155111905Y-89021429D01*
X155064286Y-89211905D01*
X155016667Y-89307143D01*
X154969048Y-89354762D01*
X154873810Y-89402381D01*
X154778571Y-89402381D01*
X154683333Y-89354762D01*
X154635714Y-89307143D01*
X154588095Y-89211905D01*
X154540476Y-89021429D01*
X154540476Y-88783333D01*
X154588095Y-88592857D01*
X154635714Y-88497619D01*
X154683333Y-88450000D01*
X154778571Y-88402381D01*
X155540476Y-89402381D02*
X155540476Y-88402381D01*
X156111905Y-89402381D02*
X155683333Y-88830952D01*
X156111905Y-88402381D02*
X155540476Y-88973810D01*
D12*
X154528572Y-90926190D02*
X154361905Y-90688095D01*
X154242858Y-90926190D02*
X154242858Y-90426190D01*
X154433334Y-90426190D01*
X154480953Y-90450000D01*
X154504762Y-90473810D01*
X154528572Y-90521429D01*
X154528572Y-90592857D01*
X154504762Y-90640476D01*
X154480953Y-90664286D01*
X154433334Y-90688095D01*
X154242858Y-90688095D01*
X154695239Y-90426190D02*
X155004762Y-90426190D01*
X154838096Y-90616667D01*
X154909524Y-90616667D01*
X154957143Y-90640476D01*
X154980953Y-90664286D01*
X155004762Y-90711905D01*
X155004762Y-90830952D01*
X154980953Y-90878571D01*
X154957143Y-90902381D01*
X154909524Y-90926190D01*
X154766667Y-90926190D01*
X154719048Y-90902381D01*
X154695239Y-90878571D01*
X155433333Y-90592857D02*
X155433333Y-90926190D01*
X155314286Y-90402381D02*
X155195238Y-90759524D01*
X155504762Y-90759524D01*
D11*
X161459524Y-93002381D02*
X160888095Y-93002381D01*
X161173809Y-93002381D02*
X161173809Y-92002381D01*
X161078571Y-92145238D01*
X160983333Y-92240476D01*
X160888095Y-92288095D01*
X162078571Y-92002381D02*
X162173810Y-92002381D01*
X162269048Y-92050000D01*
X162316667Y-92097619D01*
X162364286Y-92192857D01*
X162411905Y-92383333D01*
X162411905Y-92621429D01*
X162364286Y-92811905D01*
X162316667Y-92907143D01*
X162269048Y-92954762D01*
X162173810Y-93002381D01*
X162078571Y-93002381D01*
X161983333Y-92954762D01*
X161935714Y-92907143D01*
X161888095Y-92811905D01*
X161840476Y-92621429D01*
X161840476Y-92383333D01*
X161888095Y-92192857D01*
X161935714Y-92097619D01*
X161983333Y-92050000D01*
X162078571Y-92002381D01*
X162840476Y-93002381D02*
X162840476Y-92002381D01*
X163411905Y-93002381D02*
X162983333Y-92430952D01*
X163411905Y-92002381D02*
X162840476Y-92573810D01*
D12*
X161828572Y-91026190D02*
X161661905Y-90788095D01*
X161542858Y-91026190D02*
X161542858Y-90526190D01*
X161733334Y-90526190D01*
X161780953Y-90550000D01*
X161804762Y-90573810D01*
X161828572Y-90621429D01*
X161828572Y-90692857D01*
X161804762Y-90740476D01*
X161780953Y-90764286D01*
X161733334Y-90788095D01*
X161542858Y-90788095D01*
X161995239Y-90526190D02*
X162304762Y-90526190D01*
X162138096Y-90716667D01*
X162209524Y-90716667D01*
X162257143Y-90740476D01*
X162280953Y-90764286D01*
X162304762Y-90811905D01*
X162304762Y-90930952D01*
X162280953Y-90978571D01*
X162257143Y-91002381D01*
X162209524Y-91026190D01*
X162066667Y-91026190D01*
X162019048Y-91002381D01*
X161995239Y-90978571D01*
X162757143Y-90526190D02*
X162519048Y-90526190D01*
X162495238Y-90764286D01*
X162519048Y-90740476D01*
X162566667Y-90716667D01*
X162685714Y-90716667D01*
X162733333Y-90740476D01*
X162757143Y-90764286D01*
X162780952Y-90811905D01*
X162780952Y-90930952D01*
X162757143Y-90978571D01*
X162733333Y-91002381D01*
X162685714Y-91026190D01*
X162566667Y-91026190D01*
X162519048Y-91002381D01*
X162495238Y-90978571D01*
D11*
X168759524Y-89502381D02*
X168188095Y-89502381D01*
X168473809Y-89502381D02*
X168473809Y-88502381D01*
X168378571Y-88645238D01*
X168283333Y-88740476D01*
X168188095Y-88788095D01*
X169378571Y-88502381D02*
X169473810Y-88502381D01*
X169569048Y-88550000D01*
X169616667Y-88597619D01*
X169664286Y-88692857D01*
X169711905Y-88883333D01*
X169711905Y-89121429D01*
X169664286Y-89311905D01*
X169616667Y-89407143D01*
X169569048Y-89454762D01*
X169473810Y-89502381D01*
X169378571Y-89502381D01*
X169283333Y-89454762D01*
X169235714Y-89407143D01*
X169188095Y-89311905D01*
X169140476Y-89121429D01*
X169140476Y-88883333D01*
X169188095Y-88692857D01*
X169235714Y-88597619D01*
X169283333Y-88550000D01*
X169378571Y-88502381D01*
X170140476Y-89502381D02*
X170140476Y-88502381D01*
X170711905Y-89502381D02*
X170283333Y-88930952D01*
X170711905Y-88502381D02*
X170140476Y-89073810D01*
D12*
X169128572Y-91026190D02*
X168961905Y-90788095D01*
X168842858Y-91026190D02*
X168842858Y-90526190D01*
X169033334Y-90526190D01*
X169080953Y-90550000D01*
X169104762Y-90573810D01*
X169128572Y-90621429D01*
X169128572Y-90692857D01*
X169104762Y-90740476D01*
X169080953Y-90764286D01*
X169033334Y-90788095D01*
X168842858Y-90788095D01*
X169295239Y-90526190D02*
X169604762Y-90526190D01*
X169438096Y-90716667D01*
X169509524Y-90716667D01*
X169557143Y-90740476D01*
X169580953Y-90764286D01*
X169604762Y-90811905D01*
X169604762Y-90930952D01*
X169580953Y-90978571D01*
X169557143Y-91002381D01*
X169509524Y-91026190D01*
X169366667Y-91026190D01*
X169319048Y-91002381D01*
X169295239Y-90978571D01*
X170033333Y-90526190D02*
X169938095Y-90526190D01*
X169890476Y-90550000D01*
X169866667Y-90573810D01*
X169819048Y-90645238D01*
X169795238Y-90740476D01*
X169795238Y-90930952D01*
X169819048Y-90978571D01*
X169842857Y-91002381D01*
X169890476Y-91026190D01*
X169985714Y-91026190D01*
X170033333Y-91002381D01*
X170057143Y-90978571D01*
X170080952Y-90930952D01*
X170080952Y-90811905D01*
X170057143Y-90764286D01*
X170033333Y-90740476D01*
X169985714Y-90716667D01*
X169890476Y-90716667D01*
X169842857Y-90740476D01*
X169819048Y-90764286D01*
X169795238Y-90811905D01*
D11*
X41023809Y-68128571D02*
X40690475Y-68128571D01*
X40690475Y-68652381D02*
X40690475Y-67652381D01*
X41166666Y-67652381D01*
X41976190Y-68652381D02*
X41976190Y-68128571D01*
X41928571Y-68033333D01*
X41833333Y-67985714D01*
X41642856Y-67985714D01*
X41547618Y-68033333D01*
X41976190Y-68604762D02*
X41880952Y-68652381D01*
X41642856Y-68652381D01*
X41547618Y-68604762D01*
X41499999Y-68509524D01*
X41499999Y-68414286D01*
X41547618Y-68319048D01*
X41642856Y-68271429D01*
X41880952Y-68271429D01*
X41976190Y-68223810D01*
X42452380Y-68652381D02*
X42452380Y-67652381D01*
X42452380Y-68033333D02*
X42547618Y-67985714D01*
X42738095Y-67985714D01*
X42833333Y-68033333D01*
X42880952Y-68080952D01*
X42928571Y-68176190D01*
X42928571Y-68461905D01*
X42880952Y-68557143D01*
X42833333Y-68604762D01*
X42738095Y-68652381D01*
X42547618Y-68652381D01*
X42452380Y-68604762D01*
X44119047Y-68652381D02*
X44119047Y-67652381D01*
X44357142Y-67652381D01*
X44500000Y-67700000D01*
X44595238Y-67795238D01*
X44642857Y-67890476D01*
X44690476Y-68080952D01*
X44690476Y-68223810D01*
X44642857Y-68414286D01*
X44595238Y-68509524D01*
X44500000Y-68604762D01*
X44357142Y-68652381D01*
X44119047Y-68652381D01*
X45500000Y-68604762D02*
X45404762Y-68652381D01*
X45214285Y-68652381D01*
X45119047Y-68604762D01*
X45071428Y-68509524D01*
X45071428Y-68128571D01*
X45119047Y-68033333D01*
X45214285Y-67985714D01*
X45404762Y-67985714D01*
X45500000Y-68033333D01*
X45547619Y-68128571D01*
X45547619Y-68223810D01*
X45071428Y-68319048D01*
X45833333Y-67985714D02*
X46214285Y-67985714D01*
X45976190Y-67652381D02*
X45976190Y-68509524D01*
X46023809Y-68604762D01*
X46119047Y-68652381D01*
X46214285Y-68652381D01*
X46976191Y-68652381D02*
X46976191Y-68128571D01*
X46928572Y-68033333D01*
X46833334Y-67985714D01*
X46642857Y-67985714D01*
X46547619Y-68033333D01*
X46976191Y-68604762D02*
X46880953Y-68652381D01*
X46642857Y-68652381D01*
X46547619Y-68604762D01*
X46500000Y-68509524D01*
X46500000Y-68414286D01*
X46547619Y-68319048D01*
X46642857Y-68271429D01*
X46880953Y-68271429D01*
X46976191Y-68223810D01*
X47452381Y-68652381D02*
X47452381Y-67985714D01*
X47452381Y-67652381D02*
X47404762Y-67700000D01*
X47452381Y-67747619D01*
X47500000Y-67700000D01*
X47452381Y-67652381D01*
X47452381Y-67747619D01*
X48071428Y-68652381D02*
X47976190Y-68604762D01*
X47928571Y-68509524D01*
X47928571Y-67652381D01*
X48404762Y-68604762D02*
X48500000Y-68652381D01*
X48690476Y-68652381D01*
X48785715Y-68604762D01*
X48833334Y-68509524D01*
X48833334Y-68461905D01*
X48785715Y-68366667D01*
X48690476Y-68319048D01*
X48547619Y-68319048D01*
X48452381Y-68271429D01*
X48404762Y-68176190D01*
X48404762Y-68128571D01*
X48452381Y-68033333D01*
X48547619Y-67985714D01*
X48690476Y-67985714D01*
X48785715Y-68033333D01*
X49880953Y-67985714D02*
X50261905Y-67985714D01*
X50023810Y-67652381D02*
X50023810Y-68509524D01*
X50071429Y-68604762D01*
X50166667Y-68652381D01*
X50261905Y-68652381D01*
X51023811Y-68652381D02*
X51023811Y-68128571D01*
X50976192Y-68033333D01*
X50880954Y-67985714D01*
X50690477Y-67985714D01*
X50595239Y-68033333D01*
X51023811Y-68604762D02*
X50928573Y-68652381D01*
X50690477Y-68652381D01*
X50595239Y-68604762D01*
X50547620Y-68509524D01*
X50547620Y-68414286D01*
X50595239Y-68319048D01*
X50690477Y-68271429D01*
X50928573Y-68271429D01*
X51023811Y-68223810D01*
X51500001Y-68652381D02*
X51500001Y-67652381D01*
X51500001Y-68033333D02*
X51595239Y-67985714D01*
X51785716Y-67985714D01*
X51880954Y-68033333D01*
X51928573Y-68080952D01*
X51976192Y-68176190D01*
X51976192Y-68461905D01*
X51928573Y-68557143D01*
X51880954Y-68604762D01*
X51785716Y-68652381D01*
X51595239Y-68652381D01*
X51500001Y-68604762D01*
X52547620Y-68652381D02*
X52452382Y-68604762D01*
X52404763Y-68509524D01*
X52404763Y-67652381D01*
X53309526Y-68604762D02*
X53214288Y-68652381D01*
X53023811Y-68652381D01*
X52928573Y-68604762D01*
X52880954Y-68509524D01*
X52880954Y-68128571D01*
X52928573Y-68033333D01*
X53023811Y-67985714D01*
X53214288Y-67985714D01*
X53309526Y-68033333D01*
X53357145Y-68128571D01*
X53357145Y-68223810D01*
X52880954Y-68319048D01*
M02*
